<svg id="Logo" xmlns="http://www.w3.org/2000/svg" viewBox="200 -200 560 960"><style>.st0{fill:#111}</style><circle class="st0" cx="557.804" cy="-118.326" r="23.308"/><path d="M574.97 54.795H385.753a7.472 7.472 0 0 1-7.472-7.472V-53.895a7.472 7.472 0 0 1 7.472-7.472h11.033a7.472 7.472 0 0 1 7.471 7.472v72.324a7.472 7.472 0 0 0 7.472 7.471h45.472a7.472 7.472 0 0 0 7.472-7.471v-69.697a7.472 7.472 0 0 1 7.472-7.472h11.324a7.472 7.472 0 0 1 7.472 7.472v69.697a7.472 7.472 0 0 0 7.471 7.471h76.556a7.472 7.472 0 0 1 7.472 7.472v13.951a7.472 7.472 0 0 1-7.472 7.472z" fill="#f99d0b"/><path class="st0" d="M384.113 695.374v-26.087a5.407 5.407 0 0 1 4.067-5.238l135.969-34.782c5.367-1.372 5.446-8.974.105-10.446-6.245-1.723-12.587-3.525-18.88-5.488-38.455-12-76.838-24.232-115.207-36.507-3.394-1.085-6.204-4.889-6.27-8.452-.132-7.157-.116-14.32.102-21.472.039-1.275 1.629-3.256 2.883-3.63 52.172-15.574 104.388-31 156.597-46.45.275-.081.544-.182.484-.165-.86.245-1.787-.017-2.65-.253l-153.135-41.94a5.407 5.407 0 0 1-3.979-5.215v-25.06c0-3.645 3.54-6.244 7.022-5.16 3.294 1.027 6.49 2.027 9.675 3.054 58.577 18.887 117.161 37.753 175.672 56.844 1.759.574 3.816 3.494 3.896 5.398.35 8.23.228 16.48.192 25.395a5.413 5.413 0 0 1-3.813 5.147l-132.26 40.809c-5.171 1.596-5.05 8.955.172 10.38 10.834 2.958 22.47 6.187 33.948 9.904 33.377 10.81 66.524 22.33 99.745 33.615.825.28 1.996 1.287 2.004 1.968.112 9.18.096 18.36.09 27.818a5.416 5.416 0 0 1-3.845 5.18l-185.609 56.008c-3.47 1.047-6.975-1.55-6.975-5.175zM541.7 193.22l-153.597-42.093a5.407 5.407 0 0 1-3.978-5.215v-25.04c0-3.642 3.533-6.24 7.012-5.164a880.858 880.858 0 0 1 9.783 3.075c58.658 18.912 117.322 37.81 175.918 56.915 1.647.537 3.571 3.297 3.639 5.086.315 8.314.21 16.644.177 25.63a5.41 5.41 0 0 1-3.813 5.148l-132.299 40.815c-5.138 1.585-5.066 8.88.103 10.36 14.026 4.019 29.25 8.383 44.313 13.244 29.65 9.567 59.065 19.867 88.52 30.029 1.359.468 2.99 2.628 3.028 4.039.228 8.577.165 17.162.144 25.98a5.413 5.413 0 0 1-3.846 5.171l-185.628 56.013c-3.471 1.047-6.974-1.55-6.974-5.175v-26.083a5.406 5.406 0 0 1 4.066-5.237l135.828-34.745c5.308-1.358 5.466-8.868.21-10.413a174.42 174.42 0 0 1-2.238-.674c-37.266-11.522-74.488-23.187-111.72-34.822-6.532-2.041-13.087-4.03-19.553-6.265-3.695-1.277-6.807-5.554-6.911-9.463a326.46 326.46 0 0 1 .114-20.255c.05-1.444 1.605-3.716 2.914-4.107 52.165-15.595 104.382-31.017 156.591-46.466.235-.07.466-.155.483-.165.67-.387-1.54.082-2.286-.123z"/></svg>