<svg id="Logo" xmlns="http://www.w3.org/2000/svg" viewBox="0 0 960 560"><style>.st1{fill:#111}.st3{fill:#f4f4f4}</style><path class="st1" d="M36.456 159.368h21.197a4.393 4.393 0 0 1 4.256 3.304l28.26 110.474c1.115 4.361 7.29 4.425 8.488.086 1.399-5.074 2.863-10.227 4.458-15.34 9.75-31.245 19.689-62.431 29.662-93.606.882-2.758 3.972-5.04 6.867-5.094a357.307 357.307 0 0 1 17.447.082c1.035.032 2.645 1.324 2.95 2.343 12.652 42.39 25.187 84.815 37.739 127.235.066.223.148.442.134.394-.199-.7.014-1.452.206-2.154l34.076-124.422a4.393 4.393 0 0 1 4.237-3.233h20.36c2.963 0 5.075 2.877 4.194 5.705a839.8 839.8 0 0 1-2.481 7.861c-15.346 47.594-30.675 95.194-46.186 142.734-.467 1.429-2.84 3.1-4.386 3.166-6.687.283-13.39.185-20.633.155a4.398 4.398 0 0 1-4.182-3.098L149.962 208.5c-1.297-4.203-7.277-4.103-8.435.139-2.403 8.802-5.026 18.257-8.047 27.583-8.782 27.118-18.142 54.05-27.312 81.043-.228.67-1.046 1.621-1.598 1.628-7.458.09-14.918.078-22.602.073a4.4 4.4 0 0 1-4.21-3.124c-15.151-50.214-30.264-100.298-45.506-150.807-.85-2.82 1.259-5.667 4.204-5.667zm408.001 128.039l34.2-124.798a4.394 4.394 0 0 1 4.238-3.232h20.345c2.959 0 5.07 2.87 4.195 5.697-.836 2.7-1.653 5.329-2.498 7.949-15.366 47.66-30.72 95.324-46.243 142.933-.437 1.338-2.68 2.902-4.133 2.957-6.755.256-13.523.17-20.824.144a4.396 4.396 0 0 1-4.183-3.098c-11.257-36.49-22.48-72.872-33.162-107.493-1.288-4.175-7.215-4.116-8.418.084-3.265 11.396-6.811 23.764-10.76 36.003-7.774 24.092-16.142 47.991-24.399 71.924-.38 1.103-2.135 2.429-3.281 2.46-6.97.185-13.945.133-21.11.117a4.398 4.398 0 0 1-4.201-3.126l-45.51-150.822c-.851-2.82 1.258-5.667 4.204-5.667h21.192a4.392 4.392 0 0 1 4.256 3.304l28.23 110.36c1.103 4.313 7.205 4.441 8.46.171.18-.607.362-1.213.549-1.819 9.36-30.278 18.839-60.521 28.292-90.771 1.659-5.308 3.275-10.634 5.09-15.887 1.038-3.003 4.514-5.531 7.69-5.616a265.722 265.722 0 0 1 16.457.092c1.173.042 3.019 1.305 3.337 2.368 12.67 42.385 25.2 84.81 37.753 127.23.056.192.126.379.134.393.314.544-.066-1.251.1-1.857z"/><circle class="st1" cx="918.737" cy="300.491" r="18.938"/><path d="M819.584 122.846c13.154-2.312 12.575-4.336 9.106.578-3.469 4.915-1.3 13.732 2.602 14.021 3.903.29 5.782-1.3 11.274 7.083 5.493 8.383 3.759 14.598 8.24 14.165 3.725-.36 10.945 7.37 13.273 9.986 2.107-6.687-10.535-26.79-5.989-30.981 6.938-6.396-1.251-22.607 2.313-29.161 4.48-8.24 17.923-14.165 27.174-16.478-23.416-8.456-28.041-.578-44.953-8.817-16.911-8.24-69.958-54.493-117.223-32.378C678.135 72.98 661.947 72.834 642 94.805c-19.947 21.97-26.885 41.34-50.012 53.192-23.126 11.852-80.654 12.72-108.117 58.973a208.92 208.92 0 0 1-11.644 17.566c-.643 4.218-.813 12.803 8.84 11.487 0 0-12.286 8.961-1.735 10.118 10.552 1.156 24.24 8.69 11.517 11.929l-.014.004c28.428-5.482 38.128 3.15 77.16-51.104 0 0 19.876-24.85 3.902 17.345-3.519 9.295-7.198 14.62-10.848 17.977 3.565-.537 8.983.07 9.273 8.619.433 12.791 35.397 1.774 44.8-6.16 11.649-10.125 19.769-26.246 41.766-62.644 24.283-40.181 38.159-19.367 60.274-37.146 20.387-16.39 20.154-13.603 39.354 4.595 3.932 2.664 4.68-4.417.509-9.952-4.31-5.718-2.412-10.65.759-11.925 3.085-1.24 6.567-2.429 8.015-2.913 3.354-1.22 9.324-3.115 15.44-3.493.005 0 .01-.002.014-.003 19.92-3.02 25.178 3.889 38.331 1.576z" fill="#f99d0b"/><path class="st3" d="M479.332 246.14c-10.551-1.156 1.735-10.117 1.735-10.117-9.653 1.316-9.483-7.269-8.84-11.487-22.075 37.077-23.327 41.658-16.596 68.857.187.753 1.274.7 1.38-.068 1.164-8.408 5.751-27.498 23.608-32.802 3.672-1.091 7.062-1.84 10.216-2.449l.014-.004c12.722-3.24-.965-10.773-11.517-11.93z"/><path class="st1" d="M570.322 250.91c-.29-8.547-5.708-9.155-9.273-8.618-12.242 11.258-24.158.32-28.612 42.297 0 0-.783 15.893-19.08 23.705-12.864 5.492 1.88 19.513 24.139 4.191 0 0 9.54-6.793 11.853-24.427 2.821-21.515 48.132-30.354 62.008-40.327a51.794 51.794 0 0 0 3.765-2.98c-9.403 7.934-44.367 18.951-44.8 6.16zm186.703-111.306c4.17 5.535 3.423 12.616-.509 9.952a375.4 375.4 0 0 0 5.31 4.945c24.716 22.549-16.045 12.575-21.248 31.221-5.204 18.646 14.31 10.407 22.548 7.372 8.239-3.036 37.5-18.832 29.92-29.487-16.246-22.837-34.04-36.208-29.053-38.159.458-.18 1.07-.415 1.806-.682-1.448.484-4.93 1.674-8.015 2.913-3.171 1.274-5.068 6.207-.76 11.925z"/><path class="st3" d="M799.334 129.676s5.618 1.286 16.695 7.263c14.598 7.878 25.945 32.522 31.871 32.414 4.564-.084 10.895 4.444 15.285.759.428-.36.71-.851.894-1.433-2.328-2.616-9.548-10.347-13.274-9.986-4.48.433-2.746-5.782-8.239-14.165-5.492-8.384-7.371-6.794-11.274-7.083-3.902-.29-6.07-9.106-2.602-14.02 3.47-4.915 4.048-2.891-9.106-.579-13.153 2.313-18.411-4.597-38.33-1.576l-.015.003c7.144-.441 14.488 1.189 18.095 8.403z"/><path class="st1" d="M864.079 164.519s-3.156-1.545-4.005-.018-.018 3.153 0 4.346c.018 1.192-.311 1.985.358 2.574.156.138 3.11-.754 3.647-2.742.283-1.048.675-1.747 0-4.16z"/></svg>