<svg id="Logo" xmlns="http://www.w3.org/2000/svg" viewBox="0 0 400 250"><style>.st1{fill:#111}.st3{fill:#f4f4f4}</style><path class="st1" d="M20.2 75h8.6c.8 0 1.5.6 1.7 1.3 3.8 15 7.7 30 11.5 44.8.5 1.8 3 1.8 3.4 0 .6-2.1 1.2-4.1 1.8-6.2 4-12.7 8-25.3 12-38 .4-1.1 1.6-2 2.8-2.1h7.1c.4 0 1.1.5 1.2 1l15.3 51.6c0 .1.1.2.1.2-.1-.3 0-.6.1-.9 4.5-16.6 9.2-33.5 13.8-50.5.2-.8.9-1.3 1.7-1.3h8.3c1.2 0 2.1 1.2 1.7 2.3-.3 1.1-.7 2.1-1 3.2-6.2 19.3-12.4 38.6-18.7 57.9-.2.6-1.2 1.3-1.8 1.3-2.7.1-5.4.1-8.4.1-.8 0-1.5-.5-1.7-1.3-4.6-14.8-9.1-29.5-13.4-43.6-.5-1.7-3-1.7-3.4.1-1 3.6-2 7.4-3.3 11.2-3.6 11-7.4 21.9-11.1 32.9-.1.3-.4.7-.6.7h-9.2c-.8 0-1.5-.5-1.7-1.3-6.1-20.4-12.3-40.7-18.5-61.2-.4-1.1.5-2.2 1.7-2.2zm165.4 51.9c4.6-16.6 9.2-33.6 13.9-50.6.2-.8.9-1.3 1.7-1.3h8.3c1.2 0 2.1 1.2 1.7 2.3-.3 1.1-.7 2.2-1 3.2-6.2 19.3-12.5 38.7-18.8 58-.2.5-1.1 1.2-1.7 1.2-2.7.1-5.5.1-8.4.1-.8 0-1.5-.5-1.7-1.3-4.6-14.8-9.1-29.6-13.4-43.6-.5-1.7-2.9-1.7-3.4 0-1.3 4.6-2.8 9.6-4.4 14.6-3.2 9.8-6.5 19.5-9.9 29.2-.2.4-.9 1-1.3 1-2.8.1-5.7.1-8.6 0-.8 0-1.5-.5-1.7-1.3-6.2-20.4-12.3-40.7-18.5-61.2-.3-1.1.5-2.3 1.7-2.3h8.6c.8 0 1.5.6 1.7 1.3 3.8 14.9 7.6 29.9 11.4 44.8.4 1.7 2.9 1.8 3.4.1.1-.2.1-.5.2-.7 3.8-12.3 7.6-24.5 11.5-36.8.7-2.2 1.3-4.3 2.1-6.4.4-1.2 1.8-2.2 3.1-2.3 2.2-.1 4.5 0 6.7 0 .5 0 1.2.5 1.4 1l15.3 51.6c0 .1.1.2.1.2.1.2 0-.5 0-.8z"/><circle class="st1" cx="378" cy="132.2" r="7.7"/><path d="M337.8 60c5.3-.9 5.1-1.8 3.7.2-1.4 2-.5 5.6 1.1 5.7 1.6.1 2.3-.5 4.6 2.9 2.2 3.4 1.5 5.9 3.3 5.7 1.5-.1 4.4 3 5.4 4 .9-2.7-4.3-10.9-2.4-12.6 2.8-2.6-.5-9.2.9-11.8 1.8-3.3 7.3-5.7 11-6.7-9.5-3.4-11.4-.2-18.2-3.6-6.9-3.3-28.4-22.1-47.5-13.1s-25.7 8.9-33.8 17.8c-8.1 8.9-10.9 16.8-20.3 21.6-9.4 4.8-32.7 5.2-43.8 23.9-1.7 2.8-3.2 5.1-4.7 7.1-.3 1.7-.3 5.2 3.6 4.7 0 0-5 3.6-.7 4.1s9.8 3.5 4.7 4.8c11.5-2.2 15.5 1.3 31.3-20.7 0 0 8.1-10.1 1.6 7-1.4 3.8-2.9 5.9-4.4 7.3 1.4-.2 3.6 0 3.8 3.5.2 5.2 14.4.7 18.2-2.5 4.7-4.1 8-10.6 16.9-25.4 9.8-16.3 15.5-7.9 24.4-15.1 8.3-6.6 8.2-5.5 16 1.9 1.6 1.1 1.9-1.8.2-4-1.7-2.3-1-4.3.3-4.8s2.7-1 3.3-1.2c1.4-.5 3.8-1.3 6.3-1.4 7.7-1.1 9.8 1.7 15.2.7z" fill="#f99d0b"/><path class="st3" d="M199.8 110c-4.3-.5.7-4.1.7-4.1-3.9.5-3.8-2.9-3.6-4.7-9 15-9.5 16.9-6.7 27.9.1.3.5.3.6 0 .5-3.4 2.3-11.2 9.6-13.3 1.5-.4 2.9-.7 4.1-1 5.1-1.2-.4-4.3-4.7-4.8z"/><path class="st1" d="M236.7 112c-.1-3.5-2.3-3.7-3.8-3.5-5 4.6-9.8.1-11.6 17.2 0 0-.3 6.4-7.7 9.6-5.2 2.2.8 7.9 9.8 1.7 0 0 3.9-2.8 4.8-9.9 1.1-8.7 19.5-12.3 25.1-16.4l1.5-1.2c-3.8 3.2-17.9 7.7-18.1 2.5zm75.7-45.2c1.7 2.2 1.4 5.1-.2 4 .7.6 1.4 1.3 2.2 2 10 9.1-6.5 5.1-8.6 12.7-2.1 7.6 5.8 4.2 9.1 3 3.3-1.2 15.2-7.6 12.1-12-6.6-9.3-13.8-14.7-11.8-15.5.2-.1.4-.2.7-.3-.6.2-2 .7-3.3 1.2-1.2.6-1.9 2.6-.2 4.9z"/><path class="st3" d="M329.6 62.8s2.3.5 6.8 2.9c5.9 3.2 10.5 13.2 12.9 13.1 1.9 0 4.4 1.8 6.2.3.2-.1.3-.3.4-.6-.9-1.1-3.9-4.2-5.4-4-1.8.2-1.1-2.3-3.3-5.7-2.2-3.4-3-2.8-4.6-2.9-1.6-.1-2.5-3.7-1.1-5.7s1.6-1.2-3.7-.2c-5.3.9-7.5-1.9-15.5-.6 2.8-.2 5.8.5 7.3 3.4z"/><path class="st1" d="M355.8 76.9s-1.3-.6-1.6 0c-.3.6 0 1.3 0 1.8s-.1.8.1 1c.1.1 1.3-.3 1.5-1.1.1-.4.3-.7 0-1.7z"/></svg>