<svg id="Слой_1" xmlns="http://www.w3.org/2000/svg" viewBox="0 0 500 499.507"><style>.st2{fill:#ccc}.st5{fill:#f7f7f7}.st11{fill:#1c1c1c}.st12{fill:none;stroke:#1c1c1c;stroke-width:4;stroke-miterlimit:10}</style><path fill="#f47f31" d="M0-.246h500v500H0z"/><g id="fon"><linearGradient id="SVGID_1_" gradientUnits="userSpaceOnUse" x1="-365.431" y1="614.41" x2="-217.101" y2="484.196" gradientTransform="matrix(2.16 0 0 -2.16 975.64 1514.36)"><stop offset="0" stop-opacity=".3"/><stop offset="1" stop-opacity="0"/></linearGradient><path d="M169.506 320.606l29.402 29.402 40.977 68.44 28.582 28.583 3.019 9.588 42.888 42.888L500 499.49V293.006L266.23 57.548a.907.907 0 0 0-1.496.33l-95.228 262.728z" fill="url(#SVGID_1_)"/></g><g id="palci_ruki"><path class="st2" d="M237.715 408.146c-6.055 2.738-11.793-6.376-28.955-34.847-12.453-20.662-13.082-42.023-7.027-44.76 1.283-.58 6.09-4.365 7.899-3.412 6.728 3.545 8.845 22.257 16.675 39.581 9.937 21.984 17.463 40.701 11.408 43.438z"/><path d="M249.904 420.46c-9.643 3.251-20.566-6.904-38.828-57.5-12.543-34.75-13.553-66.024-3.91-69.274 3.964-1.336 10.957-8.237 16.61-1.147 8.103 10.16 10.319 41.806 17.887 62.207 20.337 54.82 17.884 62.463 8.241 65.714z" fill="#d6d6d6"/><path class="st2" d="M239.303 283.186c1.3-4.178 3.464-12.626 12.227-13.47 15.25-1.466 43.283 8.006 69.783 16.253 41.73 12.987 76.511 34.217 72.94 45.664-.872 2.794-2.303 12.4-6.711 13.697-13.659 4.017-47.588-8.083-79.133-17.899-41.728-12.987-72.669-32.796-69.106-44.245z"/><path d="M230.166 393.4c-10.545.118-12.428-18.363-17.13-56.406-2.92-23.627-6.532-46.82-1.888-59.472 3.053-8.317 15.994-6.534 19.823-3.775 8.558 6.163 6.515 22.003 9.54 64.542 3.89 54.685.201 54.993-10.345 55.112z" fill="#e8e8e8"/><path class="st5" d="M260.236 244.484c4.8-10.989 29.685-7.115 69.578 10.311s65.08 39.557 63.54 51.45c-1.905 14.702 2.815 14.65 2.815 23.198 0 12.271-3.776 1.887-12.272 35.87-3.47 13.883-53.118-62.71-71.466-70.725-39.893-17.427-56.995-39.116-52.195-50.104zm-64.866 49.861c-3.404 25.976-9.34 31.74-17.428 31.044s-13.645-6.797-11.862-33.566c1.026-15.402 3.451-28.472 10.322-31.164 1.1-.432 15.312.768 16.428.864 8.088.697 4.867 15.067 2.54 32.822z"/></g><g id="vizitka"><path d="M191.572 293.275l149.56-38.202c8.59-2.195 13.074-11.656 9.332-19.695L270 62.514a14.16 14.16 0 0 0-15.959-7.835L106.21 88.095c-8.701 1.967-13.438 11.392-9.823 19.548l78.737 177.65a14.16 14.16 0 0 0 16.45 7.982z" fill="#f9d332"/><path d="M282.167 92.06l-12.833-27.57a13.857 13.857 0 0 0-15.619-7.67L109.031 89.526c-8.516 1.925-13.152 11.15-9.614 19.133l1.041 2.35 181.71-18.948z" fill="#f7dd6f"/><path d="M192.195 291.288l147.243-37.596c8.458-2.16 12.872-11.471 9.188-19.382l-17.923-38.49-207.576-31.639L176 283.433a13.942 13.942 0 0 0 16.195 7.855z" fill="#eac31c"/><path d="M298.184 167.142c-2.972-2.583-3.86-5.74-2.472-9.529-.049-.191 6.055-9.734 6.055-9.734a.768.768 0 0 0-.522-1.127s-12.02-3.233-12.134-3.393c-3.892-1.361-6.335-3.678-5.667-8.05-.145-.206 2.038-4.575 2.038-4.575.262-.717-.567-1.336-1.18-.882L267.36 140.14a.782.782 0 0 0-.31.716c.79 6.797 3.381 13.701 5.71 18.73 1.939 4.189 5.714 10.04 10.197 15.567.186.23.488.332.776.266l19.961-3.688c.744-.173.807-1.206.09-1.469.002-.001-5.536-2.876-5.6-3.12z" fill="#e2ba13"/><path d="M249.68 156.818l-18.493-40.412a2.84 2.84 0 0 1 1.397-3.754 2.84 2.84 0 0 1 3.753 1.397l18.493 40.413a2.84 2.84 0 0 1-1.397 3.753 2.84 2.84 0 0 1-3.753-1.397zm-1.834 77.661l-31.424-68.67a2.84 2.84 0 0 1 1.397-3.753 2.84 2.84 0 0 1 3.753 1.397l31.424 68.669a2.84 2.84 0 0 1-1.397 3.753 2.839 2.839 0 0 1-3.753-1.396zm-63.948-26.521l-17.9-40.596a2.84 2.84 0 0 1 1.448-3.734 2.84 2.84 0 0 1 3.734 1.449l17.9 40.595a2.84 2.84 0 0 1-1.448 3.735 2.842 2.842 0 0 1-3.734-1.45zm89.35.362l-15.712-34.334a2.84 2.84 0 0 1 1.397-3.753 2.84 2.84 0 0 1 3.753 1.396l15.712 34.335a2.84 2.84 0 0 1-1.397 3.753 2.84 2.84 0 0 1-3.753-1.396zm-69.545 44.551l-12.188-27.64a2.84 2.84 0 0 1 1.449-3.734 2.84 2.84 0 0 1 3.734 1.449l12.188 27.64a2.84 2.84 0 0 1-1.449 3.734 2.84 2.84 0 0 1-3.734-1.449zm88.007-4.206l-10.606-23.176a2.84 2.84 0 0 1 1.396-3.754 2.84 2.84 0 0 1 3.754 1.397l10.606 23.176a2.84 2.84 0 0 1-1.397 3.754 2.84 2.84 0 0 1-3.753-1.397zm-82.514-97.608l-10.606-23.176a2.84 2.84 0 0 1 1.397-3.753 2.84 2.84 0 0 1 3.753 1.396l10.606 23.177a2.84 2.84 0 0 1-1.397 3.753 2.84 2.84 0 0 1-3.753-1.397z" fill="#f2f2f2"/><path class="st11" d="M195.467 92.789l-17.42 13.532c-3.506 2.723-3.964 7.849-.996 11.15l1.61 1.793a2.335 2.335 0 0 0 3.204.256l3.41-2.749a4.917 4.917 0 0 0 .635-7.04 1.731 1.731 0 0 1 .223-2.477l9.34-7.532a1.73 1.73 0 0 1 2.464.3 4.394 4.394 0 0 0 6.196.815l2.714-2.108a2.336 2.336 0 0 0 .386-3.31l-1.123-1.394a7.648 7.648 0 0 0-10.643-1.236z"/><ellipse transform="rotate(-107.661 154.534 138.148)" class="st12" cx="154.534" cy="138.148" rx="8.392" ry="13.085"/><path class="st12" d="M168.696 143.611s-3.5-.697-12.521 2.788-10.802 4.053-10.717 6.374 6.15 4.074 14.292.895c8.142-3.18 19.23-8.646 14.373-21.765-4.667-12.604-18.54-11.477-24.901-8.864-6.36 2.612-19.048 8.766-14.764 21.492 2.448 7.274 4.904 8.035 4.904 8.035"/><path class="st11" d="M232.112 90.272c-.14-.688.68-1.287 1.37-1.01a7.625 7.625 0 0 0 6.058-.176c3.784-1.753 5.477-6.144 3.78-9.808-1.696-3.664-6.14-5.215-9.924-3.462a7.64 7.64 0 0 0-3.927 4.148c-.272.695-1.278.863-1.663.284-4.008-6.015-8.032-5.42-13.777-4.136-.597.133-.963.728-.74 1.21l11.211 24.214c.177.382.66.538 1.121.376 4.16-1.469 7.905-4.612 6.49-11.64z"/></g><g id="palec"><path class="st5" d="M384.84 382.305c.944-15.104 8.496-20.768 8.496-25.488s-.275-6.296-3.441-20.14c-.005-.02-.017-.033-.023-.052-.871-12.01-5.081-23.145-12.933-32.087-16.887-19.233-45.963-23.158-74.035-12.673-12.773 4.77-27.08-1.02-32.576-13.498-2.38-5.402-5.018-10.158-7.824-14.112a25.148 25.148 0 0 1-4.664-14.549c0-5.653-.39-11.666-1.21-17.87-3.985-30.091-10.527-57.571-28.64-56.565-19.196 1.067-17.295 32.028-13.31 62.12 1.421 10.737 3.943 20.585 7.124 28.747a24.793 24.793 0 0 1 1.216 13.925c-2.547 12.544-3 28.209-.787 44.931 2.088 15.774 6.225 30.019 11.492 41.194a25.885 25.885 0 0 1 2.449 11.773c-.402 14.513 3.81 28.127 13.083 38.688a51.151 51.151 0 0 0 2.244 2.392v.001s14.839 19.228 18.174 33.118c8.429 35.104 148.178-4.468 120.83-36.815 0 0-6.609-17.936-5.665-33.04z"/><path d="M294.068 293.717s26.498 14.38 22.473 41.55c-2.863 19.327-19.938 49.066-27.169 58.363-7.044 9.057-25.157 17.107-33.207 10.063s-31.16-53.988-32.686-70.767l-1.038-6.425s10.58 26.88 17.624 43.986c0 0 10.063 22.138 19.12 31.194 0 0 15.093 6.038 29.18-13.081 1.494.57 18.967-30.484 25.157-54.338 1.007-4.025 3.795-20.023-24.54-41.256l5.086.711zm99.452 24.573s-3.522 10.94-11.572 24.02-9.056 30.189-6.037 54.339c1.006 8.05 7.043 9.056 4.025-5.031 0 0-5.032-29.182 5.03-45.282 0 0 5.032-9.057 10.68-21.362l-2.127-6.684zm-5.13 90.32s-14.492 17.22-52.73 27.283c-37.056 9.752-39.244 8.05-70.104 5.494l2.602 5.951s31.277 8.68 69.515-4.401 28.175-10.063 53.332-27.17l-2.615-7.157z" fill="#eaeaea"/><path d="M227.99 175.271c-19.224-.16-17.295 32.028-13.31 62.12 1.421 10.737 3.943 20.585 7.124 28.747a24.793 24.793 0 0 1 1.216 13.925c-2.547 12.544-3 28.209-.787 44.931 2.088 15.774 6.225 30.019 11.492 41.194a25.885 25.885 0 0 1 2.449 11.773c-.402 14.513 3.81 28.127 13.083 38.688a51.151 51.151 0 0 0 2.244 2.392v.001c-.417.075 15.365 19.1 18.174 33.118 3.597 17.947 42.994 13.77 42.358 13.132-21.667-21.667-55.62-64.579-63.918-92.793-15.094-51.32-19.927-38.23-19.119-69.433.865-33.37-16.1-66.413-12.075-112.701 1.243-14.29 12.251-15.084 11.069-15.094z" opacity=".2"/></g></svg>