<svg id="Слой_1" xmlns="http://www.w3.org/2000/svg" viewBox="0 0 500 499.507"><style>.st2{fill:#2b236d}.st3{fill:#1e194d}</style><path fill="#88f2f2" d="M-.127-.246h500v500h-500z"/><linearGradient id="SVGID_1_" gradientUnits="userSpaceOnUse" x1="128.545" y1="706.261" x2="491.261" y2="1069.776" gradientTransform="translate(0 -578)"><stop offset="0" stop-opacity=".3"/><stop offset="1" stop-opacity="0"/></linearGradient><path d="M309.714 187.51l-154.813 12.499 35.12 36.811.045 8.608-73.888-74.632-74.481 74.482 74.449 74.45 174.958 180.026H500.54V292.57l-58.52-58.72-42.917 42.917-89.388-89.257z" fill="url(#SVGID_1_)"/><path class="st2" d="M309.675 313.6c-16.477.04-119.79-.022-119.79-.022V199.912h76.411v-37.27h-76.458v-7.567c.775-.072 87.356-.038 87.356-.038v32.43h31.961c.91.9.504 2.045.504 3.075l.016 123.081v-.024z"/><path class="st3" d="M284.354 246.418l25.336 18.365-.015 48.84c-13 .048-48.126.018-52.425-.024l-43.943-26.774s11.062-.236 10.756-.236v-21.884c3.245 0 6.175.155 9.084-.028 11.122-.698 18.358-6.965 19.778-16.94.467-3.283-.265-6.418-1.017-9.562l7.831 10.052c-2.298 3.483-3.713 7.208-2.373 11.387 1.597 4.979 5.804 7.163 10.218 9.043 1.89.804 3.835 1.51 5.642 2.472 1.926 1.025 2.687 2.787 2.338 4.967-.322 2.01-1.689 2.978-3.516 3.512-2.13.624-4.255.486-6.406.129-2.67-.444-5.152-1.504-7.84-2.61-.574 2.767-1.709 5.076-1.773 7.917 7.765 3.232 15.555 4.162 23.321.403 5.864-2.838 8.29-9.46 6.008-15.487-1.63-4.305-5.24-6.447-9.215-8.123-2.255-.95-4.65-1.574-6.722-2.943-1.514-1-2.395-2.336-2.099-4.207.314-1.979 1.62-3.092 3.48-3.541 1.235-.298 2.493-.365 3.792-.284 2.673.167 5.057 1.356 7.63 2.083l2.13-6.527z"/><path d="M189.838 155.075v7.567h76.458v37.27h-76.41c0 38.11 0 75.889-.002 113.666h-.46c-.03-35.466-.024-74.3-.024-109.766v-3.803h-35.165v-37.23h34.706l.031-7.704h.866zm31.6 14.649v22.952c7.433 1.699 14.216-.112 17.053-4.45 2.721-4.161 2.753-10.986.07-14.804-2.917-4.15-9.945-5.686-17.123-3.698zm-27.825 22.988c0-1.458-.053-2.72.014-3.977.072-1.34-.327-2.73.338-4.078 1.954-.202 3.934-.058 5.794-.834 3.164-1.32 4.764-3.977 4.6-7.776-.144-3.356-1.751-5.642-4.96-6.494-3.448-.915-6.937-.514-10.428-.107v23.196c1.518.427 2.865.313 4.642.07zm11.235-.889c3.198 1.668 6.411 1.968 9.738.97 2.876-.863 4.694-2.7 5.099-5.79.418-3.187-.798-5.557-3.54-7.13-1.185-.68-2.478-1.168-3.702-1.784-1.235-.622-2.677-1.256-2.238-2.986.456-1.796 2.053-1.936 3.57-1.81 1.332.11 2.649.412 3.982.631.607-1.28.922-2.479.974-3.725-2.527-1.362-4.713-1.705-7.368-1.178-3.554.705-5.725 2.778-6.113 5.834-.427 3.362.833 5.627 4.142 7.344 1.216.631 2.505 1.12 3.71 1.77 1.1.595 1.876 1.496 1.552 2.864-.316 1.335-1.34 1.823-2.617 1.952-2.08.21-4.04-.336-6.204-1.21l-.985 4.248zm104.307-4.357h-31.961v-32.43l31.961 32.43z" fill="#94c8fd"/><path d="M251.908 238.175c.752 3.144 1.484 6.279 1.017 9.563-1.42 9.974-8.656 16.241-19.778 16.94-2.91.182-5.84.027-9.084.027v21.884c-3.073.79-7.876.924-10.756.236v-58.5c10.093-1.219 20.06-2.67 29.858 1.146 4.138 1.612 6.749 4.878 8.743 8.704zm-27.744-2.32v19.865c5.432 1.91 12.864.252 15.866-3.452 2.6-3.208 3.13-8.776.738-12.15-4.18-5.898-10.3-4.911-16.604-4.262zm60.19 10.563l-2.13 6.527c-2.573-.727-4.957-1.916-7.63-2.083-1.3-.08-2.557-.014-3.791.284-1.862.45-3.167 1.562-3.48 3.54-.297 1.872.584 3.207 2.098 4.208 2.072 1.37 4.467 1.992 6.722 2.943 3.975 1.676 7.585 3.818 9.215 8.123 2.282 6.028-.144 12.649-6.008 15.487-7.766 3.76-15.556 2.829-23.32-.403.063-2.841 1.198-5.15 1.772-7.916 2.688 1.105 5.17 2.165 7.84 2.609 2.151.357 4.275.495 6.406-.129 1.827-.534 3.194-1.502 3.516-3.512.35-2.18-.412-3.942-2.338-4.967-1.807-.962-3.752-1.668-5.642-2.472-4.414-1.88-8.62-4.064-10.218-9.043-1.34-4.179.075-7.904 2.373-11.387 6.82-6.29 14.625-6.147 22.803-3.464.81.266 1.739.525 1.812 1.655z" fill="#7dbbf8"/><path class="st2" d="M221.438 169.724c7.178-1.988 14.206-.452 17.123 3.698 2.683 3.818 2.651 10.643-.07 14.803-2.837 4.34-9.62 6.15-17.053 4.45v-22.951zm4.914 3.742v15.476c3.25.307 6.04-.17 7.625-2.992 1.832-3.262 2.042-6.791.017-10.061-1.741-2.81-4.559-3-7.642-2.423z"/><path d="M193.613 192.712c-1.777.243-3.124.357-4.642-.07v-23.196c3.49-.407 6.98-.808 10.428.107 3.209.852 4.816 3.138 4.96 6.494.164 3.799-1.436 6.456-4.6 7.776-1.86.776-3.84.632-5.794.834-.665 1.348-.266 2.738-.338 4.078-.067 1.257-.014 2.52-.014 3.977zm.12-12.466c2.388.355 4.334.236 5.401-1.882.643-1.275.672-2.727-.289-3.9-1.393-1.699-3.202-1.418-5.111-1.036v6.818zm11.115 11.577l.985-4.247c2.165.873 4.124 1.42 6.204 1.21 1.278-.13 2.301-.618 2.617-1.953.324-1.368-.451-2.269-1.553-2.863-1.204-.65-2.493-1.14-3.709-1.77-3.31-1.718-4.569-3.983-4.142-7.345.388-3.056 2.56-5.129 6.113-5.834 2.655-.527 4.84-.184 7.368 1.178-.052 1.246-.367 2.444-.974 3.725-1.333-.219-2.65-.521-3.982-.632-1.517-.125-3.114.015-3.57 1.81-.439 1.731 1.003 2.365 2.238 2.987 1.224.616 2.517 1.104 3.702 1.784 2.742 1.573 3.958 3.943 3.54 7.13-.405 3.09-2.223 4.927-5.1 5.79-3.326.998-6.54.698-9.737-.97z" fill="#2b236e"/><path class="st3" d="M224.164 235.856c6.305-.65 12.424-1.636 16.604 4.262 2.391 3.374 1.862 8.942-.738 12.15-3.002 3.704-10.434 5.362-15.866 3.452v-19.864z"/><path d="M226.352 173.466c3.083-.576 5.901-.387 7.642 2.423 2.025 3.27 1.815 6.8-.017 10.06-1.585 2.823-4.374 3.3-7.625 2.993v-15.476z" fill="#93c6fb"/><path d="M193.734 180.246v-6.818c1.91-.382 3.718-.663 5.111 1.037.96 1.172.932 2.624.29 3.899-1.068 2.118-3.014 2.237-5.401 1.882z" fill="#92c5fa"/><path transform="rotate(135 83.99 213.757)" class="st2" d="M31.324 205.668h105.333v16.177H31.324z"/><path transform="rotate(45 83.958 276.767)" class="st2" d="M31.291 268.679h105.333v16.177H31.291z"/><path transform="rotate(45 409.83 213.767)" class="st2" d="M357.164 205.679h105.333v16.177H357.164z"/><path transform="rotate(135 409.863 276.778)" class="st2" d="M357.197 268.69H462.53v16.177H357.197z"/></svg>