<svg id="Слой_1" xmlns="http://www.w3.org/2000/svg" viewBox="0 0 500 499.5"><style>.st6{fill:#fce227}.st7{fill:#f79014}.st8{fill:#efd90f}.st9{fill:#e58507}.st10{fill:#b29b12}.st12{fill:#ccae17}.st13{fill:#eace06}.st14{fill:#30efdc}</style><path fill="#ce57ea" d="M0-.2h500v500H0z"/><linearGradient id="SVGID_1_" gradientUnits="userSpaceOnUse" x1="-46.399" y1="346.641" x2="242.09" y2="628.72" gradientTransform="matrix(1.12 0 0 1.12 231.2 -214.88)"><stop offset="0" stop-opacity=".3"/><stop offset="1" stop-opacity="0"/></linearGradient><path d="M443.9 132.2h-94.4l-61.6-47-26.9 53.7L54.9 348.4l151.4 151.4 293.7.8v-313l-56.1-55.4z" fill="url(#SVGID_1_)"/><path d="M427.9 350.6H81.8c-12.4 0-22.4-10-22.4-22.4V147.9c0-12.4 10-22.4 22.4-22.4h346.1c12.4 0 22.4 10 22.4 22.4v180.3c0 12.4-10 22.4-22.4 22.4z" fill="#d89713"/><path d="M418.9 357.3H72.8c-12.4 0-22.4-10-22.4-22.4V154.6c0-12.4 10-22.4 22.4-22.4h346.1c12.4 0 22.4 10 22.4 22.4v180.3c0 12.4-10 22.4-22.4 22.4z" fill="#efaf0f"/><path d="M414.8 352.8h-59.1L195.4 136.7h219.4c11.9 0 21.5 9.6 21.5 21.5v173.1c0 11.9-9.6 21.5-21.5 21.5z" fill="#e29a1b"/><path d="M173.6 353.2H76.5c-11.9 0-21.6-9.7-21.6-21.6V157.9c0-11.9 9.7-21.6 21.6-21.6h9.6l87.5 216.9z" fill="#f9b341"/><path class="st6" d="M155.7 291.2h-56l9-7.8h56.2z"/><path class="st7" d="M211.7 291.2h-56l9.2-7.8h56.2z"/><path class="st6" d="M268.8 291.2h-57.1l9.4-7.8h56.3z"/><path class="st7" d="M324.8 291.2h-56l8.6-7.8h56.2z"/><path class="st6" d="M389.8 320.4l-9 7.8v-37h-56l8.8-7.8h56.2z"/><g id="_x35__stars"><path class="st8" d="M99.7 291.2h56.2v37H99.7z"/><path class="st9" d="M155.9 291.2h56.2v37h-56.2z"/><path class="st8" d="M212.2 291.2h56.2v37h-56.2z"/><path class="st9" d="M268.4 291.2h56.2v37h-56.2z"/><path class="st8" d="M324.6 291.2h56.2v37h-56.2z"/><path class="st9" d="M128.6 294.5l3.1 10.5c.1.4.5.7 1 .7l11-.3c1 0 1.4 1.3.6 1.8l-9.1 6.2c-.4.3-.5.7-.4 1.2l3.6 10.4c.3.9-.8 1.7-1.6 1.1l-8.7-6.7c-.4-.3-.9-.3-1.2 0l-8.7 6.7c-.8.6-1.9-.2-1.6-1.1l3.6-10.4c.1-.4 0-.9-.4-1.2l-9.1-6.2c-.8-.6-.4-1.8.6-1.8l11 .3c.5 0 .9-.3 1-.7l3.1-10.5c.6-1 1.9-1 2.2 0zm113.1 0l3.1 10.5c.1.4.5.7 1 .7l11-.3c1 0 1.4 1.3.6 1.8l-9.1 6.2c-.4.3-.5.7-.4 1.2l3.6 10.4c.3.9-.8 1.7-1.6 1.1l-8.7-6.7c-.4-.3-.9-.3-1.2 0l-8.7 6.7c-.8.6-1.9-.2-1.6-1.1l3.6-10.4c.1-.4 0-.9-.4-1.2l-9.1-6.2c-.8-.6-.4-1.8.6-1.8l11 .3c.5 0 .9-.3 1-.7l3.1-10.5c.6-1 1.9-1 2.2 0zm112 0l3.1 10.5c.1.4.5.7 1 .7l11-.3c1 0 1.4 1.3.6 1.8l-9.1 6.2c-.4.3-.5.7-.4 1.2l3.6 10.4c.3.9-.8 1.7-1.6 1.1l-8.7-6.7c-.4-.3-.9-.3-1.2 0l-8.7 6.7c-.8.6-1.9-.2-1.6-1.1l3.6-10.4c.1-.4 0-.9-.4-1.2l-9.1-6.2c-.8-.6-.4-1.8.6-1.8l11 .3c.5 0 .9-.3 1-.7l3.1-10.5c.6-1 1.9-1 2.2 0z"/><path class="st8" d="M299.1 294.5l3.1 10.5c.1.4.5.7 1 .7l11-.3c1 0 1.4 1.3.6 1.8l-9.1 6.2c-.4.3-.5.7-.4 1.2L309 325c.3.9-.8 1.7-1.6 1.1l-8.7-6.7c-.4-.3-.9-.3-1.2 0l-8.7 6.7c-.8.6-1.9-.2-1.6-1.1l3.6-10.4c.1-.4 0-.9-.4-1.2l-9.1-6.2c-.8-.6-.4-1.8.6-1.8l11 .3c.5 0 .9-.3 1-.7l3.1-10.5c.5-1 1.8-1 2.1 0zm-114.5 0l3.1 10.5c.1.4.5.7 1 .7l11-.3c1 0 1.4 1.3.6 1.8l-9.1 6.2c-.4.3-.5.7-.4 1.2l3.6 10.4c.3.9-.8 1.7-1.6 1.1l-8.7-6.7c-.4-.3-.9-.3-1.2 0l-8.7 6.7c-.8.6-1.9-.2-1.6-1.1l3.6-10.4c.1-.4 0-.9-.4-1.2l-9.1-6.2c-.8-.6-.4-1.8.6-1.8l11 .3c.5 0 .9-.3 1-.7l3.1-10.5c.6-1 1.9-1 2.2 0z"/></g><g id="P"><path class="st10" d="M349.5 152.4h-40.3v109.8h18.5l.6-29.1h21.3c22.3 0 40.3-18.1 40.3-40.3s-18.1-40.4-40.4-40.4zm23.5 39.7c0 13.3-10.8 24.1-24.1 24.1h-20.7V168h20.7c13.3 0 24.1 10.8 24.1 24.1z"/><linearGradient id="SVGID_2_" gradientUnits="userSpaceOnUse" x1="101.725" y1="319.259" x2="138.651" y2="292.992" gradientTransform="matrix(1.12 0 0 -1.12 231.2 510.88)"><stop offset="0" stop-color="#fce227"/><stop offset="1" stop-color="#b29b12"/></linearGradient><path d="M340.5 152.4l-8.3 5.6 47.7 32.7 8.5-8.5s-3.6-16.5-17.6-24.2c-12.4-6.8-14.6-5.6-30.3-5.6z" fill="url(#SVGID_2_)"/><path class="st6" d="M300.2 158l9-5.6h31.3l-8.3 5.6z"/><path class="st12" d="M319.2 221.8l9-5.6V168l-9 5.6zm0 45.9v-29.1l9-5.6v29.1z"/><path class="st13" d="M340.5 158h-40.3v109.8h19v-29.1h21.3c22.3 0 40.3-18.1 40.3-40.3s-18-40.4-40.3-40.4zm23.5 39.7c0 13.3-10.8 24.1-24.1 24.1h-20.7v-48.2H340c13.3 0 24 10.8 24 24.1z"/><path class="st10" d="M319.2 221.8h21.3c.1 0 10.1 0 16.6-7.1-2 .9-4.8 1.5-8.7 1.6l-20.2-.1-9 5.6z"/></g><g id="I"><path class="st12" d="M233 249.8l9-5.6h12.3l-9 5.6z"/><path class="st10" d="M284.8 170.6v-18.5h-42.6v18.5h12.1v73.3h-12.1v18.5h42.6v-18.5h-12v-73.3z"/><path class="st12" d="M263.8 249.5l8.4-5.3v-73.9l-9 5.6z"/><path class="st13" d="M275.8 176.2v-18.5h-42.5v18.5h12v73.3h-12V268h42.5v-18.5h-12v-73.3z"/><path class="st6" d="M242 152.4l-9 5.6h42.6l8.9-5.6z"/><path class="st12" d="M275.6 175.9l8.9-5.6v-17.9l-8.9 5.6z"/><path class="st10" d="M263.2 249.8l9-5.6h12.3l-8.9 5.6z"/><path class="st12" d="M275.6 267.7v-17.9l8.9-5.6v17.9z"/></g><g id="V"><path class="st12" d="M118.8 158l8.9-5.6 32.5 86.2-6.7 11.2z"/><path class="st13" d="M99.7 158l41.8 109.7h25.4L209.5 158h-19.1l-36.9 91.8-34.7-91.8z"/><path class="st6" d="M108.7 152.4l-9 5.6h19.1l8.9-5.6zm90.7 0l-9 5.6h19.1l8.9-5.6z"/><path class="st12" d="M209.5 158l-42.6 109.7 9-5.6 42.5-109.7z"/></g><path class="st14" d="M288 85.1l-10.3-5.6-19.2-2.3-19.2 2.3-10.2 5.6-11.7 15.4h-.1l5.1 8.9h-.1l36.2 34.1 36.2-34.1 5-8.9z"/><path fill="#fff" d="M258.5 89.5l-26.9 3.1-14.3 7.9 5.2 8.9 21.7 6h28.6l21.9-6 5-8.9-14.3-7.9z"/><path fill="#45f4eb" d="M258.5 77.2l-19.2 2.3-10.2 5.6 3.5 6.5 15.7 4.2h20.4l15.7-4.2 3.6-6.5-10.3-5.6z"/><path d="M261.2 79l17.5 9.7c2.7 1.5 6 .5 7.5-2.2l.5-.9c.1-.2 0-.6-.2-.7l-9.2-5c-.1 0-.1-.1-.2-.1L261.5 78c-.6 0-.8.7-.3 1z" fill="#0cc"/><path d="M238.8 80.2l-8.2 4.6 3.3 6 14.5 3.9h18.9l2-.5c3.4-.9 3.4-5.8 0-6.7L241.4 80c-.9-.3-1.8-.2-2.6.2z" fill="#88fff6"/><path fill="#64fff3" d="M248.2 95.7l-3.9 19.7h28.5l-4.1-19.7z"/><path fill="#09d3bf" d="M294.7 109.4l-10.3-17.8 3.6-6.5 11.7 15.4z"/><path fill="#24ddc6" d="M268.7 95.7l15.7-4.1 10.3 17.8-21.9 6z"/><path fill="#3cf7e1" d="M244.3 115.4l3.9-19.7-15.6-4.1-10.3 17.8z"/><path fill="#28e8d9" d="M258.5 143.5l-14.2-28.1h28.5z"/><path d="M222.3 109.4l36.2 34.1-14.2-28.1zm50.5 6l-14.3 28.1 36.2-34.1z" fill="#17cec4"/><path class="st14" d="M229.1 85.1l-11.8 15.4 5.1 8.9 10.2-17.8z"/><path d="M15 0v463c0 11 9 20 20 20h157.6c12.7 0 22.2-11.7 19.6-24.2L113.7-.2 15 0z" opacity=".2" fill="#fff"/><path d="M487.1 17.7v219.8c0 5.3-7.3 7-9.5 2.1L374.4 20c-1.6-3.3.9-7.1 4.5-7.1l103.1-.2c2.8 0 5.1 2.2 5.1 5z" opacity=".5" fill="#fff"/></svg>