<svg id="Слой_1" xmlns="http://www.w3.org/2000/svg" viewBox="0 0 500 499.5"><style>.st2{fill:#3a1e07}.st3{fill:#a36d31}.st6{fill:#2d1705}.st11{fill:#191919}.st22{fill:#cec40f}</style><path fill="#f7f372" d="M0-.2h500v500H0z"/><linearGradient id="SVGID_1_" gradientUnits="userSpaceOnUse" x1="-527.775" y1="49.059" x2="-359.529" y2="220.962" gradientTransform="matrix(2.16 0 0 2.16 1278.4 9.76)"><stop offset="0" stop-opacity=".3"/><stop offset="1" stop-opacity="0"/></linearGradient><path d="M422.5 119.9l-21.1 2L328.7 49 265 47.3l-9.8-9.7-60.9 6-49.1 370.2 86.1 86.1H500l.1-305.6-77.6-74.4z" fill="url(#SVGID_1_)"/><path class="st2" d="M191.2 58.6l67.4-7-3-9c-.6-1.8-2.4-2.9-4.2-2.7L192.2 46c-2.6.3-4.2 2.8-3.4 5.3l2.4 7.3z"/><path class="st3" d="M192.2 55.6l67.4-7-3-9c-.6-1.8-2.4-2.9-4.2-2.7L193.2 43c-2.6.3-4.2 2.8-3.4 5.3l2.4 7.3z"/><path d="M361.1 115.1l-29.5-62c-2.7-5.7-8.8-9.2-15.1-8.5-67.5 2.5-134 9-199.5 20-10.1 1-16.3 11.5-12.4 20.8l24.6 59.2c3.2 7.6 5.4 15.6 6.8 23.8l7.1 44 232.3-30.2-4.8-35.9c-1.6-10.8-4.8-21.3-9.5-31.2z" fill="#3a1d07"/><path d="M358.4 115.1l-28.7-60.3c-2.7-5.6-8.5-8.9-14.7-8.3-54.6 2-108.6 6.8-161.9 14.5-5.6.8 26.5 28.5 82.2 44.2 45.4 12.7 61.6 85.1 61.6 85.1l75.3-9.8-4.7-34.9c-1.5-10.5-4.5-20.8-9.1-30.5z" fill="#542c12"/><path class="st6" d="M149.4 208.9l217.4-28c2.5-.3 4.2-2.6 3.9-5.1l-4.9-38.6c-.3-2.3-2.4-4-4.8-3.7-73.7 4.1-146.5 13.5-218.5 27.1-2.5.3-4.3 2.6-3.9 5.1l5.7 39.3c.4 2.5 2.6 4.2 5.1 3.9z"/><path d="M429.2 205.1l-14.6 188c-.5 6.5-7.8 10.1-13.3 6.5L379.1 385c-2.4-1.6-3.9-4.3-3.9-7.2V190.7c0-4.1 4-7 7.9-5.7 16.6 2.3 30.7 6.9 41.9 14 2.7.8 4.4 3.3 4.2 6.1z" fill="#211004"/><path class="st6" d="M375.3 182.3L143 212.5v189.2c0 5.8 5.1 10.3 10.9 9.6l221.4-28.8V182.3z"/><g id="listi"><path d="M257.6 254.7s3-101.6-30.2-137.8l130.7-16.1s37.2 29.2 22.1 136.8l-122.6 17.1z" fill="#d3d3d3"/><path d="M264.6 254.7s11.1-110.6-22.1-146.8l124.7-3s35.2 25.1 20.1 132.8l-122.7 17z" fill="#dbdbdb"/><path d="M271.7 254.7s15.1-83.5-7-141.8l114.7-3c9.1 29.2 12.1 64.4 15.1 127.7l-122.8 17.1z" fill="#e8e7e6"/><path class="st11" d="M351.7 122.3l-37.2 1.2c-.3 0-.5-.2-.5-.5v-1c0-.3.2-.5.5-.5l37.2-1.2c.3 0 .5.2.5.5v1c-.1.3-.3.5-.5.5zm-27.2 14.1l-37.2 1.2c-.3 0-.5-.2-.5-.5v-1c0-.3.2-.5.5-.5l37.2-1.2c.3 0 .5.2.5.5v1c0 .3-.2.5-.5.5zm1 9.1l-37.2 1.2c-.3 0-.5-.2-.5-.5v-1c0-.3.2-.5.5-.5l37.2-1.2c.3 0 .5.2.5.5v1c0 .2-.2.5-.5.5z"/><path d="M277.7 248.7s13.1-77.1-8-132.8l107.3-2.7c8.6 27.8 11.5 61.4 14.4 121.8l-113.7 13.7z" fill="none" stroke="#ccc" stroke-width="2" stroke-miterlimit="10"/><path d="M281.7 268.8s-4-109.6 19.1-140.8l121.7-8c-17.1 30.2-16.1 75.4-18.1 131.8l-122.7 17z" fill="#efefef"/><path d="M288.4 261.8s-3.6-99.3 17.3-127.5l108.8-8.3c-15.5 27.3-13.2 69.3-15 120.3l-111.1 15.5z" fill="none" stroke="#f47c2c" stroke-width="2" stroke-miterlimit="10"/><path class="st11" d="M341.6 185.8l-35.1 3c-.3 0-.5.3-.5.5l.1 1c0 .3.3.5.5.5l35.1-3c.3 0 .5-.3.5-.5l-.1-1c0-.3-.2-.5-.5-.5zm46.2 6.5l-35.1 3c-.3 0-.5.3-.5.5l.1 1c0 .3.3.5.5.5l35.1-3c.3 0 .5-.3.5-.5l-.1-1c0-.3-.2-.5-.5-.5zm-34.3 12.8l-35.1 3c-.3 0-.5.3-.5.5l.1 1c0 .3.3.5.5.5l35.1-3c.3 0 .5-.3.5-.5l-.1-1c0-.4-.2-.6-.5-.5zm21.3-20l-24.1 2c-.3 0-.5-.2-.5-.5l-.1-1c0-.3.2-.5.5-.5l24.1-2c.3 0 .5.2.5.5l.1 1c0 .2-.2.4-.5.5zm-46.3 13.6l-24.1 2c-.3 0-.5-.2-.5-.5l-.1-1c0-.3.2-.5.5-.5l24.1-2c.3 0 .5.2.5.5l.1 1c-.1.3-.3.5-.5.5zm58.2 5.6l-24.1 2c-.3 0-.5-.2-.5-.5l-.1-1c0-.3.2-.5.5-.5l24.1-2c.3 0 .5.2.5.5l.1 1c0 .2-.2.4-.5.5zm2.2-20.4l-6 .5c-.3 0-.5-.2-.5-.5l-.1-1c0-.3.2-.5.5-.5l6-.5c.3 0 .5.2.5.5l.1 1c0 .2-.3.4-.5.5zm-45.4 13.7l-6 .5c-.3 0-.5-.2-.5-.5l-.1-1c0-.3.2-.5.5-.5l6-.5c.3 0 .5.2.5.5l.1 1c0 .2-.2.4-.5.5zm-34.3 12.7l-6 .5c-.3 0-.5-.2-.5-.5l-.1-1c0-.3.2-.5.5-.5l6-.5c.3 0 .5.2.5.5l.1 1c0 .3-.2.5-.5.5z"/><path d="M399.2 134.3l-86.1 6.7c-.7.1-1.4.5-1.7 1.2-4.8 9.3-6.6 18.5-6.3 26.7.1 1.3.9 2.3 2.2 2.2l86.4-6.7c1-.1 1.7-.8 1.8-1.8.9-8.4 2.5-16.9 5.7-25.5.6-1.5-.5-2.9-2-2.8z" fill="#37f490"/><path d="M352.1 157.9c-2.5 8.3-3.4 20.3-2.5 34.4l7.3-7 8.2 5s-3.7-26.1-1.2-33.3l-11.8.9z" fill="#c13821"/><path d="M358.2 136.3l4.9-5.7c.3-.3.8-.1.9.3l.6 8.1c0 .3.3.5.5.5l6.9-.7c.4 0 .7.5.5.8l-3.8 6.4c-.3.4-.2 1 .2 1.3l5.5 4.5c.3.3.2.8-.2 1l-6.8 2.1c-.3.1-.4.4-.3.7l1.8 7.9c.1.5-.3.8-.7.6l-6.3-3.4c-.3-.1-.6 0-.7.3l-2.5 6.1c-.3.8-1.5.8-1.9 0l-2.5-6.1c-.1-.3-.4-.4-.7-.3l-6.3 3.4c-.4.2-.8-.2-.7-.6l1.8-7.9c.1-.3-.1-.6-.3-.7l-6.8-2.1c-.4-.1-.5-.7-.2-1l5.5-4.5c.4-.3.5-.9.2-1.3l-3.8-6.4c-.2-.4 0-.9.5-.8l6.9.7c.3 0 .5-.2.5-.5l.6-8.1c0-.5.6-.7.9-.3l4.9 5.7c.4.3.7.3.9 0z" fill="#bc2915"/><path d="M348.8 147.3c1-6 5.8-10.1 10.8-9.1 5 1 8.2 6.7 7.2 12.7-1 6-5.8 10.1-10.8 9.1-5-1-8.2-6.7-7.2-12.7z" fill="#e8e825" stroke="#f47c2c" stroke-width="2" stroke-miterlimit="10"/></g><g id="kubok"><path d="M118.9 169.9c6.1-5 12.2-8.4 18.3-9.4l18.7 36.2-2 1c-10.5 5.4-23.5 1.3-28.9-9.2l-7.4-14.3c-.8-1.6-.2-3.5 1.3-4.3z" fill="#bfb20c"/><path d="M220.2 117.6l16.6-8.6c2.5-1.3 5.5-.3 6.8 2.2l6.5 12.7c5.4 10.5 1.3 23.5-9.2 28.9l-2 1-18.7-36.2z" fill="#dbcd26"/><path d="M216.6 119.5c4.8-4.3 10.2-7.3 16.6-8.6 2.5-1.3 5.5-.3 6.8 2.2l6.5 12.7c5.4 10.5 1.3 23.5-9.2 28.9l-2 1-18.7-36.2z" fill="#cec411"/><path class="st22" d="M258.2 236.2c-3.2 1.7-7.2.4-9-2.7l-1.5-2.8c-4.2-7.7-4.3-16.9-.4-24.7 6.6-13.6 6.9-29.9-.5-44.4L219 108c-1.7-3.3-5.7-4.6-9-2.9-30.2 7.9-55.9 20.7-76 39.3-3.3 1.7-4.6 5.7-2.9 9l27.7 53.5c7.5 14.4 21 23.6 35.9 26.1 8.6 1.4 16.1 6.8 19.9 14.7l1.4 2.9c1.6 3.2.3 7.2-2.9 8.9 0 0-30.8 21-19.5 29.7l100.1-51.8c-.6-14.2-35.5-1.2-35.5-1.2z"/><path d="M258.2 236.2c-3.2 1.7-7.2.4-9-2.7l-1.5-2.8c-4.2-7.7-4.3-16.9-.4-24.7 6.6-13.6 6.9-29.9-.5-44.4L219 108c-1.7-3.3-5.7-4.6-9-2.9-27.6 7.5-52.4 18.8-70.1 33.9-3.3 1.7 32.6 64.1 32.6 64.1 16 27.1 36.1 11.5 49.3 40.8l1.4 2.9c1.6 3.2.3 7.2-2.9 8.9 0 0-24.2 15.8-19.5 29.7l92.9-48c-.6-14.2-35.5-1.2-35.5-1.2z" fill="#d3ce20"/><path class="st22" d="M179.1 138.4l5.6-2.9c1-.5 2.1-.1 2.6.8l18.5 35.8c.5 1 .1 2.1-.8 2.6l-4.8 2.5c-1 .5-2.1.1-2.6-.8L185.9 154c-.5-1-1.7-1.3-2.6-.8l-3.4 1.8c-1.3.7-3-.3-2.8-1.9l1-13.1c0-.7.4-1.3 1-1.6z"/><path d="M179.9 140l3.5-1.8c1-.5 2.1-.1 2.6.8l17.7 34.3c.5 1 .1 2.1-.8 2.6l-2.8 1.4c-1 .5-2.1.1-2.6-.8L185.9 154c-.5-1-1.7-1.3-2.6-.8l-3.4 1.8c-1.3.7-3-.3-2.8-1.9l1.8-11.6c0-.6.4-1.2 1-1.5z" fill="#bfb206"/><path d="M202.6 110.4l8.8-2.5c1.4-.4 2.9.2 3.5 1.5l7.4 14.9c.8 1.6.1 3.5-1.6 4.1l-.7.3c-1 .4-2.2.2-3-.4l-15.6-12.6c-1.7-1.6-1.1-4.6 1.2-5.3z" fill="#e2d63d"/><path d="M129.7 166.4l-7.9 5c-1.1.7-1.5 2.2-.9 3.4l7.9 14.9c.2.4.5.7.9 1l8.6 5.3c.8.5 1.8.5 2.7 0 1-.6 1.5-1.9 1.1-3l-8.6-25.3c-.5-1.5-2.3-2.2-3.8-1.3z" fill="#afa11b"/></g><path class="st2" d="M197.1 235.1l-7.9 200.6c-.9.2-4.1-.8-13.1-6-5-2-11.7-3.9-13.1-6l-2.8-6c-1.1-2.4-4.2-3.1-6.2-1.3-1.3 1.2-3.3 1.4-4.8.4l-2.3-1.5c-2.5-1.6-4-4.4-4-7.4v-187c0-4.1 4-7 7.9-5.7 6.8 6.3 23.9 10.3 42.1 14 2.6.8 4.3 3.2 4.2 5.9z"/><path d="M417.5 202c-56.3 15-129 23.4-212.4 27.6-4.6.6-8.2 4.4-8.6 9L182 425.7c-.5 6.2 4.9 11.3 11.1 10.5 86.5-8.2 159.3-17.2 212.4-27.6 4.6-.6 8.2-4.4 8.6-9l14.5-187.1c.5-6.2-4.9-11.3-11.1-10.5z" fill="#6b3605"/><path d="M170.1 426.7l9.1-200.1c-7.5-1.7-13.9-3.4-20.1-6v195.1c5 5 .9 9 11 11z" fill="#2d1706"/><path d="M420.1 322.5l1.5-18.7-4.9 5.7-16.4-13.8 16.7-19.4 6.4 5.3.7-9.5-2-1.7 2.4-2.8.9-11-8.2 9.6-16.4-13.8 27.5-31.9.6-8.1c.1-.8 0-1.7-.1-2.5l-33 38.3-16.4-13.8 25.1-29.1c-3.5.8-7.1 1.6-10.7 2.4l-19.4 22.5-16.4-13.8 1.9-2.3c-4.6.8-9.3 1.5-14.1 2.2l2.1 1.7-16.7 19.4-16.4-13.8 3-3.5c-5.6.7-11.3 1.3-17 1.9l3.9 3.3-16.7 19.4-16.4-13.8 5.7-6.6c-3.1.3-6.2.5-9.3.8l-1.4 1.6-1.6-1.3-11.1.9 7.6 6.4-16.7 19.4-27.9-23.4c-1.7.1-3.4.2-5.2.3-1.5 1.8-1.3 4.5.5 6l27.4 23-16.7 19.4-25.5-21.4-.7 9.5 21.1 17.7-16.7 19.4-6.9-5.8-.7 9.5 2.6 2.1-3 3.5-.9 11 8.9-10.3 16.4 13.8-16.7 19.4-9.7-8.2-.7 9.5 5.4 4.5-6.3 7.4-.9 11 12.2-14.2 16.4 13.8-26.6 30.9c-1.2 1.4-1 3.5.4 4.6 1.4 1.1 3.4 1 4.6-.4l26.7-31 16.4 13.8-26.7 31.1c-1.2 1.4-1 3.5.4 4.6 1.4 1.1 3.4 1 4.6-.4l26.7-31 16.4 13.8-20.7 24c3.2-.3 6.3-.7 9.5-1l16.2-18.8 16.4 13.8-1.3 1.5c4.5-.5 9-1.1 13.4-1.6l-2-1.7 16.7-19.4 16.4 13.8-3.2 3.7c5.8-.8 11.5-1.5 17-2.3l-3.7-3.1 16.7-19.4 20.7 17.4c3.4-.6 6.8-1.1 10.1-1.7l-25.8-21.6 16.7-19.4 28.2 23.7c1.4 1.1 3.4 1 4.6-.4l.8-.9c1.2-1.4 1-3.5-.4-4.6L378.2 364l16.7-19.4 22.1 18.5.7-9.5-17.8-14.9 16.7-19.4 3.5 3.2zm-8.2-50.4l-16.7 19.4-16.4-13.8 16.7-19.4 16.4 13.8zM347 304.7l-16.7 19.4-16.4-13.8 16.7-19.4 16.4 13.8zM335.6 285l16.7-19.4 16.4 13.8-16.7 19.4-16.4-13.8zm-26.7 21.1l-16.4-13.8 16.7-19.4 16.4 13.8-16.7 19.4zm-5.1 5.9l-16.7 19.4-16.4-13.8 16.7-19.4 16.4 13.8zm-38.1 1.4l-16.4-13.8 16.7-19.4 16.4 13.8-16.7 19.4zm-5.1 5.9L244 338.6l-16.4-13.8 16.7-19.4 16.3 13.9zm5 4.2l16.4 13.8-16.7 19.4-16.3-13.9 16.6-19.3zm21.5 17.9l16.4 13.8-16.7 19.4-16.4-13.8 16.7-19.4zm5-5.9l16.7-19.4 16.4 13.8-16.7 19.4-16.4-13.8zm38.1-1.4l16.4 13.8-16.6 19.4-16.4-13.8 16.6-19.4zm5.1-5.9l16.7-19.4 16.4 13.8-16.7 19.4-16.4-13.8zM357 303l16.7-19.4 16.4 13.8-16.7 19.4L357 303zm33.5-48.8l-16.7 19.4-16.4-13.8 16.7-19.4 16.4 13.8zm-37.9-31.8l16.4 13.8-16.7 19.4-16.4-13.8 16.7-19.4zm-5.3 39.1l-16.7 19.4-16.4-13.8 16.7-19.4 16.4 13.8zm-37.9-31.8l16.4 13.8-16.7 19.4-16.4-13.8 16.7-19.4zm-5.3 39.1l-16.7 19.4-16.4-13.9 16.7-19.4 16.4 13.9zM266.3 237l16.4 13.8-16.7 19.4-16.4-13.8 16.7-19.4zm-21.8 25.3L261 276l-16.7 19.4-16.4-13.8 16.6-19.3zm-38.4 44.6l16.7-19.4 16.4 13.8-16.7 19.4-16.4-13.8zm-.3 43.2l16.7-19.4 16.4 13.8-16.7 19.4-16.4-13.8zm21.4 18l16.7-19.4 16.4 13.8-16.7 19.4-16.4-13.8zm21.4 18l16.7-19.4 16.4 13.8-16.7 19.4-16.4-13.8zm37.9 31.7L270.1 404l16.7-19.4 16.4 13.8-16.7 19.4zm5.3-39l16.7-19.4 16.4 13.8-16.7 19.4-16.4-13.8zm37.9 31.7l-16.4-13.8 16.7-19.4 16.4 13.8-16.7 19.4zm21.7-25.3L335 371.5l16.7-19.4 16.4 13.8-16.7 19.3zm21.7-25.2l-16.4-13.8 16.7-19.4 16.4 13.8-16.7 19.4zm21.8-25.3L378.5 321l16.7-19.4 16.4 13.8-16.7 19.3z" fill="#492406"/><path d="M417.9 324.6l1.5-18.7-4.9 5.7-16.4-13.8 16.7-19.4 6.4 5.3.7-9.5-2-1.7 2.4-2.8.9-11-8.2 9.6-16.4-13.8 27.5-31.9.6-8.1c.1-.8 0-1.7-.1-2.5l-33 38.3-16.6-13.7 25.1-29.1c-3.5.8-7.1 1.6-10.7 2.4L372 232.4l-16.4-13.8 1.9-2.3c-4.6.8-9.3 1.5-14.1 2.2l2.1 1.7-16.7 19.4-16.4-13.8 3-3.5c-5.6.7-11.3 1.3-17 1.9l3.9 3.3-16.7 19.5-16.4-13.8 5.7-6.6c-3.1.3-6.2.5-9.3.8l-1.4 1.6-1.6-1.3-11.1.9 7.6 6.4-16.7 19.4-27.8-23.4-5.1.3c-1.5 1.8-1.3 4.5.5 6l27.4 23-16.7 19.4-25.5-21.4-.7 9.5 21.1 17.7-16.6 19.3-6.9-5.8-.7 9.5 2.6 2.1-3 3.5-.9 11 8.9-10.3 16.4 13.8-16.7 19.4-9.7-8.2-.7 9.5 5.4 4.5-6.3 7.4-.9 11 12.2-14.2 16.4 13.8-26.6 30.9c-1.2 1.4-1 3.5.4 4.6 1.4 1.1 3.4 1 4.6-.4l26.6-31 16.4 13.8-26.6 30.9c-1.2 1.4-1 3.5.4 4.6 1.4 1.1 3.4 1 4.6-.4l26.6-31 16.4 13.8-20.6 24c3.2-.3 6.3-.7 9.5-1l16.2-18.8 16.4 13.8-1.3 1.5c4.5-.5 9-1.1 13.4-1.6l-2-1.7 16.7-19.4 16.4 13.8-3.2 3.7c5.8-.8 11.5-1.5 17-2.3l-3.7-3.1 16.7-19.4 20.7 17.4c3.4-.6 6.8-1.1 10.1-1.7l-25.8-21.6 16.7-19.4 28.2 23.7c1.4 1.1 3.4 1 4.6-.4l.8-.9c1.2-1.4 1-3.5-.4-4.6L376 366.2l16.7-19.4 22.1 18.5.7-9.5-17.7-14.8 16.7-19.4 3.4 3zm-8.2-50.4L393 293.6l-16.4-13.8 16.7-19.4 16.4 13.8zm-64.9 32.5l-16.7 19.4-16.4-13.8 16.7-19.4 16.4 13.8zm-11.3-19.6l16.7-19.4 16.4 13.8-16.7 19.4-16.4-13.8zm-26.8 21l-16.4-13.8L307 275l16.4 13.8-16.7 19.3zm-5 5.9L285 333.4l-16.4-13.8 16.7-19.4 16.4 13.8zm-38.1 1.4l-16.4-13.8 16.7-19.4 16.4 13.8-16.7 19.4zm-5.1 5.9l-16.7 19.4-16.4-13.8 16.7-19.4 16.4 13.8zm5 4.2l16.4 13.8-16.7 19.4-16.4-13.8 16.7-19.4zm21.4 18l16.4 13.8-16.7 19.4-16.4-13.8 16.7-19.4zm5.1-5.9l16.7-19.4 16.4 13.8-16.7 19.4-16.4-13.8zm38.1-1.4l16.4 13.8-16.7 19.4-16.4-13.8 16.7-19.4zm5.1-5.9l16.7-19.4 16.4 13.8-16.7 19.4-16.4-13.8zm21.7-25.3l16.7-19.4 16.4 13.8-16.7 19.4-16.4-13.8zm33.4-48.8l-16.7 19.4-16.4-13.8 16.7-19.4 16.4 13.8zm-37.8-31.7l16.4 13.8-16.7 19.4-16.4-13.8 16.7-19.4zm-5.3 39l-16.7 19.4-16.4-13.8 16.7-19.4 16.4 13.8zm-37.9-31.7l16.4 13.8L307 265l-16.4-13.8 16.7-19.4zm-5.3 39l-16.7 19.4-16.4-13.8 16.7-19.4 16.4 13.8zm-37.8-31.7l16.4 13.8-16.7 19.4-16.4-13.8 16.7-19.4zm-21.8 25.2l16.4 13.8-16.7 19.4-16.4-13.8 16.7-19.4zM204 308.9l16.7-19.4 16.4 13.8-16.7 19.4-16.4-13.8zm-.3 43.3l16.7-19.4 16.4 13.8-16.7 19.4-16.4-13.8zm21.4 17.9l16.7-19.4 16.4 13.8-16.7 19.4-16.4-13.8zm21.4 18l16.7-19.4 16.4 13.8-16.7 19.4-16.4-13.8zm37.9 31.7L268 406l16.7-19.4 16.4 13.8-16.7 19.4zm5.3-39l16.7-19.4 16.4 13.8-16.7 19.4-16.4-13.8zm37.8 31.7l-16.4-13.8 16.7-19.4 16.4 13.8-16.7 19.4zm21.8-25.2l-16.4-13.8 16.7-19.4 16.4 13.8-16.7 19.4zM371 362l-16.4-13.8 16.7-19.4 16.4 13.8L371 362zm21.8-25.2L376.3 323l16.7-19.4 16.4 13.8-16.6 19.4z" fill="#3d1e06"/><g id="zamok"><path class="st3" d="M339.3 313.7c-.5-2.7-.5-4.5-.3-5.6.1-.8-.3-1.5-1-1.8l-.7-.3-58.9 7.3-.7 18 1.7.2c.3 0 59.3-7.8 59.4-7.9 1-.9 1.5-5 .5-9.9z"/><path d="M278.5 313.3l-.7 18s2.1.7 2.9-.4c.8-1.1.8-5-.2-9.8-.5-2.7-.5-4.5-.3-5.6.1-.8-.3-1.5-1-1.8l-.7-.4z" fill="#774406"/><path d="M281.3 321l56-6.9c.4 0 .6-.4.6-.7-.2-1.3-.2-2.5-.1-3.5.1-.4-.3-.8-.7-.7l-56.1 6.9c-.2 0-.4.2-.5.4-.4 1.1-.2 2.5 0 4.1.2.2.5.5.8.4z" fill="#cca279"/></g><path d="M20 185.4L483.9 70.9c3.6-.9 6.1-4.1 6.1-7.8V18c0-4.4-3.6-8-8-8H18.1c-4.4 0-8 3.6-8 8v159.6c0 5.2 4.8 9 9.9 7.8z" opacity=".33" fill="#fff"/><radialGradient id="SVGID_2_" cx="367.007" cy="338.622" r="119.596" gradientTransform="matrix(.7089 -.7053 .5181 .5207 -68.58 421.184)" gradientUnits="userSpaceOnUse"><stop offset="0" stop-color="#fff" stop-opacity=".5"/><stop offset="1" stop-color="#fff" stop-opacity="0"/></radialGradient><path d="M433 401.9c-47.4 49.4-115.4 61.2-151.8 26.3S253.6 324.8 301 275.4s115.4-61.2 151.8-26.3 27.6 103.3-19.8 152.8z" fill="url(#SVGID_2_)"/><path opacity=".17" fill="#fff" d="M0 387l500 62v50.8H0z"/></svg>