<svg id="Слой_1" xmlns="http://www.w3.org/2000/svg" viewBox="0 0 500 499.5"><style>.st0{fill:#fff}.st3{fill:#ccc}.st4{fill:#2b236d}.st5{fill:#343749}.st6{fill:none;stroke:#304e9d;stroke-miterlimit:10}.st7{fill:#fafafa}.st8{fill:#304e9d}.st9{fill:#484c60}.st10{fill:#cdcccc}.st11{fill:#4cad33}.st12{fill:#ddc132}.st13{fill:#634092}.st14{fill:#404356}.st15{fill:#3d60aa}.st16{fill:#94c8fd}.st17{fill:#fc95f0}.st18{fill:none;stroke:#c7e6ff;stroke-linecap:round;stroke-miterlimit:10}.st19{fill:#c7e6ff}.st20,.st21{stroke:#2b236d;stroke-miterlimit:10}.st20{stroke-linecap:round;fill:none}.st21{fill:#fc95f0}</style><path class="st0" d="M0 0h500v499.5H0z"/><path fill="#90f4f1" d="M500 0L0 499.5h500z"/><linearGradient id="SVGID_1_" gradientUnits="userSpaceOnUse" x1="139.775" y1="968.752" x2="498.367" y2="1328.135" gradientTransform="translate(0 -844)"><stop offset="0" stop-opacity=".3"/><stop offset="1" stop-opacity="0"/></linearGradient><path d="M346.7 118.1l-172 1.7-3.1 98.6-43.4-43.4-74.5 74.5 70.4 70 175 180H500l.1-228.7-153.4-152.7z" fill="url(#SVGID_1_)"/><path class="st3" d="M0 0h10.8v10.8H0z"/><path class="st0" d="M10.8 0h10.8v10.8H10.8z"/><path class="st3" d="M21.7 0h10.8v10.8H21.7zM10.8 10.8h10.8v10.8H10.8z"/><path class="st0" d="M21.7 10.8h10.8v10.8H21.7zM0 10.8h10.8v10.8H0z"/><path class="st3" d="M0 21.7h10.8v10.8H0z"/><path class="st0" d="M10.8 21.7h10.8v10.8H10.8z"/><path class="st3" d="M21.7 21.7h10.8v10.8H21.7zm-10.9 11h10.8v10.8H10.8z"/><path class="st0" d="M21.7 32.7h10.8v10.8H21.7zM0 32.7h10.8v10.8H0z"/><path class="st3" d="M0 43.5h10.8v10.8H0z"/><path class="st0" d="M10.8 43.5h10.8v10.8H10.8z"/><path class="st3" d="M21.7 43.5h10.8v10.8H21.7zM10.8 54.4h10.8v10.8H10.8z"/><path class="st0" d="M21.7 54.4h10.8v10.8H21.7zM0 54.4h10.8v10.8H0z"/><path class="st3" d="M0 65.2h10.8V76H0z"/><path class="st0" d="M10.8 65.2h10.8V76H10.8z"/><path class="st3" d="M21.7 65.2h10.8V76H21.7zM10.8 76.1h10.8v10.5H10.8z"/><path class="st0" d="M21.7 76.1h10.8v10.5H21.7zM0 76.1h10.8v10.5H0z"/><path class="st3" d="M10.8 86.9v-.4H0v10.9h10.8z"/><path class="st0" d="M21.7 86.9v-.4H10.8v10.9h10.9z"/><path class="st3" d="M21.7 86.9v10.5h10.8V86.5H21.7zM10.8 97.4h10.8v10.8H10.8z"/><path class="st0" d="M21.7 97.4h10.8v10.8H21.7zM0 97.4h10.8v10.8H0z"/><path class="st3" d="M0 108.2h10.8V119H0z"/><path class="st0" d="M10.8 108.2h10.8V119H10.8z"/><path class="st3" d="M21.7 108.2h10.8V119H21.7zm-10.9 11h10.8V130H10.8z"/><path class="st0" d="M21.7 119.2h10.8V130H21.7zm-21.7 0h10.8V130H0z"/><path class="st3" d="M0 130h10.8v10.8H0z"/><path class="st0" d="M10.8 130h10.8v10.8H10.8z"/><path class="st3" d="M21.7 130h10.8v10.8H21.7zm-10.9 10.9h10.8v10.8H10.8z"/><path class="st0" d="M21.7 140.9h10.8v10.8H21.7zm-21.7 0h10.8v10.8H0z"/><path class="st3" d="M0 151.7h10.8v10.8H0z"/><path class="st0" d="M10.8 151.7h10.8v10.8H10.8z"/><path class="st3" d="M21.7 151.7h10.8v10.8H21.7zm-10.9 10.9h10.8v10.8H10.8z"/><path class="st0" d="M21.7 162.6h10.8v10.8H21.7zm-21.7 0h10.8v10.8H0z"/><path class="st3" d="M0 173.4h10.8v10.8H0z"/><path class="st0" d="M10.8 173.4h10.8v10.8H10.8z"/><path class="st3" d="M21.7 173.4h10.8v10.8H21.7zm-10.9 11h10.8v10.8H10.8z"/><path class="st0" d="M21.7 184.4h10.8v10.8H21.7zm-21.7 0h10.8v10.8H0z"/><path class="st3" d="M0 195.3h10.8v10.8H0z"/><path class="st0" d="M10.8 195.3h10.8v10.8H10.8z"/><path class="st3" d="M21.7 195.3h10.8v10.8H21.7zm-10.9 10.8h10.8v10.8H10.8z"/><path class="st0" d="M21.7 206.1h10.8v10.8H21.7zm-21.7 0h10.8v10.8H0z"/><path class="st3" d="M0 217h10.8v10.8H0z"/><path class="st0" d="M10.8 217h10.8v10.8H10.8z"/><path class="st3" d="M21.7 217h10.8v10.8H21.7zm-10.9 10.8h10.8v10.8H10.8z"/><path class="st0" d="M21.7 227.8h10.8v10.8H21.7zm-21.7 0h10.8v10.8H0z"/><path class="st3" d="M0 238.7h10.8v10.8H0z"/><path class="st0" d="M10.8 238.7h10.8v10.8H10.8z"/><path class="st3" d="M21.7 238.7h10.8v10.8H21.7zm-10.9 10.9h10.8v10.5H10.8z"/><path class="st0" d="M21.7 249.6h10.8v10.5H21.7zm-21.7 0h10.8v10.5H0z"/><path class="st3" d="M10.8 260.5v-.4H0v10.8h10.8z"/><path class="st0" d="M21.7 260.5v-.4H10.8v10.8h10.9z"/><path class="st3" d="M21.7 260.5v10.4h10.8v-10.8H21.7zm-10.9 10.4h10.8v10.8H10.8z"/><path class="st0" d="M21.7 270.9h10.8v10.8H21.7zm-21.7 0h10.8v10.8H0z"/><path class="st3" d="M0 281.8h10.8v10.8H0z"/><path class="st0" d="M10.8 281.8h10.8v10.8H10.8z"/><path class="st3" d="M21.7 281.8h10.8v10.8H21.7zm-10.9 10.8h10.8v10.8H10.8z"/><path class="st0" d="M21.7 292.6h10.8v10.8H21.7zm-21.7 0h10.8v10.8H0z"/><path class="st3" d="M0 303.5h10.8v10.8H0z"/><path class="st0" d="M10.8 303.5h10.8v10.8H10.8z"/><path class="st3" d="M21.7 303.5h10.8v10.8H21.7zm-10.9 10.8h10.8v10.8H10.8z"/><path class="st0" d="M21.7 314.3h10.8v10.8H21.7zm-21.7 0h10.8v10.8H0z"/><path class="st3" d="M0 325.3h10.8v10.8H0z"/><path class="st0" d="M10.8 325.3h10.8v10.8H10.8z"/><path class="st3" d="M21.7 325.3h10.8v10.8H21.7zm-10.9 10.9h10.8V347H10.8z"/><path class="st0" d="M21.7 336.2h10.8V347H21.7zm-21.7 0h10.8V347H0z"/><path class="st3" d="M0 347h10.8v10.8H0z"/><path class="st0" d="M10.8 347h10.8v10.8H10.8z"/><path class="st3" d="M21.7 347h10.8v10.8H21.7zm-10.9 10.9h10.8v10.8H10.8z"/><path class="st0" d="M21.7 357.9h10.8v10.8H21.7zm-21.7 0h10.8v10.8H0z"/><path class="st3" d="M0 368.7h10.8v10.8H0z"/><path class="st0" d="M10.8 368.7h10.8v10.8H10.8z"/><path class="st3" d="M21.7 368.7h10.8v10.8H21.7zm0 10.9H10.8v10.8h10.9z"/><path class="st0" d="M21.7 379.6v10.8h10.8v-10.8zm-10.9 0H0v10.8h10.8z"/><path class="st3" d="M0 390.5h10.8v10.8H0z"/><path class="st0" d="M10.8 390.5h10.8v10.8H10.8z"/><path class="st3" d="M21.7 390.5h10.8v10.8H21.7zm0 10.9H10.8v10.8h10.9z"/><path class="st0" d="M21.7 401.4v10.8h10.8v-10.8zm-10.9 0H0v10.8h10.8z"/><path class="st3" d="M0 412.2h10.8V423H0z"/><path class="st0" d="M10.8 412.2h10.8V423H10.8z"/><path class="st3" d="M21.7 412.2h10.8V423H21.7zm0 10.9H10.8v10.4h10.9z"/><path class="st0" d="M21.7 423.1v10.4h10.8v-10.4zm-10.9 0H0v10.4h10.8z"/><path class="st3" d="M10.8 433.9v-.4H0v10.9h10.8z"/><path class="st0" d="M21.7 433.9v-.4H10.8v10.9h10.9z"/><path class="st3" d="M21.7 433.9v10.5h10.8v-10.9H21.7zm0 10.5H10.8v10.8h10.9z"/><path class="st0" d="M21.7 444.4v10.8h10.8v-10.8zm-10.9 0H0v10.8h10.8z"/><path class="st3" d="M0 455.2h10.8V466H0z"/><path class="st0" d="M10.8 455.2h10.8V466H10.8z"/><path class="st3" d="M21.7 455.2h10.8V466H21.7zm0 10.9H10.8v10.8h10.9z"/><path class="st0" d="M32.5 466.1H21.7v10.8h1.5l9.3-9.3zm-21.7 0H0v10.8h10.8z"/><path class="st3" d="M0 477.1h10.8v10.8H0z"/><path class="st0" d="M12.2 487.9l9.5-9.5v-1.3H10.8v10.8z"/><path class="st3" d="M23.1 477.1h-1.4v1.3zm-12.3 12.2l1.4-1.4h-1.4z"/><path class="st0" d="M10.8 487.9H0v10.9h1.3l9.5-9.5z"/><path class="st3" d="M32.7 466.1v1.4l1.3-1.4zm10.8-9.5l1.4-1.4h-1.4z"/><path class="st0" d="M43.5 456.6v-1.4H32.7v10.9H34z"/><path class="st3" d="M32.7 444.4h10.8v10.8H32.7z"/><path class="st0" d="M43.5 444.4v10.8h1.4l9.5-9.4v-1.4z"/><path class="st3" d="M54.4 445.8l1.4-1.4h-1.4zm0-1.4v-10.9H43.5v10.9z"/><path class="st0" d="M65.2 433.5H54.4v10.9h1.4l9.4-9.5v-1zm-21.7 10.9v-10.9H32.7v10.9z"/><path class="st3" d="M32.7 422.7h10.8v10.8H32.7z"/><path class="st0" d="M43.5 422.7h10.8v10.8H43.5z"/><path class="st3" d="M54.4 422.7v10.8h10.8v-10.4h10.9v-10.9H65.2v10.5zm-10.9-10.5h10.8v10.5H43.5z"/><path class="st0" d="M54.4 412.2h10.8v10.5H54.4zm-21.7 0h10.8v10.5H32.7z"/><path class="st3" d="M43.5 411.8v-10.4H32.7v10.8h10.8z"/><path class="st0" d="M54.4 411.8v-10.4H43.5v10.8h10.9z"/><path class="st3" d="M54.4 412.2h10.8v-10.8H54.4v10.4zm-10.9-10.8h10.9v-10.9H43.5z"/><path class="st0" d="M54.4 401.4h10.8v10.8h10.9v-10.8H65.2v-10.9H54.4zm-10.9 0v-10.9H32.7v10.9z"/><path class="st3" d="M32.7 379.6h10.8v10.8H32.7z"/><path class="st0" d="M43.5 379.6h10.8v10.8H43.5z"/><path class="st3" d="M54.4 379.6h10.8v10.8H54.4zm0 0v-10.9H43.5v10.9z"/><path class="st0" d="M43.5 379.6v-10.9H32.7v10.9z"/><path class="st3" d="M32.7 357.9h10.8v10.8H32.7z"/><path class="st0" d="M43.5 357.9h10.8v10.8H43.5z"/><path class="st3" d="M54.4 357.9h10.8v10.8H54.4zM43.5 347h10.8v10.8H43.5z"/><path class="st0" d="M54.4 347h10.8v10.8H54.4zm-21.7 0h10.8v10.8H32.7z"/><path class="st3" d="M32.7 336.2h10.8V347H32.7z"/><path class="st0" d="M43.5 336.2h10.8V347H43.5z"/><path class="st3" d="M54.4 336.2h10.8V347H54.4zm-10.9-10.9h10.8v10.8H43.5z"/><path class="st0" d="M54.4 325.3h10.8v10.8H54.4zm-21.7 0h10.8v10.8H32.7z"/><path class="st3" d="M32.7 314.3h10.8v10.8H32.7z"/><path class="st0" d="M43.5 314.3h10.8v10.8H43.5z"/><path class="st3" d="M54.4 314.3h10.8v10.8H54.4zm-10.9-10.8h10.8v10.8H43.5z"/><path class="st0" d="M54.4 303.5h10.8v10.8H54.4zm-21.7 0h10.8v10.8H32.7z"/><path class="st3" d="M32.7 292.6h10.8v10.8H32.7z"/><path class="st0" d="M43.5 292.6h10.8v10.8H43.5z"/><path class="st3" d="M54.4 292.6h10.8v10.8H54.4zm-10.9-10.8h10.8v10.8H43.5z"/><path class="st0" d="M54.4 281.8h10.8v10.8H54.4zm-21.7 0h10.8v10.8H32.7z"/><path class="st3" d="M32.7 270.9h10.8v10.8H32.7z"/><path class="st0" d="M43.5 270.9h10.8v10.8H43.5z"/><path class="st3" d="M54.4 270.9h10.8v10.8H54.4zm-10.9-10.8h10.8v10.8H43.5z"/><path class="st0" d="M65.2 270.9v-10.8H54.4v10.8zm-32.5-10.8h10.8v10.8H32.7z"/><path class="st3" d="M32.7 249.1h10.8v10.8H32.7z"/><path class="st0" d="M43.5 249.1h10.8v10.8H43.5z"/><path class="st3" d="M65.2 249.5h10.9v-10.8H65.2v10.4H54.4V260h10.8v-10.4zm-21.7-10.8h10.8v10.5H43.5z"/><path class="st0" d="M54.4 238.7h10.8v10.5H54.4zm-21.7 0h10.8v10.5H32.7z"/><path class="st3" d="M43.5 238.3v-10.5H32.7v10.9h10.8z"/><path class="st0" d="M54.4 238.3v-10.5H43.5v10.9h10.9z"/><path class="st3" d="M65.2 227.8H54.4v10.9h10.8v-.4zM43.5 217h10.8v10.8H43.5z"/><path class="st0" d="M54.4 217h10.8v10.8H54.4zm-21.7 0h10.8v10.8H32.7z"/><path class="st3" d="M32.7 206.1h10.8v10.8H32.7z"/><path class="st0" d="M43.5 206.1h10.8v10.8H43.5z"/><path class="st3" d="M54.4 206.1h10.8v10.8H54.4zm-10.9-10.8h10.8v10.8H43.5z"/><path class="st0" d="M54.4 195.3h10.8v10.8H54.4zm-21.7 0h10.8v10.8H32.7z"/><path class="st3" d="M32.7 184.4h10.8v10.8H32.7z"/><path class="st0" d="M43.5 184.4h10.8v10.8H43.5z"/><path class="st3" d="M54.4 184.4h10.8v10.8H54.4zm-10.9-11h10.8v10.8H43.5z"/><path class="st0" d="M54.4 173.4h10.8v10.8H54.4zm-21.7 0h10.8v10.8H32.7z"/><path class="st3" d="M32.7 162.6h10.8v10.8H32.7z"/><path class="st0" d="M43.5 162.6h10.8v10.8H43.5z"/><path class="st3" d="M54.4 162.6h10.8v10.8H54.4zm-10.9-10.9h10.8v10.8H43.5z"/><path class="st0" d="M54.4 151.7h10.8v10.8H54.4zm-21.7 0h10.8v10.8H32.7z"/><path class="st3" d="M32.7 140.9h10.8v10.8H32.7z"/><path class="st0" d="M43.5 140.9h10.8v10.8H43.5z"/><path class="st3" d="M54.4 140.9h10.8v10.8H54.4zM43.5 130h10.8v10.8H43.5z"/><path class="st0" d="M54.4 130h10.8v10.8H54.4zm-21.7 0h10.8v10.8H32.7z"/><path class="st3" d="M32.7 119.2h10.8V130H32.7z"/><path class="st0" d="M43.5 119.2h10.8V130H43.5z"/><path class="st3" d="M54.4 119.2h10.8V130H54.4zm-10.9-11h10.8V119H43.5z"/><path class="st0" d="M54.4 108.2h10.8V119H54.4zm-21.7 0h10.8V119H32.7z"/><path class="st3" d="M32.7 97.4h10.8v10.8H32.7z"/><path class="st0" d="M43.5 97.4h10.8v10.8H43.5z"/><path class="st3" d="M54.4 97.4h10.8v10.8H54.4zM43.5 86.5h10.8v10.8H43.5z"/><path class="st0" d="M65.2 86.9v-.4H54.4v10.9h10.8zm-32.5-.4h10.8v10.8H32.7z"/><path class="st3" d="M32.7 75.7h10.8v10.8H32.7z"/><path class="st0" d="M43.5 75.7h10.8v10.8H43.5z"/><path class="st3" d="M65.2 76.1h10.9V65.2H65.2v10.5H54.4v10.8h10.8zM43.5 65.2h10.8v10.5H43.5z"/><path class="st0" d="M54.4 65.2h10.8v10.5H54.4zm-21.7 0h10.8v10.5H32.7z"/><path class="st3" d="M43.5 64.8V54.4H32.7v10.8h10.8z"/><path class="st0" d="M54.4 64.8V54.4H43.5v10.8h10.9z"/><path class="st3" d="M65.2 64.8V54.4H54.4v10.8h10.8zM43.5 43.5h10.8v10.8H43.5z"/><path class="st0" d="M54.4 43.5h10.8v10.8H54.4zm-21.7 0h10.8v10.8H32.7z"/><path class="st3" d="M32.7 32.7h10.8v10.8H32.7z"/><path class="st0" d="M43.5 32.7h10.8v10.8H43.5z"/><path class="st3" d="M54.4 32.7h10.8v10.8H54.4zm-10.9-11h10.8v10.8H43.5z"/><path class="st0" d="M54.4 21.7h10.8v10.8H54.4zm-21.7 0h10.8v10.8H32.7z"/><path class="st3" d="M32.7 10.8h10.8v10.8H32.7z"/><path class="st0" d="M43.5 10.8h10.8v10.8H43.5z"/><path class="st3" d="M54.4 10.8h10.8v10.8H54.4zM43.5 0h10.8v10.8H43.5z"/><path class="st0" d="M54.4 0h10.8v10.8H54.4zM32.7 0h10.8v10.8H32.7z"/><path class="st3" d="M65.2 0H76v10.8H65.2z"/><path class="st0" d="M76.1 0h10.8v10.8H76.1z"/><path class="st3" d="M86.9 0h10.8v10.8H86.9zM76.1 10.8h10.8v10.8H76.1z"/><path class="st0" d="M86.9 10.8h10.8v10.8H86.9zm-21.7 0H76v10.8H65.2z"/><path class="st3" d="M65.2 21.7H76v10.8H65.2z"/><path class="st0" d="M76.1 21.7h10.8v10.8H76.1z"/><path class="st3" d="M86.9 21.7h10.8v10.8H86.9zm-10.8 11h10.8v10.8H76.1z"/><path class="st0" d="M86.9 32.7h10.8v10.8H86.9zm-21.7 0H76v10.8H65.2z"/><path class="st3" d="M65.2 43.5H76v10.8H65.2z"/><path class="st0" d="M76.1 43.5h10.8v10.8H76.1z"/><path class="st3" d="M86.9 43.5h10.8v10.8H86.9zM76.1 54.4h10.8v10.8H76.1z"/><path class="st0" d="M86.9 54.4h10.8v10.8H86.9zM65.2 65.2h10.9V54.4H65.2v10.4zm10.9 0h10.8V76H76.1z"/><path class="st3" d="M86.9 65.2h10.8V76H86.9zM76.1 76.1h10.8v10.5H76.1z"/><path class="st0" d="M86.9 76.1h10.8v10.5H86.9zm-21.7 0H76v10.5H65.2z"/><path class="st3" d="M65.2 86.9v10.5h10.9V86.5H65.2z"/><path class="st0" d="M76.1 86.9v10.5h10.8V86.5H76.1z"/><path class="st3" d="M86.9 86.9v10.5h10.9V86.5H86.9zM76.1 97.4h10.8v10.8H76.1z"/><path class="st0" d="M86.9 97.4h10.8v10.8H86.9zm-21.7 0H76v10.8H65.2z"/><path class="st3" d="M65.2 108.2H76V119H65.2z"/><path class="st0" d="M76.1 108.2h10.8V119H76.1z"/><path class="st3" d="M86.9 108.2h10.8V119H86.9zm-10.8 11h10.8V130H76.1z"/><path class="st0" d="M86.9 119.2h10.8V130H86.9zm-21.7 0H76V130H65.2z"/><path class="st3" d="M65.2 130H76v10.8H65.2z"/><path class="st0" d="M76.1 130h10.8v10.8H76.1z"/><path class="st3" d="M86.9 130h10.8v10.8H86.9zm-10.8 10.9h10.8v10.8H76.1z"/><path class="st0" d="M86.9 140.9h10.8v10.8H86.9zm-21.7 0H76v10.8H65.2z"/><path class="st3" d="M65.2 151.7H76v10.8H65.2z"/><path class="st0" d="M76.1 151.7h10.8v10.8H76.1z"/><path class="st3" d="M86.9 151.7h10.8v10.8H86.9zm-10.8 10.9h10.8v10.8H76.1z"/><path class="st0" d="M86.9 162.6h10.8v10.8H86.9zm-21.7 0H76v10.8H65.2z"/><path class="st3" d="M65.2 173.4H76v10.8H65.2z"/><path class="st0" d="M76.1 173.4h10.8v10.8H76.1z"/><path class="st3" d="M86.9 173.4h10.8v10.8H86.9zm-10.8 11h10.8v10.8H76.1z"/><path class="st0" d="M86.9 184.4h10.8v10.8H86.9zm-21.7 0H76v10.8H65.2z"/><path class="st3" d="M65.2 195.3H76v10.8H65.2z"/><path class="st0" d="M76.1 195.3h10.8v10.8H76.1z"/><path class="st3" d="M86.9 195.3h10.8v10.8H86.9zm-10.8 10.8h10.8v10.8H76.1z"/><path class="st0" d="M86.9 206.1h10.8v10.8H86.9zm-21.7 0H76v10.8H65.2z"/><path class="st3" d="M65.2 217H76v10.8H65.2z"/><path class="st0" d="M76.1 217h10.8v10.8H76.1z"/><path class="st3" d="M86.9 217h10.8v10.8H86.9zm-10.8 10.8h10.8v10.8H76.1z"/><path class="st0" d="M86.9 227.8h10.8v10.8H86.9zm-21.7 0v10.9h10.9v-10.9z"/><path class="st0" d="M76.1 238.7h10.8v10.8H76.1z"/><path class="st3" d="M86.9 238.7h10.8v10.8H86.9zm-10.8 10.9h10.8v10.5H76.1z"/><path class="st0" d="M86.9 249.6h10.8v10.5H86.9zm-10.8 0H65.2v10.5h10.9z"/><path class="st3" d="M65.2 270.9h10.9v-10.8H65.2v.4z"/><path class="st0" d="M86.9 260.5v-.4H76.1v10.8h10.8z"/><path class="st3" d="M86.9 260.5v10.4h10.9v-10.8H86.9zm-10.8 10.4h10.8v10.8H76.1z"/><path class="st0" d="M86.9 270.9h10.8v10.8H86.9zm-21.7 0H76v10.8H65.2z"/><path class="st3" d="M65.2 281.8H76v10.8H65.2z"/><path class="st0" d="M76.1 281.8h10.8v10.8H76.1z"/><path class="st3" d="M86.9 281.8h10.8v10.8H86.9zm-10.8 10.8h10.8v10.8H76.1z"/><path class="st0" d="M86.9 292.6h10.8v10.8H86.9zm-21.7 0H76v10.8H65.2z"/><path class="st3" d="M65.2 303.5H76v10.8H65.2z"/><path class="st0" d="M76.1 303.5h10.8v10.8H76.1z"/><path class="st3" d="M86.9 303.5h10.8v10.8H86.9zm-10.8 10.8h10.8v10.8H76.1z"/><path class="st0" d="M86.9 314.3h10.8v10.8H86.9zm-21.7 0H76v10.8H65.2z"/><path class="st3" d="M65.2 325.3H76v10.8H65.2z"/><path class="st0" d="M76.1 325.3h10.8v10.8H76.1z"/><path class="st3" d="M86.9 325.3h10.8v10.8H86.9zm-10.8 10.9h10.8V347H76.1z"/><path class="st0" d="M86.9 336.2h10.8V347H86.9zm-21.7 0H76V347H65.2z"/><path class="st3" d="M65.2 347H76v10.8H65.2z"/><path class="st0" d="M76.1 347h10.8v10.8H76.1z"/><path class="st3" d="M86.9 347h10.8v10.8H86.9zm-10.8 10.9h10.8v10.8H76.1z"/><path class="st0" d="M86.9 357.9h10.8v10.8H86.9zm-21.7 0H76v10.8H65.2z"/><path class="st3" d="M65.2 368.7H76v10.8H65.2z"/><path class="st0" d="M76.1 368.7h10.8v10.8H76.1z"/><path class="st3" d="M86.9 368.7h10.8v10.8H86.9zm0 10.9H76.1v10.8h10.8z"/><path class="st0" d="M86.9 379.6v10.8h10.9v-10.8zm-10.8 0H65.2v-10.9H54.4v10.9h10.8v10.8h10.9z"/><path class="st3" d="M65.2 390.5H76v10.8H65.2z"/><path class="st0" d="M76.1 390.5h10.8v10.8H76.1z"/><path class="st3" d="M86.9 390.5h10.8v10.8H86.9zm0 10.9H76.1v10.8h10.8z"/><path class="st0" d="M86.9 401.4v10.8H88l9.8-9.8v-1zm-10.8 10.8v10.9h1l9.8-9.8v-1.1z"/><path class="st3" d="M86.9 413.3l1.1-1.1h-1.1zm-10.8 9.8v1l1-1z"/><path class="st0" d="M76.1 423.1H65.2v10.4h1.4l9.5-9.4z"/><path class="st3" d="M65.2 433.9v1l1.4-1.4h-1.4zm32.7-32.5v.9l.9-.9zm11.8-10.9h-1v1z"/><path class="st0" d="M108.7 391.5v-1H97.9v10.9h.9z"/><path class="st3" d="M97.9 379.6h10.8v10.8H97.9z"/><path class="st0" d="M119.6 379.6h-10.9v10.8h1.1l9.8-9.8z"/><path class="st3" d="M119.6 380.6l1.1-1h-1.1zm0-11.9h-10.9v10.9h10.9z"/><path class="st0" d="M119.6 368.7v10.9h1.1l9.7-9.8v-1.1zm-10.9 10.9v-10.9H97.9v10.9z"/><path class="st3" d="M97.9 357.9h10.8v10.8H97.9z"/><path class="st0" d="M108.7 357.9h10.8v10.8h-10.8z"/><path class="st3" d="M119.6 357.9h10.8v10.8h-10.8zM108.7 347h10.8v10.8h-10.8z"/><path class="st0" d="M119.6 347h10.8v10.8h-10.8zm-21.7 0h10.8v10.8H97.9z"/><path class="st3" d="M97.9 336.2h10.8V347H97.9z"/><path class="st0" d="M108.7 336.2h10.8V347h-10.8z"/><path class="st3" d="M119.6 336.2h10.8V347h-10.8zm-10.9-10.9h10.8v10.8h-10.8z"/><path class="st0" d="M119.6 325.3h10.8v10.8h-10.8zm-21.7 0h10.8v10.8H97.9z"/><path class="st3" d="M97.9 314.3h10.8v10.8H97.9z"/><path class="st0" d="M108.7 314.3h10.8v10.8h-10.8z"/><path class="st3" d="M119.6 314.3h10.8v10.8h-10.8zm-10.9-10.8h10.8v10.8h-10.8z"/><path class="st0" d="M119.6 303.5h10.8v10.8h-10.8zm-21.7 0h10.8v10.8H97.9z"/><path class="st3" d="M97.9 292.6h10.8v10.8H97.9z"/><path class="st0" d="M108.7 292.6h10.8v10.8h-10.8z"/><path class="st3" d="M119.6 292.6h10.8v10.8h-10.8zm-10.9-10.8h10.8v10.8h-10.8z"/><path class="st0" d="M119.6 281.8h10.8v10.8h-10.8zm-21.7 0h10.8v10.8H97.9z"/><path class="st3" d="M97.9 270.9h10.8v10.8H97.9z"/><path class="st0" d="M108.7 270.9h10.8v10.8h-10.8z"/><path class="st3" d="M119.6 270.9h10.8v10.8h-10.8zm-10.9-10.8h10.8v10.8h-10.8z"/><path class="st0" d="M130.4 270.9v-10.8h-10.8v10.8zm-32.5-10.8h10.8v10.8H97.9z"/><path class="st3" d="M97.9 249.1h10.8v10.8H97.9z"/><path class="st0" d="M108.7 249.1h10.8v10.8h-10.8z"/><path class="st3" d="M130.4 249.5h10.9v-10.8h-10.9v10.4h-10.8V260h10.8v-10.4zm-21.7-10.8h10.8v10.5h-10.8z"/><path class="st0" d="M119.6 238.7h10.8v10.5h-10.8zm-21.7 0h10.8v10.5H97.9z"/><path class="st3" d="M108.7 238.3v-10.5H97.9v10.9h10.8z"/><path class="st0" d="M119.6 238.3v-10.5h-10.9v10.9h10.9z"/><path class="st3" d="M130.4 227.8h-10.8v10.9h10.8v-.4zM108.7 217h10.8v10.8h-10.8z"/><path class="st0" d="M119.6 217h10.8v10.8h-10.8zm-21.7 0h10.8v10.8H97.9z"/><path class="st3" d="M97.9 206.1h10.8v10.8H97.9z"/><path class="st0" d="M108.7 206.1h10.8v10.8h-10.8z"/><path class="st3" d="M119.6 206.1h10.8v10.8h-10.8zm-10.9-10.8h10.8v10.8h-10.8z"/><path class="st0" d="M119.6 195.3h10.8v10.8h-10.8zm-21.7 0h10.8v10.8H97.9z"/><path class="st3" d="M97.9 184.4h10.8v10.8H97.9z"/><path class="st0" d="M108.7 184.4h10.8v10.8h-10.8z"/><path class="st3" d="M119.6 184.4h10.8v10.8h-10.8zm-10.9-11h10.8v10.8h-10.8z"/><path class="st0" d="M119.6 173.4h10.8v10.8h-10.8zm-21.7 0h10.8v10.8H97.9z"/><path class="st3" d="M97.9 162.6h10.8v10.8H97.9z"/><path class="st0" d="M108.7 162.6h10.8v10.8h-10.8z"/><path class="st3" d="M119.6 162.6h10.8v10.8h-10.8zm-10.9-10.9h10.8v10.8h-10.8z"/><path class="st0" d="M119.6 151.7h10.8v10.8h-10.8zm-21.7 0h10.8v10.8H97.9z"/><path class="st3" d="M97.9 140.9h10.8v10.8H97.9z"/><path class="st0" d="M108.7 140.9h10.8v10.8h-10.8z"/><path class="st3" d="M119.6 140.9h10.8v10.8h-10.8zM108.7 130h10.8v10.8h-10.8z"/><path class="st0" d="M119.6 130h10.8v10.8h-10.8zm-21.7 0h10.8v10.8H97.9z"/><path class="st3" d="M97.9 119.2h10.8V130H97.9z"/><path class="st0" d="M108.7 119.2h10.8V130h-10.8z"/><path class="st3" d="M119.6 119.2h10.8V130h-10.8zm-10.9-11h10.8V119h-10.8z"/><path class="st0" d="M119.6 108.2h10.8V119h-10.8zm-21.7 0h10.8V119H97.9z"/><path class="st3" d="M97.9 97.4h10.8v10.8H97.9z"/><path class="st0" d="M108.7 97.4h10.8v10.8h-10.8z"/><path class="st3" d="M119.6 97.4h10.8v10.8h-10.8zm-10.9-10.9h10.8v10.8h-10.8z"/><path class="st0" d="M130.4 86.9v-.4h-10.8v10.9h10.8zm-32.5-.4h10.8v10.8H97.9z"/><path class="st3" d="M97.9 75.7h10.8v10.8H97.9z"/><path class="st0" d="M108.7 75.7h10.8v10.8h-10.8z"/><path class="st3" d="M130.4 76.1h10.9V65.2h-10.9v10.5h-10.8v10.8h10.8zm-21.7-10.9h10.8v10.5h-10.8z"/><path class="st0" d="M119.6 65.2h10.8v10.5h-10.8zm-21.7 0h10.8v10.5H97.9z"/><path class="st3" d="M108.7 64.8V54.4H97.9v10.8h10.8z"/><path class="st0" d="M119.6 64.8V54.4h-10.9v10.8h10.9z"/><path class="st3" d="M130.4 64.8V54.4h-10.8v10.8h10.8zm-21.7-21.3h10.8v10.8h-10.8z"/><path class="st0" d="M119.6 43.5h10.8v10.8h-10.8zm-21.7 0h10.8v10.8H97.9z"/><path class="st3" d="M97.9 32.7h10.8v10.8H97.9z"/><path class="st0" d="M108.7 32.7h10.8v10.8h-10.8z"/><path class="st3" d="M119.6 32.7h10.8v10.8h-10.8zm-10.9-11h10.8v10.8h-10.8z"/><path class="st0" d="M119.6 21.7h10.8v10.8h-10.8zm-21.7 0h10.8v10.8H97.9z"/><path class="st3" d="M97.9 10.8h10.8v10.8H97.9z"/><path class="st0" d="M108.7 10.8h10.8v10.8h-10.8z"/><path class="st3" d="M119.6 10.8h10.8v10.8h-10.8zM108.7 0h10.8v10.8h-10.8z"/><path class="st0" d="M119.6 0h10.8v10.8h-10.8zM97.9 0h10.8v10.8H97.9z"/><path class="st3" d="M130.4 0h10.8v10.8h-10.8z"/><path class="st0" d="M141.3 0h10.8v10.8h-10.8z"/><path class="st3" d="M152.1 0h10.8v10.8h-10.8zm-10.8 10.8h10.8v10.8h-10.8z"/><path class="st0" d="M152.1 10.8h10.8v10.8h-10.8zm-21.7 0h10.8v10.8h-10.8z"/><path class="st3" d="M130.4 21.7h10.8v10.8h-10.8z"/><path class="st0" d="M141.3 21.7h10.8v10.8h-10.8z"/><path class="st3" d="M152.1 21.7h10.8v10.8h-10.8zm-10.8 11h10.8v10.8h-10.8z"/><path class="st0" d="M152.1 32.7h10.8v10.8h-10.8zm-21.7 0h10.8v10.8h-10.8z"/><path class="st3" d="M130.4 43.5h10.8v10.8h-10.8z"/><path class="st0" d="M141.3 43.5h10.8v10.8h-10.8z"/><path class="st3" d="M152.1 43.5h10.8v10.8h-10.8zm-10.8 10.9h10.8v10.8h-10.8z"/><path class="st0" d="M152.1 54.4h10.8v10.8h-10.8zm-21.7 10.8h10.9V54.4h-10.9v10.4zm10.9 0h10.8V76h-10.8z"/><path class="st3" d="M152.1 65.2h10.8V76h-10.8zm-10.8 10.9h10.8v10.5h-10.8z"/><path class="st0" d="M152.1 76.1h10.8v10.5h-10.8zm-21.7 0h10.8v10.5h-10.8z"/><path class="st3" d="M130.4 86.9v10.5h10.9V86.5h-10.9z"/><path class="st0" d="M141.3 86.9v10.5h10.8V86.5h-10.8z"/><path class="st3" d="M152.1 86.9v10.5H163V86.5h-10.9zm-10.8 10.5h10.8v10.8h-10.8z"/><path class="st0" d="M152.1 97.4h10.8v10.8h-10.8zm-21.7 0h10.8v10.8h-10.8z"/><path class="st3" d="M130.4 108.2h10.8V119h-10.8z"/><path class="st0" d="M141.3 108.2h10.8V119h-10.8z"/><path class="st3" d="M152.1 108.2h10.8V119h-10.8zm-10.8 11h10.8V130h-10.8z"/><path class="st0" d="M152.1 119.2h10.8V130h-10.8zm-21.7 0h10.8V130h-10.8z"/><path class="st3" d="M130.4 130h10.8v10.8h-10.8z"/><path class="st0" d="M141.3 130h10.8v10.8h-10.8z"/><path class="st3" d="M152.1 130h10.8v10.8h-10.8zm-10.8 10.9h10.8v10.8h-10.8z"/><path class="st0" d="M152.1 140.9h10.8v10.8h-10.8zm-21.7 0h10.8v10.8h-10.8z"/><path class="st3" d="M130.4 151.7h10.8v10.8h-10.8z"/><path class="st0" d="M141.3 151.7h10.8v10.8h-10.8z"/><path class="st3" d="M152.1 151.7h10.8v10.8h-10.8zm-10.8 10.9h10.8v10.8h-10.8z"/><path class="st0" d="M152.1 162.6h10.8v10.8h-10.8zm-21.7 0h10.8v10.8h-10.8z"/><path class="st3" d="M130.4 173.4h10.8v10.8h-10.8z"/><path class="st0" d="M141.3 173.4h10.8v10.8h-10.8z"/><path class="st3" d="M152.1 173.4h10.8v10.8h-10.8zm-10.8 11h10.8v10.8h-10.8z"/><path class="st0" d="M152.1 184.4h10.8v10.8h-10.8zm-21.7 0h10.8v10.8h-10.8z"/><path class="st3" d="M130.4 195.3h10.8v10.8h-10.8z"/><path class="st0" d="M141.3 195.3h10.8v10.8h-10.8z"/><path class="st3" d="M152.1 195.3h10.8v10.8h-10.8z"/><path class="st3" d="M141.3 206.1h10.8v10.8h-10.8z"/><path class="st0" d="M152.1 206.1h10.8v10.8h-10.8zm-21.7 0h10.8v10.8h-10.8z"/><path class="st3" d="M130.4 217h10.8v10.8h-10.8z"/><path class="st0" d="M141.3 217h10.8v10.8h-10.8z"/><path class="st3" d="M152.1 217h10.8v10.8h-10.8zm-10.8 10.8h10.8v10.8h-10.8z"/><path class="st0" d="M152.1 227.8h10.8v10.8h-10.8zm-21.7 0v10.9h10.9v-10.9zm10.9 10.9h10.8v10.8h-10.8z"/><path class="st3" d="M152.1 238.7h10.8v10.8h-10.8zm-10.8 10.9h10.8v10.5h-10.8z"/><path class="st0" d="M152.1 249.6h10.8v10.5h-10.8zm-10.8 0h-10.9v10.5h10.9z"/><path class="st3" d="M130.4 270.9h10.9v-10.8h-10.9v.4z"/><path class="st0" d="M152.1 260.5v-.4h-10.8v10.8h10.8z"/><path class="st3" d="M152.1 260.5v10.4H163v-10.8h-10.9zm-10.8 10.4h10.8v10.8h-10.8z"/><path class="st0" d="M152.1 270.9h10.8v10.8h-10.8zm-21.7 0h10.8v10.8h-10.8z"/><path class="st3" d="M130.4 281.8h10.8v10.8h-10.8z"/><path class="st0" d="M141.3 281.8h10.8v10.8h-10.8z"/><path class="st3" d="M152.1 281.8h10.8v10.8h-10.8zm-10.8 10.8h10.8v10.8h-10.8z"/><path class="st0" d="M152.1 292.6h10.8v10.8h-10.8zm-21.7 0h10.8v10.8h-10.8z"/><path class="st3" d="M130.4 303.5h10.8v10.8h-10.8z"/><path class="st0" d="M141.3 303.5h10.8v10.8h-10.8z"/><path class="st3" d="M152.1 303.5h10.8v10.8h-10.8zm-10.8 10.8h10.8v10.8h-10.8z"/><path class="st0" d="M152.1 314.3h10.8v10.8h-10.8zm-21.7 0h10.8v10.8h-10.8z"/><path class="st3" d="M130.4 325.3h10.8v10.8h-10.8z"/><path class="st0" d="M141.3 325.3h10.8v10.8h-10.8z"/><path class="st3" d="M152.1 325.3h10.8v10.8h-10.8zm-10.8 10.9h10.8V347h-10.8z"/><path class="st0" d="M152.1 347h1.1l9.8-9.7v-1.1h-10.9zm-21.7-10.8h10.8V347h-10.8z"/><path class="st3" d="M130.4 347h10.8v10.8h-10.8z"/><path class="st0" d="M141.3 347v10.9h1.1l9.7-9.8V347z"/><path class="st3" d="M152.1 348.1l1.1-1.1h-1.1zM141.3 359l1.1-1.1h-1.1z"/><path class="st0" d="M130.4 357.9v10.8h1.1l9.8-9.7v-1.1z"/><path class="st3" d="M130.4 369.8l1.1-1.1h-1.1zm32.7-33.6v1l1-1zm11.9-10.9h-1.1v1z"/><path class="st0" d="M173.9 326.3v-1h-10.8v10.9h1z"/><path class="st3" d="M163.1 314.3h10.8v10.8h-10.8z"/><path class="st0" d="M184.8 314.3h-10.9v10.9h1.2l9.7-9.7z"/><path class="st3" d="M184.8 315.5l1.1-1.2h-1.1zm-10.9-12h10.8v10.8h-10.8z"/><path class="st0" d="M184.8 303.5v10.8h1.1l9.7-9.7v-1.1zm-21.7 0h10.8v10.8h-10.8z"/><path class="st3" d="M163.1 292.6h10.8v10.8h-10.8z"/><path class="st0" d="M173.9 292.6h10.8v10.8h-10.8z"/><path class="st3" d="M184.8 292.6h10.8v10.8h-10.8zm-10.9-10.8h10.8v10.8h-10.8z"/><path class="st0" d="M184.8 281.8h10.8v10.8h-10.8zm-21.7 0h10.8v10.8h-10.8z"/><path class="st3" d="M163.1 270.9h10.8v10.8h-10.8z"/><path class="st0" d="M173.9 270.9h10.8v10.8h-10.8z"/><path class="st3" d="M184.8 270.9h10.8v10.8h-10.8zm-10.9-10.8h10.8v10.8h-10.8z"/><path class="st0" d="M195.6 270.9v-10.8h-10.8v10.8zm-32.5-10.8h10.8v10.8h-10.8z"/><path class="st3" d="M163.1 249.1h10.8v10.8h-10.8z"/><path class="st0" d="M173.9 249.1h10.8v10.8h-10.8z"/><path class="st3" d="M195.6 249.5h10.9v-10.8h-10.9v10.4h-10.8V260h10.8v-10.4zm-21.7-10.8h10.8v10.5h-10.8z"/><path class="st0" d="M184.8 238.7h10.8v10.5h-10.8zm-21.7 0h10.8v10.5h-10.8z"/><path class="st3" d="M173.9 238.3v-10.5h-10.8v10.9h10.8z"/><path class="st0" d="M184.8 238.3v-10.5h-10.9v10.9h10.9z"/><path class="st3" d="M195.6 227.8h-10.8v10.9h10.8v-.4zM173.9 217h10.8v10.8h-10.8z"/><path class="st0" d="M184.8 217h10.8v10.8h-10.8zm-21.7 0h10.8v10.8h-10.8z"/><path class="st3" d="M163.1 206.1h10.8v10.8h-10.8z"/><path class="st0" d="M173.9 206.1h10.8v10.8h-10.8z"/><path class="st3" d="M184.8 206.1h10.8v10.8h-10.8zm-10.9-10.8h10.8v10.8h-10.8z"/><path class="st0" d="M184.8 195.3h10.8v10.8h-10.8zm-21.7 0h10.8v10.8h-10.8z"/><path class="st3" d="M163.1 184.4h10.8v10.8h-10.8z"/><path class="st0" d="M173.9 184.4h10.8v10.8h-10.8z"/><path class="st3" d="M184.8 184.4h10.8v10.8h-10.8zm-10.9-11h10.8v10.8h-10.8z"/><path class="st0" d="M184.8 173.4h10.8v10.8h-10.8zm-21.7 0h10.8v10.8h-10.8z"/><path class="st3" d="M163.1 162.6h10.8v10.8h-10.8z"/><path class="st0" d="M173.9 162.6h10.8v10.8h-10.8z"/><path class="st3" d="M184.8 162.6h10.8v10.8h-10.8zm-10.9-10.9h10.8v10.8h-10.8z"/><path class="st0" d="M184.8 151.7h10.8v10.8h-10.8zm-21.7 0h10.8v10.8h-10.8z"/><path class="st3" d="M163.1 140.9h10.8v10.8h-10.8z"/><path class="st0" d="M173.9 140.9h10.8v10.8h-10.8z"/><path class="st3" d="M184.8 140.9h10.8v10.8h-10.8zM173.9 130h10.8v10.8h-10.8z"/><path class="st0" d="M184.8 130h10.8v10.8h-10.8zm-21.7 0h10.8v10.8h-10.8z"/><path class="st3" d="M163.1 119.2h10.8V130h-10.8z"/><path class="st0" d="M173.9 119.2h10.8V130h-10.8z"/><path class="st3" d="M184.8 119.2h10.8V130h-10.8zm-10.9-11h10.8V119h-10.8z"/><path class="st0" d="M184.8 108.2h10.8V119h-10.8zm-21.7 0h10.8V119h-10.8z"/><path class="st3" d="M163.1 97.4h10.8v10.8h-10.8z"/><path class="st0" d="M173.9 97.4h10.8v10.8h-10.8z"/><path class="st3" d="M184.8 97.4h10.8v10.8h-10.8zm-10.9-10.9h10.8v10.8h-10.8z"/><path class="st0" d="M195.6 97.4V86.5h-10.8v10.9zm-32.5-10.9h10.8v10.8h-10.8z"/><path class="st3" d="M163.1 75.7h10.8v10.8h-10.8z"/><path class="st0" d="M173.9 75.7h10.8v10.8h-10.8z"/><path class="st3" d="M173.9 65.2h10.8v10.5h-10.8z"/><path class="st0" d="M184.8 65.2h10.8v10.5h-10.8zm-21.7 0h10.8v10.5h-10.8z"/><path class="st3" d="M173.9 64.8V54.4h-10.8v10.8h10.8z"/><path class="st0" d="M184.8 64.8V54.4h-10.9v10.8h10.9z"/><path class="st3" d="M184.8 64.8v.4h10.8V54.4h-10.8zm-10.9-21.3h10.8v10.8h-10.8z"/><path class="st0" d="M184.8 43.5h10.8v10.8h-10.8zm-21.7 0h10.8v10.8h-10.8z"/><path class="st3" d="M163.1 32.7h10.8v10.8h-10.8z"/><path class="st0" d="M173.9 32.7h10.8v10.8h-10.8z"/><path class="st3" d="M184.8 32.7h10.8v10.8h-10.8zm-10.9-11h10.8v10.8h-10.8z"/><path class="st0" d="M184.8 21.7h10.8v10.8h-10.8zm-21.7 0h10.8v10.8h-10.8z"/><path class="st3" d="M163.1 10.8h10.8v10.8h-10.8z"/><path class="st0" d="M173.9 10.8h10.8v10.8h-10.8z"/><path class="st3" d="M184.8 10.8h10.8v10.8h-10.8zM173.9 0h10.8v10.8h-10.8z"/><path class="st0" d="M184.8 0h10.8v10.8h-10.8zm-21.7 0h10.8v10.8h-10.8z"/><path class="st3" d="M195.6 0h10.8v10.8h-10.8z"/><path class="st0" d="M206.5 0h10.8v10.8h-10.8z"/><path class="st3" d="M217.3 0h10.8v10.8h-10.8zm-10.8 10.8h10.8v10.8h-10.8z"/><path class="st0" d="M217.3 10.8h10.8v10.8h-10.8zm-21.7 0h10.8v10.8h-10.8z"/><path class="st3" d="M195.6 21.7h10.8v10.8h-10.8z"/><path class="st0" d="M206.5 21.7h10.8v10.8h-10.8z"/><path class="st3" d="M217.3 21.7h10.8v10.8h-10.8zm-10.8 11h10.8v10.8h-10.8z"/><path class="st0" d="M217.3 32.7h10.8v10.8h-10.8zm-21.7 0h10.8v10.8h-10.8z"/><path class="st3" d="M195.6 43.5h10.8v10.8h-10.8z"/><path class="st0" d="M206.5 43.5h10.8v10.8h-10.8z"/><path class="st3" d="M217.3 43.5h10.8v10.8h-10.8zm-10.8 10.9h10.8v10.8h-10.8z"/><path class="st0" d="M217.3 54.4h10.8v10.8h-10.8zm-21.7 10.4v.4h10.9V54.4h-10.9z"/><path class="st3" d="M195.6 75.7h-10.8v10.8h10.8V76.1h10.9V65.2h-10.9z"/><path class="st0" d="M206.5 65.2h10.8V76h-10.8z"/><path class="st3" d="M217.3 65.2h10.8V76h-10.8zm-10.8 10.9h10.8v10.5h-10.8z"/><path class="st0" d="M217.3 76.1h10.8v10.5h-10.8zm-21.7 0h10.8v10.5h-10.8z"/><path class="st3" d="M195.6 86.9v10.5h10.9V86.5h-10.9z"/><path class="st0" d="M217.3 86.9v-.4h-10.8v10.9h10.8z"/><path class="st3" d="M217.3 86.9v10.5h10.9V86.5h-10.9zm-10.8 10.5h10.8v10.8h-10.8z"/><path class="st0" d="M217.3 97.4h10.8v10.8h-10.8zm-21.7 0h10.8v10.8h-10.8z"/><path class="st3" d="M195.6 108.2h10.8V119h-10.8z"/><path class="st0" d="M206.5 108.2h10.8V119h-10.8z"/><path class="st3" d="M217.3 108.2h10.8V119h-10.8zm-10.8 11h10.8V130h-10.8z"/><path class="st0" d="M217.3 119.2h10.8V130h-10.8zm-21.7 0h10.8V130h-10.8z"/><path class="st3" d="M195.6 130h10.8v10.8h-10.8z"/><path class="st0" d="M206.5 130h10.8v10.8h-10.8z"/><path class="st3" d="M217.3 130h10.8v10.8h-10.8zm-10.8 10.9h10.8v10.8h-10.8z"/><path class="st0" d="M217.3 140.9h10.8v10.8h-10.8zm-21.7 0h10.8v10.8h-10.8z"/><path class="st3" d="M195.6 151.7h10.8v10.8h-10.8z"/><path class="st0" d="M206.5 151.7h10.8v10.8h-10.8z"/><path class="st3" d="M217.3 151.7h10.8v10.8h-10.8zm-10.8 10.9h10.8v10.8h-10.8z"/><path class="st0" d="M217.3 162.6h10.8v10.8h-10.8zm-21.7 0h10.8v10.8h-10.8z"/><path class="st3" d="M195.6 173.4h10.8v10.8h-10.8z"/><path class="st0" d="M206.5 173.4h10.8v10.8h-10.8z"/><path class="st3" d="M217.3 173.4h10.8v10.8h-10.8zm-10.8 11h10.8v10.8h-10.8z"/><path class="st0" d="M217.3 184.4h10.8v10.8h-10.8zm-21.7 0h10.8v10.8h-10.8z"/><path class="st3" d="M195.6 195.3h10.8v10.8h-10.8z"/><path class="st0" d="M206.5 195.3h10.8v10.8h-10.8z"/><path class="st3" d="M217.3 195.3h10.8v10.8h-10.8zm-10.8 10.8h10.8v10.8h-10.8z"/><path class="st0" d="M217.3 206.1h10.8v10.8h-10.8zm-21.7 0h10.8v10.8h-10.8z"/><path class="st3" d="M195.6 217h10.8v10.8h-10.8z"/><path class="st0" d="M206.5 217h10.8v10.8h-10.8z"/><path class="st3" d="M217.3 217h10.8v10.8h-10.8zm-10.8 10.8h10.8v10.8h-10.8z"/><path class="st0" d="M217.3 227.8h10.8v10.8h-10.8zm-21.7 10.5v.4h10.9v-10.9h-10.9zm10.9.4h10.8v10.8h-10.8z"/><path class="st3" d="M217.3 238.7h10.8v10.8h-10.8zm-10.8 10.9h10.8v10.5h-10.8z"/><path class="st0" d="M217.3 249.6h10.8v10.5h-10.8zm-10.8 0h-10.9v10.5h10.9z"/><path class="st3" d="M195.6 270.9h10.9v-10.8h-10.9v.4z"/><path class="st0" d="M217.3 260.5v-.4h-10.8v10.8h10.8z"/><path class="st3" d="M217.3 260.5v10.4h10.9v-10.8h-10.9zm-10.8 10.4h10.8v10.8h-10.8z"/><path class="st0" d="M217.3 281.8h1.2l9.7-9.7v-1.2h-10.9zm-21.7-10.9h10.8v10.8h-10.8z"/><path class="st3" d="M195.6 281.8h10.8v10.8h-10.8z"/><path class="st0" d="M217.3 283v-1.2h-10.8v10.8h1.2z"/><path class="st3" d="M217.3 283l1.2-1.2h-1.2zm-10.8 9.6v1.2l1.2-1.2z"/><path class="st0" d="M195.6 303.5h1.2l9.7-9.7v-1.2h-10.9z"/><path class="st3" d="M195.6 304.6l1.2-1.1h-1.2zm32.7-33.7v1.1l1.1-1.1zm11.9-10.8h-1v1.1z"/><path class="st0" d="M239.2 261.2v-1.1h-10.9v10.8h1.1z"/><path class="st3" d="M228.3 249.1h10.8v10.8h-10.8z"/><path class="st0" d="M250 249.1h-10.8V260h1.2l9.6-9.7z"/><path class="st3" d="M250 250.3l1.2-1.2H250zm-10.8-11.6H250v10.5h-10.8z"/><path class="st0" d="M250 238.7v10.4h1.2l9.6-9.6v-.8zm-21.7 0h10.8v10.5h-10.8z"/><path class="st3" d="M239.2 238.3v-10.5h-10.9v10.9h10.9z"/><path class="st0" d="M250 238.3v-10.5h-10.8v10.9H250z"/><path class="st3" d="M250 238.3v.4h10.8v-10.9H250zM239.2 217H250v10.8h-10.8z"/><path class="st0" d="M250 217h10.8v10.8H250zm-21.7 0h10.8v10.8h-10.8z"/><path class="st3" d="M228.3 206.1h10.8v10.8h-10.8z"/><path class="st0" d="M239.2 206.1H250v10.8h-10.8z"/><path class="st3" d="M250 206.1h10.8v10.8H250zm-10.8-10.8H250v10.8h-10.8z"/><path class="st0" d="M250 195.3h10.8v10.8H250zm-21.7 0h10.8v10.8h-10.8z"/><path class="st3" d="M228.3 184.4h10.8v10.8h-10.8z"/><path class="st0" d="M239.2 184.4H250v10.8h-10.8z"/><path class="st3" d="M250 184.4h10.8v10.8H250zm-10.8-11H250v10.8h-10.8z"/><path class="st0" d="M250 173.4h10.8v10.8H250zm-21.7 0h10.8v10.8h-10.8z"/><path class="st3" d="M228.3 162.6h10.8v10.8h-10.8z"/><path class="st0" d="M239.2 162.6H250v10.8h-10.8z"/><path class="st3" d="M250 162.6h10.8v10.8H250zm-10.8-10.9H250v10.8h-10.8z"/><path class="st0" d="M250 151.7h10.8v10.8H250zm-21.7 0h10.8v10.8h-10.8z"/><path class="st3" d="M228.3 140.9h10.8v10.8h-10.8z"/><path class="st0" d="M239.2 140.9H250v10.8h-10.8z"/><path class="st3" d="M250 140.9h10.8v10.8H250zM239.2 130H250v10.8h-10.8z"/><path class="st0" d="M250 130h10.8v10.8H250zm-21.7 0h10.8v10.8h-10.8z"/><path class="st3" d="M228.3 119.2h10.8V130h-10.8z"/><path class="st0" d="M239.2 119.2H250V130h-10.8z"/><path class="st3" d="M250 119.2h10.8V130H250zm-10.8-11H250V119h-10.8z"/><path class="st0" d="M250 108.2h10.8V119H250zm-21.7 0h10.8V119h-10.8z"/><path class="st3" d="M228.3 97.4h10.8v10.8h-10.8z"/><path class="st0" d="M239.2 97.4H250v10.8h-10.8z"/><path class="st3" d="M250 97.4h10.8v10.8H250zm-10.8-10.9H250v10.8h-10.8z"/><path class="st0" d="M260.8 86.9v-.4H250v10.9h10.8zm-32.5-.4h10.8v10.8h-10.8z"/><path class="st3" d="M228.3 75.7h10.8v10.8h-10.8z"/><path class="st0" d="M239.2 75.7H250v10.8h-10.8z"/><path class="st3" d="M239.2 65.2H250v10.5h-10.8z"/><path class="st0" d="M250 65.2h10.8v10.5H250zm-21.7 0h10.8v10.5h-10.8z"/><path class="st3" d="M239.2 64.8V54.4h-10.9v10.8h10.9z"/><path class="st0" d="M250 64.8V54.4h-10.8v10.8H250z"/><path class="st3" d="M260.8 64.8V54.4H250v10.8h10.8zm-21.6-21.3H250v10.8h-10.8z"/><path class="st0" d="M250 43.5h10.8v10.8H250zm-21.7 0h10.8v10.8h-10.8z"/><path class="st3" d="M228.3 32.7h10.8v10.8h-10.8z"/><path class="st0" d="M239.2 32.7H250v10.8h-10.8z"/><path class="st3" d="M250 32.7h10.8v10.8H250zm-10.8-11H250v10.8h-10.8z"/><path class="st0" d="M250 21.7h10.8v10.8H250zm-21.7 0h10.8v10.8h-10.8z"/><path class="st3" d="M228.3 10.8h10.8v10.8h-10.8z"/><path class="st0" d="M239.2 10.8H250v10.8h-10.8z"/><path class="st3" d="M250 10.8h10.8v10.8H250zM239.2 0H250v10.8h-10.8z"/><path class="st0" d="M250 0h10.8v10.8H250zm-21.7 0h10.8v10.8h-10.8z"/><path class="st3" d="M260.8 0h10.8v10.8h-10.8z"/><path class="st0" d="M271.7 0h10.8v10.8h-10.8z"/><path class="st3" d="M282.7 0h10.8v10.8h-10.8zm-11 10.8h10.8v10.8h-10.8z"/><path class="st0" d="M282.7 10.8h10.8v10.8h-10.8zm-21.9 0h10.8v10.8h-10.8z"/><path class="st3" d="M260.8 21.7h10.8v10.8h-10.8z"/><path class="st0" d="M271.7 21.7h10.8v10.8h-10.8z"/><path class="st3" d="M282.7 21.7h10.8v10.8h-10.8zm-11 11h10.8v10.8h-10.8z"/><path class="st0" d="M282.7 32.7h10.8v10.8h-10.8zm-21.9 0h10.8v10.8h-10.8z"/><path class="st3" d="M260.8 43.5h10.8v10.8h-10.8z"/><path class="st0" d="M271.7 43.5h10.8v10.8h-10.8z"/><path class="st3" d="M282.7 43.5h10.8v10.8h-10.8zm-11 10.9h10.8v10.8h-10.8z"/><path class="st0" d="M293.5 64.8V54.4h-10.8v10.8h10.8zm-32.7 0v.4h10.9V54.4h-10.9z"/><path class="st3" d="M260.8 75.7H250v10.8h10.8V76.1h10.9V65.2h-10.9z"/><path class="st0" d="M271.7 65.2h10.8V76h-10.8z"/><path class="st3" d="M271.7 76.1h10.8v10.5h-10.8z"/><path class="st0" d="M282.7 76.1h10.8v10.5h-10.8zm-21.9 0h10.8v10.5h-10.8z"/><path class="st3" d="M260.8 86.9v10.5h10.9V86.5h-10.9z"/><path class="st0" d="M271.7 86.9v10.5h10.8V86.5h-10.8z"/><path class="st3" d="M293.5 86.9v-.4h-10.8v10.9h10.8zm-21.8 10.5h10.8v10.8h-10.8z"/><path class="st0" d="M282.7 97.4h10.8v10.8h-10.8zm-21.9 0h10.8v10.8h-10.8z"/><path class="st3" d="M260.8 108.2h10.8V119h-10.8z"/><path class="st0" d="M271.7 108.2h10.8V119h-10.8z"/><path class="st3" d="M282.7 108.2h10.8V119h-10.8zm-11 11h10.8V130h-10.8z"/><path class="st0" d="M282.7 119.2h10.8V130h-10.8zm-21.9 0h10.8V130h-10.8z"/><path class="st3" d="M260.8 130h10.8v10.8h-10.8z"/><path class="st0" d="M271.7 130h10.8v10.8h-10.8z"/><path class="st3" d="M282.7 130h10.8v10.8h-10.8zm-11 10.9h10.8v10.8h-10.8z"/><path class="st0" d="M282.7 140.9h10.8v10.8h-10.8zm-21.9 0h10.8v10.8h-10.8z"/><path class="st3" d="M260.8 151.7h10.8v10.8h-10.8z"/><path class="st0" d="M271.7 151.7h10.8v10.8h-10.8z"/><path class="st3" d="M282.7 151.7h10.8v10.8h-10.8zm-11 10.9h10.8v10.8h-10.8z"/><path class="st0" d="M282.7 162.6h10.8v10.8h-10.8zm-21.9 0h10.8v10.8h-10.8z"/><path class="st3" d="M260.8 173.4h10.8v10.8h-10.8z"/><path class="st0" d="M271.7 173.4h10.8v10.8h-10.8z"/><path class="st3" d="M282.7 173.4h10.8v10.8h-10.8zm-11 11h10.8v10.8h-10.8z"/><path class="st0" d="M282.7 184.4h10.8v10.8h-10.8zm-21.9 0h10.8v10.8h-10.8z"/><path class="st3" d="M260.8 195.3h10.8v10.8h-10.8z"/><path class="st0" d="M271.7 195.3h10.8v10.8h-10.8z"/><path class="st3" d="M282.7 195.3h10.8v10.8h-10.8zm-11 10.8h10.8v10.8h-10.8z"/><path class="st0" d="M293.5 206.9v-.8h-10.8V217h.7zm-32.7-.8h10.8v10.8h-10.8z"/><path class="st3" d="M260.8 217h10.8v10.8h-10.8z"/><path class="st0" d="M271.7 227.8h.9l9.9-10v-.8h-10.8z"/><path class="st3" d="M282.7 217v.7l.7-.7zm-11 11.7l.9-.9h-.9z"/><path class="st0" d="M260.8 227.8v10.9h.9l10-10v-.9z"/><path class="st3" d="M260.8 239.5l.9-.8h-.9zm32.7-32.6l.8-.8h-.8zm10.9-11.6v.7l.7-.7z"/><path class="st0" d="M294.3 206.1l10.1-10.1v-.7h-10.9v10.8z"/><path class="st3" d="M293.5 184.4h10.8v10.8h-10.8z"/><path class="st0" d="M315.2 184.4h-10.8v10.9h.7l10.1-10.1z"/><path class="st3" d="M316 184.4h-.8v.8zm-11.6-11h10.8v10.8h-10.8z"/><path class="st0" d="M326.1 173.4h-10.9v10.9h.9l10-9.9zm-32.6 0h10.8v10.8h-10.8z"/><path class="st3" d="M293.5 162.6h10.8v10.8h-10.8z"/><path class="st0" d="M304.4 162.6h10.8v10.8h-10.8z"/><path class="st3" d="M315.2 162.6H326v10.8h-10.8zm-10.8-10.9h10.8v10.8h-10.8z"/><path class="st0" d="M315.2 151.7H326v10.8h-10.8zm-21.7 0h10.8v10.8h-10.8z"/><path class="st3" d="M293.5 140.9h10.8v10.8h-10.8z"/><path class="st0" d="M304.4 140.9h10.8v10.8h-10.8z"/><path class="st3" d="M315.2 140.9H326v10.8h-10.8zM304.4 130h10.8v10.8h-10.8z"/><path class="st0" d="M315.2 130H326v10.8h-10.8zm-21.7 0h10.8v10.8h-10.8z"/><path class="st3" d="M293.5 119.2h10.8V130h-10.8z"/><path class="st0" d="M304.4 119.2h10.8V130h-10.8z"/><path class="st3" d="M315.2 119.2H326V130h-10.8zm-10.8-11h10.8V119h-10.8z"/><path class="st0" d="M315.2 108.2H326V119h-10.8zm-21.7 0h10.8V119h-10.8z"/><path class="st3" d="M293.5 97.4h10.8v10.8h-10.8z"/><path class="st0" d="M304.4 97.4h10.8v10.8h-10.8z"/><path class="st3" d="M315.2 97.4H326v10.8h-10.8zm-10.8-10.9h10.8v10.8h-10.8z"/><path class="st0" d="M326.1 86.9v-.4h-10.9v10.9h10.9zm-32.6 0v10.5h10.9V86.5h-10.9z"/><path class="st3" d="M293.5 86.5h10.9V75.7h-10.9V65.2h-10.8v10.9h10.8z"/><path class="st0" d="M304.4 75.7h10.8v10.8h-10.8z"/><path class="st3" d="M326.1 76.1h10.8V65.2h-10.8v10.5h-10.9v10.8h10.9zm-21.7-10.9h10.8v10.5h-10.8z"/><path class="st0" d="M315.2 65.2H326v10.5h-10.8zm-21.7 0h10.8v10.5h-10.8z"/><path class="st3" d="M293.5 64.8v.4h10.9V54.4h-10.9z"/><path class="st0" d="M315.2 64.8V54.4h-10.8v10.8h10.8z"/><path class="st3" d="M326.1 64.8V54.4h-10.9v10.8h10.9zm-21.7-21.3h10.8v10.8h-10.8z"/><path class="st0" d="M315.2 43.5H326v10.8h-10.8zm-21.7 0h10.8v10.8h-10.8z"/><path class="st3" d="M293.5 32.7h10.8v10.8h-10.8z"/><path class="st0" d="M304.4 32.7h10.8v10.8h-10.8z"/><path class="st3" d="M315.2 32.7H326v10.8h-10.8zm-10.8-11h10.8v10.8h-10.8z"/><path class="st0" d="M315.2 21.7H326v10.8h-10.8zm-21.7 0h10.8v10.8h-10.8z"/><path class="st3" d="M293.5 10.8h10.8v10.8h-10.8z"/><path class="st0" d="M304.4 10.8h10.8v10.8h-10.8z"/><path class="st3" d="M315.2 10.8H326v10.8h-10.8zM304.4 0h10.8v10.8h-10.8z"/><path class="st0" d="M315.2 0H326v10.8h-10.8zm-21.7 0h10.8v10.8h-10.8z"/><path class="st3" d="M326.1 0h10.8v10.8h-10.8z"/><path class="st0" d="M336.9 0h10.8v10.8h-10.8z"/><path class="st3" d="M347.9 0h10.8v10.8h-10.8zm-11 10.8h10.8v10.8h-10.8z"/><path class="st0" d="M347.9 10.8h10.8v10.8h-10.8zm-21.8 0h10.8v10.8h-10.8z"/><path class="st3" d="M326.1 21.7h10.8v10.8h-10.8z"/><path class="st0" d="M336.9 21.7h10.8v10.8h-10.8z"/><path class="st3" d="M347.9 21.7h10.8v10.8h-10.8zm-11 11h10.8v10.8h-10.8z"/><path class="st0" d="M347.9 32.7h10.8v10.8h-10.8zm-21.8 0h10.8v10.8h-10.8z"/><path class="st3" d="M326.1 43.5h10.8v10.8h-10.8z"/><path class="st0" d="M336.9 43.5h10.8v10.8h-10.8z"/><path class="st3" d="M347.9 43.5h10.8v10.8h-10.8zm-11 10.9h10.8v10.8h-10.8z"/><path class="st0" d="M358.7 64.8V54.4h-10.8v10.8h10.8zm-32.6 0v.4h10.8V54.4h-10.8zm10.8.4h10.8V76h-10.8z"/><path class="st3" d="M336.9 76.1h10.8v10.5h-10.8z"/><path class="st0" d="M347.9 76.1h10.8v10.5h-10.8zm-21.8 0h10.8v10.5h-10.8z"/><path class="st3" d="M326.1 86.9v10.5h10.8V86.5h-10.8z"/><path class="st0" d="M336.9 86.9v10.5h10.9V86.5h-10.9z"/><path class="st3" d="M358.7 86.9v-.4h-10.8v10.9h10.8zm-21.8 10.5h10.8v10.8h-10.8z"/><path class="st0" d="M347.9 97.4h10.8v10.8h-10.8zm-21.8 0h10.8v10.8h-10.8z"/><path class="st3" d="M326.1 108.2h10.8V119h-10.8z"/><path class="st0" d="M336.9 108.2h10.8V119h-10.8z"/><path class="st3" d="M347.9 108.2h10.8V119h-10.8zm-11 11h10.8V130h-10.8z"/><path class="st0" d="M347.9 119.2h10.8V130h-10.8zm-21.8 0h10.8V130h-10.8z"/><path class="st3" d="M326.1 130h10.8v10.8h-10.8z"/><path class="st0" d="M336.9 130h10.8v10.8h-10.8z"/><path class="st3" d="M347.9 130h10.8v10.8h-10.8zm-11 10.9h10.8v10.8h-10.8z"/><path class="st0" d="M358.7 141.7v-.8h-10.8v10.8h.8zm-32.6-.8h10.8v10.8h-10.8z"/><path class="st3" d="M326.1 151.7h10.8v10.8h-10.8z"/><path class="st0" d="M336.9 162.6h.9l10-9.9v-1h-10.9z"/><path class="st3" d="M347.9 151.7v.9l.8-.9zm-11 11.8l.9-.9h-.9z"/><path class="st0" d="M326.1 162.6v10.8h.9l9.9-9.9v-.9z"/><path class="st3" d="M326.1 174.4l.9-1h-.9zm32.6-32.7l.8-.8h-.8zm10.9-10.8l.8-.9h-.8z"/><path class="st0" d="M358.7 130v10.9h.8l10.1-10v-.9h.8l10-10v-.8h-10.8V130z"/><path class="st3" d="M358.7 119.2h10.8V130h-10.8zm22.6 0h-.9v.8zm-11.7-11h10.8V119h-10.8z"/><path class="st0" d="M391.3 108.2h-10.9v10.9h1l9.9-9.9z"/><path class="st3" d="M358.7 97.4h10.8v10.8h-10.8z"/><path class="st0" d="M380.4 108.2V97.4h-10.8V86.5h10.8V75.7h-10.8V65.2h10.8V54.4h-10.8V43.5h10.8V32.7h-10.8v10.8h-10.9v10.9h10.9v10.8h-10.9v10.5h10.9v10.8h-10.9v10.9h10.9v10.8h-10.9v10.9h10.9v-10.9z"/><path class="st3" d="M380.4 97.4h10.8v10.8h-10.8zm-10.8-10.9h10.8v10.8h-10.8z"/><path class="st0" d="M391.3 86.9v-.4h-10.9v10.9h10.9z"/><path class="st3" d="M358.7 86.5h10.9V75.7h-10.9V65.2h-10.8v10.9h10.8zm32.6-10.4h10.8V65.2h-10.8v10.5h-10.9v10.8h10.9zm-21.7-10.9h10.8v10.5h-10.8z"/><path class="st0" d="M380.4 65.2h10.8v10.5h-10.8z"/><path class="st3" d="M358.7 65.2h10.9V54.4h-10.9v10.4zm32.6-10.8h-10.9v10.8h10.9zm-21.7-10.9h10.8v10.8h-10.8z"/><path class="st0" d="M380.4 43.5h10.8v10.8h-10.8z"/><path class="st3" d="M358.7 32.7h10.8v10.8h-10.8zm21.7 0h10.8v10.8h-10.8zm-10.8-11h10.8v10.8h-10.8z"/><path class="st0" d="M380.4 21.7h10.8v10.8h-10.8z"/><path class="st3" d="M358.7 10.8h10.8v10.8h-10.8zm21.7 0h10.8v10.8h-10.8zM369.6 0h10.8v10.8h-10.8z"/><path class="st0" d="M380.4 0h10.8v10.8h-10.8z"/><path class="st0" d="M369.6 10.8v10.9h-10.9v10.8h10.9V21.7h10.8V10.8h-10.8V0h-10.9v10.8z"/><path class="st3" d="M391.3 10.8h10.8V0h-10.8z"/><path class="st0" d="M402.1 0h10.8v10.8h-10.8z"/><path class="st3" d="M413.1 0h10.8v10.8h-10.8zm-11 10.8h10.8v10.8h-10.8z"/><path class="st0" d="M413.1 10.8h10.8v10.8h-10.8zm-21.8 10.9h10.8V10.8h-10.8z"/><path class="st3" d="M391.3 21.7v10.8h10.8V21.7z"/><path class="st0" d="M402.1 21.7h10.8v10.8h-10.8z"/><path class="st3" d="M413.1 21.7h10.8v10.8h-10.8zm-11 11h10.8v10.8h-10.8z"/><path class="st0" d="M413.1 32.7h10.8v10.8h-10.8zm-21.8 10.8h10.8V32.7h-10.8z"/><path class="st3" d="M391.3 54.4h10.8V43.5h-10.8z"/><path class="st0" d="M402.1 43.5h10.8v10.8h-10.8z"/><path class="st3" d="M413.1 43.5h10.8v10.8h-10.8zm-11 10.9h10.8v10.8h-10.8z"/><path class="st0" d="M423.9 64.8V54.4h-10.8v10.8h10.8zm-32.6-10.4v10.8h10.8V54.4zm10.8 10.8h10.8V76h-10.8z"/><path class="st3" d="M402.1 76.1h10.8v10.5h-10.8z"/><path class="st0" d="M423.9 76.6v-.5h-10.8v10.4h.9zm-32.6-.5v10.4h10.8V76.1z"/><path class="st3" d="M391.3 86.5v10.9h10.8V86.5z"/><path class="st0" d="M402.1 86.9v10.5h1l9.9-9.9v-1h-10.9z"/><path class="st3" d="M414 86.5h-.9v.9zm-11.9 11.9l1-1h-1z"/><path class="st0" d="M391.3 97.4v10.8h.9l9.9-9.8v-1z"/><path class="st3" d="M391.3 108.2v1l.9-1zm32.6-31.6l.9-.9h-.9V65.2h-10.8v10.9h10.8zm10.9-10.9l.5-.5h-.5z"/><path class="st0" d="M423.9 65.2v10.5h.9l10-10v-.5z"/><path class="st3" d="M434.8 64.8V54.4h-10.9v10.8h10.9z"/><path class="st0" d="M434.8 54.4v10.8h.5l10.3-10.3v-.5z"/><path class="st3" d="M445.6 54.9l.6-.5h-.6zm-10.8-11.4h10.8v10.8h-10.8z"/><path class="st0" d="M445.6 43.5v10.9h.6l10.3-10.3v-.6zm-21.7 0h10.8v10.8h-10.8z"/><path class="st3" d="M423.9 32.7h10.8v10.8h-10.8z"/><path class="st0" d="M434.8 32.7h10.8v10.8h-10.8z"/><path class="st3" d="M445.6 32.7h10.8v10.8h-10.8zm-10.8-11h10.8v10.8h-10.8z"/><path class="st0" d="M445.6 21.7h10.8v10.8h-10.8zm-21.7 0h10.8v10.8h-10.8z"/><path class="st3" d="M423.9 10.8h10.8v10.8h-10.8z"/><path class="st0" d="M434.8 10.8h10.8v10.8h-10.8z"/><path class="st3" d="M445.6 10.8h10.8v10.8h-10.8zM434.8 0h10.8v10.8h-10.8z"/><path class="st0" d="M445.6 0h10.8v10.8h-10.8zm-21.7 0h10.8v10.8h-10.8z"/><path class="st3" d="M456.5 0h10.8v10.8h-10.8zm21.8 0h10.8v10.8h-10.8zm-11 10.8h10.8v10.8h-10.8z"/><path class="st0" d="M489.2 11.4v-.6h-10.9v10.9h.6z"/><path class="st3" d="M456.5 21.7h10.8v10.8h-10.8z"/><path class="st0" d="M478.2 21.7h-10.9V10.8h10.9V0h-10.9v10.8h-10.8v10.9h10.8v10.8h.7l10.2-10.1z"/><path class="st3" d="M478.3 21.7v.6l.6-.6zm-10.4 11h-.6v.5z"/><path class="st0" d="M457 43.5l10.3-10.3v-.5h-10.8v10.8z"/><path class="st3" d="M456.5 44.1l.5-.6h-.5zm32.7-33.3v.6l.5-.6z"/><path class="st0" d="M489.2 10.8h.5L500 .6V0h-10.8z"/><path class="st4" d="M131.2 186.5L61 256.7l-7.2-7.2c-2.3-2.3-2.3-6.1 0-8.5l66-66c2.3-2.3 6.1-2.3 8.5 0l3 3c2.2 2.3 2.2 6.1-.1 8.5z"/><path class="st4" d="M60.9 233.8l70.2 70.2c2.3 2.3 2.3 6.1 0 8.5l-3 3c-2.3 2.3-6.1 2.3-8.5 0l-66-66c-2.3-2.3-2.3-6.1 0-8.5l7.3-7.2zM391 175l66 66c2.3 2.3 2.3 6.1 0 8.5l-7.2 7.2-70.2-70.2c-2.3-2.3-2.3-6.1 0-8.5l3-3c2.3-2.3 6.1-2.3 8.4 0z"/><path class="st4" d="M457.1 249.5l-66 66c-2.3 2.3-6.1 2.3-8.5 0l-3-3c-2.3-2.3-2.3-6.1 0-8.5l70.2-70.2 7.2 7.2c2.4 2.4 2.4 6.2.1 8.5z"/><path class="st5" d="M344.3 499.8H176.9V129.5h167.4v370.3z"/><path class="st6" d="M210.9 442.8h-1.3c-.8 0-1.4-.6-1.4-1.4 0-.8.6-1.4 1.4-1.4h1.3c.8 0 1.4.6 1.4 1.4 0 .8-.7 1.4-1.4 1.4z"/><path class="st7" d="M224 442.8h-8.1c-.8 0-1.4-.6-1.4-1.4 0-.8.6-1.4 1.4-1.4h8.1c.8 0 1.4.6 1.4 1.4 0 .8-.6 1.4-1.4 1.4zm3.2 5.7h-8.1c-.8 0-1.4-.6-1.4-1.4 0-.8.6-1.4 1.4-1.4h8.1c.8 0 1.4.6 1.4 1.4 0 .8-.6 1.4-1.4 1.4zm0 5.3h-8.1c-.8 0-1.4-.6-1.4-1.4 0-.8.6-1.4 1.4-1.4h8.1c.8 0 1.4.6 1.4 1.4 0 .8-.6 1.4-1.4 1.4z"/><path class="st6" d="M210.9 459.4h-1.3c-.8 0-1.4-.6-1.4-1.4 0-.8.6-1.4 1.4-1.4h1.3c.8 0 1.4.6 1.4 1.4 0 .7-.7 1.4-1.4 1.4z"/><path class="st7" d="M227.2 459.4H216c-.8 0-1.4-.6-1.4-1.4 0-.8.6-1.4 1.4-1.4h11.2c.8 0 1.4.6 1.4 1.4 0 .7-.6 1.4-1.4 1.4zm2.6 5.7h-10.7c-.8 0-1.4-.6-1.4-1.4 0-.8.6-1.4 1.4-1.4h10.7c.8 0 1.4.6 1.4 1.4 0 .7-.6 1.4-1.4 1.4zm-5.9 5.3h-4.8c-.8 0-1.4-.6-1.4-1.4 0-.8.6-1.4 1.4-1.4h4.8c.8 0 1.4.6 1.4 1.4 0 .7-.6 1.4-1.4 1.4z"/><path class="st8" d="M210.9 476.3h-1.3c-.8 0-1.4-.6-1.4-1.4 0-.8.6-1.4 1.4-1.4h1.3c.8 0 1.4.6 1.4 1.4 0 .8-.7 1.4-1.4 1.4z"/><path class="st7" d="M223.6 476.3H216c-.8 0-1.4-.6-1.4-1.4 0-.8.6-1.4 1.4-1.4h7.6c.8 0 1.4.6 1.4 1.4 0 .8-.7 1.4-1.4 1.4z"/><path class="st9" d="M203.3 499.8h-31.7V129.5h31.7v370.3z"/><path class="st5" d="M195.6 285.7h-1.3c-.8 0-1.4-.6-1.4-1.4 0-.8.6-1.4 1.4-1.4h1.3c.8 0 1.4.6 1.4 1.4 0 .7-.6 1.4-1.4 1.4zm0 5.7h-1.3c-.8 0-1.4-.6-1.4-1.4 0-.8.6-1.4 1.4-1.4h1.3c.8 0 1.4.6 1.4 1.4 0 .8-.6 1.4-1.4 1.4zm0 5.3h-1.3c-.8 0-1.4-.6-1.4-1.4 0-.8.6-1.4 1.4-1.4h1.3c.8 0 1.4.6 1.4 1.4 0 .7-.6 1.4-1.4 1.4zm0 5.5h-1.3c-.8 0-1.4-.6-1.4-1.4 0-.8.6-1.4 1.4-1.4h1.3c.8 0 1.4.6 1.4 1.4 0 .8-.6 1.4-1.4 1.4zm0 5.7h-1.3c-.8 0-1.4-.6-1.4-1.4 0-.8.6-1.4 1.4-1.4h1.3c.8 0 1.4.6 1.4 1.4 0 .8-.6 1.4-1.4 1.4zm0 5.3h-1.3c-.8 0-1.4-.6-1.4-1.4 0-.8.6-1.4 1.4-1.4h1.3c.8 0 1.4.6 1.4 1.4 0 .8-.6 1.4-1.4 1.4zm0 6h-1.3c-.8 0-1.4-.6-1.4-1.4 0-.8.6-1.4 1.4-1.4h1.3c.8 0 1.4.6 1.4 1.4 0 .7-.6 1.4-1.4 1.4zm0 5.7h-1.3c-.8 0-1.4-.6-1.4-1.4 0-.8.6-1.4 1.4-1.4h1.3c.8 0 1.4.6 1.4 1.4 0 .7-.6 1.4-1.4 1.4zm0 5.2h-1.3c-.8 0-1.4-.6-1.4-1.4 0-.8.6-1.4 1.4-1.4h1.3c.8 0 1.4.6 1.4 1.4 0 .8-.6 1.4-1.4 1.4zm0 5.6h-1.3c-.8 0-1.4-.6-1.4-1.4 0-.8.6-1.4 1.4-1.4h1.3c.8 0 1.4.6 1.4 1.4 0 .8-.6 1.4-1.4 1.4zm0 5.7h-1.3c-.8 0-1.4-.6-1.4-1.4 0-.8.6-1.4 1.4-1.4h1.3c.8 0 1.4.6 1.4 1.4 0 .8-.6 1.4-1.4 1.4zm0 5.3h-1.3c-.8 0-1.4-.6-1.4-1.4 0-.8.6-1.4 1.4-1.4h1.3c.8 0 1.4.6 1.4 1.4 0 .8-.6 1.4-1.4 1.4zm0 5.2h-1.3c-.8 0-1.4-.6-1.4-1.4 0-.8.6-1.4 1.4-1.4h1.3c.8 0 1.4.6 1.4 1.4 0 .8-.6 1.4-1.4 1.4zm0 5.7h-1.3c-.8 0-1.4-.6-1.4-1.4 0-.8.6-1.4 1.4-1.4h1.3c.8 0 1.4.6 1.4 1.4 0 .8-.6 1.4-1.4 1.4zm0 5.3h-1.3c-.8 0-1.4-.6-1.4-1.4 0-.8.6-1.4 1.4-1.4h1.3c.8 0 1.4.6 1.4 1.4 0 .8-.6 1.4-1.4 1.4zm0 5.6h-1.3c-.8 0-1.4-.6-1.4-1.4 0-.8.6-1.4 1.4-1.4h1.3c.8 0 1.4.6 1.4 1.4 0 .7-.6 1.4-1.4 1.4zm0 5.7h-1.3c-.8 0-1.4-.6-1.4-1.4 0-.8.6-1.4 1.4-1.4h1.3c.8 0 1.4.6 1.4 1.4 0 .8-.6 1.4-1.4 1.4zm0 5.3h-1.3c-.8 0-1.4-.6-1.4-1.4 0-.8.6-1.4 1.4-1.4h1.3c.8 0 1.4.6 1.4 1.4 0 .7-.6 1.4-1.4 1.4zm0 5.5h-1.3c-.8 0-1.4-.6-1.4-1.4 0-.8.6-1.4 1.4-1.4h1.3c.8 0 1.4.6 1.4 1.4 0 .7-.6 1.4-1.4 1.4zm0 5.7h-1.3c-.8 0-1.4-.6-1.4-1.4 0-.8.6-1.4 1.4-1.4h1.3c.8 0 1.4.6 1.4 1.4 0 .7-.6 1.4-1.4 1.4zm0 5.2h-1.3c-.8 0-1.4-.6-1.4-1.4 0-.8.6-1.4 1.4-1.4h1.3c.8 0 1.4.6 1.4 1.4 0 .8-.6 1.4-1.4 1.4zm0 5.6h-1.3c-.8 0-1.4-.6-1.4-1.4 0-.8.6-1.4 1.4-1.4h1.3c.8 0 1.4.6 1.4 1.4 0 .8-.6 1.4-1.4 1.4zm0 5.7h-1.3c-.8 0-1.4-.6-1.4-1.4 0-.8.6-1.4 1.4-1.4h1.3c.8 0 1.4.6 1.4 1.4 0 .8-.6 1.4-1.4 1.4zm0 5.3h-1.3c-.8 0-1.4-.6-1.4-1.4 0-.8.6-1.4 1.4-1.4h1.3c.8 0 1.4.6 1.4 1.4 0 .8-.6 1.4-1.4 1.4zm0 5.2h-1.3c-.8 0-1.4-.6-1.4-1.4 0-.8.6-1.4 1.4-1.4h1.3c.8 0 1.4.6 1.4 1.4 0 .8-.6 1.4-1.4 1.4zm0 5.7h-1.3c-.8 0-1.4-.6-1.4-1.4 0-.8.6-1.4 1.4-1.4h1.3c.8 0 1.4.6 1.4 1.4 0 .8-.6 1.4-1.4 1.4zm0 5.1h-1.3c-.8 0-1.4-.6-1.4-1.4 0-.8.6-1.4 1.4-1.4h1.3c.8 0 1.4.6 1.4 1.4 0 .7-.6 1.4-1.4 1.4z"/><path class="st7" d="M218.3 285.7h-7.9c-.8 0-1.4-.6-1.4-1.4 0-.8.6-1.4 1.4-1.4h7.9c.8 0 1.4.6 1.4 1.4 0 .7-.6 1.4-1.4 1.4z"/><path class="st10" d="M232.6 291.4H216c-.8 0-1.4-.6-1.4-1.4 0-.8.6-1.4 1.4-1.4h16.6c.8 0 1.4.6 1.4 1.4 0 .8-.6 1.4-1.4 1.4zm14.4 5.3h-31c-.8 0-1.4-.6-1.4-1.4 0-.8.6-1.4 1.4-1.4h31c.8 0 1.4.6 1.4 1.4 0 .7-.6 1.4-1.4 1.4zm-11.4 5.5H216c-.8 0-1.4-.6-1.4-1.4 0-.8.6-1.4 1.4-1.4h19.6c.8 0 1.4.6 1.4 1.4 0 .8-.6 1.4-1.4 1.4z"/><path class="st7" d="M218.3 307.9h-7.8c-.8 0-1.4-.6-1.4-1.4 0-.8.6-1.4 1.4-1.4h7.8c.8 0 1.4.6 1.4 1.4 0 .8-.6 1.4-1.4 1.4zm0 11.3h-7.8c-.8 0-1.4-.6-1.4-1.4 0-.8.6-1.4 1.4-1.4h7.8c.8 0 1.4.6 1.4 1.4 0 .7-.6 1.4-1.4 1.4z"/><path class="st11" d="M223.8 324.9H216c-.8 0-1.4-.6-1.4-1.4 0-.8.6-1.4 1.4-1.4h7.8c.8 0 1.4.6 1.4 1.4 0 .7-.6 1.4-1.4 1.4z"/><path class="st12" d="M232.1 330.1h-10.8c-.8 0-1.4-.6-1.4-1.4 0-.8.6-1.4 1.4-1.4h10.8c.8 0 1.4.6 1.4 1.4 0 .8-.6 1.4-1.4 1.4zm27.3 5.6h-38.1c-.8 0-1.4-.6-1.4-1.4 0-.8.6-1.4 1.4-1.4h38.1c.8 0 1.4.6 1.4 1.4 0 .8-.6 1.4-1.4 1.4zm-18.3 5.7h-19.8c-.8 0-1.4-.6-1.4-1.4 0-.8.6-1.4 1.4-1.4h19.8c.8 0 1.4.6 1.4 1.4 0 .8-.6 1.4-1.4 1.4z"/><path class="st11" d="M223.6 346.7h-7.8c-.8 0-1.4-.6-1.4-1.4 0-.8.6-1.4 1.4-1.4h7.8c.8 0 1.4.6 1.4 1.4 0 .8-.6 1.4-1.4 1.4z"/><path class="st7" d="M218.5 351.9h-7.8c-.8 0-1.4-.6-1.4-1.4 0-.8.6-1.4 1.4-1.4h7.8c.8 0 1.4.6 1.4 1.4 0 .8-.6 1.4-1.4 1.4zm0 11h-7.8c-.8 0-1.4-.6-1.4-1.4 0-.8.6-1.4 1.4-1.4h7.8c.8 0 1.4.6 1.4 1.4 0 .8-.6 1.4-1.4 1.4z"/><path class="st12" d="M228.5 368.5h-12.7c-.8 0-1.4-.6-1.4-1.4 0-.8.6-1.4 1.4-1.4h12.7c.8 0 1.4.6 1.4 1.4 0 .7-.6 1.4-1.4 1.4zm-2.5 5.7h-10.1c-.8 0-1.4-.6-1.4-1.4 0-.8.6-1.4 1.4-1.4H226c.8 0 1.4.6 1.4 1.4 0 .8-.7 1.4-1.4 1.4z"/><path class="st7" d="M218.5 379.5h-7.8c-.8 0-1.4-.6-1.4-1.4 0-.8.6-1.4 1.4-1.4h7.8c.8 0 1.4.6 1.4 1.4 0 .7-.6 1.4-1.4 1.4zm.3 11.2H211c-.8 0-1.4-.6-1.4-1.4 0-.8.6-1.4 1.4-1.4h7.8c.8 0 1.4.6 1.4 1.4 0 .7-.6 1.4-1.4 1.4z"/><path class="st11" d="M223.9 396.2h-7.8c-.8 0-1.4-.6-1.4-1.4 0-.8.6-1.4 1.4-1.4h7.8c.8 0 1.4.6 1.4 1.4 0 .8-.6 1.4-1.4 1.4z"/><path class="st12" d="M231.7 401.9h-10.1c-.8 0-1.4-.6-1.4-1.4 0-.8.6-1.4 1.4-1.4h10.1c.8 0 1.4.6 1.4 1.4.1.8-.6 1.4-1.4 1.4zm19.3 5.3h-29.4c-.8 0-1.4-.6-1.4-1.4 0-.8.6-1.4 1.4-1.4H251c.8 0 1.4.6 1.4 1.4 0 .8-.6 1.4-1.4 1.4zm-7.9 5.3h-21.5c-.8 0-1.4-.6-1.4-1.4 0-.8.6-1.4 1.4-1.4h21.5c.8 0 1.4.6 1.4 1.4.1.8-.6 1.4-1.4 1.4z"/><path class="st13" d="M229.4 417.7h-7.8c-.8 0-1.4-.6-1.4-1.4 0-.8.6-1.4 1.4-1.4h7.8c.8 0 1.4.6 1.4 1.4 0 .8-.6 1.4-1.4 1.4z"/><path class="st7" d="M259.7 423h-33.4c-.8 0-1.4-.6-1.4-1.4 0-.8.6-1.4 1.4-1.4h33.4c.8 0 1.4.6 1.4 1.4 0 .8-.6 1.4-1.4 1.4zm8.2 5.5h-41.2c-.8 0-1.4-.6-1.4-1.4 0-.8.6-1.4 1.4-1.4h41.2c.8 0 1.4.6 1.4 1.4 0 .7-.6 1.4-1.4 1.4z"/><path class="st14" d="M349.6 499.8h-38.5V129.5h38.5v370.3z"/><path class="st9" d="M311.1 129.5h5.1v370h-5.1z"/><path class="st7" d="M323.8 190.3H320c-.8 0-1.4-.6-1.4-1.4 0-.8.6-1.4 1.4-1.4h3.7c.8 0 1.4.6 1.4 1.4.1.8-.6 1.4-1.3 1.4z"/><path class="st8" d="M210.9 482h-1.3c-.8 0-1.4-.6-1.4-1.4 0-.8.6-1.4 1.4-1.4h1.3c.8 0 1.4.6 1.4 1.4 0 .8-.7 1.4-1.4 1.4z"/><path class="st7" d="M227.9 482h-12c-.8 0-1.4-.6-1.4-1.4 0-.8.6-1.4 1.4-1.4h12c.8 0 1.4.6 1.4 1.4 0 .8-.6 1.4-1.4 1.4z"/><path class="st8" d="M210.9 487.3h-1.3c-.8 0-1.4-.6-1.4-1.4 0-.8.6-1.4 1.4-1.4h1.3c.8 0 1.4.6 1.4 1.4 0 .8-.7 1.4-1.4 1.4z"/><path class="st7" d="M220 487.3h-4.1c-.8 0-1.4-.6-1.4-1.4 0-.8.6-1.4 1.4-1.4h4.1c.8 0 1.4.6 1.4 1.4 0 .8-.6 1.4-1.4 1.4z"/><path class="st14" d="M224 435.8h-8.1c-.8 0-1.4-.6-1.4-1.4 0-.8.6-1.4 1.4-1.4h8.1c.8 0 1.4.6 1.4 1.4 0 .8-.6 1.4-1.4 1.4z"/><path class="st10" d="M329.3 196h-4.4c-.8 0-1.4-.6-1.4-1.4 0-.8.6-1.4 1.4-1.4h4.4c.8 0 1.4.6 1.4 1.4 0 .8-.7 1.4-1.4 1.4zm2.3 5.3h-6.4c-.8 0-1.4-.6-1.4-1.4 0-.8.6-1.4 1.4-1.4h6.4c.8 0 1.4.6 1.4 1.4 0 .8-.6 1.4-1.4 1.4zm-2.7 5.6h-3.7c-.8 0-1.4-.6-1.4-1.4 0-.8.6-1.4 1.4-1.4h3.7c.8 0 1.4.6 1.4 1.4 0 .7-.6 1.4-1.4 1.4zm4.6 5.7h-8.3c-.8 0-1.4-.6-1.4-1.4 0-.8.6-1.4 1.4-1.4h8.3c.8 0 1.4.6 1.4 1.4 0 .8-.6 1.4-1.4 1.4z"/><path class="st7" d="M323.8 223.8H320c-.8 0-1.4-.6-1.4-1.4 0-.8.6-1.4 1.4-1.4h3.7c.8 0 1.4.6 1.4 1.4.1.8-.6 1.4-1.3 1.4z"/><path class="st10" d="M329.3 229.5h-4.4c-.8 0-1.4-.6-1.4-1.4 0-.8.6-1.4 1.4-1.4h4.4c.8 0 1.4.6 1.4 1.4 0 .8-.7 1.4-1.4 1.4zm2 5.3h-6.4c-.8 0-1.4-.6-1.4-1.4 0-.8.6-1.4 1.4-1.4h6.4c.8 0 1.4.6 1.4 1.4 0 .8-.7 1.4-1.4 1.4zm-.4 5.6h-6c-.8 0-1.4-.6-1.4-1.4 0-.8.6-1.4 1.4-1.4h6c.8 0 1.4.6 1.4 1.4 0 .7-.7 1.4-1.4 1.4zm-1.8 5.7h-4c-.8 0-1.4-.6-1.4-1.4 0-.8.6-1.4 1.4-1.4h4c.8 0 1.4.6 1.4 1.4 0 .7-.6 1.4-1.4 1.4zm2.2 5.2h-6.4c-.8 0-1.4-.6-1.4-1.4 0-.8.6-1.4 1.4-1.4h6.4c.8 0 1.4.6 1.4 1.4 0 .8-.7 1.4-1.4 1.4zm-.4 5.3h-6c-.8 0-1.4-.6-1.4-1.4 0-.8.6-1.4 1.4-1.4h6c.8 0 1.4.6 1.4 1.4 0 .7-.7 1.4-1.4 1.4z"/><path class="st7" d="M323.8 267.2H320c-.8 0-1.4-.6-1.4-1.4 0-.8.6-1.4 1.4-1.4h3.7c.8 0 1.4.6 1.4 1.4.1.8-.6 1.4-1.3 1.4z"/><path class="st10" d="M329.3 273.1h-4.4c-.8 0-1.4-.6-1.4-1.4 0-.8.6-1.4 1.4-1.4h4.4c.8 0 1.4.6 1.4 1.4 0 .8-.7 1.4-1.4 1.4zm2.1 5.7H325c-.8 0-1.4-.6-1.4-1.4 0-.8.6-1.4 1.4-1.4h6.4c.8 0 1.4.6 1.4 1.4 0 .8-.6 1.4-1.4 1.4zm-2.5 5.3h-3.7c-.8 0-1.4-.6-1.4-1.4 0-.8.6-1.4 1.4-1.4h3.7c.8 0 1.4.6 1.4 1.4 0 .8-.6 1.4-1.4 1.4z"/><path class="st15" d="M338.8 196h-4.4c-.8 0-1.4-.6-1.4-1.4 0-.8.6-1.4 1.4-1.4h4.4c.8 0 1.4.6 1.4 1.4 0 .8-.6 1.4-1.4 1.4zm-.1 5.3h-2.4c-.8 0-1.4-.6-1.4-1.4 0-.8.6-1.4 1.4-1.4h2.4c.8 0 1.4.6 1.4 1.4 0 .8-.6 1.4-1.4 1.4z"/><path class="st13" d="M338.7 206.9H334c-.8 0-1.4-.6-1.4-1.4 0-.8.6-1.4 1.4-1.4h4.7c.8 0 1.4.6 1.4 1.4 0 .7-.6 1.4-1.4 1.4z"/><path class="st15" d="M338.8 212.6h-.8c-.8 0-1.4-.6-1.4-1.4 0-.8.6-1.4 1.4-1.4h.8c.8 0 1.4.6 1.4 1.4 0 .8-.6 1.4-1.4 1.4zm0 16.9h-5.1c-.8 0-1.4-.6-1.4-1.4 0-.8.6-1.4 1.4-1.4h5.1c.8 0 1.4.6 1.4 1.4 0 .8-.7 1.4-1.4 1.4z"/><path class="st13" d="M338.8 234.8h-3c-.8 0-1.4-.6-1.4-1.4 0-.8.6-1.4 1.4-1.4h3c.8 0 1.4.6 1.4 1.4 0 .8-.6 1.4-1.4 1.4z"/><path class="st15" d="M338.8 240.4h-3.3c-.8 0-1.4-.6-1.4-1.4 0-.8.6-1.4 1.4-1.4h3.3c.8 0 1.4.6 1.4 1.4.1.7-.6 1.4-1.4 1.4z"/><path class="st13" d="M338.8 246.1H334c-.8 0-1.4-.6-1.4-1.4 0-.8.6-1.4 1.4-1.4h4.8c.8 0 1.4.6 1.4 1.4 0 .7-.6 1.4-1.4 1.4z"/><path class="st15" d="M338.8 251.3h-3.3c-.8 0-1.4-.6-1.4-1.4 0-.8.6-1.4 1.4-1.4h3.3c.8 0 1.4.6 1.4 1.4.1.8-.6 1.4-1.4 1.4zm0 5.3h-3.3c-.8 0-1.4-.6-1.4-1.4 0-.8.6-1.4 1.4-1.4h3.3c.8 0 1.4.6 1.4 1.4 0 .7-.6 1.4-1.4 1.4z"/><path class="st13" d="M338.8 273.1h-4.9c-.8 0-1.4-.6-1.4-1.4 0-.8.6-1.4 1.4-1.4h4.9c.8 0 1.4.6 1.4 1.4 0 .8-.6 1.4-1.4 1.4z"/><path class="st15" d="M338.7 278.8h-3.1c-.8 0-1.4-.6-1.4-1.4 0-.8.6-1.4 1.4-1.4h3.1c.8 0 1.4.6 1.4 1.4 0 .8-.6 1.4-1.4 1.4zm0 5.3h-5.1c-.8 0-1.4-.6-1.4-1.4 0-.8.6-1.4 1.4-1.4h5.1c.8 0 1.4.6 1.4 1.4 0 .8-.6 1.4-1.4 1.4z"/><path class="st5" d="M195.6 433.5h-1.3c-.8 0-1.4-.6-1.4-1.4 0-.8.6-1.4 1.4-1.4h1.3c.8 0 1.4.6 1.4 1.4 0 .7-.6 1.4-1.4 1.4zm0 5.7h-1.3c-.8 0-1.4-.6-1.4-1.4 0-.8.6-1.4 1.4-1.4h1.3c.8 0 1.4.6 1.4 1.4 0 .7-.6 1.4-1.4 1.4zm0 5.3h-1.3c-.8 0-1.4-.6-1.4-1.4 0-.8.6-1.4 1.4-1.4h1.3c.8 0 1.4.6 1.4 1.4 0 .7-.6 1.4-1.4 1.4zm0 5.5h-1.3c-.8 0-1.4-.6-1.4-1.4 0-.8.6-1.4 1.4-1.4h1.3c.8 0 1.4.6 1.4 1.4 0 .8-.6 1.4-1.4 1.4zm0 5.7h-1.3c-.8 0-1.4-.6-1.4-1.4 0-.8.6-1.4 1.4-1.4h1.3c.8 0 1.4.6 1.4 1.4 0 .8-.6 1.4-1.4 1.4zm0 5.3h-1.3c-.8 0-1.4-.6-1.4-1.4 0-.8.6-1.4 1.4-1.4h1.3c.8 0 1.4.6 1.4 1.4 0 .8-.6 1.4-1.4 1.4zm0 5.2h-1.3c-.8 0-1.4-.6-1.4-1.4 0-.8.6-1.4 1.4-1.4h1.3c.8 0 1.4.6 1.4 1.4 0 .8-.6 1.4-1.4 1.4zm0 5.7h-1.3c-.8 0-1.4-.6-1.4-1.4 0-.8.6-1.4 1.4-1.4h1.3c.8 0 1.4.6 1.4 1.4 0 .8-.6 1.4-1.4 1.4zm0 5.1h-1.3c-.8 0-1.4-.6-1.4-1.4 0-.8.6-1.4 1.4-1.4h1.3c.8 0 1.4.6 1.4 1.4 0 .7-.6 1.4-1.4 1.4z"/><path class="st10" d="M329.5 289.4h-4.4c-.8 0-1.4-.6-1.4-1.4 0-.8.6-1.4 1.4-1.4h4.4c.8 0 1.4.6 1.4 1.4.1.7-.6 1.4-1.4 1.4zm2 5.2h-6.4c-.8 0-1.4-.6-1.4-1.4 0-.8.6-1.4 1.4-1.4h6.4c.8 0 1.4.6 1.4 1.4.1.8-.6 1.4-1.4 1.4zm-.3 5.6h-6c-.8 0-1.4-.6-1.4-1.4 0-.8.6-1.4 1.4-1.4h6c.8 0 1.4.6 1.4 1.4 0 .8-.7 1.4-1.4 1.4z"/><path class="st15" d="M339.1 289.4H334c-.8 0-1.4-.6-1.4-1.4 0-.8.6-1.4 1.4-1.4h5.1c.8 0 1.4.6 1.4 1.4 0 .7-.7 1.4-1.4 1.4z"/><path class="st13" d="M339.1 294.6h-3c-.8 0-1.4-.6-1.4-1.4 0-.8.6-1.4 1.4-1.4h3c.8 0 1.4.6 1.4 1.4 0 .8-.6 1.4-1.4 1.4z"/><path class="st15" d="M339.1 300.2h-3.3c-.8 0-1.4-.6-1.4-1.4 0-.8.6-1.4 1.4-1.4h3.3c.8 0 1.4.6 1.4 1.4 0 .8-.6 1.4-1.4 1.4z"/><path class="st0" d="M349.6 188.9l-178 171.2V125c0-5 4-9 9-9h160c5 0 9 4 9 9v63.9z"/><path class="st16" d="M286.7 213.1c-10.5 1.4-20.7 1-29.4-5.3-19.9-14.3-52.9-18.5-85.7-12V125c0-5 4-9 9-9h160c5 0 9 4 9 9v25.3l-62.9 62.8z"/><path class="st4" d="M276.3 184.8h-31.5c-2.3 0-4.2-1.9-4.2-4.2 0-2.3 1.9-4.2 4.2-4.2h31.5c2.3 0 4.2 1.9 4.2 4.2.1 2.3-1.8 4.2-4.2 4.2zm39.1-58h-22c-1.2 0-2.2-1-2.2-2.2 0-1.2 1-2.2 2.2-2.2h22c1.2 0 2.2 1 2.2 2.2 0 1.2-1 2.2-2.2 2.2zm-36.2 0h-16c-1.2 0-2.2-1-2.2-2.2 0-1.2 1-2.2 2.2-2.2h16c1.2 0 2.2 1 2.2 2.2 0 1.2-1 2.2-2.2 2.2zm54-7h5.3c1.2 0 2.2 1 2.2 2.2v5.3c0 1.2-1 2.2-2.2 2.2h-5.3c-1.2 0-2.2-1-2.2-2.2V122c.1-1.2 1-2.2 2.2-2.2z"/><path class="st17" d="M251.4 260.5h-63.7c-2.8 0-5-2.2-5-5v-26.3c0-2.8 2.2-5 5-5h63.7c2.8 0 5 2.2 5 5v26.3c0 2.8-2.2 5-5 5z"/><path class="st4" d="M235.9 263.8h-46.1c-2.8 0-5-2.2-5-5v-26.3c0-2.8 2.2-5 5-5h63.7c2.8 0 5 2.2 5 5v8.7l-22.6 22.6z"/><circle class="st16" cx="221.7" cy="269.7" r="2.2"/><circle class="st4" cx="213.4" cy="269.7" r="2.2"/><path class="st16" d="M230.4 267.5c.5 0 1 .2 1.4.5l-3.1 3.1c-.3-.4-.5-.9-.5-1.4 0-1.2 1-2.2 2.2-2.2z"/><path class="st4" d="M250.4 284.3c-44.5 2-79.8 2.8-78.8 10.5v65.3l78.8-75.8z"/><path class="st16" d="M171.6 328.1v-33.3c-.7 3.3 9.2 5.9 25.2 8.1l-25.2 25.2z"/><path class="st4" d="M251.5 126.8h-11c-.8 0-1.5-1-1.5-2.2 0-1.2.7-2.2 1.5-2.2h11c.8 0 1.5 1 1.5 2.2 0 1.2-.7 2.2-1.5 2.2zm-56 20.6c-1.8-6.2.9-10.5 5.3-11.7s8.9 1 10.6 7.2c1.8 6.2.4 14.9-4 16.1-4.4 1.2-10.1-5.4-11.9-11.6zm12.1 12.2s-.5 4-1.5 5 7.8-2.9 6.3-2.9c-1.8.2-3-.8-4.8-2.1z"/><path class="st18" d="M209.8 165s-1.5 3.4-1.1 5.4 5.1 0 6.4 2.1c1.2 2.1-.6 3.4 0 5 .5 1.6 3.2 1.3 3.5 3.8"/><path class="st19" d="M229 149.8c-.1-5.4-3.2-8.2-7-8.2s-6.9 2.9-6.8 8.3c.1 5.4 3.2 12 7.1 12 3.8.1 6.8-6.6 6.7-12.1zm-6.7 12.8s1.4 3.1 2.4 3.7c1 .6-6.9-.5-5.8-.8 1.5-.4 2.2-1.4 3.4-2.9z"/><path class="st20" d="M221.7 167.4s2 2.4 2.1 4.1-4.1 1.2-4.6 3.2 1.3 2.6 1.2 4-2.2 1.8-1.9 3.9"/><path class="st21" d="M192.5 169.6c-2.9-3.8-2.3-7.5.4-9.5 2.7-2.1 6.4-1.7 9.3 2.1 2.9 3.8 4.3 10.2 1.6 12.2-2.6 2.1-8.4-1-11.3-4.8zm11.7 5.2s.7 2.9.3 3.9 4.6-4.1 3.6-3.7c-1.2.5-2.3.2-3.9-.2z"/><path class="st20" d="M207.2 177.9s-.1 2.8.7 4 3.6-1.4 5-.3c1.4 1.2.6 2.5 1.4 3.5s2.5.1 3.5 1.7"/><path class="st19" d="M330.8 142.6l-.9 1c-.2.2-.3.6-.2.9l.3 1.3c.2.8-.6 1.5-1.4 1.2l-1.2-.5c-.3-.1-.6-.1-.9.1l-1.1.7c-.7.4-1.6-.1-1.5-.9l.1-1.3c0-.3-.1-.7-.3-.9l-1-.9c-.6-.5-.4-1.6.4-1.7l1.3-.3c.3-.1.6-.3.7-.6l.5-1.2c.3-.8 1.4-.8 1.8-.1l.7 1.1c.2.3.5.5.8.5l1.3.1c.8-.1 1.2.9.6 1.5z"/><path class="st4" d="M298.9 150.5l2.6-3.1c.2-.3.3-.6.2-.9l-1.1-3.9c-.2-.8.6-1.5 1.3-1.2l3.7 1.5c.3.1.7.1.9-.1l3.4-2.2c.7-.5 1.6.1 1.5.9l-.3 4c0 .3.1.6.4.9l3.2 2.5c.6.5.4 1.6-.4 1.8l-3.9 1c-.3.1-.6.3-.7.6l-1.4 3.8c-.3.8-1.3.9-1.8.2l-2.1-3.4c-.2-.3-.5-.5-.8-.5l-4-.2c-.8-.1-1.2-1-.7-1.7z"/><path class="st21" d="M331 162.2l-.4 1c-.1.3-.1.7.1.9l.6.9c.5.7-.1 1.6-.9 1.5l-1.1-.1c-.3 0-.6.1-.9.4l-.7.9c-.5.6-1.6.4-1.7-.4l-.3-1.1c-.1-.3-.3-.6-.6-.7l-1-.4c-.8-.3-.9-1.4-.2-1.8l.9-.6c.3-.2.5-.5.5-.8l.1-1.1c0-.8 1-1.2 1.6-.7l.8.7c.3.2.6.3.9.2l1.1-.3c.8 0 1.5.8 1.2 1.5z"/><path class="st18" d="M295.1 194.9s-3.2-28 6.5-39.2"/><path class="st20" d="M322.3 147.3s-19.4 13-23.6 40.5m5.5-5.1s6.5-10.2 17.3-15.3"/><path class="st0" d="M349.6 499.8V349.1l-178 150.7z"/><path class="st4" d="M256.4 452.9H227l2.6-2.2h26.8c.6 0 1.1.5 1.1 1.1 0 .6-.4 1.1-1.1 1.1zm-16.3 6.8h-21.2l2.6-2.2h18.6c.6 0 1.1.5 1.1 1.1 0 .6-.5 1.1-1.1 1.1zm23.8 0h-17.4c-.6 0-1.1-.5-1.1-1.1 0-.6.5-1.1 1.1-1.1h17.4c.6 0 1.1.5 1.1 1.1 0 .6-.5 1.1-1.1 1.1zm-14 6.7h-37.4c-.4 0-.7-.2-.9-.5l2-1.7h36.3c.6 0 1.1.5 1.1 1.1 0 .6-.5 1.1-1.1 1.1zm-20 6h-17.4c-.6 0-1.1-.5-1.1-1.1 0-.6.5-1.1 1.1-1.1h17.4c.6 0 1.1.5 1.1 1.1 0 .6-.5 1.1-1.1 1.1z"/><circle class="st17" cx="288.9" cy="450.7" r="13.8"/><circle class="st4" cx="291.7" cy="452.9" r="13.8"/><path class="st4" d="M263.3 472.4h-26.4c-.9 0-1.7-.5-1.7-1.1 0-.6.7-1.1 1.7-1.1h26.4c.9 0 1.7.5 1.7 1.1 0 .6-.7 1.1-1.7 1.1z"/><path class="st17" d="M332.2 452.2L326 446c-.2-.2 0-.7.4-1.2.4-.4.9-.6 1.2-.4l6.2 6.2c.2.2 0 .7-.4 1.2-.5.4-1 .6-1.2.4z"/><path class="st17" d="M326.4 457.1c-.4-.4-.6-.9-.4-1.2l6.2-6.2c.2-.2.7 0 1.2.4.4.4.6.9.4 1.2l-6.2 6.2c-.2.2-.7.1-1.2-.4z"/><path class="st4" d="M333.3 452.8l-6.2-6.2c-.2-.2 0-.7.4-1.2.4-.4.9-.6 1.2-.4l6.2 6.2c.2.2 0 .7-.4 1.2-.5.4-1 .6-1.2.4z"/><path class="st4" d="M327.5 457.8c-.4-.4-.6-.9-.4-1.2l6.2-6.2c.2-.2.7 0 1.2.4.4.4.6.9.4 1.2l-6.2 6.2c-.3.2-.8 0-1.2-.4z"/><path class="st19" d="M271.9 414.9c30.2-.9 75.8 1.4 77.7-8.9v-56.9l-77.7 65.8z"/><path class="st4" d="M328.2 367.2v24.5c0 2.8-2.2 5-5 5h-29.8l34.8-29.5z"/><path d="M16.3 28.3v449.9c0 2.8 2.2 5 5 5h280.4c4.5 0 6.7-5.4 3.5-8.5L24.8 24.8c-3.1-3.1-8.5-.9-8.5 3.5z" opacity=".35" fill="#fff"/><path d="M486.8 167.8L394 13.5c-2-1.9-.6-5.2 2.1-5.2l92.8.5c1.6 0 3 1.3 3 3l.1 153.8c-.1 2.7-3.3 4.1-5.2 2.2z" opacity=".8" fill="#fff"/></svg>