<svg id="Слой_1" xmlns="http://www.w3.org/2000/svg" viewBox="0 0 500 499.507"><style>.st3{fill:#d3bb44}.st4{fill:#ead349}.st6{fill:#212121}.st10{fill:#e8b72d}.st11{fill:#e25a30}.st13{fill:#7c2109}.st14{fill:#f7c23c}.st15{fill:#d8d8d6}.st16{fill:#fff}.st24{fill:#b29e3b}.st25{fill:#bfa741}</style><path fill="#1babea" d="M0-.246h500v500H0z"/><linearGradient id="SVGID_1_" gradientUnits="userSpaceOnUse" x1="-375.105" y1="624.23" x2="-228.22" y2="468.48" gradientTransform="matrix(2.16 0 0 -2.16 975.64 1514.36)"><stop offset="0" stop-opacity=".3"/><stop offset="1" stop-opacity="0"/></linearGradient><path d="M393.03 79.466L103.17 195.46l52.275 52.275h24.281l-71.63 192.683 60.183 59.336H500V185.63L393.03 79.466z" fill="url(#SVGID_1_)"/><path d="M365.805 101.746c-1.769 0-237.399 45.522-237.399 45.522-9.71.805-17.403 11.868-17.403 25.402 0 14.059 8.3 25.455 18.538 25.455.15 0 .297-.01.445-.015l.001.015.098-.018a13.906 13.906 0 0 0 4.128-.797s231.444-44.633 231.593-44.654c12.927-1.783 20.06-10.699 18.538-25.455-1.444-13.985-8.3-25.455-18.54-25.455z" fill="#b5b5b4"/><ellipse class="st3" cx="371.545" cy="115.244" rx="33.433" ry="45.909"/><ellipse class="st3" cx="371.545" cy="355.696" rx="33.433" ry="45.909"/><ellipse class="st4" cx="366.697" cy="116.213" rx="33.433" ry="45.909"/><path d="M363.13 79.233c-.146 0-.291.013-.438.016l-.007-.016-.11.02c-2.243.056-4.427.45-6.524 1.15l-226.064 39.843c19.557 5.926 31.234 19.402 34.226 41.198 6.787 11.634 0 77.565-23.527 121.957C99.252 341.783 97 401.087 97 401.087l236.263-45.47c-8.024-57.06 28.53-116.794 28.53-116.794 17.663-40.536 26.747-62.41 30.313-98.963 0 0 .892-14.649.892-19.614 0-22.651-13.372-41.013-29.867-41.013z" fill="#f9f9f9"/><ellipse class="st4" cx="366.697" cy="356.008" rx="33.433" ry="45.909"/><path class="st6" d="M204.22 298.104l-53.57 11.52a1.393 1.393 0 0 0-1.068 1.652l.435 2.019a1.39 1.39 0 0 0 1.653 1.067l53.135-11.426c.64-.138 1.1-.705 1.1-1.36v-2.112c0-.886-.818-1.546-1.685-1.36zm126.796-23.968l-.337-1.566a1.624 1.624 0 0 0-1.928-1.246l-26.548 5.71a1.624 1.624 0 0 0-1.282 1.586v1.639c0 1.033.955 1.804 1.965 1.587l26.885-5.782a1.623 1.623 0 0 0 1.245-1.928zm-42.724 5.889l-70.44 15.148a1.624 1.624 0 0 0-1.283 1.587v1.638c0 1.034.954 1.805 1.965 1.588l70.44-15.148a1.624 1.624 0 0 0 1.282-1.587v-1.639a1.623 1.623 0 0 0-1.964-1.587z"/><path d="M189.509 364.293c-1.491-12.665 1.184-27.002 6.431-40.413 1.488-3.802 4.475-6.814 8.472-7.655l69.825-14.7c7.603-1.6 14.49 4.745 13.58 12.461-1.224 10.37-2.251 20.993-1.437 31.676l-96.871 18.63z" fill="#1c7ee8"/><path d="M193.864 363.323c-1.358-11.538 1.08-24.601 5.86-36.82 1.355-3.465 4.077-6.208 7.718-6.975l63.617-13.393c6.927-1.459 13.201 4.323 12.372 11.352-1.114 9.449-2.052 19.127-1.31 28.86l-88.257 16.976z" fill="#1778ce"/><path d="M237.233 333.884c-1.828-1.003-3.161-2.786-3.478-4.992-.557-3.88 2.242-7.59 6.25-8.286 4.008-.695 7.71 1.887 8.266 5.767.348 2.425-.614 4.784-2.364 6.382 6.144-.06 11.091 1.556 12.786 4.219 1.497-2.587 2.166-5.439 1.756-8.295-1.186-8.265-10.94-13.438-21.787-11.556-10.847 1.882-18.679 10.106-17.494 18.371.389 2.708 1.702 5.08 3.667 6.985.532-3.44 5.544-6.866 12.398-8.595z" fill="#efefef"/><path class="st6" d="M242.955 347.05c7.098-1.231 12.904-5.18 15.738-10.077-1.694-2.662-6.641-4.278-12.786-4.218 1.75-1.598 2.712-3.956 2.364-6.382-.556-3.88-4.257-6.462-8.266-5.767-4.008.695-6.808 4.405-6.25 8.286.316 2.206 1.65 3.99 3.478 4.992-6.854 1.728-11.866 5.155-12.398 8.596 4.032 3.908 10.827 5.835 18.12 4.57z"/><g id="header"><path class="st10" d="M181.665 182.774l199.73-39.752c.537 4.961.97 16.482-.97 19.391l-200.699 39.752c1.77-7.573 2.02-13.646 1.94-19.391z"/><path class="st11" d="M298.013 159.484l-35.874 7.117a112.26 112.26 0 0 1 0 19.03l35.874-7.105c.66-5.894.634-12.258 0-19.042z"/><path d="M337.765 151.728l-34.37 6.818-1.504.298c.55 6.542.528 12.877 0 19.03l.27-.053 35.604-7.052c.66-5.893.634-12.257 0-19.041zm39.752-7.757l-34.37 6.818-1.504.299a112.25 112.25 0 0 1 0 19.03l.27-.053 35.604-7.053c.66-5.893.634-12.257 0-19.04z" fill="#f4bd31"/><path class="st13" d="M289.287 175.987l-18.422 3.878v-5.585c0-.746.39-1.436 1.03-1.82l6.97-4.764a2.128 2.128 0 0 1 1.553-.252l7.208 1.387a2.123 2.123 0 0 1 1.662 2.072v5.084h-.001z"/><path class="st13" d="M268.926 173.078l10.127-6.444c.344-.22.762-.293 1.16-.204l9.074 1.8v-.969l-9.073-1.8a1.542 1.542 0 0 0-1.161.203l-10.127 6.445v.97"/></g><g id="slaid"><path class="st11" d="M176.817 219.617c-6.307 30.168-16.005 54.435-30.056 77.566l194.882-43.63c13.211-22.163 25.52-48.584 33.935-74.657l-198.76 40.721z"/><path class="st14" d="M169.579 257.93l7.203-6.55c.774-.704 1.975.092 1.63 1.08l-4.584 13.097c-.307.88-1.542.907-1.888.042l-2.62-6.55a1.007 1.007 0 0 1 .259-1.12z"/><path class="st10" d="M168.609 257.93l7.204-6.55c.774-.704 1.975.092 1.63 1.08l-4.584 13.097c-.308.88-1.542.907-1.888.042l-2.62-6.55a1.007 1.007 0 0 1 .258-1.12z"/><path class="st14" d="M354.488 222.125l-7.94 6.102c-.853.656-1.952-.319-1.49-1.321l6.118-13.308a.988.988 0 0 1 1.88.17l1.822 7.205c.108.428-.047.888-.39 1.152z"/><path class="st10" d="M355.458 222.125l-7.94 6.102c-.853.656-1.952-.319-1.49-1.321l6.118-13.308a.988.988 0 0 1 1.88.17l1.821 7.205c.109.428-.046.888-.39 1.152z"/><path class="st15" d="M284.789 246.324c-1.172-5.234 3.736-10.788 10.963-12.407a17.6 17.6 0 0 1 6.063-.304c.145-4.654 4.718-9.18 11.123-10.614 7.227-1.619 14.037 1.311 15.209 6.545.055.247.084.496.113.744 4.934-.227 9.156 2.072 9.984 5.767.971 4.336-3.095 8.939-9.083 10.28-.126.029-.251.046-.377.07l.003.014-29.91 6.7-.01-.04c-6.794 1.088-12.967-1.796-14.078-6.755z"/><path class="st16" d="M289.799 246.077c-.89-3.973 3.45-8.329 9.695-9.728a17.11 17.11 0 0 1 5.217-.367c.227-3.56 4.258-7.122 9.792-8.36 6.245-1.4 12.029.688 12.92 4.66.041.189.06.378.08.567 4.244-.284 7.82 1.379 8.448 4.184.738 3.292-2.86 6.901-8.034 8.06-.108.024-.216.04-.326.062l.002.01-25.844 5.79-.007-.03c-5.861.984-11.1-1.082-11.943-4.848z"/><path d="M236.69 211.47l7.133 9.599a1.146 1.146 0 0 1-.582 1.779l-11.425 3.528c-1.018.314-1.095 1.725-.117 2.148l10.976 4.746c.726.314.924 1.252.386 1.832l-8.13 8.768c-.725.78-.086 2.041.972 1.919l11.878-1.378a1.146 1.146 0 0 1 1.25 1.394l-2.658 11.66c-.237 1.038.947 1.81 1.801 1.174l9.599-7.132a1.146 1.146 0 0 1 1.78.582l3.526 11.425c.315 1.019 1.725 1.095 2.148.117l4.746-10.976a1.147 1.147 0 0 1 1.833-.386l8.767 8.131c.782.724 2.041.086 1.919-.972l-1.378-11.878a1.146 1.146 0 0 1 1.395-1.25l11.659 2.657c1.038.237 1.81-.947 1.175-1.801l-7.132-9.599a1.146 1.146 0 0 1 .581-1.779l11.426-3.527c1.018-.314 1.094-1.725.117-2.148l-10.976-4.746a1.147 1.147 0 0 1-.385-1.832l8.13-8.768c.725-.78.086-2.04-.972-1.919l-11.878 1.378a1.146 1.146 0 0 1-1.25-1.394l2.658-11.66c.236-1.038-.948-1.81-1.802-1.174l-9.599 7.132a1.146 1.146 0 0 1-1.779-.582l-1.586-5.138a1.147 1.147 0 0 0-1.325-.785l-5.114 1.048a1.146 1.146 0 0 0-.822.668l-1.575 3.64a1.147 1.147 0 0 1-1.832.386l-2.948-2.734a1.148 1.148 0 0 0-1.01-.283l-5.074 1.04a1.145 1.145 0 0 0-.909 1.255l.631 5.442a1.146 1.146 0 0 1-1.394 1.25l-11.659-2.657c-1.038-.239-1.81.945-1.174 1.8z" fill="#efa04b"/><path d="M240.64 214.24l6.172 8.306a.992.992 0 0 1-.504 1.54l-9.887 3.052c-.88.272-.947 1.493-.1 1.859l9.497 4.107a.992.992 0 0 1 .334 1.585l-7.036 7.587c-.627.676-.074 1.767.841 1.66l10.279-1.192a.993.993 0 0 1 1.082 1.207l-2.3 10.088c-.205.899.82 1.567 1.559 1.017l8.305-6.171a.992.992 0 0 1 1.54.504l3.052 9.887c.272.88 1.493.947 1.859.1l4.107-9.497a.992.992 0 0 1 1.585-.334l7.587 7.036c.676.626 1.766.074 1.66-.841l-1.192-10.279a.993.993 0 0 1 1.206-1.082l10.089 2.3c.898.205 1.566-.82 1.017-1.56l-6.172-8.304a.992.992 0 0 1 .505-1.54l9.888-3.053c.88-.272.947-1.493.101-1.859l-9.498-4.107a.992.992 0 0 1-.333-1.585l7.036-7.587c.626-.676.073-1.767-.842-1.66l-10.278 1.192a.992.992 0 0 1-1.082-1.206l2.3-10.089c.204-.899-.82-1.567-1.56-1.017l-8.305 6.171a.992.992 0 0 1-1.54-.504l-1.372-4.445c-.15-.488-.814-4.433-1.313-4.33l-3.878.97c-.317.064-.964 3.868-1.092 4.165l-1.362 3.15a.992.992 0 0 1-1.586.334l-2.55-2.366c-.235-.218-2.792-3.409-3.105-3.345l-3.129 1.091c-.504.104.124 3.484.183 3.995l.546 4.709a.993.993 0 0 1-1.206 1.082l-10.088-2.3c-.9-.204-1.569.82-1.02 1.56z" fill="#edb74c"/><ellipse transform="rotate(-101.613 265.871 229.414)" cx="265.871" cy="229.414" rx="16.092" ry="18.507" fill="#efe526"/><path d="M274.553 239.23c-8.9 1.83-17.402-2.961-18.993-10.7-.877-4.27.542-8.54 3.477-11.821-6.75 2.94-10.865 9.534-9.51 16.13 1.59 7.738 10.094 12.53 18.994 10.7 3.99-.819 7.372-2.835 9.757-5.502a18.81 18.81 0 0 1-3.725 1.194z" fill="#f9ec53"/><path class="st15" d="M256.434 241.298c-1.502-6.617-10.127-10.302-19.265-8.228a22.263 22.263 0 0 0-7.095 2.946c-2.691-5.24-10.376-7.93-18.474-6.092-9.138 2.074-15.33 9.119-13.828 15.737.071.313.173.613.276.912-5.763 2.42-9.339 7.34-8.28 12.011 1.245 5.483 8.391 8.535 15.964 6.817.16-.036.31-.084.469-.124l.004.018 37.82-8.582-.011-.052c8.353-2.445 13.842-9.093 12.42-15.363z"/><path class="st16" d="M253.972 242.082c-1.217-5.364-8.595-8.263-16.478-6.475a20.308 20.308 0 0 0-6.136 2.476c-2.256-4.231-8.835-6.331-15.822-4.746-7.884 1.789-13.288 7.588-12.07 12.952.057.254.141.497.226.739-4.985 2.032-8.116 6.073-7.256 9.86 1.009 4.445 7.122 6.848 13.654 5.365.137-.031.268-.073.404-.107l.003.014 32.628-7.404-.01-.041c7.214-2.082 12.01-7.55 10.857-12.633z"/></g><path d="M129.987 120.246c19.557 5.926 31.234 19.402 34.226 41.198 6.787 11.634 0 77.565-23.527 121.957C99.252 341.783 97 401.087 97 401.087l236.263-45.47c-212.68-7.048-83.728-218.413-203.276-235.371z" opacity=".23"/><path class="st16" d="M362.896 329.593c-1.768 0-237.399 45.522-237.399 45.522-9.709.806-17.402 11.869-17.402 25.403 0 14.058 8.299 25.455 18.538 25.455.149 0 .296-.011.445-.016v.016l.099-.019a13.907 13.907 0 0 0 4.127-.797s231.445-44.633 231.593-44.653c12.927-1.783 20.06-10.7 18.538-25.455-1.444-13.985-8.3-25.456-18.539-25.456z"/><path d="M110.222 413.637c3.577 6.72 8.997 11.366 15.441 11.366.15 0 .297-.01.445-.015l.001.015.098-.018a13.906 13.906 0 0 0 4.127-.797s231.445-44.633 231.593-44.654c11.618-1.602 18.97-8.965 18.737-21.148-.021-1.116-272.442 51.493-270.442 55.25z" fill="#f2f2f2"/><path d="M362.896 331.532c-1.684.541-237.399 45.522-237.399 45.522-5.876.488-8.678 3.396-13.641 8.359-.356.356 259.506-50.453 259.69-50.71.223-.311-5.407-4.213-8.65-3.17z" fill="#e5e4e3"/><ellipse class="st24" cx="130.433" cy="161.257" rx="33.433" ry="45.909"/><ellipse class="st25" cx="126.555" cy="162.227" rx="33.433" ry="45.909"/><ellipse class="st24" cx="130.433" cy="401.513" rx="33.433" ry="45.909"/><ellipse class="st25" cx="126.555" cy="401.709" rx="33.433" ry="45.909"/><path d="M270.865 35.4c-2.385 0-4.68 12.763-6.862 12.926a72.01 72.01 0 0 0-5.63.634c-2.131.33-5.108-4.37-6.9-3.864-2.057.58-2.872 6.394-4.403 7.193-1.911.998-3.379 2.16-4.322 3.472-.706.982-4.848-8.825-4.848-7.756 0 .278 2.934 12.188 2.984 12.461.416 2.264 2.528 4.347 5.848 6.064 3.128-3.987 12.747-6.89 24.133-6.89s21.005 2.903 24.133 6.89c3.25-1.68 5.34-3.711 5.819-5.92.07-.32 3.013-12.279 3.013-12.605 0-1.173-3.362 9.33-4.206 8.265-.973-1.23-2.466-2.374-4.38-3.392-1.594-.85-2.864-8.097-4.988-8.752-1.82-.56-4.43 5.443-6.562 5.057a67.388 67.388 0 0 0-6.768-.868c-1.958-.155-3.985-12.915-6.061-12.915z" fill="#d1c70b"/><path d="M270.865 60.609c-2.336 0-4.61 10.488-6.79 10.294a66.67 66.67 0 0 1-6.387-.872c-2.11-.396-4.417-7.885-6.213-8.453-1.728-.545-2.96 5.835-4.334 5.156-3.478-1.72-5.722-3.827-6.218-6.125h-.114l4.847 14.543c2.909 7.757 11.287 9.696 25.209 9.696 13.922 0 23.27-2.909 25.209-9.696l4.847-14.543h-.113c-.497 2.304-2.75 4.415-6.241 6.136-1.28.631-3.692-5.683-5.28-5.167-2.228.725-3.769 8.22-6.483 8.673a68.266 68.266 0 0 1-5.318.667c-2.13.185-4.345-10.31-6.621-10.31z" fill="#f7f71c"/></svg>