<svg id="Слой_1" xmlns="http://www.w3.org/2000/svg" viewBox="0 0 500 499.507"><style>.st2{fill:#3a1e07}.st3{fill:#a36d31}.st6{fill:#2d1705}.st11{fill:#191919}.st22{fill:#cec40f}</style><path fill="#f7f754" d="M0-.246h500v500H0z"/><linearGradient id="SVGID_1_" gradientUnits="userSpaceOnUse" x1="-387.609" y1="647.515" x2="-219.362" y2="475.612" gradientTransform="matrix(2.16 0 0 -2.16 975.64 1514.36)"><stop offset="0" stop-opacity=".3"/><stop offset="1" stop-opacity="0"/></linearGradient><path d="M422.532 119.945l-21.12 2.011L328.74 49.05l-63.768-1.776-9.831-9.717-60.91 5.952-49.098 370.17 86.093 86.092h268.77l.056-305.615-77.52-74.211z" fill="url(#SVGID_1_)"/><path class="st2" d="M191.214 58.595l67.384-7.04-3.001-9.004a4.022 4.022 0 0 0-4.235-2.729l-59.188 6.184a4.023 4.023 0 0 0-3.398 5.273l2.438 7.316z"/><path class="st3" d="M192.22 55.578l67.383-7.04-3-9.005a4.022 4.022 0 0 0-4.235-2.728l-59.188 6.184a4.023 4.023 0 0 0-3.399 5.273l2.438 7.316z"/><path d="M361.097 115.055l-29.542-61.967a15.086 15.086 0 0 0-15.126-8.519c-67.498 2.491-134.04 9.038-199.528 20.04-10.07 1.012-16.308 11.457-12.423 20.802l24.63 59.247a105.638 105.638 0 0 1 6.754 23.782l7.076 44.032L375.263 182.3l-4.83-35.887a105.621 105.621 0 0 0-9.336-31.358z" fill="#3a1d07"/><path d="M358.38 115.148l-28.731-60.264a14.673 14.673 0 0 0-14.71-8.284c-54.645 2.016-108.642 6.766-161.942 14.473-5.591.809 26.476 28.509 82.226 44.158 45.38 12.738 61.62 85.093 61.62 85.093l75.312-9.78-4.698-34.902a102.686 102.686 0 0 0-9.077-30.494z" fill="#542c12"/><path class="st6" d="M149.36 208.887l217.402-28.02a4.52 4.52 0 0 0 3.907-5.057l-4.924-38.56a4.28 4.28 0 0 0-4.772-3.707c-73.74 4.12-146.508 13.451-218.48 27.069a4.52 4.52 0 0 0-3.917 5.139l5.732 39.305a4.521 4.521 0 0 0 5.052 3.83z"/><path d="M429.207 205.104l-14.602 188.001c-.505 6.506-7.805 10.085-13.258 6.497l-22.223-14.621a8.572 8.572 0 0 1-3.861-7.161V190.673c0-4.118 4.035-7.027 7.942-5.725 16.603 2.349 30.72 6.87 41.894 13.965a6.034 6.034 0 0 1 4.108 6.191z" fill="#211004"/><path class="st6" d="M375.263 182.3l-232.325 30.172v189.173c0 5.814 5.111 10.305 10.877 9.555l221.448-28.759v-200.14z"/><g id="listi"><path d="M257.592 254.713s3.017-101.579-30.172-137.785l130.745-16.092s37.212 29.166 22.126 136.78l-122.7 17.097z" fill="#d3d3d3"/><path d="M264.632 254.713s11.063-110.63-22.126-146.837l124.71-3.017s35.202 25.143 20.116 132.757l-122.7 17.097z" fill="#dbdbdb"/><path d="M271.672 254.713s15.086-83.476-7.04-141.808l114.654-3.017c9.051 29.166 12.068 64.366 15.086 127.728l-122.7 17.097z" fill="#e8e7e6"/><path class="st11" d="M351.651 122.339l-37.19 1.245a.502.502 0 0 1-.52-.486l-.033-1.005a.502.502 0 0 1 .486-.519l37.19-1.245a.504.504 0 0 1 .52.486l.033 1.005a.502.502 0 0 1-.486.519zm-27.155 14.08l-37.19 1.245a.502.502 0 0 1-.52-.486l-.033-1.005a.502.502 0 0 1 .486-.519l37.191-1.245a.502.502 0 0 1 .519.486l.033 1.005a.502.502 0 0 1-.486.519zm1.006 9.051l-37.19 1.246a.502.502 0 0 1-.52-.486l-.033-1.005a.502.502 0 0 1 .486-.519l37.19-1.245c.278-.01.51.208.52.486l.033 1.004a.502.502 0 0 1-.486.52z"/><path d="M277.707 248.679s13.051-77.138-8.046-132.757l107.31-2.666c8.63 27.81 11.507 61.373 14.383 121.787l-113.647 13.636z" fill="none" stroke="#ccc" stroke-width="2" stroke-miterlimit="10"/><path d="M281.73 268.793s-4.023-109.625 19.108-140.802l121.694-8.046c-17.097 30.172-16.092 75.43-18.103 131.751l-122.7 17.097z" fill="#efefef"/><path d="M288.376 261.753s-3.642-99.255 17.302-127.483l108.808-8.29c-15.48 27.317-13.196 69.3-15.017 120.293l-111.093 15.48z" fill="none" stroke="#f47c2c" stroke-width="2" stroke-miterlimit="10"/><path class="st11" d="M341.598 185.844l-35.076 2.962a.503.503 0 0 0-.459.544l.085 1.001a.503.503 0 0 0 .543.459l35.076-2.963a.503.503 0 0 0 .458-.543l-.084-1.002a.503.503 0 0 0-.543-.458zm46.208 6.441l-35.076 2.963a.503.503 0 0 0-.458.543l.084 1.002a.503.503 0 0 0 .543.459l35.076-2.963a.503.503 0 0 0 .459-.543l-.085-1.002a.502.502 0 0 0-.543-.459zm-34.308 12.773l-35.076 2.963a.503.503 0 0 0-.459.543l.085 1.002a.503.503 0 0 0 .543.458l35.076-2.962a.503.503 0 0 0 .458-.544l-.084-1.001a.503.503 0 0 0-.543-.459zm21.34-20.003l-24.052 2.032a.503.503 0 0 1-.543-.459l-.084-1.002a.503.503 0 0 1 .458-.543l24.052-2.031a.503.503 0 0 1 .543.458l.085 1.002a.502.502 0 0 1-.459.543zm-46.385 13.673L304.4 200.76a.503.503 0 0 1-.543-.459l-.085-1.002a.503.503 0 0 1 .459-.543l24.052-2.031a.503.503 0 0 1 .543.458l.084 1.002a.503.503 0 0 1-.458.543zm58.287 5.542l-24.053 2.031a.503.503 0 0 1-.543-.458l-.085-1.002a.503.503 0 0 1 .46-.543l24.051-2.032a.503.503 0 0 1 .543.459l.085 1.002a.503.503 0 0 1-.459.543zm2.128-20.4l-6.013.508a.503.503 0 0 1-.543-.458l-.085-1.002a.503.503 0 0 1 .459-.543l6.013-.508a.503.503 0 0 1 .543.459l.085 1.001a.502.502 0 0 1-.459.543zm-45.379 13.681l-6.014.508a.503.503 0 0 1-.543-.458l-.084-1.002a.503.503 0 0 1 .458-.543l6.014-.508a.503.503 0 0 1 .543.459l.084 1.001a.503.503 0 0 1-.458.543zm-34.309 12.774l-6.013.508a.503.503 0 0 1-.543-.459l-.085-1.001a.503.503 0 0 1 .459-.543l6.013-.508a.503.503 0 0 1 .543.458l.085 1.002a.503.503 0 0 1-.459.543z"/><path d="M399.22 134.274l-86.119 6.698c-.739.057-1.352.534-1.691 1.193-4.799 9.32-6.64 18.538-6.297 26.669.053 1.256.904 2.313 2.157 2.215l86.429-6.722a2.008 2.008 0 0 0 1.84-1.804c.864-8.38 2.473-16.858 5.716-25.548a2.005 2.005 0 0 0-2.035-2.701z" fill="#37f490"/><path d="M352.095 157.943c-2.493 8.266-3.407 20.334-2.493 34.415l7.314-7.04 8.228 5.028s-3.657-26.149-1.21-33.265l-11.84.862z" fill="#c13821"/><path d="M358.19 136.337l4.914-5.65c.296-.34.818-.139.855.33l.633 8.054c.024.302.265.524.539.498l6.95-.677c.414-.04.688.464.458.846l-4.026 6.706a.582.582 0 0 0 .119.74l5.762 4.706c.33.27.236.84-.16.964l-6.775 2.13c-.258.082-.411.374-.346.66l1.796 7.866c.102.45-.32.829-.7.625l-6.297-3.37c-.253-.135-.557-.014-.672.268l-2.956 7.277a.48.48 0 0 1-.908 0l-2.956-7.277c-.115-.283-.418-.404-.672-.268l-6.297 3.37c-.38.203-.802-.174-.7-.625l1.795-7.867c.066-.286-.087-.578-.345-.658l-6.775-2.13c-.396-.125-.49-.696-.16-.965l5.762-4.706a.583.583 0 0 0 .119-.74l-4.026-6.706c-.23-.382.044-.886.458-.846l6.95.677c.273.027.516-.196.539-.498l.633-8.054c.037-.469.559-.67.854-.33l4.914 5.65a.47.47 0 0 0 .721 0z" fill="#bc2915"/><path d="M348.84 147.289c1.006-6.01 5.847-10.065 10.814-9.058 4.965 1.007 8.175 6.693 7.169 12.703-1.007 6.009-5.848 10.064-10.814 9.057-4.965-1.007-8.176-6.693-7.169-12.702z" fill="#e8e825" stroke="#f47c2c" stroke-width="2" stroke-miterlimit="10"/></g><g id="kubok"><path d="M118.94 169.94c6.067-5.015 12.15-8.402 18.258-9.439l18.712 36.194-1.992 1.03c-10.532 5.445-23.483 1.322-28.928-9.21l-7.404-14.322a3.156 3.156 0 0 1 1.355-4.253z" fill="#bfb20c"/><path d="M220.205 117.585l16.594-8.58a5.029 5.029 0 0 1 6.777 2.158l6.544 12.658c5.445 10.532 1.322 23.483-9.21 28.928l-1.993 1.03-18.712-36.194z" fill="#dbcd26"/><path d="M216.585 119.456c4.803-4.286 10.245-7.32 16.595-8.58a5.029 5.029 0 0 1 6.776 2.157l6.545 12.659c5.445 10.532 1.321 23.483-9.21 28.928l-1.993 1.03-18.713-36.194z" fill="#cec411"/><path class="st22" d="M258.164 236.224c-3.202 1.655-7.234.42-8.96-2.745l-1.542-2.828c-4.185-7.677-4.256-16.87-.435-24.734 6.587-13.558 6.922-29.942-.533-44.362l-27.665-53.509a6.702 6.702 0 0 0-9.032-2.875c-30.248 7.94-55.936 20.662-75.994 39.289a6.702 6.702 0 0 0-2.875 9.032l27.665 53.51c7.455 14.42 21.017 23.619 35.888 26.083 8.626 1.429 16.086 6.803 19.93 14.655l1.416 2.894c1.585 3.238.261 7.242-2.94 8.898 0 0-30.76 20.964-19.502 29.74l100.12-51.763c-.653-14.26-35.54-1.285-35.54-1.285z"/><path d="M258.164 236.224c-3.202 1.655-7.234.42-8.96-2.745l-1.542-2.828c-4.185-7.677-4.256-16.87-.435-24.734 6.587-13.558 6.922-29.942-.533-44.362l-27.665-53.509a6.702 6.702 0 0 0-9.032-2.875c-27.604 7.53-52.4 18.813-70.076 33.883-3.289 1.7 32.618 64.116 32.618 64.116 15.987 27.12 36.083 11.489 49.31 40.827l1.416 2.894c1.585 3.238.262 7.242-2.94 8.897 0 0-24.212 15.794-19.502 29.74l92.882-48.02c-.653-14.26-35.54-1.284-35.54-1.284z" fill="#d3ce20"/><path class="st22" d="M179.062 138.404l5.585-2.887a1.942 1.942 0 0 1 2.617.832l18.534 35.848c.492.952.12 2.124-.833 2.617l-4.824 2.494a1.942 1.942 0 0 1-2.617-.833l-11.618-22.472a1.943 1.943 0 0 0-2.635-.824l-3.387 1.797c-1.35.716-2.96-.336-2.846-1.86l.98-13.13a1.946 1.946 0 0 1 1.044-1.582z"/><path d="M179.865 139.956l3.516-1.818a1.942 1.942 0 0 1 2.617.832l17.73 34.297c.494.952.12 2.124-.832 2.617l-2.755 1.424a1.942 1.942 0 0 1-2.616-.833l-11.619-22.472a1.943 1.943 0 0 0-2.635-.824l-3.387 1.797c-1.35.716-2.96-.336-2.846-1.86l1.782-11.58a1.94 1.94 0 0 1 1.045-1.58z" fill="#bfb206"/></g><path class="st2" d="M197.07 235.103l-7.868 200.642c-.924.206-4.113-.797-13.074-6.034-5.03-2.012-11.708-3.873-13.075-6.035-.004-.006-2.828-6.048-2.828-6.048-1.075-2.449-4.247-3.1-6.2-1.273a3.878 3.878 0 0 1-4.78.408l-2.344-1.542a8.8 8.8 0 0 1-3.963-7.35V220.844c0-4.118 4.035-7.027 7.943-5.725 6.839 6.27 23.9 10.269 42.067 14.023a6.031 6.031 0 0 1 4.122 5.96z"/><path d="M417.547 201.965c-56.332 14.993-129.03 23.42-212.368 27.58a9.85 9.85 0 0 0-8.55 9.004l-14.534 187.117c-.484 6.233 4.886 11.333 11.087 10.529 86.512-8.15 159.28-17.213 212.367-27.58a9.85 9.85 0 0 0 8.551-9.004l14.534-187.117c.484-6.233-4.888-11.334-11.087-10.529z" fill="#6b3605"/><path d="M170.093 426.694l9.052-200.141c-7.468-1.691-13.892-3.416-20.115-6.035v195.113c5.029 5.028 1.006 9.051 11.063 11.063z" fill="#2d1706"/><path d="M420.084 322.507l1.456-18.733-4.901 5.693-16.426-13.774 16.671-19.366 6.372 5.345.74-9.528-2.038-1.71 2.388-2.773.853-10.99-8.24 9.57-16.425-13.774 27.47-31.91.632-8.128a9.815 9.815 0 0 0-.126-2.459l-32.975 38.304L379.11 234.5l25.072-29.124a572.935 572.935 0 0 1-10.702 2.432l-19.37 22.5-16.425-13.775 1.947-2.261a860.913 860.913 0 0 1-14.09 2.228l2.07 1.735-16.672 19.366-16.426-13.775 3.043-3.534c-5.598.682-11.278 1.33-17.035 1.947l3.92 3.288-16.671 19.365-16.426-13.774 5.658-6.572c-3.083.276-6.18.546-9.302.807l-1.354 1.572-1.59-1.333c-3.664.299-7.353.588-11.07.864l7.586 6.362-16.671 19.366-27.855-23.36c-1.71.094-3.43.185-5.15.274a4.203 4.203 0 0 0 .485 5.963l27.446 23.016-16.674 19.366-25.47-21.36-.74 9.528 21.136 17.725-16.671 19.366-6.897-5.784-.74 9.528 2.563 2.15-3.001 3.485-.854 10.99 8.854-10.284 16.425 13.775-16.67 19.365-9.75-8.175-.74 9.528 5.415 4.54-6.339 7.365-.854 10.99 12.193-14.162 16.425 13.774-26.595 30.894a3.262 3.262 0 0 0 4.944 4.256l26.65-30.957 16.426 13.775-26.595 30.894a3.262 3.262 0 0 0 4.944 4.256l26.651-30.957 16.426 13.774-20.651 23.989c3.176-.331 6.335-.663 9.466-.997l16.184-18.8 16.426 13.774-1.333 1.548c4.52-.524 8.986-1.052 13.392-1.584l-1.986-1.665 16.671-19.366 16.426 13.775-3.213 3.732a2050.35 2050.35 0 0 0 17.001-2.317l-3.716-3.116 16.671-19.365 20.738 17.391c3.426-.557 6.791-1.117 10.096-1.683l-25.76-21.603 16.67-19.365 28.242 23.684a3.262 3.262 0 0 0 4.568-.371l.818-.95a3.262 3.262 0 0 0-.376-4.627l-28.177-23.63 16.671-19.365 22.094 18.528.74-9.528-17.76-14.894 16.671-19.365 3.521 2.955zm-8.2-50.372l-16.672 19.366-16.425-13.775 16.67-19.365 16.427 13.774zm-64.915 32.551l-16.67 19.365-16.426-13.774 16.67-19.366 16.426 13.775zm-11.351-19.668l16.67-19.365 16.426 13.774-16.67 19.365-16.426-13.774zm-26.745 21.066l-16.425-13.775 16.67-19.365 16.426 13.775-16.67 19.365zm-5.074 5.895l-16.67 19.365-16.426-13.775 16.67-19.365L303.8 311.98zm-38.095 1.398l-16.425-13.775 16.67-19.365 16.426 13.774-16.67 19.366zm-5.074 5.893l-16.67 19.366-16.426-13.775 16.67-19.365 16.426 13.774zm4.999 4.192l16.425 13.775-16.67 19.365-16.426-13.775 16.67-19.365zm21.425 17.968l16.426 13.774-16.671 19.365-16.426-13.774 16.67-19.365zm5.074-5.894l16.67-19.365 16.426 13.774-16.67 19.365-16.426-13.774zm38.095-1.399l16.426 13.774-16.671 19.366-16.426-13.775 16.671-19.365zm5.074-5.894l16.67-19.365 16.427 13.774-16.671 19.366-16.426-13.775zm21.745-25.259l16.67-19.365 16.427 13.774-16.672 19.366-16.425-13.775zm33.416-48.816l-16.67 19.365-16.426-13.774 16.67-19.366 16.426 13.775zm-37.85-31.742l16.426 13.775-16.67 19.365-16.426-13.774 16.67-19.366zm-5.319 39.034l-16.67 19.365-16.426-13.774 16.67-19.366 16.426 13.775zm-37.85-31.741l16.425 13.774-16.67 19.366-16.427-13.775 16.672-19.365zm-5.32 39.033l-16.67 19.366-16.427-13.775 16.672-19.365 16.425 13.774zm-37.85-31.742l16.426 13.775-16.671 19.365-16.426-13.774 16.671-19.366zm-21.745 25.26l16.426 13.774-16.671 19.365-16.426-13.774 16.671-19.366zm-38.416 44.624l16.671-19.366 16.426 13.775-16.67 19.365-16.427-13.774zm-.32 43.226l16.672-19.365 16.425 13.774-16.67 19.366-16.426-13.775zm21.426 17.966l16.67-19.365 16.426 13.775-16.67 19.365-16.426-13.775zm21.424 17.968l16.67-19.365 16.427 13.774-16.671 19.365-16.426-13.774zm37.85 31.742l-16.425-13.776 16.671-19.365 16.426 13.774-16.671 19.367zm5.32-39.035l16.671-19.365 16.426 13.774-16.671 19.366-16.426-13.775zm37.85 31.742l-16.426-13.774 16.671-19.366 16.426 13.775-16.671 19.365zm21.745-25.259l-16.426-13.774 16.671-19.366 16.426 13.775-16.671 19.365zm21.745-25.259l-16.426-13.774 16.671-19.366 16.426 13.775-16.671 19.365zm21.745-25.259l-16.426-13.774 16.671-19.366 16.426 13.775-16.671 19.365z" fill="#492406"/><path d="M417.942 324.555l1.454-18.73-4.9 5.693-16.423-13.772 16.668-19.363 6.371 5.344.74-9.527-2.038-1.71 2.386-2.772.854-10.99-8.239 9.57-16.422-13.772 27.466-31.905.632-8.126a9.806 9.806 0 0 0-.126-2.458l-32.97 38.298-16.423-13.772 25.067-29.12c-3.51.833-7.077 1.644-10.7 2.433l-19.366 22.496-16.423-13.773 1.947-2.262a862.23 862.23 0 0 1-14.086 2.23l2.068 1.734-16.668 19.362-16.423-13.772 3.042-3.533a1177.26 1177.26 0 0 1-17.033 1.947l3.919 3.287-16.668 19.362-16.423-13.773 5.656-6.57c-3.082.276-6.179.546-9.3.807l-1.354 1.572-1.59-1.333c-3.663.298-7.352.587-11.07.864l7.586 6.361-16.668 19.363-27.85-23.356c-1.71.094-3.429.184-5.15.273a4.202 4.202 0 0 0 .485 5.962l27.442 23.013-16.668 19.362-25.466-21.355-.74 9.526 21.132 17.722-16.668 19.362-6.896-5.783-.74 9.527 2.562 2.15-3 3.484-.854 10.99 8.852-10.283 16.425 13.772-16.668 19.363-9.746-8.174-.74 9.527 5.413 4.54-6.338 7.362-.854 10.99 12.19-14.16 16.423 13.772-26.591 30.889a3.261 3.261 0 1 0 4.943 4.255l26.647-30.952 16.422 13.772-26.591 30.89a3.261 3.261 0 1 0 4.943 4.255l26.647-30.953 16.423 13.773-20.648 23.984c3.176-.33 6.334-.662 9.464-.995l16.182-18.797 16.423 13.772-1.333 1.548a2855.76 2855.76 0 0 0 13.39-1.584l-1.986-1.666 16.668-19.362 16.423 13.773-3.213 3.73a2045.46 2045.46 0 0 0 17-2.316l-3.716-3.116 16.668-19.363 20.735 17.39c3.425-.557 6.79-1.118 10.095-1.682l-25.757-21.6 16.668-19.363 28.237 23.68a3.261 3.261 0 0 0 4.567-.37l.817-.95a3.26 3.26 0 0 0-.376-4.626l-28.173-23.626 16.668-19.362 22.09 18.525.741-9.526-17.757-14.892 16.668-19.362 3.523 2.951zm-8.199-50.363l-16.669 19.363-16.422-13.773 16.668-19.362 16.423 13.772zM344.84 306.74l-16.669 19.36-16.421-13.77 16.668-19.363 16.422 13.773zm-11.35-19.665l16.668-19.363 16.422 13.773-16.668 19.362-16.422-13.772zm-26.74 21.063l-16.422-13.773 16.668-19.362 16.422 13.772-16.668 19.363zm-5.073 5.892l-16.668 19.363-16.422-13.773 16.668-19.362 16.422 13.772zm-38.089 1.398l-16.423-13.772 16.669-19.363 16.422 13.773-16.668 19.362zm-5.074 5.893l-16.668 19.362-16.422-13.772 16.668-19.363 16.422 13.773zm4.999 4.192l16.422 13.772-16.668 19.363-16.422-13.773 16.668-19.362zm21.422 17.964l16.422 13.773-16.668 19.362-16.422-13.772 16.668-19.363zm5.073-5.892l16.668-19.363 16.422 13.773-16.668 19.362-16.422-13.772zm38.089-1.398l16.422 13.772-16.668 19.363-16.422-13.773 16.668-19.362zm5.073-5.894l16.668-19.362 16.422 13.772-16.668 19.363-16.422-13.773zm21.742-25.255l16.668-19.362L388 299.447l-16.668 19.363-16.422-13.773zm33.41-48.808l-16.668 19.362-16.422-13.772 16.668-19.363 16.422 13.773zm-37.844-31.737l16.423 13.772-16.668 19.363-16.423-13.773 16.668-19.362zm-5.318 39.027l-16.668 19.363-16.423-13.773 16.668-19.362 16.423 13.772zm-37.845-31.737l16.423 13.773-16.668 19.362-16.423-13.772 16.668-19.363zm-5.318 39.028l-16.668 19.362-16.423-13.772 16.668-19.363 16.423 13.773zm-37.845-31.736l16.423 13.773-16.668 19.362-16.423-13.773 16.668-19.362zm-21.74 25.255l16.422 13.773-16.668 19.362-16.423-13.773 16.668-19.362zM204 308.945l16.667-19.362 16.423 13.772-16.668 19.363L204 308.945zm-.32 43.22l16.668-19.363 16.422 13.773-16.668 19.362-16.422-13.772zm21.422 17.964l16.668-19.362 16.422 13.772-16.668 19.363-16.422-13.773zm21.42 17.965l16.669-19.363 16.422 13.773-16.668 19.362-16.422-13.772zm37.846 31.735l-16.423-13.772 16.668-19.362 16.423 13.772-16.668 19.362zm5.318-39.027l16.668-19.362 16.423 13.772-16.668 19.362-16.423-13.772zm37.844 31.737l-16.423-13.773 16.668-19.362 16.423 13.773-16.668 19.362zm21.742-25.255L332.85 373.51l16.668-19.362 16.423 13.773-16.668 19.362zm21.74-25.255l-16.422-13.773 16.668-19.362 16.423 13.773-16.668 19.362zm21.741-25.255l-16.422-13.773L393 303.64l16.422 13.773-16.668 19.362z" fill="#3d1e06"/><g id="zamok"><path class="st3" d="M339.323 313.745c-.545-2.728-.478-4.535-.313-5.594.117-.757-.292-1.498-.975-1.84l-.651-.325-.027-.029-58.905 7.338-.72 17.977 1.697.215c.295-.036 59.338-7.824 59.375-7.862.947-.974 1.488-5.03.519-9.88z"/><path d="M278.452 313.296l-.745 17.967s2.098.748 2.876-.367c.778-1.114.778-4.993-.191-9.842-.545-2.727-.478-4.534-.313-5.594.117-.756-.292-1.497-.975-1.84l-.652-.324z" fill="#774406"/><path d="M281.337 321.016l56.046-6.883a.651.651 0 0 0 .558-.748c-.192-1.293-.234-2.478-.073-3.522a.638.638 0 0 0-.714-.73l-56.06 6.885a.631.631 0 0 0-.521.385c-.39 1.057-.224 2.46.046 4.078a.648.648 0 0 0 .718.535z" fill="#c6af95"/></g></svg>