<svg id="Слой_1" xmlns="http://www.w3.org/2000/svg" viewBox="0 0 400 400"><style>.st2{fill:#110649;stroke:#1c1f5a;stroke-miterlimit:10}.st3{fill:#200365}.st4{fill:#020400}.st5{fill:#260b7a}.st6{fill:#4c09d3}.st7{fill:#4a06ce}.st8{fill:#584ffc}.st9{fill:#94fe28}.st10{fill:#e39b1e}.st11{fill:#f6fe95}.st12{fill:#f8d525}.st38{fill:#98cefe}.st39{fill:#c7e4fe}.st41{fill:#237018}.st42{fill:#62e623}</style><path fill="#29388e" d="M0 0h400v400H0z"/><path d="M251.4 148.8h77.9c1.7 0 3 1.3 3 3v152.7h-83.9V151.8c0-1.6 1.3-3 3-3zm-90.3 20.6H239c1.7 0 3 1.3 3 3v132.1h-83.9V172.4c0-1.7 1.3-3 3-3zm-90.4 23.1h77.9c1.7 0 3 1.3 3 3v109H67.7v-109c0-1.7 1.4-3 3-3z" fill="#090a1e"/><path class="st2" d="M143.9 220.5H75.4c-.6 0-1-.4-1-1V201c0-.6.4-1 1-1h68.4c.6 0 1 .4 1 1v18.4c.1.6-.4 1.1-.9 1.1z"/><path d="M86.9 204.9h53.6c.9 0 1.6.7 1.6 1.6v7.5c0 .9-.7 1.6-1.6 1.6H86.9v-10.7z"/><path class="st3" d="M86.9 215.6l-7.3 1.2c-.5.1-.9-.3-.9-.8v-11.6c0-.5.4-.9.9-.8l7.3 1.2v10.8z"/><path class="st4" d="M86.5 215.1l-6.6 1.1c-.4.1-.8-.3-.8-.7V205c0-.4.4-.8.8-.7l6.6 1.1v9.7z"/><path class="st5" d="M130.6 214.1H89.2c-.6 0-1-.4-1-1v-5.8c0-.6.4-1 1-1h41.4v7.8z"/><path class="st6" d="M139.3 214.1h-11.1v-7.8h11.1c.6 0 1 .4 1 1v5.8c0 .6-.4 1-1 1z"/><path class="st7" d="M128.2 206.4h2.4v7.8h-2.4z"/><path class="st8" d="M130.6 206.4l8.2 1c.4 0 .7.4.7.8v4.2c0 .4-.3.8-.7.8l-8.2 1v-7.8z"/><circle class="st9" cx="82.7" cy="210.2" r="1.3"/><circle class="st9" cx="82.7" cy="206.9" r="1.3"/><circle class="st10" cx="82.7" cy="213.6" r="1.3"/><circle class="st11" cx="82.7" cy="206.9" r="1"/><circle class="st11" cx="82.7" cy="210.2" r="1"/><circle class="st12" cx="82.7" cy="213.6" r="1"/><radialGradient id="SVGID_1_" cx="82.746" cy="210.25" r="6.006" gradientTransform="matrix(1 0 0 1.3532 0 -74.253)" gradientUnits="userSpaceOnUse"><stop offset="0" stop-color="#fff"/><stop offset="1" stop-color="#73ff3f" stop-opacity="0"/></radialGradient><ellipse cx="82.7" cy="210.2" rx="6.2" ry="8.5" fill="url(#SVGID_1_)"/><radialGradient id="SVGID_2_" cx="120" cy="209.511" r="23.528" gradientTransform="matrix(1 0 0 .2491 0 157.323)" gradientUnits="userSpaceOnUse"><stop offset="0" stop-color="#ff54ff"/><stop offset="1" stop-color="#2a85ff" stop-opacity="0"/></radialGradient><ellipse cx="120" cy="209.5" rx="23.3" ry="5.9" fill="url(#SVGID_2_)"/><path class="st2" d="M143.6 247.8H75.1c-.6 0-1-.4-1-1v-18.4c0-.6.4-1 1-1h68.4c.6 0 1 .4 1 1v18.4c.1.5-.4 1-.9 1z"/><path d="M86.6 232.2h53.6c.9 0 1.6.7 1.6 1.6v7.5c0 .9-.7 1.6-1.6 1.6H86.6v-10.7z"/><path class="st3" d="M86.6 242.9l-7.3 1.2c-.5.1-.9-.3-.9-.8v-11.6c0-.5.4-.9.9-.8l7.3 1.2v10.8z"/><path class="st4" d="M86.2 242.4l-6.6 1.1c-.4.1-.8-.3-.8-.7v-10.4c0-.4.4-.8.8-.7l6.6 1.1v9.6z"/><path class="st5" d="M130.3 241.5H88.9c-.6 0-1-.4-1-1v-5.8c0-.6.4-1 1-1h41.4v7.8z"/><path class="st6" d="M139 241.5h-11.1v-7.8H139c.6 0 1 .4 1 1v5.8c0 .5-.4 1-1 1z"/><path class="st7" d="M127.9 233.7h2.4v7.8h-2.4z"/><path class="st8" d="M130.3 233.7l8.2 1c.4 0 .7.4.7.8v4.2c0 .4-.3.8-.7.8l-8.2 1v-7.8z"/><circle class="st9" cx="82.4" cy="237.6" r="1.3"/><circle class="st9" cx="82.4" cy="234.2" r="1.3"/><circle class="st10" cx="82.4" cy="240.9" r="1.3"/><circle class="st11" cx="82.4" cy="234.2" r="1"/><circle class="st11" cx="82.4" cy="237.6" r="1"/><circle class="st12" cx="82.4" cy="240.9" r="1"/><radialGradient id="SVGID_3_" cx="82.746" cy="237.572" r="6.006" gradientTransform="matrix(1 0 0 1.3532 0 -83.903)" gradientUnits="userSpaceOnUse"><stop offset="0" stop-color="#fff"/><stop offset="1" stop-color="#73ff3f" stop-opacity="0"/></radialGradient><ellipse cx="82.7" cy="237.6" rx="6.2" ry="8.5" fill="url(#SVGID_3_)"/><radialGradient id="SVGID_4_" cx="120" cy="236.833" r="23.528" gradientTransform="matrix(1 0 0 .2491 0 177.84)" gradientUnits="userSpaceOnUse"><stop offset="0" stop-color="#ff54ff"/><stop offset="1" stop-color="#2a85ff" stop-opacity="0"/></radialGradient><ellipse cx="120" cy="236.8" rx="23.3" ry="5.9" fill="url(#SVGID_4_)"/><path class="st2" d="M143.9 275.1H75.4c-.6 0-1-.4-1-1v-18.4c0-.6.4-1 1-1h68.4c.6 0 1 .4 1 1v18.4c.1.6-.4 1-.9 1z"/><path d="M86.9 259.5h53.6c.9 0 1.6.7 1.6 1.6v7.5c0 .9-.7 1.6-1.6 1.6H86.9v-10.7z"/><path class="st3" d="M86.9 270.3l-7.3 1.2c-.5.1-.9-.3-.9-.8v-11.6c0-.5.4-.9.9-.8l7.3 1.2v10.8z"/><path class="st4" d="M86.5 269.7l-6.6 1.1c-.4.1-.8-.3-.8-.7v-10.4c0-.4.4-.8.8-.7l6.6 1.1v9.6z"/><path class="st5" d="M130.6 268.8H89.2c-.6 0-1-.4-1-1V262c0-.6.4-1 1-1h41.4v7.8z"/><path class="st6" d="M139.3 268.8h-11.1V261h11.1c.6 0 1 .4 1 1v5.8c0 .5-.4 1-1 1z"/><path class="st7" d="M128.2 261h2.4v7.8h-2.4z"/><path class="st8" d="M130.6 261l8.2 1c.4 0 .7.4.7.8v4.2c0 .4-.3.8-.7.8l-8.2 1V261z"/><circle class="st9" cx="82.7" cy="264.9" r="1.3"/><circle class="st9" cx="82.7" cy="261.6" r="1.3"/><circle class="st10" cx="82.7" cy="268.2" r="1.3"/><circle class="st11" cx="82.7" cy="261.6" r="1"/><circle class="st11" cx="82.7" cy="264.9" r="1"/><circle class="st12" cx="82.7" cy="268.2" r="1"/><radialGradient id="SVGID_5_" cx="82.746" cy="264.894" r="6.006" gradientTransform="matrix(1 0 0 1.3532 0 -93.552)" gradientUnits="userSpaceOnUse"><stop offset="0" stop-color="#fff"/><stop offset="1" stop-color="#73ff3f" stop-opacity="0"/></radialGradient><ellipse cx="82.7" cy="264.9" rx="6.2" ry="8.5" fill="url(#SVGID_5_)"/><radialGradient id="SVGID_6_" cx="120" cy="264.155" r="23.528" gradientTransform="matrix(1 0 0 .2491 0 198.356)" gradientUnits="userSpaceOnUse"><stop offset="0" stop-color="#ff54ff"/><stop offset="1" stop-color="#2a85ff" stop-opacity="0"/></radialGradient><ellipse cx="120" cy="264.2" rx="23.3" ry="5.9" fill="url(#SVGID_6_)"/><path class="st2" d="M234.4 197H166c-.6 0-1-.4-1-1v-18.4c0-.6.4-1 1-1h68.4c.6 0 1 .4 1 1V196c0 .6-.5 1-1 1z"/><path d="M177.4 181.4H231c.9 0 1.6.7 1.6 1.6v7.5c0 .9-.7 1.6-1.6 1.6h-53.6v-10.7z"/><path class="st3" d="M177.4 192.2l-7.3 1.2c-.5.1-.9-.3-.9-.8V181c0-.5.4-.9.9-.8l7.3 1.2v10.8z"/><path class="st4" d="M176.9 191.7l-6.6 1.1c-.4.1-.8-.3-.8-.7v-10.4c0-.4.4-.8.8-.7l6.6 1.1v9.6z"/><path class="st5" d="M221.1 190.7h-41.4c-.6 0-1-.4-1-1v-5.8c0-.6.4-1 1-1h41.4v7.8z"/><path class="st6" d="M229.8 190.7h-11.1v-7.8h11.1c.6 0 1 .4 1 1v5.8c0 .6-.4 1-1 1z"/><path class="st7" d="M218.7 182.9h2.4v7.8h-2.4z"/><path class="st8" d="M221.1 182.9l8.2 1c.4 0 .7.4.7.8v4.2c0 .4-.3.8-.7.8l-8.2 1v-7.8z"/><circle class="st9" cx="173.2" cy="186.8" r="1.3"/><circle class="st9" cx="173.2" cy="183.5" r="1.3"/><circle class="st10" cx="173.2" cy="190.2" r="1.3"/><circle class="st11" cx="173.2" cy="183.5" r="1"/><circle class="st11" cx="173.2" cy="186.8" r="1"/><circle class="st12" cx="173.2" cy="190.2" r="1"/><radialGradient id="SVGID_7_" cx="173.022" cy="186.826" r="6.006" gradientTransform="matrix(1 0 0 1.3532 0 -65.98)" gradientUnits="userSpaceOnUse"><stop offset="0" stop-color="#fff"/><stop offset="1" stop-color="#73ff3f" stop-opacity="0"/></radialGradient><ellipse cx="173" cy="186.8" rx="6.2" ry="8.5" fill="url(#SVGID_7_)"/><radialGradient id="SVGID_8_" cx="210.276" cy="186.087" r="23.528" gradientTransform="matrix(1 0 0 .2491 0 139.734)" gradientUnits="userSpaceOnUse"><stop offset="0" stop-color="#ff54ff"/><stop offset="1" stop-color="#2a85ff" stop-opacity="0"/></radialGradient><ellipse cx="210.3" cy="186.1" rx="23.3" ry="5.9" fill="url(#SVGID_8_)"/><path class="st2" d="M234.1 224.4h-68.4c-.6 0-1-.4-1-1V205c0-.6.4-1 1-1h68.4c.6 0 1 .4 1 1v18.4c0 .5-.5 1-1 1z"/><path d="M177.1 208.8h53.6c.9 0 1.6.7 1.6 1.6v7.5c0 .9-.7 1.6-1.6 1.6h-53.6v-10.7z"/><path class="st3" d="M177.1 219.5l-7.3 1.2c-.5.1-.9-.3-.9-.8v-11.6c0-.5.4-.9.9-.8l7.3 1.2v10.8z"/><path class="st4" d="M176.6 219l-6.6 1.1c-.4.1-.8-.3-.8-.7V209c0-.4.4-.8.8-.7l6.6 1.1v9.6z"/><path class="st5" d="M220.8 218h-41.4c-.6 0-1-.4-1-1v-5.8c0-.6.4-1 1-1h41.4v7.8z"/><path class="st6" d="M229.5 218h-11.1v-7.8h11.1c.6 0 1 .4 1 1v5.8c0 .6-.4 1-1 1z"/><path class="st7" d="M218.4 210.2h2.4v7.8h-2.4z"/><path class="st8" d="M220.8 210.2l8.2 1c.4 0 .7.4.7.8v4.2c0 .4-.3.8-.7.8l-8.2 1v-7.8z"/><circle class="st9" cx="172.9" cy="214.1" r="1.3"/><circle class="st9" cx="172.9" cy="210.8" r="1.3"/><circle class="st10" cx="172.9" cy="217.5" r="1.3"/><circle class="st11" cx="172.9" cy="210.8" r="1"/><circle class="st11" cx="172.9" cy="214.1" r="1"/><circle class="st12" cx="172.9" cy="217.5" r="1"/><radialGradient id="SVGID_9_" cx="173.022" cy="214.148" r="6.006" gradientTransform="matrix(1 0 0 1.3532 0 -75.63)" gradientUnits="userSpaceOnUse"><stop offset="0" stop-color="#fff"/><stop offset="1" stop-color="#73ff3f" stop-opacity="0"/></radialGradient><ellipse cx="173" cy="214.1" rx="6.2" ry="8.5" fill="url(#SVGID_9_)"/><radialGradient id="SVGID_10_" cx="210.276" cy="213.409" r="23.528" gradientTransform="matrix(1 0 0 .2491 0 160.25)" gradientUnits="userSpaceOnUse"><stop offset="0" stop-color="#ff54ff"/><stop offset="1" stop-color="#2a85ff" stop-opacity="0"/></radialGradient><ellipse cx="210.3" cy="213.4" rx="23.3" ry="5.9" fill="url(#SVGID_10_)"/><path class="st2" d="M234.4 251.7H166c-.6 0-1-.4-1-1v-18.4c0-.6.4-1 1-1h68.4c.6 0 1 .4 1 1v18.4c0 .5-.5 1-1 1z"/><path d="M177.4 236.1H231c.9 0 1.6.7 1.6 1.6v7.5c0 .9-.7 1.6-1.6 1.6h-53.6v-10.7z"/><path class="st3" d="M177.4 246.8l-7.3 1.2c-.5.1-.9-.3-.9-.8v-11.6c0-.5.4-.9.9-.8l7.3 1.2v10.8z"/><path class="st4" d="M176.9 246.3l-6.6 1.1c-.4.1-.8-.3-.8-.7v-10.4c0-.4.4-.8.8-.7l6.6 1.1v9.6z"/><path class="st5" d="M221.1 245.4h-41.4c-.6 0-1-.4-1-1v-5.8c0-.6.4-1 1-1h41.4v7.8z"/><path class="st6" d="M229.8 245.4h-11.1v-7.8h11.1c.6 0 1 .4 1 1v5.8c0 .5-.4 1-1 1z"/><path class="st7" d="M218.7 237.6h2.4v7.8h-2.4z"/><path class="st8" d="M221.1 237.6l8.2 1c.4 0 .7.4.7.8v4.2c0 .4-.3.8-.7.8l-8.2 1v-7.8z"/><circle class="st9" cx="173.2" cy="241.5" r="1.3"/><circle class="st9" cx="173.2" cy="238.1" r="1.3"/><circle class="st10" cx="173.2" cy="244.8" r="1.3"/><circle class="st11" cx="173.2" cy="238.1" r="1"/><circle class="st11" cx="173.2" cy="241.5" r="1"/><circle class="st12" cx="173.2" cy="244.8" r="1"/><radialGradient id="SVGID_11_" cx="173.022" cy="241.471" r="6.006" gradientTransform="matrix(1 0 0 1.3532 0 -85.28)" gradientUnits="userSpaceOnUse"><stop offset="0" stop-color="#fff"/><stop offset="1" stop-color="#73ff3f" stop-opacity="0"/></radialGradient><ellipse cx="173" cy="241.5" rx="6.2" ry="8.5" fill="url(#SVGID_11_)"/><radialGradient id="SVGID_12_" cx="210.276" cy="240.731" r="23.528" gradientTransform="matrix(1 0 0 .2491 0 180.767)" gradientUnits="userSpaceOnUse"><stop offset="0" stop-color="#ff54ff"/><stop offset="1" stop-color="#2a85ff" stop-opacity="0"/></radialGradient><ellipse cx="210.3" cy="240.7" rx="23.3" ry="5.9" fill="url(#SVGID_12_)"/><path class="st2" d="M325.2 178h-68.4c-.6 0-1-.4-1-1v-18.4c0-.6.4-1 1-1h68.4c.6 0 1 .4 1 1V177c0 .5-.5 1-1 1z"/><path d="M268.2 162.4h53.6c.9 0 1.6.7 1.6 1.6v7.5c0 .9-.7 1.6-1.6 1.6h-53.6v-10.7z"/><path class="st3" d="M268.2 173.1l-7.3 1.2c-.5.1-.9-.3-.9-.8V162c0-.5.4-.9.9-.8l7.3 1.2v10.7z"/><path class="st4" d="M267.7 172.6l-6.6 1.1c-.4.1-.8-.3-.8-.7v-10.4c0-.4.4-.8.8-.7l6.6 1.1v9.6z"/><path class="st5" d="M311.8 171.7h-41.4c-.6 0-1-.4-1-1v-5.8c0-.6.4-1 1-1h41.4v7.8z"/><path class="st6" d="M320.6 171.7h-11.1v-7.8h11.1c.6 0 1 .4 1 1v5.8c0 .5-.5 1-1 1z"/><path class="st7" d="M309.5 163.9h2.4v7.8h-2.4z"/><path class="st8" d="M311.8 163.9l8.2 1c.4 0 .7.4.7.8v4.2c0 .4-.3.8-.7.8l-8.2 1v-7.8z"/><circle class="st9" cx="264" cy="167.8" r="1.3"/><circle class="st9" cx="264" cy="164.4" r="1.3"/><circle class="st10" cx="264" cy="171.1" r="1.3"/><circle class="st11" cx="264" cy="164.4" r="1"/><circle class="st11" cx="264" cy="167.8" r="1"/><circle class="st12" cx="264" cy="171.1" r="1"/><radialGradient id="SVGID_13_" cx="263.978" cy="167.792" r="6.006" gradientTransform="matrix(1 0 0 1.3532 0 -59.258)" gradientUnits="userSpaceOnUse"><stop offset="0" stop-color="#fff"/><stop offset="1" stop-color="#73ff3f" stop-opacity="0"/></radialGradient><ellipse cx="264" cy="167.8" rx="6.2" ry="8.5" fill="url(#SVGID_13_)"/><radialGradient id="SVGID_14_" cx="301.232" cy="167.052" r="23.528" gradientTransform="matrix(1 0 0 .2491 0 125.441)" gradientUnits="userSpaceOnUse"><stop offset="0" stop-color="#ff54ff"/><stop offset="1" stop-color="#2a85ff" stop-opacity="0"/></radialGradient><ellipse cx="301.2" cy="167.1" rx="23.3" ry="5.9" fill="url(#SVGID_14_)"/><path class="st2" d="M324.9 205.3h-68.4c-.6 0-1-.4-1-1v-18.4c0-.6.4-1 1-1h68.4c.6 0 1 .4 1 1v18.4c0 .6-.5 1-1 1z"/><path d="M267.9 189.7h53.6c.9 0 1.6.7 1.6 1.6v7.5c0 .9-.7 1.6-1.6 1.6h-53.6v-10.7z"/><path class="st3" d="M267.9 200.5l-7.3 1.2c-.5.1-.9-.3-.9-.8v-11.6c0-.5.4-.9.9-.8l7.3 1.2v10.8z"/><path class="st4" d="M267.4 199.9l-6.6 1.1c-.4.1-.8-.3-.8-.7v-10.4c0-.4.4-.8.8-.7l6.6 1.1v9.6z"/><path class="st5" d="M311.5 199h-41.4c-.6 0-1-.4-1-1v-5.8c0-.6.4-1 1-1h41.4v7.8z"/><path class="st6" d="M320.3 199h-11.1v-7.8h11.1c.6 0 1 .4 1 1v5.8c0 .5-.5 1-1 1z"/><path class="st7" d="M309.2 191.2h2.4v7.8h-2.4z"/><path class="st8" d="M311.5 191.2l8.2 1c.4 0 .7.4.7.8v4.2c0 .4-.3.8-.7.8l-8.2 1v-7.8z"/><circle class="st9" cx="263.7" cy="195.1" r="1.3"/><circle class="st9" cx="263.7" cy="191.8" r="1.3"/><circle class="st10" cx="263.7" cy="198.4" r="1.3"/><circle class="st11" cx="263.7" cy="191.8" r="1"/><circle class="st11" cx="263.7" cy="195.1" r="1"/><circle class="st12" cx="263.7" cy="198.4" r="1"/><radialGradient id="SVGID_15_" cx="263.978" cy="195.114" r="6.006" gradientTransform="matrix(1 0 0 1.3532 0 -68.908)" gradientUnits="userSpaceOnUse"><stop offset="0" stop-color="#fff"/><stop offset="1" stop-color="#73ff3f" stop-opacity="0"/></radialGradient><ellipse cx="264" cy="195.1" rx="6.2" ry="8.5" fill="url(#SVGID_15_)"/><radialGradient id="SVGID_16_" cx="301.232" cy="194.375" r="23.528" gradientTransform="matrix(1 0 0 .2491 0 145.958)" gradientUnits="userSpaceOnUse"><stop offset="0" stop-color="#ff54ff"/><stop offset="1" stop-color="#2a85ff" stop-opacity="0"/></radialGradient><ellipse cx="301.2" cy="194.4" rx="23.3" ry="5.9" fill="url(#SVGID_16_)"/><path class="st2" d="M325.2 232.6h-68.4c-.6 0-1-.4-1-1v-18.4c0-.6.4-1 1-1h68.4c.6 0 1 .4 1 1v18.4c0 .6-.5 1-1 1z"/><path d="M268.2 217h53.6c.9 0 1.6.7 1.6 1.6v7.5c0 .9-.7 1.6-1.6 1.6h-53.6V217z"/><path class="st3" d="M268.2 227.8l-7.3 1.2c-.5.1-.9-.3-.9-.8v-11.6c0-.5.4-.9.9-.8l7.3 1.2v10.8z"/><path class="st4" d="M267.7 227.2l-6.6 1.1c-.4.1-.8-.3-.8-.7v-10.4c0-.4.4-.8.8-.7l6.6 1.1v9.6z"/><path class="st5" d="M311.8 226.3h-41.4c-.6 0-1-.4-1-1v-5.8c0-.6.4-1 1-1h41.4v7.8z"/><path class="st6" d="M320.6 226.3h-11.1v-7.8h11.1c.6 0 1 .4 1 1v5.8c0 .6-.5 1-1 1z"/><path class="st7" d="M309.5 218.5h2.4v7.8h-2.4z"/><path class="st8" d="M311.8 218.5l8.2 1c.4 0 .7.4.7.8v4.2c0 .4-.3.8-.7.8l-8.2 1v-7.8z"/><circle class="st9" cx="264" cy="222.4" r="1.3"/><circle class="st9" cx="264" cy="219.1" r="1.3"/><circle class="st10" cx="264" cy="225.7" r="1.3"/><circle class="st11" cx="264" cy="219.1" r="1"/><circle class="st11" cx="264" cy="222.4" r="1"/><circle class="st12" cx="264" cy="225.7" r="1"/><radialGradient id="SVGID_17_" cx="263.978" cy="222.436" r="6.006" gradientTransform="matrix(1 0 0 1.3532 0 -78.557)" gradientUnits="userSpaceOnUse"><stop offset="0" stop-color="#fff"/><stop offset="1" stop-color="#73ff3f" stop-opacity="0"/></radialGradient><ellipse cx="264" cy="222.4" rx="6.2" ry="8.5" fill="url(#SVGID_17_)"/><radialGradient id="SVGID_18_" cx="301.232" cy="221.697" r="23.528" gradientTransform="matrix(1 0 0 .2491 0 166.474)" gradientUnits="userSpaceOnUse"><stop offset="0" stop-color="#ff54ff"/><stop offset="1" stop-color="#2a85ff" stop-opacity="0"/></radialGradient><ellipse cx="301.2" cy="221.7" rx="23.3" ry="5.9" fill="url(#SVGID_18_)"/><path class="st2" d="M325.2 260h-68.4c-.6 0-1-.4-1-1v-18.4c0-.6.4-1 1-1h68.4c.6 0 1 .4 1 1V259c0 .5-.5 1-1 1z"/><path d="M268.2 244.4h53.6c.9 0 1.6.7 1.6 1.6v7.5c0 .9-.7 1.6-1.6 1.6h-53.6v-10.7z"/><path class="st3" d="M268.2 255.1l-7.3 1.2c-.5.1-.9-.3-.9-.8v-11.6c0-.5.4-.9.9-.8l7.3 1.2v10.8z"/><path class="st4" d="M267.7 254.6l-6.6 1.1c-.4.1-.8-.3-.8-.7v-10.4c0-.4.4-.8.8-.7l6.6 1.1v9.6z"/><path class="st5" d="M311.8 253.6h-41.4c-.6 0-1-.4-1-1v-5.8c0-.6.4-1 1-1h41.4v7.8z"/><path class="st6" d="M320.6 253.6h-11.1v-7.8h11.1c.6 0 1 .4 1 1v5.8c0 .6-.5 1-1 1z"/><path class="st7" d="M309.5 245.8h2.4v7.8h-2.4z"/><path class="st8" d="M311.8 245.8l8.2 1c.4 0 .7.4.7.8v4.2c0 .4-.3.8-.7.8l-8.2 1v-7.8z"/><circle class="st9" cx="264" cy="249.7" r="1.3"/><circle class="st9" cx="264" cy="246.4" r="1.3"/><circle class="st10" cx="264" cy="253.1" r="1.3"/><circle class="st11" cx="264" cy="246.4" r="1"/><circle class="st11" cx="264" cy="249.7" r="1"/><circle class="st12" cx="264" cy="253.1" r="1"/><radialGradient id="SVGID_19_" cx="263.978" cy="250.018" r="6.006" gradientTransform="matrix(1 0 0 1.3532 0 -88.298)" gradientUnits="userSpaceOnUse"><stop offset="0" stop-color="#fff"/><stop offset="1" stop-color="#73ff3f" stop-opacity="0"/></radialGradient><ellipse cx="264" cy="250" rx="6.2" ry="8.5" fill="url(#SVGID_19_)"/><radialGradient id="SVGID_20_" cx="301.232" cy="249.278" r="23.528" gradientTransform="matrix(1 0 0 .2491 0 187.185)" gradientUnits="userSpaceOnUse"><stop offset="0" stop-color="#ff54ff"/><stop offset="1" stop-color="#2a85ff" stop-opacity="0"/></radialGradient><ellipse cx="301.2" cy="249.3" rx="23.3" ry="5.9" fill="url(#SVGID_20_)"/><g><path class="st2" d="M325.2 287.3h-68.4c-.6 0-1-.4-1-1v-18.4c0-.6.4-1 1-1h68.4c.6 0 1 .4 1 1v18.4c0 .5-.5 1-1 1z"/><path d="M268.2 271.7h53.6c.9 0 1.6.7 1.6 1.6v7.5c0 .9-.7 1.6-1.6 1.6h-53.6v-10.7z"/><path class="st3" d="M268.2 282.4l-7.3 1.2c-.5.1-.9-.3-.9-.8v-11.6c0-.5.4-.9.9-.8l7.3 1.2v10.8z"/><path class="st4" d="M267.7 281.9l-6.6 1.1c-.4.1-.8-.3-.8-.7v-10.4c0-.4.4-.8.8-.7l6.6 1.1v9.6z"/><path class="st5" d="M311.8 281h-41.4c-.6 0-1-.4-1-1v-5.8c0-.6.4-1 1-1h41.4v7.8z"/><path class="st6" d="M320.6 281h-11.1v-7.8h11.1c.6 0 1 .4 1 1v5.8c0 .5-.5 1-1 1z"/><path class="st7" d="M309.5 273.2h2.4v7.8h-2.4z"/><path class="st8" d="M311.8 273.2l8.2 1c.4 0 .7.4.7.8v4.2c0 .4-.3.8-.7.8l-8.2 1v-7.8z"/><circle class="st9" cx="264" cy="277.1" r="1.3"/><circle class="st9" cx="264" cy="273.7" r="1.3"/><circle class="st10" cx="264" cy="280.4" r="1.3"/><circle class="st11" cx="264" cy="273.7" r="1"/><circle class="st11" cx="264" cy="277.1" r="1"/><circle class="st12" cx="264" cy="280.4" r="1"/><radialGradient id="SVGID_21_" cx="263.978" cy="277.34" r="6.006" gradientTransform="matrix(1 0 0 1.3532 0 -97.947)" gradientUnits="userSpaceOnUse"><stop offset="0" stop-color="#fff"/><stop offset="1" stop-color="#73ff3f" stop-opacity="0"/></radialGradient><ellipse cx="264" cy="277.3" rx="6.2" ry="8.5" fill="url(#SVGID_21_)"/><radialGradient id="SVGID_22_" cx="301.232" cy="276.601" r="23.528" gradientTransform="matrix(1 0 0 .2491 0 207.702)" gradientUnits="userSpaceOnUse"><stop offset="0" stop-color="#ff54ff"/><stop offset="1" stop-color="#2a85ff" stop-opacity="0"/></radialGradient><ellipse cx="301.2" cy="276.6" rx="23.3" ry="5.9" fill="url(#SVGID_22_)"/></g><g><path class="st2" d="M234.4 279H166c-.6 0-1-.4-1-1v-18.4c0-.6.4-1 1-1h68.4c.6 0 1 .4 1 1V278c0 .6-.5 1-1 1z"/><path d="M177.4 263.4H231c.9 0 1.6.7 1.6 1.6v7.5c0 .9-.7 1.6-1.6 1.6h-53.6v-10.7z"/><path class="st3" d="M177.4 274.2l-7.3 1.2c-.5.1-.9-.3-.9-.8V263c0-.5.4-.9.9-.8l7.3 1.2v10.8z"/><path class="st4" d="M176.9 273.6l-6.6 1.1c-.4.1-.8-.3-.8-.7v-10.4c0-.4.4-.8.8-.7l6.6 1.1v9.6z"/><path class="st5" d="M221.1 272.7h-41.4c-.6 0-1-.4-1-1v-5.8c0-.6.4-1 1-1h41.4v7.8z"/><path class="st6" d="M229.8 272.7h-11.1v-7.8h11.1c.6 0 1 .4 1 1v5.8c0 .5-.4 1-1 1z"/><path class="st7" d="M218.7 264.9h2.4v7.8h-2.4z"/><path class="st8" d="M221.1 264.9l8.2 1c.4 0 .7.4.7.8v4.2c0 .4-.3.8-.7.8l-8.2 1v-7.8z"/><circle class="st9" cx="173.2" cy="268.8" r="1.3"/><circle class="st9" cx="173.2" cy="265.5" r="1.3"/><circle class="st10" cx="173.2" cy="272.1" r="1.3"/><circle class="st11" cx="173.2" cy="265.5" r="1"/><circle class="st11" cx="173.2" cy="268.8" r="1"/><circle class="st12" cx="173.2" cy="272.1" r="1"/><radialGradient id="SVGID_23_" cx="173.272" cy="268.793" r="6.006" gradientTransform="matrix(1 0 0 1.3532 0 -94.929)" gradientUnits="userSpaceOnUse"><stop offset="0" stop-color="#fff"/><stop offset="1" stop-color="#73ff3f" stop-opacity="0"/></radialGradient><ellipse cx="173.3" cy="268.8" rx="6.2" ry="8.5" fill="url(#SVGID_23_)"/><radialGradient id="SVGID_24_" cx="210.526" cy="268.054" r="23.528" gradientTransform="matrix(1 0 0 .2491 0 201.284)" gradientUnits="userSpaceOnUse"><stop offset="0" stop-color="#ff54ff"/><stop offset="1" stop-color="#2a85ff" stop-opacity="0"/></radialGradient><ellipse cx="210.5" cy="268.1" rx="23.3" ry="5.9" fill="url(#SVGID_24_)"/></g><g><path fill="#f4f4f4" d="M301.6 348.6v-11.3h-11.3v-11.2H279v-22.6h-22.5v-11.3H234V281h-11.3v-11.3h-33.8V281h-11.3v11.2h-11.2v11.3h-11.3v-11.3h-22.5v11.3h-11.3v11.3H110v11.3H98.8v11.2H87.5v22.6h11.3v11.2H110v11.3h191.6v-11.3h11.2v-22.5z"/><path class="st38" d="M110 371.1h191.5v11.3H110z"/><path class="st38" d="M98.8 359.9h11.3v11.3H98.8zm-11.3-22.6v22.5h11.3v-22.5zm202.8 0h11.3v11.3h-11.3zM98.8 326h11.3v11.3H98.8z"/><path class="st38" d="M110 314.8h11.3v11.3H110zm45.1-11.3v-11.2h-22.5v11.2h-11.3v11.3h45.1v-11.3zm146.5 45.1v22.5h11.2v-22.5zM279 314.8v-11.3h-22.5v11.3h11.3v22.5h22.5V326H279zm-33.8-22.5H234v11.2h22.5v-11.2zm-78.8 0h11.3v11.3h-11.3zm11.2-11.3h11.3v11.3h-11.3zm45.1 0H234v11.3h-11.3zm-11.3-11.3h-22.5V281h33.8v-11.3z"/><path class="st39" d="M279 337.3h11.3v11.3H279zm-22.5-22.5h11.3v11.3h-11.3zM98.8 337.3h11.3v11.3H98.8zm0 11.3h11.3v11.3H98.8zm67.6-45.1h11.3v11.3h-11.3zm78.8 0h11.3v11.3h-11.3zm-90.1 11.3h-33.8V326h33.8v11.3h11.3v-22.5zm56.3-33.8h11.3v11.3h-11.3z"/><path class="st39" d="M290.3 348.6v11.2H279v-11.2h-11.2v11.2H234v-11.2h-56.4v-11.3h-11.2v22.5H110v11.3h191.6v-22.5z"/></g><g><path fill="#b9f416" d="M267.8 46.5V35.3h-11.3V24h-11.3V12.7h-33.8V24h-22.5V12.7h-33.8V24h-11.3v11.3h-11.2v11.2h-11.3v33.8h11.3v22.6h11.2v11.2h11.3v11.3h11.3v11.3h11.2v11.2h11.3v11.3h22.5v-11.3h11.3v-11.2H234v-11.3h11.2v-11.3h11.3v-11.2h11.3V80.3H279V46.5z"/><path class="st41" d="M211.4 136.7h11.3V148h-11.3z"/><path class="st41" d="M222.7 125.4H234v11.3h-11.3zm11.3-11.3h11.3v11.3H234z"/><path class="st41" d="M245.2 102.9h11.3v11.3h-11.3zm11.3-11.3v11.3h11.3V80.3h-11.3zm11.3-45.1v33.8H279V46.5zm-11.3-11.2h11.3v11.3h-11.3zM245.2 24h11.3v11.3h-11.3zM234 24h11.2V12.7h-33.8V24h11.3zm-45.1 123.9v11.3h22.5v-11.3h-11.2zm-11.3-11.2h11.3V148h-11.3zm-11.2-11.3h11.3v11.3h-11.3zm-11.3-11.3h11.3v11.3h-11.3z"/><path class="st41" d="M143.8 102.9h11.3v11.3h-11.3zm0-22.6h-11.2v22.6h11.2V91.6zm-11.2-22.5V46.5h-11.3v33.8h11.3V69.1zm0-22.5h11.3v11.3h-11.3zM143.8 24h11.3v11.3h-11.3zm56.4 11.3h11.2V24h-22.5v11.3zM177.6 24h11.3V12.7h-33.8V24h11.3z"/><path class="st42" d="M200.2 136.7h11.3V148h-11.3z"/><path class="st42" d="M211.4 125.4h11.3v11.3h-11.3zm11.3-11.3H234v11.3h-11.3zm22.5-33.8v11.3H234v22.5h11.2v-11.2h11.3V80.3zm11.3-33.8V35.3h-11.3v22.5h11.3v22.5h11.3V46.5zM234 24h11.3v11.3H234z"/><path d="M166.4 80.4h11.3v11.3h-11.3zm0-45.1h-11.3v11.2h-11.3v22.6h11.3v11.2h11.3V46.5h11.2V35.3zM177.6 24h11.3v11.3h-11.3z" fill="#daf7ad"/></g><path opacity=".1" fill="#fff" d="M44.3 400L160.7 0H0v400z"/><path d="M211.4 400l168-366.8c1-2.2 3.2-3.6 5.5-3.6 3.4 0 6.1 2.7 6.1 6.1V400H211.4z" opacity=".4" fill="#fff"/></svg>