<svg id="Слой_1" xmlns="http://www.w3.org/2000/svg" viewBox="0 0 500 499.5"><style>.st3{fill:#d3bb44}.st4{fill:#ead349}.st6{fill:#212121}.st7{fill:#efefef}.st8{fill:#e8b72d}.st9{fill:#e25a30}.st11{fill:#7c2109}.st12{fill:#f7c23c}.st13{fill:#d2e1ff}.st14{fill:#fff}.st21{fill:#b29e3b}.st22{fill:#d1b028}</style><path fill="#29c5ef" d="M0-.2h500v500H0z"/><linearGradient id="SVGID_1_" gradientUnits="userSpaceOnUse" x1="-515.014" y1="60.64" x2="-362.528" y2="222.328" gradientTransform="matrix(2.16 0 0 2.16 1278.4 9.76)"><stop offset="0" stop-opacity=".3"/><stop offset="1" stop-opacity="0"/></linearGradient><path d="M393 53.6l-289.9 116 52.3 52.3h24.3l-71.6 192.7 85.9 85.2h306v-340L393 53.6z" fill="url(#SVGID_1_)"/><path d="M365.8 75.9c-1.8 0-237.4 45.5-237.4 45.5-9.7.8-17.4 11.9-17.4 25.4 0 14.1 8.3 25.5 18.5 25.5h.5c1.4-.1 2.8-.3 4.1-.8 0 0 231.4-44.6 231.6-44.7 12.9-1.8 20.1-10.7 18.5-25.5-1.3-14-8.2-25.4-18.4-25.4z" fill="#b5b5b4"/><ellipse class="st3" cx="371.5" cy="89.4" rx="33.4" ry="45.9"/><ellipse class="st3" cx="371.5" cy="329.8" rx="33.4" ry="45.9"/><ellipse class="st4" cx="366.7" cy="90.3" rx="33.4" ry="45.9"/><path d="M363.1 53.4h-.5c-2.2.1-4.4.4-6.5 1.1L130 94.4c19.6 5.9 31.2 19.4 34.2 41.2 6.8 11.6 0 77.6-23.5 122C99.3 315.9 97 375.2 97 375.2l236.3-45.5c-8-57.1 28.5-116.8 28.5-116.8 17.7-40.5 26.7-62.4 30.3-99 0 0 .9-14.6.9-19.6 0-22.6-13.4-40.9-29.9-40.9z" fill="#f9f9f9"/><ellipse class="st4" cx="366.7" cy="330.1" rx="33.4" ry="45.9"/><path class="st6" d="M278 298.9l-53.8 10.5c-.8.1-1.2.9-1.1 1.6l.4 2c.1.8.9 1.2 1.6 1.1l53.3-10.4c.6-.1 1.1-.7 1.1-1.3v-2.1c.2-.9-.6-1.5-1.5-1.4zm-28.7-12.6l-.3-1.6c-.2-.9-1-1.4-1.9-1.3l-26.6 5.3c-.7.2-1.3.8-1.3 1.6v1.6c0 1 .9 1.8 1.9 1.6l27-5.4c.8-.1 1.4-.9 1.2-1.8zm44-2.1l-70.7 14.1c-.7.1-1.3.8-1.3 1.6v1.6c0 1 .9 1.8 1.9 1.6l70.7-14.1c.7-.1 1.3-.8 1.3-1.6v-1.6c.1-1-.9-1.8-1.9-1.6z"/><path class="st7" d="M192.7 312.3c-1.8-1-3.2-2.8-3.5-5-.6-3.9 2.2-7.6 6.2-8.3 4-.7 7.7 1.9 8.3 5.8.3 2.4-.6 4.8-2.4 6.4 6.1-.1 11.1 1.6 12.8 4.2 1.5-2.6 2.2-5.4 1.8-8.3-1.2-8.3-10.9-13.4-21.8-11.6-10.8 1.9-18.7 10.1-17.5 18.4.4 2.7 1.7 5.1 3.7 7 .6-3.4 5.6-6.9 12.4-8.6z"/><path class="st6" d="M198.4 325.5c7.1-1.2 12.9-5.2 15.7-10.1-1.7-2.7-6.6-4.3-12.8-4.2 1.7-1.6 2.7-4 2.4-6.4-.6-3.9-4.3-6.5-8.3-5.8-4 .7-6.8 4.4-6.2 8.3.3 2.2 1.7 4 3.5 5-6.9 1.7-11.9 5.2-12.4 8.6 4.1 3.9 10.8 5.8 18.1 4.6z"/><g id="header"><path class="st8" d="M181.7 156.9l199.7-39.8c.5 5 1 16.5-1 19.4l-200.7 39.8c1.8-7.6 2-13.7 2-19.4z"/><path class="st9" d="M298 133.6l-35.9 7.1c.5 6.5.5 12.9 0 19l35.9-7.1c.7-5.8.6-12.2 0-19z"/><path d="M337.8 125.9l-34.4 6.8-1.5.3c.5 6.5.5 12.9 0 19l.3-.1 35.6-7.1c.6-5.8.6-12.2 0-18.9zm39.7-7.8l-34.4 6.8-1.5.3c.5 6.5.5 12.9 0 19l.3-.1 35.6-7.1c.7-5.8.7-12.1 0-18.9z" fill="#f4bd31"/><path class="st11" d="M289.3 150.1l-18.4 3.9v-5.6c0-.7.4-1.4 1-1.8l7-4.8c.5-.3 1-.4 1.6-.3l7.2 1.4c1 .2 1.7 1.1 1.7 2.1l-.1 5.1z"/><path class="st11" d="M268.9 147.2l10.1-6.4c.3-.2.8-.3 1.2-.2l9.1 1.8v-1l-9.1-1.8c-.4-.1-.8 0-1.2.2l-10.1 6.4v1"/></g><g id="slaid"><path class="st9" d="M176.7 194.4c-6.1 29-15.4 52.6-28.7 74.9-.4.8.2 1.7 1.1 1.5l192.2-43c.3-.1.5-.2.6-.5 12.9-21.6 24.8-47.3 33.2-72.6.2-.7-.4-1.4-1.2-1.3l-196.4 40.2c-.4.1-.7.4-.8.8z"/><path class="st12" d="M169.6 232.1l7.2-6.5c.8-.7 2 .1 1.6 1.1l-4.6 13.1c-.3.9-1.5.9-1.9 0l-2.6-6.5c-.1-.5 0-1 .3-1.2z"/><path class="st8" d="M168.6 232.1l7.2-6.5c.8-.7 2 .1 1.6 1.1l-4.6 13.1c-.3.9-1.5.9-1.9 0l-2.6-6.5c-.1-.5 0-1 .3-1.2z"/><path class="st12" d="M354.5 196.3l-7.9 6.1c-.9.7-2-.3-1.5-1.3l6.1-13.3c.4-.9 1.6-.8 1.9.2l1.8 7.2c.1.3-.1.8-.4 1.1z"/><path class="st8" d="M355.5 196.3l-7.9 6.1c-.9.7-2-.3-1.5-1.3l6.1-13.3c.4-.9 1.6-.8 1.9.2l1.8 7.2c.1.3-.1.8-.4 1.1z"/><path class="st13" d="M284.8 220.5c-1.2-5.2 3.7-10.8 11-12.4 2.1-.5 4.2-.5 6.1-.3.1-4.7 4.7-9.2 11.1-10.6 7.2-1.6 14 1.3 15.2 6.5.1.2.1.5.1.7 4.9-.2 9.2 2.1 10 5.8 1 4.3-3.1 8.9-9.1 10.3-.1 0-.3 0-.4.1l-29.9 6.7c-6.8 1-13-1.9-14.1-6.8z"/><path class="st14" d="M289.8 220.2c-.9-4 3.5-8.3 9.7-9.7 1.8-.4 3.6-.5 5.2-.4.2-3.6 4.3-7.1 9.8-8.4 6.2-1.4 12 .7 12.9 4.7 0 .2.1.4.1.6 4.2-.3 7.8 1.4 8.4 4.2.7 3.3-2.9 6.9-8 8.1-.1 0-.2 0-.3.1l-25.8 5.8c-5.9.8-11.2-1.2-12-5z"/><path d="M236.7 185.6l7.1 9.6c.5.6.2 1.5-.6 1.8l-11.4 3.5c-1 .3-1.1 1.7-.1 2.1l11 4.7c.7.3.9 1.3.4 1.8l-8.1 8.8c-.7.8-.1 2 1 1.9l11.9-1.4c.8-.1 1.4.6 1.2 1.4l-2.7 11.7c-.2 1 .9 1.8 1.8 1.2l9.6-7.1c.6-.5 1.5-.2 1.8.6l3.5 11.4c.3 1 1.7 1.1 2.1.1l4.7-11c.3-.7 1.3-.9 1.8-.4l8.8 8.1c.8.7 2 .1 1.9-1l-1.4-11.9c-.1-.8.6-1.4 1.4-1.2l11.7 2.7c1 .2 1.8-.9 1.2-1.8l-7.1-9.6c-.5-.6-.2-1.5.6-1.8l11.4-3.5c1-.3 1.1-1.7.1-2.1l-11-4.7c-.7-.3-.9-1.3-.4-1.8l8.1-8.8c.7-.8.1-2-1-1.9l-11.9 1.4c-.8.1-1.4-.6-1.2-1.4l2.7-11.7c.2-1-.9-1.8-1.8-1.2l-9.6 7.1c-.6.5-1.5.2-1.8-.6l-1.6-5.1c-.2-.6-.7-.9-1.3-.8l-5.1 1c-.4.1-.7.3-.8.7L262 180c-.3.7-1.3.9-1.8.4l-2.9-2.7c-.3-.3-.6-.4-1-.3l-5.1 1c-.6.1-1 .7-.9 1.3l.6 5.4c.1.8-.6 1.4-1.4 1.2l-11.7-2.7c-1 0-1.7 1.1-1.1 2z" fill="#efa04b"/><path d="M240.6 188.4l6.2 8.3c.4.5.2 1.3-.5 1.5l-9.9 3.1c-.9.3-.9 1.5-.1 1.9l9.5 4.1c.6.3.8 1.1.3 1.6l-7 7.6c-.6.7-.1 1.8.8 1.7l10.3-1.2c.7-.1 1.2.5 1.1 1.2l-2.3 10.1c-.2.9.8 1.6 1.6 1l8.3-6.2c.5-.4 1.3-.2 1.5.5l3.1 9.9c.3.9 1.5.9 1.9.1l4.1-9.5c.3-.6 1.1-.8 1.6-.3l7.6 7c.7.6 1.8.1 1.7-.8l-1.2-10.3c-.1-.7.5-1.2 1.2-1.1l10.1 2.3c.9.2 1.6-.8 1-1.6l-6.2-8.3c-.4-.5-.2-1.3.5-1.5l9.9-3.1c.9-.3.9-1.5.1-1.9l-9.5-4.1c-.6-.3-.8-1.1-.3-1.6l7-7.6c.6-.7.1-1.8-.8-1.7l-10.3 1.2c-.7.1-1.2-.5-1.1-1.2l2.3-10.1c.2-.9-.8-1.6-1.6-1l-8.3 6.2c-.5.4-1.3.2-1.5-.5l-1.4-4.4c-.2-.5-.8-4.4-1.3-4.3l-3.9 1c-.3.1-1 3.9-1.1 4.2l-1.4 3.2c-.3.6-1.1.8-1.6.3l-2.6-2.4c-.2-.2-2.8-3.4-3.1-3.3l-3.1 1.1c-.5.1.1 3.5.2 4l.5 4.7c.1.7-.5 1.2-1.2 1.1l-10.1-2.3c-.8-.4-1.5.6-1 1.4z" fill="#edb74c"/><ellipse transform="rotate(-11.613 265.879 203.548)" cx="265.9" cy="203.5" rx="18.5" ry="16.1" fill="#efe526"/><path d="M274.6 213.4c-8.9 1.8-17.4-3-19-10.7-.9-4.3.5-8.5 3.5-11.8-6.8 2.9-10.9 9.5-9.5 16.1 1.6 7.7 10.1 12.5 19 10.7 4-.8 7.4-2.8 9.8-5.5-1.3.5-2.5.9-3.8 1.2z" fill="#f9ec53"/><path class="st13" d="M256.4 215.4c-1.5-6.6-10.1-10.3-19.3-8.2-2.7.6-5.1 1.6-7.1 2.9-2.7-5.2-10.4-7.9-18.5-6.1-9.1 2.1-15.3 9.1-13.8 15.7l.3.9c-5.8 2.4-9.3 7.3-8.3 12 1.2 5.5 8.4 8.5 16 6.8.2 0 .3-.1.5-.1l37.8-8.6v-.1c8.4-2.3 13.9-8.9 12.4-15.2z"/><path class="st14" d="M254 216.2c-1.2-5.4-8.6-8.3-16.5-6.5-2.3.5-4.4 1.4-6.1 2.5-2.3-4.2-8.8-6.3-15.8-4.7-7.9 1.8-13.3 7.6-12.1 13 .1.3.1.5.2.7-5 2-8.1 6.1-7.3 9.9 1 4.4 7.1 6.8 13.7 5.4.1 0 .3-.1.4-.1l32.6-7.4c7.2-2.2 12-7.7 10.9-12.8z"/></g><path d="M130 94.4c19.6 5.9 31.2 19.4 34.2 41.2 6.8 11.6 0 77.6-23.5 122C99.3 315.9 97 375.2 97 375.2l236.3-45.5c-212.7-7-83.8-218.4-203.3-235.3z" opacity=".09"/><path class="st14" d="M362.9 303.7c-1.8 0-237.4 45.5-237.4 45.5-9.7.8-17.4 11.9-17.4 25.4 0 14.1 8.3 25.5 18.5 25.5h.5c1.4-.1 2.8-.3 4.1-.8 0 0 231.4-44.6 231.6-44.7 12.9-1.8 20.1-10.7 18.5-25.5-1.3-13.9-8.2-25.4-18.4-25.4z"/><path d="M110.2 387.8c3.6 6.7 9 11.4 15.4 11.4h.5c1.4-.1 2.8-.3 4.1-.8 0 0 231.4-44.6 231.6-44.7 11.6-1.6 19-9 18.7-21.1.1-1.2-272.3 51.4-270.3 55.2z" fill="#f2f2f2"/><path class="st7" d="M362.9 305.7c-1.7.5-237.4 45.5-237.4 45.5-5.9.5-8.7 3.4-13.6 8.4-.4.4 259.5-50.5 259.7-50.7.2-.4-5.5-4.3-8.7-3.2z"/><ellipse class="st21" cx="130.4" cy="135.4" rx="33.4" ry="45.9"/><ellipse class="st22" cx="126.6" cy="136.4" rx="33.4" ry="45.9"/><ellipse class="st21" cx="130.4" cy="375.6" rx="33.4" ry="45.9"/><ellipse class="st22" cx="126.6" cy="375.8" rx="33.4" ry="45.9"/><ellipse class="st8" cx="261.8" cy="254.7" rx="3.5" ry="4.2"/><ellipse class="st8" cx="276.2" cy="251.9" rx="3.5" ry="4.2"/><ellipse class="st9" cx="247.5" cy="257.9" rx="3.5" ry="4.2"/><path d="M298.1 27.9l100.7 471.9H485V26c0-5-4-9-9-9H306.9c-5.7 0-10 5.3-8.8 10.9z" opacity=".27" fill="#fff"/><path d="M57.3 32.9L244 499.8H0V17l34.2.2c10.1 0 19.3 6.2 23.1 15.7z" opacity=".09" fill="#fff"/></svg>