<svg id="Слой_1" xmlns="http://www.w3.org/2000/svg" viewBox="0 0 500 499.5"><style>.st4{fill:#494747}.st7{fill:#e2dd2b}.st11{fill:#ed993e}.st18{fill:#e8df3d}.st19{fill:#c4ba05}</style><path fill="#ea4242" d="M0-.2h500v500H0z"/><linearGradient id="SVGID_1_" gradientUnits="userSpaceOnUse" x1="-102.009" y1="211.867" x2="214.594" y2="-110.705" gradientTransform="matrix(1.12 0 0 -1.12 262.52 363.32)"><stop offset="0" stop-opacity=".3"/><stop offset="1" stop-opacity="0"/></linearGradient><path d="M369.1 200.1H179.5L120.3 141l-31.2 33.4v142l72.4 72.4v9.1l101.6 101.6H500V226L366.4 92.4l2.7 107.7z" fill="url(#SVGID_1_)"/><path d="M410.6 355.2l-184.4 39.6c-8.7 1.9-17.3-3.7-19.2-12.4l-50.3-233.9c-1.9-8.7 3.7-17.3 12.4-19.2l184.4-39.6c8.7-1.9 17.3 3.7 19.2 12.4L423 336c1.9 8.7-3.7 17.3-12.4 19.2z" fill="#ce4e4e"/><path d="M390.5 376.2l-187.2 23.3c-8.9 1.1-16.9-5.2-18-14l-29.5-237.4c-1.1-8.9 5.2-16.9 14-18L357 106.7c8.9-1.1 16.9 5.2 18 14l29.5 237.4c1.1 8.9-5.1 17-14 18.1z" fill="#aa4848"/><path class="st4" d="M360.5 400.7H171.9c-8.9 0-16.2-7.2-16.2-16.2V145.3c0-8.9 7.2-16.2 16.2-16.2h188.6c8.9 0 16.2 7.2 16.2 16.2v239.2c-.1 8.9-7.3 16.2-16.2 16.2z"/><path d="M360.5 400.7H171.9c-8.9 0-16.2-7.2-16.2-16.2V158.2h220.9v226.3c0 8.9-7.2 16.2-16.1 16.2z" fill="#efefef"/><circle cx="189.1" cy="144.2" r="6.5" fill="#e52929"/><circle class="st7" cx="209.6" cy="144.2" r="6.5"/><circle cx="230.1" cy="144.2" r="6.5" fill="#35e22b"/><path fill="#cecece" d="M155.7 158.2h220.9V180H155.7z"/><path fill="#f2f2f2" stroke="#111" stroke-miterlimit="10" d="M163.3 161.4h205.8v15.4H163.3z"/><circle class="st11" cx="169.7" cy="141" r="6.5"/><path fill="none" d="M163.3 161.4h65.4v15.1h-65.4z"/><path d="M170.1 164.4h1.1v3.9c.2-.3.5-.6.8-.8s.7-.3 1.2-.3c.8 0 2.2.5 2.2 2.7v3.7h-1.1V170c0-1-.4-1.9-1.4-1.9-.7 0-1.3.5-1.5 1.1-.1.2-.1.3-.1.5v3.8h-1.1l-.1-9.1zm8.5 1.1v1.8h1.6v.9h-1.6v3.4c0 .8.2 1.2.9 1.2.3 0 .5 0 .7-.1l.1.9c-.2.1-.6.2-1 .2-.5 0-1-.2-1.2-.5-.3-.3-.4-.9-.4-1.6v-3.4h-1v-.9h1v-1.5l.9-.4zm4.3 0v1.8h1.6v.9h-1.6v3.4c0 .8.2 1.2.9 1.2.3 0 .5 0 .7-.1l.1.9c-.2.1-.6.2-1 .2-.5 0-1-.2-1.2-.5-.3-.3-.4-.9-.4-1.6v-3.4h-1v-.9h1v-1.5l.9-.4zm2.9 3.8c0-.8 0-1.4-.1-2h1l.1 1.1c.5-.8 1.2-1.2 2.2-1.2 1.5 0 2.6 1.3 2.6 3.2 0 2.2-1.4 3.4-2.8 3.4-.8 0-1.5-.4-1.9-1v3.4h-1.1v-6.9zm1.1 1.7c0 .2 0 .3.1.5.2.8.9 1.3 1.7 1.3 1.2 0 1.9-1 1.9-2.4 0-1.3-.7-2.3-1.9-2.3-.8 0-1.5.6-1.7 1.4 0 .1-.1.3-.1.5v1zm6.1 1.4c.3.2.9.5 1.5.5.8 0 1.2-.4 1.2-.9s-.3-.8-1.2-1.2c-1.1-.4-1.7-1-1.7-1.8 0-1 .8-1.8 2.2-1.8.6 0 1.2.2 1.5.4l-.3.8c-.2-.2-.7-.4-1.3-.4-.7 0-1 .4-1 .9s.4.7 1.2 1.1c1.1.4 1.6 1 1.6 1.9 0 1.1-.9 1.9-2.3 1.9-.7 0-1.3-.2-1.8-.4l.4-1zm5-4.1c0-.5.3-.8.8-.8s.8.3.8.8-.3.8-.8.8-.8-.3-.8-.8zm0 4.6c0-.5.3-.8.8-.8s.8.3.8.8-.3.8-.8.8-.8-.3-.8-.8zm2 1.2l3.6-9.4h.9l-3.6 9.4h-.9zm4.4 0l3.6-9.4h.9l-3.6 9.4h-.9zm5.9-6.8l.8 3.2c.2.7.3 1.3.5 2 .1-.6.3-1.3.6-2l1-3.2h1l1 3.1c.2.7.4 1.4.6 2 .1-.6.3-1.3.5-2l.9-3.1h1.1l-2 6.3h-1l-1-3c-.2-.7-.4-1.3-.6-2.1-.2.7-.3 1.4-.6 2.1l-1 3h-1l-1.9-6.3h1.1zm9.7 0l.8 3.2c.2.7.3 1.3.5 2 .1-.6.3-1.3.6-2l1-3.2h1l1 3.1c.2.7.4 1.4.6 2 .1-.6.3-1.3.5-2l.9-3.1h1.1l-2 6.3h-1l-1-3c-.2-.7-.4-1.3-.6-2.1-.2.7-.3 1.4-.6 2.1l-1 3h-1l-1.9-6.3h1.1zm9.6 0l.8 3.2c.2.7.3 1.3.5 2 .1-.6.3-1.3.6-2l1-3.2h1l1 3.1c.2.7.4 1.4.6 2 .1-.6.3-1.3.5-2l.9-3.1h1.1l-2 6.3h-1l-1-3c-.2-.7-.4-1.3-.6-2.1-.2.7-.3 1.4-.6 2.1l-1 3h-1l-1.9-6.3h1.1zm8.3 5.6c0-.5.3-.8.8-.8s.8.3.8.8-.3.8-.8.8-.8-.3-.8-.8zm5.4 0c0-.5.3-.8.8-.8s.8.3.8.8-.3.8-.8.8c-.4 0-.8-.3-.8-.8zm2.7 0c0-.5.3-.8.8-.8s.8.3.8.8-.3.8-.8.8-.8-.3-.8-.8zm5.4 0c0-.5.3-.8.8-.8s.8.3.8.8-.3.8-.8.8-.8-.3-.8-.8zm3-3.6c0-.7 0-1.4-.1-2h1v1.2h.1c.3-.8 1-1.4 1.7-1.4h.3v1.1h-.4c-.8 0-1.4.6-1.5 1.5 0 .2-.1.3-.1.5v3.3h-1.1v-4.2h.1zm9.4 2.6c0 .6 0 1.2.1 1.7h-1l-.1-1c-.3.5-1 1.2-2.1 1.2-1 0-2.2-.5-2.2-2.7v-3.7h1.1v3.5c0 1.2.4 2 1.4 2 .8 0 1.3-.5 1.5-1 .1-.2.1-.4.1-.6v-3.8h1.1l.1 4.4z"/><path fill="#5390f2" d="M163.3 187.3h205.8v47.4H163.3z"/><path d="M358.3 393.1H174c-6 0-10.8-4.8-10.8-10.8v-16.2H369v16.2c.1 6-4.7 10.8-10.7 10.8z" fill="#26dbb8"/><path fill="#2662db" d="M213.9 242.3h105.6v70H213.9z"/><path d="M163.3 242.3h42v70h-42zm163.8 0h42v70h-42z" fill="#dba326"/><path d="M163.3 319.8h99.1v38.8h-99.1zm106.6 0H369v38.8h-99.1z" fill="#26db62"/><path class="st18" d="M132.7 170.1c0-22.4-18.2-40.6-40.6-40.6s-40.6 18.2-40.6 40.6c0 16.7 10.1 31 24.5 37.3v85.5c0 14.9 12.1 27 27 26.9 2.9 0 5.3-2.4 5.3-5.4v-4.3l-7.1-7.1c-1.4-1.4-.4-3.7 1.5-3.7h5.6c0-2.1-.8-4.1-2.3-5.5l-6.7-6.7c-.7-.7-.2-1.8.8-1.8h4.9c1.8 0 3.2-1.4 3.2-3.2l-7.1-7.1c-1.4-1.4-.4-3.7 1.5-3.7h5.6c0-2.1-.8-4.1-2.3-5.5l-6.7-6.7c-.7-.7-.2-1.8.8-1.8h3.9c2.4 0 4.3-1.9 4.3-4.3l-7.1-7.1c-1.4-1.4-.4-3.7 1.5-3.7h5.6c0-2.8-1.1-5.4-3-7.4l-5.9-5.9c-.7-.7-.2-1.8.8-1.8h8.2v-19.8c14.4-6.2 24.4-20.5 24.4-37.2z"/><path class="st19" d="M58.7 170.1c0-18.5 15-23.7 33.4-23.7s33.4 5.3 33.4 23.7-15 33.4-33.4 33.4-33.4-15-33.4-33.4z"/><path class="st19" d="M84.6 311.2l-4.3-5.4v-112h4.3zm8.6 5.4l-4.3-2.1V199.2h4.3zm4.3-120.7h7.5v28h-7.5z"/><path class="st18" d="M61.9 172.3c0-16 13.5-20.6 30.3-20.6s30.3 4.6 30.3 20.6-13.5 29-30.3 29-30.3-13-30.3-29z"/><ellipse class="st19" cx="91" cy="138.8" rx="12.9" ry="5.4"/><ellipse class="st11" cx="91" cy="139.3" rx="11.6" ry="4.8"/><path d="M134.7 110.1c-21.5-3.6-40.8 5.1-43.2 19.5-2.4 14.4 13 29 34.5 32.6s40.8-5.1 43.2-19.5c2.5-14.5-13-29-34.5-32.6zm29.7 31.7c-2.1 12.6-19 20.2-37.8 17.1S94.3 143 96.4 130.4s19-20.2 37.8-17.1c18.8 3.2 32.3 15.9 30.2 28.5z" fill="#6b6b6a"/><path d="M134.7 107.9c-21.5-3.6-40.8 5.1-43.2 19.5-2.4 14.4 13 29 34.5 32.6s40.8-5.1 43.2-19.5c2.5-14.4-13-29-34.5-32.6zm29.7 31.7c-2.1 12.6-19 20.2-37.8 17.1s-32.3-15.9-30.2-28.5c2.1-12.6 19-20.2 37.8-17.1 18.8 3.2 32.3 16 30.2 28.5z" fill="#9b9b9a"/><path class="st7" d="M91.3 129.5s2.3-.2 5.3.2l.1 4.2c.1-.1-4.4-.5-5.6-.5-1.1 0 .2-3.9.2-3.9z"/><path class="st19" d="M91.1 134.5l-.1-1.1c.1 0 3.9 0 5.7.6l.1 1.2c.1 0-4.5-.7-5.7-.7z"/><path class="st4" d="M164.4 137.3s1.4-2.8 5-2.8l-.8-5.1c-1.1.1-5.4 1.8-6.3 2.8-1 1.4 2.1 5.1 2.1 5.1z"/><path d="M306.4 16.3l109.9 483.2H500V9.9l-188.7.2c-3.2.1-5.6 3-4.9 6.2zm-112.1-2.6l135 469.4c.9 3.2-1.5 6.4-4.8 6.4h-30.2c-2 0-3.8-1.2-4.6-3L83.3 17c-1.5-3.3 1-7 4.6-7h101.6c2.2 0 4.2 1.5 4.8 3.7z" opacity=".17" fill="#fff"/><path d="M223.6 499.5L23.4 283.7c-3.1-3.3-8.7-1.1-8.7 3.4v212.7l208.9-.3z" opacity=".13" fill="#fff"/></svg>