<svg id="Слой_1" xmlns="http://www.w3.org/2000/svg" viewBox="0 0 400 400"><style>.st1{fill:#9b9b9b}.st2{fill:#dbd9d9}.st3{fill:#f7f7f7}.st4{fill:#bfbfbf}.st5{fill:#7aa2dd}.st6{fill:#dd7a7a}.st7{fill:#79e0d6}.st8{fill:none;stroke:#ea1c1c;stroke-width:2;stroke-linecap:round;stroke-linejoin:round;stroke-miterlimit:10}</style><path fill="#fff" d="M0 0h400v400H0z"/><path class="st1" d="M25.3 38.7h104V176h-104zm0 189.9h104v137.3h-104z"/><path class="st2" d="M148 38.7h104V176H148z"/><path class="st1" d="M148 228.6h104v137.3H148z"/><path class="st2" d="M273.2 38.7h104V176h-104z"/><path class="st1" d="M273.2 228.6h104v137.3h-104z"/><path class="st3" d="M25.3 38.7h104v8.7h-104zm68.5 13.6h30.3v33.3H93.8z"/><path class="st4" d="M102 78.3h13.9c.6 0 1 .4 1 1v1.5c0 .6-.4 1-1 1H102c-.6 0-1-.4-1-1v-1.5c0-.6.4-1 1-1zm-3.4-20.5h20.5c.6 0 1 .4 1 1v1.5c0 .6-.4 1-1 1H98.6c-.6 0-1-.4-1-1v-1.5c0-.6.5-1 1-1zm.1 8.7h20.5c.6 0 1 .4 1 1V69c0 .6-.4 1-1 1H98.7c-.6 0-1-.4-1-1v-1.5c0-.6.4-1 1-1z"/><path class="st5" d="M31 52.3h56.7v33.3H31z"/><path class="st6" d="M25.3 91.5h104v24h-104z"/><path class="st3" d="M63.7 122.5h26c.6 0 1 .4 1 1v31.3c0 .6-.4 1-1 1h-26c-.6 0-1-.4-1-1v-31.3c0-.6.4-1 1-1zm-33 0h26c.6 0 1 .4 1 1v31.3c0 .6-.4 1-1 1h-26c-.6 0-1-.4-1-1v-31.3c0-.6.4-1 1-1zm67.3 0h26c.6 0 1 .4 1 1v31.3c0 .6-.4 1-1 1H98c-.6 0-1-.4-1-1v-31.3c0-.6.4-1 1-1z"/><path class="st2" d="M25.4 162.9h104.3V176H25.4z"/><path class="st5" d="M110.8 41.3h12.4c1 0 1.8.8 1.8 1.8s-.8 1.8-1.8 1.8h-12.4c-1 0-1.8-.8-1.8-1.8.1-1.1.8-1.8 1.8-1.8z"/><path class="st6" d="M86.8 41.3h12.4c1 0 1.8.8 1.8 1.8s-.8 1.8-1.8 1.8H86.8c-1 0-1.7-.8-1.7-1.8 0-1.1.8-1.8 1.7-1.8z"/><path class="st7" d="M63 41.2h12.4c1 0 1.8.8 1.8 1.8s-.8 1.7-1.8 1.7H63c-1 0-1.8-.8-1.8-1.7 0-1 .8-1.8 1.8-1.8z"/><path class="st1" d="M45.5 38.7h.3v8.7h-.3z"/><path class="st2" d="M54.8 94h43.9v1.8H54.8zM31 98.7h18.3v1.8H31zm19.6 0H80v1.8H50.6zm30.4 0h13.2v1.8H81zm-50 3.5h14v1.8H31zm15.3 0h41.4v1.8H46.3zm42.8 0h18.3v1.8H89.1zM31 105.7h34.2v1.8H31zm35.8 0h17.7v1.8H66.8zM31 109.1h18.3v1.8H31zm19.6 0H80v1.8H50.6zm30.4 0h13.2v1.8H81z"/><path class="st8" d="M117 43h31"/><path class="st5" d="M233.5 41.3h12.4c1 0 1.8.8 1.8 1.8s-.8 1.8-1.8 1.8h-12.4c-1 0-1.8-.8-1.8-1.8 0-1.1.8-1.8 1.8-1.8zm-24 0h12.4c1 0 1.8.8 1.8 1.8s-.8 1.8-1.8 1.8h-12.4c-1 0-1.8-.8-1.8-1.8.1-1.1.8-1.8 1.8-1.8zm-23.9-.1H198c1 0 1.8.8 1.8 1.8s-.8 1.7-1.8 1.7h-12.4c-1 0-1.8-.8-1.8-1.7.1-1 .9-1.8 1.8-1.8zM148 38.7h20.3v8.7H148zm5.8 13.6h92.3v33h-92.3z"/><path class="st4" d="M156.1 91.5h22v1.8h-22zm0 7.2h18.3v1.8h-18.3zm19.6 0h29.4v1.8h-29.4zm-19.6 3.5h14v1.8h-14zm15.3 0h41.4v1.8h-41.4zm-15.3 3.5h34.2v1.8h-34.2zm35.8 0h17.7v1.8h-17.7zm-35.8 3.4h18.3v1.8h-18.3zm19.6 0h29.4v1.8h-29.4z"/><path class="st1" d="M148 167.5h104v8.5H148z"/><path class="st8" d="M93 43V32.3h42.2V222H93v6.6"/><path class="st2" d="M25.3 228.6h104v8.7h-104z"/><path class="st6" d="M110.8 231.2h12.4c1 0 1.8.8 1.8 1.8s-.8 1.8-1.8 1.8h-12.4c-1 0-1.8-.8-1.8-1.8.1-1 .8-1.8 1.8-1.8zm-24 0h12.4c1 0 1.8.8 1.8 1.8s-.8 1.8-1.8 1.8H86.8c-1 0-1.7-.8-1.7-1.8s.8-1.8 1.7-1.8zm-23.8 0h12.4c1 0 1.8.8 1.8 1.7 0 1-.8 1.8-1.8 1.8H63c-1 0-1.8-.8-1.8-1.8s.8-1.7 1.8-1.7zm-37.7-2.6h20.3v8.7H25.3zm6.2 73.7h90.8v31.2H31.5zm0-60h90.8v31.2H31.5z"/><path class="st2" d="M35.5 248.7h22v1.8h-22zm0 7.1h18.3v1.7H35.5zm19.5 0h29.4v1.7H55zm-19.5 3.5h14v1.8h-14zm15.3 0h41.4v1.8H50.8zm-15.3 3.5h34.2v1.8H35.5zm35.7 0h17.7v1.8H71.2zm-35.7 3.5h18.3v1.8H35.5zm19.5 0h29.4v1.8H55zM95 278h22v1.8H95zm3.7 7.1H117v1.8H98.7zm-30.6 0h29.4v1.8H68.1zm34.9 3.5h14v1.8h-14zm-42.7 0h41.4v1.8H60.3zm22.5 3.5H117v1.8H82.8zm-19.2 0h17.7v1.8H63.6zm35.1 3.4H117v1.8H98.7zm-30.6 0h29.4v1.8H68.1zm-32.9 11.8h22v1.8h-22zm0 7.1h18.3v1.8H35.2zm19.6 0h29.4v1.8H54.8zm-19.6 3.5h14v1.8h-14zm15.3 0h41.4v1.8H50.5zm-15.3 3.5h34.2v1.8H35.2zm35.8 0h17.7v1.8H71zm-35.8 3.4h18.3v1.8H35.2zm19.6 0h29.4v1.8H54.8zM95 337h22v1.8H95zm3.7 7.1H117v1.8H98.7zm-30.6 0h29.4v1.8H68.1zm34.9 3.5h14v1.8h-14zm-42.7 0h41.4v1.8H60.3zm22.5 3.5H117v1.8H82.8zm-19.2 0h17.7v1.8H63.6zm35.1 3.4H117v1.8H98.7zm-30.6 0h29.4v1.8H68.1z"/><circle class="st3" cx="108.3" cy="259.3" r="8.7"/><circle class="st3" cx="108.5" cy="317.9" r="8.7"/><circle class="st3" cx="43.9" cy="288.6" r="8.7"/><circle class="st3" cx="44.1" cy="347.6" r="8.7"/><path class="st8" d="M69 43V27h73v195.3h57.8v6.3"/><path class="st4" d="M104 148.2h13.9c.6 0 1 .4 1 1v1.5c0 .6-.4 1-1 1H104c-.6 0-1-.4-1-1v-1.5c0-.6.5-1 1-1zm-34.3 0h13.9c.6 0 1 .4 1 1v1.5c0 .6-.4 1-1 1H69.7c-.6 0-1-.4-1-1v-1.5c0-.6.5-1 1-1zm-33 0h13.9c.6 0 1 .4 1 1v1.5c0 .6-.4 1-1 1H36.7c-.6 0-1-.4-1-1v-1.5c0-.6.5-1 1-1z"/><path class="st7" d="M97 125h28v18.7H97zm-34.3 0h28v18.7h-28zm-33 0h28v18.7h-28zm203.8 106.2h12.4c1 0 1.8.8 1.8 1.8s-.8 1.8-1.8 1.8h-12.4c-1 0-1.8-.8-1.8-1.8s.8-1.8 1.8-1.8zm-24 0h12.4c1 0 1.8.8 1.8 1.8s-.8 1.8-1.8 1.8h-12.4c-1 0-1.8-.8-1.8-1.8.1-1 .8-1.8 1.8-1.8zm-23.9 0H198c1 0 1.8.8 1.8 1.8s-.8 1.8-1.8 1.8h-12.4c-1 0-1.8-.8-1.8-1.8.1-1.1.9-1.8 1.8-1.8zm-37.6-2.6h20.3v8.7H148z"/><path class="st2" d="M158.6 242.3h43.9v1.8h-43.9zm0 4.7h18.3v1.8h-18.3zm19.6 0h29.4v1.8h-29.4zm30.4 0h13.2v1.8h-13.2z"/><path class="st3" d="M148 254h34.2v27.6H148z"/><path class="st7" d="M182.9 254h34.2v27.6h-34.2z"/><path class="st3" d="M217.8 254H252v27.6h-34.2zM148 282.6h34.2v27.6H148zm34.9 0h34.2v27.6h-34.2zm34.9 0H252v27.6h-34.2zM148 311h34.2v27.6H148zm34.9 0h34.2v27.6h-34.2zm34.9 0H252v27.6h-34.2z"/><path class="st2" d="M148 357.5h104v8.5H148z"/><path class="st7" d="M358.6 231.2H371c1 0 1.8.8 1.8 1.8s-.8 1.8-1.8 1.8h-12.4c-1 0-1.8-.8-1.8-1.8.1-1 .9-1.8 1.8-1.8zm-23.9 0h12.4c1 0 1.8.8 1.8 1.8s-.8 1.8-1.8 1.8h-12.4c-1 0-1.8-.8-1.8-1.8s.8-1.8 1.8-1.8zm-23.9 0h12.4c1 0 1.8.8 1.8 1.8s-.8 1.8-1.8 1.8h-12.4c-1 0-1.8-.8-1.8-1.8s.8-1.8 1.8-1.8zm-37.6-2.6h20.3v8.7h-20.3z"/><path class="st2" d="M273.2 357.5h104v8.5h-104zm19-39.9h43.9v1.8h-43.9zm0 4.7h18.3v1.8h-18.3zm19.6 0h29.4v1.8h-29.4zm30.4 0h13.2v1.8h-13.2zm-50 4.6h43.9v1.8h-43.9zm0 4.6h18.3v1.8h-18.3zm19.6 0h29.4v1.8h-29.4zm30.4 0h13.2v1.8h-13.2z"/><path class="st8" d="M200 267.8h73.2"/><path class="st7" d="M292.2 254h65.5v53h-65.5z"/><circle class="st5" cx="200" cy="88.1" r="1.1"/><circle class="st5" cx="204.5" cy="88.1" r="1.1"/><circle class="st5" cx="195.5" cy="88.1" r="1.1"/><path class="st2" d="M189.5 77H210c.6 0 1 .4 1 1v1.5c0 .6-.4 1-1 1h-20.5c-.6 0-1-.4-1-1V78c0-.6.5-1 1-1zm-14-20.2h18.3v1.8h-18.3zm19.6 0h29.4v1.8h-29.4z"/><path class="st8" d="M199.8 68.8h73.4"/><path class="st5" d="M358.6 41.3H371c1 0 1.8.8 1.8 1.7 0 1-.8 1.8-1.8 1.8h-12.4c-1 0-1.8-.8-1.8-1.8.1-1 .9-1.7 1.8-1.7zm-23.9 0h12.4c1 0 1.8.8 1.8 1.7 0 1-.8 1.8-1.8 1.8h-12.4c-1 0-1.8-.8-1.8-1.8s.8-1.7 1.8-1.7zm-23.9-.1h12.4c1 0 1.8.8 1.8 1.8s-.8 1.7-1.8 1.7h-12.4c-1 0-1.8-.8-1.8-1.7 0-1 .8-1.8 1.8-1.8zm-37.6-2.5h20.3v8.7h-20.3zm0 14.2h104v45.6h-104z"/><path class="st4" d="M304.9 109.3h43.9v1.8h-43.9zm-23.8 4.6h18.3v1.8h-18.3zm19.6 0h29.4v1.8h-29.4zm30.4 0h13.2v1.8h-13.2zm-50 3.5h14v1.8h-14zm15.3 0h41.4v1.8h-41.4zm42.8 0h18.3v1.8h-18.3zm-58.1 3.5h34.2v1.8h-34.2zm35.8 0h17.7v1.8h-17.7zm-35.8 3.4h18.3v1.8h-18.3zm19.6 0h29.4v1.8h-29.4zm30.4 0h13.2v1.8h-13.2z"/><path class="st5" d="M273.2 134.7h51v24.8h-51zm52.1 0h51.9v24.8h-51.9z"/><path class="st1" d="M273.2 167.5h104v8.5h-104z"/><path opacity=".33" fill="#fff" d="M400 0L0 400h400z"/><path opacity=".75" fill="#fff" d="M317.1 400l82.9-89v89z"/><path opacity=".5" fill="#fff" d="M0 88.1L87.6 0H0z"/></svg>