<svg id="Слой_1" xmlns="http://www.w3.org/2000/svg" viewBox="0 0 400 400"><style>.st0{fill:#f7f7f7}.st2{fill:#128a5c}.st8{fill:#c7c9c9}.st18{fill:#878787}</style><path class="st0" d="M0 .2h400v400H0z"/><linearGradient id="SVGID_1_" gradientUnits="userSpaceOnUse" x1="146.327" y1="1053.634" x2="570.542" y2="1478.785" gradientTransform="matrix(.8 0 0 .8 -62.2 -793.203)"><stop offset="0" stop-opacity=".3"/><stop offset="1" stop-opacity="0"/></linearGradient><path d="M338.2 28.1L208 57.7l-132.5-.4 1.6 326.3 15.6 16.6H400V83l-61.8-54.9z" fill="url(#SVGID_1_)"/><path class="st2" d="M340 57.7H75.5v-.3c0-2.8 2.2-5 5-5H340v5.3z"/><path class="st2" d="M340 57.7H208v-26c0-2.8 2.2-5 5-5h122c2.8 0 5 2.2 5 5v26z"/><path d="M335 385H80.5c-2.8 0-5-2.2-5-5V57.7H340V380c0 2.8-2.2 5-5 5z" fill="#0b353d"/><path class="st0" d="M326 376.5H89.5c-2.8 0-5-2.2-5-5v-239c0-2.8 2.2-5 5-5H326c2.8 0 5 2.2 5 5v239c0 2.8-2.2 5-5 5z"/><path fill="#ccc" d="M84.5 332.2H331v.8H84.5z"/><path d="M318.2 314.4h-12.1c-.6 0-1-.4-1-1v-.5c0-.6.4-1 1-1h12.1c.6 0 1 .4 1 1v.5c0 .5-.5 1-1 1zm0 4.5h-12.1c-.6 0-1-.4-1-1v-.5c0-.6.4-1 1-1h12.1c.6 0 1 .4 1 1v.5c0 .5-.5 1-1 1zm0 4.4h-12.1c-.6 0-1-.4-1-1v-.5c0-.6.4-1 1-1h12.1c.6 0 1 .4 1 1v.5c0 .6-.4 1-1 1z" fill="#7f7f7f"/><path d="M267.7 263.3H112l-9.3 10.3v-10.3h-7c-1.7 0-3-1.3-3-3V207c0-1.7 1.3-3 3-3h172c1.7 0 3 1.3 3 3v53.3c0 1.7-1.4 3-3 3z" fill="#beced1"/><path d="M319 195.5h-8.5l-.2 12.3-10.2-12.3H140c-1.7 0-3-1.3-3-3v-52c0-1.7 1.3-3 3-3h179c1.7 0 3 1.3 3 3v52c0 1.7-1.3 3-3 3z" fill="#d6d2ad"/><path class="st0" d="M327 45.4h-70.8c-2.2 0-4-1.8-4-4s1.8-4 4-4H327c2.2 0 4 1.8 4 4 0 2.3-1.8 4-4 4zM203.3 78.5h-52.5c-2.5 0-4.5-2-4.5-4.5s2-4.5 4.5-4.5h52.5c2.5 0 4.5 2 4.5 4.5s-2.1 4.5-4.5 4.5z"/><path class="st8" d="M221.2 95.5h-71.5c-1.9 0-3.5-1.6-3.5-3.5s1.6-3.5 3.5-3.5h71.5c1.9 0 3.5 1.6 3.5 3.5s-1.5 3.5-3.5 3.5zm62.5 0h-48.8c-1.9 0-3.5-1.6-3.5-3.5s1.6-3.5 3.5-3.5h48.8c1.9 0 3.5 1.6 3.5 3.5s-1.6 3.5-3.5 3.5zM244 109.3h-94.3c-1.9 0-3.5-1.6-3.5-3.5s1.6-3.5 3.5-3.5H244c1.9 0 3.5 1.6 3.5 3.5s-1.6 3.5-3.5 3.5z"/><path d="M310.5 161.5h-93c-2.2 0-4-1.8-4-4s1.8-4 4-4h93c2.2 0 4 1.8 4 4s-1.8 4-4 4zm0 13.8h-50.2c-2.2 0-4-1.8-4-4s1.8-4 4-4h50.2c2.2 0 4 1.8 4 4s-1.8 4-4 4z" fill="#565546"/><path d="M172.5 225.3h-59c-2.2 0-4-1.8-4-4s1.8-4 4-4h59c2.2 0 4 1.8 4 4s-1.8 4-4 4zm-18.1 15.9h-40.9c-2.2 0-4-1.8-4-4s1.8-4 4-4h40.9c2.2 0 4 1.8 4 4s-1.8 4-4 4zm37.7-.3h-21.6c-2.2 0-4-1.8-4-4s1.8-4 4-4h21.6c2.2 0 4 1.8 4 4s-1.8 4-4 4zm37.4 0h-21.6c-2.2 0-4-1.8-4-4s1.8-4 4-4h21.6c2.2 0 4 1.8 4 4s-1.8 4-4 4z" fill="#15606b"/><path d="M132.8 118.7H89.5c-2.8 0-5-2.2-5-5V71c0-2.8 2.2-5 5-5h43.3c2.8 0 5 2.2 5 5v42.7c0 2.7-2.2 5-5 5z" fill="#e0d5bd"/><path fill="#c69371" d="M100.5 97.8h23.8v10.1h-23.8z"/><circle cx="111.2" cy="88.5" r="14.8" fill="#e4b595"/><path d="M132.8 118.7H89.5c-2.8 0-5-2.2-5-5v-4.4c17.8-6 35.6-6 53.3 0v4.4c0 2.7-2.2 5-5 5z" fill="#8aa8db"/><path d="M224.2 44.7s1.5-2 1.1-2.6c-.4-.6-4.6-2.3-2.7-5.9 2-3.8 11.9-2.8 12.3 1.2.5 5.1-6.4 5.2-6.4 5.2s-.5 1.1-4.3 2.1z" fill="#e7f4ef"/><path d="M228.5 43.7s.8 1.1 3 1.5c0 0 1.3 1.5 3.4 1.8 0 0-1.6-.9-1.1-2.5 0 0 5-2.9 2.3-6.3 0 0 .7 5.3-7.6 5.5z" fill="#b8dcce"/><path d="M303.3 346.4H321c.5 0 .7.6.3.9l-14.1 12c-.3.3-.8.1-.8-.3l-.8-7.4c0-.2.1-.5.3-.5l8.5-2.7-9 1.6c-.2 0-.3 0-.5-.2l-2.2-2.5c0-.4.2-.9.6-.9z" fill="#b2b2b2"/><path class="st18" d="M113.9 319.4l8.5-8.3 2.5 2.7-8.4 8.2-3.5.9z"/><circle class="st18" cx="107.1" cy="321" r="1.9"/><circle class="st18" cx="101.4" cy="321" r="1.9"/><circle class="st18" cx="95.4" cy="321" r="1.9"/><path class="st8" d="M205 323h-71.8c-1.7 0-3.2-1.4-3.2-3.2 0-1.7 1.4-3.2 3.2-3.2H205c1.7 0 3.2 1.4 3.2 3.2-.1 1.8-1.5 3.2-3.2 3.2z"/><path d="M114.6 80.7s-7.8 4.5-14.9 3.8c0 0 .3 13.8 5 19.2.8 1 1.4 2.2 1.5 3.5 1.5 15-3.3 12.8-12.2-.5 0 0-9.8-28.4 8.6-37.1 17.7-8.3 35.7.1 28 37.7-8 11.5-14.6 16.2-11.9-2.1 0 0 5.5-13.1 3.2-21.6.2-.1-3.2 1.8-7.3-2.9z" fill="#4a403d"/><path opacity=".2" fill="#fff" d="M0 269L162.3.2H0z"/><path opacity=".25" fill="#fff" d="M228.5 400.2L400 73.7v326.5z"/><radialGradient id="SVGID_2_" cx="131.92" cy="206.59" r="74.009" gradientTransform="matrix(.9407 .3395 -.274 .7826 35.795 84.938)" gradientUnits="userSpaceOnUse"><stop offset="0" stop-color="#fff"/><stop offset="1" stop-color="#fff" stop-opacity="0"/></radialGradient><path d="M31.3 267.1c11.2-33.1 52.5-49.1 92.3-35.7 39.8 13.4 62.9 51.2 51.8 84.3-11.2 33.1-52.5 49.1-92.3 35.7s-63-51.2-51.8-84.3z" fill="url(#SVGID_2_)"/></svg>