<svg xmlns="http://www.w3.org/2000/svg" viewBox="0 0 960 166.775"><linearGradient id="a" gradientUnits="userSpaceOnUse" y1="83.387" x2="960" y2="83.387"><stop offset="0" stop-color="#424294"/><stop offset="1" stop-color="#31a8cc"/></linearGradient><path d="M0 145.695l32.487 8.405a189.745 189.745 0 0 0 97.785-.729l46.778-12.849a189.746 189.746 0 0 1 109.87 2.83l13.153 4.353a189.746 189.746 0 0 0 115.62 1.153l18.388-5.681a189.746 189.746 0 0 1 115.298 1.047l8.77 2.884a189.745 189.745 0 0 0 119.476-.297l1.75-.585a189.745 189.745 0 0 1 124.538 1.448l21.789 7.855a189.747 189.747 0 0 0 64.352 11.246H960V0H0v145.695z" fill="url(#a)"/></svg>