<svg id="Слой_1" xmlns="http://www.w3.org/2000/svg" viewBox="0 0 500 499.507"><style>.st4{fill:#494747}.st7{fill:#e2dd2b}.st11{fill:#ed993e}.st17{fill:#c4ba05}</style><path fill="#ea4242" d="M0-.246h500v500H0z"/><linearGradient id="SVGID_1_" gradientUnits="userSpaceOnUse" x1="-46.066" y1="449.381" x2="270.536" y2="126.809" gradientTransform="matrix(1.12 0 0 -1.12 199.88 629.32)"><stop offset="0" stop-opacity=".3"/><stop offset="1" stop-opacity="0"/></linearGradient><path d="M369.084 200.135H179.511l-59.175-59.176-31.213 33.407v142.022l72.431 72.432v9.08l101.607 101.607h236.813V225.965L366.426 92.417l2.658 107.718z" fill="url(#SVGID_1_)"/><path d="M410.603 355.193l-184.377 39.636c-8.728 1.876-17.325-3.678-19.202-12.406l-50.281-233.897c-1.877-8.728 3.678-17.324 12.406-19.202l184.377-39.636c8.728-1.876 17.325 3.678 19.202 12.406l50.281 233.896c1.877 8.729-3.677 17.325-12.406 19.203z" fill="#a8a8a8"/><path d="M390.496 376.156l-187.15 23.255c-8.86 1.102-16.934-5.189-18.035-14.048l-29.5-237.415c-1.1-8.859 5.19-16.934 14.049-18.034l187.15-23.255c8.86-1.101 16.934 5.189 18.035 14.048l29.5 237.415c1.1 8.86-5.19 16.933-14.049 18.034z" fill="#727171"/><path class="st4" d="M360.463 400.674h-188.59c-8.927 0-16.165-7.237-16.165-16.165V145.27c0-8.927 7.238-16.165 16.165-16.165h188.59c8.927 0 16.165 7.238 16.165 16.165v239.24c0 8.928-7.238 16.165-16.165 16.165z"/><path d="M360.463 400.674h-188.59c-8.927 0-16.165-7.237-16.165-16.165V158.201h220.92V384.51c0 8.928-7.238 16.165-16.165 16.165z" fill="#dddbdb"/><circle cx="189.115" cy="144.192" r="6.466" fill="#e52929"/><circle class="st7" cx="209.591" cy="144.192" r="6.466"/><circle cx="230.066" cy="144.192" r="6.466" fill="#35e22b"/><path fill="#efefef" d="M155.708 158.201h220.92v21.829h-220.92z"/><path fill="#f2f2f2" stroke="#111" stroke-miterlimit="10" d="M163.252 161.434h205.833v15.363H163.252z"/><circle class="st11" cx="169.718" cy="140.959" r="6.466"/><path fill="none" d="M163.252 161.434h65.378v15.087h-65.378z"/><path d="M170.122 164.382h1.138v3.903h.026c.18-.323.465-.607.813-.8a2.342 2.342 0 0 1 1.164-.324c.84 0 2.185.516 2.185 2.675v3.722h-1.138v-3.593c0-1.009-.376-1.861-1.448-1.861-.737 0-1.318.516-1.525 1.137-.064.155-.077.323-.077.543v3.774h-1.138v-9.176zm8.496 1.124v1.796h1.628v.865h-1.628v3.373c0 .776.22 1.215.854 1.215.297 0 .516-.039.659-.078l.052.854c-.22.09-.57.155-1.009.155-.53 0-.957-.168-1.228-.478-.324-.337-.44-.893-.44-1.629v-3.413h-.969v-.865h.969v-1.5l1.112-.295zm4.28 0v1.796h1.629v.865h-1.629v3.373c0 .776.22 1.215.854 1.215.297 0 .516-.039.658-.078l.052.854c-.22.09-.569.155-1.009.155-.53 0-.957-.168-1.228-.478-.323-.337-.44-.893-.44-1.629v-3.413h-.967v-.865h.968v-1.5l1.112-.295zm2.91 3.838c0-.802-.026-1.447-.052-2.042h1.02l.053 1.072h.026c.464-.763 1.201-1.214 2.223-1.214 1.512 0 2.649 1.279 2.649 3.179 0 2.249-1.37 3.36-2.844 3.36-.828 0-1.55-.362-1.926-.983h-.026v3.4h-1.124v-6.772h.001zm1.125 1.667c0 .168.026.324.052.466.207.789.892 1.33 1.706 1.33 1.201 0 1.9-.98 1.9-2.416 0-1.254-.659-2.327-1.861-2.327-.776 0-1.5.556-1.72 1.408-.038.143-.077.31-.077.466v1.073zm6.078 1.383c.336.22.93.453 1.5.453.828 0 1.215-.414 1.215-.93 0-.544-.323-.841-1.163-1.151-1.125-.401-1.654-1.02-1.654-1.77 0-1.009.815-1.836 2.158-1.836.634 0 1.19.18 1.538.387l-.284.827a2.434 2.434 0 0 0-1.28-.36c-.672 0-1.047.387-1.047.853 0 .516.375.749 1.189 1.06 1.086.413 1.64.956 1.64 1.886 0 1.1-.851 1.874-2.339 1.874-.685 0-1.318-.168-1.757-.427l.284-.866zm5.006-4.057c0-.479.323-.815.775-.815s.75.336.763.815c0 .451-.297.801-.776.801-.453 0-.762-.35-.762-.801zm0 4.561c0-.478.323-.813.775-.813s.75.336.763.813c0 .453-.297.802-.776.802-.453 0-.762-.349-.762-.802zm1.99 1.176l3.606-9.37h.878l-3.617 9.37h-.867zm4.437 0l3.606-9.37h.878l-3.617 9.37h-.867zm5.843-6.772l.828 3.18c.18.696.349 1.344.465 1.99h.04c.141-.634.348-1.305.555-1.978l1.022-3.192h.956l.97 3.127c.232.75.413 1.409.556 2.043h.037c.105-.634.272-1.294.479-2.03l.891-3.14h1.125l-2.016 6.256h-1.035l-.956-2.986c-.22-.698-.4-1.318-.556-2.055h-.026a18.964 18.964 0 0 1-.567 2.068l-1.01 2.972h-1.034l-1.887-6.256h1.163v.001zm9.673 0l.828 3.18c.18.696.349 1.344.466 1.99h.038c.142-.634.35-1.305.556-1.978l1.022-3.192h.956l.97 3.127c.232.75.413 1.409.556 2.043h.038c.104-.634.271-1.294.478-2.03l.891-3.14h1.125l-2.016 6.256h-1.035l-.956-2.986c-.22-.698-.4-1.318-.557-2.055h-.024c-.156.749-.35 1.395-.568 2.068l-1.01 2.972h-1.034l-1.887-6.256h1.163v.001zm9.673 0l.828 3.18c.18.696.349 1.344.465 1.99h.04c.141-.634.348-1.305.555-1.978l1.022-3.192h.956l.97 3.127c.232.75.414 1.409.556 2.043h.037c.105-.634.272-1.294.479-2.03l.891-3.14h1.125l-2.016 6.256h-1.035l-.955-2.986a21.007 21.007 0 0 1-.557-2.055h-.025c-.156.749-.35 1.395-.568 2.068l-1.009 2.972h-1.035l-1.887-6.256h1.163v.001zm8.291 5.583c0-.478.323-.814.774-.814.453 0 .763.336.763.814 0 .466-.296.814-.775.814-.453.001-.762-.348-.762-.814zm5.417 0c0-.478.323-.814.775-.814s.763.336.763.814c0 .466-.297.814-.776.814-.453.001-.762-.348-.762-.814zm2.678 0c0-.478.323-.814.775-.814s.763.336.763.814c0 .466-.297.814-.776.814-.453.001-.762-.348-.762-.814zm5.417 0c0-.478.324-.814.775-.814.453 0 .763.336.763.814 0 .466-.296.814-.776.814-.452.001-.762-.348-.762-.814zm2.948-3.631c0-.737-.014-1.37-.053-1.952h.996l.039 1.228h.051c.285-.84.97-1.37 1.732-1.37.13 0 .22.013.323.039v1.073a1.71 1.71 0 0 0-.388-.039c-.8 0-1.37.608-1.524 1.46a3.322 3.322 0 0 0-.052.53v3.335h-1.124v-4.304zm9.464 2.598c0 .647.014 1.214.053 1.706h-1.01l-.065-1.02h-.025a2.354 2.354 0 0 1-2.068 1.162c-.983 0-2.158-.542-2.158-2.74v-3.657h1.137v3.464c0 1.19.362 1.99 1.396 1.99.762 0 1.292-.53 1.5-1.033a1.64 1.64 0 0 0 .104-.582v-3.839h1.137v4.549h-.001z"/><path fill="#e2412b" d="M163.252 187.298h205.833v47.417H163.252z"/><path d="M358.308 393.13h-184.28c-5.952 0-10.776-4.824-10.776-10.776v-16.165h205.832v16.165c0 5.952-4.824 10.777-10.776 10.777z" fill="#efa52e"/><path class="st7" d="M213.902 242.259h105.61v70.048h-105.61z"/><path d="M163.252 242.259h42.029v70.048h-42.029zm163.804 0h42.029v70.048h-42.029z" fill="#15ce45"/><path d="M163.252 319.85h99.144v38.796h-99.144zm106.688 0h99.144v38.796H269.94z" fill="#2d60e0"/><path class="st7" d="M132.704 170.124c0-22.426-18.18-40.606-40.606-40.606s-40.606 18.18-40.606 40.606c0 16.691 10.073 31.023 24.47 37.266v85.518c0 14.91 12.11 26.99 27.03 26.942 2.94-.01 5.3-2.449 5.3-5.388v-4.311l-7.098-7.098c-1.358-1.357-.397-3.679 1.524-3.679h5.573a7.8 7.8 0 0 0-2.286-5.518l-6.65-6.652c-.68-.679-.2-1.84.761-1.84h4.942a3.233 3.233 0 0 0 3.233-3.232l-7.097-7.098c-1.358-1.357-.397-3.679 1.524-3.679h5.573a7.8 7.8 0 0 0-2.286-5.518l-6.65-6.652c-.68-.679-.2-1.84.761-1.84h3.865a4.31 4.31 0 0 0 4.31-4.31l-7.097-7.097c-1.358-1.358-.397-3.68 1.524-3.68h5.573c0-2.76-1.096-5.406-3.047-7.358l-5.889-5.888c-.679-.679-.198-1.84.762-1.84h8.174v-19.807c14.365-6.256 24.413-20.571 24.413-37.24z"/><path class="st17" d="M58.719 170.055c0-18.45 14.957-23.708 33.407-23.708s33.408 5.258 33.408 23.708-14.957 33.408-33.408 33.408-33.407-14.957-33.407-33.408z"/><path class="st17" d="M84.583 311.229l-4.31-5.389V193.764h4.31zm8.621 5.388l-4.31-2.136V199.152h4.31zm4.311-120.698h7.544v28.019h-7.544z"/><path class="st7" d="M61.871 172.312c0-16.014 13.546-20.577 30.255-20.577s30.256 4.564 30.256 20.577c0 16.014-13.547 28.996-30.256 28.996s-30.255-12.982-30.255-28.996z"/><ellipse class="st17" cx="91.049" cy="138.803" rx="12.932" ry="5.388"/><ellipse class="st11" cx="91.049" cy="139.342" rx="11.639" ry="4.849"/><path d="M134.745 110.07c-21.469-3.597-40.825 5.146-43.234 19.527-2.41 14.381 13.042 28.956 34.51 32.552 21.469 3.596 40.826-5.146 43.234-19.527 2.41-14.382-13.04-28.956-34.51-32.552zm29.635 31.735c-2.107 12.577-19.036 20.223-37.812 17.077s-32.289-15.89-30.18-28.468c2.106-12.578 19.035-20.223 37.811-17.078 18.775 3.146 32.288 15.891 30.181 28.469z" fill="#6b6b6a"/><path d="M134.745 107.915c-21.469-3.598-40.825 5.145-43.234 19.527-2.41 14.381 13.042 28.955 34.51 32.551 21.469 3.597 40.826-5.145 43.234-19.527 2.41-14.381-13.04-28.955-34.51-32.551zm29.635 31.734c-2.107 12.578-19.036 20.224-37.812 17.078s-32.289-15.891-30.18-28.468c2.106-12.578 19.035-20.224 37.811-17.078 18.775 3.146 32.288 15.891 30.181 28.468z" fill="#9b9b9a"/><path class="st7" d="M91.285 129.527s2.288-.174 5.336.241l.07 4.186c.055-.05-4.446-.55-5.642-.539-1.078.01.236-3.888.236-3.888z"/><path class="st17" d="M91.137 134.493l-.088-1.078c.09.002 3.948.04 5.74.558l.125 1.18s-4.61-.66-5.777-.66z"/><path class="st4" d="M164.394 137.29s1.417-2.797 4.987-2.797l-.782-5.057c-1.057.086-5.415 1.82-6.313 2.817-1.014 1.317 2.108 5.037 2.108 5.037z"/></svg>