<svg id="Слой_1" xmlns="http://www.w3.org/2000/svg" viewBox="0 0 500 499.5"><style>.st2{fill:#ccc}.st5{fill:#f7f7f7}.st11{fill:#1c1c1c}.st12{fill:none;stroke:#1c1c1c;stroke-width:4;stroke-miterlimit:10}</style><path fill="#f47f31" d="M0-.2h500v500H0z"/><g id="fon"><linearGradient id="SVGID_1_" gradientUnits="userSpaceOnUse" x1="-505.598" y1="82.164" x2="-357.267" y2="212.379" gradientTransform="matrix(2.16 0 0 2.16 1278.4 9.76)"><stop offset="0" stop-opacity=".3"/><stop offset="1" stop-opacity="0"/></linearGradient><path d="M169.5 320.6l29.4 29.4 41 68.4 28.6 28.6 3 9.6 42.9 42.9H500V293L266.2 57.5c-.5-.5-1.3-.3-1.5.3l-95.2 262.8z" fill="url(#SVGID_1_)"/></g><g id="palci_ruki"><path class="st2" d="M237.7 408.1c-6.1 2.7-11.8-6.4-29-34.8-12.5-20.7-13.1-42-7-44.8 1.3-.6 6.1-4.4 7.9-3.4 6.7 3.5 8.8 22.3 16.7 39.6 9.9 22 17.5 40.7 11.4 43.4z"/><path d="M249.9 420.5c-9.6 3.3-20.6-6.9-38.8-57.5-12.5-34.7-13.6-66-3.9-69.3 4-1.3 11-8.2 16.6-1.1 8.1 10.2 10.3 41.8 17.9 62.2 20.3 54.8 17.8 62.4 8.2 65.7z" fill="#d6d6d6"/><path class="st2" d="M239.3 283.2c1.3-4.2 3.5-12.6 12.2-13.5 15.2-1.5 43.3 8 69.8 16.3 41.7 13 76.5 34.2 72.9 45.7-.9 2.8-2.3 12.4-6.7 13.7-13.7 4-47.6-8.1-79.1-17.9-41.7-13.1-72.7-32.9-69.1-44.3z"/><path d="M230.2 393.4c-10.5.1-12.4-18.4-17.1-56.4-2.9-23.6-6.5-46.8-1.9-59.5 3.1-8.3 16-6.5 19.8-3.8 8.6 6.2 6.5 22 9.5 64.5 3.9 54.8.2 55.1-10.3 55.2z" fill="#e8e8e8"/><path class="st5" d="M260.2 244.5c4.8-11 29.7-7.1 69.6 10.3s65.1 39.6 63.5 51.4c-1.9 14.7 2.8 14.7 2.8 23.2 0 12.3-3.8 1.9-12.3 35.9-3.5 13.9-53.1-62.7-71.5-70.7-39.8-17.4-56.9-39.1-52.1-50.1zm-64.8 49.8c-3.4 26-9.3 31.7-17.4 31s-13.6-6.8-11.9-33.6c1-15.4 3.5-28.5 10.3-31.2 1.1-.4 15.3.8 16.4.9 8.1.8 4.9 15.2 2.6 32.9z"/></g><g id="vizitka"><path d="M191.6 293.3l149.6-38.2c8.6-2.2 13.1-11.7 9.3-19.7L270 62.5c-2.8-6-9.5-9.3-16-7.8L106.2 88.1c-8.7 2-13.4 11.4-9.8 19.5l78.7 177.6c2.8 6.4 9.8 9.8 16.5 8.1z" fill="#f9d332"/><path d="M282.2 92.1l-12.8-27.6c-2.8-5.9-9.3-9.1-15.6-7.7L109 89.5c-8.5 1.9-13.2 11.2-9.6 19.1l1 2.4 181.8-18.9z" fill="#f7dd6f"/><path d="M192.2 291.3l147.2-37.6c8.5-2.2 12.9-11.5 9.2-19.4l-17.9-38.5-207.6-31.6L176 283.4c2.8 6.3 9.6 9.6 16.2 7.9z" fill="#eac31c"/><path d="M298.2 167.1c-3-2.6-3.9-5.7-2.5-9.5 0-.2 6.1-9.7 6.1-9.7.3-.5 0-1-.5-1.1 0 0-12-3.2-12.1-3.4-3.9-1.4-6.3-3.7-5.7-8-.1-.2 2-4.6 2-4.6.3-.7-.6-1.3-1.2-.9l-16.9 10.3c-.2.2-.3.4-.3.7.8 6.8 3.4 13.7 5.7 18.7 1.9 4.2 5.7 10 10.2 15.6.2.2.5.3.8.3l20-3.7c.7-.2.8-1.2.1-1.5-.1 0-5.7-2.9-5.7-3.2z" fill="#e2ba13"/><path d="M249.7 156.8l-18.5-40.4c-.6-1.4 0-3.1 1.4-3.8 1.4-.6 3.1 0 3.8 1.4l18.5 40.4c.6 1.4 0 3.1-1.4 3.8-1.5.7-3.2 0-3.8-1.4zm-1.9 77.7l-31.4-68.7c-.6-1.4 0-3.1 1.4-3.8 1.4-.6 3.1 0 3.8 1.4l31.4 68.7c.6 1.4 0 3.1-1.4 3.8-1.4.6-3.1 0-3.8-1.4zM183.9 208L166 167.4c-.6-1.4 0-3.1 1.4-3.7 1.4-.6 3.1 0 3.7 1.4l17.9 40.6c.6 1.4 0 3.1-1.4 3.7-1.4.6-3.1 0-3.7-1.4zm89.3.3L257.5 174c-.6-1.4 0-3.1 1.4-3.8 1.4-.6 3.1 0 3.8 1.4l15.7 34.3c.6 1.4 0 3.1-1.4 3.8-1.4.7-3.1 0-3.8-1.4zm-69.5 44.6l-12.2-27.6c-.6-1.4 0-3.1 1.4-3.7 1.4-.6 3.1 0 3.7 1.4l12.2 27.6c.6 1.4 0 3.1-1.4 3.7-1.4.6-3.1 0-3.7-1.4zm88-4.2l-10.6-23.2c-.6-1.4 0-3.1 1.4-3.8 1.4-.6 3.1 0 3.8 1.4l10.6 23.2c.6 1.4 0 3.1-1.4 3.8-1.5.6-3.1 0-3.8-1.4zm-82.5-97.6l-10.6-23.2c-.6-1.4 0-3.1 1.4-3.8 1.4-.6 3.1 0 3.8 1.4l10.6 23.2c.6 1.4 0 3.1-1.4 3.8-1.5.6-3.2 0-3.8-1.4z" fill="#f2f2f2"/><path class="st11" d="M195.5 92.8L178 106.3c-3.5 2.7-4 7.8-1 11.2l1.6 1.8c.8.9 2.2 1 3.2.3l3.4-2.7c2.2-1.7 2.5-4.9.6-7-.6-.7-.5-1.9.2-2.5l9.3-7.5c.8-.6 1.9-.5 2.5.3 1.5 1.9 4.3 2.3 6.2.8l2.7-2.1c1-.8 1.2-2.3.4-3.3l-1.1-1.4c-2.5-3.4-7.2-4-10.5-1.4z"/><ellipse transform="rotate(-17.661 154.529 138.143)" class="st12" cx="154.5" cy="138.1" rx="13.1" ry="8.4"/><path class="st12" d="M168.7 143.6s-3.5-.7-12.5 2.8-10.8 4.1-10.7 6.4 6.2 4.1 14.3.9c8.1-3.2 19.2-8.6 14.4-21.8-4.7-12.6-18.5-11.5-24.9-8.9-6.4 2.6-19 8.8-14.8 21.5 2.4 7.3 4.9 8 4.9 8"/><path class="st11" d="M232.1 90.3c-.1-.7.7-1.3 1.4-1 1.9.7 4.1.8 6.1-.2 3.8-1.8 5.5-6.1 3.8-9.8-1.7-3.7-6.1-5.2-9.9-3.5-1.9.9-3.2 2.4-3.9 4.1-.3.7-1.3.9-1.7.3-4-6-8-5.4-13.8-4.1-.6.1-1 .7-.7 1.2l11.2 24.2c.2.4.7.5 1.1.4 4.1-1.5 7.8-4.6 6.4-11.6z"/></g><g id="palec"><path class="st5" d="M384.8 382.3c.9-15.1 8.5-20.8 8.5-25.5s-.3-6.3-3.4-20.1v-.1c-.9-12-5.1-23.1-12.9-32.1-16.9-19.2-46-23.2-74-12.7-12.8 4.8-27.1-1-32.6-13.5-2.4-5.4-5-10.2-7.8-14.1-3-4.3-4.7-9.3-4.7-14.5 0-5.7-.4-11.7-1.2-17.9-4-30.1-10.5-57.6-28.6-56.6-19.2 1.1-17.3 32-13.3 62.1 1.4 10.7 3.9 20.6 7.1 28.7 1.7 4.4 2.2 9.3 1.2 13.9-2.5 12.5-3 28.2-.8 44.9 2.1 15.8 6.2 30 11.5 41.2 1.7 3.7 2.6 7.7 2.4 11.8-.4 14.5 3.8 28.1 13.1 38.7.7.8 1.5 1.6 2.2 2.4 0 0 14.8 19.2 18.2 33.1 8.4 35.1 148.2-4.5 120.8-36.8 0 .1-6.6-17.8-5.7-32.9z"/><path d="M294.1 293.7s26.5 14.4 22.5 41.5c-2.9 19.3-19.9 49.1-27.2 58.4-7 9.1-25.2 17.1-33.2 10.1s-31.2-54-32.7-70.8l-1-6.4s10.6 26.9 17.6 44c0 0 10.1 22.1 19.1 31.2 0 0 15.1 6 29.2-13.1 1.5.6 19-30.5 25.2-54.3 1-4 3.8-20-24.5-41.3l5 .7zm99.4 24.6s-3.5 10.9-11.6 24-9.1 30.2-6 54.3c1 8.1 7 9.1 4-5 0 0-5-29.2 5-45.3 0 0 5-9.1 10.7-21.4l-2.1-6.6zm-5.1 90.3s-14.5 17.2-52.7 27.3c-37.1 9.8-39.2 8.1-70.1 5.5l2.6 6s31.3 8.7 69.5-4.4 28.2-10.1 53.3-27.2l-2.6-7.2z" fill="#eaeaea"/><path d="M228 175.3c-19.2-.2-17.3 32-13.3 62.1 1.4 10.7 3.9 20.6 7.1 28.7 1.7 4.4 2.2 9.3 1.2 13.9-2.5 12.5-3 28.2-.8 44.9 2.1 15.8 6.2 30 11.5 41.2 1.7 3.7 2.6 7.7 2.4 11.8-.4 14.5 3.8 28.1 13.1 38.7.7.8 1.5 1.6 2.2 2.4-.4.1 15.4 19.1 18.2 33.1 3.6 17.9 43 13.8 42.4 13.1-21.7-21.7-55.6-64.6-63.9-92.8-15.1-51.3-19.9-38.2-19.1-69.4.9-33.4-16.1-66.4-12.1-112.7 1.3-14.2 12.3-15 11.1-15z" opacity=".2"/></g><path d="M11.3 480.8V18.7c0-3.9 3.1-7 7-7h127.9c4.3 0 7.6 3.9 6.9 8.1L78.2 482c-.5 3.4-3.5 5.9-6.9 5.9h-53c-3.9-.1-7-3.2-7-7.1z" opacity=".35" fill="#fff"/><path d="M166.6 499.8L480.1 95.3c2.9-3.8 9-1.7 9 3.1v401.1l-322.5.3z" opacity=".15" fill="#fff"/></svg>