<svg id="Слой_1" xmlns="http://www.w3.org/2000/svg" viewBox="0 0 500 499.507"><style>.st3{fill:#010202}.st4{stroke:#010202;stroke-width:45}.st4,.st5{fill:#f9b03f}.st6{fill:#fff}</style><path fill="#8eeded" d="M0-.246h500v500H0z"/><linearGradient id="SVGID_1_" gradientUnits="userSpaceOnUse" x1="223.919" y1="801.756" x2="493.255" y2="1071.686" gradientTransform="translate(0 -578)"><stop offset="0" stop-opacity=".3"/><stop offset="1" stop-opacity="0"/></linearGradient><path d="M362.72 113.17L112.495 357.358 241.52 499.754H500V242.087L362.72 113.17z" fill="url(#SVGID_1_)"/><g id="svg_1_"><path d="M413.327 223.17c0-18.737-9.685-37.026-26.719-43.675-2.705-1.056-4.338-4.006-3.256-6.702 2.775-6.92 2.484-15.177.888-23.694-4.806-25.628-26.846-47.366-52.919-47.597-5.553-.049-14.15 1.208-19.232 2.046-2.287.376-4.638-.713-5.616-2.814-8.01-17.2-27.396-26.853-49.905-26.853-21.617 0-43.342 10.95-48.55 26.935-.96 2.942-4.189 4.605-7.01 3.335-6.138-2.762-13.73-2.7-22.267-2.7-26.074 0-48.258 21.579-48.779 47.648-.192 9.6-1.148 16.979 1.135 23.46.95 2.699-.248 5.763-2.933 6.751-19.14 7.046-28.357 34.272-28.357 43.86 0 7.32 1.7 14.232 4.676 20.413.336.7.523 1.456.523 2.232v87.106c0 24.453 19.823 44.277 44.277 44.277h71.906c8.337 7.413 25.153 11.954 37.188 11.954 12.036 0 23.86-4.541 32.198-11.954h72.095c24.453 0 44.278-19.824 44.278-44.278v-84.793c0-.874.233-1.722.65-2.489 3.634-6.684 5.73-14.324 5.73-22.468z" fill="#e6e7eb"/><path id="base_3_" class="st3" d="M120.34 229.072h272.454v96.274c0 22.624-17.328 39.953-39.953 39.953H160.295c-22.625 0-39.954-17.33-39.954-39.953v-96.274z"/><path id="svgbar_15_" class="st4" d="M175.555 213.812c-8.428-8.428-22.092-8.428-30.521 0-8.429 8.428-8.429 22.093 0 30.522 8.428 8.427 22.092 8.427 30.52 0H337.58c8.428 8.427 22.092 8.427 30.522 0 8.428-8.428 8.428-22.093 0-30.522-8.429-8.428-22.093-8.428-30.522 0H175.555z"/><path id="svgbar_14_" class="st4" d="M210.074 160.997c0-11.92-9.663-21.582-21.582-21.582-11.92 0-21.582 9.662-21.582 21.582s9.663 21.581 21.582 21.581l114.57 114.569c0 11.92 9.662 21.582 21.581 21.582 11.92 0 21.582-9.662 21.582-21.582s-9.662-21.581-21.582-21.581l-114.57-114.57z"/><path id="svgbar_13_" class="st4" d="M271.828 148.06c8.428-8.429 8.428-22.094 0-30.522-8.427-8.428-22.093-8.428-30.52 0-8.43 8.427-8.43 22.093 0 30.521v162.025c-8.43 8.428-8.43 22.093 0 30.522 8.426 8.428 22.092 8.428 30.52 0s8.428-22.093 0-30.522V148.06z"/><path id="svgbar_12_" class="st4" d="M324.644 182.578c11.92 0 21.582-9.663 21.582-21.581 0-11.92-9.662-21.582-21.582-21.582s-21.582 9.662-21.582 21.582l-114.57 114.57c-11.92 0-21.582 9.662-21.582 21.581 0 11.92 9.663 21.582 21.582 21.582s21.582-9.662 21.582-21.582l114.57-114.57z"/><path id="svgbar_11_" class="st5" d="M175.555 213.812c-8.428-8.428-22.092-8.428-30.521 0-8.429 8.428-8.429 22.093 0 30.522 8.428 8.427 22.092 8.427 30.52 0H337.58c8.428 8.427 22.092 8.427 30.522 0 8.428-8.428 8.428-22.093 0-30.522-8.429-8.428-22.093-8.428-30.522 0H175.555z"/><path id="svgbar_10_" class="st5" d="M210.074 160.997c0-11.92-9.663-21.582-21.582-21.582-11.92 0-21.582 9.662-21.582 21.582s9.663 21.581 21.582 21.581l114.57 114.569c0 11.92 9.662 21.582 21.581 21.582 11.92 0 21.582-9.662 21.582-21.582s-9.662-21.581-21.582-21.581l-114.57-114.57z"/><path id="svgbar_9_" class="st5" d="M271.828 148.06c8.428-8.429 8.428-22.094 0-30.522-8.427-8.428-22.093-8.428-30.52 0-8.43 8.427-8.43 22.093 0 30.521v162.025c-8.43 8.428-8.43 22.093 0 30.522 8.426 8.428 22.092 8.428 30.52 0s8.428-22.093 0-30.522V148.06z"/><path id="svgbar_8_" class="st5" d="M324.644 182.578c11.92 0 21.582-9.663 21.582-21.581 0-11.92-9.662-21.582-21.582-21.582s-21.582 9.662-21.582 21.582l-114.57 114.57c-11.92 0-21.582 9.662-21.582 21.581 0 11.92 9.663 21.582 21.582 21.582s21.582-9.662 21.582-21.582l114.57-114.57z"/><path id="base_2_" class="st3" d="M120.34 229.072h272.454v96.274c0 22.624-17.328 39.953-39.953 39.953H160.295c-22.625 0-39.954-17.33-39.954-39.953v-96.274z"/><path id="G_1_" class="st6" d="M327.41 286.744h35.302v35.301h.009c0 19.5-15.814 35.313-35.31 35.313-19.5 0-35.303-15.814-35.303-35.313v-49.921h-.009c0-19.497 15.811-35.302 35.311-35.302 19.487 0 35.302 15.805 35.302 35.302H342.03c0-8.068-6.554-14.622-14.62-14.622-8.077 0-14.623 6.554-14.623 14.622v49.921c0 8.077 6.546 14.622 14.623 14.622 8.066 0 14.61-6.545 14.62-14.612v-14.62h-14.62v-20.691z"/><path id="V_1_" class="st6" d="M292.097 236.82l-24.974 120.536h-20.679L221.49 236.82h20.68l14.633 70.593 14.615-70.593h20.679z"/><path id="S_1_" class="st6" d="M161.222 297.078c-6.39-6.389-10.344-15.211-10.344-24.956 0-19.497 15.813-35.302 35.301-35.302 19.497 0 35.311 15.805 35.311 35.302h-20.68c0-8.075-6.553-14.62-14.63-14.62-8.076 0-14.62 6.545-14.62 14.62 0 4.034 1.638 7.688 4.273 10.326h.01c2.647 2.657 4.852 3.426 10.336 4.296 9.754 1.015 18.577 3.955 24.966 10.343 6.39 6.39 10.345 15.213 10.345 24.958 0 19.497-15.814 35.311-35.31 35.311-19.489 0-35.302-15.814-35.302-35.31h20.681c0 8.075 6.545 14.629 14.62 14.629 8.078 0 14.631-6.554 14.631-14.63 0-4.033-1.639-7.679-4.276-10.326h-.01c-2.647-2.647-6.446-3.56-10.345-4.286v-.01c-9.454-1.45-18.568-3.955-24.957-10.345z"/></g></svg>