<svg id="Слой_1" xmlns="http://www.w3.org/2000/svg" viewBox="0 0 400 400"><style>.st0{fill:#fff}.st1{fill:#ccc}.st3{fill:#94c8fd}.st4{fill:#2b236d}.st5,.st6{fill:#fc95f0}.st6{stroke:#2b236d;stroke-miterlimit:10}.st7{fill:#c7e6ff}.st8,.st9{fill:none;stroke:#c7e6ff;stroke-linecap:round;stroke-miterlimit:10}.st9{stroke:#2b236d}</style><path class="st0" d="M0 0h400.4v400H0z"/><path class="st1" d="M0 0h8.7v8.7H0z"/><path class="st0" d="M8.7 0h8.7v8.7H8.7z"/><path class="st1" d="M17.4 0h8.7v8.7h-8.7zM8.7 8.7h8.7v8.7H8.7z"/><path class="st0" d="M17.4 8.7h8.7v8.7h-8.7zM0 8.7h8.7v8.7H0z"/><path class="st1" d="M0 17.4h8.7v8.7H0z"/><path class="st0" d="M8.7 17.4h8.7v8.7H8.7z"/><path class="st1" d="M17.4 17.4h8.7v8.7h-8.7zm-8.7 8.8h8.7v8.7H8.7z"/><path class="st0" d="M17.4 26.2h8.7v8.7h-8.7zM0 26.2h8.7v8.7H0z"/><path class="st1" d="M0 34.9h8.7v8.7H0z"/><path class="st0" d="M8.7 34.9h8.7v8.7H8.7z"/><path class="st1" d="M17.4 34.9h8.7v8.7h-8.7zm-8.7 8.7h8.7v8.7H8.7z"/><path class="st0" d="M17.4 43.6h8.7v8.7h-8.7zM0 43.6h8.7v8.7H0z"/><path class="st1" d="M0 52.3h8.7V61H0z"/><path class="st0" d="M8.7 52.3h8.7V61H8.7z"/><path class="st1" d="M17.4 52.3h8.7V61h-8.7zM8.7 61h8.7v8.7H8.7z"/><path class="st0" d="M17.4 61h8.7v8.7h-8.7zM0 61h8.7v8.7H0z"/><path class="st1" d="M0 69.4h8.7v8.7H0z"/><path class="st0" d="M8.7 69.4h8.7v8.7H8.7z"/><path class="st1" d="M17.4 69.4h8.7v8.7h-8.7zm-8.7 8.7h8.7v8.7H8.7z"/><path class="st0" d="M17.4 78.1h8.7v8.7h-8.7zM0 78.1h8.7v8.7H0z"/><path class="st1" d="M0 86.8h8.7v8.7H0z"/><path class="st0" d="M8.7 86.8h8.7v8.7H8.7z"/><path class="st1" d="M17.4 86.8h8.7v8.7h-8.7zm-8.7 8.8h8.7v8.7H8.7z"/><path class="st0" d="M17.4 95.6h8.7v8.7h-8.7zM0 95.6h8.7v8.7H0z"/><path class="st1" d="M0 104.3h8.7v8.7H0z"/><path class="st0" d="M8.7 104.3h8.7v8.7H8.7z"/><path class="st1" d="M17.4 104.3h8.7v8.7h-8.7zM8.7 113h8.7v8.7H8.7z"/><path class="st0" d="M17.4 113h8.7v8.7h-8.7zM0 113h8.7v8.7H0z"/><path class="st1" d="M0 121.7h8.7v8.7H0z"/><path class="st0" d="M8.7 121.7h8.7v8.7H8.7z"/><path class="st1" d="M17.4 121.7h8.7v8.7h-8.7zm-8.7 8.7h8.7v8.7H8.7z"/><path class="st0" d="M17.4 130.4h8.7v8.7h-8.7zm-17.4 0h8.7v8.7H0z"/><path class="st1" d="M0 139.1h8.7v8.7H0z"/><path class="st0" d="M8.7 139.1h8.7v8.7H8.7z"/><path class="st1" d="M17.4 139.1h8.7v8.7h-8.7zm-8.7 8.8h8.7v8.7H8.7z"/><path class="st0" d="M17.4 147.9h8.7v8.7h-8.7zm-17.4 0h8.7v8.7H0z"/><path class="st1" d="M0 156.6h8.7v8.7H0z"/><path class="st0" d="M8.7 156.6h8.7v8.7H8.7z"/><path class="st1" d="M17.4 156.6h8.7v8.7h-8.7zm-8.7 8.7h8.7v8.7H8.7z"/><path class="st0" d="M17.4 165.3h8.7v8.7h-8.7zm-17.4 0h8.7v8.7H0z"/><path class="st1" d="M0 174h8.7v8.7H0z"/><path class="st0" d="M8.7 174h8.7v8.7H8.7z"/><path class="st1" d="M17.4 174h8.7v8.7h-8.7zm-8.7 8.7h8.7v8.7H8.7z"/><path class="st0" d="M17.4 182.7h8.7v8.7h-8.7zm-17.4 0h8.7v8.7H0z"/><path class="st1" d="M0 191.4h8.7v8.7H0z"/><path class="st0" d="M8.7 191.4h8.7v8.7H8.7z"/><path class="st1" d="M17.4 191.4h8.7v8.7h-8.7zm-8.7 8.8h8.7v8.7H8.7z"/><path class="st0" d="M17.4 200.2h8.7v8.7h-8.7zm-17.4 0h8.7v8.7H0z"/><path class="st1" d="M0 208.6h8.7v8.7H0z"/><path class="st0" d="M8.7 208.6h8.7v8.7H8.7z"/><path class="st1" d="M17.4 208.6h8.7v8.7h-8.7zm-8.7 8.7h8.7v8.7H8.7z"/><path class="st0" d="M17.4 217.3h8.7v8.7h-8.7zm-17.4 0h8.7v8.7H0z"/><path class="st1" d="M0 226h8.7v8.7H0z"/><path class="st0" d="M8.7 226h8.7v8.7H8.7z"/><path class="st1" d="M17.4 226h8.7v8.7h-8.7zm-8.7 8.7h8.7v8.7H8.7z"/><path class="st0" d="M17.4 234.7h8.7v8.7h-8.7zm-17.4 0h8.7v8.7H0z"/><path class="st1" d="M0 243.4h8.7v8.7H0z"/><path class="st0" d="M8.7 243.4h8.7v8.7H8.7z"/><path class="st1" d="M17.4 243.4h8.7v8.7h-8.7zm-8.7 8.7h8.7v8.7H8.7z"/><path class="st0" d="M17.4 252.1h8.7v8.7h-8.7zm-17.4 0h8.7v8.7H0z"/><path class="st1" d="M0 260.9h8.7v8.7H0z"/><path class="st0" d="M8.7 260.9h8.7v8.7H8.7z"/><path class="st1" d="M17.4 260.9h8.7v8.7h-8.7zm-8.7 8.7h8.7v8.7H8.7z"/><path class="st0" d="M17.4 269.6h8.7v8.7h-8.7zm-17.4 0h8.7v8.7H0z"/><path class="st1" d="M0 278.3h8.7v8.7H0z"/><path class="st0" d="M8.7 278.3h8.7v8.7H8.7z"/><path class="st1" d="M17.4 278.3h8.7v8.7h-8.7zM8.7 287h8.7v8.7H8.7z"/><path class="st0" d="M17.4 287h8.7v8.7h-8.7zM0 287h8.7v8.7H0z"/><path class="st1" d="M0 295.7h8.7v8.7H0z"/><path class="st0" d="M8.7 295.7h8.7v8.7H8.7z"/><path class="st1" d="M17.4 295.7h8.7v8.7h-8.7zm-8.7 8.7h8.7v8.7H8.7z"/><path class="st0" d="M17.4 304.4h8.7v8.7h-8.7zm-17.4 0h8.7v8.7H0z"/><path class="st1" d="M0 313.2h8.7v8.7H0z"/><path class="st0" d="M8.7 313.2h8.7v8.7H8.7z"/><path class="st1" d="M17.4 313.2h8.7v8.7h-8.7zm-8.7 8.7h8.7v8.7H8.7z"/><path class="st0" d="M17.4 321.9h8.7v8.7h-8.7zm-17.4 0h8.7v8.7H0z"/><path class="st1" d="M0 330.6h8.7v8.7H0z"/><path class="st0" d="M8.7 330.6h8.7v8.7H8.7z"/><path class="st1" d="M17.4 330.6h8.7v8.7h-8.7zm-8.7 8.7h8.7v8.7H8.7z"/><path class="st0" d="M17.4 339.3h8.7v8.7h-8.7zm-17.4 0h8.7v8.7H0z"/><path class="st1" d="M0 347.7h8.7v8.7H0z"/><path class="st0" d="M8.7 347.7h8.7v8.7H8.7z"/><path class="st1" d="M17.4 347.7h8.7v8.7h-8.7zm-8.7 8.7h8.7v8.7H8.7z"/><path class="st0" d="M17.4 356.4h8.7v8.7h-8.7zm-17.4 0h8.7v8.7H0z"/><path class="st1" d="M0 365.1h8.7v8.7H0z"/><path class="st0" d="M8.7 365.1h8.7v8.7H8.7z"/><path class="st1" d="M17.4 365.1h8.7v8.7h-8.7zm-8.7 8.7h8.7v8.7H8.7z"/><path class="st0" d="M17.4 373.8h8.7v8.7h-8.7zm-17.4 0h8.7v8.7H0z"/><path class="st1" d="M0 382.6h8.7v8.7H0z"/><path class="st0" d="M8.7 382.6h8.7v8.7H8.7z"/><path class="st1" d="M17.4 382.6h8.7v8.7h-8.7zm-8.7 8.7h8.7v8.7H8.7z"/><path class="st0" d="M17.4 391.3h8.7v8.7h-8.7zm-17.4 0h8.7v8.7H0z"/><path class="st1" d="M26.2 391.3h8.7v8.7h-8.7z"/><path class="st0" d="M34.9 391.3h8.7v8.7h-8.7z"/><path class="st1" d="M43.6 391.3h8.7v8.7h-8.7zm-8.7-8.7h8.7v8.7h-8.7z"/><path class="st0" d="M43.6 382.6h8.7v8.7h-8.7zm-17.4 0h8.7v8.7h-8.7z"/><path class="st1" d="M26.2 373.8h8.7v8.7h-8.7z"/><path class="st0" d="M34.9 373.8h8.7v8.7h-8.7z"/><path class="st1" d="M43.6 373.8h8.7v8.7h-8.7zm-8.7-8.7h8.7v8.7h-8.7z"/><path class="st0" d="M43.6 365.1h8.7v8.7h-8.7zm-17.4 0h8.7v8.7h-8.7z"/><path class="st1" d="M26.2 356.4h8.7v8.7h-8.7z"/><path class="st0" d="M34.9 356.4h8.7v8.7h-8.7z"/><path class="st1" d="M43.6 356.4h8.7v8.7h-8.7zm-8.7-8.7h8.7v8.7h-8.7z"/><path class="st0" d="M43.6 347.7h8.7v8.7h-8.7zm-17.4 0h8.7v8.7h-8.7z"/><path class="st1" d="M26.2 339h8.7v8.7h-8.7z"/><path class="st0" d="M34.9 339h8.7v8.7h-8.7z"/><path class="st1" d="M43.6 339h8.7v8.7h-8.7zm-8.7-8.7h8.7v8.7h-8.7z"/><path class="st0" d="M43.6 330.3h8.7v8.7h-8.7zm-17.4 0h8.7v8.7h-8.7z"/><path class="st1" d="M26.2 321.9h8.7v8.7h-8.7z"/><path class="st0" d="M34.9 321.9h8.7v8.7h-8.7z"/><path class="st1" d="M43.6 321.9h8.7v8.7h-8.7zm-8.7-8.7h8.7v8.7h-8.7z"/><path class="st0" d="M43.6 313.2h8.7v8.7h-8.7zm-17.4 0h8.7v8.7h-8.7z"/><path class="st1" d="M26.2 304.4h8.7v8.7h-8.7z"/><path class="st0" d="M34.9 304.4h8.7v8.7h-8.7z"/><path class="st1" d="M43.6 304.4h8.7v8.7h-8.7zm-8.7-8.7h8.7v8.7h-8.7z"/><path class="st0" d="M43.6 295.7h8.7v8.7h-8.7zm-17.4 0h8.7v8.7h-8.7z"/><path class="st1" d="M26.2 287h8.7v8.7h-8.7z"/><path class="st0" d="M34.9 287h8.7v8.7h-8.7z"/><path class="st1" d="M43.6 287h8.7v8.7h-8.7zm-8.7-8.7h8.7v8.7h-8.7z"/><path class="st0" d="M43.6 278.3h8.7v8.7h-8.7zm-17.4 0h8.7v8.7h-8.7z"/><path class="st1" d="M26.2 269.6h8.7v8.7h-8.7z"/><path class="st0" d="M34.9 269.6h8.7v8.7h-8.7z"/><path class="st1" d="M43.6 269.6h8.7v8.7h-8.7zm-8.7-8.7h8.7v8.7h-8.7z"/><path class="st0" d="M43.6 260.9h8.7v8.7h-8.7zm-17.4 0h8.7v8.7h-8.7z"/><path class="st1" d="M26.2 252.1h8.7v8.7h-8.7z"/><path class="st0" d="M34.9 252.1h8.7v8.7h-8.7z"/><path class="st1" d="M43.6 252.1h8.7v8.7h-8.7zm-8.7-8.7h8.7v8.7h-8.7z"/><path class="st0" d="M43.6 243.4h8.7v8.7h-8.7zm-17.4 0h8.7v8.7h-8.7z"/><path class="st1" d="M26.2 234.7h8.7v8.7h-8.7z"/><path class="st0" d="M34.9 234.7h8.7v8.7h-8.7z"/><path class="st1" d="M43.6 234.7h8.7v8.7h-8.7zm-8.7-8.7h8.7v8.7h-8.7z"/><path class="st0" d="M43.6 226h8.7v8.7h-8.7zm-17.4 0h8.7v8.7h-8.7z"/><path class="st1" d="M26.2 217.3h8.7v8.7h-8.7z"/><path class="st0" d="M34.9 217.3h8.7v8.7h-8.7z"/><path class="st1" d="M43.6 217.3h8.7v8.7h-8.7zm-8.7-8.7h8.7v8.7h-8.7z"/><path class="st0" d="M43.6 208.6h8.7v8.7h-8.7zm-17.4 0h8.7v8.7h-8.7z"/><path class="st1" d="M26.2 199.8h8.7v8.7h-8.7z"/><path class="st0" d="M34.9 199.8h8.7v8.7h-8.7z"/><path class="st1" d="M43.6 199.8h8.7v8.7h-8.7zm-8.7-8.7h8.7v8.7h-8.7z"/><path class="st0" d="M43.6 191.1h8.7v8.7h-8.7zm-17.4 0h8.7v8.7h-8.7z"/><path class="st1" d="M26.2 182.7h8.7v8.7h-8.7z"/><path class="st0" d="M34.9 182.7h8.7v8.7h-8.7z"/><path class="st1" d="M43.6 182.7h8.7v8.7h-8.7zm-8.7-8.7h8.7v8.7h-8.7z"/><path class="st0" d="M43.6 174h8.7v8.7h-8.7zm-17.4 0h8.7v8.7h-8.7z"/><path class="st1" d="M26.2 165.3h8.7v8.7h-8.7z"/><path class="st0" d="M34.9 165.3h8.7v8.7h-8.7z"/><path class="st1" d="M43.6 165.3h8.7v8.7h-8.7zm-8.7-8.7h8.7v8.7h-8.7z"/><path class="st0" d="M43.6 156.6h8.7v8.7h-8.7zm-17.4 0h8.7v8.7h-8.7z"/><path class="st1" d="M26.2 147.9h8.7v8.7h-8.7z"/><path class="st0" d="M34.9 147.9h8.7v8.7h-8.7z"/><path class="st1" d="M43.6 147.9h8.7v8.7h-8.7zm-8.7-8.8h8.7v8.7h-8.7z"/><path class="st0" d="M43.6 139.1h8.7v8.7h-8.7zm-17.4 0h8.7v8.7h-8.7z"/><path class="st1" d="M26.2 130.4h8.7v8.7h-8.7z"/><path class="st0" d="M34.9 130.4h8.7v8.7h-8.7z"/><path class="st1" d="M43.6 130.4h8.7v8.7h-8.7zm-8.7-8.7h8.7v8.7h-8.7z"/><path class="st0" d="M43.6 121.7h8.7v8.7h-8.7zm-17.4 0h8.7v8.7h-8.7z"/><path class="st1" d="M26.2 113h8.7v8.7h-8.7z"/><path class="st0" d="M34.9 113h8.7v8.7h-8.7z"/><path class="st1" d="M43.6 113h8.7v8.7h-8.7zm-8.7-8.7h8.7v8.7h-8.7z"/><path class="st0" d="M43.6 104.3h8.7v8.7h-8.7zm-17.4 0h8.7v8.7h-8.7z"/><path class="st1" d="M26.2 95.6h8.7v8.7h-8.7z"/><path class="st0" d="M34.9 95.6h8.7v8.7h-8.7z"/><path class="st1" d="M43.6 95.6h8.7v8.7h-8.7zm-8.7-8.8h8.7v8.7h-8.7z"/><path class="st0" d="M43.6 86.8h8.7v8.7h-8.7zm-17.4 0h8.7v8.7h-8.7z"/><path class="st1" d="M26.2 78.1h8.7v8.7h-8.7z"/><path class="st0" d="M34.9 78.1h8.7v8.7h-8.7z"/><path class="st1" d="M43.6 78.1h8.7v8.7h-8.7zm-8.7-8.7h8.7v8.7h-8.7z"/><path class="st0" d="M43.6 69.4h8.7v8.7h-8.7zm-17.4 0h8.7v8.7h-8.7z"/><path class="st1" d="M26.2 60.7h8.7v8.7h-8.7z"/><path class="st0" d="M34.9 60.7h8.7v8.7h-8.7z"/><path class="st1" d="M43.6 60.7h8.7v8.7h-8.7zM34.9 52h8.7v8.7h-8.7z"/><path class="st0" d="M43.6 52h8.7v8.7h-8.7zm-17.4 0h8.7v8.7h-8.7z"/><path class="st1" d="M26.2 43.6h8.7v8.7h-8.7z"/><path class="st0" d="M34.9 43.6h8.7v8.7h-8.7z"/><path class="st1" d="M43.6 43.6h8.7v8.7h-8.7zm-8.7-8.7h8.7v8.7h-8.7z"/><path class="st0" d="M43.6 34.9h8.7v8.7h-8.7zm-17.4 0h8.7v8.7h-8.7z"/><path class="st1" d="M26.2 26.2h8.7v8.7h-8.7z"/><path class="st0" d="M34.9 26.2h8.7v8.7h-8.7z"/><path class="st1" d="M43.6 26.2h8.7v8.7h-8.7zm-8.7-8.8h8.7v8.7h-8.7z"/><path class="st0" d="M43.6 17.4h8.7v8.7h-8.7zm-17.4 0h8.7v8.7h-8.7z"/><path class="st1" d="M26.2 8.7h8.7v8.7h-8.7z"/><path class="st0" d="M34.9 8.7h8.7v8.7h-8.7z"/><path class="st1" d="M43.6 8.7h8.7v8.7h-8.7zM34.9 0h8.7v8.7h-8.7z"/><path class="st0" d="M43.6 0h8.7v8.7h-8.7zM26.2 0h8.7v8.7h-8.7z"/><path class="st1" d="M52.3 0H61v8.7h-8.7z"/><path class="st0" d="M61 0h8.7v8.7H61z"/><path class="st1" d="M69.7 0h8.7v8.7h-8.7zM61 8.7h8.7v8.7H61z"/><path class="st0" d="M69.7 8.7h8.7v8.7h-8.7zm-17.4 0H61v8.7h-8.7z"/><path class="st1" d="M52.3 17.4H61v8.7h-8.7z"/><path class="st0" d="M61 17.4h8.7v8.7H61z"/><path class="st1" d="M69.7 17.4h8.7v8.7h-8.7zM61 26.2h8.7v8.7H61z"/><path class="st0" d="M69.7 26.2h8.7v8.7h-8.7zm-17.4 0H61v8.7h-8.7z"/><path class="st1" d="M52.3 34.9H61v8.7h-8.7z"/><path class="st0" d="M61 34.9h8.7v8.7H61z"/><path class="st1" d="M69.7 34.9h8.7v8.7h-8.7zM61 43.6h8.7v8.7H61z"/><path class="st0" d="M69.7 43.6h8.7v8.7h-8.7zm-17.4 0H61v8.7h-8.7z"/><path class="st1" d="M52.3 52.3H61V61h-8.7z"/><path class="st0" d="M61 52.3h8.7V61H61z"/><path class="st1" d="M69.7 52.3h8.7V61h-8.7zM61 61h8.7v8.7H61z"/><path class="st0" d="M69.7 61h8.7v8.7h-8.7zm-17.4 0H61v8.7h-8.7z"/><path class="st1" d="M52.3 69.4H61v8.7h-8.7z"/><path class="st0" d="M61 69.4h8.7v8.7H61z"/><path class="st1" d="M69.7 69.4h8.7v8.7h-8.7zM61 78.1h8.7v8.7H61z"/><path class="st0" d="M69.7 78.1h8.7v8.7h-8.7zm-17.4 0H61v8.7h-8.7z"/><path class="st1" d="M52.3 86.8H61v8.7h-8.7z"/><path class="st0" d="M61 86.8h8.7v8.7H61z"/><path class="st1" d="M69.7 86.8h8.7v8.7h-8.7zM61 95.6h8.7v8.7H61z"/><path class="st0" d="M69.7 95.6h8.7v8.7h-8.7zm-17.4 0H61v8.7h-8.7z"/><path class="st1" d="M52.3 104.3H61v8.7h-8.7z"/><path class="st0" d="M61 104.3h8.7v8.7H61z"/><path class="st1" d="M69.7 104.3h8.7v8.7h-8.7zM61 113h8.7v8.7H61z"/><path class="st0" d="M69.7 113h8.7v8.7h-8.7zm-17.4 0H61v8.7h-8.7z"/><path class="st1" d="M52.3 121.7H61v8.7h-8.7z"/><path class="st0" d="M61 121.7h8.7v8.7H61z"/><path class="st1" d="M69.7 121.7h8.7v8.7h-8.7zm-8.7 8.7h8.7v8.7H61z"/><path class="st0" d="M69.7 130.4h8.7v8.7h-8.7zm-17.4 0H61v8.7h-8.7z"/><path class="st1" d="M52.3 139.1H61v8.7h-8.7z"/><path class="st0" d="M61 139.1h8.7v8.7H61z"/><path class="st1" d="M69.7 139.1h8.7v8.7h-8.7zm-8.7 8.8h8.7v8.7H61z"/><path class="st0" d="M69.7 147.9h8.7v8.7h-8.7zm-17.4 0H61v8.7h-8.7z"/><path class="st1" d="M52.3 156.6H61v8.7h-8.7z"/><path class="st0" d="M61 156.6h8.7v8.7H61z"/><path class="st1" d="M69.7 156.6h8.7v8.7h-8.7zm-8.7 8.7h8.7v8.7H61z"/><path class="st0" d="M69.7 165.3h8.7v8.7h-8.7zm-17.4 0H61v8.7h-8.7z"/><path class="st1" d="M52.3 174H61v8.7h-8.7z"/><path class="st0" d="M61 174h8.7v8.7H61z"/><path class="st1" d="M69.7 174h8.7v8.7h-8.7zm-8.7 8.7h8.7v8.7H61z"/><path class="st0" d="M69.7 182.7h8.7v8.7h-8.7zm-17.4 0H61v8.7h-8.7z"/><path class="st1" d="M52.3 191.4H61v8.7h-8.7z"/><path class="st0" d="M61 191.4h8.7v8.7H61z"/><path class="st1" d="M69.7 191.4h8.7v8.7h-8.7zm-8.7 8.8h8.7v8.7H61z"/><path class="st0" d="M69.7 200.2h8.7v8.7h-8.7zm-17.4 0H61v8.7h-8.7z"/><path class="st1" d="M52.3 208.6H61v8.7h-8.7z"/><path class="st0" d="M61 208.6h8.7v8.7H61z"/><path class="st1" d="M69.7 208.6h8.7v8.7h-8.7zm-8.7 8.7h8.7v8.7H61z"/><path class="st0" d="M69.7 217.3h8.7v8.7h-8.7zm-17.4 0H61v8.7h-8.7z"/><path class="st1" d="M52.3 226H61v8.7h-8.7z"/><path class="st0" d="M61 226h8.7v8.7H61z"/><path class="st1" d="M69.7 226h8.7v8.7h-8.7zm-8.7 8.7h8.7v8.7H61z"/><path class="st0" d="M69.7 234.7h8.7v8.7h-8.7zm-17.4 0H61v8.7h-8.7z"/><path class="st1" d="M52.3 243.4H61v8.7h-8.7z"/><path class="st0" d="M61 243.4h8.7v8.7H61z"/><path class="st1" d="M69.7 243.4h8.7v8.7h-8.7zm-8.7 8.7h8.7v8.7H61z"/><path class="st0" d="M69.7 252.1h8.7v8.7h-8.7zm-17.4 0H61v8.7h-8.7z"/><path class="st1" d="M52.3 260.9H61v8.7h-8.7z"/><path class="st0" d="M61 260.9h8.7v8.7H61z"/><path class="st1" d="M69.7 260.9h8.7v8.7h-8.7zm-8.7 8.7h8.7v8.7H61z"/><path class="st0" d="M69.7 269.6h8.7v8.7h-8.7zm-17.4 0H61v8.7h-8.7z"/><path class="st1" d="M52.3 278.3H61v8.7h-8.7z"/><path class="st0" d="M61 278.3h8.7v8.7H61z"/><path class="st1" d="M69.7 278.3h8.7v8.7h-8.7zM61 287h8.7v8.7H61z"/><path class="st0" d="M69.7 287h8.7v8.7h-8.7zm-17.4 0H61v8.7h-8.7z"/><path class="st1" d="M52.3 295.7H61v8.7h-8.7z"/><path class="st0" d="M61 295.7h8.7v8.7H61z"/><path class="st1" d="M69.7 295.7h8.7v8.7h-8.7zm-8.7 8.7h8.7v8.7H61z"/><path class="st0" d="M69.7 304.4h8.7v8.7h-8.7zm-17.4 0H61v8.7h-8.7z"/><path class="st1" d="M52.3 313.2H61v8.7h-8.7z"/><path class="st0" d="M61 313.2h8.7v8.7H61z"/><path class="st1" d="M69.7 313.2h8.7v8.7h-8.7zm-8.7 8.7h8.7v8.7H61z"/><path class="st0" d="M69.7 321.9h8.7v8.7h-8.7zm-17.4 0H61v8.7h-8.7z"/><path class="st1" d="M52.3 330.6H61v8.7h-8.7z"/><path class="st0" d="M61 330.6h8.7v8.7H61z"/><path class="st1" d="M69.7 330.6h8.7v8.7h-8.7zm-8.7 8.7h8.7v8.7H61z"/><path class="st0" d="M69.7 339.3h8.7v8.7h-8.7zm-17.4 0H61v8.7h-8.7z"/><path class="st1" d="M52.3 347.7H61v8.7h-8.7z"/><path class="st0" d="M61 347.7h8.7v8.7H61z"/><path class="st1" d="M69.7 347.7h8.7v8.7h-8.7zm-8.7 8.7h8.7v8.7H61z"/><path class="st0" d="M69.7 356.4h8.7v8.7h-8.7zm-17.4 0H61v8.7h-8.7z"/><path class="st1" d="M52.3 365.1H61v8.7h-8.7z"/><path class="st0" d="M61 365.1h8.7v8.7H61z"/><path class="st1" d="M69.7 365.1h8.7v8.7h-8.7zm-8.7 8.7h8.7v8.7H61z"/><path class="st0" d="M69.7 373.8h8.7v8.7h-8.7zm-17.4 0H61v8.7h-8.7z"/><path class="st1" d="M52.3 382.6H61v8.7h-8.7z"/><path class="st0" d="M61 382.6h8.7v8.7H61z"/><path class="st1" d="M69.7 382.6h8.7v8.7h-8.7zm-8.7 8.7h8.7v8.7H61z"/><path class="st0" d="M69.7 391.3h8.7v8.7h-8.7zm-17.4 0H61v8.7h-8.7z"/><path class="st1" d="M78.5 391.3h8.7v8.7h-8.7z"/><path class="st0" d="M87.2 391.3h8.7v8.7h-8.7z"/><path class="st1" d="M95.9 391.3h8.7v8.7h-8.7zm-8.7-8.7h8.7v8.7h-8.7z"/><path class="st0" d="M95.9 382.6h8.7v8.7h-8.7zm-17.4 0h8.7v8.7h-8.7z"/><path class="st1" d="M78.5 373.8h8.7v8.7h-8.7z"/><path class="st0" d="M87.2 373.8h8.7v8.7h-8.7z"/><path class="st1" d="M95.9 373.8h8.7v8.7h-8.7zm-8.7-8.7h8.7v8.7h-8.7z"/><path class="st0" d="M95.9 365.1h8.7v8.7h-8.7zm-17.4 0h8.7v8.7h-8.7z"/><path class="st1" d="M78.5 356.4h8.7v8.7h-8.7z"/><path class="st0" d="M87.2 356.4h8.7v8.7h-8.7z"/><path class="st1" d="M95.9 356.4h8.7v8.7h-8.7zm-8.7-8.7h8.7v8.7h-8.7z"/><path class="st0" d="M95.9 347.7h8.7v8.7h-8.7zm-17.4 0h8.7v8.7h-8.7z"/><path class="st1" d="M78.5 339h8.7v8.7h-8.7z"/><path class="st0" d="M87.2 339h8.7v8.7h-8.7z"/><path class="st1" d="M95.9 339h8.7v8.7h-8.7zm-8.7-8.7h8.7v8.7h-8.7z"/><path class="st0" d="M95.9 330.3h8.7v8.7h-8.7zm-17.4 0h8.7v8.7h-8.7z"/><path class="st1" d="M78.5 321.9h8.7v8.7h-8.7z"/><path class="st0" d="M87.2 321.9h8.7v8.7h-8.7z"/><path class="st1" d="M95.9 321.9h8.7v8.7h-8.7zm-8.7-8.7h8.7v8.7h-8.7z"/><path class="st0" d="M95.9 313.2h8.7v8.7h-8.7zm-17.4 0h8.7v8.7h-8.7z"/><path class="st1" d="M78.5 304.4h8.7v8.7h-8.7z"/><path class="st0" d="M87.2 304.4h8.7v8.7h-8.7z"/><path class="st1" d="M95.9 304.4h8.7v8.7h-8.7zm-8.7-8.7h8.7v8.7h-8.7z"/><path class="st0" d="M95.9 295.7h8.7v8.7h-8.7zm-17.4 0h8.7v8.7h-8.7z"/><path class="st1" d="M78.5 287h8.7v8.7h-8.7z"/><path class="st0" d="M87.2 287h8.7v8.7h-8.7z"/><path class="st1" d="M95.9 287h8.7v8.7h-8.7zm-8.7-8.7h8.7v8.7h-8.7z"/><path class="st0" d="M95.9 278.3h8.7v8.7h-8.7zm-17.4 0h8.7v8.7h-8.7z"/><path class="st1" d="M78.5 269.6h8.7v8.7h-8.7z"/><path class="st0" d="M87.2 269.6h8.7v8.7h-8.7z"/><path class="st1" d="M95.9 269.6h8.7v8.7h-8.7zm-8.7-8.7h8.7v8.7h-8.7z"/><path class="st0" d="M95.9 260.9h8.7v8.7h-8.7zm-17.4 0h8.7v8.7h-8.7z"/><path class="st1" d="M78.5 252.1h8.7v8.7h-8.7z"/><path class="st0" d="M87.2 252.1h8.7v8.7h-8.7z"/><path class="st1" d="M95.9 252.1h8.7v8.7h-8.7zm-8.7-8.7h8.7v8.7h-8.7z"/><path class="st0" d="M95.9 243.4h8.7v8.7h-8.7zm-17.4 0h8.7v8.7h-8.7z"/><path class="st1" d="M78.5 234.7h8.7v8.7h-8.7z"/><path class="st0" d="M87.2 234.7h8.7v8.7h-8.7z"/><path class="st1" d="M95.9 234.7h8.7v8.7h-8.7zm-8.7-8.7h8.7v8.7h-8.7z"/><path class="st0" d="M95.9 226h8.7v8.7h-8.7zm-17.4 0h8.7v8.7h-8.7z"/><path class="st1" d="M78.5 217.3h8.7v8.7h-8.7z"/><path class="st0" d="M87.2 217.3h8.7v8.7h-8.7z"/><path class="st1" d="M95.9 217.3h8.7v8.7h-8.7zm-8.7-8.7h8.7v8.7h-8.7z"/><path class="st0" d="M95.9 208.6h8.7v8.7h-8.7zm-17.4 0h8.7v8.7h-8.7z"/><path class="st1" d="M78.5 199.8h8.7v8.7h-8.7z"/><path class="st0" d="M87.2 199.8h8.7v8.7h-8.7z"/><path class="st1" d="M95.9 199.8h8.7v8.7h-8.7zm-8.7-8.7h8.7v8.7h-8.7z"/><path class="st0" d="M95.9 191.1h8.7v8.7h-8.7zm-17.4 0h8.7v8.7h-8.7z"/><path class="st1" d="M78.5 182.7h8.7v8.7h-8.7z"/><path class="st0" d="M87.2 182.7h8.7v8.7h-8.7z"/><path class="st1" d="M95.9 182.7h8.7v8.7h-8.7zm-8.7-8.7h8.7v8.7h-8.7z"/><path class="st0" d="M95.9 174h8.7v8.7h-8.7zm-17.4 0h8.7v8.7h-8.7z"/><path class="st1" d="M78.5 165.3h8.7v8.7h-8.7z"/><path class="st0" d="M87.2 165.3h8.7v8.7h-8.7z"/><path class="st1" d="M95.9 165.3h8.7v8.7h-8.7zm-8.7-8.7h8.7v8.7h-8.7z"/><path class="st0" d="M95.9 156.6h8.7v8.7h-8.7zm-17.4 0h8.7v8.7h-8.7z"/><path class="st1" d="M78.5 147.9h8.7v8.7h-8.7z"/><path class="st0" d="M87.2 147.9h8.7v8.7h-8.7z"/><path class="st1" d="M95.9 147.9h8.7v8.7h-8.7zm-8.7-8.8h8.7v8.7h-8.7z"/><path class="st0" d="M95.9 139.1h8.7v8.7h-8.7zm-17.4 0h8.7v8.7h-8.7z"/><path class="st1" d="M78.5 130.4h8.7v8.7h-8.7z"/><path class="st0" d="M87.2 130.4h8.7v8.7h-8.7z"/><path class="st1" d="M95.9 130.4h8.7v8.7h-8.7zm-8.7-8.7h8.7v8.7h-8.7z"/><path class="st0" d="M95.9 121.7h8.7v8.7h-8.7zm-17.4 0h8.7v8.7h-8.7z"/><path class="st1" d="M78.5 113h8.7v8.7h-8.7z"/><path class="st0" d="M87.2 113h8.7v8.7h-8.7z"/><path class="st1" d="M95.9 113h8.7v8.7h-8.7zm-8.7-8.7h8.7v8.7h-8.7z"/><path class="st0" d="M95.9 104.3h8.7v8.7h-8.7zm-17.4 0h8.7v8.7h-8.7z"/><path class="st1" d="M78.5 95.6h8.7v8.7h-8.7z"/><path class="st0" d="M87.2 95.6h8.7v8.7h-8.7z"/><path class="st1" d="M95.9 95.6h8.7v8.7h-8.7zm-8.7-8.8h8.7v8.7h-8.7z"/><path class="st0" d="M95.9 86.8h8.7v8.7h-8.7zm-17.4 0h8.7v8.7h-8.7z"/><path class="st1" d="M78.5 78.1h8.7v8.7h-8.7z"/><path class="st0" d="M87.2 78.1h8.7v8.7h-8.7z"/><path class="st1" d="M95.9 78.1h8.7v8.7h-8.7zm-8.7-8.7h8.7v8.7h-8.7z"/><path class="st0" d="M95.9 69.4h8.7v8.7h-8.7zm-17.4 0h8.7v8.7h-8.7z"/><path class="st1" d="M78.5 60.7h8.7v8.7h-8.7z"/><path class="st0" d="M87.2 60.7h8.7v8.7h-8.7z"/><path class="st1" d="M95.9 60.7h8.7v8.7h-8.7zM87.2 52h8.7v8.7h-8.7z"/><path class="st0" d="M95.9 52h8.7v8.7h-8.7zm-17.4 0h8.7v8.7h-8.7z"/><path class="st1" d="M78.5 43.6h8.7v8.7h-8.7z"/><path class="st0" d="M87.2 43.6h8.7v8.7h-8.7z"/><path class="st1" d="M95.9 43.6h8.7v8.7h-8.7zm-8.7-8.7h8.7v8.7h-8.7z"/><path class="st0" d="M95.9 34.9h8.7v8.7h-8.7zm-17.4 0h8.7v8.7h-8.7z"/><path class="st1" d="M78.5 26.2h8.7v8.7h-8.7z"/><path class="st0" d="M87.2 26.2h8.7v8.7h-8.7z"/><path class="st1" d="M95.9 26.2h8.7v8.7h-8.7zm-8.7-8.8h8.7v8.7h-8.7z"/><path class="st0" d="M95.9 17.4h8.7v8.7h-8.7zm-17.4 0h8.7v8.7h-8.7z"/><path class="st1" d="M78.5 8.7h8.7v8.7h-8.7z"/><path class="st0" d="M87.2 8.7h8.7v8.7h-8.7z"/><path class="st1" d="M95.9 8.7h8.7v8.7h-8.7zM87.2 0h8.7v8.7h-8.7z"/><path class="st0" d="M95.9 0h8.7v8.7h-8.7zM78.5 0h8.7v8.7h-8.7z"/><path class="st1" d="M104.6 0h8.7v8.7h-8.7z"/><path class="st0" d="M113.3 0h8.7v8.7h-8.7z"/><path class="st1" d="M122 0h8.7v8.7H122zm-8.7 8.7h8.7v8.7h-8.7z"/><path class="st0" d="M122 8.7h8.7v8.7H122zm-17.4 0h8.7v8.7h-8.7z"/><path class="st1" d="M104.6 17.4h8.7v8.7h-8.7z"/><path class="st0" d="M113.3 17.4h8.7v8.7h-8.7z"/><path class="st1" d="M122 17.4h8.7v8.7H122zm-8.7 8.8h8.7v8.7h-8.7z"/><path class="st0" d="M122 26.2h8.7v8.7H122zm-17.4 0h8.7v8.7h-8.7z"/><path class="st1" d="M104.6 34.9h8.7v8.7h-8.7z"/><path class="st0" d="M113.3 34.9h8.7v8.7h-8.7z"/><path class="st1" d="M122 34.9h8.7v8.7H122zm-8.7 8.7h8.7v8.7h-8.7z"/><path class="st0" d="M122 43.6h8.7v8.7H122zm-17.4 0h8.7v8.7h-8.7z"/><path class="st1" d="M104.6 52.3h8.7V61h-8.7z"/><path class="st0" d="M113.3 52.3h8.7V61h-8.7z"/><path class="st1" d="M122 52.3h8.7V61H122zm-8.7 8.7h8.7v8.7h-8.7z"/><path class="st0" d="M122 61h8.7v8.7H122zm-17.4 0h8.7v8.7h-8.7z"/><path class="st1" d="M104.6 69.4h8.7v8.7h-8.7z"/><path class="st0" d="M113.3 69.4h8.7v8.7h-8.7z"/><path class="st1" d="M122 69.4h8.7v8.7H122zm-8.7 8.7h8.7v8.7h-8.7z"/><path class="st0" d="M122 78.1h8.7v8.7H122zm-17.4 0h8.7v8.7h-8.7z"/><path class="st1" d="M104.6 86.8h8.7v8.7h-8.7z"/><path class="st0" d="M113.3 86.8h8.7v8.7h-8.7z"/><path class="st1" d="M122 86.8h8.7v8.7H122zm-8.7 8.8h8.7v8.7h-8.7z"/><path class="st0" d="M122 95.6h8.7v8.7H122zm-17.4 0h8.7v8.7h-8.7z"/><path class="st1" d="M104.6 104.3h8.7v8.7h-8.7z"/><path class="st0" d="M113.3 104.3h8.7v8.7h-8.7z"/><path class="st1" d="M122 104.3h8.7v8.7H122zm-8.7 8.7h8.7v8.7h-8.7z"/><path class="st0" d="M122 113h8.7v8.7H122zm-17.4 0h8.7v8.7h-8.7z"/><path class="st1" d="M104.6 121.7h8.7v8.7h-8.7z"/><path class="st0" d="M113.3 121.7h8.7v8.7h-8.7z"/><path class="st1" d="M122 121.7h8.7v8.7H122zm-8.7 8.7h8.7v8.7h-8.7z"/><path class="st0" d="M122 130.4h8.7v8.7H122zm-17.4 0h8.7v8.7h-8.7z"/><path class="st1" d="M104.6 139.1h8.7v8.7h-8.7z"/><path class="st0" d="M113.3 139.1h8.7v8.7h-8.7z"/><path class="st1" d="M122 139.1h8.7v8.7H122zm-8.7 8.8h8.7v8.7h-8.7z"/><path class="st0" d="M122 147.9h8.7v8.7H122zm-17.4 0h8.7v8.7h-8.7z"/><path class="st1" d="M104.6 156.6h8.7v8.7h-8.7z"/><path class="st0" d="M113.3 156.6h8.7v8.7h-8.7z"/><path class="st1" d="M122 156.6h8.7v8.7H122zm-8.7 8.7h8.7v8.7h-8.7z"/><path class="st0" d="M122 165.3h8.7v8.7H122zm-17.4 0h8.7v8.7h-8.7z"/><path class="st1" d="M104.6 174h8.7v8.7h-8.7z"/><path class="st0" d="M113.3 174h8.7v8.7h-8.7z"/><path class="st1" d="M122 174h8.7v8.7H122zm-8.7 8.7h8.7v8.7h-8.7z"/><path class="st0" d="M122 182.7h8.7v8.7H122zm-17.4 0h8.7v8.7h-8.7z"/><path class="st1" d="M104.6 191.4h8.7v8.7h-8.7z"/><path class="st0" d="M113.3 191.4h8.7v8.7h-8.7z"/><path class="st1" d="M122 191.4h8.7v8.7H122zm-8.7 8.8h8.7v8.7h-8.7z"/><path class="st0" d="M122 200.2h8.7v8.7H122zm-17.4 0h8.7v8.7h-8.7z"/><path class="st1" d="M104.6 208.6h8.7v8.7h-8.7z"/><path class="st0" d="M113.3 208.6h8.7v8.7h-8.7z"/><path class="st1" d="M122 208.6h8.7v8.7H122zm-8.7 8.7h8.7v8.7h-8.7z"/><path class="st0" d="M122 217.3h8.7v8.7H122zm-17.4 0h8.7v8.7h-8.7z"/><path class="st1" d="M104.6 226h8.7v8.7h-8.7z"/><path class="st0" d="M113.3 226h8.7v8.7h-8.7z"/><path class="st1" d="M122 226h8.7v8.7H122zm-8.7 8.7h8.7v8.7h-8.7z"/><path class="st0" d="M122 234.7h8.7v8.7H122zm-17.4 0h8.7v8.7h-8.7z"/><path class="st1" d="M104.6 243.4h8.7v8.7h-8.7z"/><path class="st0" d="M113.3 243.4h8.7v8.7h-8.7z"/><path class="st1" d="M122 243.4h8.7v8.7H122zm-8.7 8.7h8.7v8.7h-8.7z"/><path class="st0" d="M122 252.1h8.7v8.7H122zm-17.4 0h8.7v8.7h-8.7z"/><path class="st1" d="M104.6 260.9h8.7v8.7h-8.7z"/><path class="st0" d="M113.3 260.9h8.7v8.7h-8.7z"/><path class="st1" d="M122 260.9h8.7v8.7H122zm-8.7 8.7h8.7v8.7h-8.7z"/><path class="st0" d="M122 269.6h8.7v8.7H122zm-17.4 0h8.7v8.7h-8.7z"/><path class="st1" d="M104.6 278.3h8.7v8.7h-8.7z"/><path class="st0" d="M113.3 278.3h8.7v8.7h-8.7z"/><path class="st1" d="M122 278.3h8.7v8.7H122zm-8.7 8.7h8.7v8.7h-8.7z"/><path class="st0" d="M122 287h8.7v8.7H122zm-17.4 0h8.7v8.7h-8.7z"/><path class="st1" d="M104.6 295.7h8.7v8.7h-8.7z"/><path class="st0" d="M113.3 295.7h8.7v8.7h-8.7z"/><path class="st1" d="M122 295.7h8.7v8.7H122zm-8.7 8.7h8.7v8.7h-8.7z"/><path class="st0" d="M122 304.4h8.7v8.7H122zm-17.4 0h8.7v8.7h-8.7z"/><path class="st1" d="M104.6 313.2h8.7v8.7h-8.7z"/><path class="st0" d="M113.3 313.2h8.7v8.7h-8.7z"/><path class="st1" d="M122 313.2h8.7v8.7H122zm-8.7 8.7h8.7v8.7h-8.7z"/><path class="st0" d="M122 321.9h8.7v8.7H122zm-17.4 0h8.7v8.7h-8.7z"/><path class="st1" d="M104.6 330.6h8.7v8.7h-8.7z"/><path class="st0" d="M113.3 330.6h8.7v8.7h-8.7z"/><path class="st1" d="M122 330.6h8.7v8.7H122zm-8.7 8.7h8.7v8.7h-8.7z"/><path class="st0" d="M122 339.3h8.7v8.7H122zm-17.4 0h8.7v8.7h-8.7z"/><path class="st1" d="M104.6 347.7h8.7v8.7h-8.7z"/><path class="st0" d="M113.3 347.7h8.7v8.7h-8.7z"/><path class="st1" d="M122 347.7h8.7v8.7H122zm-8.7 8.7h8.7v8.7h-8.7z"/><path class="st0" d="M122 356.4h8.7v8.7H122zm-17.4 0h8.7v8.7h-8.7z"/><path class="st1" d="M104.6 365.1h8.7v8.7h-8.7z"/><path class="st0" d="M113.3 365.1h8.7v8.7h-8.7z"/><path class="st1" d="M122 365.1h8.7v8.7H122zm-8.7 8.7h8.7v8.7h-8.7z"/><path class="st0" d="M122 373.8h8.7v8.7H122zm-17.4 0h8.7v8.7h-8.7z"/><path class="st1" d="M104.6 382.6h8.7v8.7h-8.7z"/><path class="st0" d="M113.3 382.6h8.7v8.7h-8.7z"/><path class="st1" d="M122 382.6h8.7v8.7H122zm-8.7 8.7h8.7v8.7h-8.7z"/><path class="st0" d="M122 391.3h8.7v8.7H122zm-17.4 0h8.7v8.7h-8.7z"/><path class="st1" d="M130.8 391.3h8.7v8.7h-8.7z"/><path class="st0" d="M139.5 391.3h8.7v8.7h-8.7z"/><path class="st1" d="M148.2 391.3h8.7v8.7h-8.7zm-8.7-8.7h8.7v8.7h-8.7z"/><path class="st0" d="M148.2 382.6h8.7v8.7h-8.7zm-17.4 0h8.7v8.7h-8.7z"/><path class="st1" d="M130.8 373.8h8.7v8.7h-8.7z"/><path class="st0" d="M139.5 373.8h8.7v8.7h-8.7z"/><path class="st1" d="M148.2 373.8h8.7v8.7h-8.7zm-8.7-8.7h8.7v8.7h-8.7z"/><path class="st0" d="M148.2 365.1h8.7v8.7h-8.7zm-17.4 0h8.7v8.7h-8.7z"/><path class="st1" d="M130.8 356.4h8.7v8.7h-8.7z"/><path class="st0" d="M139.5 356.4h8.7v8.7h-8.7z"/><path class="st1" d="M148.2 356.4h8.7v8.7h-8.7zm-8.7-8.7h8.7v8.7h-8.7z"/><path class="st0" d="M148.2 347.7h8.7v8.7h-8.7zm-17.4 0h8.7v8.7h-8.7z"/><path class="st1" d="M130.8 339h8.7v8.7h-8.7z"/><path class="st0" d="M139.5 339h8.7v8.7h-8.7z"/><path class="st1" d="M148.2 339h8.7v8.7h-8.7zm-8.7-8.7h8.7v8.7h-8.7z"/><path class="st0" d="M148.2 330.3h8.7v8.7h-8.7zm-17.4 0h8.7v8.7h-8.7z"/><path class="st1" d="M130.8 321.9h8.7v8.7h-8.7z"/><path class="st0" d="M139.5 321.9h8.7v8.7h-8.7z"/><path class="st1" d="M148.2 321.9h8.7v8.7h-8.7zm-8.7-8.7h8.7v8.7h-8.7z"/><path class="st0" d="M148.2 313.2h8.7v8.7h-8.7zm-17.4 0h8.7v8.7h-8.7z"/><path class="st1" d="M130.8 304.4h8.7v8.7h-8.7z"/><path class="st0" d="M139.5 304.4h8.7v8.7h-8.7z"/><path class="st1" d="M148.2 304.4h8.7v8.7h-8.7zm-8.7-8.7h8.7v8.7h-8.7z"/><path class="st0" d="M148.2 295.7h8.7v8.7h-8.7zm-17.4 0h8.7v8.7h-8.7z"/><path class="st1" d="M130.8 287h8.7v8.7h-8.7z"/><path class="st0" d="M139.5 287h8.7v8.7h-8.7z"/><path class="st1" d="M148.2 287h8.7v8.7h-8.7zm-8.7-8.7h8.7v8.7h-8.7z"/><path class="st0" d="M148.2 278.3h8.7v8.7h-8.7zm-17.4 0h8.7v8.7h-8.7z"/><path class="st1" d="M130.8 269.6h8.7v8.7h-8.7z"/><path class="st0" d="M139.5 269.6h8.7v8.7h-8.7z"/><path class="st1" d="M148.2 269.6h8.7v8.7h-8.7zm-8.7-8.7h8.7v8.7h-8.7z"/><path class="st0" d="M148.2 260.9h8.7v8.7h-8.7zm-17.4 0h8.7v8.7h-8.7z"/><path class="st1" d="M130.8 252.1h8.7v8.7h-8.7z"/><path class="st0" d="M139.5 252.1h8.7v8.7h-8.7z"/><path class="st1" d="M148.2 252.1h8.7v8.7h-8.7zm-8.7-8.7h8.7v8.7h-8.7z"/><path class="st0" d="M148.2 243.4h8.7v8.7h-8.7zm-17.4 0h8.7v8.7h-8.7z"/><path class="st1" d="M130.8 234.7h8.7v8.7h-8.7z"/><path class="st0" d="M139.5 234.7h8.7v8.7h-8.7z"/><path class="st1" d="M148.2 234.7h8.7v8.7h-8.7zm-8.7-8.7h8.7v8.7h-8.7z"/><path class="st0" d="M148.2 226h8.7v8.7h-8.7zm-17.4 0h8.7v8.7h-8.7z"/><path class="st1" d="M130.8 217.3h8.7v8.7h-8.7z"/><path class="st0" d="M139.5 217.3h8.7v8.7h-8.7z"/><path class="st1" d="M148.2 217.3h8.7v8.7h-8.7zm-8.7-8.7h8.7v8.7h-8.7z"/><path class="st0" d="M148.2 208.6h8.7v8.7h-8.7zm-17.4 0h8.7v8.7h-8.7z"/><path class="st1" d="M130.8 199.8h8.7v8.7h-8.7z"/><path class="st0" d="M139.5 199.8h8.7v8.7h-8.7z"/><path class="st1" d="M148.2 199.8h8.7v8.7h-8.7zm-8.7-8.7h8.7v8.7h-8.7z"/><path class="st0" d="M148.2 191.1h8.7v8.7h-8.7zm-17.4 0h8.7v8.7h-8.7z"/><path class="st1" d="M130.8 182.7h8.7v8.7h-8.7z"/><path class="st0" d="M139.5 182.7h8.7v8.7h-8.7z"/><path class="st1" d="M148.2 182.7h8.7v8.7h-8.7zm-8.7-8.7h8.7v8.7h-8.7z"/><path class="st0" d="M148.2 174h8.7v8.7h-8.7zm-17.4 0h8.7v8.7h-8.7z"/><path class="st1" d="M130.8 165.3h8.7v8.7h-8.7z"/><path class="st0" d="M139.5 165.3h8.7v8.7h-8.7z"/><path class="st1" d="M148.2 165.3h8.7v8.7h-8.7zm-8.7-8.7h8.7v8.7h-8.7z"/><path class="st0" d="M148.2 156.6h8.7v8.7h-8.7zm-17.4 0h8.7v8.7h-8.7z"/><path class="st1" d="M130.8 147.9h8.7v8.7h-8.7z"/><path class="st0" d="M139.5 147.9h8.7v8.7h-8.7z"/><path class="st1" d="M148.2 147.9h8.7v8.7h-8.7zm-8.7-8.8h8.7v8.7h-8.7z"/><path class="st0" d="M148.2 139.1h8.7v8.7h-8.7zm-17.4 0h8.7v8.7h-8.7z"/><path class="st1" d="M130.8 130.4h8.7v8.7h-8.7z"/><path class="st0" d="M139.5 130.4h8.7v8.7h-8.7z"/><path class="st1" d="M148.2 130.4h8.7v8.7h-8.7zm-8.7-8.7h8.7v8.7h-8.7z"/><path class="st0" d="M148.2 121.7h8.7v8.7h-8.7zm-17.4 0h8.7v8.7h-8.7z"/><path class="st1" d="M130.8 113h8.7v8.7h-8.7z"/><path class="st0" d="M139.5 113h8.7v8.7h-8.7z"/><path class="st1" d="M148.2 113h8.7v8.7h-8.7zm-8.7-8.7h8.7v8.7h-8.7z"/><path class="st0" d="M148.2 104.3h8.7v8.7h-8.7zm-17.4 0h8.7v8.7h-8.7z"/><path class="st1" d="M130.8 95.6h8.7v8.7h-8.7z"/><path class="st0" d="M139.5 95.6h8.7v8.7h-8.7z"/><path class="st1" d="M148.2 95.6h8.7v8.7h-8.7zm-8.7-8.8h8.7v8.7h-8.7z"/><path class="st0" d="M148.2 86.8h8.7v8.7h-8.7zm-17.4 0h8.7v8.7h-8.7z"/><path class="st1" d="M130.8 78.1h8.7v8.7h-8.7z"/><path class="st0" d="M139.5 78.1h8.7v8.7h-8.7z"/><path class="st1" d="M148.2 78.1h8.7v8.7h-8.7zm-8.7-8.7h8.7v8.7h-8.7z"/><path class="st0" d="M148.2 69.4h8.7v8.7h-8.7zm-17.4 0h8.7v8.7h-8.7z"/><path class="st1" d="M130.8 60.7h8.7v8.7h-8.7z"/><path class="st0" d="M139.5 60.7h8.7v8.7h-8.7z"/><path class="st1" d="M148.2 60.7h8.7v8.7h-8.7zm-8.7-8.7h8.7v8.7h-8.7z"/><path class="st0" d="M148.2 52h8.7v8.7h-8.7zm-17.4 0h8.7v8.7h-8.7z"/><path class="st1" d="M130.8 43.6h8.7v8.7h-8.7z"/><path class="st0" d="M139.5 43.6h8.7v8.7h-8.7z"/><path class="st1" d="M148.2 43.6h8.7v8.7h-8.7zm-8.7-8.7h8.7v8.7h-8.7z"/><path class="st0" d="M148.2 34.9h8.7v8.7h-8.7zm-17.4 0h8.7v8.7h-8.7z"/><path class="st1" d="M130.8 26.2h8.7v8.7h-8.7z"/><path class="st0" d="M139.5 26.2h8.7v8.7h-8.7z"/><path class="st1" d="M148.2 26.2h8.7v8.7h-8.7zm-8.7-8.8h8.7v8.7h-8.7z"/><path class="st0" d="M148.2 17.4h8.7v8.7h-8.7zm-17.4 0h8.7v8.7h-8.7z"/><path class="st1" d="M130.8 8.7h8.7v8.7h-8.7z"/><path class="st0" d="M139.5 8.7h8.7v8.7h-8.7z"/><path class="st1" d="M148.2 8.7h8.7v8.7h-8.7zM139.5 0h8.7v8.7h-8.7z"/><path class="st0" d="M148.2 0h8.7v8.7h-8.7zm-17.4 0h8.7v8.7h-8.7z"/><path class="st1" d="M156.9 0h8.7v8.7h-8.7z"/><path class="st0" d="M165.6 0h8.7v8.7h-8.7z"/><path class="st1" d="M174.3 0h8.7v8.7h-8.7zm-8.7 8.7h8.7v8.7h-8.7z"/><path class="st0" d="M174.3 8.7h8.7v8.7h-8.7zm-17.4 0h8.7v8.7h-8.7z"/><path class="st1" d="M156.9 17.4h8.7v8.7h-8.7z"/><path class="st0" d="M165.6 17.4h8.7v8.7h-8.7z"/><path class="st1" d="M174.3 17.4h8.7v8.7h-8.7zm-8.7 8.8h8.7v8.7h-8.7z"/><path class="st0" d="M174.3 26.2h8.7v8.7h-8.7zm-17.4 0h8.7v8.7h-8.7z"/><path class="st1" d="M156.9 34.9h8.7v8.7h-8.7z"/><path class="st0" d="M165.6 34.9h8.7v8.7h-8.7z"/><path class="st1" d="M174.3 34.9h8.7v8.7h-8.7zm-8.7 8.7h8.7v8.7h-8.7z"/><path class="st0" d="M174.3 43.6h8.7v8.7h-8.7zm-17.4 0h8.7v8.7h-8.7z"/><path class="st1" d="M156.9 52.3h8.7V61h-8.7z"/><path class="st0" d="M165.6 52.3h8.7V61h-8.7z"/><path class="st1" d="M174.3 52.3h8.7V61h-8.7zm-8.7 8.7h8.7v8.7h-8.7z"/><path class="st0" d="M174.3 61h8.7v8.7h-8.7zm-17.4 0h8.7v8.7h-8.7z"/><path class="st1" d="M156.9 69.4h8.7v8.7h-8.7z"/><path class="st0" d="M165.6 69.4h8.7v8.7h-8.7z"/><path class="st1" d="M174.3 69.4h8.7v8.7h-8.7zm-8.7 8.7h8.7v8.7h-8.7z"/><path class="st0" d="M174.3 78.1h8.7v8.7h-8.7zm-17.4 0h8.7v8.7h-8.7z"/><path class="st1" d="M156.9 86.8h8.7v8.7h-8.7z"/><path class="st0" d="M165.6 86.8h8.7v8.7h-8.7z"/><path class="st1" d="M174.3 86.8h8.7v8.7h-8.7zm-8.7 8.8h8.7v8.7h-8.7z"/><path class="st0" d="M174.3 95.6h8.7v8.7h-8.7zm-17.4 0h8.7v8.7h-8.7z"/><path class="st1" d="M156.9 104.3h8.7v8.7h-8.7z"/><path class="st0" d="M165.6 104.3h8.7v8.7h-8.7z"/><path class="st1" d="M174.3 104.3h8.7v8.7h-8.7zm-8.7 8.7h8.7v8.7h-8.7z"/><path class="st0" d="M174.3 113h8.7v8.7h-8.7zm-17.4 0h8.7v8.7h-8.7z"/><path class="st1" d="M156.9 121.7h8.7v8.7h-8.7z"/><path class="st0" d="M165.6 121.7h8.7v8.7h-8.7z"/><path class="st1" d="M174.3 121.7h8.7v8.7h-8.7zm-8.7 8.7h8.7v8.7h-8.7z"/><path class="st0" d="M174.3 130.4h8.7v8.7h-8.7zm-17.4 0h8.7v8.7h-8.7z"/><path class="st1" d="M156.9 139.1h8.7v8.7h-8.7z"/><path class="st0" d="M165.6 139.1h8.7v8.7h-8.7z"/><path class="st1" d="M174.3 139.1h8.7v8.7h-8.7zm-8.7 8.8h8.7v8.7h-8.7z"/><path class="st0" d="M174.3 147.9h8.7v8.7h-8.7zm-17.4 0h8.7v8.7h-8.7z"/><path class="st1" d="M156.9 156.6h8.7v8.7h-8.7z"/><path class="st0" d="M165.6 156.6h8.7v8.7h-8.7z"/><path class="st1" d="M174.3 156.6h8.7v8.7h-8.7zm-8.7 8.7h8.7v8.7h-8.7z"/><path class="st0" d="M174.3 165.3h8.7v8.7h-8.7zm-17.4 0h8.7v8.7h-8.7z"/><path class="st1" d="M156.9 174h8.7v8.7h-8.7z"/><path class="st0" d="M165.6 174h8.7v8.7h-8.7z"/><path class="st1" d="M174.3 174h8.7v8.7h-8.7zm-8.7 8.7h8.7v8.7h-8.7z"/><path class="st0" d="M174.3 182.7h8.7v8.7h-8.7zm-17.4 0h8.7v8.7h-8.7z"/><path class="st1" d="M156.9 191.4h8.7v8.7h-8.7z"/><path class="st0" d="M165.6 191.4h8.7v8.7h-8.7z"/><path class="st1" d="M174.3 191.4h8.7v8.7h-8.7zm-8.7 8.8h8.7v8.7h-8.7z"/><path class="st0" d="M174.3 200.2h8.7v8.7h-8.7zm-17.4 0h8.7v8.7h-8.7z"/><path class="st1" d="M156.9 208.6h8.7v8.7h-8.7z"/><path class="st0" d="M165.6 208.6h8.7v8.7h-8.7z"/><path class="st1" d="M174.3 208.6h8.7v8.7h-8.7zm-8.7 8.7h8.7v8.7h-8.7z"/><path class="st0" d="M174.3 217.3h8.7v8.7h-8.7zm-17.4 0h8.7v8.7h-8.7z"/><path class="st1" d="M156.9 226h8.7v8.7h-8.7z"/><path class="st0" d="M165.6 226h8.7v8.7h-8.7z"/><path class="st1" d="M174.3 226h8.7v8.7h-8.7zm-8.7 8.7h8.7v8.7h-8.7z"/><path class="st0" d="M174.3 234.7h8.7v8.7h-8.7zm-17.4 0h8.7v8.7h-8.7z"/><path class="st1" d="M156.9 243.4h8.7v8.7h-8.7z"/><path class="st0" d="M165.6 243.4h8.7v8.7h-8.7z"/><path class="st1" d="M174.3 243.4h8.7v8.7h-8.7zm-8.7 8.7h8.7v8.7h-8.7z"/><path class="st0" d="M174.3 252.1h8.7v8.7h-8.7zm-17.4 0h8.7v8.7h-8.7z"/><path class="st1" d="M156.9 260.9h8.7v8.7h-8.7z"/><path class="st0" d="M165.6 260.9h8.7v8.7h-8.7z"/><path class="st1" d="M174.3 260.9h8.7v8.7h-8.7zm-8.7 8.7h8.7v8.7h-8.7z"/><path class="st0" d="M174.3 269.6h8.7v8.7h-8.7zm-17.4 0h8.7v8.7h-8.7z"/><path class="st1" d="M156.9 278.3h8.7v8.7h-8.7z"/><path class="st0" d="M165.6 278.3h8.7v8.7h-8.7z"/><path class="st1" d="M174.3 278.3h8.7v8.7h-8.7zm-8.7 8.7h8.7v8.7h-8.7z"/><path class="st0" d="M174.3 287h8.7v8.7h-8.7zm-17.4 0h8.7v8.7h-8.7z"/><path class="st1" d="M156.9 295.7h8.7v8.7h-8.7z"/><path class="st0" d="M165.6 295.7h8.7v8.7h-8.7z"/><path class="st1" d="M174.3 295.7h8.7v8.7h-8.7zm-8.7 8.7h8.7v8.7h-8.7z"/><path class="st0" d="M174.3 304.4h8.7v8.7h-8.7zm-17.4 0h8.7v8.7h-8.7z"/><path class="st1" d="M156.9 313.2h8.7v8.7h-8.7z"/><path class="st0" d="M165.6 313.2h8.7v8.7h-8.7z"/><path class="st1" d="M174.3 313.2h8.7v8.7h-8.7zm-8.7 8.7h8.7v8.7h-8.7z"/><path class="st0" d="M174.3 321.9h8.7v8.7h-8.7zm-17.4 0h8.7v8.7h-8.7z"/><path class="st1" d="M156.9 330.6h8.7v8.7h-8.7z"/><path class="st0" d="M165.6 330.6h8.7v8.7h-8.7z"/><path class="st1" d="M174.3 330.6h8.7v8.7h-8.7zm-8.7 8.7h8.7v8.7h-8.7z"/><path class="st0" d="M174.3 339.3h8.7v8.7h-8.7zm-17.4 0h8.7v8.7h-8.7z"/><path class="st1" d="M156.9 347.7h8.7v8.7h-8.7z"/><path class="st0" d="M165.6 347.7h8.7v8.7h-8.7z"/><path class="st1" d="M174.3 347.7h8.7v8.7h-8.7zm-8.7 8.7h8.7v8.7h-8.7z"/><path class="st0" d="M174.3 356.4h8.7v8.7h-8.7zm-17.4 0h8.7v8.7h-8.7z"/><path class="st1" d="M156.9 365.1h8.7v8.7h-8.7z"/><path class="st0" d="M165.6 365.1h8.7v8.7h-8.7z"/><path class="st1" d="M174.3 365.1h8.7v8.7h-8.7zm-8.7 8.7h8.7v8.7h-8.7z"/><path class="st0" d="M174.3 373.8h8.7v8.7h-8.7zm-17.4 0h8.7v8.7h-8.7z"/><path class="st1" d="M156.9 382.6h8.7v8.7h-8.7z"/><path class="st0" d="M165.6 382.6h8.7v8.7h-8.7z"/><path class="st1" d="M174.3 382.6h8.7v8.7h-8.7zm-8.7 8.7h8.7v8.7h-8.7z"/><path class="st0" d="M174.3 391.3h8.7v8.7h-8.7zm-17.4 0h8.7v8.7h-8.7z"/><path class="st1" d="M183.1 391.3h8.7v8.7h-8.7z"/><path class="st0" d="M191.8 391.3h8.7v8.7h-8.7z"/><path class="st1" d="M200.5 391.3h8.7v8.7h-8.7zm-8.7-8.7h8.7v8.7h-8.7z"/><path class="st0" d="M200.5 382.6h8.7v8.7h-8.7zm-17.4 0h8.7v8.7h-8.7z"/><path class="st1" d="M183.1 373.8h8.7v8.7h-8.7z"/><path class="st0" d="M191.8 373.8h8.7v8.7h-8.7z"/><path class="st1" d="M200.5 373.8h8.7v8.7h-8.7zm-8.7-8.7h8.7v8.7h-8.7z"/><path class="st0" d="M200.5 365.1h8.7v8.7h-8.7zm-17.4 0h8.7v8.7h-8.7z"/><path class="st1" d="M183.1 356.4h8.7v8.7h-8.7z"/><path class="st0" d="M191.8 356.4h8.7v8.7h-8.7z"/><path class="st1" d="M200.5 356.4h8.7v8.7h-8.7zm-8.7-8.7h8.7v8.7h-8.7z"/><path class="st0" d="M200.5 347.7h8.7v8.7h-8.7zm-17.4 0h8.7v8.7h-8.7z"/><path class="st1" d="M183.1 339h8.7v8.7h-8.7z"/><path class="st0" d="M191.8 339h8.7v8.7h-8.7z"/><path class="st1" d="M200.5 339h8.7v8.7h-8.7zm-8.7-8.7h8.7v8.7h-8.7z"/><path class="st0" d="M200.5 330.3h8.7v8.7h-8.7zm-17.4 0h8.7v8.7h-8.7z"/><path class="st1" d="M183.1 321.9h8.7v8.7h-8.7z"/><path class="st0" d="M191.8 321.9h8.7v8.7h-8.7z"/><path class="st1" d="M200.5 321.9h8.7v8.7h-8.7zm-8.7-8.7h8.7v8.7h-8.7z"/><path class="st0" d="M200.5 313.2h8.7v8.7h-8.7zm-17.4 0h8.7v8.7h-8.7z"/><path class="st1" d="M183.1 304.4h8.7v8.7h-8.7z"/><path class="st0" d="M191.8 304.4h8.7v8.7h-8.7z"/><path class="st1" d="M200.5 304.4h8.7v8.7h-8.7zm-8.7-8.7h8.7v8.7h-8.7z"/><path class="st0" d="M200.5 295.7h8.7v8.7h-8.7zm-17.4 0h8.7v8.7h-8.7z"/><path class="st1" d="M183.1 287h8.7v8.7h-8.7z"/><path class="st0" d="M191.8 287h8.7v8.7h-8.7z"/><path class="st1" d="M200.5 287h8.7v8.7h-8.7zm-8.7-8.7h8.7v8.7h-8.7z"/><path class="st0" d="M200.5 278.3h8.7v8.7h-8.7zm-17.4 0h8.7v8.7h-8.7z"/><path class="st1" d="M183.1 269.6h8.7v8.7h-8.7z"/><path class="st0" d="M191.8 269.6h8.7v8.7h-8.7z"/><path class="st1" d="M200.5 269.6h8.7v8.7h-8.7zm-8.7-8.7h8.7v8.7h-8.7z"/><path class="st0" d="M200.5 260.9h8.7v8.7h-8.7zm-17.4 0h8.7v8.7h-8.7z"/><path class="st1" d="M183.1 252.1h8.7v8.7h-8.7z"/><path class="st0" d="M191.8 252.1h8.7v8.7h-8.7z"/><path class="st1" d="M200.5 252.1h8.7v8.7h-8.7zm-8.7-8.7h8.7v8.7h-8.7z"/><path class="st0" d="M200.5 243.4h8.7v8.7h-8.7zm-17.4 0h8.7v8.7h-8.7z"/><path class="st1" d="M183.1 234.7h8.7v8.7h-8.7z"/><path class="st0" d="M191.8 234.7h8.7v8.7h-8.7z"/><path class="st1" d="M200.5 234.7h8.7v8.7h-8.7zm-8.7-8.7h8.7v8.7h-8.7z"/><path class="st0" d="M200.5 226h8.7v8.7h-8.7zm-17.4 0h8.7v8.7h-8.7z"/><path class="st1" d="M183.1 217.3h8.7v8.7h-8.7z"/><path class="st0" d="M191.8 217.3h8.7v8.7h-8.7z"/><path class="st1" d="M200.5 217.3h8.7v8.7h-8.7zm-8.7-8.7h8.7v8.7h-8.7z"/><path class="st0" d="M200.5 208.6h8.7v8.7h-8.7zm-17.4 0h8.7v8.7h-8.7z"/><path class="st1" d="M183.1 199.8h8.7v8.7h-8.7z"/><path class="st0" d="M191.8 199.8h8.7v8.7h-8.7z"/><path class="st1" d="M200.5 199.8h8.7v8.7h-8.7zm-8.7-8.7h8.7v8.7h-8.7z"/><path class="st0" d="M200.5 191.1h8.7v8.7h-8.7zm-17.4 0h8.7v8.7h-8.7z"/><path class="st1" d="M183.1 182.7h8.7v8.7h-8.7z"/><path class="st0" d="M191.8 182.7h8.7v8.7h-8.7z"/><path class="st1" d="M200.5 182.7h8.7v8.7h-8.7zm-8.7-8.7h8.7v8.7h-8.7z"/><path class="st0" d="M200.5 174h8.7v8.7h-8.7zm-17.4 0h8.7v8.7h-8.7z"/><path class="st1" d="M183.1 165.3h8.7v8.7h-8.7z"/><path class="st0" d="M191.8 165.3h8.7v8.7h-8.7z"/><path class="st1" d="M200.5 165.3h8.7v8.7h-8.7zm-8.7-8.7h8.7v8.7h-8.7z"/><path class="st0" d="M200.5 156.6h8.7v8.7h-8.7zm-17.4 0h8.7v8.7h-8.7z"/><path class="st1" d="M183.1 147.9h8.7v8.7h-8.7z"/><path class="st0" d="M191.8 147.9h8.7v8.7h-8.7z"/><path class="st1" d="M200.5 147.9h8.7v8.7h-8.7zm-8.7-8.8h8.7v8.7h-8.7z"/><path class="st0" d="M200.5 139.1h8.7v8.7h-8.7zm-17.4 0h8.7v8.7h-8.7z"/><path class="st1" d="M183.1 130.4h8.7v8.7h-8.7z"/><path class="st0" d="M191.8 130.4h8.7v8.7h-8.7z"/><path class="st1" d="M200.5 130.4h8.7v8.7h-8.7zm-8.7-8.7h8.7v8.7h-8.7z"/><path class="st0" d="M200.5 121.7h8.7v8.7h-8.7zm-17.4 0h8.7v8.7h-8.7z"/><path class="st1" d="M183.1 113h8.7v8.7h-8.7z"/><path class="st0" d="M191.8 113h8.7v8.7h-8.7z"/><path class="st1" d="M200.5 113h8.7v8.7h-8.7zm-8.7-8.7h8.7v8.7h-8.7z"/><path class="st0" d="M200.5 104.3h8.7v8.7h-8.7zm-17.4 0h8.7v8.7h-8.7z"/><path class="st1" d="M183.1 95.6h8.7v8.7h-8.7z"/><path class="st0" d="M191.8 95.6h8.7v8.7h-8.7z"/><path class="st1" d="M200.5 95.6h8.7v8.7h-8.7zm-8.7-8.8h8.7v8.7h-8.7z"/><path class="st0" d="M200.5 86.8h8.7v8.7h-8.7zm-17.4 0h8.7v8.7h-8.7z"/><path class="st1" d="M183.1 78.1h8.7v8.7h-8.7z"/><path class="st0" d="M191.8 78.1h8.7v8.7h-8.7z"/><path class="st1" d="M200.5 78.1h8.7v8.7h-8.7zm-8.7-8.7h8.7v8.7h-8.7z"/><path class="st0" d="M200.5 69.4h8.7v8.7h-8.7zm-17.4 0h8.7v8.7h-8.7z"/><path class="st1" d="M183.1 60.7h8.7v8.7h-8.7z"/><path class="st0" d="M191.8 60.7h8.7v8.7h-8.7z"/><path class="st1" d="M200.5 60.7h8.7v8.7h-8.7zm-8.7-8.7h8.7v8.7h-8.7z"/><path class="st0" d="M200.5 52h8.7v8.7h-8.7zm-17.4 0h8.7v8.7h-8.7z"/><path class="st1" d="M183.1 43.6h8.7v8.7h-8.7z"/><path class="st0" d="M191.8 43.6h8.7v8.7h-8.7z"/><path class="st1" d="M200.5 43.6h8.7v8.7h-8.7zm-8.7-8.7h8.7v8.7h-8.7z"/><path class="st0" d="M200.5 34.9h8.7v8.7h-8.7zm-17.4 0h8.7v8.7h-8.7z"/><path class="st1" d="M183.1 26.2h8.7v8.7h-8.7z"/><path class="st0" d="M191.8 26.2h8.7v8.7h-8.7z"/><path class="st1" d="M200.5 26.2h8.7v8.7h-8.7zm-8.7-8.8h8.7v8.7h-8.7z"/><path class="st0" d="M200.5 17.4h8.7v8.7h-8.7zm-17.4 0h8.7v8.7h-8.7z"/><path class="st1" d="M183.1 8.7h8.7v8.7h-8.7z"/><path class="st0" d="M191.8 8.7h8.7v8.7h-8.7z"/><path class="st1" d="M200.5 8.7h8.7v8.7h-8.7zM191.8 0h8.7v8.7h-8.7z"/><path class="st0" d="M200.5 0h8.7v8.7h-8.7zm-17.4 0h8.7v8.7h-8.7z"/><path class="st1" d="M209.2 0h8.7v8.7h-8.7z"/><path class="st0" d="M217.9 0h8.7v8.7h-8.7z"/><path class="st1" d="M226.7 0h8.7v8.7h-8.7zm-8.8 8.7h8.7v8.7h-8.7z"/><path class="st0" d="M226.7 8.7h8.7v8.7h-8.7zm-17.5 0h8.7v8.7h-8.7z"/><path class="st1" d="M209.2 17.4h8.7v8.7h-8.7z"/><path class="st0" d="M217.9 17.4h8.7v8.7h-8.7z"/><path class="st1" d="M226.7 17.4h8.7v8.7h-8.7zm-8.8 8.8h8.7v8.7h-8.7z"/><path class="st0" d="M226.7 26.2h8.7v8.7h-8.7zm-17.5 0h8.7v8.7h-8.7z"/><path class="st1" d="M209.2 34.9h8.7v8.7h-8.7z"/><path class="st0" d="M217.9 34.9h8.7v8.7h-8.7z"/><path class="st1" d="M226.7 34.9h8.7v8.7h-8.7zm-8.8 8.7h8.7v8.7h-8.7z"/><path class="st0" d="M226.7 43.6h8.7v8.7h-8.7zm-17.5 0h8.7v8.7h-8.7z"/><path class="st1" d="M209.2 52.3h8.7V61h-8.7z"/><path class="st0" d="M217.9 52.3h8.7V61h-8.7z"/><path class="st1" d="M226.7 52.3h8.7V61h-8.7zm-8.8 8.7h8.7v8.7h-8.7z"/><path class="st0" d="M226.7 61h8.7v8.7h-8.7zm-17.5 0h8.7v8.7h-8.7z"/><path class="st1" d="M209.2 69.4h8.7v8.7h-8.7z"/><path class="st0" d="M217.9 69.4h8.7v8.7h-8.7z"/><path class="st1" d="M226.7 69.4h8.7v8.7h-8.7zm-8.8 8.7h8.7v8.7h-8.7z"/><path class="st0" d="M226.7 78.1h8.7v8.7h-8.7zm-17.5 0h8.7v8.7h-8.7z"/><path class="st1" d="M209.2 86.8h8.7v8.7h-8.7z"/><path class="st0" d="M217.9 86.8h8.7v8.7h-8.7z"/><path class="st1" d="M226.7 86.8h8.7v8.7h-8.7zm-8.8 8.8h8.7v8.7h-8.7z"/><path class="st0" d="M226.7 95.6h8.7v8.7h-8.7zm-17.5 0h8.7v8.7h-8.7z"/><path class="st1" d="M209.2 104.3h8.7v8.7h-8.7z"/><path class="st0" d="M217.9 104.3h8.7v8.7h-8.7z"/><path class="st1" d="M226.7 104.3h8.7v8.7h-8.7zm-8.8 8.7h8.7v8.7h-8.7z"/><path class="st0" d="M226.7 113h8.7v8.7h-8.7zm-17.5 0h8.7v8.7h-8.7z"/><path class="st1" d="M209.2 121.7h8.7v8.7h-8.7z"/><path class="st0" d="M217.9 121.7h8.7v8.7h-8.7z"/><path class="st1" d="M226.7 121.7h8.7v8.7h-8.7zm-8.8 8.7h8.7v8.7h-8.7z"/><path class="st0" d="M226.7 130.4h8.7v8.7h-8.7zm-17.5 0h8.7v8.7h-8.7z"/><path class="st1" d="M209.2 139.1h8.7v8.7h-8.7z"/><path class="st0" d="M217.9 139.1h8.7v8.7h-8.7z"/><path class="st1" d="M226.7 139.1h8.7v8.7h-8.7zm-8.8 8.8h8.7v8.7h-8.7z"/><path class="st0" d="M226.7 147.9h8.7v8.7h-8.7zm-17.5 0h8.7v8.7h-8.7z"/><path class="st1" d="M209.2 156.6h8.7v8.7h-8.7z"/><path class="st0" d="M217.9 156.6h8.7v8.7h-8.7z"/><path class="st1" d="M226.7 156.6h8.7v8.7h-8.7zm-8.8 8.7h8.7v8.7h-8.7z"/><path class="st0" d="M226.7 165.3h8.7v8.7h-8.7zm-17.5 0h8.7v8.7h-8.7z"/><path class="st1" d="M209.2 174h8.7v8.7h-8.7z"/><path class="st0" d="M217.9 174h8.7v8.7h-8.7z"/><path class="st1" d="M226.7 174h8.7v8.7h-8.7zm-8.8 8.7h8.7v8.7h-8.7z"/><path class="st0" d="M226.7 182.7h8.7v8.7h-8.7zm-17.5 0h8.7v8.7h-8.7z"/><path class="st1" d="M209.2 191.4h8.7v8.7h-8.7z"/><path class="st0" d="M217.9 191.4h8.7v8.7h-8.7z"/><path class="st1" d="M226.7 191.4h8.7v8.7h-8.7zm-8.8 8.8h8.7v8.7h-8.7z"/><path class="st0" d="M226.7 200.2h8.7v8.7h-8.7zm-17.5 0h8.7v8.7h-8.7z"/><path class="st1" d="M209.2 208.6h8.7v8.7h-8.7z"/><path class="st0" d="M217.9 208.6h8.7v8.7h-8.7z"/><path class="st1" d="M226.7 208.6h8.7v8.7h-8.7zm-8.8 8.7h8.7v8.7h-8.7z"/><path class="st0" d="M226.7 217.3h8.7v8.7h-8.7zm-17.5 0h8.7v8.7h-8.7z"/><path class="st1" d="M209.2 226h8.7v8.7h-8.7z"/><path class="st0" d="M217.9 226h8.7v8.7h-8.7z"/><path class="st1" d="M226.7 226h8.7v8.7h-8.7zm-8.8 8.7h8.7v8.7h-8.7z"/><path class="st0" d="M226.7 234.7h8.7v8.7h-8.7zm-17.5 0h8.7v8.7h-8.7z"/><path class="st1" d="M209.2 243.4h8.7v8.7h-8.7z"/><path class="st0" d="M217.9 243.4h8.7v8.7h-8.7z"/><path class="st1" d="M226.7 243.4h8.7v8.7h-8.7zm-8.8 8.7h8.7v8.7h-8.7z"/><path class="st0" d="M226.7 252.1h8.7v8.7h-8.7zm-17.5 0h8.7v8.7h-8.7z"/><path class="st1" d="M209.2 260.9h8.7v8.7h-8.7z"/><path class="st0" d="M217.9 260.9h8.7v8.7h-8.7z"/><path class="st1" d="M226.7 260.9h8.7v8.7h-8.7zm-8.8 8.7h8.7v8.7h-8.7z"/><path class="st0" d="M226.7 269.6h8.7v8.7h-8.7zm-17.5 0h8.7v8.7h-8.7z"/><path class="st1" d="M209.2 278.3h8.7v8.7h-8.7z"/><path class="st0" d="M217.9 278.3h8.7v8.7h-8.7z"/><path class="st1" d="M226.7 278.3h8.7v8.7h-8.7zm-8.8 8.7h8.7v8.7h-8.7z"/><path class="st0" d="M226.7 287h8.7v8.7h-8.7zm-17.5 0h8.7v8.7h-8.7z"/><path class="st1" d="M209.2 295.7h8.7v8.7h-8.7z"/><path class="st0" d="M217.9 295.7h8.7v8.7h-8.7z"/><path class="st1" d="M226.7 295.7h8.7v8.7h-8.7zm-8.8 8.7h8.7v8.7h-8.7z"/><path class="st0" d="M226.7 304.4h8.7v8.7h-8.7zm-17.5 0h8.7v8.7h-8.7z"/><path class="st1" d="M209.2 313.2h8.7v8.7h-8.7z"/><path class="st0" d="M217.9 313.2h8.7v8.7h-8.7z"/><path class="st1" d="M226.7 313.2h8.7v8.7h-8.7zm-8.8 8.7h8.7v8.7h-8.7z"/><path class="st0" d="M226.7 321.9h8.7v8.7h-8.7zm-17.5 0h8.7v8.7h-8.7z"/><path class="st1" d="M209.2 330.6h8.7v8.7h-8.7z"/><path class="st0" d="M217.9 330.6h8.7v8.7h-8.7z"/><path class="st1" d="M226.7 330.6h8.7v8.7h-8.7zm-8.8 8.7h8.7v8.7h-8.7z"/><path class="st0" d="M226.7 339.3h8.7v8.7h-8.7zm-17.5 0h8.7v8.7h-8.7z"/><path class="st1" d="M209.2 347.7h8.7v8.7h-8.7z"/><path class="st0" d="M217.9 347.7h8.7v8.7h-8.7z"/><path class="st1" d="M226.7 347.7h8.7v8.7h-8.7zm-8.8 8.7h8.7v8.7h-8.7z"/><path class="st0" d="M226.7 356.4h8.7v8.7h-8.7zm-17.5 0h8.7v8.7h-8.7z"/><path class="st1" d="M209.2 365.1h8.7v8.7h-8.7z"/><path class="st0" d="M217.9 365.1h8.7v8.7h-8.7z"/><path class="st1" d="M226.7 365.1h8.7v8.7h-8.7zm-8.8 8.7h8.7v8.7h-8.7z"/><path class="st0" d="M226.7 373.8h8.7v8.7h-8.7zm-17.5 0h8.7v8.7h-8.7z"/><path class="st1" d="M209.2 382.6h8.7v8.7h-8.7z"/><path class="st0" d="M217.9 382.6h8.7v8.7h-8.7z"/><path class="st1" d="M226.7 382.6h8.7v8.7h-8.7zm-8.8 8.7h8.7v8.7h-8.7z"/><path class="st0" d="M226.7 391.3h8.7v8.7h-8.7zm-17.5 0h8.7v8.7h-8.7z"/><path class="st1" d="M235.4 391.3h8.7v8.7h-8.7z"/><path class="st0" d="M244.1 391.3h8.7v8.7h-8.7z"/><path class="st1" d="M252.8 391.3h8.7v8.7h-8.7zm-8.7-8.7h8.7v8.7h-8.7z"/><path class="st0" d="M252.8 382.6h8.7v8.7h-8.7zm-17.4 0h8.7v8.7h-8.7z"/><path class="st1" d="M235.4 373.8h8.7v8.7h-8.7z"/><path class="st0" d="M244.1 373.8h8.7v8.7h-8.7z"/><path class="st1" d="M252.8 373.8h8.7v8.7h-8.7zm-8.7-8.7h8.7v8.7h-8.7z"/><path class="st0" d="M252.8 365.1h8.7v8.7h-8.7zm-17.4 0h8.7v8.7h-8.7z"/><path class="st1" d="M235.4 356.4h8.7v8.7h-8.7z"/><path class="st0" d="M244.1 356.4h8.7v8.7h-8.7z"/><path class="st1" d="M252.8 356.4h8.7v8.7h-8.7zm-8.7-8.7h8.7v8.7h-8.7z"/><path class="st0" d="M252.8 347.7h8.7v8.7h-8.7zm-17.4 0h8.7v8.7h-8.7z"/><path class="st1" d="M235.4 339h8.7v8.7h-8.7z"/><path class="st0" d="M244.1 339h8.7v8.7h-8.7z"/><path class="st1" d="M252.8 339h8.7v8.7h-8.7zm-8.7-8.7h8.7v8.7h-8.7z"/><path class="st0" d="M252.8 330.3h8.7v8.7h-8.7zm-17.4 0h8.7v8.7h-8.7z"/><path class="st1" d="M235.4 321.9h8.7v8.7h-8.7z"/><path class="st0" d="M244.1 321.9h8.7v8.7h-8.7z"/><path class="st1" d="M252.8 321.9h8.7v8.7h-8.7zm-8.7-8.7h8.7v8.7h-8.7z"/><path class="st0" d="M252.8 313.2h8.7v8.7h-8.7zm-17.4 0h8.7v8.7h-8.7z"/><path class="st1" d="M235.4 304.4h8.7v8.7h-8.7z"/><path class="st0" d="M244.1 304.4h8.7v8.7h-8.7z"/><path class="st1" d="M252.8 304.4h8.7v8.7h-8.7zm-8.7-8.7h8.7v8.7h-8.7z"/><path class="st0" d="M252.8 295.7h8.7v8.7h-8.7zm-17.4 0h8.7v8.7h-8.7z"/><path class="st1" d="M235.4 287h8.7v8.7h-8.7z"/><path class="st0" d="M244.1 287h8.7v8.7h-8.7z"/><path class="st1" d="M252.8 287h8.7v8.7h-8.7zm-8.7-8.7h8.7v8.7h-8.7z"/><path class="st0" d="M252.8 278.3h8.7v8.7h-8.7zm-17.4 0h8.7v8.7h-8.7z"/><path class="st1" d="M235.4 269.6h8.7v8.7h-8.7z"/><path class="st0" d="M244.1 269.6h8.7v8.7h-8.7z"/><path class="st1" d="M252.8 269.6h8.7v8.7h-8.7zm-8.7-8.7h8.7v8.7h-8.7z"/><path class="st0" d="M252.8 260.9h8.7v8.7h-8.7zm-17.4 0h8.7v8.7h-8.7z"/><path class="st1" d="M235.4 252.1h8.7v8.7h-8.7z"/><path class="st0" d="M244.1 252.1h8.7v8.7h-8.7z"/><path class="st1" d="M252.8 252.1h8.7v8.7h-8.7zm-8.7-8.7h8.7v8.7h-8.7z"/><path class="st0" d="M252.8 243.4h8.7v8.7h-8.7zm-17.4 0h8.7v8.7h-8.7z"/><path class="st1" d="M235.4 234.7h8.7v8.7h-8.7z"/><path class="st0" d="M244.1 234.7h8.7v8.7h-8.7z"/><path class="st1" d="M252.8 234.7h8.7v8.7h-8.7zm-8.7-8.7h8.7v8.7h-8.7z"/><path class="st0" d="M252.8 226h8.7v8.7h-8.7zm-17.4 0h8.7v8.7h-8.7z"/><path class="st1" d="M235.4 217.3h8.7v8.7h-8.7z"/><path class="st0" d="M244.1 217.3h8.7v8.7h-8.7z"/><path class="st1" d="M252.8 217.3h8.7v8.7h-8.7zm-8.7-8.7h8.7v8.7h-8.7z"/><path class="st0" d="M252.8 208.6h8.7v8.7h-8.7zm-17.4 0h8.7v8.7h-8.7z"/><path class="st1" d="M235.4 199.8h8.7v8.7h-8.7z"/><path class="st0" d="M244.1 199.8h8.7v8.7h-8.7z"/><path class="st1" d="M252.8 199.8h8.7v8.7h-8.7zm-8.7-8.7h8.7v8.7h-8.7z"/><path class="st0" d="M252.8 191.1h8.7v8.7h-8.7zm-17.4 0h8.7v8.7h-8.7z"/><path class="st1" d="M235.4 182.7h8.7v8.7h-8.7z"/><path class="st0" d="M244.1 182.7h8.7v8.7h-8.7z"/><path class="st1" d="M252.8 182.7h8.7v8.7h-8.7zm-8.7-8.7h8.7v8.7h-8.7z"/><path class="st0" d="M252.8 174h8.7v8.7h-8.7zm-17.4 0h8.7v8.7h-8.7z"/><path class="st1" d="M235.4 165.3h8.7v8.7h-8.7z"/><path class="st0" d="M244.1 165.3h8.7v8.7h-8.7z"/><path class="st1" d="M252.8 165.3h8.7v8.7h-8.7zm-8.7-8.7h8.7v8.7h-8.7z"/><path class="st0" d="M252.8 156.6h8.7v8.7h-8.7zm-17.4 0h8.7v8.7h-8.7z"/><path class="st1" d="M235.4 147.9h8.7v8.7h-8.7z"/><path class="st0" d="M244.1 147.9h8.7v8.7h-8.7z"/><path class="st1" d="M252.8 147.9h8.7v8.7h-8.7zm-8.7-8.8h8.7v8.7h-8.7z"/><path class="st0" d="M252.8 139.1h8.7v8.7h-8.7zm-17.4 0h8.7v8.7h-8.7z"/><path class="st1" d="M235.4 130.4h8.7v8.7h-8.7z"/><path class="st0" d="M244.1 130.4h8.7v8.7h-8.7z"/><path class="st1" d="M252.8 130.4h8.7v8.7h-8.7zm-8.7-8.7h8.7v8.7h-8.7z"/><path class="st0" d="M252.8 121.7h8.7v8.7h-8.7zm-17.4 0h8.7v8.7h-8.7z"/><path class="st1" d="M235.4 113h8.7v8.7h-8.7z"/><path class="st0" d="M244.1 113h8.7v8.7h-8.7z"/><path class="st1" d="M252.8 113h8.7v8.7h-8.7zm-8.7-8.7h8.7v8.7h-8.7z"/><path class="st0" d="M252.8 104.3h8.7v8.7h-8.7zm-17.4 0h8.7v8.7h-8.7z"/><path class="st1" d="M235.4 95.6h8.7v8.7h-8.7z"/><path class="st0" d="M244.1 95.6h8.7v8.7h-8.7z"/><path class="st1" d="M252.8 95.6h8.7v8.7h-8.7zm-8.7-8.8h8.7v8.7h-8.7z"/><path class="st0" d="M252.8 86.8h8.7v8.7h-8.7zm-17.4 0h8.7v8.7h-8.7z"/><path class="st1" d="M235.4 78.1h8.7v8.7h-8.7z"/><path class="st0" d="M244.1 78.1h8.7v8.7h-8.7z"/><path class="st1" d="M252.8 78.1h8.7v8.7h-8.7zm-8.7-8.7h8.7v8.7h-8.7z"/><path class="st0" d="M252.8 69.4h8.7v8.7h-8.7zm-17.4 0h8.7v8.7h-8.7z"/><path class="st1" d="M235.4 60.7h8.7v8.7h-8.7z"/><path class="st0" d="M244.1 60.7h8.7v8.7h-8.7z"/><path class="st1" d="M252.8 60.7h8.7v8.7h-8.7zm-8.7-8.7h8.7v8.7h-8.7z"/><path class="st0" d="M252.8 52h8.7v8.7h-8.7zm-17.4 0h8.7v8.7h-8.7z"/><path class="st1" d="M235.4 43.6h8.7v8.7h-8.7z"/><path class="st0" d="M244.1 43.6h8.7v8.7h-8.7z"/><path class="st1" d="M252.8 43.6h8.7v8.7h-8.7zm-8.7-8.7h8.7v8.7h-8.7z"/><path class="st0" d="M252.8 34.9h8.7v8.7h-8.7zm-17.4 0h8.7v8.7h-8.7z"/><path class="st1" d="M235.4 26.2h8.7v8.7h-8.7z"/><path class="st0" d="M244.1 26.2h8.7v8.7h-8.7z"/><path class="st1" d="M252.8 26.2h8.7v8.7h-8.7zm-8.7-8.8h8.7v8.7h-8.7z"/><path class="st0" d="M252.8 17.4h8.7v8.7h-8.7zm-17.4 0h8.7v8.7h-8.7z"/><path class="st1" d="M235.4 8.7h8.7v8.7h-8.7z"/><path class="st0" d="M244.1 8.7h8.7v8.7h-8.7z"/><path class="st1" d="M252.8 8.7h8.7v8.7h-8.7zM244.1 0h8.7v8.7h-8.7z"/><path class="st0" d="M252.8 0h8.7v8.7h-8.7zm-17.4 0h8.7v8.7h-8.7z"/><path class="st1" d="M261.5 0h8.7v8.7h-8.7z"/><path class="st0" d="M270.2 0h8.7v8.7h-8.7z"/><path class="st1" d="M279 0h8.7v8.7H279zm-8.8 8.7h8.7v8.7h-8.7z"/><path class="st0" d="M279 8.7h8.7v8.7H279zm-17.5 0h8.7v8.7h-8.7z"/><path class="st1" d="M261.5 17.4h8.7v8.7h-8.7z"/><path class="st0" d="M270.2 17.4h8.7v8.7h-8.7z"/><path class="st1" d="M279 17.4h8.7v8.7H279zm-8.8 8.8h8.7v8.7h-8.7z"/><path class="st0" d="M279 26.2h8.7v8.7H279zm-17.5 0h8.7v8.7h-8.7z"/><path class="st1" d="M261.5 34.9h8.7v8.7h-8.7z"/><path class="st0" d="M270.2 34.9h8.7v8.7h-8.7z"/><path class="st1" d="M279 34.9h8.7v8.7H279zm-8.8 8.7h8.7v8.7h-8.7z"/><path class="st0" d="M279 43.6h8.7v8.7H279zm-17.5 0h8.7v8.7h-8.7z"/><path class="st1" d="M261.5 52.3h8.7V61h-8.7z"/><path class="st0" d="M270.2 52.3h8.7V61h-8.7z"/><path class="st1" d="M279 52.3h8.7V61H279zm-8.8 8.7h8.7v8.7h-8.7z"/><path class="st0" d="M279 61h8.7v8.7H279zm-17.5 0h8.7v8.7h-8.7z"/><path class="st1" d="M261.5 69.4h8.7v8.7h-8.7z"/><path class="st0" d="M270.2 69.4h8.7v8.7h-8.7z"/><path class="st1" d="M279 69.4h8.7v8.7H279zm-8.8 8.7h8.7v8.7h-8.7z"/><path class="st0" d="M279 78.1h8.7v8.7H279zm-17.5 0h8.7v8.7h-8.7z"/><path class="st1" d="M261.5 86.8h8.7v8.7h-8.7z"/><path class="st0" d="M270.2 86.8h8.7v8.7h-8.7z"/><path class="st1" d="M279 86.8h8.7v8.7H279zm-8.8 8.8h8.7v8.7h-8.7z"/><path class="st0" d="M279 95.6h8.7v8.7H279zm-17.5 0h8.7v8.7h-8.7z"/><path class="st1" d="M261.5 104.3h8.7v8.7h-8.7z"/><path class="st0" d="M270.2 104.3h8.7v8.7h-8.7z"/><path class="st1" d="M279 104.3h8.7v8.7H279zm-8.8 8.7h8.7v8.7h-8.7z"/><path class="st0" d="M279 113h8.7v8.7H279zm-17.5 0h8.7v8.7h-8.7z"/><path class="st1" d="M261.5 121.7h8.7v8.7h-8.7z"/><path class="st0" d="M270.2 121.7h8.7v8.7h-8.7z"/><path class="st1" d="M279 121.7h8.7v8.7H279zm-8.8 8.7h8.7v8.7h-8.7z"/><path class="st0" d="M279 130.4h8.7v8.7H279zm-17.5 0h8.7v8.7h-8.7z"/><path class="st1" d="M261.5 139.1h8.7v8.7h-8.7z"/><path class="st0" d="M270.2 139.1h8.7v8.7h-8.7z"/><path class="st1" d="M279 139.1h8.7v8.7H279zm-8.8 8.8h8.7v8.7h-8.7z"/><path class="st0" d="M279 147.9h8.7v8.7H279zm-17.5 0h8.7v8.7h-8.7z"/><path class="st1" d="M261.5 156.6h8.7v8.7h-8.7z"/><path class="st0" d="M270.2 156.6h8.7v8.7h-8.7z"/><path class="st1" d="M279 156.6h8.7v8.7H279zm-8.8 8.7h8.7v8.7h-8.7z"/><path class="st0" d="M279 165.3h8.7v8.7H279zm-17.5 0h8.7v8.7h-8.7z"/><path class="st1" d="M261.5 174h8.7v8.7h-8.7z"/><path class="st0" d="M270.2 174h8.7v8.7h-8.7z"/><path class="st1" d="M279 174h8.7v8.7H279zm-8.8 8.7h8.7v8.7h-8.7z"/><path class="st0" d="M279 182.7h8.7v8.7H279zm-17.5 0h8.7v8.7h-8.7z"/><path class="st1" d="M261.5 191.4h8.7v8.7h-8.7z"/><path class="st0" d="M270.2 191.4h8.7v8.7h-8.7z"/><path class="st1" d="M279 191.4h8.7v8.7H279zm-8.8 8.8h8.7v8.7h-8.7z"/><path class="st0" d="M279 200.2h8.7v8.7H279zm-17.5 0h8.7v8.7h-8.7z"/><path class="st1" d="M261.5 208.6h8.7v8.7h-8.7z"/><path class="st0" d="M270.2 208.6h8.7v8.7h-8.7z"/><path class="st1" d="M279 208.6h8.7v8.7H279zm-8.8 8.7h8.7v8.7h-8.7z"/><path class="st0" d="M279 217.3h8.7v8.7H279zm-17.5 0h8.7v8.7h-8.7z"/><path class="st1" d="M261.5 226h8.7v8.7h-8.7z"/><path class="st0" d="M270.2 226h8.7v8.7h-8.7z"/><path class="st1" d="M279 226h8.7v8.7H279zm-8.8 8.7h8.7v8.7h-8.7z"/><path class="st0" d="M279 234.7h8.7v8.7H279zm-17.5 0h8.7v8.7h-8.7z"/><path class="st1" d="M261.5 243.4h8.7v8.7h-8.7z"/><path class="st0" d="M270.2 243.4h8.7v8.7h-8.7z"/><path class="st1" d="M279 243.4h8.7v8.7H279zm-8.8 8.7h8.7v8.7h-8.7z"/><path class="st0" d="M279 252.1h8.7v8.7H279zm-17.5 0h8.7v8.7h-8.7z"/><path class="st1" d="M261.5 260.9h8.7v8.7h-8.7z"/><path class="st0" d="M270.2 260.9h8.7v8.7h-8.7z"/><path class="st1" d="M279 260.9h8.7v8.7H279zm-8.8 8.7h8.7v8.7h-8.7z"/><path class="st0" d="M279 269.6h8.7v8.7H279zm-17.5 0h8.7v8.7h-8.7z"/><path class="st1" d="M261.5 278.3h8.7v8.7h-8.7z"/><path class="st0" d="M270.2 278.3h8.7v8.7h-8.7z"/><path class="st1" d="M279 278.3h8.7v8.7H279zm-8.8 8.7h8.7v8.7h-8.7z"/><path class="st0" d="M279 287h8.7v8.7H279zm-17.5 0h8.7v8.7h-8.7z"/><path class="st1" d="M261.5 295.7h8.7v8.7h-8.7z"/><path class="st0" d="M270.2 295.7h8.7v8.7h-8.7z"/><path class="st1" d="M279 295.7h8.7v8.7H279zm-8.8 8.7h8.7v8.7h-8.7z"/><path class="st0" d="M279 304.4h8.7v8.7H279zm-17.5 0h8.7v8.7h-8.7z"/><path class="st1" d="M261.5 313.2h8.7v8.7h-8.7z"/><path class="st0" d="M270.2 313.2h8.7v8.7h-8.7z"/><path class="st1" d="M279 313.2h8.7v8.7H279zm-8.8 8.7h8.7v8.7h-8.7z"/><path class="st0" d="M279 321.9h8.7v8.7H279zm-17.5 0h8.7v8.7h-8.7z"/><path class="st1" d="M261.5 330.6h8.7v8.7h-8.7z"/><path class="st0" d="M270.2 330.6h8.7v8.7h-8.7z"/><path class="st1" d="M279 330.6h8.7v8.7H279zm-8.8 8.7h8.7v8.7h-8.7z"/><path class="st0" d="M279 339.3h8.7v8.7H279zm-17.5 0h8.7v8.7h-8.7z"/><path class="st1" d="M261.5 347.7h8.7v8.7h-8.7z"/><path class="st0" d="M270.2 347.7h8.7v8.7h-8.7z"/><path class="st1" d="M279 347.7h8.7v8.7H279zm-8.8 8.7h8.7v8.7h-8.7z"/><path class="st0" d="M279 356.4h8.7v8.7H279zm-17.5 0h8.7v8.7h-8.7z"/><path class="st1" d="M261.5 365.1h8.7v8.7h-8.7z"/><path class="st0" d="M270.2 365.1h8.7v8.7h-8.7z"/><path class="st1" d="M279 365.1h8.7v8.7H279zm-8.8 8.7h8.7v8.7h-8.7z"/><path class="st0" d="M279 373.8h8.7v8.7H279zm-17.5 0h8.7v8.7h-8.7z"/><path class="st1" d="M261.5 382.6h8.7v8.7h-8.7z"/><path class="st0" d="M270.2 382.6h8.7v8.7h-8.7z"/><path class="st1" d="M279 382.6h8.7v8.7H279zm-8.8 8.7h8.7v8.7h-8.7z"/><path class="st0" d="M279 391.3h8.7v8.7H279zm-17.5 0h8.7v8.7h-8.7z"/><path class="st1" d="M287.7 391.3h8.7v8.7h-8.7z"/><path class="st0" d="M296.4 391.3h8.7v8.7h-8.7z"/><path class="st1" d="M305.1 391.3h8.7v8.7h-8.7zm-8.7-8.7h8.7v8.7h-8.7z"/><path class="st0" d="M305.1 382.6h8.7v8.7h-8.7zm-17.4 0h8.7v8.7h-8.7z"/><path class="st1" d="M287.7 373.8h8.7v8.7h-8.7z"/><path class="st0" d="M296.4 373.8h8.7v8.7h-8.7z"/><path class="st1" d="M305.1 373.8h8.7v8.7h-8.7zm-8.7-8.7h8.7v8.7h-8.7z"/><path class="st0" d="M305.1 365.1h8.7v8.7h-8.7zm-17.4 0h8.7v8.7h-8.7z"/><path class="st1" d="M287.7 356.4h8.7v8.7h-8.7z"/><path class="st0" d="M296.4 356.4h8.7v8.7h-8.7z"/><path class="st1" d="M305.1 356.4h8.7v8.7h-8.7zm-8.7-8.7h8.7v8.7h-8.7z"/><path class="st0" d="M305.1 347.7h8.7v8.7h-8.7zm-17.4 0h8.7v8.7h-8.7z"/><path class="st1" d="M287.7 339h8.7v8.7h-8.7z"/><path class="st0" d="M296.4 339h8.7v8.7h-8.7z"/><path class="st1" d="M305.1 339h8.7v8.7h-8.7zm-8.7-8.7h8.7v8.7h-8.7z"/><path class="st0" d="M305.1 330.3h8.7v8.7h-8.7zm-17.4 0h8.7v8.7h-8.7z"/><path class="st1" d="M287.7 321.9h8.7v8.7h-8.7z"/><path class="st0" d="M296.4 321.9h8.7v8.7h-8.7z"/><path class="st1" d="M305.1 321.9h8.7v8.7h-8.7zm-8.7-8.7h8.7v8.7h-8.7z"/><path class="st0" d="M305.1 313.2h8.7v8.7h-8.7zm-17.4 0h8.7v8.7h-8.7z"/><path class="st1" d="M287.7 304.4h8.7v8.7h-8.7z"/><path class="st0" d="M296.4 304.4h8.7v8.7h-8.7z"/><path class="st1" d="M305.1 304.4h8.7v8.7h-8.7zm-8.7-8.7h8.7v8.7h-8.7z"/><path class="st0" d="M305.1 295.7h8.7v8.7h-8.7zm-17.4 0h8.7v8.7h-8.7z"/><path class="st1" d="M287.7 287h8.7v8.7h-8.7z"/><path class="st0" d="M296.4 287h8.7v8.7h-8.7z"/><path class="st1" d="M305.1 287h8.7v8.7h-8.7zm-8.7-8.7h8.7v8.7h-8.7z"/><path class="st0" d="M305.1 278.3h8.7v8.7h-8.7zm-17.4 0h8.7v8.7h-8.7z"/><path class="st1" d="M287.7 269.6h8.7v8.7h-8.7z"/><path class="st0" d="M296.4 269.6h8.7v8.7h-8.7z"/><path class="st1" d="M305.1 269.6h8.7v8.7h-8.7zm-8.7-8.7h8.7v8.7h-8.7z"/><path class="st0" d="M305.1 260.9h8.7v8.7h-8.7zm-17.4 0h8.7v8.7h-8.7z"/><path class="st1" d="M287.7 252.1h8.7v8.7h-8.7z"/><path class="st0" d="M296.4 252.1h8.7v8.7h-8.7z"/><path class="st1" d="M305.1 252.1h8.7v8.7h-8.7zm-8.7-8.7h8.7v8.7h-8.7z"/><path class="st0" d="M305.1 243.4h8.7v8.7h-8.7zm-17.4 0h8.7v8.7h-8.7z"/><path class="st1" d="M287.7 234.7h8.7v8.7h-8.7z"/><path class="st0" d="M296.4 234.7h8.7v8.7h-8.7z"/><path class="st1" d="M305.1 234.7h8.7v8.7h-8.7zm-8.7-8.7h8.7v8.7h-8.7z"/><path class="st0" d="M305.1 226h8.7v8.7h-8.7zm-17.4 0h8.7v8.7h-8.7z"/><path class="st1" d="M287.7 217.3h8.7v8.7h-8.7z"/><path class="st0" d="M296.4 217.3h8.7v8.7h-8.7z"/><path class="st1" d="M305.1 217.3h8.7v8.7h-8.7zm-8.7-8.7h8.7v8.7h-8.7z"/><path class="st0" d="M305.1 208.6h8.7v8.7h-8.7zm-17.4 0h8.7v8.7h-8.7z"/><path class="st1" d="M287.7 199.8h8.7v8.7h-8.7z"/><path class="st0" d="M296.4 199.8h8.7v8.7h-8.7z"/><path class="st1" d="M305.1 199.8h8.7v8.7h-8.7zm-8.7-8.7h8.7v8.7h-8.7z"/><path class="st0" d="M305.1 191.1h8.7v8.7h-8.7zm-17.4 0h8.7v8.7h-8.7z"/><path class="st1" d="M287.7 182.7h8.7v8.7h-8.7z"/><path class="st0" d="M296.4 182.7h8.7v8.7h-8.7z"/><path class="st1" d="M305.1 182.7h8.7v8.7h-8.7zm-8.7-8.7h8.7v8.7h-8.7z"/><path class="st0" d="M305.1 174h8.7v8.7h-8.7zm-17.4 0h8.7v8.7h-8.7z"/><path class="st1" d="M287.7 165.3h8.7v8.7h-8.7z"/><path class="st0" d="M296.4 165.3h8.7v8.7h-8.7z"/><path class="st1" d="M305.1 165.3h8.7v8.7h-8.7zm-8.7-8.7h8.7v8.7h-8.7z"/><path class="st0" d="M305.1 156.6h8.7v8.7h-8.7zm-17.4 0h8.7v8.7h-8.7z"/><path class="st1" d="M287.7 147.9h8.7v8.7h-8.7z"/><path class="st0" d="M296.4 147.9h8.7v8.7h-8.7z"/><path class="st1" d="M305.1 147.9h8.7v8.7h-8.7zm-8.7-8.8h8.7v8.7h-8.7z"/><path class="st0" d="M305.1 139.1h8.7v8.7h-8.7zm-17.4 0h8.7v8.7h-8.7z"/><path class="st1" d="M287.7 130.4h8.7v8.7h-8.7z"/><path class="st0" d="M296.4 130.4h8.7v8.7h-8.7z"/><path class="st1" d="M305.1 130.4h8.7v8.7h-8.7zm-8.7-8.7h8.7v8.7h-8.7z"/><path class="st0" d="M305.1 121.7h8.7v8.7h-8.7zm-17.4 0h8.7v8.7h-8.7z"/><path class="st1" d="M287.7 113h8.7v8.7h-8.7z"/><path class="st0" d="M296.4 113h8.7v8.7h-8.7z"/><path class="st1" d="M305.1 113h8.7v8.7h-8.7zm-8.7-8.7h8.7v8.7h-8.7z"/><path class="st0" d="M305.1 104.3h8.7v8.7h-8.7zm-17.4 0h8.7v8.7h-8.7z"/><path class="st1" d="M287.7 95.6h8.7v8.7h-8.7z"/><path class="st0" d="M296.4 95.6h8.7v8.7h-8.7z"/><path class="st1" d="M305.1 95.6h8.7v8.7h-8.7zm-8.7-8.8h8.7v8.7h-8.7z"/><path class="st0" d="M305.1 86.8h8.7v8.7h-8.7zm-17.4 0h8.7v8.7h-8.7z"/><path class="st1" d="M287.7 78.1h8.7v8.7h-8.7z"/><path class="st0" d="M296.4 78.1h8.7v8.7h-8.7z"/><path class="st1" d="M305.1 78.1h8.7v8.7h-8.7zm-8.7-8.7h8.7v8.7h-8.7z"/><path class="st0" d="M305.1 69.4h8.7v8.7h-8.7zm-17.4 0h8.7v8.7h-8.7z"/><path class="st1" d="M287.7 60.7h8.7v8.7h-8.7z"/><path class="st0" d="M296.4 60.7h8.7v8.7h-8.7z"/><path class="st1" d="M305.1 60.7h8.7v8.7h-8.7zm-8.7-8.7h8.7v8.7h-8.7z"/><path class="st0" d="M305.1 52h8.7v8.7h-8.7zm-17.4 0h8.7v8.7h-8.7z"/><path class="st1" d="M287.7 43.6h8.7v8.7h-8.7z"/><path class="st0" d="M296.4 43.6h8.7v8.7h-8.7z"/><path class="st1" d="M305.1 43.6h8.7v8.7h-8.7zm-8.7-8.7h8.7v8.7h-8.7z"/><path class="st0" d="M305.1 34.9h8.7v8.7h-8.7zm-17.4 0h8.7v8.7h-8.7z"/><path class="st1" d="M287.7 26.2h8.7v8.7h-8.7z"/><path class="st0" d="M296.4 26.2h8.7v8.7h-8.7z"/><path class="st1" d="M305.1 26.2h8.7v8.7h-8.7zm-8.7-8.8h8.7v8.7h-8.7z"/><path class="st0" d="M305.1 17.4h8.7v8.7h-8.7zm-17.4 0h8.7v8.7h-8.7z"/><path class="st1" d="M287.7 8.7h8.7v8.7h-8.7z"/><path class="st0" d="M296.4 8.7h8.7v8.7h-8.7z"/><path class="st1" d="M305.1 8.7h8.7v8.7h-8.7zM296.4 0h8.7v8.7h-8.7z"/><path class="st0" d="M305.1 0h8.7v8.7h-8.7zm-17.4 0h8.7v8.7h-8.7z"/><path class="st1" d="M313.8 0h8.7v8.7h-8.7z"/><path class="st0" d="M322.5 0h8.7v8.7h-8.7z"/><path class="st1" d="M331.3 0h8.7v8.7h-8.7zm-8.8 8.7h8.7v8.7h-8.7z"/><path class="st0" d="M331.3 8.7h8.7v8.7h-8.7zm-17.5 0h8.7v8.7h-8.7z"/><path class="st1" d="M313.8 17.4h8.7v8.7h-8.7z"/><path class="st0" d="M322.5 17.4h8.7v8.7h-8.7z"/><path class="st1" d="M331.3 17.4h8.7v8.7h-8.7zm-8.8 8.8h8.7v8.7h-8.7z"/><path class="st0" d="M331.3 26.2h8.7v8.7h-8.7zm-17.5 0h8.7v8.7h-8.7z"/><path class="st1" d="M313.8 34.9h8.7v8.7h-8.7z"/><path class="st0" d="M322.5 34.9h8.7v8.7h-8.7z"/><path class="st1" d="M331.3 34.9h8.7v8.7h-8.7zm-8.8 8.7h8.7v8.7h-8.7z"/><path class="st0" d="M331.3 43.6h8.7v8.7h-8.7zm-17.5 0h8.7v8.7h-8.7z"/><path class="st1" d="M313.8 52.3h8.7V61h-8.7z"/><path class="st0" d="M322.5 52.3h8.7V61h-8.7z"/><path class="st1" d="M331.3 52.3h8.7V61h-8.7zm-8.8 8.7h8.7v8.7h-8.7z"/><path class="st0" d="M331.3 61h8.7v8.7h-8.7zm-17.5 0h8.7v8.7h-8.7z"/><path class="st1" d="M313.8 69.4h8.7v8.7h-8.7z"/><path class="st0" d="M322.5 69.4h8.7v8.7h-8.7z"/><path class="st1" d="M331.3 69.4h8.7v8.7h-8.7zm-8.8 8.7h8.7v8.7h-8.7z"/><path class="st0" d="M331.3 78.1h8.7v8.7h-8.7zm-17.5 0h8.7v8.7h-8.7z"/><path class="st1" d="M313.8 86.8h8.7v8.7h-8.7z"/><path class="st0" d="M322.5 86.8h8.7v8.7h-8.7z"/><path class="st1" d="M331.3 86.8h8.7v8.7h-8.7zm-8.8 8.8h8.7v8.7h-8.7z"/><path class="st0" d="M331.3 95.6h8.7v8.7h-8.7zm-17.5 0h8.7v8.7h-8.7z"/><path class="st1" d="M313.8 104.3h8.7v8.7h-8.7z"/><path class="st0" d="M322.5 104.3h8.7v8.7h-8.7z"/><path class="st1" d="M331.3 104.3h8.7v8.7h-8.7zm-8.8 8.7h8.7v8.7h-8.7z"/><path class="st0" d="M331.3 113h8.7v8.7h-8.7zm-17.5 0h8.7v8.7h-8.7z"/><path class="st1" d="M313.8 121.7h8.7v8.7h-8.7z"/><path class="st0" d="M322.5 121.7h8.7v8.7h-8.7z"/><path class="st1" d="M331.3 121.7h8.7v8.7h-8.7zm-8.8 8.7h8.7v8.7h-8.7z"/><path class="st0" d="M331.3 130.4h8.7v8.7h-8.7zm-17.5 0h8.7v8.7h-8.7z"/><path class="st1" d="M313.8 139.1h8.7v8.7h-8.7z"/><path class="st0" d="M322.5 139.1h8.7v8.7h-8.7z"/><path class="st1" d="M331.3 139.1h8.7v8.7h-8.7zm-8.8 8.8h8.7v8.7h-8.7z"/><path class="st0" d="M331.3 147.9h8.7v8.7h-8.7zm-17.5 0h8.7v8.7h-8.7z"/><path class="st1" d="M313.8 156.6h8.7v8.7h-8.7z"/><path class="st0" d="M322.5 156.6h8.7v8.7h-8.7z"/><path class="st1" d="M331.3 156.6h8.7v8.7h-8.7zm-8.8 8.7h8.7v8.7h-8.7z"/><path class="st0" d="M331.3 165.3h8.7v8.7h-8.7zm-17.5 0h8.7v8.7h-8.7z"/><path class="st1" d="M313.8 174h8.7v8.7h-8.7z"/><path class="st0" d="M322.5 174h8.7v8.7h-8.7z"/><path class="st1" d="M331.3 174h8.7v8.7h-8.7zm-8.8 8.7h8.7v8.7h-8.7z"/><path class="st0" d="M331.3 182.7h8.7v8.7h-8.7zm-17.5 0h8.7v8.7h-8.7z"/><path class="st1" d="M313.8 191.4h8.7v8.7h-8.7z"/><path class="st0" d="M322.5 191.4h8.7v8.7h-8.7z"/><path class="st1" d="M331.3 191.4h8.7v8.7h-8.7zm-8.8 8.8h8.7v8.7h-8.7z"/><path class="st0" d="M331.3 200.2h8.7v8.7h-8.7zm-17.5 0h8.7v8.7h-8.7z"/><path class="st1" d="M313.8 208.6h8.7v8.7h-8.7z"/><path class="st0" d="M322.5 208.6h8.7v8.7h-8.7z"/><path class="st1" d="M331.3 208.6h8.7v8.7h-8.7zm-8.8 8.7h8.7v8.7h-8.7z"/><path class="st0" d="M331.3 217.3h8.7v8.7h-8.7zm-17.5 0h8.7v8.7h-8.7z"/><path class="st1" d="M313.8 226h8.7v8.7h-8.7z"/><path class="st0" d="M322.5 226h8.7v8.7h-8.7z"/><path class="st1" d="M331.3 226h8.7v8.7h-8.7zm-8.8 8.7h8.7v8.7h-8.7z"/><path class="st0" d="M331.3 234.7h8.7v8.7h-8.7zm-17.5 0h8.7v8.7h-8.7z"/><path class="st1" d="M313.8 243.4h8.7v8.7h-8.7z"/><path class="st0" d="M322.5 243.4h8.7v8.7h-8.7z"/><path class="st1" d="M331.3 243.4h8.7v8.7h-8.7zm-8.8 8.7h8.7v8.7h-8.7z"/><path class="st0" d="M331.3 252.1h8.7v8.7h-8.7zm-17.5 0h8.7v8.7h-8.7z"/><path class="st1" d="M313.8 260.9h8.7v8.7h-8.7z"/><path class="st0" d="M322.5 260.9h8.7v8.7h-8.7z"/><path class="st1" d="M331.3 260.9h8.7v8.7h-8.7zm-8.8 8.7h8.7v8.7h-8.7z"/><path class="st0" d="M331.3 269.6h8.7v8.7h-8.7zm-17.5 0h8.7v8.7h-8.7z"/><path class="st1" d="M313.8 278.3h8.7v8.7h-8.7z"/><path class="st0" d="M322.5 278.3h8.7v8.7h-8.7z"/><path class="st1" d="M331.3 278.3h8.7v8.7h-8.7zm-8.8 8.7h8.7v8.7h-8.7z"/><path class="st0" d="M331.3 287h8.7v8.7h-8.7zm-17.5 0h8.7v8.7h-8.7z"/><path class="st1" d="M313.8 295.7h8.7v8.7h-8.7z"/><path class="st0" d="M322.5 295.7h8.7v8.7h-8.7z"/><path class="st1" d="M331.3 295.7h8.7v8.7h-8.7zm-8.8 8.7h8.7v8.7h-8.7z"/><path class="st0" d="M331.3 304.4h8.7v8.7h-8.7zm-17.5 0h8.7v8.7h-8.7z"/><path class="st1" d="M313.8 313.2h8.7v8.7h-8.7z"/><path class="st0" d="M322.5 313.2h8.7v8.7h-8.7z"/><path class="st1" d="M331.3 313.2h8.7v8.7h-8.7zm-8.8 8.7h8.7v8.7h-8.7z"/><path class="st0" d="M331.3 321.9h8.7v8.7h-8.7zm-17.5 0h8.7v8.7h-8.7z"/><path class="st1" d="M313.8 330.6h8.7v8.7h-8.7z"/><path class="st0" d="M322.5 330.6h8.7v8.7h-8.7z"/><path class="st1" d="M331.3 330.6h8.7v8.7h-8.7zm-8.8 8.7h8.7v8.7h-8.7z"/><path class="st0" d="M331.3 339.3h8.7v8.7h-8.7zm-17.5 0h8.7v8.7h-8.7z"/><path class="st1" d="M313.8 347.7h8.7v8.7h-8.7z"/><path class="st0" d="M322.5 347.7h8.7v8.7h-8.7z"/><path class="st1" d="M331.3 347.7h8.7v8.7h-8.7zm-8.8 8.7h8.7v8.7h-8.7z"/><path class="st0" d="M331.3 356.4h8.7v8.7h-8.7zm-17.5 0h8.7v8.7h-8.7z"/><path class="st1" d="M313.8 365.1h8.7v8.7h-8.7z"/><path class="st0" d="M322.5 365.1h8.7v8.7h-8.7z"/><path class="st1" d="M331.3 365.1h8.7v8.7h-8.7zm-8.8 8.7h8.7v8.7h-8.7z"/><path class="st0" d="M331.3 373.8h8.7v8.7h-8.7zm-17.5 0h8.7v8.7h-8.7z"/><path class="st1" d="M313.8 382.6h8.7v8.7h-8.7z"/><path class="st0" d="M322.5 382.6h8.7v8.7h-8.7z"/><path class="st1" d="M331.3 382.6h8.7v8.7h-8.7zm-8.8 8.7h8.7v8.7h-8.7z"/><path class="st0" d="M331.3 391.3h8.7v8.7h-8.7zm-17.5 0h8.7v8.7h-8.7z"/><path class="st1" d="M340 391.3h8.7v8.7H340z"/><path class="st0" d="M348.7 391.3h8.7v8.7h-8.7z"/><path class="st1" d="M357.4 391.3h8.7v8.7h-8.7zm-8.7-8.7h8.7v8.7h-8.7z"/><path class="st0" d="M357.4 382.6h8.7v8.7h-8.7zm-17.4 0h8.7v8.7H340z"/><path class="st1" d="M340 373.8h8.7v8.7H340z"/><path class="st0" d="M348.7 373.8h8.7v8.7h-8.7z"/><path class="st1" d="M357.4 373.8h8.7v8.7h-8.7zm-8.7-8.7h8.7v8.7h-8.7z"/><path class="st0" d="M357.4 365.1h8.7v8.7h-8.7zm-17.4 0h8.7v8.7H340z"/><path class="st1" d="M340 356.4h8.7v8.7H340z"/><path class="st0" d="M348.7 356.4h8.7v8.7h-8.7z"/><path class="st1" d="M357.4 356.4h8.7v8.7h-8.7zm-8.7-8.7h8.7v8.7h-8.7z"/><path class="st0" d="M357.4 347.7h8.7v8.7h-8.7zm-17.4 0h8.7v8.7H340z"/><path class="st1" d="M340 339h8.7v8.7H340z"/><path class="st0" d="M348.7 339h8.7v8.7h-8.7z"/><path class="st1" d="M357.4 339h8.7v8.7h-8.7zm-8.7-8.7h8.7v8.7h-8.7z"/><path class="st0" d="M357.4 330.3h8.7v8.7h-8.7zm-17.4 0h8.7v8.7H340z"/><path class="st1" d="M340 321.9h8.7v8.7H340z"/><path class="st0" d="M348.7 321.9h8.7v8.7h-8.7z"/><path class="st1" d="M357.4 321.9h8.7v8.7h-8.7zm-8.7-8.7h8.7v8.7h-8.7z"/><path class="st0" d="M357.4 313.2h8.7v8.7h-8.7zm-17.4 0h8.7v8.7H340z"/><path class="st1" d="M340 304.4h8.7v8.7H340z"/><path class="st0" d="M348.7 304.4h8.7v8.7h-8.7z"/><path class="st1" d="M357.4 304.4h8.7v8.7h-8.7zm-8.7-8.7h8.7v8.7h-8.7z"/><path class="st0" d="M357.4 295.7h8.7v8.7h-8.7zm-17.4 0h8.7v8.7H340z"/><path class="st1" d="M340 287h8.7v8.7H340z"/><path class="st0" d="M348.7 287h8.7v8.7h-8.7z"/><path class="st1" d="M357.4 287h8.7v8.7h-8.7zm-8.7-8.7h8.7v8.7h-8.7z"/><path class="st0" d="M357.4 278.3h8.7v8.7h-8.7zm-17.4 0h8.7v8.7H340z"/><path class="st1" d="M340 269.6h8.7v8.7H340z"/><path class="st0" d="M348.7 269.6h8.7v8.7h-8.7z"/><path class="st1" d="M357.4 269.6h8.7v8.7h-8.7zm-8.7-8.7h8.7v8.7h-8.7z"/><path class="st0" d="M357.4 260.9h8.7v8.7h-8.7zm-17.4 0h8.7v8.7H340z"/><path class="st1" d="M340 252.1h8.7v8.7H340z"/><path class="st0" d="M348.7 252.1h8.7v8.7h-8.7z"/><path class="st1" d="M357.4 252.1h8.7v8.7h-8.7zm-8.7-8.7h8.7v8.7h-8.7z"/><path class="st0" d="M357.4 243.4h8.7v8.7h-8.7zm-17.4 0h8.7v8.7H340z"/><path class="st1" d="M340 234.7h8.7v8.7H340z"/><path class="st0" d="M348.7 234.7h8.7v8.7h-8.7z"/><path class="st1" d="M357.4 234.7h8.7v8.7h-8.7zm-8.7-8.7h8.7v8.7h-8.7z"/><path class="st0" d="M357.4 226h8.7v8.7h-8.7zm-17.4 0h8.7v8.7H340z"/><path class="st1" d="M340 217.3h8.7v8.7H340z"/><path class="st0" d="M348.7 217.3h8.7v8.7h-8.7z"/><path class="st1" d="M357.4 217.3h8.7v8.7h-8.7zm-8.7-8.7h8.7v8.7h-8.7z"/><path class="st0" d="M357.4 208.6h8.7v8.7h-8.7zm-17.4 0h8.7v8.7H340z"/><path class="st1" d="M340 199.8h8.7v8.7H340z"/><path class="st0" d="M348.7 199.8h8.7v8.7h-8.7z"/><path class="st1" d="M357.4 199.8h8.7v8.7h-8.7zm-8.7-8.7h8.7v8.7h-8.7z"/><path class="st0" d="M357.4 191.1h8.7v8.7h-8.7zm-17.4 0h8.7v8.7H340z"/><path class="st1" d="M340 182.7h8.7v8.7H340z"/><path class="st0" d="M348.7 182.7h8.7v8.7h-8.7z"/><path class="st1" d="M357.4 182.7h8.7v8.7h-8.7zm-8.7-8.7h8.7v8.7h-8.7z"/><path class="st0" d="M357.4 174h8.7v8.7h-8.7zm-17.4 0h8.7v8.7H340z"/><path class="st1" d="M340 165.3h8.7v8.7H340z"/><path class="st0" d="M348.7 165.3h8.7v8.7h-8.7z"/><path class="st1" d="M357.4 165.3h8.7v8.7h-8.7zm-8.7-8.7h8.7v8.7h-8.7z"/><path class="st0" d="M357.4 156.6h8.7v8.7h-8.7zm-17.4 0h8.7v8.7H340z"/><path class="st1" d="M340 147.9h8.7v8.7H340z"/><path class="st0" d="M348.7 147.9h8.7v8.7h-8.7z"/><path class="st1" d="M357.4 147.9h8.7v8.7h-8.7zm-8.7-8.8h8.7v8.7h-8.7z"/><path class="st0" d="M357.4 139.1h8.7v8.7h-8.7zm-17.4 0h8.7v8.7H340z"/><path class="st1" d="M340 130.4h8.7v8.7H340z"/><path class="st0" d="M348.7 130.4h8.7v8.7h-8.7z"/><path class="st1" d="M357.4 130.4h8.7v8.7h-8.7zm-8.7-8.7h8.7v8.7h-8.7z"/><path class="st0" d="M357.4 121.7h8.7v8.7h-8.7zm-17.4 0h8.7v8.7H340z"/><path class="st1" d="M340 113h8.7v8.7H340z"/><path class="st0" d="M348.7 113h8.7v8.7h-8.7z"/><path class="st1" d="M357.4 113h8.7v8.7h-8.7zm-8.7-8.7h8.7v8.7h-8.7z"/><path class="st0" d="M357.4 104.3h8.7v8.7h-8.7zm-17.4 0h8.7v8.7H340z"/><path class="st1" d="M340 95.6h8.7v8.7H340z"/><path class="st0" d="M348.7 95.6h8.7v8.7h-8.7z"/><path class="st1" d="M357.4 95.6h8.7v8.7h-8.7zm-8.7-8.8h8.7v8.7h-8.7z"/><path class="st0" d="M357.4 86.8h8.7v8.7h-8.7zm-17.4 0h8.7v8.7H340z"/><path class="st1" d="M340 78.1h8.7v8.7H340z"/><path class="st0" d="M348.7 78.1h8.7v8.7h-8.7z"/><path class="st1" d="M357.4 78.1h8.7v8.7h-8.7zm-8.7-8.7h8.7v8.7h-8.7z"/><path class="st0" d="M357.4 69.4h8.7v8.7h-8.7zm-17.4 0h8.7v8.7H340z"/><path class="st1" d="M340 60.7h8.7v8.7H340z"/><path class="st0" d="M348.7 60.7h8.7v8.7h-8.7z"/><path class="st1" d="M357.4 60.7h8.7v8.7h-8.7zm-8.7-8.7h8.7v8.7h-8.7z"/><path class="st0" d="M357.4 52h8.7v8.7h-8.7zM340 52h8.7v8.7H340z"/><path class="st1" d="M340 43.6h8.7v8.7H340z"/><path class="st0" d="M348.7 43.6h8.7v8.7h-8.7z"/><path class="st1" d="M357.4 43.6h8.7v8.7h-8.7zm-8.7-8.7h8.7v8.7h-8.7z"/><path class="st0" d="M357.4 34.9h8.7v8.7h-8.7zm-17.4 0h8.7v8.7H340z"/><path class="st1" d="M340 26.2h8.7v8.7H340z"/><path class="st0" d="M348.7 26.2h8.7v8.7h-8.7z"/><path class="st1" d="M357.4 26.2h8.7v8.7h-8.7zm-8.7-8.8h8.7v8.7h-8.7z"/><path class="st0" d="M357.4 17.4h8.7v8.7h-8.7zm-17.4 0h8.7v8.7H340z"/><path class="st1" d="M340 8.7h8.7v8.7H340z"/><path class="st0" d="M348.7 8.7h8.7v8.7h-8.7z"/><path class="st1" d="M357.4 8.7h8.7v8.7h-8.7zM348.7 0h8.7v8.7h-8.7z"/><path class="st0" d="M357.4 0h8.7v8.7h-8.7zM340 0h8.7v8.7H340z"/><path class="st1" d="M366.1 0h8.7v8.7h-8.7z"/><path class="st0" d="M374.8 0h8.7v8.7h-8.7z"/><path class="st1" d="M383.6 0h8.7v8.7h-8.7zm-8.8 8.7h8.7v8.7h-8.7z"/><path class="st0" d="M383.6 8.7h8.7v8.7h-8.7zm-17.5 0h8.7v8.7h-8.7z"/><path class="st1" d="M366.1 17.4h8.7v8.7h-8.7z"/><path class="st0" d="M374.8 17.4h8.7v8.7h-8.7z"/><path class="st1" d="M383.6 17.4h8.7v8.7h-8.7zm-8.8 8.8h8.7v8.7h-8.7z"/><path class="st0" d="M383.6 26.2h8.7v8.7h-8.7zm-17.5 0h8.7v8.7h-8.7z"/><path class="st1" d="M366.1 34.9h8.7v8.7h-8.7z"/><path class="st0" d="M374.8 34.9h8.7v8.7h-8.7z"/><path class="st1" d="M383.6 34.9h8.7v8.7h-8.7zm-8.8 8.7h8.7v8.7h-8.7z"/><path class="st0" d="M383.6 43.6h8.7v8.7h-8.7zm-17.5 0h8.7v8.7h-8.7z"/><path class="st1" d="M366.1 52.3h8.7V61h-8.7z"/><path class="st0" d="M374.8 52.3h8.7V61h-8.7z"/><path class="st1" d="M383.6 52.3h8.7V61h-8.7zm-8.8 8.7h8.7v8.7h-8.7z"/><path class="st0" d="M383.6 61h8.7v8.7h-8.7zm-17.5 0h8.7v8.7h-8.7z"/><path class="st1" d="M366.1 69.4h8.7v8.7h-8.7z"/><path class="st0" d="M374.8 69.4h8.7v8.7h-8.7z"/><path class="st1" d="M383.6 69.4h8.7v8.7h-8.7zm-8.8 8.7h8.7v8.7h-8.7z"/><path class="st0" d="M383.6 78.1h8.7v8.7h-8.7zm-17.5 0h8.7v8.7h-8.7z"/><path class="st1" d="M366.1 86.8h8.7v8.7h-8.7z"/><path class="st0" d="M374.8 86.8h8.7v8.7h-8.7z"/><path class="st1" d="M383.6 86.8h8.7v8.7h-8.7zm-8.8 8.8h8.7v8.7h-8.7z"/><path class="st0" d="M383.6 95.6h8.7v8.7h-8.7zm-17.5 0h8.7v8.7h-8.7z"/><path class="st1" d="M366.1 104.3h8.7v8.7h-8.7z"/><path class="st0" d="M374.8 104.3h8.7v8.7h-8.7z"/><path class="st1" d="M383.6 104.3h8.7v8.7h-8.7zm-8.8 8.7h8.7v8.7h-8.7z"/><path class="st0" d="M383.6 113h8.7v8.7h-8.7zm-17.5 0h8.7v8.7h-8.7z"/><path class="st1" d="M366.1 121.7h8.7v8.7h-8.7z"/><path class="st0" d="M374.8 121.7h8.7v8.7h-8.7z"/><path class="st1" d="M383.6 121.7h8.7v8.7h-8.7zm-8.8 8.7h8.7v8.7h-8.7z"/><path class="st0" d="M383.6 130.4h8.7v8.7h-8.7zm-17.5 0h8.7v8.7h-8.7z"/><path class="st1" d="M366.1 139.1h8.7v8.7h-8.7z"/><path class="st0" d="M374.8 139.1h8.7v8.7h-8.7z"/><path class="st1" d="M383.6 139.1h8.7v8.7h-8.7zm-8.8 8.8h8.7v8.7h-8.7z"/><path class="st0" d="M383.6 147.9h8.7v8.7h-8.7zm-17.5 0h8.7v8.7h-8.7z"/><path class="st1" d="M366.1 156.6h8.7v8.7h-8.7z"/><path class="st0" d="M374.8 156.6h8.7v8.7h-8.7z"/><path class="st1" d="M383.6 156.6h8.7v8.7h-8.7zm-8.8 8.7h8.7v8.7h-8.7z"/><path class="st0" d="M383.6 165.3h8.7v8.7h-8.7zm-17.5 0h8.7v8.7h-8.7z"/><path class="st1" d="M366.1 174h8.7v8.7h-8.7z"/><path class="st0" d="M374.8 174h8.7v8.7h-8.7z"/><path class="st1" d="M383.6 174h8.7v8.7h-8.7zm-8.8 8.7h8.7v8.7h-8.7z"/><path class="st0" d="M383.6 182.7h8.7v8.7h-8.7zm-17.5 0h8.7v8.7h-8.7z"/><path class="st1" d="M366.1 191.4h8.7v8.7h-8.7z"/><path class="st0" d="M374.8 191.4h8.7v8.7h-8.7z"/><path class="st1" d="M383.6 191.4h8.7v8.7h-8.7zm-8.8 8.8h8.7v8.7h-8.7z"/><path class="st0" d="M383.6 200.2h8.7v8.7h-8.7zm-17.5 0h8.7v8.7h-8.7z"/><path class="st1" d="M366.1 208.6h8.7v8.7h-8.7z"/><path class="st0" d="M374.8 208.6h8.7v8.7h-8.7z"/><path class="st1" d="M383.6 208.6h8.7v8.7h-8.7zm-8.8 8.7h8.7v8.7h-8.7z"/><path class="st0" d="M383.6 217.3h8.7v8.7h-8.7zm-17.5 0h8.7v8.7h-8.7z"/><path class="st1" d="M366.1 226h8.7v8.7h-8.7z"/><path class="st0" d="M374.8 226h8.7v8.7h-8.7z"/><path class="st1" d="M383.6 226h8.7v8.7h-8.7zm-8.8 8.7h8.7v8.7h-8.7z"/><path class="st0" d="M383.6 234.7h8.7v8.7h-8.7zm-17.5 0h8.7v8.7h-8.7z"/><path class="st1" d="M366.1 243.4h8.7v8.7h-8.7z"/><path class="st0" d="M374.8 243.4h8.7v8.7h-8.7z"/><path class="st1" d="M383.6 243.4h8.7v8.7h-8.7zm-8.8 8.7h8.7v8.7h-8.7z"/><path class="st0" d="M383.6 252.1h8.7v8.7h-8.7zm-17.5 0h8.7v8.7h-8.7z"/><path class="st1" d="M366.1 260.9h8.7v8.7h-8.7z"/><path class="st0" d="M374.8 260.9h8.7v8.7h-8.7z"/><path class="st1" d="M383.6 260.9h8.7v8.7h-8.7zm-8.8 8.7h8.7v8.7h-8.7z"/><path class="st0" d="M383.6 269.6h8.7v8.7h-8.7zm-17.5 0h8.7v8.7h-8.7z"/><path class="st1" d="M366.1 278.3h8.7v8.7h-8.7z"/><path class="st0" d="M374.8 278.3h8.7v8.7h-8.7z"/><path class="st1" d="M383.6 278.3h8.7v8.7h-8.7zm-8.8 8.7h8.7v8.7h-8.7z"/><path class="st0" d="M383.6 287h8.7v8.7h-8.7zm-17.5 0h8.7v8.7h-8.7z"/><path class="st1" d="M366.1 295.7h8.7v8.7h-8.7z"/><path class="st0" d="M374.8 295.7h8.7v8.7h-8.7z"/><path class="st1" d="M383.6 295.7h8.7v8.7h-8.7zm-8.8 8.7h8.7v8.7h-8.7z"/><path class="st0" d="M383.6 304.4h8.7v8.7h-8.7zm-17.5 0h8.7v8.7h-8.7z"/><path class="st1" d="M366.1 313.2h8.7v8.7h-8.7z"/><path class="st0" d="M374.8 313.2h8.7v8.7h-8.7z"/><path class="st1" d="M383.6 313.2h8.7v8.7h-8.7zm-8.8 8.7h8.7v8.7h-8.7z"/><path class="st0" d="M383.6 321.9h8.7v8.7h-8.7zm-17.5 0h8.7v8.7h-8.7z"/><path class="st1" d="M366.1 330.6h8.7v8.7h-8.7z"/><path class="st0" d="M374.8 330.6h8.7v8.7h-8.7z"/><path class="st1" d="M383.6 330.6h8.7v8.7h-8.7zm-8.8 8.7h8.7v8.7h-8.7z"/><path class="st0" d="M383.6 339.3h8.7v8.7h-8.7zm-17.5 0h8.7v8.7h-8.7z"/><path class="st1" d="M366.1 347.7h8.7v8.7h-8.7z"/><path class="st0" d="M374.8 347.7h8.7v8.7h-8.7z"/><path class="st1" d="M383.6 347.7h8.7v8.7h-8.7zm-8.8 8.7h8.7v8.7h-8.7z"/><path class="st0" d="M383.6 356.4h8.7v8.7h-8.7zm-17.5 0h8.7v8.7h-8.7z"/><path class="st1" d="M366.1 365.1h8.7v8.7h-8.7z"/><path class="st0" d="M374.8 365.1h8.7v8.7h-8.7z"/><path class="st1" d="M383.6 365.1h8.7v8.7h-8.7zm-8.8 8.7h8.7v8.7h-8.7z"/><path class="st0" d="M383.6 373.8h8.7v8.7h-8.7zm-17.5 0h8.7v8.7h-8.7z"/><path class="st1" d="M366.1 382.6h8.7v8.7h-8.7z"/><path class="st0" d="M374.8 382.6h8.7v8.7h-8.7z"/><path class="st1" d="M383.6 382.6h8.7v8.7h-8.7zm-8.8 8.7h8.7v8.7h-8.7z"/><path class="st0" d="M383.6 391.3h8.7v8.7h-8.7zm-17.5 0h8.7v8.7h-8.7z"/><path class="st1" d="M392.3 391.3h8.7v8.7h-8.7z"/><path class="st0" d="M392.3 382.6h8.7v8.7h-8.7z"/><path class="st1" d="M392.3 373.8h8.7v8.7h-8.7z"/><path class="st0" d="M392.3 365.1h8.7v8.7h-8.7z"/><path class="st1" d="M392.3 356.4h8.7v8.7h-8.7z"/><path class="st0" d="M392.3 347.7h8.7v8.7h-8.7z"/><path class="st1" d="M392.3 339h8.7v8.7h-8.7z"/><path class="st0" d="M392.3 330.3h8.7v8.7h-8.7z"/><path class="st1" d="M392.3 321.9h8.7v8.7h-8.7z"/><path class="st0" d="M392.3 313.2h8.7v8.7h-8.7z"/><path class="st1" d="M392.3 304.4h8.7v8.7h-8.7z"/><path class="st0" d="M392.3 295.7h8.7v8.7h-8.7z"/><path class="st1" d="M392.3 287h8.7v8.7h-8.7z"/><path class="st0" d="M392.3 278.3h8.7v8.7h-8.7z"/><path class="st1" d="M392.3 269.6h8.7v8.7h-8.7z"/><path class="st0" d="M392.3 260.9h8.7v8.7h-8.7z"/><path class="st1" d="M392.3 252.1h8.7v8.7h-8.7z"/><path class="st0" d="M392.3 243.4h8.7v8.7h-8.7z"/><path class="st1" d="M392.3 234.7h8.7v8.7h-8.7z"/><path class="st0" d="M392.3 226h8.7v8.7h-8.7z"/><path class="st1" d="M392.3 217.3h8.7v8.7h-8.7z"/><path class="st0" d="M392.3 208.6h8.7v8.7h-8.7z"/><path class="st1" d="M392.3 199.8h8.7v8.7h-8.7z"/><path class="st0" d="M392.3 191.1h8.7v8.7h-8.7z"/><path class="st1" d="M392.3 182.7h8.7v8.7h-8.7z"/><path class="st0" d="M392.3 174h8.7v8.7h-8.7z"/><path class="st1" d="M392.3 165.3h8.7v8.7h-8.7z"/><path class="st0" d="M392.3 156.6h8.7v8.7h-8.7z"/><path class="st1" d="M392.3 147.9h8.7v8.7h-8.7z"/><path class="st0" d="M392.3 139.1h8.7v8.7h-8.7z"/><path class="st1" d="M392.3 130.4h8.7v8.7h-8.7z"/><path class="st0" d="M392.3 121.7h8.7v8.7h-8.7z"/><path class="st1" d="M392.3 113h8.7v8.7h-8.7z"/><path class="st0" d="M392.3 104.3h8.7v8.7h-8.7z"/><path class="st1" d="M392.3 95.6h8.7v8.7h-8.7z"/><path class="st0" d="M392.3 86.8h8.7v8.7h-8.7z"/><path class="st1" d="M392.3 78.1h8.7v8.7h-8.7z"/><path class="st0" d="M392.3 69.4h8.7v8.7h-8.7z"/><path class="st1" d="M392.3 60.7h8.7v8.7h-8.7z"/><path class="st0" d="M392.3 52h8.7v8.7h-8.7z"/><path class="st1" d="M392.3 43.6h8.7v8.7h-8.7z"/><path class="st0" d="M392.3 34.9h8.7v8.7h-8.7z"/><path class="st1" d="M392.3 26.2h8.7v8.7h-8.7z"/><path class="st0" d="M392.3 17.4h8.7v8.7h-8.7z"/><path class="st1" d="M392.3 8.7h8.7v8.7h-8.7z"/><path class="st0" d="M392.3 0h8.7v8.7h-8.7z"/><linearGradient id="SVGID_1_" gradientUnits="userSpaceOnUse" x1="340.292" y1="-857.059" x2="629.998" y2="-1147.404" gradientTransform="matrix(.8 0 0 -.8 -124.4 -508.203)"><stop offset="0" stop-opacity=".3"/><stop offset="1" stop-opacity="0"/></linearGradient><path d="M286.4 58.5L111.4 400h289l.5-228L286.4 58.5z" fill="url(#SVGID_1_)"/><path class="st0" d="M289.4 400h-178V65.2c0-5 4-9 9-9h160c5 0 9 4 9 9V400z"/><path class="st3" d="M289.4 155.3c-28.8-22.1-66.1 11.4-92.3-7.3-19.9-14.3-52.9-18.5-85.7-12V65.2c0-5 4-9 9-9h160c5 0 9 4 9 9v90.1z"/><path class="st4" d="M216.1 125h-31.5c-2.3 0-4.2-1.9-4.2-4.2 0-2.3 1.9-4.2 4.2-4.2h31.5c2.3 0 4.2 1.9 4.2 4.2.1 2.3-1.8 4.2-4.2 4.2zm39.1-58h-22c-1.2 0-2.2-1-2.2-2.2 0-1.2 1-2.2 2.2-2.2h22c1.2 0 2.2 1 2.2 2.2 0 1.2-1 2.2-2.2 2.2zM219 67h-16c-1.2 0-2.2-1-2.2-2.2 0-1.2 1-2.2 2.2-2.2h16c1.2 0 2.2 1 2.2 2.2 0 1.2-1 2.2-2.2 2.2zm54-7h5.3c1.2 0 2.2 1 2.2 2.2v5.3c0 1.2-1 2.2-2.2 2.2H273c-1.2 0-2.2-1-2.2-2.2v-5.3c.1-1.2 1-2.2 2.2-2.2z"/><path class="st5" d="M191.2 200.7h-63.7c-2.8 0-5-2.2-5-5v-26.3c0-2.8 2.2-5 5-5h63.7c2.8 0 5 2.2 5 5v26.3c0 2.8-2.2 5-5 5z"/><path class="st4" d="M193.4 204h-63.7c-2.8 0-5-2.2-5-5v-26.3c0-2.8 2.2-5 5-5h63.7c2.8 0 5 2.2 5 5V199c0 2.8-2.3 5-5 5z"/><circle class="st3" cx="161.5" cy="209.9" r="2.2"/><circle class="st4" cx="153.2" cy="209.9" r="2.2"/><circle class="st3" cx="170.2" cy="209.9" r="2.2"/><path class="st6" d="M232.5 172h-16c-1.2 0-2.2-1-2.2-2.2 0-1.2 1-2.2 2.2-2.2h16c1.2 0 2.2 1 2.2 2.2 0 1.2-1 2.2-2.2 2.2z"/><path class="st4" d="M259.5 181.3h-44c-.6 0-1.1-.5-1.1-1.1 0-.6.5-1.1 1.1-1.1h44c.6 0 1.1.5 1.1 1.1-.1.6-.5 1.1-1.1 1.1zm-16.3 6.7h-24.9c-.5 0-1-.5-1-1.1 0-.6.4-1.1 1-1.1h24.9c.5 0 1 .5 1 1.1 0 .6-.5 1.1-1 1.1zm23.7 0h-17.4c-.6 0-1.1-.5-1.1-1.1 0-.6.5-1.1 1.1-1.1h17.4c.6 0 1.1.5 1.1 1.1 0 .6-.5 1.1-1.1 1.1zm-14 6.7h-37.4c-.6 0-1.1-.5-1.1-1.1 0-.6.5-1.1 1.1-1.1h37.4c.6 0 1.1.5 1.1 1.1 0 .6-.5 1.1-1.1 1.1zm-19.8 6h-14.9c-.5 0-.9-.5-.9-1.1 0-.6.4-1.1.9-1.1h14.9c.5 0 .9.5.9 1.1 0 .6-.4 1.1-.9 1.1zm56.3 16c0 11.4-59 5.9-89.4 7.3-47.9 2.3-89.6 2.8-88.6 11v61.5l178-19.5v-60.3z"/><path class="st3" d="M289.5 314.8l-178.1-18.3V235c-1.4 6.7 39.9 10.4 88 13.5 30.3 2 90-3 90.1 6v60.3z"/><path class="st4" d="M191.3 67h-11c-.8 0-1.5-1-1.5-2.2 0-1.2.7-2.2 1.5-2.2h11c.8 0 1.5 1 1.5 2.2 0 1.2-.7 2.2-1.5 2.2z"/><path class="st6" d="M171.4 345.8h-16c-1.2 0-2.2-1-2.2-2.2 0-1.2 1-2.2 2.2-2.2h16c1.2 0 2.2 1 2.2 2.2 0 1.2-1 2.2-2.2 2.2z"/><path class="st4" d="M198.3 355h-44c-.6 0-1.1-.5-1.1-1.1 0-.6.5-1.1 1.1-1.1h44c.6 0 1.1.5 1.1 1.1 0 .6-.4 1.1-1.1 1.1zm-16.3 6.8h-27.6c-.6 0-1.1-.5-1.1-1.1 0-.6.5-1.1 1.1-1.1H182c.6 0 1.1.5 1.1 1.1 0 .6-.5 1.1-1.1 1.1zm23.8 0h-17.4c-.6 0-1.1-.5-1.1-1.1 0-.6.5-1.1 1.1-1.1h17.4c.6 0 1.1.5 1.1 1.1 0 .6-.5 1.1-1.1 1.1zm-14 6.7h-37.4c-.6 0-1.1-.5-1.1-1.1 0-.6.5-1.1 1.1-1.1h37.4c.6 0 1.1.5 1.1 1.1 0 .6-.5 1.1-1.1 1.1zm-20 6h-17.4c-.6 0-1.1-.5-1.1-1.1 0-.6.5-1.1 1.1-1.1h17.4c.6 0 1.1.5 1.1 1.1 0 .6-.5 1.1-1.1 1.1z"/><circle class="st5" cx="230.8" cy="352.8" r="13.8"/><circle class="st4" cx="233.6" cy="355" r="13.8"/><path class="st4" d="M205.2 374.5h-26.4c-.9 0-1.7-.5-1.7-1.1 0-.6.7-1.1 1.7-1.1h26.4c.9 0 1.7.5 1.7 1.1 0 .6-.7 1.1-1.7 1.1z"/><path class="st5" d="M274.1 354.3l-6.2-6.2c-.2-.2 0-.7.4-1.2.4-.4.9-.6 1.2-.4l6.2 6.2c.2.2 0 .7-.4 1.2-.5.4-1 .6-1.2.4z"/><path class="st5" d="M268.3 359.2c-.4-.4-.6-.9-.4-1.2l6.2-6.2c.2-.2.7 0 1.2.4.4.4.6.9.4 1.2l-6.2 6.2c-.2.2-.7.1-1.2-.4z"/><path class="st4" d="M275.2 354.9l-6.2-6.2c-.2-.2 0-.7.4-1.2.4-.4.9-.6 1.2-.4l6.2 6.2c.2.2 0 .7-.4 1.2-.5.4-1 .6-1.2.4z"/><path class="st4" d="M269.4 359.9c-.4-.4-.6-.9-.4-1.2l6.2-6.2c.2-.2.7 0 1.2.4.4.4.6.9.4 1.2l-6.2 6.2c-.3.2-.8 0-1.2-.4z"/><path class="st3" d="M125.5 354.7c-.4-.4-.6-.9-.4-1.2l6.2-6.2c.2-.2.7 0 1.2.4.4.4.6.9.4 1.2l-6.2 6.2c-.2.2-.7 0-1.2-.4z"/><path class="st3" d="M131.3 360.4l-6.2-6.2c-.2-.2 0-.7.4-1.2.4-.4.9-.6 1.2-.4l6.2 6.2c.2.2 0 .7-.4 1.2s-1 .7-1.2.4z"/><path class="st7" d="M289.5 254.5c-.8 7.1-53.3 7.2-91.1 9.4-33.1 1.9-88.2-1.8-86.9 8.9v61.5c1.8-5.3 52.5-6.6 85.6-9.4 40.1-2.3 92.3-3.3 92.4-10.1v-60.3z"/><path class="st4" d="M211 274.1h46.3c2.8 0 5 2.2 5 5v24.5c0 2.8-2.2 5-5 5H211c-2.8 0-5-2.2-5-5v-24.5c0-2.7 2.2-5 5-5z"/><path class="st6" d="M161.3 282.2h-16c-1.2 0-2.2-1-2.2-2.2 0-1.2 1-2.2 2.2-2.2h16c1.2 0 2.2 1 2.2 2.2 0 1.2-1 2.2-2.2 2.2z"/><path class="st4" d="M188.2 291.4h-44c-.6 0-1.1-.5-1.1-1.1 0-.6.5-1.1 1.1-1.1h44c.6 0 1.1.5 1.1 1.1 0 .6-.4 1.1-1.1 1.1zm-16.3 6.8h-27.6c-.6 0-1.1-.5-1.1-1.1 0-.6.5-1.1 1.1-1.1h27.6c.6 0 1.1.5 1.1 1.1 0 .6-.5 1.1-1.1 1.1zm23.8 0h-17.4c-.6 0-1.1-.5-1.1-1.1 0-.6.5-1.1 1.1-1.1h17.4c.6 0 1.1.5 1.1 1.1 0 .6-.5 1.1-1.1 1.1zm-14 6.7h-37.4c-.6 0-1.1-.5-1.1-1.1 0-.6.5-1.1 1.1-1.1h37.4c.6 0 1.1.5 1.1 1.1 0 .6-.5 1.1-1.1 1.1z"/><path class="st5" d="M230.8 286.7v8c0 .8.9 1.3 1.5.8l6.5-4c.6-.4.6-1.3 0-1.7l-6.5-4c-.7-.4-1.5.1-1.5.9z"/><path class="st4" d="M135.3 87.6c-1.8-6.2.9-10.5 5.3-11.7s8.9 1 10.6 7.2c1.8 6.2.4 14.9-4 16.1-4.4 1.2-10.1-5.4-11.9-11.6zm12.1 12.2s-.5 4-1.5 5 7.8-2.9 6.3-2.9c-1.8.2-3-.8-4.8-2.1z"/><path class="st8" d="M149.6 105.2s-1.5 3.4-1.1 5.4 5.1 0 6.4 2.1c1.2 2.1-.6 3.4 0 5 .5 1.6 3.2 1.3 3.5 3.8"/><path class="st7" d="M168.8 90c-.1-5.4-3.2-8.2-7-8.2s-6.9 2.9-6.8 8.3c.1 5.4 3.2 12 7.1 12 3.8.1 6.8-6.6 6.7-12.1zm-6.7 12.8s1.4 3.1 2.4 3.7-6.9-.5-5.8-.8c1.5-.4 2.2-1.4 3.4-2.9z"/><path class="st9" d="M161.5 107.6s2 2.4 2.1 4.1-4.1 1.2-4.6 3.2 1.3 2.6 1.2 4-2.2 1.8-1.9 3.9"/><path class="st6" d="M132.3 109.8c-2.9-3.8-2.3-7.5.4-9.5 2.7-2.1 6.4-1.7 9.3 2.1 2.9 3.8 4.3 10.2 1.6 12.2-2.6 2.1-8.4-1-11.3-4.8zM144 115s.7 2.9.3 3.9 4.6-4.1 3.6-3.7c-1.2.5-2.3.2-3.9-.2z"/><path class="st9" d="M147 118.1s-.1 2.8.7 4 3.6-1.4 5-.3c1.4 1.2.6 2.5 1.4 3.5s2.5.1 3.5 1.7"/><path class="st7" d="M270.6 82.8l-.9 1c-.2.2-.3.6-.2.9l.3 1.3c.2.8-.6 1.5-1.4 1.2l-1.2-.5c-.3-.1-.6-.1-.9.1l-1.1.7c-.7.4-1.6-.1-1.5-.9l.1-1.3c0-.3-.1-.7-.3-.9l-1-.9c-.6-.5-.4-1.6.4-1.7l1.3-.3c.3-.1.6-.3.7-.6l.5-1.2c.3-.8 1.4-.8 1.8-.1l.7 1.1c.2.3.5.5.8.5l1.3.1c.8-.1 1.2.9.6 1.5z"/><path class="st4" d="M238.7 90.7l2.6-3.1c.2-.3.3-.6.2-.9l-1.1-3.9c-.2-.8.6-1.5 1.3-1.2l3.7 1.5c.3.1.7.1.9-.1l3.4-2.2c.7-.5 1.6.1 1.5.9l-.3 4c0 .3.1.6.4.9l3.2 2.5c.6.5.4 1.6-.4 1.8l-3.9 1c-.3.1-.6.3-.7.6l-1.4 3.8c-.3.8-1.3.9-1.8.2l-2.1-3.4c-.2-.3-.5-.5-.8-.5l-4-.2c-.8-.1-1.2-1-.7-1.7z"/><path class="st6" d="M270.8 102.4l-.4 1c-.1.3-.1.7.1.9l.6.9c.5.7-.1 1.6-.9 1.5l-1.1-.1c-.3 0-.6.1-.9.4l-.7.9c-.5.6-1.6.4-1.7-.4l-.3-1.1c-.1-.3-.3-.6-.6-.7l-1-.4c-.8-.3-.9-1.4-.2-1.8l.9-.6c.3-.2.5-.5.5-.8l.1-1.1c0-.8 1-1.2 1.6-.7l.8.7c.3.2.6.3.9.2l1.1-.3c.8 0 1.5.8 1.2 1.5z"/><path class="st8" d="M234.9 135.1s-3.2-28 6.5-39.2"/><path class="st9" d="M262.1 87.5s-19.4 13-23.6 40.5m5.5-5.1s6.5-10.2 17.3-15.3"/><path d="M54.9 400l80.4-381.2c.5-3-1.9-5.8-4.9-5.8H11.9c-2.8 0-5 2.2-5 5v382h48z" opacity=".6" fill="#fff"/><path opacity=".35" fill="#fff" d="M200.5 400L324.1 4.3h72.5l-.5 395.7z"/></svg>