<svg id="Слой_1" xmlns="http://www.w3.org/2000/svg" viewBox="0 0 500 499.5"><style>.st3{fill:#010202}.st4{stroke:#010202;stroke-width:45}.st4,.st5{fill:#f9b03f}.st6{fill:#fff}</style><path fill="#8eeded" d="M0-.2h500v500H0z"/><linearGradient id="SVGID_1_" gradientUnits="userSpaceOnUse" x1="223.919" y1="-299.756" x2="493.255" y2="-569.686" gradientTransform="matrix(1 0 0 -1 0 -76)"><stop offset="0" stop-opacity=".3"/><stop offset="1" stop-opacity="0"/></linearGradient><path d="M362.7 113.2L112.5 357.4l129 142.4H500V242.1L362.7 113.2z" fill="url(#SVGID_1_)"/><g id="svg_1_"><path d="M413.3 223.2c0-18.7-9.7-37-26.7-43.7-2.7-1.1-4.3-4-3.3-6.7 2.8-6.9 2.5-15.2.9-23.7-4.8-25.6-26.8-47.4-52.9-47.6-5.6 0-14.1 1.2-19.2 2-2.3.4-4.6-.7-5.6-2.8-8-17.2-27.4-26.9-49.9-26.9-21.6 0-43.3 11-48.5 26.9-1 2.9-4.2 4.6-7 3.3-6.1-2.8-13.7-2.7-22.3-2.7-26.1 0-48.3 21.6-48.8 47.6-.2 9.6-1.1 17 1.1 23.5 1 2.7-.2 5.8-2.9 6.8-19.1 7-28.4 34.3-28.4 43.9 0 7.3 1.7 14.2 4.7 20.4.3.7.5 1.5.5 2.2v87.1c0 24.5 19.8 44.3 44.3 44.3h71.9c8.3 7.4 25.2 12 37.2 12 12 0 23.9-4.5 32.2-12h72.1c24.5 0 44.3-19.8 44.3-44.3V248c0-.9.2-1.7.7-2.5 3.5-6.5 5.6-14.2 5.6-22.3z" fill="#e6e7eb"/><path id="base_3_" class="st3" d="M120.3 229.1h272.5v96.3c0 22.6-17.3 40-40 40H160.3c-22.6 0-40-17.3-40-40v-96.3z"/><path id="svgbar_15_" class="st4" d="M175.6 213.8c-8.4-8.4-22.1-8.4-30.5 0-8.4 8.4-8.4 22.1 0 30.5 8.4 8.4 22.1 8.4 30.5 0h162c8.4 8.4 22.1 8.4 30.5 0 8.4-8.4 8.4-22.1 0-30.5-8.4-8.4-22.1-8.4-30.5 0h-162z"/><path id="svgbar_14_" class="st4" d="M210.1 161c0-11.9-9.7-21.6-21.6-21.6-11.9 0-21.6 9.7-21.6 21.6 0 11.9 9.7 21.6 21.6 21.6l114.6 114.6c0 11.9 9.7 21.6 21.6 21.6 11.9 0 21.6-9.7 21.6-21.6 0-11.9-9.7-21.6-21.6-21.6L210.1 161z"/><path id="svgbar_13_" class="st4" d="M271.8 148.1c8.4-8.4 8.4-22.1 0-30.5-8.4-8.4-22.1-8.4-30.5 0-8.4 8.4-8.4 22.1 0 30.5v162c-8.4 8.4-8.4 22.1 0 30.5 8.4 8.4 22.1 8.4 30.5 0 8.4-8.4 8.4-22.1 0-30.5v-162z"/><path id="svgbar_12_" class="st4" d="M324.6 182.6c11.9 0 21.6-9.7 21.6-21.6 0-11.9-9.7-21.6-21.6-21.6-11.9 0-21.6 9.7-21.6 21.6L188.5 275.6c-11.9 0-21.6 9.7-21.6 21.6 0 11.9 9.7 21.6 21.6 21.6s21.6-9.7 21.6-21.6l114.5-114.6z"/><path id="svgbar_11_" class="st5" d="M175.6 213.8c-8.4-8.4-22.1-8.4-30.5 0-8.4 8.4-8.4 22.1 0 30.5 8.4 8.4 22.1 8.4 30.5 0h162c8.4 8.4 22.1 8.4 30.5 0 8.4-8.4 8.4-22.1 0-30.5-8.4-8.4-22.1-8.4-30.5 0h-162z"/><path id="svgbar_10_" class="st5" d="M210.1 161c0-11.9-9.7-21.6-21.6-21.6-11.9 0-21.6 9.7-21.6 21.6 0 11.9 9.7 21.6 21.6 21.6l114.6 114.6c0 11.9 9.7 21.6 21.6 21.6 11.9 0 21.6-9.7 21.6-21.6 0-11.9-9.7-21.6-21.6-21.6L210.1 161z"/><path id="svgbar_9_" class="st5" d="M271.8 148.1c8.4-8.4 8.4-22.1 0-30.5-8.4-8.4-22.1-8.4-30.5 0-8.4 8.4-8.4 22.1 0 30.5v162c-8.4 8.4-8.4 22.1 0 30.5 8.4 8.4 22.1 8.4 30.5 0 8.4-8.4 8.4-22.1 0-30.5v-162z"/><path id="svgbar_8_" class="st5" d="M324.6 182.6c11.9 0 21.6-9.7 21.6-21.6 0-11.9-9.7-21.6-21.6-21.6-11.9 0-21.6 9.7-21.6 21.6L188.5 275.6c-11.9 0-21.6 9.7-21.6 21.6 0 11.9 9.7 21.6 21.6 21.6s21.6-9.7 21.6-21.6l114.5-114.6z"/><path id="base_2_" class="st3" d="M120.3 229.1h272.5v96.3c0 22.6-17.3 40-40 40H160.3c-22.6 0-40-17.3-40-40v-96.3z"/><path id="G_1_" class="st6" d="M327.4 286.7h35.3V322c0 19.5-15.8 35.3-35.3 35.3-19.5 0-35.3-15.8-35.3-35.3v-49.9c0-19.5 15.8-35.3 35.3-35.3 19.5 0 35.3 15.8 35.3 35.3H342c0-8.1-6.6-14.6-14.6-14.6-8.1 0-14.6 6.6-14.6 14.6V322c0 8.1 6.5 14.6 14.6 14.6S342 330.1 342 322v-14.6h-14.6v-20.7z"/><path id="V_1_" class="st6" d="M292.1 236.8l-25 120.5h-20.7l-25-120.5h20.7l14.6 70.6 14.6-70.6h20.8z"/><path id="S_1_" class="st6" d="M161.2 297.1c-6.4-6.4-10.3-15.2-10.3-25 0-19.5 15.8-35.3 35.3-35.3 19.5 0 35.3 15.8 35.3 35.3h-20.7c0-8.1-6.6-14.6-14.6-14.6-8.1 0-14.6 6.5-14.6 14.6 0 4 1.6 7.7 4.3 10.3 2.6 2.7 4.9 3.4 10.3 4.3 9.8 1 18.6 4 25 10.3 6.4 6.4 10.3 15.2 10.3 25 0 19.5-15.8 35.3-35.3 35.3-19.5 0-35.3-15.8-35.3-35.3h20.7c0 8.1 6.5 14.6 14.6 14.6s14.6-6.6 14.6-14.6c0-4-1.6-7.7-4.3-10.3-2.6-2.6-6.4-3.6-10.3-4.3-9.5-1.4-18.6-3.9-25-10.3z"/></g><path d="M480.3 131l-462-22.6c-2.5-.3-4.3-2.1-4.3-4.3v-49c0-2.4 2.2-4.3 5-4.3L481 15c2.8 0 5 1.9 5 4.3v107.4c0 2.6-2.7 4.6-5.7 4.3z" opacity=".5" fill="#fff"/><path d="M480.3 264.8l-462 66.6c-2.5.4-4.3 2.5-4.3 4.9v163.4h472v-230c0-3-2.7-5.3-5.7-4.9z" opacity=".3" fill="#fff"/></svg>