<svg id="Слой_1" xmlns="http://www.w3.org/2000/svg" viewBox="0 0 500 499.507"><style>.st2{fill:#936222;stroke:#704e25;stroke-width:9;stroke-miterlimit:10}.st3,.st5{fill:#f7f7f7}.st5{stroke:#e8e8e8}.st5,.st6,.st7{stroke-width:9;stroke-miterlimit:10}.st6{fill:#e5e5e5;stroke:#fff}.st7{fill:#d3208b;stroke:#b72aaa}</style><path fill="#efb143" d="M0-.246h500v500H0z"/><linearGradient id="SVGID_1_" gradientUnits="userSpaceOnUse" x1="188.073" y1="762.466" x2="494.066" y2="1069.135" gradientTransform="translate(0 -578)"><stop offset="0" stop-opacity=".3"/><stop offset="1" stop-opacity="0"/></linearGradient><path d="M337.833 71.754l1.993 137.248-52.16-5.248-66.333-27L90.36 348.399l147.308 151.355H500V231.497L337.833 71.754z" fill="url(#SVGID_1_)"/><path class="st2" d="M180.39 285.307h40.943v-74.113H180.39c-20.466 0-37.057 16.59-37.057 37.056 0 20.466 16.591 37.057 37.057 37.057z"/><path class="st2" d="M144.39 323.867h76.943v-74.113H144.39c-20.466 0-37.057 16.59-37.057 37.056 0 20.466 16.591 37.057 37.057 37.057z"/><path class="st2" d="M116.723 360.923h104.61V286.81h-104.61c-20.466 0-37.056 16.59-37.056 37.057 0 20.466 16.59 37.056 37.056 37.056zm104.61-149.729v-34.44s-12-17.667-44.666-11.334c-32.667 6.334-36-16.666-36-16.666s-3.667 30.773 23.666 31.22c27.334.446 8 10.446 5.334 16.78-2.667 6.333-3.007 12.92 6.996 14.626 10.004 1.707 44.67-.186 44.67-.186z"/><ellipse class="st3" cx="175.333" cy="275.087" rx="27.333" ry="32.667"/><ellipse cx="175.333" cy="275.087" rx="14.333" ry="23.333" fill="#111"/><path class="st3" d="M221.333 315.754h-45.37c-5.454 0-7.806 6.829-3.572 10.268 12.975 10.537 29.95 16.065 48.942 19.065v-29.333z"/><path class="st5" d="M412.739 334.909c-28.174 17.557-72.005 23.958-124.056 24.501a1.007 1.007 0 0 1-1.016-1.002v-96.845a1 1 0 0 1 .792-.978l131.892-28.052a1 1 0 0 1 1.204 1.061l-8.346 100.541c-.027.318-.2.605-.47.774z"/><path class="st6" d="M421.667 232.254c0 15.668-59.45 28.384-132.994 28.499-.553 0-1.006-.45-1.006-1.003v-54.993c0-.554.453-1.004 1.006-1.003 73.543.115 132.994 12.83 132.994 28.5z"/><path class="st7" d="M328.737 244.482c0 7.2-5.836 9.605-13.035 9.605-7.2 0-13.035-2.406-13.035-9.605s5.836-16.466 13.035-16.466c7.2 0 13.035 9.267 13.035 16.466zm-2-37.298c0 7.2-5.836 9.605-13.035 9.605-7.2 0-13.035-2.406-13.035-9.605s5.836-16.466 13.035-16.466c7.2 0 13.035 9.267 13.035 16.466z"/><path class="st5" d="M322.333 113.147a1 1 0 0 0-1 1l.095 96.34c.872 4.27 7.883 7.6 16.405 7.6s15.534-3.33 16.406-7.6h.094v-96.34a1 1 0 0 0-1-1h-31z"/><ellipse class="st6" cx="337.833" cy="113.147" rx="16.5" ry="8.5"/><path class="st7" d="M385 216.26c0 8.744-7.089 11.667-15.833 11.667s-15.834-2.923-15.834-11.667c0-8.745 7.09-20 15.834-20S385 207.515 385 216.26z"/><path d="M337.833 113.147s-7.333.94-8.833-5.727c-1.5-6.666 1.333-17.666 8.833-35.666 0 0 1.5 9.833 6 15.333 5.693 5.693 8.334 26.06-6 26.06z" fill="#f7f719" stroke="#f9f98a" stroke-width="9" stroke-miterlimit="10"/><path class="st7" d="M374.667 230.27c0 4.833-3.918 6.448-8.75 6.448s-8.75-1.615-8.75-6.447 3.917-11.053 8.75-11.053 8.75 6.22 8.75 11.053zm-87 55.65v37.373a.997.997 0 0 0 1.5.865c4.131-2.416 16.24-8.564 29.333-6.404 16.167 2.666 21.5 8.053 39.333 4.61 17.834-3.444 19.667-17.444 33.334-20.277 10.82-2.243 19.782 1.574 23.046 3.262a.997.997 0 0 0 1.452-.807l3.452-41.582c.085-1.013-1.226-1.498-1.808-.665-1.676 2.4-4.326 5.224-7.976 6.292-6.833 2-26.166-5.167-40.666 2-14.5 7.167-17.834 11.667-29.5 12.833-11.545 1.155-33.859-7.214-50.958 1.6a1.012 1.012 0 0 0-.542.9z"/><path d="M242.33 230.047l28.583 28.584a3 3 0 0 1 0 4.243l-28.584 28.584c-1.89 1.89-5.121.552-5.121-2.121v-57.168c0-2.673 3.231-4.012 5.121-2.122z" fill="#78d12a" stroke="#00aa3f" stroke-width="9" stroke-miterlimit="10"/></svg>