<svg id="Слой_1" xmlns="http://www.w3.org/2000/svg" viewBox="0 0 400 400"><style>.st2{fill:#f4f4f4}.st3{fill:#ef4b7e}</style><path fill="#5151ed" d="M0 0h400v400H0z"/><linearGradient id="SVGID_1_" gradientUnits="userSpaceOnUse" x1="283.718" y1="1191.138" x2="573.702" y2="1481.763" gradientTransform="matrix(.8 0 0 .8 -62.2 -793.203)"><stop offset="0" stop-opacity=".3"/><stop offset="1" stop-opacity="0"/></linearGradient><path d="M323.6 135l-237 122 129.6 143H400V206.7L323.6 135z" fill="url(#SVGID_1_)"/><circle class="st2" cx="142.8" cy="195.9" r="82.8"/><circle class="st3" cx="268.5" cy="195.9" r="82.8"/><path d="M205.6 142c-12.1 14.3-20 33.7-20 53.9 0 20.3 7.8 39.6 20 53.9 12.1-14.3 20-34.4 20-54.7 0-20.2-7.8-38.8-20-53.1z" fill="#d64579"/><path class="st2" d="M275.1 189.7v-8.2c0-6.3 0-6.2-6.3-6.4-2.6-.1-3.2.7-3.2 3.2.2 6.9.1 13.9 0 20.8-.1 5-3.1 8-7.5 7.9-4.1-.1-6.8-3.2-6.8-8v-17c0-7.1 0-7.1-7.1-7-1.9 0-2.6.6-2.6 2.5.1 7.7-.1 15.5.1 23.2.2 8.7 7.9 15.9 16.7 15.8 9.1 0 16.5-7.1 16.6-16.1.1-3.4.1-7.1.1-10.7zm18.6 6v-14.2c0-6.4 0-6.2-6.3-6.4-2.7-.1-3.2 1-3.1 3.3.1 10.4 0 20.8.1 31.1.1 7.5-1.4 6.4 6.7 6.5 2 0 2.7-.7 2.7-2.7-.2-5.8-.1-11.7-.1-17.6z"/><path class="st3" d="M105.8 189.6h.2c0 4.6-.6 9.4.1 13.9 1.2 8 9.3 13.8 17.4 13.1 8.7-.7 15.5-7.6 15.7-16.1.1-6.2 0-12.4 0-18.6 0-7 0-6.9-6.9-6.9-2.1 0-2.9.7-2.8 2.8.1 7.2.1 14.4 0 21.6 0 1.6-.6 3.4-1.5 4.8-1.7 2.6-4.9 3.4-7.8 2.4s-4.7-3.7-4.8-7.3c-.1-5.8 0-11.7 0-17.5 0-6.9 0-6.8-6.9-6.8-1.9 0-2.6.5-2.5 2.5-.1 4.1-.2 8.1-.2 12.1zm56.4-3.3c-1.1-1.9-2-3.2-2.8-4.6-4-6.6-4-6.6-11.7-6.5-.9 0-1.8.4-2.7.7.3.9.5 1.9 1.1 2.7 3 4.8 6 9.6 9.2 14.2 1.2 1.7 1.1 3 0 4.6-3.5 5.2-6.8 10.6-10.1 15.9-1.3 2.1-1 2.7 1.5 2.8 1.8.1 3.7.3 5.5-.1 1.3-.3 2.9-1.1 3.6-2.1 2-2.7 3.7-5.6 5.5-8.5.7-1.1 1.2-1.5 2-.1 1 1.7 2.1 3.2 3.1 4.8 4 6.2 4 6.2 11.5 5.9 2.6-.1 2.9-.7 1.5-2.9-3.4-5.5-6.9-11-10.4-16.4-.9-1.4-.8-2.3.1-3.6 3.4-5.1 6.7-10.2 10-15.3 1.4-2.1 1-2.7-1.5-2.7-1.9 0-3.8.1-5.7 0-1.9-.2-3 .7-4 2.2-1.9 3-3.7 5.8-5.7 9z"/><path d="M13.7 400V108.1c0-2.3 3.3-4.1 7.3-4.1h40.9c3.2 0 6 1.1 6.9 2.8L237.9 400H13.7z" opacity=".3" fill="#fff"/><path d="M238 15.8l64.3 369.7c.4 2.4 2.5 4.1 4.9 4.1H400V10H242.9c-3.1 0-5.4 2.8-4.9 5.8z" opacity=".09" fill="#fff"/></svg>