<svg id="Слой_1" xmlns="http://www.w3.org/2000/svg" viewBox="0 0 500 499.507"><style>.st2{fill:#f4f4f4}.st3{fill:#ef4b7e}</style><path fill="#5151ed" d="M0-.246h500v500H0z"/><linearGradient id="SVGID_1_" gradientUnits="userSpaceOnUse" x1="205.999" y1="777.357" x2="495.984" y2="1067.982" gradientTransform="translate(0 -578)"><stop offset="0" stop-opacity=".3"/><stop offset="1" stop-opacity="0"/></linearGradient><path d="M404.543 168.444L108.325 320.957l162.008 178.797H500V258.087l-95.457-89.643z" fill="url(#SVGID_1_)"/><path class="st2" d="M256.367 178.241c-18.873-22.305-47.065-36.47-78.571-36.47-56.822 0-102.885 46.062-102.885 102.884s46.063 102.884 102.885 102.884c31.513 0 59.712-14.173 78.585-36.487-15.165-17.923-24.313-41.098-24.313-66.414 0-25.308 9.143-48.477 24.299-66.397z"/><path class="st3" d="M334.952 141.754c-31.513 0-59.712 14.173-78.585 36.487 15.165 17.923 24.313 41.098 24.313 66.414 0 25.308-9.143 48.477-24.299 66.397 18.873 22.305 47.065 36.47 78.571 36.47 56.822 0 102.885-46.062 102.885-102.884s-46.063-102.884-102.885-102.884z"/><path d="M256.367 178.241c-15.156 17.92-24.3 41.09-24.3 66.397 0 25.316 9.15 48.491 24.314 66.414 15.156-17.92 24.3-41.09 24.3-66.397 0-25.316-9.15-48.491-24.314-66.414z" fill="#d64579"/><path class="st2" d="M343.819 236.85v-10.253c0-7.906-.005-7.744-7.864-7.958-3.219-.088-4.042.92-3.97 4.032.202 8.654.165 17.316.035 25.973-.095 6.26-3.816 10.035-9.348 9.878-5.142-.146-8.443-4.005-8.461-9.956-.022-7.064-.006-14.127-.006-21.19 0-8.887 0-8.818-8.88-8.705-2.316.029-3.27.7-3.247 3.12.087 9.683-.137 19.37.082 29.05.247 10.913 9.847 19.854 20.87 19.805 11.415-.05 20.595-8.914 20.775-20.125.073-4.556.012-9.114.014-13.67zm23.258 7.518v-17.751c0-7.948-.005-7.772-7.881-7.978-3.368-.089-3.957 1.226-3.929 4.185.124 12.97-.022 25.944.079 38.915.073 9.433-1.699 7.939 8.382 8.17 2.511.057 3.427-.821 3.388-3.353-.113-7.395-.04-14.792-.04-22.188z"/><path class="st3" d="M132.282 236.8h.204c0 5.806-.693 11.715.153 17.395 1.483 9.96 11.618 17.2 21.695 16.395 10.87-.868 19.416-9.533 19.589-20.065.127-7.745.027-15.493.027-23.24.001-8.702 0-8.607-8.664-8.623-2.679-.005-3.597.839-3.56 3.53.123 8.998.158 18.002-.04 26.998-.044 2.027-.756 4.305-1.88 5.987-2.163 3.24-6.12 4.195-9.744 2.939-3.616-1.253-5.93-4.568-5.99-9.072-.098-7.29-.029-14.582-.03-21.873 0-8.636.001-8.558-8.66-8.504-2.347.015-3.228.651-3.149 3.096.163 5.007.05 10.024.05 15.037zm70.422-4.148l-3.55-5.806c-5.006-8.199-5.006-8.228-14.573-8.091-1.147.016-2.286.55-3.428.844.428 1.129.68 2.368 1.313 3.367 3.779 5.962 7.536 11.943 11.538 17.754 1.49 2.163 1.319 3.711-.054 5.794-4.322 6.558-8.469 13.231-12.641 19.887-1.642 2.619-1.23 3.371 1.845 3.464 2.276.068 4.624.348 6.813-.096 1.653-.335 3.566-1.316 4.554-2.622 2.535-3.347 4.644-7.02 6.87-10.597.87-1.4 1.525-1.844 2.541-.082 1.193 2.068 2.578 4.025 3.887 6.025 5.043 7.701 5.044 7.7 14.386 7.385 3.228-.108 3.633-.841 1.885-3.619-4.307-6.841-8.586-13.702-13.019-20.461-1.117-1.704-1.035-2.864.081-4.52 4.262-6.325 8.383-12.745 12.493-19.17 1.69-2.644 1.29-3.321-1.838-3.381-2.392-.046-4.798.143-7.174-.053-2.394-.198-3.797.825-4.956 2.788-2.129 3.606-4.42 7.116-6.973 11.19z"/></svg>