<svg id="Слой_1" xmlns="http://www.w3.org/2000/svg" viewBox="0 0 500 499.5"><style>.st2{fill:#936222;stroke:#704e25;stroke-width:9;stroke-miterlimit:10}.st3,.st5{fill:#f7f7f7}.st5{stroke:#e8e8e8}.st5,.st6,.st7{stroke-width:9;stroke-miterlimit:10}.st6{fill:#e5e5e5;stroke:#fff}.st7{fill:#d3208b;stroke:#b72aaa}</style><path fill="#efb143" d="M0-.2h500v500H0z"/><linearGradient id="SVGID_1_" gradientUnits="userSpaceOnUse" x1="189.584" y1="1030.039" x2="494.073" y2="1335.199" gradientTransform="translate(0 -844)"><stop offset="0" stop-opacity=".3"/><stop offset="1" stop-opacity="0"/></linearGradient><path d="M337.8 71.8l2 137.2-52.2-4.2-.7 31.3-61.3-60.7-135.3 173 147.3 151.4H500V231.5L337.8 71.8z" fill="url(#SVGID_1_)"/><path class="st2" d="M180.4 285.3h40.9v-74.1h-40.9c-20.5 0-37.1 16.6-37.1 37.1 0 20.4 16.6 37 37.1 37z"/><path class="st2" d="M144.4 323.9h76.9v-74.1h-76.9c-20.5 0-37.1 16.6-37.1 37.1 0 20.4 16.6 37 37.1 37z"/><path class="st2" d="M116.7 360.9h104.6v-74.1H116.7c-20.5 0-37.1 16.6-37.1 37.1.1 20.4 16.7 37 37.1 37zm104.6-149.7v-34.4s-12-17.7-44.7-11.3c-32.7 6.3-36-16.7-36-16.7s-3.7 30.8 23.7 31.2c27.3.4 8 10.4 5.3 16.8-2.7 6.3-3 12.9 7 14.6 10.1 1.7 44.7-.2 44.7-.2z"/><ellipse class="st3" cx="175.3" cy="275.1" rx="27.3" ry="32.7"/><ellipse cx="175.3" cy="275.1" rx="14.3" ry="23.3" fill="#111"/><path class="st3" d="M221.3 315.8H176c-5.5 0-7.8 6.8-3.6 10.3 13 10.5 29.9 16.1 48.9 19.1v-29.4z"/><path class="st5" d="M412.7 334.9c-28.2 17.6-72 24-124.1 24.5-.6 0-1-.4-1-1v-96.8c0-.5.3-.9.8-1l131.9-28.1c.7-.1 1.3.4 1.2 1.1l-8.3 100.5c0 .4-.2.6-.5.8z"/><path class="st6" d="M421.7 232.3c0 15.7-59.5 28.4-133 28.5-.6 0-1-.4-1-1v-55c0-.6.5-1 1-1 73.5.1 133 12.8 133 28.5z"/><path class="st7" d="M328.7 244.5c0 7.2-5.8 9.6-13 9.6s-13-2.4-13-9.6 5.8-16.5 13-16.5 13 9.3 13 16.5zm-2-37.3c0 7.2-5.8 9.6-13 9.6s-13-2.4-13-9.6 5.8-16.5 13-16.5 13 9.3 13 16.5z"/><path class="st5" d="M322.3 113.1c-.6 0-1 .4-1 1l.1 96.3c.9 4.3 7.9 7.6 16.4 7.6s15.5-3.3 16.4-7.6h.1v-96.3c0-.6-.4-1-1-1h-31z"/><ellipse class="st6" cx="337.8" cy="113.1" rx="16.5" ry="8.5"/><path class="st7" d="M385 216.3c0 8.7-7.1 11.7-15.8 11.7s-15.8-2.9-15.8-11.7c0-8.7 7.1-20 15.8-20s15.8 11.2 15.8 20z"/><path d="M337.8 113.1s-7.3.9-8.8-5.7c-1.5-6.7 1.3-17.7 8.8-35.7 0 0 1.5 9.8 6 15.3 5.7 5.8 8.4 26.1-6 26.1z" fill="#f7f719" stroke="#f9f98a" stroke-width="9" stroke-miterlimit="10"/><path class="st7" d="M374.7 230.3c0 4.8-3.9 6.4-8.8 6.4s-8.8-1.6-8.8-6.4 3.9-11.1 8.8-11.1 8.8 6.2 8.8 11.1zm-87 55.6v37.4c0 .8.8 1.3 1.5.9 4.1-2.4 16.2-8.6 29.3-6.4 16.2 2.7 21.5 8.1 39.3 4.6 17.8-3.4 19.7-17.4 33.3-20.3 10.8-2.2 19.8 1.6 23 3.3.6.3 1.4-.1 1.5-.8l3.5-41.6c.1-1-1.2-1.5-1.8-.7-1.7 2.4-4.3 5.2-8 6.3-6.8 2-26.2-5.2-40.7 2s-17.8 11.7-29.5 12.8c-11.5 1.2-33.9-7.2-51 1.6-.2.2-.4.5-.4.9z"/><path d="M242.3 230l28.6 28.6c1.2 1.2 1.2 3.1 0 4.2l-28.6 28.6c-1.9 1.9-5.1.6-5.1-2.1l12.8-27.8-12.8-29.4c0-2.6 3.2-3.9 5.1-2.1z" fill="#78d12a" stroke="#00aa3f" stroke-width="9" stroke-miterlimit="10"/><path opacity=".15" fill="#fff" d="M284 0l123 499.8h93V-.2z"/><path d="M295.2 499.8L24.8 220.1c-3.1-3.2-8.6-1-8.6 3.5v276.2h279z" opacity=".3" fill="#fff"/><ellipse transform="rotate(-57.771 173.301 261.534)" cx="173.3" cy="261.5" rx="6.9" ry="4.6" fill="#fff"/><radialGradient id="SVGID_2_" cx="-83.921" cy="129.62" r="64.168" gradientTransform="matrix(.5617 -.8273 -.6623 -.4496 273.486 131.15)" gradientUnits="userSpaceOnUse"><stop offset="0" stop-color="#fff" stop-opacity=".3"/><stop offset="1" stop-color="#fff" stop-opacity="0"/></radialGradient><path d="M184.8 170.2c-19 30.2-54.3 42.2-78.8 26.8s-28.8-52.4-9.8-82.6 54.3-42.2 78.8-26.8 28.8 52.4 9.8 82.6z" fill="url(#SVGID_2_)"/></svg>