<svg id="Слой_1" xmlns="http://www.w3.org/2000/svg" viewBox="0 0 500 499.507"><style>.st6{fill:#f4f4f4}.st9{fill:#adadad}.st10{fill:#e5e5e5}.st11{fill:#878787}</style><path fill="#f7f7f7" d="M0 0h499.507v499.507H0z"/><path d="M248.365 290.717l-70.272-9.488a3 3 0 0 1-2.572-3.374l4.659-34.502a3 3 0 0 1 3.374-2.572l70.273 9.489a3 3 0 0 1 2.571 3.374l-4.658 34.502a3 3 0 0 1-3.375 2.571z" fill="#509df9"/><path d="M147.97 276.605l-50.141-50.14a3 3 0 0 1 0-4.243l24.618-24.618a3 3 0 0 1 4.242 0l50.141 50.141a3 3 0 0 1 0 4.243l-24.618 24.617a3 3 0 0 1-4.242 0z" fill="#f25555"/><path d="M333.99 250.606h-70.91a3 3 0 0 1-3-3v-34.815a3 3 0 0 1 3-3h70.91a3 3 0 0 1 3 3v34.815a3 3 0 0 1-3 3z" fill="#52f7a9"/><path d="M251.646 250.205l-70.272-9.489a3 3 0 0 1-2.572-3.374l4.659-34.502a3 3 0 0 1 3.374-2.571l70.272 9.488a3 3 0 0 1 2.572 3.374l-4.658 34.502a3 3 0 0 1-3.375 2.572z" fill="#f4af53"/><path d="M311.375 209.688l-70.868-2.438a3 3 0 0 1-2.896-3.101l1.198-34.794a3 3 0 0 1 3.101-2.896l70.868 2.439a3 3 0 0 1 2.895 3.101l-1.197 34.794a3 3 0 0 1-3.101 2.895z" fill="#f2f255"/><path class="st6" d="M330.71 291.42H259.8a3 3 0 0 1-3-3v-34.814a3 3 0 0 1 3-3h70.91a3 3 0 0 1 3 3v34.815a3 3 0 0 1-3 3z"/><path d="M276.818 275.73c0-1.62 1.11-2.79 2.7-2.79s2.67 1.14 2.67 2.79c0 1.59-1.08 2.76-2.7 2.76-1.56 0-2.67-1.17-2.67-2.76zm8.129-7.41c0-2.16-.06-3.57-.12-4.83h3.93l.15 2.7h.12c.75-2.13 2.55-3.03 3.96-3.03.42 0 .63 0 .96.06v4.29c-.33-.06-.72-.12-1.23-.12-1.68 0-2.82.901-3.12 2.31-.06.3-.09.66-.09 1.02v7.44h-4.56v-9.84zm25.139 5.13c0 1.92.06 3.48.12 4.71h-3.96l-.21-2.07h-.09c-.57.9-1.95 2.4-4.59 2.4-2.97 0-5.16-1.86-5.16-6.39v-8.61h4.59v7.89c0 2.13.69 3.42 2.28 3.42 1.26 0 1.98-.87 2.28-1.59.12-.27.15-.63.15-.99v-8.73h4.59v9.96z"/><path d="M272.753 234.902c0-1.62 1.11-2.79 2.7-2.79s2.67 1.14 2.67 2.79c0 1.59-1.08 2.76-2.7 2.76-1.56 0-2.67-1.17-2.67-2.76zm8.13-7.559c0-1.83-.06-3.39-.12-4.68h3.96l.21 2.01h.09c.6-.93 2.1-2.34 4.53-2.34 2.999 0 5.249 1.98 5.249 6.3v8.699h-4.56v-8.13c0-1.89-.66-3.18-2.31-3.18-1.259 0-2.009.87-2.31 1.71-.119.27-.18.72-.18 1.14v8.46h-4.56v-9.99zm21.09 4.109c.15 1.89 2.01 2.79 4.14 2.79 1.559 0 2.82-.21 4.05-.6l.6 3.09c-1.5.6-3.33.9-5.31.9-4.98 0-7.83-2.88-7.83-7.47 0-3.72 2.31-7.83 7.41-7.83 4.74 0 6.54 3.69 6.54 7.32 0 .78-.09 1.47-.151 1.8h-9.45zm5.37-3.12c0-1.11-.48-2.97-2.58-2.97-1.92 0-2.7 1.74-2.82 2.97h5.4zm12.059-9.869v4.2h3.27v3.36h-3.27v5.309c0 1.77.42 2.58 1.8 2.58.57 0 1.02-.06 1.35-.12l.03 3.45c-.6.24-1.68.39-2.97.39-1.47 0-2.7-.51-3.42-1.26-.84-.87-1.26-2.28-1.26-4.35v-6h-1.95v-3.36h1.95v-3.18l4.47-1.02z" fill="#163a26"/><path d="M251.071 190.98c.057-1.619 1.208-2.749 2.797-2.693s2.628 1.233 2.57 2.883c-.056 1.589-1.177 2.72-2.796 2.662-1.559-.055-2.627-1.263-2.571-2.852zm22.784-4.269c-.19 5.367-4.083 7.691-8.01 7.552-4.288-.151-7.486-3.086-7.32-7.822.168-4.738 3.392-7.655 8.1-7.49 4.497.16 7.386 3.353 7.23 7.76zm-10.618-.224c-.089 2.518.894 4.444 2.842 4.513 1.77.063 2.97-1.667 3.064-4.305.077-2.189-.684-4.437-2.753-4.51-2.188-.077-3.077 2.143-3.153 4.302zm13.519-2.015c.076-2.158.066-3.57.05-4.83l3.928.138.055 2.704.12.004c.825-2.102 2.655-2.938 4.063-2.888.42.015.63.022.958.094l-.152 4.287a6.518 6.518 0 0 0-1.224-.164c-1.679-.059-2.85.8-3.2 2.199-.07.298-.113.656-.126 1.016l-.262 7.435-4.557-.16.347-9.835zm25.323-3.938c-.092.928-.195 2.155-.273 4.343l-.289 8.185c-.1 2.818-.75 5.106-2.452 6.517-1.667 1.322-3.87 1.664-6.03 1.588-1.918-.068-3.942-.53-5.235-1.326l1.02-3.416c.911.573 2.51 1.2 4.22 1.26 2.157.076 3.848-1.035 3.943-3.733l.034-.96-.06-.002c-.913 1.2-2.346 1.839-4.025 1.78-3.627-.129-6.102-3.157-5.953-7.385.166-4.707 3.33-7.597 6.927-7.47 2.009.071 3.238.985 3.945 2.21l.06.003.211-1.734 3.957.14zm-4.888 5.801a3.58 3.58 0 0 0-.06-.843c-.287-1.21-1.128-2.05-2.387-2.095-1.649-.058-3.051 1.393-3.145 4.061-.078 2.19.941 3.936 2.86 4.004 1.17.041 2.127-.706 2.465-1.775.131-.325.177-.803.191-1.194l.076-2.158z"/><path class="st6" d="M183.033 266.8c.218-1.605 1.476-2.614 3.052-2.4 1.575.214 2.491 1.49 2.269 3.125-.214 1.575-1.442 2.589-3.048 2.37-1.545-.21-2.488-1.52-2.273-3.094zm18.686 4.632c-.852.247-2.408.338-4.132.104-4.697-.64-7.31-3.901-6.687-8.48.578-4.25 3.964-7.331 9.374-6.595 1.19.162 2.468.548 3.37 1.034l-1.17 3.262c-.502-.31-1.276-.628-2.465-.79-2.379-.324-4.155 1.16-4.448 3.543-.364 2.675 1.229 4.315 3.428 4.614 1.07.146 1.927.08 2.648-.094l.082 3.402zm17.489-4.826c-.724 5.321-4.83 7.245-8.725 6.715-4.25-.578-7.14-3.818-6.5-8.514.638-4.697 4.137-7.278 8.804-6.643 4.46.607 7.015 4.073 6.42 8.442zm-10.543-1.283c-.34 2.497.446 4.512 2.377 4.775 1.755.238 3.123-1.362 3.478-3.978.296-2.17-.237-4.483-2.288-4.762-2.17-.295-3.275 1.825-3.567 3.965zm13.674-.803c.247-1.813.397-3.367.512-4.654l3.805.518-.06 1.99.09.012c.75-.836 2.214-2.03 4.711-1.69 1.873.255 3.23 1.408 3.647 3.01l.06.008a6.562 6.562 0 0 1 2.111-1.5c.867-.366 1.792-.482 2.86-.337 2.795.38 4.638 2.63 4.048 6.97l-1.165 8.56-4.399-.598 1.076-7.907c.287-2.11-.231-3.422-1.687-3.62-1.04-.142-1.88.47-2.295 1.291-.163.311-.288.779-.336 1.135l-1.157 8.502-4.4-.599 1.11-8.144c.25-1.843-.234-3.18-1.66-3.375-1.16-.157-1.965.641-2.334 1.348-.197.336-.284.749-.332 1.105l-1.153 8.472-4.399-.599 1.347-9.898zm-33.924-36.3c.213-1.606 1.467-2.62 3.043-2.412 1.576.208 2.497 1.48 2.281 3.116-.208 1.576-1.432 2.594-3.038 2.382-1.546-.204-2.494-1.51-2.286-3.086zm14.866-14.497c-.165 1.249-1.25 2.134-2.737 1.938-1.428-.189-2.246-1.326-2.051-2.57.143-1.314 1.224-2.17 2.681-1.977 1.458.193 2.25 1.296 2.107 2.609zm-7.124 17.97l1.92-14.543 4.521.597-1.92 14.544-4.52-.597zm9.457-8.827a98.8 98.8 0 0 0 .494-4.655l3.926.518-.055 2.02.089.012c.716-.843 2.388-2.045 4.797-1.727 2.974.393 4.945 2.65 4.38 6.934l-1.14 8.624-4.52-.597 1.064-8.06c.248-1.873-.238-3.239-1.873-3.455-1.249-.164-2.106.6-2.514 1.393-.154.252-.273.69-.328 1.107l-1.107 8.387-4.52-.597 1.307-9.904zm16.626 12.272l1.481-11.212-1.903-.252.44-3.33 1.903.25.075-.564c.231-1.755 1.022-3.617 2.488-4.634 1.271-.922 2.898-1.1 4.207-.927 1.011.134 1.769.354 2.37.615l-.638 3.456a4.934 4.934 0 0 0-1.43-.4c-1.487-.197-2.265.88-2.454 2.308l-.098.744 2.915.385-.44 3.33-2.885-.38-1.48 11.212-4.55-.6zm24.685-4.305c-.703 5.324-4.802 7.264-8.698 6.75-4.253-.562-7.154-3.79-6.534-8.489.62-4.7 4.11-7.295 8.779-6.678 4.46.59 7.03 4.045 6.453 8.417zm-10.547-1.241c-.33 2.497.463 4.51 2.396 4.764 1.755.232 3.117-1.374 3.462-3.99.287-2.172-.255-4.483-2.308-4.754-2.17-.287-3.267 1.838-3.55 3.98z"/><path d="M117.035 224.616c1.145-1.146 2.757-1.189 3.882-.065s1.083 2.693-.083 3.86c-1.124 1.125-2.715 1.19-3.86.044-1.104-1.102-1.063-2.714.06-3.839zm10.925.567a109.107 109.107 0 0 0 3.392-3.565l2.802 2.799-1.294 1.592.042.042c1.867-.34 3.628.273 5.135 1.779 2.27 2.269 2.336 6.278-.972 9.589-3.774 3.777-7.953 3.164-10.266.853-1.252-1.251-1.72-2.736-1.508-3.88l-.042-.043-5.152 5.156-3.226-3.222 11.09-11.1zm.787 5.664c-.254.255-.466.51-.615.742-.657 1.083-.571 2.483.362 3.415 1.401 1.4 3.396 1.06 5.155-.701 1.654-1.656 2.162-3.65.72-5.092-.914-.912-2.399-1.039-3.565-.296a3.555 3.555 0 0 0-.636.51l-1.42 1.422zm27.876 6.647l-4.516 4.52c2.675 3.266 3.42 7.53.09 10.861-3.37 3.375-7.699 2.529-10.797-.143l-4.028 4.032-2.929-2.926 4.008-4.011c-2.675-3.137-3.483-7.464-.175-10.775 3.392-3.396 7.656-2.613 10.903.037l4.516-4.52 2.928 2.925zm-9.522 3.674c-1.952-1.186-3.967-.612-5.557.98-1.675 1.676-2.162 3.649-.974 5.557l6.531-6.537zm-3.602 9.463c1.91 1.187 3.904.677 5.557-.978 1.612-1.613 2.12-3.607.952-5.537l-6.51 6.515z" fill="#351414"/><circle class="st9" cx="321.832" cy="397.931" r="18.73"/><circle class="st9" cx="175.12" cy="397.931" r="18.73"/><path class="st10" d="M159.543 374.438h31.155c2.758 0 4.79 2.579 4.147 5.26l-4.777 19.903a4.265 4.265 0 0 1-4.147 3.27h-21.204a4.265 4.265 0 0 1-4.127-3.192l-5.175-19.903c-.702-2.7 1.336-5.338 4.128-5.338zm146.711 0h31.155c2.758 0 4.791 2.579 4.148 5.26l-4.777 19.903a4.265 4.265 0 0 1-4.147 3.27h-21.204a4.265 4.265 0 0 1-4.128-3.192l-5.174-19.903c-.703-2.7 1.336-5.338 4.127-5.338zM144.36 359.654L98.015 278.62l7.244 1.064 45.925 79.969zm12.51 0l92.122-58.856-4.744-.697-93.064 59.553z"/><path class="st11" d="M351.822 162.735l-268.81 10.852a2.559 2.559 0 0 0-2.42 2.988L98.015 278.62l150.977 22.177h75.615a2.56 2.56 0 0 1 2.485 1.947l13.24 53.737a2.559 2.559 0 0 1-2.485 3.172H144.36l8.39 9.87a4.265 4.265 0 0 0 3.25 1.503h190.488c.899 0 1.732-.472 2.194-1.243l5.546-9.244a2.559 2.559 0 0 0 .299-1.894l-13.414-57.848 13.359-135.255a2.559 2.559 0 0 0-2.65-2.808zm-12.735 45.683l-32.402.498 1.126-38.057 35.008-1.42-3.732 38.979zm-4.182 43.683l-29.477-.715 1.064-35.955 31.959-.369-3.546 37.04zM278.4 250.73l-.406-34.97 26.356-.365-1.176 35.804-24.774-.47zm24.56 6.984l-1.05 31.912-23.057.083-.378-32.553 24.484.558zm-27.222-48.356l-29.79.49-1.387-36.425 30.866-1.235.31 37.17zm1.748-37.27l28.325-1.15-1.247 37.957-26.645.462-.433-37.269zm-33.404 38.024l-29.695.221-2.697-35.577 30.934-1.214 1.458 36.57zm-31.763.2l-31.362.535-3.418-34.707 32.21-1.307 2.57 35.48zm-30.769 6.562l31.213-.42 2.362 32.606-30.465-.605-3.11-31.58zm.742 31.508l-26.903-.638-3.604-30.526 27.526-.264 2.98 31.428zm-3.552-37.44l-27.654.364-4.006-33.93 28.377-1.043 3.283 34.609zm-29.908.433l-25.367.355-4.935-33.197 26.43-.99 3.872 33.832zm.675 5.897l3.476 30.374-24.261-.55-4.395-29.56 25.18-.264zm4.151 36.27l2.724 23.8-23.588-2.849-3.21-21.59 24.074.64zm2.43.118l26.775.741 2.538 26.763-26.45-3.245-2.864-24.26zm29.167.833l30.316.723 2.176 30.05-29.812-3.552-2.68-27.221zm32.55.93l27.882.932 1.145 32.978-26.714-3.404-2.313-30.506zm-.468-6.175l-2.483-32.758 29.445-.114 1.17 33.7-28.132-.828zm28.85-33.12l29.604-.383.29 34.819-28.604-.585-1.29-33.851zm-129.314-37.393l4.793 33.098-25.865.322-5.464-32.48 26.536-.94zM96.76 217.854l25.744-.231 4.259 29.409-25.195-.594-4.808-28.584zm5.766 34.276l25.075.688 3.06 21.127-24.97-3.001-3.165-18.814zm145.191 4.147l28.418.693.273 32.676-27.417.063-1.274-33.432zm56.576 33.432l.94-31.79 29.034.83-2.964 30.96h-27.01z"/><path class="st11" d="M354.472 165.543l24.598-41.026v-9.099l-6.823 5.687-27.722 42.648z"/><path class="st10" d="M379.183 114.952l39.237-8.074a.853.853 0 0 1 1.025.836v9.041a.853.853 0 0 1-.681.836l-39.237 8.073a.853.853 0 0 1-1.025-.835v-9.042c0-.405.284-.754.68-.835z"/><path d="M447 467H53c-11.046 0-20-8.954-20-20V53c0-11.046 8.954-20 20-20h394c11.046 0 20 8.954 20 20v394c0 11.046-8.954 20-20 20z" fill="none" stroke="#0db752" stroke-width="8" stroke-miterlimit="10"/><circle cx="447" cy="52" r="35" fill="#ed2020" stroke="#b50f0f" stroke-width="6" stroke-miterlimit="10"/><path class="st6" d="M453.944 43.057c-.68-.04-1.4 0-2.36.08-5.398.44-7.799 3.2-8.479 6.239h.12c1.28-1.32 3.08-2.08 5.52-2.08 4.36 0 8.038 3.08 8.038 8.479 0 5.16-3.959 9.398-9.597 9.398-6.92 0-10.319-5.159-10.319-11.358 0-4.879 1.799-8.958 4.599-11.558 2.6-2.36 5.959-3.64 10.038-3.839 1.12-.08 1.84-.08 2.44-.04v4.68zm-3.32 13.038c0-2.4-1.28-4.48-3.879-4.48-1.64 0-2.999 1-3.6 2.32-.16.32-.239.8-.239 1.52.12 2.76 1.44 5.239 4.2 5.239 2.159 0 3.518-1.96 3.518-4.6z"/><path d="M98.259 483.309l75.607-465.507A5 5 0 0 0 168.931 12H21a5 5 0 0 0-5 5v465.507a5 5 0 0 0 5 5h72.324a5 5 0 0 0 4.935-4.198z" opacity=".4" fill="#fff"/><path d="M454.713 18.138L301.268 475.645c-1.956 5.831 2.383 11.862 8.533 11.862H481a9 9 0 0 0 9-9V21a9 9 0 0 0-9-9h-17.754a9 9 0 0 0-8.533 6.138z" opacity=".35" fill="#fff"/></svg>