<svg id="Слой_1" xmlns="http://www.w3.org/2000/svg" xmlns:xlink="http://www.w3.org/1999/xlink" viewBox="0 0 500 499.5"><style>.st4{fill:#fff}.st5{fill:#f4f4f4}.st6{fill:#3ac1fc}.st25{fill:#111}</style><path fill="#f9f9f9" d="M0 0h500v500H0z"/><linearGradient id="SVGID_1_" gradientUnits="userSpaceOnUse" x1="84.838" y1="925.196" x2="491.697" y2="1332.953" gradientTransform="translate(0 -844)"><stop offset="0" stop-opacity=".3"/><stop offset="1" stop-opacity="0"/></linearGradient><path d="M126 127l-.5 195-99-5.2 78.4 73.3-16.4 33 85.1 76.4 326.4.5V159l-29.3-27.5-27.2-4.5L351 43.6l-61.6 72.5 12.4 10.9H250l-65-62.4-32.3-2-24.5 9.2L126 127z" fill="url(#SVGID_1_)"/><linearGradient id="SVGID_2_" gradientUnits="userSpaceOnUse" x1="-519.851" y1="-6.576" x2="-518.966" y2="-6.576" gradientTransform="rotate(108.979 -25482.318 17831.284) scale(97.3966)"><stop offset="0" stop-color="#ff1b2d"/><stop offset=".3" stop-color="#ff1b2d"/><stop offset=".61" stop-color="#ff1b2d"/><stop offset="1" stop-color="#a70014"/></linearGradient><path d="M171.9 57.5c-23.2-8-48.6 4.4-56.6 27.6-7.8 22.6 3.7 47.1 25.6 55.8.7.3 1.3.5 2 .7 10.8 3.7 22 3 31.7-1.1-6.1 1.6-12.5 1.5-18.6-.7-10-3.4-17.3-11.5-20.6-21.4-2.8-7.1-3-16.2-.1-25.4l.7-2c3.3-9 9.1-16.1 15.7-20 8.7-5.8 19.4-7.6 29.4-4.2 6.2 2.1 11.3 6 15.1 11-5.1-9.2-13.5-16.6-24.2-20.3h-.1z" fill="url(#SVGID_2_)"/><linearGradient id="SVGID_3_" gradientUnits="userSpaceOnUse" x1="-519.578" y1="-7.402" x2="-518.693" y2="-7.402" gradientTransform="rotate(108.979 -22538.901 15749.994) scale(86.1425)"><stop offset="0" stop-color="#9c0000"/><stop offset=".7" stop-color="#ff4b4b"/><stop offset="1" stop-color="#ff4b4b"/></linearGradient><path d="M151.7 71.1c5.4-3.2 11.4-4.3 16.8-2.4 12.3 4.2 17.4 21.5 11.5 38.6-5.9 17.1-20.6 27.6-32.9 23.4-5.5-1.9-9.5-6.3-11.8-12.2 3.3 9.9 10.6 18 20.6 21.4 6.2 2.1 12.6 2.2 18.6.7 11.3-4.7 20.5-14.1 24.8-26.5 4.3-12.5 2.7-25.5-3.2-36.2-3.8-5-8.9-8.8-15.1-11-9.9-3.4-20.6-1.5-29.3 4.2" fill="url(#SVGID_3_)"/><image width="482" height="220" xlink:href="C04273E7.png" transform="translate(8 114.507)" overflow="visible" opacity=".3"/><path class="st4" d="M458 322H40c-11 0-20-9-20-20V147c0-11 9-20 20-20h418c11 0 20 9 20 20v155c0 11-9 20-20 20z"/><path class="st5" d="M458 322H332V127h126c11 0 20 9 20 20v155c0 11-9 20-20 20z"/><circle class="st6" cx="396" cy="196" r="47.5"/><path class="st6" d="M437.1 295.7l-31.3-61.5c-2-3.9-.4-8.8 3.5-10.8s8.8-.4 10.8 3.5l31.3 61.5c2 3.9.4 8.8-3.5 10.8s-8.8.4-10.8-3.5z"/><circle class="st5" cx="396" cy="197.1" r="32.6"/><path fill="none" stroke="#ff5317" stroke-width="3" stroke-linecap="round" stroke-linejoin="round" stroke-miterlimit="10" d="M48.3 251.5L96 222l18.4 13.3 47.9-42.7 18.8 8.7 52-37.2 20.7 12.7 55-34.2-3.7 14.9 7.3-18.8-19.5 3.1"/><path class="st6" d="M136.1 212.3h77c1.7 0 3 1.3 3 3v82.8c0 1.7-1.3 3-3 3h-77c-1.7 0-3-1.3-3-3v-82.8c0-1.6 1.4-3 3-3zm-95.5 44.5h77c1.7 0 3 1.3 3 3v38.4c0 1.7-1.3 3-3 3h-77c-1.7 0-3-1.3-3-3v-38.4c0-1.7 1.4-3 3-3zm191.8-19.2h77c1.7 0 3 1.3 3 3v57.6c0 1.7-1.3 3-3 3h-77c-1.7 0-3-1.3-3-3v-57.6c0-1.7 1.3-3 3-3z"/><path class="st5" d="M37.6 288.2h83v13h-83zm95.5 0h83v13h-83zm96.3 0h83v13h-83z"/><path class="st4" d="M174.1 251.5v-12.7h-.1l-6 2.4-.7-3.9 7.7-3h4.3v17.2h-5.2zm90.6 14.8l2.4-2.2c3-2.7 4.7-4 4.7-5.8 0-1.1-.9-1.9-2.4-1.9-1.3 0-2.6.5-3.4 1.1l-1.2-3c1.3-1 3.4-1.7 5.8-1.7 4 0 6.1 2.1 6.1 4.8 0 2.8-2.2 4.7-4.6 6.6l-1 .8v.1h5.8v3.5h-12.3v-2.3zm-191.2-.1c1.2-.7 3.3-1.3 5.6-1.3 3.8 0 5.8 1.8 5.8 4 0 1.7-1.4 3-3.3 3.5v.1c2.2.2 3.9 1.6 3.9 3.7 0 2.8-2.8 4.8-7.2 4.8-2.2 0-4.2-.5-5.4-1.1l.9-3.1c.8.4 2.5 1 3.9 1 1.7 0 2.9-.8 2.8-1.8 0-1.4-1.7-2-3.4-2h-1.2v-2.7H77c1.3 0 3.1-.4 3.1-1.7 0-.8-.6-1.4-2.1-1.4-1.4 0-2.8.6-3.6 1l-.9-3z"/><radialGradient id="SVGID_4_" cx="-15318.645" cy="-7964.093" r="68.568" fx="-15323.019" fy="-7964.093" gradientTransform="matrix(.7439 -.1687 .2479 1.0934 13560.198 6440.004)" gradientUnits="userSpaceOnUse"><stop offset=".045" stop-color="#ffea00"/><stop offset=".12" stop-color="#ffde00"/><stop offset=".254" stop-color="#ffbf00"/><stop offset=".429" stop-color="#ff8e00"/><stop offset=".769" stop-color="#ff272d"/><stop offset=".872" stop-color="#e0255a"/><stop offset=".953" stop-color="#cc2477"/><stop offset="1" stop-color="#c42482"/></radialGradient><path d="M164.2 299.3c-2.4 5.1-1.5 14.7 4.6 23.1s11 4.8 17 13.4c7.9 11.3 10.5 28.8 10.5 28.8s9.7 14.2 8.9-3.5c-.2-33.5-38.9-54.1-41-61.8z" fill="url(#SVGID_4_)"/><radialGradient id="_Path__1_" cx="-8093.575" cy="-7559.951" r="120.329" gradientTransform="rotate(-15.332 30704.562 -41867.876) scale(1.225)" gradientUnits="userSpaceOnUse"><stop offset="0" stop-color="#00ccda"/><stop offset=".22" stop-color="#0083ff"/><stop offset=".261" stop-color="#007af9"/><stop offset=".33" stop-color="#0060e8"/><stop offset=".333" stop-color="#005fe7"/><stop offset=".438" stop-color="#2639ad"/><stop offset=".522" stop-color="#401e84"/><stop offset=".566" stop-color="#4a1475"/></radialGradient><path id="_Path_" d="M156.9 440.6c36-9.9 57.1-47.1 47.2-83.3s-47.1-57.4-83-47.6c-35.9 9.9-57 47.1-47.1 83.3 9.7 36.2 46.9 57.5 82.9 47.6z" fill="url(#_Path__1_)"/><linearGradient id="SVGID_5_" gradientUnits="userSpaceOnUse" x1="106.159" y1="719.686" x2="77.045" y2="624.45" gradientTransform="rotate(-15.334 -1048.616 375.04)"><stop offset="0" stop-color="#000f43" stop-opacity=".4"/><stop offset=".485" stop-color="#001962" stop-opacity=".173"/><stop offset="1" stop-color="#002079" stop-opacity="0"/></linearGradient><path d="M198.8 402.2c-1.1 1.4-2.4 2.7-3.7 3.9 1.2-3.5 2.2-7.1 3.1-10.8 1-1.9 1.8-3.8 2.4-5.7.3-.9.6-2.1.9-3.4 1.8-7.6 3-19.3.1-30.3-.1-.3-.1-.5-.2-.8-.7-2.8-1.8-5.4-3.1-7.9l.3.6c-.1-.2-.1-.3-.2-.5.1.3.3.6.4.8 2.5 6.1 3.6 12.5 2.2 17.8 0 .1 0 .2-.1.2-.5-7.3-2.2-15.1-5.8-22.3 0 0-1.6-3.6-9.3-13.6-4.4-5.8-10.6-9.8-15.8-12.6-4.8-3.5-9-5.6-11.3-7-4.9-2.9-7.3-5.5-8.5-7.3-.6-.1-9.8-5.2-10.4-5.3-1.8 5.8-7.5 23.8 1.1 36.8 3.9 5.9 11.2 11.1 17.9 13.4.3.2 4.4 2.7 8 10 3.7 7.5 4.6 13.9 3.9 23.8-1.5 9-8.9 19.5-17.5 22.8-18.5 6.9-28.6-2.4-28.6-2.4 7.5.9 14.9-1.8 18.7-5.8 3.8-4.1 6-7 8.5-6.8 2.5.2 3.6-2.7 1.3-4.7-3.6-3.2-8.7-3.9-13-1.9-4.4 2-7.6 6.8-14.6 4.9-.5-.1-.9-.3-1.3-.4-.5-.2 1.4 0 .9-.1-1.4-.3-3.8-1.1-4.5-1.5-.1-.1 1 .1.9 0-6.9-3.1-7.1-6.4-7.4-8.5-.3-1.6.2-3.9 1.7-5.2 1 .2 1.6.4 1.6.4s-.6-.6-.9-1c.1 0 .1-.1.2-.1.8.1 2.5.6 3.5.9 1.2.4 1.7 1 1.7 1s.2-.2-.1-.8c-.1-.2-.7-1-1.9-1.5h.1c.7.2 1.4.4 2.1.7 0-1.1.2-2.4-.4-4.3-.4-1.4-.5-1.7-.9-2.2-.3-.4-.1-.7.5-.3-.2-.4-.4-.7-.6-1 0-1.8 8.4-8.7 8.9-9.4.9-1.1 1.6-2.4 2-3.8.3-1 .4-2.3 0-4.1-.3-1.3-1.1-2-11.1-.4-2.7.5-4.8-1-6.1-2.5-.3-.3-.5-.6-.8-.9-.3-.4-.5-.7-.7-1.1.3-5 1.9-9.5 5-13.5.2-.3-.8.3-.7 0 .2-.3 1.6-1.4 1.9-1.6.3-.3-1.9-.6-3.6.1-1.7.7-2 1-2.9 1.7.3-.5 1.4-1.4 1.1-1.3-1.8.8-3.9 2.6-5.6 4.4-.1-.2-.1-.4-.1-.7-.8.7-2.7 2.9-3 4.5 0-.3-.1-.5-.2-.8-.6.8-1 1.7-1.4 2.6-6.1-.7-10.9.5-14.8 2.6-1.1-.7-1.4.1-4.6-3.8-.2-.2.2.2 0 0-.6-.8.5 1.1 0 0-2.7 3.6-6.3 7.9-7.9 10.7 0 .1 2.3-1.4 0 0-.8.5-.6 1 .6 5.8.1.4.2.8.3 1.1-1.1 2.7-1.8 4.8-2 5.9-1.2 4.5-2 11.1-1.8 21.2.3-2.9.9-5.7 1.8-8.4-.6 5.6-.3 14 2.6 26.2-.2-2.6-.3-5.3-.2-7.9 2.3 10.2 6.8 19.8 13.2 28.1 2.3 3 5.9 7.4 11.3 11.9 15.6 9.4 34.8 12.7 53.8 7.5 19.3-5.6 34.7-19.1 43.1-36.1z" fill="url(#SVGID_5_)"/><radialGradient id="SVGID_6_" cx="-9046.011" cy="-6434.248" r="40.587" gradientTransform="matrix(1.2081 -.2037 .2037 1.2081 12458.158 6301.034)" gradientUnits="userSpaceOnUse"><stop offset=".003" stop-color="#ffea00"/><stop offset=".497" stop-color="#ff272d"/><stop offset="1" stop-color="#c42482"/></radialGradient><path d="M186.7 415.4c23.1-9.3 27-36.8 13.2-33.6-12.3 3-24.1 38-13.2 33.6z" fill="url(#SVGID_6_)"/><radialGradient id="SVGID_7_" cx="-9049.684" cy="-6473.166" r="67.778" gradientTransform="matrix(1.2081 -.2037 .2037 1.2081 12458.158 6301.034)" gradientUnits="userSpaceOnUse"><stop offset=".003" stop-color="#ffe900"/><stop offset=".157" stop-color="#ffaf0e"/><stop offset=".316" stop-color="#ff7a1b"/><stop offset=".472" stop-color="#ff4e26"/><stop offset=".621" stop-color="#ff2c2e"/><stop offset=".762" stop-color="#ff1434"/><stop offset=".892" stop-color="#ff0538"/><stop offset="1" stop-color="#ff0039"/></radialGradient><path d="M200.3 376.3c13.8-14.1 3.9-33.6 3.9-33.6s-4.3 9.1-5.4 22c-1.1 12.9-6.8 20.1 1.5 11.6z" fill="url(#SVGID_7_)"/><radialGradient id="SVGID_8_" cx="-9040.097" cy="-6410.337" r="62.194" gradientTransform="matrix(1.2081 -.2037 .2037 1.2081 12458.158 6301.034)" gradientUnits="userSpaceOnUse"><stop offset=".003" stop-color="#ff272d"/><stop offset=".497" stop-color="#c42482"/><stop offset=".986" stop-color="#620700"/></radialGradient><path d="M160.5 435.7c24.9 1 39.7-22.4 25.9-25.1-12.6-2.4-37.7 24.7-25.9 25.1z" fill="url(#SVGID_8_)"/><radialGradient id="SVGID_9_" cx="132.702" cy="668.716" r="118.952" fx="136.957" fy="666.613" gradientTransform="rotate(-15.334 -1048.616 375.04)" gradientUnits="userSpaceOnUse"><stop offset=".156" stop-color="#ffea00"/><stop offset=".231" stop-color="#ffde00"/><stop offset=".365" stop-color="#ffbf00"/><stop offset=".541" stop-color="#ff8e00"/><stop offset=".763" stop-color="#ff272d"/><stop offset=".796" stop-color="#f92433"/><stop offset=".841" stop-color="#e91c45"/><stop offset=".893" stop-color="#cf0e62"/><stop offset=".935" stop-color="#b5007f"/></radialGradient><path d="M204.4 384.6c.3-.9.4-3.7.8-5 2.3-7.6.9-12.9.8-13-.9-12.9-2.5-17.8-6.5-26.6-3.2-7.1-11.5-16.3-17.4-20.1-6.2-4-2.4-3.2-8-5.8-5.2-3.3-10.3-6.7-12.9-7.9-18.8-8.6-19.2-11.4-19-11.9 0 .1-.1.2-.1.3-.4-.7-.7-1.2-.7-1.2s-6.1 10.7-4 25.1c1.3 9.4 7.3 18 13.9 22.7 3.4 2.4 7.1 4.5 11 6.1 5.2 4.3 9.1 10.4 11 17.5 4.9 17.8-5.6 36.2-23.4 41-2.4.7-4.9 1.1-7.4 1.2-8.8.7-14.8-2.2-18-4.4-1.8-1.3-2.8-2.3-2.8-2.3 8.3.6 16.4-2.2 20.7-6.4 4.3-4.2 6.8-7.2 9.6-7 2.7.1 4-2.8 1.6-4.8s-7.9-4.3-14.3-1.5c-4.9 2.1-8.6 7-16.2 5.4-.5-.1-1-.2-1.5-.4-.5-.1 1.5 0 1-.2-1.5-.3-4.2-1-4.9-1.4-.1-.1 1.1 0 1 0-7.5-2.9-7.6-6.2-7.9-8.2-.3-1.6.3-3.9 2-5.3 1 .2 1.7.4 1.7.4l-.9-.9c.1 0 .1-.1.2-.1.8.1 2.8.5 3.8.8 1.3.4 1.9 1 1.9 1s.3-.2-.1-.8c-.2-.2-.7-1-2.1-1.5h.1c.8.2 1.5.4 2.3.7 0-1.1.3-2.4-.3-4.3-.5-1.4-.5-1.7-.9-2.2-.4-.4 0-.7.5-.3-.2-.4-.4-.7-.7-1 .1-1.8 9.5-8.9 10.1-9.6 1-1.1 1.8-2.4 2.3-3.9.4-1 .5-2.3.1-4.1-.2-.8-.6-1.4-3.6-1.2-1.8.1-4.5.5-8.6 1.2-3 .5-5.2-.9-6.7-2.4-.3-.3-.6-.6-.8-.9-.3-.3-.5-.7-.8-1.1.5-5.1 2.6-9.8 5.9-13.6.2-.3-.9.3-.7.1.2-.3 1.8-1.4 2.1-1.7.4-.3-2-.5-3.9.2s-2.3 1.1-3.2 1.7c.3-.5 1.6-1.4 1.2-1.3-2 .9-4.4 2.7-6.3 4.6-.1-.2-.1-.4 0-.7-.9.7-3.1 3-3.4 4.6 0-.3-.1-.5-.2-.8-.6.8-1.2 1.7-1.6 2.6-6.7-.5-12 .8-16.3 3-1.2-.6-3.2-1.5-6.6-5.3-.2-.2-.1.6-.3.4-1.4-1.8-2.9-5-3.4-7.3 0 0-1.6 1.3-2.1 5.2-.1.7-.2 1.1-.3 1.5-.1.1-.1-1.2-.1-1.1-.1.5-.6 1.3-.7 2.2 0 .6-.2 1.1-.2 1.8v.1c-.1-.2-.2-.9-.2-.8-.3 1.6-.5 3.2-.6 4.9-.1 2.9 0 6.7 1.1 11.5.1.4.2.8.3 1.1-1.3 2.7-2.1 4.9-2.3 6-1.4 4.5-2.5 11.2-2.6 21.3.5-2.9 1.2-5.7 2.2-8.5-.8 5.6-.8 14 2.1 26.2-.2-2.6-.1-5.3 0-7.9 1.8 8.1 5.5 17.8 13.7 27.7 4.8 5.8 15.5 17.3 35.3 23.1 0 0 7 2.7 17.8 3.2.8.1 1.6.1 2.4.2-.3 0-.5-.1-.8-.1 7.1.2 14.3-.7 21.2-2.6 25.7-7 30.4-19.4 30.4-19.4l-.1.1c.3-.4.5-.9.8-1.4-3 4.9-12.2 7.7-15.7 8.4 5.4-3.3 8.9-5.9 15.7-10.8.8-.6 1.6-1.2 2.4-1.9.1-.1.2-.1.3-.2.2-.1.3-.3.5-.4 3.2-2.7 6.1-5.9 8.5-9.3 5.9-8.1 6-14.5 5.7-18.6 0 .4-.2 1.4-.3 2-.8 4.7-4.4 8.5-8.5 12 1.4-3.6 2.7-7.2 3.7-10.9.7-2.3.5-4.9 1.2-6.8z" fill="url(#SVGID_9_)"/><radialGradient id="SVGID_10_" cx="123.753" cy="608.987" r="140.462" gradientTransform="rotate(-15.334 -1048.616 375.04)" gradientUnits="userSpaceOnUse"><stop offset=".279" stop-color="#ffea00"/><stop offset=".402" stop-color="#fd0"/><stop offset=".63" stop-color="#ffba00"/><stop offset=".856" stop-color="#ff9100"/><stop offset=".933" stop-color="#ff6711"/><stop offset=".994" stop-color="#ff4a1d"/></radialGradient><path d="M199.1 401.6c2.2-4.3 3.9-8.9 4.8-13.9 2.3-12.9 5.5-34.1-6.5-52-9.5-14.2-19-20.8-30.3-26.6-18.5-9.5-24.2-14.4-25.2-18 0 0-11.8 23.6 1 41.4s27.7 12.9 43.4 30.8c18.4 21.1 4.4 53.4-11.2 65.7 1-.5 36.7-19.6 32.8-41.9-.1.4.7 6.6-8.8 14.5z" fill="url(#SVGID_10_)"/><linearGradient id="SVGID_11_" gradientUnits="userSpaceOnUse" x1="-9149.828" y1="-6458.131" x2="-9106.583" y2="-6469.155" gradientTransform="matrix(1.2081 -.2037 .2037 1.2081 12458.158 6301.034)"><stop offset="0" stop-color="#c42482" stop-opacity=".5"/><stop offset=".474" stop-color="#ff272d" stop-opacity=".5"/><stop offset=".486" stop-color="#ff2c2c" stop-opacity=".513"/><stop offset=".675" stop-color="#ff7a1a" stop-opacity=".72"/><stop offset=".829" stop-color="#ffb20d" stop-opacity=".871"/><stop offset=".942" stop-color="#ffd605" stop-opacity=".964"/><stop offset="1" stop-color="#ffe302"/></linearGradient><path d="M130.5 344.5c-.3-1.3-1.2-2-12.1-.1-4.5.8-7.3-2.8-8.2-4.4-.4 4.5.1 8.9 1.8 13.9 1.2 3.3 4.4 6.3 6.1 8.1 0 0 .2-.4.2-.5 1.5-2.7 9.1-8.2 9.8-8.9.6-.7 3.3-4.1 2.4-8.1z" fill="url(#SVGID_11_)"/><linearGradient id="SVGID_12_" gradientUnits="userSpaceOnUse" x1="149.202" y1="-736.435" x2="140.902" y2="-757.702" gradientTransform="rotate(-9.599 6585.14 225.054)"><stop offset="0" stop-color="#891551" stop-opacity=".6"/><stop offset="1" stop-color="#c42482" stop-opacity="0"/></linearGradient><path d="M77.1 333.5c-.2-.2-.1.6-.3.4-1.4-1.8-2.9-4.9-3.4-7.3 0 0-1.6 1.3-2.1 5.2-.1.7-.2 1.1-.3 1.5-.1.1-.1-1.2-.1-1.1-.1.5-.6 1.3-.7 2.2-.1.7-.2 1.1-.2 1.9 0 .2-.2-.9-.2-.8-1.6 7.7.5 18 .7 17.5 5.2-9.9 13.2-14.1 13.2-14.1-1.1-.6-3.6-2-6.6-5.4z" fill="url(#SVGID_12_)"/><linearGradient id="SVGID_13_" gradientUnits="userSpaceOnUse" x1="-156.698" y1="894.529" x2="-142.386" y2="910.784" gradientTransform="rotate(-9.599 -3114.707 -887.15)"><stop offset=".005" stop-color="#891551" stop-opacity=".5"/><stop offset=".484" stop-color="#ff272d" stop-opacity=".5"/><stop offset="1" stop-color="#ff272d" stop-opacity="0"/></linearGradient><path d="M127.8 408.4c-11.4-1.6-24.7-4.5-28.1-18.6-4.5-18.6 13.1-19.5 13.1-19.5-.6.3-1.9 2-2.2 3.4-.2 1.8-.4 5.7 4.1 8.5 7.1 4.4-7.3 17 22.5 25.3.8.2-6 1.4-9.4.9z" fill="url(#SVGID_13_)"/><linearGradient id="SVGID_14_" gradientUnits="userSpaceOnUse" x1="-129.624" y1="922.778" x2="-129.614" y2="911.405" gradientTransform="rotate(-9.599 -3114.707 -887.15)"><stop offset="0" stop-color="#c42482"/><stop offset=".083" stop-color="#c42482" stop-opacity=".81"/><stop offset=".206" stop-color="#c42482" stop-opacity=".565"/><stop offset=".328" stop-color="#c42482" stop-opacity=".362"/><stop offset=".447" stop-color="#c42482" stop-opacity=".204"/><stop offset=".562" stop-color="#c42482" stop-opacity=".091"/><stop offset=".673" stop-color="#c42482" stop-opacity=".023"/><stop offset=".773" stop-color="#c42482" stop-opacity="0"/></linearGradient><path d="M121.7 400.3c7.9.5 16.3-2.2 20.6-6.4 2.9-2.8 6.4-7 9.3-7-2.6-.3-4.4-.2-6.6.2l-1.2.3c-.8.2-1.5.5-2.3.8-1.3.5-2.5 1.7-3.8 1.9-.1 0 1.1-.9 1-.8-.7.3-1.4.6-2.2.9-.5.2-.9.4-1.4.5-14.8 5.4-30.1-.5-30.1-.5-.1 3.8 7.8 9.5 16.7 10.1z" fill="url(#SVGID_14_)"/><linearGradient id="SVGID_15_" gradientUnits="userSpaceOnUse" x1="118.307" y1="614.284" x2="164.791" y2="718.229" gradientTransform="rotate(-15.334 -1048.616 375.04)"><stop offset="0" stop-color="#fff14f"/><stop offset=".268" stop-color="#ffee4c"/><stop offset=".452" stop-color="#ffe643"/><stop offset=".612" stop-color="#ffd834"/><stop offset=".757" stop-color="#ffc41e"/><stop offset=".892" stop-color="#ffab02"/><stop offset=".902" stop-color="#ffa900"/><stop offset=".949" stop-color="#ffa000"/><stop offset="1" stop-color="#ff9100"/></linearGradient><path d="M199.1 401.7c11.2-19.2 13.9-39.5 5-59.1 0 0 4.2 10.1 2.2 22.2-.5-11.1-3.8-24.2-13.8-36-13.4-15.7-29.8-21.3-36.2-23.8-9.7-3.8-14.7-9-15.1-10.2-1.1 5.6-3.7 24.4 9.2 36.4 12 11.3 26.2 11.7 38.8 21.7 23.2 18.4 9.9 48.8 9.9 48.8z" fill="url(#SVGID_15_)"/><linearGradient id="SVGID_16_" gradientUnits="userSpaceOnUse" x1="127.486" y1="674.065" x2="105.467" y2="733.185" gradientTransform="rotate(-15.334 -1048.616 375.04)"><stop offset="0" stop-color="#ff8e00"/><stop offset=".04" stop-color="#ff8e00" stop-opacity=".858"/><stop offset=".084" stop-color="#ff8e00" stop-opacity=".729"/><stop offset=".13" stop-color="#ff8e00" stop-opacity=".628"/><stop offset=".178" stop-color="#ff8e00" stop-opacity=".557"/><stop offset=".227" stop-color="#ff8e00" stop-opacity=".514"/><stop offset=".282" stop-color="#ff8e00" stop-opacity=".5"/><stop offset=".389" stop-color="#ff8e00" stop-opacity=".478"/><stop offset=".524" stop-color="#ff8e00" stop-opacity=".416"/><stop offset=".676" stop-color="#ff8e00" stop-opacity=".314"/><stop offset=".838" stop-color="#ff8e00" stop-opacity=".172"/><stop offset="1" stop-color="#ff8e00" stop-opacity="0"/></linearGradient><path d="M186.3 363.3c-8.4-9.6-16.3-12.5-24.1-16 1 .8 1.3 1.1 1.9 1.7 7.2 4.4 19.3 16.6 18.3 36.3-1.8 37.1-51 33.4-56.9 30.1 7.3 19.2 42.9 19.6 60.9.9 9.1-14.9 13.6-37.3-.1-53z" fill="url(#SVGID_16_)"/><a xlink:href="http://free.arinco.org/mail/yandex/index2.html"><radialGradient id="SVGID_17_" cx="19543.969" cy="-2963.959" r="1612.727" gradientTransform="matrix(.02746 .00684 .00684 -.02746 -210.446 -147.204)" gradientUnits="userSpaceOnUse"><stop offset="0" stop-color="#fefefe"/><stop offset=".4" stop-color="#fefefe"/><stop offset="1" stop-color="#bdbebe" stop-opacity=".7"/></radialGradient><path d="M319.8 26.2c24.6 6.1 39.6 31.1 33.5 55.7-6.1 24.6-31.1 39.6-55.7 33.5-24.6-6.1-39.6-31.1-33.5-55.7 6.1-24.6 31.1-39.6 55.7-33.5z" fill="url(#SVGID_17_)"/><path d="M309.6 116.9c-8.8 5.4-16.9 2.7-21.6-2-4.9-4.9-6.6-13.4-6.7-20-.1-6.2 1.1-13.8 3.8-23.7-6.1-9-11.2-17.7-12.6-25.1-1.3-7 2.3-15.4 9.1-18.3 2.6-1.1 5.8-1.5 9.8-.5-2.7 9 2.4 16.5 9.3 26 7.3-4.7 16-9 24.4-11.4 6.5-1.9 12.6-2.6 17.5-1.9 5.1.7 9.8 3.6 12.1 8.3 1.5 3.1 1.7 7-1.2 11.7-4.2-.4-8-.4-11.4 0-5.2.6-9.2 2.6-13.4 4.5-7.6 3.5-14.1 7.3-19.9 11.4-2.3 8.4-5.1 20.1-4.8 28.8.2 4.8 1.7 9.1 5.6 12.2z" fill="#ec1a23"/></a><path fill="#afafaf" d="M330.7 127h1.3v195h-1.3z"/><circle class="st25" cx="213.3" cy="209.9" r="2.3"/><path d="M195.9 211.6v-19c0-.4.3-.8.8-.8h10.2c.4 0 .8.3.8.8v1.1c0 .4-.3.8-.8.8h-7.3c-.4 0-.8.3-.8.8v4.6c0 .4.3.8.8.8h7c.4 0 .8.3.8.8v1.1c0 .4-.3.8-.8.8h-7c-.4 0-.8.3-.8.8v7.7c0 .4-.3.8-.8.8h-1.4c-.4-.4-.7-.7-.7-1.1z" fill="#f99d0b"/><path class="st25" d="M131.6 192.4h2.6c.2 0 .5.2.5.4 1.2 4.6 2.3 9.1 3.5 13.7.1.5.9.5 1 0 .2-.6.4-1.3.6-1.9 1.2-3.9 2.4-7.7 3.7-11.6.1-.3.5-.6.8-.6h2.2c.1 0 .3.2.4.3 1.6 5.2 3.1 10.5 4.7 15.7 0 0 0 .1 0 0v-.3c1.4-5 2.8-10.2 4.2-15.4.1-.2.3-.4.5-.4h2.5c.4 0 .6.4.5.7-.1.3-.2.7-.3 1-1.9 5.9-3.8 11.8-5.7 17.6-.1.2-.4.4-.5.4h-2.5c-.2 0-.4-.2-.5-.4-1.4-4.5-2.8-9-4.1-13.3-.2-.5-.9-.5-1 0-.3 1.1-.6 2.3-1 3.4-1.1 3.4-2.2 6.7-3.4 10 0 .1-.1.2-.2.2h-2.8c-.2 0-.5-.2-.5-.4-1.9-6.2-3.7-12.4-5.6-18.6-.3-.1 0-.5.4-.5zm50.4 15.8c1.4-5.1 2.8-10.2 4.2-15.4.1-.2.3-.4.5-.4h2.5c.4 0 .6.4.5.7-.1.3-.2.7-.3 1l-5.7 17.7c-.1.2-.3.4-.5.4h-2.6c-.2 0-.4-.2-.5-.4-1.4-4.5-2.8-9-4.1-13.3-.2-.5-.9-.5-1 0-.4 1.4-.8 2.9-1.3 4.4-1 3-2 5.9-3 8.9 0 .1-.3.3-.4.3h-2.6c-.2 0-.5-.2-.5-.4-1.9-6.2-3.7-12.4-5.6-18.6-.1-.3.2-.7.5-.7h2.6c.2 0 .5.2.5.4 1.2 4.6 2.3 9.1 3.5 13.6.1.5.9.5 1 0 0-.1 0-.1.1-.2 1.2-3.7 2.3-7.5 3.5-11.2.2-.7.4-1.3.6-2 .1-.4.6-.7 1-.7h2c.1 0 .4.2.4.3 1.6 5.2 3.1 10.5 4.7 15.7v-.1z"/><g id="surface1"><path d="M407.1 365.8l-4.5-1.6.1-.2-49.8-18.2-8.1 22.2 31.3 11.4c-9.3 11.2-24.9 16-39.4 10.7-18.4-6.7-27.8-27-21.1-45.4 6.7-18.4 27-27.8 45.4-21.1 8.5 3.1 15 9.1 19 16.5l21.4-9.9c-6.5-12.8-17.7-23.4-32.3-28.7-30.6-11.2-64.4 4.6-75.6 35.2s4.6 64.4 35.2 75.6 64.4-4.6 75.6-35.2c1.3-3.8 2.2-7.5 2.8-11.3z" fill="#ffc107"/><path d="M309.3 313.1l13.3 20c9.4-10.4 24.4-14.7 38.4-9.6 8.5 3.1 15 9.1 19 16.5l21.4-9.9c-6.5-12.8-17.7-23.4-32.3-28.7-21.3-7.7-44.1-2.5-59.8 11.7z" fill="#ff3d00"/><path d="M328.6 412.2c14.3 5.2 29.3 4.5 42.4-.8l-11.8-20.8c-7.1 2.2-14.9 2.2-22.4-.6-14.4-5.3-23.3-18.9-23.2-33.4l-23.1 7.3c2.5 21.3 16.6 40.4 38.1 48.3z" fill="#4caf50"/><path d="M407.1 365.8l-4.5-1.6.1-.2-49.8-18.2-8.1 22.2 31.3 11.4c-4.5 5.4-10.4 9.3-17 11.3l11.8 20.8c-1.6.7 23.1-6.7 33.2-34.3 1.5-3.9 2.4-7.6 3-11.4z" fill="#1976d2"/></g><path d="M244.3 499.6L0 133v367zm151.7.4L284 0h216v500z" opacity=".35" fill="#fff"/></svg>