<svg id="Слой_1" xmlns="http://www.w3.org/2000/svg" viewBox="0 0 500 499.507"><style>.st10{fill-rule:evenodd;clip-rule:evenodd}.st10,.st11{fill:#fff}</style><path fill="#f7f7f7" d="M0 0h500v500H0z"/><linearGradient id="SVGID_1_" gradientUnits="userSpaceOnUse" x1="140.224" y1="686.025" x2="506.748" y2="1053.358" gradientTransform="translate(0 -578)"><stop offset="0" stop-opacity=".3"/><stop offset="1" stop-opacity="0"/></linearGradient><path d="M403.681 67.73L300.365 90.341l-63.012-48.718L180.7 113.44l59.308 48.877-28.424 7.825-29.236-25.9-58.97 83.534 55.013 45.254-65.981 118.55 103.882 107.928H500V153.35l-96.319-85.62z" fill="url(#SVGID_1_)"/><linearGradient id="SVGID_2_" gradientUnits="userSpaceOnUse" x1="282.995" y1="393.918" x2="402.219" y2="331.929"><stop offset=".135" stop-color="#f0db23"/><stop offset=".5" stop-color="#e9304b"/><stop offset=".853" stop-color="#994bb9"/></linearGradient><path d="M318.428 426.527l.061.022c34.822 12.756 73.392-5.132 86.148-39.954l.011-.03c12.763-34.84-5.134-73.428-39.973-86.19-34.84-12.763-73.428 5.134-86.19 39.973l-.011.03c-12.756 34.823 5.132 73.393 39.954 86.149z" fill="url(#SVGID_2_)"/><path d="M167.134 235.028l.048-.014c27.088-7.933 42.617-36.323 34.684-63.411l-.007-.025c-7.937-27.101-36.341-42.637-63.443-34.7-27.101 7.936-42.637 36.34-34.7 63.442l.006.024c7.933 27.089 36.324 42.617 63.412 34.684z" fill="#414f91"/><path d="M325.649 176.562l.056.033c31.817 19.052 73.055 8.703 92.106-23.114l.017-.028c19.06-31.833 8.707-73.09-23.125-92.15v-.001c-31.833-19.06-73.09-8.707-92.151 23.125l-.017.029c-19.052 31.817-8.703 73.054 23.114 92.106z" fill="#4aa2d7"/><path d="M338.587 244.213l.041.01c23.328 5.775 46.921-8.455 52.696-31.783 5.778-23.34-8.459-46.945-31.799-52.722-23.34-5.778-46.944 8.459-52.722 31.799-5.774 23.328 8.455 46.921 31.784 52.696z" fill="#f0931d"/><path d="M249.956 339.493h.088c49.401 0 89.449-40.048 89.449-89.45V250c0-49.426-40.067-89.493-89.493-89.493-49.426 0-89.493 40.067-89.493 89.493v.044c0 49.4 40.048 89.449 89.45 89.449z" fill="#455c81"/><path d="M218.551 123.705l.044-.008c24.867-4.48 41.394-28.27 36.915-53.137l-.004-.022c-4.482-24.879-28.283-41.414-53.162-36.932-24.88 4.482-41.415 28.283-36.933 53.162l.004.022c4.48 24.867 28.27 41.394 53.136 36.915z" fill="#c91516"/><path d="M247.884 364.54c-30.459 0-55.15 24.693-55.15 55.152 0 30.445 24.68 55.125 55.124 55.125h.053c30.445 0 55.125-24.68 55.125-55.125 0-30.46-24.692-55.151-55.152-55.151z" fill="#7d519e"/><path d="M147.467 279.874c-36.397 7.204-60.063 42.55-52.86 78.946 7.201 36.38 42.53 60.034 78.908 52.834l.065-.013c36.379-7.2 60.033-42.529 52.833-78.908-7.204-36.397-42.55-60.063-78.946-52.859z" fill="#27aed6"/><path id="vk_x5F_alt_3_" class="st10" d="M246.667 285.235h6.784s2.049-.225 3.096-1.353c.963-1.036.932-2.98.932-2.98s-.132-9.102 4.092-10.444c4.166-1.32 9.514 8.798 15.182 12.69 4.287 2.944 7.544 2.3 7.544 2.3l15.158-.213s7.93-.49 4.17-6.722c-.31-.51-2.191-4.612-11.272-13.041-9.505-8.821-8.23-7.395 3.218-22.654 6.973-9.294 9.76-14.966 8.889-17.396-.83-2.315-5.959-1.704-5.959-1.704l-17.066.106s-1.266-.172-2.204.389c-.917.55-1.506 1.831-1.506 1.831s-2.702 7.191-6.303 13.307c-7.6 12.904-10.64 13.587-11.881 12.785-2.89-1.869-2.168-7.501-2.168-11.505 0-12.507 1.897-17.721-3.694-19.071-1.855-.448-3.221-.743-7.966-.792-6.09-.062-11.243.019-14.162 1.45-1.94.95-3.44 3.068-2.526 3.19 1.128.15 3.681.689 5.036 2.532 1.75 2.38 1.688 7.723 1.688 7.723s1.005 14.721-2.347 16.55c-2.3 1.254-5.456-1.306-12.231-13.015-3.471-5.996-6.092-12.625-6.092-12.625s-.506-1.239-1.407-1.902c-1.093-.804-2.622-1.058-2.622-1.058l-16.218.105s-2.434.068-3.328 1.128c-.796.941-.064 2.888-.064 2.888s12.696 29.706 27.073 44.676c13.185 13.726 28.154 12.825 28.154 12.825z"/><path id="facebook_3_" class="st11" d="M166.524 215.741l-7.965-27.199 9.13-2.673-1.738-11.001-10.496 3.074-1.982-6.767c-.899-3.07-.66-5.41 3.741-6.7l5.613-1.646-2.776-9.48c-1.009.155-4.426.842-8.302 1.978-8.093 2.37-12.187 8.932-9.53 18.004l2.29 7.817-9.154 2.68 3.105 10.6 9.153-2.68 7.965 27.199 10.946-3.206z"/><path id="twitter_3_" class="st11" d="M405.266 120.073a30.306 30.306 0 0 1-8.695-2.424 15.202 15.202 0 0 0 10.026-3.771 30.324 30.324 0 0 1-10.147-1.789 15.136 15.136 0 0 0-7.033-9.79c-7.182-4.3-16.49-1.964-20.79 5.217a15.2 15.2 0 0 0-1.438 3.165c-10.484-7.013-16.965-17.928-18.668-29.636a15.079 15.079 0 0 0-5.675 5.483 15.15 15.15 0 0 0-.696 14.288 15.081 15.081 0 0 1-4.916-5.154l-.1.164c-3.772 6.3-2.437 14.24 2.797 18.997a15.177 15.177 0 0 1-6.007-3.294c-1.438 6.157 1.113 12.793 6.74 16.304a30.405 30.405 0 0 1-19.483-4.102 30.693 30.693 0 0 1-2.993-2.04 42.891 42.891 0 0 0 16.435 17.779c23.92 14.322 48.865 2.338 59.154-14.845.338-.564.66-1.132.97-1.705a30.802 30.802 0 0 0 10.52-2.847z"/><g id="instagram_3_"><path class="st11" d="M351.281 336.937c8.638 3.164 9.649 3.571 13.003 4.977 3.1 1.299 4.62 2.453 5.598 3.314 1.295 1.14 2.116 2.235 2.833 3.782.718 1.547 1.024 2.881 1.058 4.606.025 1.302-.075 3.208-1.087 6.414-1.094 3.468-1.436 4.504-4.6 13.14-3.164 8.638-3.571 9.65-4.977 13.003-1.299 3.101-2.453 4.621-3.314 5.599-1.14 1.295-2.235 2.115-3.782 2.833-1.547.717-2.881 1.023-4.606 1.057-1.302.025-3.208-.075-6.414-1.087-3.468-1.093-4.503-1.435-13.14-4.6-8.639-3.164-9.65-3.571-13.003-4.976-3.101-1.3-4.621-2.454-5.599-3.314-1.295-1.14-2.115-2.236-2.833-3.783-.717-1.546-1.023-2.88-1.057-4.605-.025-1.303.075-3.208 1.086-6.415 1.094-3.468 1.436-4.503 4.6-13.14 3.164-8.638 3.572-9.649 4.977-13.003 1.3-3.1 2.454-4.62 3.314-5.598 1.14-1.295 2.236-2.116 3.783-2.833 1.546-.718 2.88-1.024 4.605-1.058 1.303-.025 3.208.076 6.415 1.087 3.468 1.094 4.503 1.436 13.14 4.6m2.136-5.829c-8.786-3.218-9.9-3.584-13.409-4.69-3.5-1.105-6.052-1.42-8.403-1.374-2.43.048-4.639.493-7.096 1.633-2.457 1.14-4.224 2.538-5.83 4.362-1.553 1.765-2.962 3.916-4.38 7.302-1.421 3.392-1.862 4.48-5.08 13.265-3.218 8.786-3.585 9.9-4.691 13.409-1.104 3.5-1.419 6.052-1.373 8.403.047 2.43.493 4.639 1.632 7.096 1.14 2.457 2.539 4.224 4.363 5.83 1.765 1.553 3.916 2.962 7.301 4.38 3.393 1.421 4.48 1.862 13.266 5.08s9.9 3.585 13.408 4.691c3.501 1.104 6.053 1.419 8.403 1.373 2.43-.047 4.64-.493 7.097-1.632s4.224-2.539 5.83-4.363c1.553-1.765 2.961-3.916 4.38-7.301 1.42-3.393 1.862-4.48 5.08-13.266 3.218-8.785 3.584-9.9 4.69-13.408 1.105-3.501 1.42-6.053 1.374-8.403-.048-2.43-.493-4.64-1.633-7.097-1.14-2.457-2.538-4.224-4.362-5.83-1.765-1.553-3.916-2.961-7.302-4.38-3.392-1.42-4.48-1.862-13.265-5.08z"/><path class="st11" d="M347.652 346.845c-9.174-3.36-19.336 1.352-22.696 10.526-3.361 9.174 1.352 19.336 10.526 22.696s19.335-1.352 22.696-10.526c3.36-9.174-1.352-19.335-10.526-22.696zm-10.035 27.394c-5.955-2.182-9.014-8.778-6.833-14.733 2.182-5.955 8.778-9.014 14.733-6.833 5.955 2.182 9.014 8.778 6.832 14.733s-8.777 9.014-14.732 6.833z"/><circle class="st11" cx="365.16" cy="352.514" r="4.134"/></g><g id="youtube_3_"><path class="st11" d="M224.705 84.294c-.82.148-1.118.848-.892 2.102l.226 1.254 2.455-.442-.226-1.255c-.226-1.253-.75-1.806-1.563-1.66z"/><path class="st11" d="M229.47 76.32c-.887-2.072-2.943-3.347-5.113-3.202-5.142.345-10.243 1.262-15.321 2.18-5.08.912-10.182 1.833-15.12 3.304-2.085.621-3.565 2.534-3.673 4.785-.153 3.206.444 6.567 1.015 9.737s1.176 6.53 2.438 9.481c.887 2.073 2.941 3.348 5.113 3.202 5.14-.345 10.243-1.261 15.321-2.179 5.08-.912 10.18-1.834 15.12-3.304 2.084-.621 3.565-2.534 3.673-4.785.153-3.206-.447-6.567-1.018-9.737-.572-3.17-1.173-6.53-2.435-9.482zm-27.85 7.877l-2.943.53 2.816 15.632-2.732.492-2.816-15.632-2.89.52-.46-2.56 8.563-1.543.461 2.56zm10.237 14.295l-2.458.443-.266-1.479c-.775 1.296-1.604 2.009-2.507 2.171-.792.143-1.394-.08-1.764-.723-.209-.386-.407-1.02-.58-1.977l-1.93-10.719 2.455-.442 1.797 9.98c.104.576.158.876.196.952.128.37.35.53.678.47.493-.088.94-.56 1.346-1.428l-1.867-10.362 2.458-.442 2.442 13.556zm8.599-5.75c.225 1.254.304 2.173.244 2.777-.146 1.067-.71 1.7-1.689 1.877-.873.157-1.805-.176-2.809-1.043l.237 1.314-2.456.442-3.277-18.193 2.456-.443 1.07 5.942c.617-1.119 1.37-1.764 2.274-1.927.978-.176 1.728.22 2.239 1.176.262.516.507 1.397.738 2.681l.973 5.398zm8.863-3.931l-4.912.885.433 2.403c.226 1.254.75 1.807 1.593 1.655.605-.109.898-.5.92-1.183-.002-.138-.069-.689-.246-1.674l2.506-.452.065.36c.142.79.21 1.341.233 1.59a3.55 3.55 0 0 1-.31 1.576c-.501 1.106-1.422 1.774-2.705 2.005-1.285.231-2.346-.055-3.223-.853-.644-.585-1.104-1.606-1.364-3.046l-.855-4.748c-.261-1.449-.214-2.551.184-3.33.543-1.057 1.438-1.695 2.692-1.92 1.232-.222 2.292.063 3.148.867.637.593 1.074 1.609 1.335 3.058l.506 2.807z"/><path class="st11" d="M215.59 85.936c-.404.072-.78.339-1.117.817l1.489 8.263c.484.337.929.457 1.333.384.709-.127.96-.797.74-2.022l-1.043-5.785c-.22-1.223-.693-1.785-1.402-1.657z"/><path class="st10" d="M201.022 55.23l-2.782.502-.576 7.553-3.253-6.864-2.895.522c.886 1.598 1.799 3.202 2.686 4.802 1.344 2.403 2.242 4.236 2.728 5.51l1.34 7.441 2.753-.496-1.34-7.44 1.34-11.53zm9.865 12.618l-.864-4.797c-.263-1.463-.706-2.488-1.35-3.087-.856-.811-1.904-1.106-3.148-.882-1.236.223-2.118.865-2.636 1.924-.403.787-.46 1.902-.196 3.366l.864 4.796c.262 1.454.706 2.489 1.357 3.08.854.81 1.905 1.104 3.141.882 1.244-.224 2.124-.866 2.643-1.924.395-.78.451-1.904.19-3.358zm-2.397.913c.228 1.267-.041 1.97-.84 2.114-.801.144-1.3-.42-1.528-1.687l-1.038-5.761c-.228-1.267.043-1.966.843-2.11.8-.145 1.297.416 1.525 1.683l1.038 5.761zm12.372 1.865l-2.466-13.691-2.482.447 1.885 10.465c-.41.876-.862 1.355-1.358 1.444-.333.06-.562-.101-.686-.476-.044-.075-.099-.377-.204-.96l-1.816-10.08-2.474.445 1.95 10.827c.175.966.376 1.607.588 1.996.372.65.982.875 1.781.731.905-.163 1.748-.883 2.53-2.194l.27 1.494 2.482-.448z"/></g><path class="st11" d="M348.592 203.169c6.554 1.622 13.2-2.387 14.822-8.937 1.622-6.553-2.386-13.2-8.94-14.823-6.552-1.622-13.2 2.388-14.822 8.941-1.622 6.55 2.388 13.197 8.94 14.819zm4.159-16.797a5.073 5.073 0 0 1 3.701 6.137 5.073 5.073 0 0 1-6.137 3.7 5.075 5.075 0 0 1-3.702-6.136 5.075 5.075 0 0 1 6.138-3.701zM351 214.051a22.929 22.929 0 0 0 7.607-1.15 3.587 3.587 0 0 0 2.28-4.53 3.584 3.584 0 0 0-4.53-2.282c-5.624 1.856-11.89.303-15.996-3.96a3.581 3.581 0 0 0-5.07-.093 3.586 3.586 0 0 0-.098 5.07 22.963 22.963 0 0 0 6.192 4.565l-8.287 4.998a3.587 3.587 0 0 0 3.707 6.141l8.14-4.912 4.914 8.144a3.584 3.584 0 0 0 4.92 1.218 3.583 3.583 0 0 0 1.22-4.922L351 214.05z" id="ok_3_"/><path id="viber_3_" class="st11" d="M267.702 397.852c-2.132-1.821-4.632-2.921-7.317-3.623-6.745-1.764-13.583-2.204-20.49-1.267-3.502.476-6.885 1.401-9.998 3.147-3.655 2.05-6.17 5.005-7.282 9.103-.793 2.921-1.177 5.897-1.328 8.91-.222 4.444-.078 8.86 1.06 13.197 1.316 5.018 4.179 8.714 9.084 10.681.535.215 1.037.51 1.57.731.491.205.642.53.638 1.062-.024 3.47-.012 6.94-.012 10.566 1.288-1.243 2.177-2.157 2.824-2.889 1.932-2.183 3.76-4 5.773-6.077 1.021-1.052.592-1.001 2.176-.975 1.863.03 4.79.103 6.643-.042 3.533-.276 7.038-.726 10.447-1.75 4.33-1.3 7.798-3.618 9.558-7.997.468-1.163.916-2.33 1.211-3.548 1.691-6.968 1.465-13.949.052-20.92-.657-3.238-2.041-6.116-4.61-8.31zm-21.521 4.225c.037-.672.42-.93 1.053-.9 5.377.257 9.425 1.855 12.537 6.045 1.825 2.456 2.81 5.772 2.908 8.852 0 .458.02.916-.005 1.372-.028.51-.251.899-.824.905-.579.006-.862-.308-.901-.895-.151-2.27-.59-4.48-1.458-6.592-1.68-4.089-4.9-6.292-9.039-7.356-1.094-.281-2.2-.513-3.332-.604-.51-.042-.976-.15-.939-.827zm5.425 5.71c-1.093-.383-2.201-.69-3.35-.857-.557-.081-.954-.376-.852-1.027.097-.613.498-.856 1.086-.8 3.752.356 6.684 1.722 8.702 4.973.944 1.52 1.499 3.673 1.416 5.288-.06 1.145-.234 1.44-.888 1.423-.953-.026-.813-.81-.885-1.386a18.02 18.02 0 0 0-.546-2.61c-.695-2.478-2.247-4.151-4.683-5.004zm3.176 6.328c-.036.318-.039.538-.089.746-.1.418-.356.67-.812.678-.461.008-.71-.266-.831-.664-.083-.274-.105-.566-.16-.85-.292-1.512-1.156-2.502-2.659-2.906-.185-.05-.376-.076-.561-.127-.474-.132-1.065-.142-1.085-.836-.016-.574.421-.916 1.21-.965.536-.032 1.366.232 1.847.466 1.975.963 2.897 2.318 3.14 4.458zm7.9 15.935c-1.042 2.36-2.826 3.918-5.32 4.623-.904.256-1.782.036-2.608-.315-11.377-4.843-19.599-12.835-24.254-24.37-.336-.832-.532-1.7-.501-2.493.006-2.97 2.612-5.717 5.468-5.875.79-.043 1.473.225 2.042.758a21.652 21.652 0 0 1 4.803 6.548c.64 1.347.372 2.298-.78 3.263-.184.154-.384.29-.578.433-1.53 1.119-1.872 2.262-1.14 4.026 1.2 2.893 3.153 5.163 5.788 6.843.995.635 2.012 1.236 3.158 1.57 1.05.306 1.892-.021 2.566-.85.076-.094.146-.192.217-.29 1.467-2.03 3.037-2.383 5.163-1.063 1.824 1.131 3.541 2.422 5.174 3.815 1.104.943 1.387 2.053.802 3.377z"/><path id="telegram_3_" class="st11" d="M182.725 313.33l-57.903 36.09c-3.228 1.667-2.45 5.027.243 5.339l16.653 1.79 9.643 17.211c1.128 1.87 1.874 2.51 3.123 2.28 1.313-.24 1.72-.818 2.841-2.289 1.297-1.81 3.256-4.644 6.35-9.128l18.7 8.825c3.33 1.062 5.328-.225 5.365-3.96l.215-52.617c.226-4.613-2.615-5.413-5.23-3.54zm-38.768 41.608l31.23-29.43c1.522-1.525 2.333-.32 1.72.745l-24.324 32.477 1.111 13.587-9.737-17.38z"/></svg>