<svg xmlns="http://www.w3.org/2000/svg" viewBox="60.8 0 838.4 560"><linearGradient id="a" gradientUnits="userSpaceOnUse" x1="-.042" y1="239.362" x2="960" y2="239.362" gradientTransform="matrix(.8733 0 0 -.8733 60.836 489.025)"><stop offset="0" stop-color="#424294"/><stop offset="1" stop-color="#31a8cc"/></linearGradient><path fill="url(#a)" d="M838.1 0c-19.2 0-38.2 3.3-56.2 9.8l-19 6.9c-35.1 12.6-73.4 13.1-108.8 1.3l-1.5-.5C618.7 6.1 582.1 6 548.2 17.2l-7.7 2.5c-32.7 10.7-67.8 11.1-100.7.9l-16.1-5c-32.9-10.2-68.2-9.8-101 1l-11.5 3.8c-31 10.3-64.4 11.1-95.9 2.5l-40.9-11.2C146.5 4 117 3.8 89 11.1l-28.4 7.3V560H899V10.3C886.4 5.1 869 1 838.1 0z"/></svg>