<svg xmlns="http://www.w3.org/2000/svg" viewBox="0 132.8 400 267.2"><linearGradient id="a" gradientUnits="userSpaceOnUse" x1="-150.757" y1="323.245" x2="818.861" y2="323.245" gradientTransform="translate(60.817 133.065) scale(.4167)"><stop offset="0" stop-color="#424294"/><stop offset="1" stop-color="#31a8cc"/></linearGradient><path fill="url(#a)" d="M372.7 132.8c-9.3 0-18.4 1.6-27.1 4.7l-9.2 3.3c-16.9 6.1-35.4 6.3-52.4.6l-.7-.2c-16.3-5.5-34-5.5-50.3-.1l-3.7 1.2c-15.8 5.2-32.7 5.3-48.5.4l-7.8-2.4c-15.9-4.9-32.9-4.7-48.7.5l-5.5 1.8c-14.9 5-31 5.3-46.2 1.2l-19.7-5.4c-13.4-3.7-27.7-3.8-41.2-.3L-2 141.7v261h404V137.8c-6.1-2.5-14.5-4.5-29.3-5z"/></svg>