<svg id="cowboy" xmlns="http://www.w3.org/2000/svg" viewBox="0 0 404.2 437.6"><style>.st0{fill:#3f2805}.st1{fill:#261601}.st3{fill:none;stroke:#7f7f7f;stroke-width:3;stroke-linecap:round;stroke-linejoin:round;stroke-miterlimit:10}</style><path class="st0" d="M384.477 349.9c-.9-15.3-11.61-37.656-15.31-57.556-3.6-19.9-23.47-28.332-34.37-36.832-10.9-8.5-1.1-16.8-33.8-33.2-32.7-16.4-28.463-6.345-49.563-6.645-21.1-.3-42.557 11.632-49.857 12.532-7.2.9-12.9-1.5-38.6 0-3.204.175-7.04.587-11.341 1.186-.88-.68-2.234-1.502-3.886-2.552-8.917-5.666-9.667-14.75-9.667-14.75l-14.5 18.417-2.314 4.37c-27.606 5.734-58.603 13.573-72.392 17.13-22 5.8-17.5 21.2-17.5 21.2-21.1 30.2-6.7 39.4-9 60.8s0 41.7 0 41.7c16.6-55.6 85.1-78 117.4-83 32.4-5 87.9-20.3 102.1-22.8 14.2-2.4 79.2-.6 101.6-.6 22.4 0 19 23.6 19.6 31.4.6 7.8 22.3 64.5 21.4 49.2z"/><path class="st1" d="M103.2 304.805s6.55-9.513 71.55-18.18c0 0 64.2-17.125 68.85-15.375 0 0 42.138-5.354 96.655-2.479 0 0 18.24-.084 13.648 29.25-4.592 29.334 21.945 56.667 21.945 56.667S258 363.858 220 363.762c0 0-18.5.738-28.25-2.512s-63.5-50.95-63.5-50.95-9-8.3-14.625-6.3-10.425.805-10.425.805z"/><path class="st0" d="M127.667 70.333s-2.334-42.666 0-52C130 9 204.333-6 234 13c0 0 1.887 37.758-7.729 51.672 0 0-62.604-6.339-98.604 5.661z"/><path class="st1" d="M140.667 68.935s17.666-8.768 96.833-2.602c0 0-17.167 2.834-21 5.334s-7.667 7.5-24.5 4.5-23 1.202-51.333-7.232z"/><path class="st1" d="M116.363 99.617s-42.646-4.749-46.479-16.342c-3.604-10.9 107.533-6.19 119.2 1.142 11.666 7.333 92.666-12.52 92.666-12.52s27.75-4.397 10 18.603c0 0-17.25 9.5-43.75 7s-90.523 11.98-131.637 2.117z"/><circle cx="93.115" cy="324.969" r="6.115"/><path d="M277.75 235.875s-7.125-9.375 0-12.25.875 9.75 0 12.25zm25.833.958c.157.212 1.42-15.93-4.915-13.631-6.335 2.298 1.582 9.131 4.915 13.631zm-12.5-2.5s-7.75 23.834 3.417 25.334c0 0 3.5-9.584-3.417-25.334zm-136.916 5.5s-35.994 8.832-36.167 15.834c-.173 7.001 4.5 20.75 7 28.25l6.833-3.5s-.262-4.677-1-5.167c-.82-.544-8.364-20.685-7.126-21.708.593-.49 7.043-3.542 10.043-3.125 3 .416 6.833 24.583 6.833 24.583l4.834-1.583s.25-2.5-.25-3.917-6.898-20.107-6.815-20.774c.083-.666 6.398-4.226 8.481-3.226 2.084 1 7.767 28.5 7.767 28.5l5.9-3.25s.5.167 0-1.75-7.917-23-7.917-24.917c0-1.916.417-2.166 1.584-4.25z" fill="#1ecc19"/><path class="st3" d="M118.2 99.9S65.1 92.1 66.3 83s55.1-9.9 115.5 0 123-29.3 124.2-7.2-56.8 24-56.8 24"/><path class="st3" d="M126 70.9s-5.2-44.7-3-49.8 14.2-15.4 60.7-17.5 62.7 15 62.7 15v52.3s-27.1 10.9-50.4 8.2S134.1 69 134.1 69s21.7-9.8 104.1-3.5M23 375.6s-2.3-20.3 0-41.7-12.1-30.6 9-60.8c0 0-4.5-15.4 17.5-21.2 22.1-5.7 88.4-22.4 114.1-23.8 25.7-1.5 31.4.9 38.6 0 7.3-.9 34.1-15.1 55.2-14.8s17-12.1 49.7 4.3 22.9 24.7 33.8 33.2c10.9 8.5 29.3 19 32.9 38.9 3.7 19.9 10.4 44.8 11.3 60.1s-20.8-41.4-21.4-49.2c-.6-7.8 2.8-31.4-19.6-31.4s-87.4-1.8-101.6.6c-14.2 2.5-69.7 17.8-102.1 22.8-32.3 5-100.8 27.4-117.4 83z"/><path class="st3" d="M362.2 310.3s-6.6-7.8-9.9-14.4-6.9-21.2-39.8-20.5c-32.9.6-59.5-2.1-64.3 0-4.8 2-19.7 4.8-19.7 4.8m-125.3 26.4l12.7-1.7c2.4-.4 4.9.5 6.6 2 2.2 2 5.6 5 10.1 8.6 18.2 14.6 54 43 62.6 49.8 11.3 9 190.1-6.3 190.1-6.3"/><path class="st3" d="M146.2 321.1s8.8-12.4 10.9-9.8c2 2.8 24.9 38.3 24.9 38.3s9.8 12 6.3-1.4c-3.4-13.3-7-14.1-6.1-16.6s8.6-.9 8.6-.9 12.4 22.9 11.3 27.1c-1.1 4.3-2.9 4.8-2.9 4.8s-43.4-38.7-44.3-38l-.9.6m82.3 40.5S225 342.4 226.1 342c1.1-.5 4.5-5 6.8 1.1s10.7 22.6 10.7 22.6m86.2-50.5c-2 1.1-3.6-1.8-3.1 3.1.5 5 7.3 18.8 8.2 36.4 0 0 1.8 5.2 4.8 1.6 2.9-3.6-6.5-37.4-6.5-37.4m-43.1-89.7s0 11.5-1.5 14.9c-1.5 3.5-2.8 12.7 4.4 16.2s6.5-13.6 3.6-17c-2.9-3.5-3.6-9.5-3.6-9.5m-13.7 7.1s1.2-6.8 3.6-10.4-2.3-8.3-4.2-7.8c-1.9.5-6.2-.4-4.7 9.1l2.4 4.3m28.3 4.8c-3.8-6.6-8.2-11.8-8.2-11.8s-3.5-4.9.9-6.5c4.4-1.7 7.7.4 8.5 4.4.7 4 0 8.7 0 8.7m-149.1 6.7s-1.2 2.4-.7 5.4 7.5 19 6.2 22.2c-1.4 3.1-9 5.2-9 5.2s1.8-3.3 0-9.7-6.8-14.4-6.1-17.7-5.9.6-5.9.6 6.1 16.9 6.1 19.3-.2 6.2-.2 6.2l-7.7 2.5s-.2-5.7 0-6.9-5.2-18.1-6.1-17.8c-.7.3-6.8.7-6.9 1.9s6.6 18.4 6.6 21.7-.2 5.9-.2 5.9l-9.2 4s.5-3.3 0-5.9-7.1-18.6-6.9-20.7.2-6.5 5-8.5 32.6-11.1 32.6-11.1m78-25.2s15.8-11.1 14.4-13.8c-1.4-2.8 6.3 5.6 4.3 9.8l-13 3.5m-115.3 17.2s15.3-18.8 16-20.7 8.2 13.3 15.8 15l-11 1.4s-5.7-3.3-4.9-11.5M25.5 337.6s1.8-15.8 17.4-23.4c15.6-7.5 67.4-23.3 67.4-23.3M26.9 320S24 295.5 33 285.1s-4 16.6-3.3 24.2-8-27.4 79.6-51m-73.8 11.4s-.2-8.6 26.7-17"/><circle class="st3" cx="94.2" cy="324.5" r="8.2"/><circle class="st3" cx="94.2" cy="324.5" r="13.1"/><path class="st3" d="M69.2 343.5c-1.8-6.3 6.2-15.4 6.2-15.4s-.3 7.2 5.8 11.8c6.2 4.5 8.8 3.1 8.8 5.4v13.6h11v-14.2s11.1-2.1 10.9-18c0 0 12 7 4.8 18"/><path class="st3" d="M105.7 360s12.9 0 13.2-6.1c.2-6.1-4.8-7.5-13.2-7.5M84.9 360c-10.7-1.7-25.1 3-25.4 0 0 0-3.4-15.2 22.9-13.6m-23 28.1s-2.1-6.3 1.5-8.7c4.4-3.1 43.4-1.9 43.1-1.3 0 0 7 .3 7 4.9 0 6.7-4.5 7.4-11 6.3-7.5-1.2-41.2 1.5-39.4 2.6 0 0-4 6.8.1 10.1 4 3.2 44.3.2 44.3.2s6.3-1.4 2.9-9.5m-48.5 12.4s-.1 3.3 2.6 5.1c6.2 4.1 32.4 4.7 43.8-4.4"/></svg>