<svg id="Слой_1" xmlns="http://www.w3.org/2000/svg" viewBox="0 0 404.156 437.587"><style>.st0{fill:none;stroke:#7f7f7f;stroke-width:3;stroke-linecap:round;stroke-linejoin:round;stroke-miterlimit:10}</style><path class="st0" d="M110.758 108.291s-57.747-8.53-56.435-18.374 59.916-10.826 125.506 0 133.701-31.916 135.014-7.755-61.685 26.13-61.685 26.13"/><path class="st0" d="M119.29 76.793s-5.579-48.56-3.282-54.139 15.421-16.733 65.95-19.03 68.247 16.406 68.247 16.406v56.763s-29.53 11.812-54.794 8.859-67.263-11.01-67.263-11.01 23.624-10.646 113.198-3.755M7.404 408.02s-2.461-22.148 0-45.28-13.125-33.303 9.843-66.114c0 0-4.922-16.733 19.03-22.968 23.952-6.234 96.137-24.28 124.026-25.92s34.123.984 41.998 0c7.875-.985 37.076-16.406 60.044-16.078s18.537-13.06 53.973 4.657 24.936 26.905 36.748 36.092 31.827 20.671 35.764 42.326 11.156 48.698 12.14 65.294c.984 16.596-22.64-44.95-23.296-53.482s2.953-34.123-21.327-34.123-95.042-1.969-110.354.656-75.847 19.44-110.955 24.781C99.931 323.203 25.45 347.483 7.404 408.02z"/><path class="st0" d="M376.072 337.038s-7.218-8.53-10.827-15.749c-3.61-7.218-7.547-22.967-43.31-22.311s-64.72-2.255-69.888-.02c-5.168 2.234-21.41 5.187-21.41 5.187m-136.12 28.819l13.776-1.887a8.968 8.968 0 0 1 7.217 2.22 260.58 260.58 0 0 0 10.951 9.28c19.801 15.9 58.737 46.74 67.965 54.123C206.73 406.543 401 389.81 401 389.81"/><path class="st0" d="M141.272 348.714s9.598-13.535 11.812-10.582c2.215 2.953 27.07 41.588 27.07 41.588s10.581 13.042 6.89-1.477c-3.691-14.518-7.629-15.257-6.644-17.964s9.35-.984 9.35-.984 13.535 24.854 12.305 29.53c-1.23 4.676-3.2 5.168-3.2 5.168s-47.247-42.08-48.231-41.342l-.985.738m89.574 43.803s-12.304-25.347-11.073-25.839c1.23-.492 4.921-5.414 7.382 1.23 2.46 6.645 11.566 24.609 11.566 24.609m93.71-54.884c-2.215 1.23-3.937-1.97-3.445 3.445s7.874 20.425 8.859 39.619c0 0 1.968 5.66 5.167 1.723 3.2-3.938-7.055-40.604-7.055-40.604m-46.604-97.687s0 12.468-1.64 16.242c-1.641 3.773-2.954 13.78 4.757 17.553s7.054-14.764 3.937-18.538c-3.117-3.773-3.88-10.335-3.88-10.335m-14.986 7.874s1.313-7.382 3.937-11.32-2.46-9.022-4.593-8.53c-2.133.492-6.726-.362-5.086 9.909l2.625 4.692m30.842 5.249c-4.101-7.218-8.859-12.796-8.859-12.796s-3.773-5.316.985-7.087c4.757-1.772 8.367.36 9.187 4.79.82 4.43 0 9.516 0 9.516m-162.19 7.136s-1.312 2.625-.82 5.906c.492 3.281 8.203 20.67 6.726 24.116-1.476 3.445-9.843 5.578-9.843 5.578s1.969-3.61 0-10.5c-1.969-6.89-7.382-15.585-6.562-19.194.82-3.61-6.398.656-6.398.656s6.562 18.374 6.562 21-.164 6.667-.164 6.667l-8.367 2.683s-.164-6.234 0-7.546c.164-1.313-5.742-19.687-6.562-19.359-.82.328-7.383.82-7.547 2.133S127 295.314 127 298.923c0 3.61-.164 6.398-.164 6.398l-10.008 4.265s.492-3.609 0-6.398-7.71-20.178-7.546-22.475c.164-2.297.164-7.055 5.414-9.187s35.435-12.14 35.435-12.14m84.899-27.316s17.226-12.058 15.75-15.01c-1.477-2.953 6.865 6.099 4.675 10.643l-14.15 3.752m-125.461 18.744s16.605-20.387 17.39-22.496c.785-2.108 8.859 14.457 17.226 16.262l-11.976 1.476s-6.235-3.61-5.332-12.468M10.11 366.694s1.97-17.242 18.949-25.363c16.98-8.12 73.332-25.293 73.332-25.293m-90.804 31.445s-3.199-26.577 6.644-37.897-4.433 17.964-3.57 26.331-8.734-29.776 86.5-55.368m-80.223 12.304s-.246-9.351 29.038-18.456"/><circle class="st0" cx="84.838" cy="352.405" r="8.859"/><circle class="st0" cx="84.838" cy="352.405" r="14.209"/><path class="st0" d="M57.604 373.076c-1.968-6.89 6.702-16.702 6.702-16.702s-.34 7.842 6.322 12.764c6.663 4.922 9.616 3.446 9.616 5.906v14.765h11.928v-15.38s12.056-2.338 11.942-19.563c0 0 13.037 7.628 5.165 19.563"/><path class="st0" d="M97.224 391.04s14.026 0 14.273-6.645c.246-6.644-5.168-8.12-14.273-8.12m-22.64 14.765H47.023s-3.691-16.488 24.854-14.765m-25.01 30.514s-2.797-8.859 1.386-11.074 48.56-.246 48.56-.246 7.551.328 7.551 5.29c0 7.265-6.461 8.438-13.538 7.26-8.085-1.344-44.75 1.57-42.819 2.805 0 0-4.347 7.43.082 10.976 4.43 3.545 48.232.246 48.232.246s6.827-1.476 3.117-10.335m-52.571 13.634s15.249 19.34 50.357.72"/></svg>