<svg id="space" xmlns="http://www.w3.org/2000/svg" viewBox="0 0 400 400"><style>.st1{fill:#f4f4f4}.st2{fill:#777}.st3{fill:#d8d8d8}.st5{fill:#232323}.st6{fill:none;stroke:#7c7c7c;stroke-width:3;stroke-linecap:round;stroke-linejoin:round;stroke-miterlimit:10}</style><path d="M214.25 74.246s52.75.144 80.5 50.074c0 0-4-25.32-7.25-31.32s-22.75-33.5-40.75-34.5-12.5 7-18.75 10.25-9.23-.068-13.75 5.496zM80.5 255.86S40 297.5 38.75 301s-4.25 20.25 8.5 26.25 79.721-13.83 79.721-13.83 7.557 4.33-1.707-10.17S100.5 293.5 94.25 283.5s-13-12.531-13.75-27.64z" fill="#94c0ff"/><g id="colorWhite"><path id="_x3C_Контур_x3E__3_" class="st1" d="M200 74s-58.914-2.902-85.707 54.799c0 0 .707-12.299 2.457-18.299s8.181-12.914 14.84-24.207C138.25 75 157.775 53.323 188 48.25S187.5 65.5 200 74z"/><path id="_x3C_Контур_x3E__2_" class="st2" d="M283.375 74.375s10.375 9.433 12.125 13.779 3.875-2.568 7.125-1.861c3.25.707-11.625-13.543-19.25-11.918z"/><path id="_x3C_Контур_x3E__1_" class="st2" d="M307.117 173.167s1.883-14.834.883-21.334c0 0 5.833.5 8.667-1.5 2.833-2 1.166 6.475-3.667 13.654-4.833 7.18-.265 5.513-5.883 9.18z"/><path id="_x3C_Контур_x3E_" class="st3" d="M293.333 217.167s-2.505 19.5 11.664 38.166c0 0-7.33 31.334-62.664 33.834s9.167-4.5 21.667-12.334c12.5-7.833-2.833-15.833 5.667-29.666 8.5-13.834 14.833-13 23.666-30z"/><path d="M328.5 271.5s33 27.098 44.5 78c0 0-53.305 8.445-81.903-2.902-7.794-16.579 21.486-66.348 37.403-75.098zm-224.585 62.002S157 316.333 170 321.667c0 0-2.485 11.116-1.493 21.725 0 0-58.187 3.074-64.592-9.89zm97.384-17.838c11.144-.301 45.398-.94 48.951 2.487 0 0 1.5 16.349 0 22.099l-43.956 1.576s2.13-20.684-5.257-25.195c-.444-.27-.259-.952.262-.967z" fill="#afafaf"/><path class="st1" d="M112 173.167s7.83 61.224-8.085 72.695C88 257.333 133.25 265.894 166 248.572s10.784-17.934-7.95-27.877c-21.093-11.195-39.136-35.977-46.05-47.528z"/><path class="st5" d="M103.509 171.083s.241-49.449.991-52.766 5.526-14.511 4.093-19.067-7.969 11.75-7.969 11.75-6.543 6.026-4.458 12.763C98.25 130.5 94.5 165.75 97.25 167.5s6.018 1.165 6.259 3.583z"/><path class="st3" d="M298.799 207.375s5.82-13.5 6.198-14.125 7.623-1.375 4.813 31.125 7.19 21.875 5.94 27.75-2.2 4.963-9.787-3.769c-7.588-8.731-10.99-24.356-7.164-40.981z"/></g><g id="colorBlack"><circle class="st5" cx="312.583" cy="107.453" r="5.466"/><circle class="st5" cx="315.911" cy="129.786" r="5.466"/><path class="st5" d="M178 249.667s4.967 1.833 4.817 10.833c-.15 9 4.516 21.167 11.183 23.667s-15.167 0-15.167 0-.166-28.667-.833-34.5z"/></g><path class="st6" d="M114.293 169.176s25.983 39.817 49.3 48.977c34.57 13.582 54.028 8.65 84.586 0 30.56-8.65 50.62-48.977 50.62-48.977v-28.252s-21.67-59.297-94.15-61.36c-72.482-2.064-90.356 59.63-90.356 59.63v29.982zm193.778-22.919s24.217-2.594 25.081-5.621-3.46-47.136-7.783-49.298c-4.325-2.162-26.811 0-26.811 0s8.216 26.811 9.513 54.92z"/><path class="st6" d="M108.671 172.636s.433-65.73 5.622-68.325c5.19-2.595 16.817-57.946 90.355-61.838 0 0 51.052-4.325 87.809 48.865 0 0 12.973 36.325 10.378 87.352-2.594 51.027-50.162 60.541-61.406 63.136-11.243 2.594-72.217 0-72.217 0s-63.14-12.268-60.54-69.19z"/><path class="st6" d="M108.593 197.285s5.7 30.703-11.597 47.568c-17.298 16.865 13.405 43.676 71.784 47.568 58.379 3.891 130.707 6.919 141.03-38.92 0 0-18.074-19.675-11.011-45.19m6.198-23.567s9.081-1.73 9.514 22.92c.432 24.648 3.027 6.918 3.027 26.81s3.027 14.703 0 19.892c-3.027 5.19-5.598 0-5.598 0"/><path class="st6" d="M173.698 249.397s1.71 22.743 0 35.227c0 0 12.617 2.052 21.87 1.026 0 0 1.395-5.301 2.246-36.253 0 0-19.934-1.573-20.618-.376-.684 1.197 1.907 2.384.881 32.48M315.29 122.926s-6.543 3.027-3.804 9.226c2.738 6.198 9.657 3.315 10.09 3.027.432-.289 4.276-2.307 2.787-7.784-1.49-5.478-8.985-6.487-10.283-5.622m-5.422-10.811s3.693 5.91 9.747 2.162c6.054-3.747 1.585-12.396-1.874-12.54-3.46-.144-10.667-.577-9.226 9.658m-.188 69.313s8.896-6.054 8.794-10.595c-.103-4.54 8.755-5.261 5.479-20.54m-14.273-62.127s-10.192-13.55-15.814-15.28c-5.621-1.73-11.675-1.153-11.675-1.153M124.24 79.564s-4.758-3.938-8.938 1.395c-4.18 5.334-11.964 5.622-10.522 9.514s3.747 4.324 2.306 7.063c-1.442 2.739-6.054 6.198-7.64 15.135 0 0-4.9 3.748-3.027 12.541 1.874 8.793-1.874 40.217-1.874 40.217s-7.584 9.657-2.35 11.82c5.233 2.162 3.936-6.055 3.936-6.055l9.513-.144"/><path class="st6" d="M95.554 182.15s.577 18.73-16.144 45.113-31.135 41.95-51.892 65.59 1.441 57.079 15.567 53.476c14.127-3.602 58.523-14.557 60.83-12.827s8.506 10.09 26.884 10.09 47.495-.288 47.495-.288-1.449-26.582 10.378-27.964c12.33-1.442 18.403 2.27 17.622 26.486l53.01.036s.288-43.82-5.767-43.82c-6.054 0-19.675.649-19.675.649l-4.541 6.703-20.54.432v-4.973l-29.406-1.297s-41.04-7.352-40.196 3.027c.844 10.378-24.886 13.838-24.886 13.838l-57.298 14.054s-24.648 10.595-23.567-11.243 2.81-19.028 33.081-49.947 35.676-56.433 35.676-56.433-3.243-24 3.46-25.297"/><path class="st6" d="M52.455 288.096c3.243-.216 35.676 30.055 35.676 30.055l16.216-3.892c3.676-15.136-2.81-33.947-2.81-33.947l-10.595-12.108c14.486 33.082 6.486 50.379 1.252 43.244-4.336-5.913-24.616-21.773-31.439-27.034a3.554 3.554 0 0 0-4.43.072l-1.762 1.448m271.335 57.082l14.991-18.74 1.154-6.125s18.45-22.631 17.585-24.974c-.865-2.342-22.198-31.337-29.117-28.803-6.919 2.533-34.307 49.236-34.307 49.236s-6.63 11.532-6.63 29.406 93.406 7.207 93.406 7.207-9.665-37.199-21.045-53.334m-235.534-171.1s-3.533 44.18 5.19 59.82l-11.82-17.297s-1.874-24.217 0-29.983m158.727-20.012s12.517 42.067-5.357 76.517l14.559-23.063s5.126-24.287 0-40.505"/></svg>