<svg id="Слой_1" xmlns="http://www.w3.org/2000/svg" viewBox="0 0 400 400"><style>.st2{fill:#f7f746}.st4{fill:none;stroke:#7c7c7c;stroke-width:3;stroke-linecap:round;stroke-linejoin:round;stroke-miterlimit:10}</style><path d="M293.833 289.833s1.984-5.951.742-7.142c-1.146-1.1-23.708-28.712-32.408-54.524a6.344 6.344 0 0 0-7.917-4.039c-13.3 4.158-55 8.127-99.417-1.295l-35.444 55.943c-1.37 2.031-1.565 4.662-.411 6.824.806 1.51 1.43 3.536 1.018 5.898-.316 1.816 1.222 6.943 2.379 8.377 1.607 1.992 3.46 4.385 2 10.875-2.544 11.309 16.295 45.25 39.627 43.917 23.331-1.334 129.831-64.834 129.831-64.834z" fill="#4969f2"/><path d="M294.56 301.61s-10.785-21.372-24.685-34.072c0 0-2.775 5.062-59.775 4.062 0 0-42.6 2.2-56.1.1 0 0-25.6 26.9-26.2 32.8-.6 5.9 2.6 5.7 0 7.6-2.6 1.9 27.6 23.8 39.6 37.3 12.1 13.6 47.6 47.1 47.6 47.1s39.2-43.6 42-48.9 34.4-35.4 34.4-35.4c.619-2.519 3.4-6.721 3.16-10.59z" fill="#f45b47"/><path class="st2" d="M150.333 286.167s-12.162 14.002-12 25.573c0 0-2.333 2.953 6.5 5.12l3-21.167 8.334-9.333-5.834-.193zm94.355-6.479s6.625-1.813 10.5 0L250.5 286.5l-5.813-6.813zM165.5 331.75s11.625 12.5 13 12.5 15.375-7 21.5.5 14.333 27.475 32.833 14.225 7-24.375-6.5-24.25S202 338 192.5 334s-30.375-4.375-27-2.25zm58.5 39.083s-5.167 7.167-7.667 9.334c-2.5 2.166-14.5-11.834-14.5-11.834s4.249 3.249 22.167 2.5z"/><path class="st2" d="M270.333 284.8L257 297.5s-14.333.833-16.167 0c-1.833-.833-12-15-40.833-13.5s-26.829 21.88-9.167 24.167 54.9.166 59.367 0c4.467-.167 17.651 9.558 18.151 9.99s13.482-9.236 11.816-18.403c-1.667-9.167-9.834-14.954-9.834-14.954z"/><path d="M117 232.167s8-6.634 7.333-12.067c-.666-5.433 6.667-13.267 6.667-13.267s-33.833-.336-39.667 2.416C85.5 212 78.3 215.833 78.3 215.833s8.7 23.5 38.7 16.334zm-20.5 23.5S96.167 267 90.667 276s-46.5-8.462-46.5-8.462 2.666-10.102 11.333-13.57 5.667-12.101 6.667-15.368 8.166-12.6 8.166-12.6S74.5 242.167 96.5 255.667zm179.167-51.834s58.166 7.667 62.666 11c4.5 3.334 31 64.049 31 64.049s-22.833-13.049-40.833-5.715c0 0-12.987-16.463-23.833-25.167-10.846-8.704-16-12.667-12.167-21.333 3.833-8.667 5.125-4.417-16.833-22.834z" fill="#c9c9c9"/><path class="st4" d="M166.4 202.6s-44.3 71-47.8 76.8c0 0-15.4-6.1-19.5-2.9s14-33.5 25.1-42.9 0-8.7 14.3-21.7 14.9-19.4 18.1-17.1c3.2 2.4 4.6 4.1 4.6 4.1M59.1 305.6l4-2.6s10.3-14.6 14.1-14.6c3.9 0 0-5.3 16.7-5.5s22.7 3.6 22.4 7.9c-.2 4.3-2.1 6.7-2.1 6.7l-15.8-1.4 17.9 2.1s3.1 1.6 3.4 6.4-1.6 5.3-2.6 5.7c-.9.5-14.8 0-14.8 0l16.4.9s2.6 2 2.6 5.4-2 6.1-5.7 7.8c-3.7 1.7-12.1 0-12.1 0l11.6 1.8s1.3.9-.4 3.6c-1.6 2.7-7.9 7.3-7.9 7.3s-4.2.7-5.6 1.1-2.3 1.2-5.5 2.7-13.1 5.9-17.6 4.8c-4.4-1.1-7.4-3-14.8-2.9s-9.9-5.5-13.9-10.3 7.9-19.9 6.8-24m122.9 38s11.8-7.4 16.9-3.5c5.1 3.9 13.4 20.8 27.1 20.6 13.8-.2 24.1-10.9 23.9-17.7-.2-6.8-6.6-13.4-24.1-12.9-17.5.4-9.6 4.4-34.3 0s-26.4-3.3-23.6 0c2.9 3.3 10.3 9.6 10.3 9.6m-24.2-57.8s8.7 0 8.1 1.5c-.6 1.5-9.9 8.9-10.1 14-.2 5.1-2 17.1-1.1 17.7s-11.1-2.9-10.7-6.6 3.7-13.4 10.9-22.9m95.2-9l6.8 8.9 6.8-8.9s-4.4-1.9-8.9-.9"/><path class="st4" d="M270.1 283.3s-11.8 12.9-13.1 13.1c-1.3.2-12.2 1.7-15.9 0s-12-14.3-41.5-13.1c-29.5 1.1-22.3 19.5-19.6 21.2s.6 8.7 62.5 4.8c0 0 14.6-2.6 27.8 10.7 0 0 12.9-7.4 15.9-21.6L274 284.8M42.9 264.1s0-7.9 10.5-12.9c0 0 3.9-5.1 5.2-7.6 1.4-2.4-3.3-2.6 1.6-8s17.5-25.9 33.4-27.6c15.9-1.7 47.6-4.1 47.6-4.1m-22.5 30.2s-28 6.2-40.4-15.1m-3.4-4.9s-7.9-15.6-9.6-15.7c-1.7-.1-43.7 2.6-43.7 2.6s-3.9.1-2.2 10.6l10.4 4s1.9 5.1 18.5 2.9c16.6-2.2 15.3-2.6 17.8-.9 2.5 1.7 2.5 2.5 2.5 2.5m4.5 4.7s13.6 30.8 31.6 29.1m151.6-53.7s19.6 25.6 24.2 37.9c4.5 12.2 23.8 43.4 25.1 45.1 0 0 2.6-5.8 18.8-8.1 16.1-2.4-37-32.8-34-43.7s15.9-3.4-28.1-35.4l-3.4 2.2s24.8 7.9 58.1 10.9c0 0-.6 9.6 1 9.9 1.6.3 18.2 3.1 18.6 4.2.4 1.1 15.4 47.4 15.3 49 0 0 21 5.9 25.8 18.9 4.8 13.1-6-48.1-33.6-77.1l-22.4-4.5"/><path class="st4" d="M365.7 295.7s-10.4-16.7-21.6-14c0 0-23.7-.6-29 4.2-5.3 4.8-10.9 5-7.4 12.3 3.6 7.2 13.6.6 13.6.6l-12 5.8s-3.2 2.2-1.1 7.2 4.6 5.1 4.6 5.1l12.7-3.9-12.6 5s-2.4 3.6-.9 5.5 1.4 5.4 16.6 3.2l-11.7 2.4s-1.4 9.3 16.9 8.4c18.2-.9 1.9 9.9 42.7 1.1 0 0 14.2-22.9-7.9-41m-223.2-55.5s25.4 6.3 65.6 4.9c40.2-1.4 62.1-8.4 62.1-8.4s21.1 41.3 27.8 46.2c0 0-7.1 4.9-2.1 14.1 0 0-12.2-19.2-26.1-31.9 0 0-5.6 5.6-62.6 4.6 0 0-42.6 2.2-56.1.1 0 0-25.6 26.9-26.2 32.8-.6 5.9 2.6 5.7 0 7.6-2.6 1.9 27.6 23.8 39.6 37.3 12.1 13.6 47.6 47.1 47.6 47.1s46.2-44.6 49-49.9 34.4-35.4 34.4-35.4-.9-4.6.1-8.1"/></svg>