<svg id="Слой_1" xmlns="http://www.w3.org/2000/svg" viewBox="0 0 404.156 437.587"><style>.st0{fill:none;stroke:#7c7c7c;stroke-width:3;stroke-linecap:round;stroke-linejoin:round;stroke-miterlimit:10}</style><path class="st0" d="M108.318 185.074s28.424 43.558 53.931 53.579c37.818 14.858 59.105 9.463 92.536 0 33.43-9.463 55.376-53.58 55.376-53.58v-30.907S286.455 89.297 207.163 87.04c-79.292-2.257-98.845 65.234-98.845 65.234v32.8zM320.304 160s26.492-2.838 27.439-6.15c.946-3.31-3.785-51.564-8.516-53.93-4.73-2.365-29.33 0-29.33 0s8.988 29.331 10.407 60.08z"/><path class="st0" d="M102.168 188.858s.473-71.907 6.15-74.745 18.397-63.392 98.845-67.65c0 0 55.849-4.73 96.06 53.458 0 0 14.192 39.738 11.353 95.56-2.838 55.822-54.876 66.23-67.176 69.068-12.3 2.839-79.002 0-79.002 0s-69.074-13.42-66.23-75.69z"/><path class="st0" d="M102.082 215.823s6.236 33.588-12.687 52.038 14.665 47.78 78.53 52.038c63.864 4.257 142.989 7.569 154.281-42.577 0 0-19.772-21.524-12.045-49.436m6.781-25.782s9.934-1.892 10.407 25.073c.473 26.965 3.312 7.569 3.312 29.33s3.311 16.085 0 21.761-6.124 0-6.124 0"/><path class="st0" d="M173.304 272.832s1.871 24.88 0 38.537c0 0 13.803 2.245 23.925 1.123 0 0 1.527-5.8 2.458-39.66 0 0-21.807-1.72-22.556-.41-.748 1.309 2.087 2.607.964 35.532M328.2 134.477s-7.156 3.312-4.16 10.093 10.565 3.627 11.038 3.311c.473-.315 4.678-2.523 3.049-8.515-1.63-5.992-9.83-7.096-11.249-6.15m-5.932-11.826s4.04 6.464 10.663 2.365c6.623-4.1 1.735-13.562-2.05-13.72-3.785-.157-11.67-.63-10.092 10.566m-.206 75.826s9.732-6.623 9.62-11.59 9.577-5.756 5.994-22.47m-15.614-67.965s-11.15-14.823-17.3-16.716c-6.15-1.892-12.773-1.261-12.773-1.261M119.198 87.04s-5.204-4.307-9.777 1.527c-4.573 5.835-13.088 6.15-11.511 10.408 1.577 4.257 4.1 4.73 2.523 7.726-1.577 2.997-6.623 6.781-8.358 16.558 0 0-5.361 4.1-3.311 13.719s-2.05 43.996-2.05 43.996-8.297 10.565-2.572 12.93c5.726 2.366 4.307-6.623 4.307-6.623l10.407-.157"/><path class="st0" d="M87.818 199.266s.63 20.49-17.662 49.352-34.06 45.893-56.768 71.754 1.577 62.442 17.03 58.501 64.023-15.925 66.546-14.033c2.523 1.893 9.306 11.039 29.41 11.039s51.958-.316 51.958-.316-1.585-29.079 11.354-30.592c13.488-1.576 20.132 2.484 19.277 28.976l57.99.04s.316-47.938-6.307-47.938-21.524.71-21.524.71l-4.968 7.332-22.47.473v-5.44l-32.17-1.42s-44.896-8.042-43.973 3.312c.924 11.354-27.223 15.138-27.223 15.138L45.636 361.53s-26.965 11.59-25.783-12.3c1.183-23.89 3.075-20.815 36.19-54.64s39.029-61.735 39.029-61.735-3.548-26.256 3.784-27.675"/><path class="st0" d="M40.668 315.168c3.548-.237 39.029 32.878 39.029 32.878l17.74-4.257c4.021-16.558-3.075-37.136-3.075-37.136l-11.59-13.246c15.848 36.19 7.096 55.112 1.37 47.307-4.744-6.468-26.93-23.819-34.393-29.575a3.888 3.888 0 0 0-4.847.08l-1.927 1.584m296.832 62.445l16.4-20.5 1.261-6.702s20.184-24.757 19.238-27.32c-.946-2.562-24.284-34.281-31.853-31.51-7.57 2.772-37.53 53.863-37.53 53.863s-7.254 12.615-7.254 32.169 102.183 7.885 102.183 7.885-10.573-40.694-23.023-58.346M121.564 137.609s-3.865 48.332 5.676 65.441l-12.93-18.923s-2.05-26.492 0-32.8m173.642-21.892s13.694 46.02-5.86 83.707l15.927-25.23s5.608-26.57 0-44.311"/></svg>