<svg xmlns="http://www.w3.org/2000/svg" viewBox="219 0 520 560"><g fill="none" stroke="#7C7C7C" stroke-width="3" stroke-linecap="round" stroke-linejoin="round" stroke-miterlimit="10"><path d="M433.1 281.4s-62 99.4-66.9 107.5c0 0-21.6-8.6-27.3-4.1-5.7 4.5 19.6-46.9 35.1-60 15.5-13.1 0-12.2 20-30.4s20.8-27.1 25.3-23.9c4.5 3.3 6.5 5.7 6.5 5.7M282.9 425.6l5.6-3.7s14.4-20.4 19.7-20.4c5.4 0 0-7.4 23.4-7.7s31.8 5 31.4 11c-.3 6-3 9.4-3 9.4l-22.1-2 25.1 3s4.3 2.3 4.7 9-2.3 7.4-3.7 8c-1.3.7-20.7 0-20.7 0l22.9 1.2s3.7 2.8 3.7 7.5-2.8 8.5-8 10.9-16.9 0-16.9 0l16.2 2.5s1.8 1.2-.5 5-11 10.2-11 10.2-5.9 1-7.9 1.5-3.2 1.7-7.7 3.8-18.4 8.2-24.6 6.7c-6.2-1.5-10.4-4.2-20.7-4-10.4.2-13.9-7.7-19.4-14.4s11-27.9 9.5-33.6m172 53.3s16.5-10.4 23.6-4.9 18.7 29.1 37.9 28.8c19.3-.3 33.7-15.3 33.4-24.8s-9.2-18.7-33.7-18.1c-24.5.6-13.5 6.1-48 0-34.6-6.1-37-4.6-33.1 0 4 4.6 14.4 13.5 14.4 13.5m-33.6-80.8s12.2 0 11.3 2.1-13.8 12.5-14.1 19.6-2.8 23.9-1.5 24.8c1.2.9-15.6-4-15-9.2.6-5.2 5.2-18.7 15.3-32.1M540.9 389l9.5 12.4 9.5-12.4s-6.1-2.7-12.5-1.3"/><path d="M578.3 394.3s-16.5 18.1-18.4 18.4c-1.8.3-17.1 2.4-22.3 0-5.2-2.4-16.8-20-58.1-18.4-41.3 1.6-31.2 27.3-27.5 29.7 3.7 2.4.9 12.2 87.5 6.7 0 0 20.5-3.7 38.9 15 0 0 18.1-10.4 22.3-30.3l-17.1-19m-323.3-29s0-11 14.7-18.1c0 0 5.4-7.2 7.3-10.6 2-3.4-4.6-3.7 2.3-11.2 6.9-7.5 24.5-36.3 46.8-38.7s66.6-5.7 66.6-5.7m-31.6 42.3s-39.2 8.7-56.5-21.1m-4.9-6.9s-11-21.8-13.5-22c-2.4-.2-61.2 3.7-61.2 3.7s-5.5.1-3.1 14.9l14.5 5.6s2.7 7.1 25.9 4.1c23.3-3.1 21.4-3.7 24.9-1.3 3.5 2.4 3.5 3.5 3.5 3.5m6.5 6.5s19 43.1 44.3 40.7M559 278s27.5 35.9 33.9 53c6.3 17.1 33.3 60.7 35.1 63.2 0 0 3.7-8.1 26.3-11.4s-51.8-45.9-47.6-61.2c4.2-15.3 22.3-4.7-39.3-49.6l-4.7 3.1s34.7 11 81.4 15.3c0 0-.8 13.5 1.4 13.9 2.2.4 25.5 4.3 26.1 5.9s21.6 66.3 21.4 68.6c0 0 29.4 8.2 36.1 26.5 6.7 18.3-8.4-67.3-47.1-107.9l-31.4-6.3"/><path d="M712.2 411.7s-14.6-23.4-30.3-19.6c0 0-33.2-.9-40.6 5.9-7.4 6.7-15.2 7-10.3 17.2 5 10.1 19 .9 19 .9l-16.8 8.1s-4.5 3.1-1.5 10.1c2.9 7 6.5 7.1 6.5 7.1L656 436l-17.6 7s-3.4 5.1-1.2 7.7c2.2 2.6 1.9 7.5 23.3 4.5l-16.4 3.3s-1.9 13 23.6 11.8c25.5-1.2 2.7 13.9 59.8 1.5 0 0 19.9-32-11.1-57.4m-312.6-77.7s35.5 8.8 91.9 6.8c56.3-2 87-11.7 87-11.7s29.5 57.8 38.9 64.7c0 0-10 6.9-2.9 19.8 0 0-17.1-26.9-36.5-44.7 0 0-7.8 7.8-87.7 6.5 0 0-59.6 3.1-78.5.2 0 0-35.9 37.7-36.7 45.9-.8 8.2 3.7 8 0 10.6-3.7 2.7 38.6 33.3 55.5 52.2 16.9 19 66.7 65.9 66.7 65.9s64.7-62.4 68.6-69.8c3.9-7.4 48.1-49.6 48.1-49.6s-1.2-6.5.2-11.4"/></g></svg>