<svg id="Слой_1" xmlns="http://www.w3.org/2000/svg" viewBox="0 0 400 400"><style>.st0{fill:#fff}.st2{fill:#f2a50a}.st23{fill:#fafafa}.st24{fill:#090a0a}.st25{fill:#cdcccc}.st28{fill:#efefef}.st29{fill:#f0b8bf}.st30{fill:#e78c8d}.st31{fill:#e6e7eb}.st38,.st43{fill:#fafafa;stroke:#4e4e4e;stroke-miterlimit:10}.st43{fill:#ecedf1}.st47{opacity:.7;fill:#fff;enable-background:new}.st48{fill:none;stroke:#0c0c0c;stroke-miterlimit:10}</style><path class="st0" d="M1 1h400v400H1z"/><path d="M296.3 311.7l-77.3-46c-.1-.1-.2-.1-.3-.2V400H400v-92.6l-15.4 7.7c-28.1 14-61.4 12.7-88.3-3.4zm-94.8-56.5l-12.7 13.2c-.6.2-1.1.4-1.6.5 13.6 28.2-66.3 39-74.9 37.1-15.4 6.1-31.4 7.5-39.8 7.8-1.8.1-3.1-1.5-3-3.1 0-.5.2-1.1.6-1.6 4.7-5.9 10-11.3 19.5-19.8-7.5-3.7 7.9-23.7 17.9-44.6 7.5-15.6 22.4-20.3 29.6-21.6-.1-1.5.2-3.1.8-4.7l.7-.6L63 172.6c.4 20.5-.9 33.6-4 37.7-8.9-4.6-31.2-5.9-59-6V400h1.1v-31.7c0-9.3 7.5-16.8 16.8-16.8h147.9c9.3 0 16.8 7.5 16.8 16.8V400h25.7V259.3l-6.8-4.1z" fill="none"/><path class="st2" d="M139.9 188.3c7-8.5 16.6-14.2 28-19.4L60.5 116.7c2.2 12.8 2.6 21.5.9 25.2h.2c.7 11.5 1.2 21.8 1.4 30.7l75.7 45.1 14.2-12.5c-3.9-1.9-5.8-5.5-13-16.9zm-94.3-47.1c4.7.2 9.5.4 14.3.6-3.5-.7-8.4-.9-14.3-.6zm156.9 112.9l-1 1.1 6.8 4.1v-.1c-2.8-1.8-4.5-3-5.8-5.1zm171.2 3c-8.4 3.4-17.8 3.1-26-.8l-98.7-48c-9.9 25.4-15 45-30.1 57.3l77.3 46.1c27 16.1 60.3 17.3 88.4 3.3l15.4-7.7v-60.1l-26.3 9.9zM133.4 57.2c.2-3.5.4-6.9.5-10.4-.1 3.5-.2 7-.5 10.4z"/><linearGradient id="SVGID_1_" gradientUnits="userSpaceOnUse" x1="-2520.159" y1="2163.889" x2="696.948" y2="2163.889" gradientTransform="matrix(1 0 0 -1 0 2215.92)"><stop offset="0" stop-color="#37589e"/><stop offset="1" stop-color="#3b5a9d"/></linearGradient><path d="M133.4 57.2c.2-3.5.4-6.9.5-10.4-.1 3.5-.2 7-.5 10.4z" fill="url(#SVGID_1_)"/><path class="st2" d="M0 63.6v18.8c10.1-1.7 20.7-3.4 31.5-5L0 63.6z"/><linearGradient id="SVGID_2_" gradientUnits="userSpaceOnUse" x1="-2520.159" y1="2142.924" x2="696.948" y2="2142.924" gradientTransform="matrix(1 0 0 -1 0 2215.92)"><stop offset="0" stop-color="#37589e"/><stop offset="1" stop-color="#3b5a9d"/></linearGradient><path d="M0 63.6v18.8c10.1-1.7 20.7-3.4 31.5-5L0 63.6z" fill="url(#SVGID_2_)"/><path class="st2" d="M134 41.6c0 1.8 0 3.5-.1 5.3.1-1.8.1-3.6.1-5.3z"/><linearGradient id="SVGID_3_" gradientUnits="userSpaceOnUse" x1="-203.184" y1="2171.735" x2="470.995" y2="2171.735" gradientTransform="matrix(1 0 0 -1 0 2215.92)"><stop offset="0" stop-color="#37589e"/><stop offset="1" stop-color="#3b5a9d"/></linearGradient><path d="M134 41.6c0 1.8 0 3.5-.1 5.3.1-1.8.1-3.6.1-5.3z" fill="url(#SVGID_3_)"/><path class="st2" d="M316.2 116.8c-2.6 4.7-5.5 9.3-8.5 13.8 42.9 28.9 69.9 54.8 76.3 75l-38.6 9.9-80.3-35.5c-.4.4-.6.7-.7.9l-7.3 19-7.7 7.7c-.1.3-.2.5-.3.8l98.7 48c8.1 4 17.6 4.3 26 .8l26.3-9.9v-85.4c-20.7-18-47.6-37.2-79.6-57.2l-4.3 12.1z"/><linearGradient id="SVGID_4_" gradientUnits="userSpaceOnUse" x1="-2520.159" y1="2033.801" x2="696.948" y2="2033.801" gradientTransform="matrix(1 0 0 -1 0 2215.92)"><stop offset="0" stop-color="#37589e"/><stop offset="1" stop-color="#3b5a9d"/></linearGradient><path d="M316.2 116.8c-2.6 4.7-5.5 9.3-8.5 13.8 42.9 28.9 69.9 54.8 76.3 75l-38.6 9.9-80.3-35.5c-.4.4-.6.7-.7.9l-7.3 19-7.7 7.7c-.1.3-.2.5-.3.8l98.7 48c8.1 4 17.6 4.3 26 .8l26.3-9.9v-85.4c-20.7-18-47.6-37.2-79.6-57.2l-4.3 12.1z" fill="url(#SVGID_4_)"/><path class="st2" d="M289 90.6l5.1-1.8C248.1 61.9 193.3 34 132 6.3c1 8 1.6 16.1 1.9 24.3.1 1.9.1 3.8.1 5.7 50.9 23.5 95.9 46.7 133.3 68.8 6.8-5.2 14.1-10.2 21.7-14.5z"/><linearGradient id="SVGID_5_" gradientUnits="userSpaceOnUse" x1="-2520.159" y1="2160.243" x2="696.948" y2="2160.243" gradientTransform="matrix(1 0 0 -1 0 2215.92)"><stop offset="0" stop-color="#37589e"/><stop offset="1" stop-color="#3b5a9d"/></linearGradient><path d="M289 90.6l5.1-1.8C248.1 61.9 193.3 34 132 6.3c1 8 1.6 16.1 1.9 24.3.1 1.9.1 3.8.1 5.7 50.9 23.5 95.9 46.7 133.3 68.8 6.8-5.2 14.1-10.2 21.7-14.5z" fill="url(#SVGID_5_)"/><path class="st2" d="M200.7 155.7l2.7-2.7-80.6-35.4-68.5-30.2c2.7 11.3 4.8 21.1 6.2 29.3l107.3 52.2c9.8-4.4 20.9-8.4 32.9-13.2z"/><linearGradient id="SVGID_6_" gradientUnits="userSpaceOnUse" x1="-2520.159" y1="2087.762" x2="696.948" y2="2087.762" gradientTransform="matrix(1 0 0 -1 0 2215.92)"><stop offset="0" stop-color="#37589e"/><stop offset="1" stop-color="#3b5a9d"/></linearGradient><path d="M200.7 155.7l2.7-2.7-80.6-35.4-68.5-30.2c2.7 11.3 4.8 21.1 6.2 29.3l107.3 52.2c9.8-4.4 20.9-8.4 32.9-13.2z" fill="url(#SVGID_6_)"/><path class="st2" d="M294.1 88.9l29.7-10.3c.7-.3 1.3-.3 1.9-.2 1.5.4 2.7 1.8 2.5 3.4 0 .3-.1.7-.2 1l-7.6 21.9c32 20 58.9 39.2 79.6 57.2V113C334.6 76.5 255.4 38.1 166.4 0h-35.3c.3 2.1.6 4.2.8 6.3C193.3 34 248.1 61.9 294.1 88.9z"/><linearGradient id="SVGID_7_" gradientUnits="userSpaceOnUse" x1="-2520.159" y1="2134.975" x2="696.948" y2="2134.975" gradientTransform="matrix(1 0 0 -1 0 2215.92)"><stop offset="0" stop-color="#37589e"/><stop offset="1" stop-color="#3b5a9d"/></linearGradient><path d="M294.1 88.9l29.7-10.3c.7-.3 1.3-.3 1.9-.2 1.5.4 2.7 1.8 2.5 3.4 0 .3-.1.7-.2 1l-7.6 21.9c32 20 58.9 39.2 79.6 57.2V113C334.6 76.5 255.4 38.1 166.4 0h-35.3c.3 2.1.6 4.2.8 6.3C193.3 34 248.1 61.9 294.1 88.9z" fill="url(#SVGID_7_)"/><linearGradient id="SVGID_8_" gradientUnits="userSpaceOnUse" x1="-2520.159" y1="2134.975" x2="696.948" y2="2134.975" gradientTransform="matrix(1 0 0 -1 0 2215.92)"><stop offset="0" stop-color="#224d97"/><stop offset="1" stop-color="#c46aa7"/></linearGradient><path d="M294.1 88.9l29.7-10.3c.7-.3 1.3-.3 1.9-.2 1.5.4 2.7 1.8 2.5 3.4 0 .3-.1.7-.2 1l-7.6 21.9c32 20 58.9 39.2 79.6 57.2V113C334.6 76.5 255.4 38.1 166.4 0h-35.3c.3 2.1.6 4.2.8 6.3C193.3 34 248.1 61.9 294.1 88.9z" fill="url(#SVGID_8_)"/><path class="st2" d="M400 34.5C375.1 23 349.5 11.5 323.2 0H258c50.9 23.3 98.4 46.7 142 69.8V34.5z"/><linearGradient id="SVGID_9_" gradientUnits="userSpaceOnUse" x1="-2520.159" y1="2181.007" x2="696.948" y2="2181.007" gradientTransform="matrix(1 0 0 -1 0 2215.92)"><stop offset="0" stop-color="#37589e"/><stop offset="1" stop-color="#3b5a9d"/></linearGradient><path d="M400 34.5C375.1 23 349.5 11.5 323.2 0H258c50.9 23.3 98.4 46.7 142 69.8V34.5z" fill="url(#SVGID_9_)"/><linearGradient id="SVGID_10_" gradientUnits="userSpaceOnUse" x1="-2520.159" y1="2181.007" x2="696.948" y2="2181.007" gradientTransform="matrix(1 0 0 -1 0 2215.92)"><stop offset="0" stop-color="#224d97"/><stop offset="1" stop-color="#c46aa7"/></linearGradient><path d="M400 34.5C375.1 23 349.5 11.5 323.2 0H258c50.9 23.3 98.4 46.7 142 69.8V34.5z" fill="url(#SVGID_10_)"/><path class="st2" d="M345.5 215.4l38.6-9.9c-6.4-20.1-33.4-46-76.3-75-17 25.1-38.4 44.8-42.7 49.5l80.4 35.4z"/><linearGradient id="SVGID_11_" gradientUnits="userSpaceOnUse" x1="-2520.159" y1="2042.971" x2="696.948" y2="2042.971" gradientTransform="matrix(1 0 0 -1 0 2215.92)"><stop offset="0" stop-color="#37589e"/><stop offset="1" stop-color="#3b5a9d"/></linearGradient><path d="M345.5 215.4l38.6-9.9c-6.4-20.1-33.4-46-76.3-75-17 25.1-38.4 44.8-42.7 49.5l80.4 35.4z" fill="url(#SVGID_11_)"/><linearGradient id="SVGID_12_" gradientUnits="userSpaceOnUse" x1="-2520.159" y1="2042.971" x2="696.948" y2="2042.971" gradientTransform="matrix(1 0 0 -1 0 2215.92)"><stop offset="0" stop-color="#224d97"/><stop offset="1" stop-color="#c46aa7"/></linearGradient><path d="M345.5 215.4l38.6-9.9c-6.4-20.1-33.4-46-76.3-75-17 25.1-38.4 44.8-42.7 49.5l80.4 35.4z" fill="url(#SVGID_12_)"/><path class="st2" d="M206.7 149.7l19-7.4c1.9-1.1 19-20.2 41.6-37.2C229.9 83 184.9 59.7 134 36.3v5.3c0 1.8 0 3.5-.1 5.3-.1 3.5-.2 7-.5 10.4-.7 10.4-1.9 20.6-3.7 30.7-.9 5-1.9 10-3.1 14.9-1.2 4.9-2.5 9.8-3.9 14.7l80.6 35.4 3.4-3.3z"/><linearGradient id="SVGID_13_" gradientUnits="userSpaceOnUse" x1="-2520.159" y1="2121.298" x2="696.948" y2="2121.298" gradientTransform="matrix(1 0 0 -1 0 2215.92)"><stop offset="0" stop-color="#37589e"/><stop offset="1" stop-color="#3b5a9d"/></linearGradient><path d="M206.7 149.7l19-7.4c1.9-1.1 19-20.2 41.6-37.2C229.9 83 184.9 59.7 134 36.3v5.3c0 1.8 0 3.5-.1 5.3-.1 3.5-.2 7-.5 10.4-.7 10.4-1.9 20.6-3.7 30.7-.9 5-1.9 10-3.1 14.9-1.2 4.9-2.5 9.8-3.9 14.7l80.6 35.4 3.4-3.3z" fill="url(#SVGID_13_)"/><linearGradient id="SVGID_14_" gradientUnits="userSpaceOnUse" x1="-2520.159" y1="2121.298" x2="696.948" y2="2121.298" gradientTransform="matrix(1 0 0 -1 0 2215.92)"><stop offset="0" stop-color="#224d97"/><stop offset="1" stop-color="#c46aa7"/></linearGradient><path d="M206.7 149.7l19-7.4c1.9-1.1 19-20.2 41.6-37.2C229.9 83 184.9 59.7 134 36.3v5.3c0 1.8 0 3.5-.1 5.3-.1 3.5-.2 7-.5 10.4-.7 10.4-1.9 20.6-3.7 30.7-.9 5-1.9 10-3.1 14.9-1.2 4.9-2.5 9.8-3.9 14.7l80.6 35.4 3.4-3.3z" fill="url(#SVGID_14_)"/><path class="st2" d="M400 69.8C356.5 46.7 309 23.3 258 0h-91.6c89 38.1 168.1 76.5 233.6 113V69.8z"/><linearGradient id="SVGID_15_" gradientUnits="userSpaceOnUse" x1="-2520.159" y1="2159.428" x2="696.948" y2="2159.428" gradientTransform="matrix(1 0 0 -1 0 2215.92)"><stop offset="0" stop-color="#37589e"/><stop offset="1" stop-color="#3b5a9d"/></linearGradient><path d="M400 69.8C356.5 46.7 309 23.3 258 0h-91.6c89 38.1 168.1 76.5 233.6 113V69.8z" fill="url(#SVGID_15_)"/><linearGradient id="SVGID_16_" gradientUnits="userSpaceOnUse" x1="114.862" y1="345.508" x2="553.87" y2="345.508" gradientTransform="matrix(1 0 0 -1 0 402)"><stop offset="0" stop-color="#337dad"/><stop offset="1" stop-color="#3b5a9d"/></linearGradient><path d="M400 69.8C356.5 46.7 309 23.3 258 0h-91.6c89 38.1 168.1 76.5 233.6 113V69.8z" fill="url(#SVGID_16_)"/><path class="st2" d="M400 0h-76.8c26.3 11.5 51.9 23 76.8 34.5V0z"/><linearGradient id="SVGID_17_" gradientUnits="userSpaceOnUse" x1="-2520.159" y1="2198.646" x2="696.948" y2="2198.646" gradientTransform="matrix(1 0 0 -1 0 2215.92)"><stop offset="0" stop-color="#37589e"/><stop offset="1" stop-color="#3b5a9d"/></linearGradient><path d="M400 0h-76.8c26.3 11.5 51.9 23 76.8 34.5V0z" fill="url(#SVGID_17_)"/><linearGradient id="SVGID_18_" gradientUnits="userSpaceOnUse" x1="38.283" y1="384.727" x2="692.856" y2="384.727" gradientTransform="matrix(1 0 0 -1 0 402)"><stop offset="0" stop-color="#337dad"/><stop offset="1" stop-color="#3b5a9d"/></linearGradient><path d="M400 0h-76.8c26.3 11.5 51.9 23 76.8 34.5V0z" fill="url(#SVGID_18_)"/><path class="st2" d="M51.1 74.5c1.2 4.5 2.2 8.8 3.2 12.9l68.5 30.1c1.4-4.8 2.7-9.7 3.9-14.7 1.2-4.9 2.2-9.9 3.1-14.9 1.8-10.1 3-20.3 3.7-30.7.2-3.5.4-6.9.5-10.4 0-1.7.1-3.5.1-5.3v-5.3c0-1.9-.1-3.8-.1-5.7-.3-8.2-.9-16.3-1.9-24.3-.3-2.1-.5-4.2-.8-6.3H0v63.6l31.5 13.9c6.5-.9 13-1.9 19.6-2.9z"/><linearGradient id="SVGID_19_" gradientUnits="userSpaceOnUse" x1="-2520.159" y1="2157.151" x2="696.948" y2="2157.151" gradientTransform="matrix(1 0 0 -1 0 2215.92)"><stop offset="0" stop-color="#37589e"/><stop offset="1" stop-color="#3b5a9d"/></linearGradient><path d="M51.1 74.5c1.2 4.5 2.2 8.8 3.2 12.9l68.5 30.1c1.4-4.8 2.7-9.7 3.9-14.7 1.2-4.9 2.2-9.9 3.1-14.9 1.8-10.1 3-20.3 3.7-30.7.2-3.5.4-6.9.5-10.4 0-1.7.1-3.5.1-5.3v-5.3c0-1.9-.1-3.8-.1-5.7-.3-8.2-.9-16.3-1.9-24.3-.3-2.1-.5-4.2-.8-6.3H0v63.6l31.5 13.9c6.5-.9 13-1.9 19.6-2.9z" fill="url(#SVGID_19_)"/><linearGradient id="SVGID_20_" gradientUnits="userSpaceOnUse" x1="-412.24" y1="343.232" x2="133.996" y2="343.232" gradientTransform="matrix(1 0 0 -1 0 402)"><stop offset="0" stop-color="#39b0ca"/><stop offset="1" stop-color="#3a398a"/></linearGradient><path d="M51.1 74.5c1.2 4.5 2.2 8.8 3.2 12.9l68.5 30.1c1.4-4.8 2.7-9.7 3.9-14.7 1.2-4.9 2.2-9.9 3.1-14.9 1.8-10.1 3-20.3 3.7-30.7.2-3.5.4-6.9.5-10.4 0-1.7.1-3.5.1-5.3v-5.3c0-1.9-.1-3.8-.1-5.7-.3-8.2-.9-16.3-1.9-24.3-.3-2.1-.5-4.2-.8-6.3H0v63.6l31.5 13.9c6.5-.9 13-1.9 19.6-2.9z" fill="url(#SVGID_20_)"/><path class="st23" d="M165.8 351.6H17.9c-9.3 0-16.8 7.5-16.8 16.8V400h8.6v-32.6h164.6V400h8.3v-31.7c0-9.2-7.5-16.7-16.8-16.7zM92 362.4c-1.3 0-2.3-1-2.3-2.3 0-1.3 1-2.3 2.3-2.3s2.3 1 2.3 2.3c0 1.2-1 2.3-2.3 2.3z"/><circle class="st24" cx="92" cy="360.1" r="2.3"/><path class="st24" d="M9.7 367.4V400h1.1v-31.3h162.4V400h1.1v-32.6z"/><path class="st23" d="M10.8 368.7h162.3v5.5H10.8V400h162.3v-31.3H10.8zm10.7 11.6c-1.2 0-2.1-.9-2.1-2.1 0-1.2.9-2.1 2.1-2.1s2.1.9 2.1 2.1c.1 1.2-.9 2.1-2.1 2.1zm7.6 0c-1.2 0-2.1-.9-2.1-2.1 0-1.2.9-2.1 2.1-2.1s2.1.9 2.1 2.1c0 1.2-.9 2.1-2.1 2.1zm6.5-4.2h88.7v4.2H35.6v-4.2zm74.6 15.1H104c-.8 0-1.4-.6-1.4-1.4s.6-1.4 1.4-1.4h6.2c.8 0 1.4.6 1.4 1.4s-.6 1.4-1.4 1.4zm14.7 0h-7.5c-.8 0-1.4-.6-1.4-1.4s.6-1.4 1.4-1.4h7.5c.8 0 1.4.6 1.4 1.4s-.6 1.4-1.4 1.4zm4-12.6v-.9c0-.9.8-1.7 1.7-1.7h2.9c.9 0 1.7.8 1.7 1.7v.9c0 .9-.8 1.7-1.7 1.7h-2.9c-1 0-1.7-.8-1.7-1.7zm12.6 12.6h-10c-.8 0-1.4-.6-1.4-1.4s.6-1.4 1.4-1.4h10c.8 0 1.4.6 1.4 1.4s-.6 1.4-1.4 1.4zm3.4-12.5c0 .9-.8 1.7-1.7 1.7h-2.9c-.9 0-1.7-.8-1.7-1.7v-.9c0-.9.8-1.7 1.7-1.7h2.9c.9 0 1.7.8 1.7 1.7v.9zm3.6 0v-.9c0-.9.8-1.7 1.7-1.7h2.9c.9 0 1.7.8 1.7 1.7v.9c0 .9-.8 1.7-1.7 1.7h-2.9c-1 0-1.7-.7-1.7-1.7zm16.3 12.4h-11.5c-.8 0-1.4-.6-1.4-1.4 0-.8.6-1.4 1.4-1.4h11.5c.8 0 1.4.6 1.4 1.4 0 .8-.7 1.4-1.4 1.4zm3.5-10.8h-6.2c-.3 0-.5-.2-.5-.5s.2-.5.5-.5h6.2c.3 0 .5.2.5.5-.1.3-.3.5-.5.5zm0-1.5h-6.2c-.3 0-.5-.2-.5-.5s.2-.5.5-.5h6.2c.3 0 .5.2.5.5-.1.3-.3.5-.5.5zm0-1.6h-6.2c-.3 0-.5-.2-.5-.5s.2-.5.5-.5h6.2c.3 0 .5.2.5.5-.1.3-.3.5-.5.5z"/><path class="st25" d="M35.6 373.7v.5h137.6v-5.5H30.5c2.8 0 5.1 2.2 5.1 5z"/><path class="st23" d="M35.6 374.2v-.5c0-2.8-2.3-5-5-5H10.8v5.5h24.8z"/><path class="st0" d="M35.6 376.1h88.7v4.2H35.6z"/><path class="st25" d="M133.4 380.3c.9 0 1.7-.8 1.7-1.7v-.9c0-.9-.8-1.7-1.7-1.7h-2.9c-.9 0-1.7.8-1.7 1.7v.9c0 .9.8 1.7 1.7 1.7h2.9zm9.8-4.1h-2.9c-.9 0-1.7.8-1.7 1.7v.9c0 .9.8 1.7 1.7 1.7h2.9c.9 0 1.7-.8 1.7-1.7v-.9c0-1-.8-1.7-1.7-1.7z"/><circle class="st25" cx="29.1" cy="378.2" r="2.1"/><circle class="st25" cx="21.5" cy="378.2" r="2.1"/><path class="st25" d="M154.7 378.7v-.9c0-.9-.8-1.7-1.7-1.7h-2.9c-.9 0-1.7.8-1.7 1.7v.9c0 .9.8 1.7 1.7 1.7h2.9c1 0 1.7-.7 1.7-1.7zm13.6-2.4h-6.2c-.3 0-.5.2-.5.5s.2.5.5.5h6.2c.3 0 .5-.2.5-.5-.1-.3-.3-.5-.5-.5zm0 3h-6.2c-.3 0-.5.2-.5.5s.2.5.5.5h6.2c.3 0 .5-.2.5-.5-.1-.2-.3-.5-.5-.5zm0-1.5h-6.2c-.3 0-.5.2-.5.5s.2.5.5.5h6.2c.3 0 .5-.2.5-.5-.1-.2-.3-.5-.5-.5z"/><path d="M164.8 388.4h-11.5c-.8 0-1.4.6-1.4 1.4 0 .8.6 1.4 1.4 1.4h11.5c.8 0 1.4-.6 1.4-1.4 0-.8-.7-1.4-1.4-1.4z" fill="#e2b842"/><path d="M110.2 388.3H104c-.8 0-1.4.6-1.4 1.4s.6 1.4 1.4 1.4h6.2c.8 0 1.4-.6 1.4-1.4s-.6-1.4-1.4-1.4zm14.7 0h-7.5c-.8 0-1.4.6-1.4 1.4s.6 1.4 1.4 1.4h7.5c.8 0 1.4-.6 1.4-1.4s-.6-1.4-1.4-1.4zm16.6 0h-10c-.8 0-1.4.6-1.4 1.4s.6 1.4 1.4 1.4h10c.8 0 1.4-.6 1.4-1.4s-.6-1.4-1.4-1.4z" fill="#252725"/><path class="st28" d="M.7 174.5c.1-.3.2-.6.2-.9 0-.3 0-.5-.1-.7-.1-.2-.2-.4-.4-.5-.1-.1-.2-.1-.4-.2v3.1c.1 0 .1-.1.2-.1.2-.2.4-.5.5-.7z"/><path class="st28" d="M63 172.6a652 652 0 0 0-1.4-30.7h-.2c0 .1-.1.2-.1.3-.4-.1-.9-.2-1.4-.3-4.8-.2-9.5-.4-14.3-.6-11.7.6-27.6 3.1-45.6 6.5v22.4c.5 0 .9.1 1.4.3.5.2.9.4 1.3.8.3.3.6.7.7 1.1.2.4.2.9.2 1.4 0 .5-.1.9-.3 1.3-.2.4-.4.8-.8 1.2s-.8.6-1.4.8c-.4.1-.8.2-1.2.2v27.2c27.7.1 50.1 1.5 59 6 3.2-4.3 4.5-17.4 4.1-37.9zm-51 2.6c-.2.4-.4.8-.8 1.2-.4.4-.8.6-1.4.8-.5.2-1.1.2-1.7.2-.6 0-1.1-.1-1.6-.3-.5-.2-.9-.4-1.3-.7-.3-.3-.6-.7-.7-1.1-.2-.4-.2-.9-.2-1.4 0-.5.1-.9.3-1.4.2-.4.5-.8.8-1.1.4-.3.8-.6 1.4-.8.5-.2 1.1-.2 1.7-.2.5 0 1.1.1 1.6.3.5.2.9.4 1.2.8.3.3.6.7.7 1.1.2.4.2.9.2 1.4 0 .3 0 .8-.2 1.2zm6.1-2.5h-1.5l-.1 1.6v.5c0 .2 0 .4.1.5 0 .1.1.2.2.3.1.1.2.1.4.1h.3c.1 0 .3-.1.6-.1-.1.4-.2.7-.2 1.1l-.2.8c-.4.1-.8.1-1 .2H16c-.4 0-.7-.1-1-.1-.3-.1-.5-.2-.7-.4-.2-.2-.3-.4-.4-.6-.1-.2-.1-.5-.1-.7v-.2c0-.1 0-.4.1-.7l.2-2.3h-1c0-.3.1-.7.1-1.2v-.6h1.1c0-.2.1-.6.1-1.3l1.1-.2c.2 0 .6-.1 1.3-.3 0 .6-.1 1.2-.1 1.8h1.5c0 .9-.1 1.5-.1 1.8zm3.8.3s0 .1.1.1l.2.2c.1.1.2.2.5.4s.5.3.6.5l.5.5c.1.2.2.3.3.5.1.2.1.4.1.6 0 .3-.1.6-.2.9-.2.3-.4.5-.7.6-.3.2-.6.3-1 .3-.4.1-.7.1-1.1.1-.3 0-.6 0-1-.1s-.8-.1-1.3-.3v-.6c0-.2 0-.5-.1-.9v-.5c.4.2.8.3 1.1.4.3.1.6.1.8.1h.5c.1 0 .2-.1.3-.2.1-.1.1-.1.1-.2s0-.1-.1-.2c0-.1-.1-.2-.3-.3-.4-.3-.7-.5-.9-.7-.3-.2-.5-.4-.6-.6-.1-.2-.2-.4-.3-.5-.1-.2-.1-.4-.1-.6 0-.4.1-.7.3-1 .2-.3.5-.5.9-.7.4-.1.9-.2 1.5-.2s1.4.1 2.3.3l.1 1.8c-.5-.2-1-.3-1.5-.4-.3 0-.6 0-.8.1-.2.1-.2.2-.2.3-.1.3 0 .3 0 .3zm8.4 0h-1.5l-.1 1.6v.5c0 .2 0 .4.1.5 0 .1.1.2.2.3.1.1.2.1.4.1h.3c.1 0 .3-.1.6-.1-.1.4-.2.7-.2 1.1l-.2.8c-.4.1-.8.1-1 .2h-.7c-.4 0-.7-.1-1-.1-.3-.1-.5-.2-.7-.4-.2-.2-.3-.4-.4-.6-.1-.2-.1-.5-.1-.7v-.2c0-.1 0-.4.1-.7l.2-2.3h-1c0-.3.1-.7.1-1.2v-.6h1.1c0-.2.1-.6.1-1.3l1.1-.2c.2 0 .6-.1 1.3-.3 0 .6-.1 1.2-.1 1.8h1.5c0 .9-.1 1.5-.1 1.8zm5.3.2c-.3 0-.5 0-.7.1-.2.1-.4.2-.5.3-.2.2-.3.3-.4.6-.1.2-.2.6-.2 1.1 0 .5-.1 1.1-.1 1.7v.8H31l.3-2.9.1-1.7v-2.1H34v.7l.4-.4c.1-.1.2-.2.4-.2.1-.1.3-.1.4-.2h.5c.2 0 .3 0 .5.1v2.2c-.2 0-.4-.1-.6-.1zm8.1 1.6c-.1.9-.2 2-.2 3.4h-2.6c.1-.5.2-1.5.3-3-.2.1-.3.1-.4.2-.1 0-.3.1-.5.1-.2.1-.4.1-.6.2-.1 0-.3.1-.4.2-.1.1-.2.1-.2.2s-.1.2-.1.3c0 .1.1.3.2.4.1.1.3.2.6.2h.3c.1 0 .2 0 .4-.1-.1.3-.3.8-.5 1.5-.4.1-.7.1-1.1.1-.5 0-1-.1-1.3-.3-.4-.2-.6-.4-.8-.8-.2-.3-.3-.7-.3-1 0-.2 0-.4.1-.6.1-.2.2-.4.4-.6.2-.2.3-.3.6-.5.2-.1.5-.2.9-.4.4-.1.8-.2 1.4-.3.2 0 .4-.1.6-.1.2 0 .3-.1.4-.1.1 0 .1-.1.2-.1s.1-.1.1-.2v-.2c0-.2-.1-.3-.2-.4-.1-.1-.3-.1-.6-.2-.8 0-1.7.2-2.8.6.1-.4.2-.7.2-.9 0-.2.1-.4.1-.8 1.3-.2 2.4-.4 3.3-.3.5 0 1 .1 1.4.2.4.1.8.3 1 .6.2.3.3.6.3 1.1 0 .2-.1.7-.2 1.6zm9 1.6c-.1.4-.4.8-.6 1.1-.3.3-.6.6-1 .7-.4.2-.7.2-1.2.2-.2 0-.4 0-.7-.1-.2 0-.4-.1-.6-.2-.2-.1-.4-.2-.5-.3-.1-.1-.3-.2-.5-.4l-.1 1.8c-.1.8-.1 1.5-.1 1.9h-2.7l.3-2.7c.1-1.5.2-2.8.3-3.8.1-1 .1-2.1.1-3.1.9-.1 1.6-.2 2.1-.2H49c.6 0 1.2.1 1.7.2s.9.4 1.3.7c.3.3.5.7.7 1.2.1.5.2.9.2 1.4 0 .7-.1 1.2-.2 1.6z"/><path class="st28" d="M48.9 173.3c-.3 0-.6 0-1 .1 0 .2-.1.4-.1.5 0 .1 0 .3-.1.5v.5c0 .4 0 .7.1.9.1.2.3.4.4.6.2.1.4.2.6.2.2 0 .5-.1.7-.2.2-.1.4-.3.5-.6.1-.3.2-.6.2-.9 0-.5-.1-.8-.3-1.1-.1-.3-.5-.5-1-.5zm-39.8-.8c-.2-.1-.4-.2-.7-.2-.3 0-.5.1-.8.2-.2.1-.4.3-.5.6-.1.3-.1.6-.1.9 0 .5.1.9.3 1.1.2.3.5.4.9.4.3 0 .5-.1.7-.2.2-.1.4-.4.5-.6.1-.3.2-.6.2-.9 0-.3 0-.5-.1-.7-.1-.3-.2-.5-.4-.6z"/><path class="st23" d="M26.1 86.7c0-.2-.1-.3-.2-.5-.1-.1-.2-.2-.3-.2h-.4c-.1 0-.2.1-.3.1-.1.1-.2.1-.2.2-.1.1-.1.2-.2.3 0 .1-.1.2-.1.3v.4l1.8-.4c0-.1 0-.1-.1-.2z"/><path class="st23" d="M45.6 141.2c5.9-.3 10.7-.1 14.3.6.5.1 1 .2 1.4.3 0-.1.1-.2.1-.3 1.7-3.8 1.3-12.4-.9-25.2-1.4-8.1-3.5-17.9-6.2-29.3-1-4.1-2.1-8.4-3.2-12.9-6.6 1-13.1 1.9-19.6 2.9-10.8 1.6-21.4 3.3-31.5 5v5.4h.2c.4-.1.8-.2 1.1-.2v.3l.1.7c0 .1 0 .2.1.4-.4.1-.7.1-1 .2-.1 0-.3.1-.5.1v.7c.2 0 .4-.1.6-.1.3-.1.6-.1 1.1-.2.1.7.1 1.3.2 1.8s.2 1 .3 1.6c.2 1 .3 1.7.4 2.1-.4.1-.8.1-1.1.2-.3.1-.7.1-1.2.3 0-.4-.1-.8-.1-1.1 0-.3-.1-.7-.1-1.1v-.2 24c.6 1.5 1.2 2.9 1.8 4.4.1.1.1.3.2.3-.1-4.6-.1-9.2.1-13.9.1-2 .2-4 .7-6 .2-.7.5-1.5 1.1-1.9 3.6-.7 7.3-1.5 11-2.2.3-.1.6-.1.9-.2.5.2 1 .5 1.3.9.7.7 1.1 1.5 1.6 2.3 1.2 2.2 2.3 4.5 3.3 6.8 1.3 3.1 2.6 6.3 3.8 9.4.3.8.6 1.5.9 2.3 0 0 .1.1.2.1.2-.5.3-1 .6-1.4.5-.8 1.2-1.4 2.1-1.5l7.5-1.5c1.1-.2 2.1-.5 3.2-.6-.3.3-.6.4-.9.7-1 .8-1.9 1.8-2.3 3-.7 1.9-.6 4-.5 6 .1 2 .5 4 .2 6-.2 1.4-.5 2.9-1.5 3.9-3.5.7-6.9 1.4-10.4 2.1-.2 0-.4.1-.7.1-.7.2-1.3-.4-1.8-.9-1-1.2-1.7-2.6-2.5-4-2.5-5.1-4.6-10.4-6.7-15.7 0-.1-.1-.1-.2-.2.1 4 .1 8 .1 12 0 2-.1 4-.3 6-.1 1.2-.3 2.5-.6 3.7-.2.6-.4 1.2-.9 1.5L.9 140.8c-.2 0-.4.1-.6.1-.1.1-.3.1-.4.1v6.5c18.1-3.2 34-5.6 45.7-6.3zM22.4 87.1c.1-.5.3-.9.5-1.2.2-.3.5-.5.9-.7.4-.2.7-.3 1.1-.4.4-.1.8-.1 1.2-.1.4 0 .7.1 1 .3.3.2.5.4.7.7.2.3.3.6.4.9 0 .2.1.4.1.7l-3.8.8v.2c.1.4.3.6.6.8.3.1.7.2 1.1.1.2 0 .5-.1.8-.2.3-.1.6-.3 1.1-.5v1.6c-.4.2-.7.3-1 .4-.3.1-.6.2-.9.2-.4.1-.8.1-1.2.1-.4 0-.7 0-1-.1-.3-.1-.5-.2-.8-.4-.2-.2-.4-.4-.6-.7-.2-.3-.3-.6-.3-.9 0-.7 0-1.2.1-1.6zm-3.6-.9c1-.2 1.7-.3 2.2-.5 0 .2.1.7.3 1.7-.1.1-.2.3-.3.4l-1.7 2.4c.3-.1.8-.2 1.5-.3.3-.1.5-.1.9-.2 0 .3.1.8.2 1.5-.5.1-1.3.2-2.4.5-1.1.2-1.9.4-2.4.5-.1-.4-.2-.9-.3-1.6.1-.2.2-.3.3-.4l1.7-2.5c-.9.2-1.6.4-2.3.5 0-.2-.1-.4-.1-.7l-.1-.5-.1-.3c.6-.1 1.4-.3 2.6-.5zm-3.4 2.5c.1.5.2 1.1.3 1.6.2 1 .3 1.7.4 2.1-.4.1-.8.1-1.1.2-.3.1-.7.1-1.2.3 0-.4-.1-.8-.1-1.1 0-.3-.1-.7-.1-1.1-.1-.4-.1-.9-.2-1.5-.1-.5-.2-1.2-.3-1.9.5-.1.8-.2 1.1-.2.3-.1.6-.1 1.1-.2 0 .7.1 1.3.1 1.8zm-1.6-3.6c.4-.1.8-.2 1.1-.2v.3l.1.7c0 .1 0 .2.1.4-.4.1-.7.1-1 .2-.3.1-.7.1-1.1.2-.1-.4-.1-.8-.2-1 0-.1 0-.2-.1-.3.4-.2.8-.3 1.1-.3zM8.2 94c-.3.1-.7.1-1.1.2 0-.4-.1-1.2-.3-2.5-.1.1-.2.2-.3.2-.1 0-.2.1-.4.2s-.3.2-.4.2-.2.1-.3.2c-.1.1-.1.2-.1.2v.2c0 .1.1.2.2.3.1.1.3.1.5 0 .1 0 .2 0 .2-.1.1 0 .2-.1.3-.2 0 .3-.1.7-.1 1.3l-.9.3c-.4.1-.8.1-1.1 0-.3-.1-.6-.2-.8-.5-.2-.2-.3-.5-.4-.8v-.5c0-.2.1-.3.2-.5s.2-.3.4-.5c.1-.1.4-.3.6-.4.2 0 .6-.1 1-.3.2-.1.3-.1.5-.2.1-.1.3-.1.3-.2.1 0 .1-.1.1-.1l.1-.1v-.1c0-.1-.1-.2-.2-.3-.1-.1-.3-.1-.5 0-.6.1-1.3.4-2.2 1v-1.4c1-.4 1.9-.7 2.6-.9.4-.1.8-.1 1.2-.1.4 0 .7.1.9.3.2.2.4.5.5.9 0 .2.1.7.2 1.4s.2 1.6.4 2.8c-.4-.2-.8-.1-1.1 0zm2.2-.5l-.1-1.2-.6-4.1-.4-2.2c.5-.1.9-.2 1.1-.2.3-.1.7-.1 1.1-.2l.2 1.7.6 4.1.3 1.6c-.4.1-.7.1-1 .2l-1.2.3z"/><path class="st29" d="M.4 141.2c.7-.8.8-1.8 1-2.8.3-1.9.4-3.9.5-5.8.1-3.6.1-7.2.1-10.8-.2 0-.2-.2-.2-.3-.6-1.5-1.2-2.9-1.8-4.4v24.2c.1 0 .3 0 .4-.1z"/><path class="st30" d="M1.9 132.6c-.1 1.9-.2 3.9-.5 5.8-.2 1-.4 2-1 2.8.2 0 .4-.1.6-.1l10.5-2.1c.5-.4.7-1 .9-1.5.4-1.2.5-2.5.6-3.7.2-2 .2-4 .3-6 .1-4 0-8-.1-12 0-4.1-.1-8.1.3-12.2.1-1.5.3-3 .7-4.4.1-.5.4-.9.7-1.3-3.7.7-7.3 1.4-11 2.2-.7.4-.9 1.2-1.1 1.9-.5 1.9-.6 4-.7 6-.2 4.6-.2 9.2-.1 13.9.1 3.5.1 7.1-.1 10.7z"/><path class="st29" d="M13.5 103.6c-.3 4-.3 8.1-.3 12.2.1 0 .1.1.2.2 2.1 5.3 4.1 10.6 6.7 15.7.7 1.4 1.4 2.8 2.5 4 .5.5 1.1 1.1 1.8.9.5-.3.8-.7 1.1-1.2.5-1 .7-2.2.9-3.3.2-1.5.2-3.1.2-4.7-.1-2-.1-4 .1-6 .1-.6.1-1.1.3-1.7 0 0-.1-.1-.2-.1-.2-.8-.6-1.5-.9-2.3-1.2-3.1-2.5-6.3-3.8-9.4-1-2.3-2-4.6-3.3-6.8-.5-.8-1-1.6-1.6-2.3-.4-.4-.8-.7-1.3-.9-.3 0-.6.1-.9.2-.3.4-.6.8-.7 1.3-.5 1.3-.7 2.8-.8 4.2z"/><path class="st30" d="M26.4 127.3c0 1.6 0 3.1-.2 4.7-.1 1.1-.3 2.3-.9 3.3-.2.5-.6.9-1.1 1.2.2 0 .4-.1.7-.1 3.4-.7 6.9-1.3 10.4-2.1.9-1.1 1.3-2.5 1.5-3.9.3-2-.1-4-.2-6s-.1-4.1.5-6c.4-1.2 1.2-2.3 2.3-3 .3-.2.7-.4.9-.7-1.1.1-2.1.4-3.2.6l-7.5 1.5c-.9.1-1.7.7-2.1 1.5-.3.4-.4.9-.6 1.4-.2.5-.3 1.1-.3 1.7-.2 1.9-.2 3.9-.2 5.9z"/><path d="M.2 94.5c0 .3.1.7.1 1.1.5-.1.9-.2 1.2-.3.3-.1.7-.1 1.1-.2-.1-.4-.2-1.1-.4-2.1-.1-.6-.2-1.1-.3-1.6-.1-.5-.2-1.1-.2-1.8-.5.1-.8.2-1.1.2-.2 0-.4.1-.6.1v3.4c.1.5.1.9.2 1.2zm1.3-5.6c0-.1 0-.3-.1-.4l-.1-.7v-.3c-.3.1-.7.1-1.1.2H0V89c.2 0 .3-.1.5-.1.3.1.7 0 1 0zM8.8 91c-.1-.7-.2-1.2-.2-1.4-.1-.4-.2-.7-.5-.9-.2-.2-.5-.3-.9-.3s-.8 0-1.2.1c-.7.1-1.6.4-2.6.9v1.4c.8-.5 1.6-.9 2.2-1h.5c.1.1.2.1.2.3v.1s0 .1-.1.1-.1.1-.1.1c-.1 0-.2.1-.3.2-.1.1-.3.1-.5.2-.4.2-.8.3-1.1.5-.3.2-.5.3-.6.4-.1.1-.3.3-.4.5-.1.2-.2.4-.2.5v.5c.1.3.2.5.4.8.2.2.5.4.8.5.3.1.7.1 1.1 0 .3-.1.6-.1.9-.3 0-.6.1-1 .1-1.3-.1.1-.3.1-.3.2-.1 0-.2.1-.2.1h-.5c-.1-.1-.2-.2-.2-.3v-.2c0-.1.1-.1.1-.2.1-.1.2-.1.3-.2s.2-.1.4-.2c.4-.1.5-.1.6-.2.1 0 .2-.1.3-.2.2 1.3.3 2.1.3 2.5.4-.1.7-.2 1.1-.2.3-.1.7-.1 1.1-.2-.3-1.2-.4-2.1-.5-2.8zm3.8 2.1l-.3-1.6-.6-4.1-.2-1.7c-.4.1-.8.2-1.1.2-.2.1-.6.1-1.1.2l.4 2.2.6 4.1.1 1.2 1.2-.2c.3-.2.6-.2 1-.3zm.3-6.5c.4-.1.8-.2 1.1-.2.3-.1.7-.1 1-.2 0-.1 0-.3-.1-.4l-.1-.7v-.3c-.3.1-.7.1-1.1.2-.3.1-.7.1-1.1.2 0 .1 0 .2.1.3.1.3.1.7.2 1.1zm.1.7c.1.7.2 1.3.3 1.9.1.5.2 1 .2 1.5.1.4.1.8.1 1.1 0 .3.1.7.1 1.1.5-.1.9-.2 1.2-.3.3-.1.7-.1 1.1-.2-.1-.4-.2-1.1-.4-2.1-.1-.6-.2-1.1-.3-1.6-.1-.5-.2-1.1-.2-1.8-.5.1-.8.2-1.1.2-.2 0-.5.1-1 .2zm3.5.1c.1.3.1.6.1.7.6-.2 1.4-.4 2.3-.5l-1.7 2.5c-.1.1-.2.3-.3.4.1.7.2 1.2.3 1.6.5-.1 1.3-.3 2.4-.5 1.1-.2 1.9-.4 2.4-.5-.1-.7-.2-1.2-.2-1.5-.3.1-.6.1-.9.2-.6.1-1.1.2-1.5.3l1.7-2.4c.1-.1.2-.2.3-.4-.2-1-.2-1.6-.3-1.7-.5.1-1.3.3-2.2.5-1.2.2-2 .4-2.5.5l.1.3v.5zm6.2 2c.2.3.3.5.6.7.2.2.5.3.8.4.3.1.6.1 1 .1s.8-.1 1.2-.1c.3-.1.6-.1.9-.2.3-.1.6-.2 1-.4v-1.6c-.4.2-.8.4-1.1.5-.3.1-.6.2-.8.2-.4.1-.8.1-1.1-.1-.3-.1-.5-.4-.6-.8v-.2l3.8-.8c0-.3 0-.5-.1-.7-.1-.3-.2-.7-.4-.9-.2-.3-.4-.5-.7-.7-.3-.2-.7-.3-1-.3-.4 0-.8 0-1.2.1-.4.1-.8.2-1.1.4-.4.2-.7.4-.9.7-.2.3-.4.7-.5 1.2-.1.5-.1.9 0 1.4-.1.5.1.8.2 1.1zm1.7-2.5c0-.1 0-.2.1-.3 0-.1.1-.2.2-.3.1-.1.1-.2.2-.2.1-.1.2-.1.3-.1h.4c.1 0 .3.1.3.2.1.1.2.3.2.5v.2l-1.8.4c.1-.2.1-.3.1-.4zM2.5 176.1c.4-.4.6-.7.8-1.2.2-.4.2-.9.3-1.3 0-.5-.1-.9-.2-1.4-.2-.4-.4-.8-.7-1.1-.3-.3-.8-.6-1.3-.8-.4-.2-.9-.2-1.4-.3v2c.1 0 .3.1.4.2.2.1.3.3.4.5.1.2.1.5.1.7 0 .3-.1.6-.2.9-.1.3-.3.5-.5.6-.1 0-.1.1-.2.1v1.9c.4 0 .8-.1 1.2-.2.5.1 1-.2 1.3-.6zm8.8-4.7c-.3-.3-.8-.6-1.2-.8-.5-.2-1-.3-1.6-.3-.6 0-1.1.1-1.7.2-.5.2-1 .4-1.4.8-.4.3-.7.7-.8 1.1-.2.4-.3.9-.3 1.4 0 .5.1.9.2 1.4.2.4.4.8.7 1.1.3.3.8.6 1.3.7.5.2 1 .3 1.6.3.6 0 1.2-.1 1.7-.2.5-.2 1-.4 1.4-.8.4-.4.6-.7.8-1.2.2-.4.2-.9.3-1.3 0-.5-.1-.9-.2-1.4-.2-.3-.4-.7-.8-1zm-1.9 3.3c-.1.3-.3.5-.5.6-.2.1-.5.2-.7.2-.4 0-.7-.1-.9-.4-.2-.3-.3-.6-.3-1.1 0-.3.1-.6.2-.9.1-.3.3-.5.5-.6.2-.1.5-.2.8-.2.3 0 .5.1.7.2.2.1.3.3.4.5.1.2.1.5.1.7-.1.4-.1.7-.3 1zm7.4-5.7c-.7.1-1.1.2-1.3.3l-1.1.2c-.1.7-.1 1.1-.1 1.3h-1.1v.6c0 .5-.1.9-.1 1.2h1l-.2 2.3c0 .4-.1.6-.1.7v.2c0 .2 0 .5.1.7.1.2.2.4.4.6.2.2.4.3.7.4.3.1.6.1 1 .1h.7c.2 0 .6-.1 1-.2l.2-.8c.1-.3.1-.7.2-1.1-.3.1-.5.1-.6.1h-.3c-.1 0-.3 0-.4-.1-.1-.1-.2-.2-.2-.3 0-.1-.1-.3-.1-.5v-.5l.1-1.6h1.5c0-.3 0-.9.1-1.8h-1.5c.1-.6.1-1.2.1-1.8zm5.3 3.6c.2-.1.4-.1.8-.1.5 0 1 .1 1.5.4l-.1-1.8c-.9-.2-1.7-.3-2.3-.3-.6 0-1.1 0-1.5.2-.4.1-.7.4-.9.7-.2.3-.3.6-.3 1 0 .2 0 .4.1.6.1.2.2.4.3.5.1.2.3.4.6.6.3.2.6.5.9.7.2.1.3.2.3.3 0 .1.1.1.1.2s0 .2-.1.2c-.1.1-.2.1-.3.2-.1 0-.3.1-.5 0-.3 0-.5-.1-.8-.1-.3-.1-.7-.2-1.1-.4v.5c0 .4 0 .7.1.9v.6c.5.1.9.2 1.3.3.4.1.7.1 1 .1.4 0 .7 0 1.1-.1.4-.1.7-.2 1-.3.3-.2.5-.4.7-.6.2-.3.2-.5.2-.9 0-.2 0-.4-.1-.6-.1-.2-.2-.4-.3-.5-.1-.2-.3-.4-.5-.5-.1-.1-.3-.3-.6-.5s-.4-.3-.5-.4l-.2-.2-.1-.1v-.1c-.1-.3 0-.4.2-.5zm6.9-3.3c-.7.1-1.1.2-1.3.3l-1.1.2c-.1.7-.1 1.1-.1 1.3h-1.1v.6c0 .5-.1.9-.1 1.2h1l-.2 2.3c0 .4-.1.6-.1.7v.2c0 .2 0 .5.1.7.1.2.2.4.4.6.2.2.4.3.7.4.3.1.6.1 1 .1h.7c.2 0 .6-.1 1-.2l.2-.8c.1-.3.1-.7.2-1.1-.3.1-.5.1-.6.1h-.3c-.1 0-.3 0-.4-.1-.1-.1-.2-.2-.2-.3 0-.1-.1-.3-.1-.5v-.5l.1-1.6h1.5c0-.3 0-.9.1-1.8h-1.5c.1-.6.1-1.2.1-1.8zm7.2 1.9c-.2 0-.4-.1-.5-.1h-.5c-.2 0-.3.1-.4.2-.1.1-.3.2-.4.2-.1.1-.3.2-.4.4v-.7h-2.6v2.1l-.1 1.7-.3 2.9h2.7v-.8c0-.6.1-1.2.1-1.7s.1-.9.2-1.1c.1-.2.2-.4.4-.6.1-.2.3-.3.5-.3.2-.1.4-.1.7-.1.2 0 .4 0 .7.1v-1c-.1-.4-.1-.8-.1-1.2zm6.3.2c-.4-.1-.9-.2-1.4-.2-.9 0-2 .1-3.3.3-.1.3-.1.6-.1.8 0 .2-.1.5-.2.9 1.1-.4 2.1-.6 2.8-.6.3 0 .5.1.6.2.1.1.2.2.2.4v.2c0 .1-.1.1-.1.2-.1 0-.1.1-.2.1s-.2.1-.4.1-.4.1-.6.1c-.5.1-1 .2-1.4.3-.4.1-.6.2-.9.4-.2.1-.4.3-.6.5-.2.2-.3.4-.4.6-.1.2-.1.4-.1.6 0 .3.1.7.3 1 .2.3.5.6.8.8.4.2.8.2 1.3.3.3 0 .7 0 1.1-.1.2-.6.4-1.1.5-1.5-.2.1-.3.1-.4.1h-.3c-.3 0-.4-.1-.6-.2-.1-.1-.2-.2-.2-.4 0-.1 0-.2.1-.3 0-.1.1-.2.2-.2.1-.1.2-.1.4-.2.1 0 .3-.1.6-.2.2-.1.4-.1.5-.1.1 0 .2-.1.4-.2-.1 1.5-.2 2.5-.3 3h2.6c.1-1.4.2-2.5.2-3.4.1-.9.1-1.4.1-1.6 0-.5-.1-.9-.3-1.1-.1-.2-.4-.4-.9-.6zm9.5 1c-.3-.3-.7-.6-1.3-.7s-1.1-.2-1.7-.2h-1.5c-.5 0-1.2.1-2.1.2 0 1-.1 2-.1 3.1-.1 1-.2 2.3-.3 3.8l-.3 2.7h2.7c0-.4 0-1.1.1-1.9l.1-1.8c.2.2.4.3.5.4.1.1.3.2.5.3.2.1.4.1.6.2.2 0 .4.1.7.1.4 0 .8-.1 1.2-.2.4-.2.7-.4 1-.7.3-.3.5-.7.6-1.1.1-.4.2-.9.2-1.3 0-.5-.1-1-.2-1.4-.2-.7-.4-1.2-.7-1.5zm-1.9 3.4c-.1.3-.3.5-.5.6-.2.1-.4.2-.7.2-.2 0-.4-.1-.6-.2-.2-.1-.3-.3-.4-.6-.1-.2-.2-.5-.1-.9v-.5c0-.2 0-.4.1-.5 0-.1 0-.3.1-.5.4-.1.7-.1 1-.1.5 0 .8.2 1.1.5.2.3.4.7.3 1.1-.1.3-.1.6-.3.9z"/><g id="Roket_1_"><path class="st31" d="M325.7 78.4c-.6-.1-1.3-.1-1.9.2l-34.9 12.1c-32.5 18.2-61 50.4-63.5 51.7l-19 7.4-6 6c-26.3 10.5-48.1 17-61 32.7 7.2 11.4 9.2 15.1 13 17l-15 13.1c-.6 1.6-.9 3.1-.8 4.7-7.2 1.4-22.2 6.1-29.6 21.7-10.1 21-25.4 41-18 44.7-9.5 8.5-14.8 14-19.5 19.9-1.5 1.9-.1 4.8 2.3 4.7 8.4-.3 24.4-1.7 39.9-7.8 8.6 1.9 88.7-9 75.1-37.2.5-.1 1.1-.3 1.6-.5l13.7-14.3c2.5 3.8 6 4.8 16.5 11.5 15.2-12.5 20.3-32.4 30.4-58.2l7.7-7.7 7.4-19c1.4-2.5 33.3-30.4 52-64.3l11.8-34c.1-.3.2-.7.2-1 .3-1.6-.8-3.1-2.4-3.4z"/><path d="M172.9 254.4c-.9-.7-5.1-1.1-10.5-.5-1.3-2.8-3.5-5.6-6.8-8.4.1-5.4-2.5-11.1-9-17 0 0-21.4-4.1-30.2 14.9s-11.6 34-20.9 41.6c-1.6 1.3 0 1.5 3.4.9-6.4 9.7-12.9 17.8-19.6 22.2-4.9 3.2 15.3-1.2 37.1-10-.4.3-.7.6-1.1.9-11.9 9.3 99.3-13 57.6-44.6z" fill="#da7632"/><path d="M172.6 254.4s-5-.2-10.6 1.8c-.7-3.5-3-7.1-7.6-10.8 0 0-.9 0-2.4.1 1.8-4.8.4-10-6.9-15.4 0 0-16.8-.5-23.6 11.4-6.8 11.9-.1 20.7-7.2 25.5-2.3 1.6 3.3.6 10.9-2.3-5.6 11.5-8 19.1-15 24.2-4.2 3.1 17.2-1.5 33.8-10.5-1.3 2.9-2.3 4.5-6.1 7.3-7 5.1 64.1-7.4 34.7-31.3z" fill="#efd153"/><path d="M171.7 256s-6.2-.2-11.4 3.1c1-3.7-.4-7.7-5.7-12.1 0 0-3.1-.1-6.9.9 3.6-4.3 4.2-9.6-2.4-15.5 0 0-11.4-.4-15.9 9.2-4.6 9.6-1.2 13.7-6 17.6-2 1.6 5.2.3 12.7-3.2-.2.3-.4.7-.6 1-5.5 10.5-1.4 15-7.2 19.2-3.4 2.5 15.2-1.4 25.6-9.2-2.9 7.1-.6 10.6-5 13.8-5 3.8 43.7-8.1 22.8-24.8z" fill="#f9ef8a"/><path d="M174.1 219.5l-12.4 15.6c-4.9 4.9-20.7-10.9-15.8-15.8l15.6-12.5 12.6 12.7z" fill="#555659" stroke="#4e4e4e" stroke-miterlimit="10"/><path d="M199.7 245.1l-12.4 15.6c-4.9 4.9-20.7-10.9-15.8-15.8l15.6-12.5 12.6 12.7z" fill="#161616" stroke="#4e4e4e" stroke-miterlimit="10"/><path d="M183.7 235.5l-12.4 15.6c-4.9 4.9-20.7-10.9-15.8-15.8l15.6-12.5 12.6 12.7z" fill="#3a3a3a" stroke="#4e4e4e" stroke-miterlimit="10"/><path class="st38" d="M224.9 160.1l21.7 21.7-51.3 57.5c-6.7 6.7-34.5-21.2-27.9-27.9l57.5-51.3z"/><path class="st38" d="M311.9 113.5c-17.1 30.9-41.8 55-73.1 73.1-8.8-3.3-15.1-9.4-18.7-18.7 18.7-32.6 43.4-56.5 73.1-73.1l25.2-10c2.2-.9 4.4 1.3 3.5 3.5l-10 25.2zm-98.6 44.9c-22.6 9.9-52.8 16.8-64.3 30.9 8.3 13 13.8 18.5 16.7 16.7l47.6-47.6z"/><path d="M238.9 178.1c-5.1-3-8.9-7.5-11.3-13.7 14.2-24.6 32.3-43.4 54-57.1 1.2-.8 1.5.7.4 1.7-17.7 15.2-44.7 50-40 67 .4 1.7-1.7 3-3.1 2.1z" fill="#59c0cd"/><path d="M223.4 173.9l14-7.9c2-1.1 4.2 1.1 3.1 3.1l-7.9 14-51.6 51.6c-5.8-.4-8.9-3.4-9.3-9.3l51.7-51.5z" fill="#ce6161" stroke="#4e4e4e" stroke-miterlimit="10"/><path d="M241.5 184.6l14.2-8c2-1.1 4.3 1.1 3.1 3.1l-8 14.2-52.3 52.3c-5.9-.4-9-3.5-9.4-9.4l52.4-52.2z" fill="#cc5050" stroke="#4e4e4e" stroke-miterlimit="10"/><path d="M212.7 155.7l14.2-8c2-1.1 4.3 1.1 3.1 3.1l-8 14.2-52.3 52.3c-5.9-.4-9-3.5-9.4-9.4l52.4-52.2z" fill="#f29495" stroke="#4e4e4e" stroke-miterlimit="10"/><path class="st43" d="M311.9 113.5c-8.3 8.3-27-10.5-18.7-18.7l25.2-10c2.2-.9 4.4 1.3 3.5 3.5l-10 25.2z"/><path d="M247.7 192.8c-9.9 22.6-16.8 52.8-30.9 64.3-13-8.3-18.5-13.8-16.7-16.7l47.6-47.6z" fill="#e2e2e1" stroke="#4e4e4e" stroke-miterlimit="10"/><circle class="st43" cx="285.2" cy="121.5" r="8.1"/><path d="M281.4 117.1c3.8-2.3-2.9 8.8 8.1 8.1-2.2 2.2-5.9 2.2-8.1 0-2.3-2.2-2.3-5.8 0-8.1z" fill="#6d92cc"/><path d="M298.1 107.1c-3.1-3.6-4.6-8.2-1.7-11.2l19.5-7.7c6.9-.1-20.5 5.2-17.8 18.9z" fill="#efba34"/><path class="st47" d="M325.7 78.4c-.6-.1-1.3-.1-1.9.2l-34.9 12.1c-32.5 18.2-61 50.4-63.5 51.7l-19 7.4-6 6c-26.3 10.5-48.1 17-61 32.7 7.2 11.4 9.2 15.1 13 17l-15 13.1c-.6 1.6-.9 3.1-.8 4.7-7.2 1.4-22.2 6.1-29.6 21.7-10.1 21-25.4 41-18 44.7-9.5 8.5-14.8 14-19.5 19.9-1.5 1.9-.1 4.7 2.3 4.7 23-.5 78.1-28.5 119.8-111.5S328 82.8 328 82.8c.1-.3.2-.7.2-1 .2-1.6-.9-3.1-2.5-3.4z"/></g><path class="st48" d="M10.8 384.3l41 15.7m121.4-15.7L136.5 400"/><path d="M166.2 387.3h-14.3c-1.1 0-2.1 1.1-2.1 2.4s.9 2.4 2.1 2.4h14.3c1.1 0 2.1-1.1 2.1-2.4s-1-2.4-2.1-2.4z" fill="none" stroke="#252725" stroke-miterlimit="10"/><path class="st48" d="M10.8 384.3h162.4"/><path class="st31" d="M203.4 252.2c-1.7 0-3.1 1.4-3.1 3.1V400h6.1V255.3c.1-1.7-1.3-3.1-3-3.1z"/><path class="st47" d="M202.5 259.4s-1.2 1.4-1.2 3.1V400h2c.4-37.4 0-140.6-.8-140.6z"/></svg>