<svg xmlns="http://www.w3.org/2000/svg" viewBox="0 0 400 400"><path fill="#FFF" d="M0 0h400v400H0z"/><path fill="none" d="M0 400h27.2V45.1c0-10.9 8.8-19.8 19.8-19.8h353V0H108.7L0 31v369z"/><path fill="#F2A50A" d="M0 31L108.7 0H0z"/><path fill="#090A0A" d="M47 25.4c-10.9 0-19.8 8.8-19.8 19.8V400H400v-15.7H44.1V41.4h355.8v-16H47z"/><path fill="#232A3C" d="M390.7 384.3h9.3V158.6c-.5-.5-.9-1.3-.9-2.1s.3-1.6.9-2.1v-6.8c-.5-.5-.9-1.3-.9-2.1s.3-1.6.9-2.1v-7.7c-.5-.5-.9-1.3-.9-2.1s.3-1.6.9-2.1V41.4h-9.3v342.9z"/><path fill="#304E9D" d="M399.1 133.6c0 .8.3 1.6.9 2.1v-4.2c-.5.5-.9 1.2-.9 2.1zm0 11.9c0 .8.3 1.6.9 2.1v-4.2c-.5.5-.9 1.2-.9 2.1zm0 11c0 .8.3 1.6.9 2.1v-4.2c-.5.5-.9 1.3-.9 2.1z"/><path fill="#FAFAFA" d="M390.7 41.4v11.7H96.9v.1H44.1v19.4h346.6v127.6H44.1V353h346.7v31.3l-.1-342.9zM67 66.2c-2.5 0-4.5-2-4.5-4.5s2-4.5 4.5-4.5 4.5 2 4.5 4.5-2 4.5-4.5 4.5zm16.1 0c-2.5 0-4.5-2-4.5-4.5s2-4.5 4.5-4.5 4.5 2 4.5 4.5-2 4.5-4.5 4.5zm203.2 0H96.9v-9.1h189.4v9.1zm23.1-2.1c0 1.2-.9 2.1-2.1 2.1h-9.1c-1.2 0-2.1-.9-2.1-2.1v-4.9c0-1.2.9-2.1 2.1-2.1h9.1c1.2 0 2.1.9 2.1 2.1v4.9zm20.8.3c0 1.2-.9 2.1-2.1 2.1H319c-1.2 0-2.1-.9-2.1-2.1v-4.9c0-1.2.9-2.1 2.1-2.1h9.1c1.2 0 2.1.9 2.1 2.1v4.9zm21.1 0c0 1.2-.9 2.1-2.1 2.1h-9.1c-1.2 0-2.1-.9-2.1-2.1v-4.9c0-1.2.9-2.1 2.1-2.1h9.1c1.2 0 2.1.9 2.1 2.1v4.9zm28.9 1.8H367c-.6 0-1-.4-1-1s.4-1 1-1h13.2c.6 0 1 .4 1 1 0 .5-.4 1-1 1zm0-3.2H367c-.6 0-1-.4-1-1s.4-1 1-1h13.2c.6 0 1 .4 1 1 0 .5-.4 1-1 1zm0-3.3H367c-.6 0-1-.4-1-1s.4-1 1-1h13.2c.6 0 1 .4 1 1s-.4 1-1 1zM217.3 224.9c11.3 0 20.5 9.2 20.5 20.5s-9.2 20.5-20.5 20.5-20.5-9.2-20.5-20.5 9.2-20.5 20.5-20.5zm15.3 51.8c0 1.6-1.3 2.9-2.9 2.9h-24.6c-1.6 0-2.9-1.3-2.9-2.9s1.3-2.9 2.9-2.9h24.6c1.6 0 2.9 1.3 2.9 2.9zm-38.1 17.1h38.7c1.6 0 2.9 1.3 2.9 2.9s-1.3 2.9-2.9 2.9h-38.7c-1.6 0-2.9-1.3-2.9-2.9 0-1.6 1.3-2.9 2.9-2.9zm0 11.6H222c1.6 0 2.9 1.3 2.9 2.9s-1.3 2.9-2.9 2.9h-27.5c-1.6 0-2.9-1.3-2.9-2.9 0-1.6 1.3-2.9 2.9-2.9zM174.2 330c0 3.5-2.8 6.3-6.3 6.3h-62.1c-3.5 0-6.3-2.8-6.3-6.3V220.1c0-3.5 2.8-6.3 6.3-6.3h62.1c3.5 0 6.3 2.8 6.3 6.3V330zm61.1-6.6h-40.8c-1.6 0-2.9-1.3-2.9-2.9s1.3-2.9 2.9-2.9h40.8c1.6 0 2.9 1.3 2.9 2.9.1 1.5-1.3 2.9-2.9 2.9zm60.8-98.5c11.3 0 20.5 9.2 20.5 20.5s-9.2 20.5-20.5 20.5-20.5-9.2-20.5-20.5 9.2-20.5 20.5-20.5zm15.2 51.8c0 1.6-1.3 2.9-2.9 2.9h-24.6c-1.6 0-2.9-1.3-2.9-2.9s1.3-2.9 2.9-2.9h24.6c1.6 0 2.9 1.3 2.9 2.9zm-37.9 16.8h38.7c1.6 0 2.9 1.3 2.9 2.9s-1.3 2.9-2.9 2.9h-38.7c-1.6 0-2.9-1.3-2.9-2.9-.1-1.5 1.2-2.9 2.9-2.9zm0 11.7h27.5c1.6 0 2.9 1.3 2.9 2.9s-1.3 2.9-2.9 2.9h-27.5c-1.6 0-2.9-1.3-2.9-2.9-.1-1.6 1.2-2.9 2.9-2.9zm40.8 17.9h-40.8c-1.6 0-2.9-1.3-2.9-2.9s1.3-2.9 2.9-2.9h40.8c1.6 0 2.9 1.3 2.9 2.9 0 1.6-1.3 2.9-2.9 2.9z"/><path fill="#CDCCCC" d="M96.9 47.7v5.5h293.8V41.4h-300c3.4 0 6.2 2.8 6.2 6.3z"/><path fill="#FAFAFA" d="M96.9 53.1v-5.5c0-3.5-2.8-6.3-6.3-6.3H44.1v11.8h52.8z"/><path fill="#FFF" d="M96.9 57.2h189.4v9.1H96.9z"/><path fill="#E2E2E1" d="M307.4 57.2h-9.1c-1.2 0-2.1.9-2.1 2.1v4.9c0 1.2.9 2.1 2.1 2.1h9.1c1.2 0 2.1-.9 2.1-2.1v-4.9c-.1-1.2-1-2.1-2.1-2.1zm20.8.2H319c-1.2 0-2.1.9-2.1 2.1v4.9c0 1.2.9 2.1 2.1 2.1h9.1c1.2 0 2.1-.9 2.1-2.1v-4.9c0-1.2-.9-2.1-2-2.1z"/><circle fill="#E2E2E1" cx="83.1" cy="61.7" r="4.5"/><circle fill="#E2E2E1" cx="67" cy="61.7" r="4.5"/><path fill="#E2E2E1" d="M349.2 57.4h-9.1c-1.2 0-2.1.9-2.1 2.1v4.9c0 1.2.9 2.1 2.1 2.1h9.1c1.2 0 2.1-.9 2.1-2.1v-4.9c0-1.2-.9-2.1-2.1-2.1zm31 .3H367c-.6 0-1 .4-1 1s.4 1 1 1h13.2c.6 0 1-.4 1-1s-.4-1-1-1zm0 6.5H367c-.6 0-1 .4-1 1s.4 1 1 1h13.2c.6 0 1-.4 1-1s-.4-1-1-1zm0-3.2H367c-.6 0-1 .4-1 1s.4 1 1 1h13.2c.6 0 1-.4 1-1s-.4-1-1-1z"/><path fill="#3F6AB2" d="M167.9 213.8h-62.1c-3.5 0-6.3 2.8-6.3 6.3V330c0 3.5 2.8 6.3 6.3 6.3h62.1c3.5 0 6.3-2.8 6.3-6.3V220.1c0-3.5-2.8-6.3-6.3-6.3zm-29.7 11.1c11.3 0 20.5 9.2 20.5 20.5s-9.2 20.5-20.5 20.5-20.5-9.2-20.5-20.5 9.2-20.5 20.5-20.5zm15.2 51.8c0 1.6-1.3 2.9-2.9 2.9h-24.6c-1.6 0-2.9-1.3-2.9-2.9s1.3-2.9 2.9-2.9h24.6c1.6 0 2.9 1.3 2.9 2.9zm-38.1 16.6H154c1.6 0 2.9 1.3 2.9 2.9s-1.3 2.9-2.9 2.9h-38.7c-1.6 0-2.9-1.3-2.9-2.9 0-1.6 1.3-2.9 2.9-2.9zm0 11.6h27.5c1.6 0 2.9 1.3 2.9 2.9s-1.3 2.9-2.9 2.9h-27.5c-1.6 0-2.9-1.3-2.9-2.9 0-1.6 1.3-2.9 2.9-2.9zm40.8 18h-40.8c-1.6 0-2.9-1.3-2.9-2.9s1.3-2.9 2.9-2.9h40.8c1.6 0 2.9 1.3 2.9 2.9.1 1.6-1.3 2.9-2.9 2.9z"/><path fill="#252725" d="M229.6 273.8H205c-1.6 0-2.9 1.3-2.9 2.9s1.3 2.9 2.9 2.9h24.6c1.6 0 2.9-1.3 2.9-2.9.1-1.6-1.2-2.9-2.9-2.9zm78.8 0h-24.6c-1.6 0-2.9 1.3-2.9 2.9s1.3 2.9 2.9 2.9h24.6c1.6 0 2.9-1.3 2.9-2.9 0-1.6-1.3-2.9-2.9-2.9z"/><path fill="#FAFAFA" d="M150.5 273.8h-24.6c-1.6 0-2.9 1.3-2.9 2.9s1.3 2.9 2.9 2.9h24.6c1.6 0 2.9-1.3 2.9-2.9 0-1.6-1.3-2.9-2.9-2.9z"/><path fill="#252725" d="M194.5 299.7h38.7c1.6 0 2.9-1.3 2.9-2.9s-1.3-2.9-2.9-2.9h-38.7c-1.6 0-2.9 1.3-2.9 2.9 0 1.5 1.3 2.9 2.9 2.9zm0 11.6H222c1.6 0 2.9-1.3 2.9-2.9s-1.3-2.9-2.9-2.9h-27.5c-1.6 0-2.9 1.3-2.9 2.9s1.3 2.9 2.9 2.9zm40.8 6.2h-40.8c-1.6 0-2.9 1.3-2.9 2.9s1.3 2.9 2.9 2.9h40.8c1.6 0 2.9-1.3 2.9-2.9.1-1.6-1.3-2.9-2.9-2.9zm38.1-18.1h38.7c1.6 0 2.9-1.3 2.9-2.9s-1.3-2.9-2.9-2.9h-38.7c-1.6 0-2.9 1.3-2.9 2.9-.1 1.6 1.2 2.9 2.9 2.9zm0 11.6h27.5c1.6 0 2.9-1.3 2.9-2.9s-1.3-2.9-2.9-2.9h-27.5c-1.6 0-2.9 1.3-2.9 2.9-.1 1.6 1.2 2.9 2.9 2.9zm40.8 6.2h-40.8c-1.6 0-2.9 1.3-2.9 2.9s1.3 2.9 2.9 2.9h40.8c1.6 0 2.9-1.3 2.9-2.9 0-1.5-1.3-2.9-2.9-2.9z"/><path fill="#FAFAFA" d="M115.3 299.2H154c1.6 0 2.9-1.3 2.9-2.9s-1.3-2.9-2.9-2.9h-38.7c-1.6 0-2.9 1.3-2.9 2.9 0 1.6 1.3 2.9 2.9 2.9zm0 11.6h27.5c1.6 0 2.9-1.3 2.9-2.9s-1.3-2.9-2.9-2.9h-27.5c-1.6 0-2.9 1.3-2.9 2.9s1.3 2.9 2.9 2.9zm40.8 6.2h-40.8c-1.6 0-2.9 1.3-2.9 2.9s1.3 2.9 2.9 2.9h40.8c1.6 0 2.9-1.3 2.9-2.9.1-1.6-1.3-2.9-2.9-2.9z"/><circle fill="#F7E23D" cx="138.2" cy="245.4" r="20.5"/><circle fill="#3F6AB2" cx="217.3" cy="245.4" r="20.5"/><circle fill="#3F6AB2" cx="296.1" cy="245.4" r="20.5"/><path fill="#E6E7EB" d="M217.4 353H44.1v31.3h173.3z"/><path fill="#3F6AB2" d="M390.6 353H217.4v31.3h173.3V353z"/><path fill="#833279" d="M44.1 72.6h346.6v127.6H44.1z"/><path fill="#69457D" d="M225.2 200.3H44.1V72.7h114.8c9.6 50.2 31.6 92.8 66.3 127.6z"/><circle fill="#4D81C1" cx="240.7" cy="148.9" r="30.7"/><path fill="#3D60AA" d="M211.6 151.9c-.9-8.1 1.4-15.6 5.8-21.5 1.1-1.5 3.6-.8 3.8 1.1 2.3 20.1 19.8 34.2 43.2 35.9-6.2 7.5-15.9 11.9-26.6 10.7-13.6-1.7-24.6-12.7-26.2-26.2z"/><path fill="#4D81C1" d="M248 129.7c-50.2-19.2-94.2-26.1-98.2-15.5s33.4 34.7 83.6 53.9 94.2 26.1 98.2 15.5c4-10.6-33.4-34.7-83.6-53.9zm73.9 50.2c-3.2 8.5-42.2 1.5-87-15.7s-78.5-37.9-75.3-46.3c3.2-8.5 42.2-1.5 87 15.7s78.5 37.8 75.3 46.3z"/><path fill="#4D81C1" d="M245.9 135.2c-35.8-13.7-67.1-18.6-70-11.1-2.9 7.6 23.8 24.7 59.5 38.4 35.8 13.7 67.1 18.6 70 11.1 3-7.5-23.7-24.7-59.5-38.4zm52.6 35.8c-2.3 6-30.1 1-62-11.2s-56-27-53.7-33 30.1-1 62 11.2c32 12.2 56.1 26.9 53.7 33z"/><path fill="#4D81C1" d="M250.9 122.2C181 95.5 119.8 85.8 114.2 100.6c-5.6 14.8 46.4 48.3 116.3 75 30.1 11.5 58.6 19.8 81.7 24.4l53.2-.2c.8-.8 1.5-1.6 1.8-2.6 5.7-14.8-46.4-48.3-116.3-75zM353.7 192c-4.5 11.8-58.7 2-121.2-21.8-62.4-23.8-109.3-52.7-104.8-64.5s58.7-2 121.2 21.8c62.4 23.9 109.3 52.7 104.8 64.5z"/><path fill="#E2B842" d="M390.6 148.3c-14.1-21.7-38.6-36-66.4-36-43.8 0-79.3 35.5-79.3 79.3 0 3 .2 5.9.5 8.8h145.2v-52.1z"/><circle fill="#634092" cx="67" cy="101.2" r="12.7"/><path fill="#3D60AA" d="M44.1 100c3.4 2.8 7.8 4.4 12.6 4.4 11.1 0 20.1-9 20.1-20.1 0-4.3-1.4-8.4-3.7-11.7h-29V100z"/><path fill="#3A568A" d="M44.1 98.2c3.3 2.6 7.6 4.1 12.2 4.1 5.8 0 11-2.5 14.6-6.4C57 94.7 45.7 85.3 44.1 72.6v25.6z"/><path fill="none" stroke="#FAFAFA" stroke-miterlimit="10" d="M379.1 78.5h-37.2s-4 .2-4 7.4 4.5 7.7 4.5 7.7h36.7s4.1.3 4.1-7.7-4.1-7.4-4.1-7.4z"/><path fill="#FAFAFA" d="M372.8 88.9h-24.6c-1.6 0-2.9-1.3-2.9-2.9 0-1.6 1.3-2.9 2.9-2.9h24.6c1.6 0 2.9 1.3 2.9 2.9 0 1.6-1.3 2.9-2.9 2.9zm-47 0h-24.6c-1.6 0-2.9-1.3-2.9-2.9 0-1.6 1.3-2.9 2.9-2.9h24.6c1.6 0 2.9 1.3 2.9 2.9.1 1.6-1.2 2.9-2.9 2.9zm-44.3 0H257c-1.6 0-2.9-1.3-2.9-2.9 0-1.6 1.3-2.9 2.9-2.9h24.6c1.6 0 2.9 1.3 2.9 2.9 0 1.6-1.3 2.9-3 2.9z"/><path fill="#DBAB34" d="M268.9 140.8c-12.5 13.5-20.2 31.4-20.2 51.1 0 2.8.2 5.6.5 8.4h141.5c-65.3-5.5-114.9-20.1-121.8-59.5z"/><path fill="#FDE846" d="M134.7 185.2c-.9-6.2-4-9.7-9.9-9.9 5.8-.7 9.1-3.9 9.9-9.9.4 6.1 3.8 9.2 9.9 9.9-5.8.8-9.1 4-9.9 9.9z"/><path fill="#FDE846" d="M140.8 181.5c-4.4-3.3-8.5-3.5-12.2 0 3.1-4 3.3-8.1 0-12.2 4 3.5 8.1 3.4 12.2 0-3.1 4-3.1 8 0 12.2z"/><path fill="#DBAB34" d="M269.2 116.8c-.5-3.6-2.4-5.7-5.8-5.8 3.4-.4 5.4-2.3 5.8-5.8.2 3.6 2.2 5.4 5.8 5.8-3.3.5-5.3 2.4-5.8 5.8z"/><path fill="#DBAB34" d="M272.8 114.6c-2.6-1.9-5-2.1-7.2 0 1.8-2.4 1.9-4.8 0-7.2 2.4 2.1 4.8 2 7.2 0-1.8 2.4-1.8 4.8 0 7.2z"/><path fill="#3F6AB2" d="M213.8 99.3c-1.1-7.1-4.7-11.2-11.4-11.4 6.7-.8 10.6-4.5 11.4-11.4.5 7 4.4 10.7 11.4 11.4-6.6.8-10.4 4.6-11.4 11.4z"/><path fill="#F7E23D" d="M73.1 156.2c0-2.1.2-3.1 1.5-5.7 41.4-47 76.4-55.5 77.1-54.1.6 1.4-37.3 4-66 63-1 2.3-4 3.4-6 3.4-3.7 0-6.6-2.9-6.6-6.6z"/><circle fill="#3F6AB2" cx="79.7" cy="155.9" r="4.6"/><path fill="#DDC132" d="M236 190.4h-37.2c-1.2 0-2.1-.9-2.1-2.1v-10.7c0-1.2.9-2.1 2.1-2.1H236c1.2 0 2.1.9 2.1 2.1v10.7c0 1.2-1 2.1-2.1 2.1z"/><path fill="#FAFAFA" d="M229.6 185.9H205c-1.6 0-2.9-1.3-2.9-2.9 0-1.6 1.3-2.9 2.9-2.9h24.6c1.6 0 2.9 1.3 2.9 2.9.1 1.6-1.2 2.9-2.9 2.9zm12-67.5h-48.5c-1.8 0-3.3-1.5-3.3-3.3V111c0-1.8 1.5-3.3 3.3-3.3h48.5c1.8 0 3.3 1.5 3.3 3.3v4.1c0 1.8-1.4 3.3-3.3 3.3zm-70.7 23.4h-26.8c-1.8 0-3.3-1.5-3.3-3.3v-4.1c0-1.8 1.5-3.3 3.3-3.3h26.8c1.8 0 3.3 1.5 3.3 3.3v4.1c0 1.8-1.5 3.3-3.3 3.3zm54 0h-31.7c-1.8 0-3.3-1.5-3.3-3.3v-4.1c0-1.8 1.5-3.3 3.3-3.3h31.7c1.8 0 3.3 1.5 3.3 3.3v4.1c0 1.8-1.5 3.3-3.3 3.3zm61.2 0h-41c-1.8 0-3.3-1.5-3.3-3.3v-4.1c0-1.8 1.5-3.3 3.3-3.3h41c1.8 0 3.3 1.5 3.3 3.3v4.1c-.1 1.8-1.5 3.3-3.3 3.3z"/></svg>