<svg xmlns="http://www.w3.org/2000/svg" viewBox="0 0 400 400"><path fill="#FFF" d="M0 0h400v400H0z"/><path fill="#F2A50A" d="M39 .5l151.5 83.1L400 24V0z"/><linearGradient id="a" gradientUnits="userSpaceOnUse" x1="134.5" y1="-1805.751" x2="259.5" y2="-1805.751" gradientTransform="translate(0 1813.92)"><stop offset="0" stop-color="#37589e"/><stop offset="1" stop-color="#3b5a9d"/></linearGradient><path fill="url(#a)" d="M134.5 0l27.1 12.5c8.2 3.8 17.3 4.8 26.1 2.9L259.5 0h-125z"/><path fill="#006172" d="M0 56.9h316.9v297.7H0z"/><path fill="#0086A4" d="M0 72.8V100h272.7l31.6-27.2z"/><path fill="#007F99" d="M304 375.5l.3-302.7-31.6 27.2v274.6z"/><path fill="#F3CA32" d="M0 137.1h39L22.3 324.3 0 330.5z"/><path fill="#FADA44" d="M0 314.4l7.9-2.2 14.2-160H0z"/><path fill="#9EC9ED" d="M257.5 338.1V132.8c9.5-5.6 19.9-5.6 31.2 0v205.3h-31.2z"/><path fill="#F6A11D" d="M224.1 338.1V132.8c10.2-5.6 21.3-5.6 33.4 0v205.3h-33.4z"/><path fill="#434B9A" d="M134.3 338.1V132.8c10.2-5.6 21.3-5.6 33.4 0v205.3h-33.4z"/><path fill="#349A37" d="M21 334.9l16.9-129.3c12.8-1.9 26.4-.2 40.6 5.3L61.6 340.2 21 334.9z"/><path fill="#DEC328" d="M167.7 338V151.1c10.2-5.1 21.3-5.1 33.4 0V338h-33.4z"/><path fill="#EBEFF7" d="M78.5 338.1V185.6c17-4.2 35.6-4.2 55.8 0v152.5H78.5z"/><path fill="#C43A17" d="M201.1 338.2V142.1c7.1-5.4 14.9-5.4 23.4 0v196.1h-23.4z"/><path fill="#DD927A" d="M205 148.3v51c1 1.3 2 1.3 3 0v-51c-1-1.3-2-1.3-3 0z"/><path fill="#7C83B7" d="M141.6 277.6v51c2.1 1.3 4.1 1.3 6.2 0v-51c-2.1-1.3-4.2-1.3-6.2 0z"/><path fill="#9294C9" d="M153.4 278.3v51c2 1.3 4 1.3 6.1 0v-51c-2-1.3-4.1-1.3-6.1 0z"/><path fill="#DD927A" d="M217.8 148.1v41.6c1 1.1 2 1.1 3 0v-41.6c-1-1.1-2-1.1-3 0zm-6.5-2.2v63c1 1.6 2 1.6 3 0v-63c-1-1.6-2-1.6-3 0z"/><path fill="#BBA32F" d="M176.2 155.6c5.5-2.5 10.9-2.7 16.4 0 .5.2.9.7.9 1.2v2.4c0 .8-.8 1.5-1.5 1.2-5.1-1.8-10.1-1.7-15.2 0-.8.3-1.5-.4-1.5-1.2v-2.4c0-.6.4-1 .9-1.2zm0 10.7c5.5-2.5 10.9-2.7 16.4 0 .5.2.9.7.9 1.2v2.4c0 .8-.8 1.5-1.5 1.2-5.1-1.8-10.1-1.7-15.2 0-.8.3-1.5-.4-1.5-1.2v-2.4c0-.6.4-1 .9-1.2zm0 11.2c5.5-2.5 10.9-2.7 16.4 0 .5.2.9.7.9 1.2v2.4c0 .8-.8 1.5-1.5 1.2-5.1-1.8-10.1-1.7-15.2 0-.8.3-1.5-.4-1.5-1.2v-2.4c0-.5.4-1 .9-1.2z"/><path fill="#913B8E" d="M232.6 136.7c5.5-2.5 10.9-2.7 16.4 0 .5.2.9.7.9 1.2v2.4c0 .8-.8 1.5-1.5 1.2-5.1-1.8-10.1-1.7-15.2 0-.8.3-1.5-.4-1.5-1.2v-2.4c0-.6.4-1 .9-1.2z"/><path fill="#39C" d="M264.9 136.5c5.5-2.5 10.9-2.7 16.4 0 .5.2.9.7.9 1.2v2.4c0 .8-.8 1.5-1.5 1.2-5.1-1.8-10.1-1.7-15.2 0-.8.3-1.5-.4-1.5-1.2v-2.4c0-.5.4-.9.9-1.2zm0 9.3c5.5-2.5 10.9-2.7 16.4 0 .5.2.9.7.9 1.2v2.4c0 .8-.8 1.5-1.5 1.2-5.1-1.8-10.1-1.7-15.2 0-.8.3-1.5-.4-1.5-1.2V147c0-.5.4-1 .9-1.2z"/><path fill="#377630" d="M26.2 322.3l-1.1 8.5c10.5 4.1 21.7 5.4 33.6 4.4l1.1-8.5c-11.7.8-22.9-.6-33.6-4.4z"/><path fill="#0084B7" d="M0 375.6h321.4c10.8 0 19.5-8.7 19.5-19.5V55.4c0-10.8-8.7-19.5-19.5-19.5H0v36.9h304v265.8H0v37z"/><path fill="#141B28" d="M101.7 270.3l3.2.9-3.2-.9zm7-4.7v1-1zm4.8.3v6-6zm-4.8-1.3v1-1zm4.4.8l-4-1 4 1zm-18.3-22.1l9.1 1.9-9.1-1.9zm0 5l6.8 1.5-6.8-1.5zm-.4-4.6v4.2c0 .2.2.5.4.5l6.8 1.5 6.8 1.5c.2 0 .4.3.4.5v2.9c0 2.9-2 2.6-4.8 2h-.1l-.3-.1h-.1l-.7-.1-.8-.1c-.2 0-.6-.1-.8-.2l-3.3-.7-3.3-.7c-.2 0-.4.1-.4.3v4.3c0 .2.2.5.4.5l4.3.9 4.3.9.4.1c4.8 1.1 9.4.8 9.6-5v-9.2c0-.2-.2-.5-.4-.5l-9.1-1.9-9.1-1.9c0-.1-.2 0-.2.3zm14.5-16.6c0-.2.2-.4.4-.3l2 .4m2 .4l-2-.4 2 .4zm.4.5zm-7.3 10.1c-.2 0-.6-.2-.6-.5v.5c2.3.3.6 0 .6 0zm7.3-2.9c0 .1 0 .1 0 0 0 .1 0 .1 0 0z"/><path fill="#141B28" d="M108.9 227.1c0-.2.2-.4.4-.3l2 .4.3.1m2.1 6.1zm0 1zm0 .3s0 .1 0 0c0 .1 0 0 0 0zm0 .3zm0-.5zm0-1.1zm0-5.3zm-.4-.5l-1.7-.3 1.7.3zm.4 7.2v.2-.2zm0 .6v.3-.3zm0-.3v.2-.2zm-7.3 60.8l-2.9-.6 3.3.7 3.3.7-2.9-.6c-.2-.1-.6-.2-.8-.2zm-12.1-7.7v4.6c0 .2.2.5.4.5l1.9.4 1.9.4c.2.1.4-.1.4-.3v-4.6c0-.2-.2-.5-.4-.5l-1.9-.4-1.9-.4c-.2-.1-.4 0-.4.3zm6.4.9l6.2 1.3-6.2-1.3zm20.5 13.3v-3.8 3.8zm-20.5-7.8l2.9.6-2.9-.6z"/><path fill="#141B28" d="M100.3 289.5v4.6c0 .2.2.5.4.5l2.9.6 2.9.6c.2.1.6.1.8.2l2.9.6 2.9.6c.2 0 .6.1.8.2 0 0 2.6.9 2.5 2.3v1.4c0 .2.2.5.4.5l2 .5 2 .5c.2.1.4-.1.4-.3v-3.8c0-3.6-2-5.5-7.8-6.7l-6.6-1.4-6.2-1.3c-.1 0-.3.1-.3.4zm13.2-65.3c0 .2-.2.4-.4.3L96.9 221m16.2-1.7l-6.9-1.4 6.9 1.4z"/><path fill="#141B28" d="M113.3 224.4h-.6l-7.7-1.6 8.1 1.7c.2 0 .4-.1.4-.3v-.4c0 .2-.1.6-.2.6zm.1-4.8c.1.1.1.4.1.6v-.4c0-.2-.2-.5-.4-.5l-.4-.1c.2.1.6.3.7.4zm-3.8-1l-3.1-.6 3.1.6zM97.9 205l.8-.2c.2-.1.4.1.4.3m13.6 14.2l-3-.6 3 .6zm-15.6-14.1l.8-.2-.8.2zm9.5 12.8c-.2 0-.6-.1-.8-.2l-3.1-.7 3.5.7.4.2zm-10 3c.2 0 .5.1.7.1l7.7 1.6-8.1-1.7h-.3z"/><path fill="#141B28" d="M98.7 204.8l-.8.2-.8.2-.4.1c-1.5.4-2.3 1.5-2.3 3.9v10.9c0 .2.2.5.4.5l.8.2.9.2.3.1 8.1 1.7 7.7 1.6c.2 0 .5.1.6 0 .1 0 .2-.5.2-.7v-3.5c0-.2 0-.5-.1-.6s-.5-.3-.7-.4l-3-.6-3-.6-.4-.1-3.5-.7-3.1-.7c-.2 0-.4-.3-.4-.5v-10.9c-.1-.2-.2-.3-.5-.3z"/><path fill="#141B28" d="M91.6 190.8v4.3c0 .2.2.5.3.7l11.3 7.7c.2.1.2.3-.1.3l-2.5.6c-.2.1-.4.3-.4.5v5c0 .2.2.4.4.3l7.8-2.2c.2-.1.6-.1.8 0l3.8 1c.2.1.4-.1.4-.3v-4.9c0-.2-.2-.5-.4-.5l-3.8-1c-.2-.1-.6-.2-.7-.4l-16.6-12.5c-.2-.1-.3-.1-.3.2v1.2zm9.8 39.4c.2 0 .4.3.4.5v6.3c0 .2-.1.3-.3.3h-.1c-1.6-.6-2.6-1.8-2.6-4.1-.1-2.7 1.1-3.2 2.6-3zm-7.3 1.8c0 8.1 4.9 10 9.8 11.1 5 1.1 9.8 1 9.8-7.4V228c0-.2-.2-.5-.4-.5l-1.7-.3-.3-.1-2-.4c-.2 0-.4.1-.4.3v7.5c0 3-.8 3.9-3.1 3.5v-12c0-.2-.1-.4-.3-.4h-.1c-6.8-1.7-11.3-1.2-11.3 6.4zm7.2 38.2l.4.1 3.2.9 3.2.9c.2.1.4.3.4.5v4.8c0 3.6-2.8 4.5-7 3.6-4.3-.9-7-2.6-7.2-6.2-.4-4.8 3.1-5.8 7-4.6zm7-3.3s-5.5-2.3-8.7-2.8c-4.2-.7-10.4 1.4-10.4 9.6s5.9 11.7 12.3 13.1 12.1-.4 12-8.5v-12.4c0-.2-.2-.5-.4-.5l-4-1c-.2-.1-.4.1-.4.3v2c0 .1-.1.2-.4.2.1 0 .1 0 0 0z"/><path fill="#141B28" d="M104.7 226.5c.2 0 .3.1.3.3s-.1.3-.3.3c-.2 0-.3-.1-.3-.3 0-.2.1-.3.3-.3z"/><path fill="#0A69AD" d="M97.5 329.3c3.2 2.3 7.5 2 10.9.3.1 0 .2-.1.2-.1.1 0 .1-.1.2-.1 0 0 .1 0 .1-.1.1 0 .1-.1.2-.1.1-.1.2-.1.3-.2.1 0 .1-.1.2-.1.1-.1.2-.1.3-.2l.1-.1c.1-.1.3-.2.4-.3h.1l.3-.3.1-.1c.1-.1.2-.2.3-.2l.1-.1c.1-.1.2-.2.4-.3l.3-.3.1-.1.3-.3.1-.1c.1-.1.2-.2.3-.4l.1-.1.3-.3.1-.1c.1-.1.1-.2.2-.3l.1-.1c.1-.1.1-.2.2-.3l.1-.1c.1-.1.1-.2.2-.3l.1-.1c.1-.2.2-.3.3-.5 0 0 0-.1.1-.1.1-.1.1-.2.2-.3 0-.1.1-.1.1-.2s.1-.2.1-.3v-.2c.1-.1.1-.3.2-.4v-.1c.1-.2.1-.3.2-.5v-.1c.1-.1.1-.3.2-.4v-.1c.1-.2.1-.3.2-.5v-.1c.1-.2.1-.3.1-.5 2-10.9-6.6-14.1-6.6-14.1 3.5 2.7 4.4 7.4 3.4 11.9 0 .2-.1.3-.1.5v.1c0 .2-.1.3-.2.5v.1c-.1.1-.1.3-.2.4v.1c-.1.2-.1.3-.2.5v.1c-.1.1-.1.3-.2.4 0 0 0 .1-.1.1 0 .1-.1.2-.2.3 0 .1-.1.1-.1.2-.1.1-.1.2-.2.4 0 0 0 .1-.1.1-.1.2-.2.3-.3.5l-.1.1c-.1.1-.1.2-.2.3l-.1.1c-.1.1-.2.2-.2.3l-.1.1c-.1.1-.1.2-.2.3l-.1.1c-.1.1-.2.2-.3.4-.1.1-.2.2-.3.4l-.1.1-.3.3-.1.1-.3.3c-.1.1-.2.2-.4.3l-.1.1c-.1.1-.2.2-.3.2l-.1.1c-.1.1-.2.2-.4.3-3.4 2.5-8.1 3.4-11.9 1.4"/><path fill="#0A69AD" d="M94.8 322.3c2.3 1.6 5.5 1.5 8 .3.4-.2.8-.5 1.2-.7.4-.2.8-.5 1-.8.1-.1.3-.2.4-.4l.1-.1c.1-.1.2-.2.3-.4.1-.1.2-.3.4-.4l.1-.1c.1-.1.2-.3.3-.5 0-.1.1-.1.1-.2 0 0 0-.1.1-.1.1-.1.1-.2.2-.3.1-.1.1-.2.2-.3 0 0 0-.1.1-.1 0-.1.1-.1.1-.2.1-.1.1-.3.2-.4v-.1c.1-.1.1-.2.1-.4 0-.1 0-.1.1-.2 0-.1.1-.2.1-.3v-.1c0-.2.1-.3.1-.5 1.4-8.4-5.1-10.4-5.1-10.4 2.5 1.8 3.7 5.1 2.8 8.8 0 .2-.1.3-.1.5v.1c0 .1-.1.2-.1.3 0 .1 0 .1-.1.2 0 .1-.1.2-.1.4v.1c-.1.1-.1.3-.2.4 0 .1-.1.1-.1.2 0 0 0 .1-.1.1-.1.1-.1.2-.2.3v.1c-.1.1-.1.2-.2.3 0 0 0 .1-.1.1 0 .1-.1.1-.1.2-.1.2-.2.3-.3.5l-.1.1c-1.3 1.6-3 2.8-4.9 3.4-2 .6-4.3.5-6.1-.6"/><path fill="#0A69AD" d="M92.7 316.4c1.4 1 3.2 1.1 4.7.4 1.7-.7 3-2.1 3.6-3.8 0-.1 0-.1.1-.2v-.1c0-.1.1-.2.1-.3.9-4.6-2.4-5.9-2.9-6.2 1.6 1.1 2 3 1.4 5.2 0 .2-.1.4-.2.6s-.2.4-.3.7c-.2.4-.4.8-.7 1.1-1.5 2-4.5 3.3-6.9 2m28.7-51.8l3.1 1.3v1.5l-2.8-.1 2.8 1.1v1.4h-3.1l-.8-.2v-1l3 .2-3-1.1v-1.4l3.1.1-3.1-1.1v-.9l.8.2zm.9-2.3c-.6-.1-.7-.1-.7.2v.5l1.4.3 1.5.5v.9l-3.3-.7-.5-.1v-.8l.2-.1s-.3-.5-.3-.9c0-.9.7-.9 1.7-.7v.9zm-2.1-2.8c0 .4-.1.6-.6.5s-.6-.4-.6-.8.1-.6.6-.5c.4.1.6.4.6.8zm4.2.4v.9l-1.5-.2-1.4-.3-.1.6-.8-.2v-1.6l3.8.8zm-3-3.7l.1 1.1 1.5.3c.4.1.5.1.5-.3v-.7l.8.1s.2.7.2.9c0 1.1-.6 1.1-1.5.9l-1.4-.3-.1.6-.8-.2v-.6l-1-.4v-.8l1 .2v-1l.7.2zm.1-2.3c0 .5.3.8.7.9l-.1-1.4c-.3-.1-.6 0-.6.5zm1.4 1c.5.1.6-.1.6-.7v-1.5l.7.1s.3.9.3 1.6c0 1.7-.9 1.7-1.9 1.5s-2-.6-2-2.2.9-1.6 2.3-1.2v2.4zm1.5-5.8v.9l-1.5-.2-2.8-.6-.1.6-.8-.2v-1.6l5.2 1.1zm-2.9-3.1c0 .5.3.8.7.9l-.1-1.4c-.3-.2-.6-.1-.6.5zm1.4 1c.5.1.6-.1.6-.7v-1.5l.7.1s.3.9.3 1.6c0 1.7-.9 1.7-1.9 1.5s-2-.6-2-2.2.9-1.6 2.3-1.2v2.4zm-1.4-6.4v1.4c0 .6.2.7.4.7h.2l.1-2s.6 0 1 .1c.6.1 1.2.7 1.2 1.9 0 .6-.2 1.5-.2 1.5l-.7-.2V242c0-.6-.2-.7-.3-.7h-.2l-.1 2s-.5.1-1 0c-.7-.1-1.2-.8-1.2-1.9 0-.6.2-1.5.2-1.5l.6.1zm0-3.8v1.4c0 .6.2.7.4.7h.2l.1-2s.6 0 1 .1c.6.1 1.2.7 1.2 1.9 0 .6-.2 1.5-.2 1.5l-.7-.2v-1.4c0-.6-.2-.7-.3-.7h-.2l-.1 2s-.5.1-1 0c-.7-.1-1.2-.8-1.2-1.9 0-.6.2-1.5.2-1.5l.6.1zm3.6-1.1v.7h-.6c0 .3-.2.4-.5.3-.5-.1-.6-.4-.6-.8s.1-.6.6-.5l1.1.3zm-3.5-5c0 .6.3.8.9.9.6.1 1 .1 1-.5v-.8l-1.9-.4v.8zm2.4-1.3l.5.1v.8l-.2.1s.3.7.3 1.2c0 1.2-1 1.2-2 1s-2-.7-2-1.9c0-.4.2-1 .2-1l-1.6-.5v-.9l4.8 1.1zm-2.5-3.1c0 .7.4 1 1 1.1s1 .1 1-.7c0-.7-.4-1-1-1.1-.5-.1-1 0-1 .7zm3 .7c0 1.5-1 1.7-2 1.5s-1.9-.8-1.9-2.3.9-1.7 1.9-1.5c1.1.2 2 .7 2 2.3zm-.1-8.7l-1.5-.2-.4-.1c-.6-.1-1-.2-1 .4v.5c.3 0 .6 0 1 .1l1.9.4v.9l-1.5-.2-.4-.1c-.6-.1-1-.2-1 .4v.4l2.9.6v1l-3.8-.8v-.8l.2-.1s-.3-.5-.3-1c0-.3.1-.6.3-.7-.1-.2-.3-.7-.3-1.1 0-1.2 1-1.2 2-.9l1.9.4v.9zm-2.9-4c0 .7.4 1 1 1.1s1 .1 1-.7c0-.7-.4-1-1-1.1-.5-.1-1-.1-1 .7zm3 .6c0 1.5-1 1.7-2 1.5s-1.9-.8-1.9-2.3.9-1.7 1.9-1.5c1.1.3 2 .8 2 2.3zm-2.2-4.8c-.6-.1-.7-.1-.7.2v.5l1.4.3 1.5.5v.9l-3.3-.7-.5-.1v-.8l.2-.1s-.3-.5-.3-.9c0-.9.7-.9 1.7-.7v.9zm-.8-3.4c0 .5.3.8.7.9l-.1-1.4c-.3-.1-.6 0-.6.5zm1.4 1c.5.1.6-.1.6-.7v-1.5l.7.1s.3.9.3 1.6c0 1.7-.9 1.7-1.9 1.5s-2-.6-2-2.2.9-1.6 2.3-1.2v2.4zm1.6-3.3c0 .4-.1.6-.6.5s-.6-.4-.6-.8.1-.6.6-.5c.5.2.6.5.6.8z"/><path fill="#F4ED86" d="M344 165.6l-10.4.4c-1.9.1-3.7.9-5 2.3l-6.9 7.8c-3.5 4-10 2.7-11.8-2.2l-3.6-9.8c-.7-1.8-2-3.2-3.8-4L293 156c-4.8-2.1-5.7-8.7-1.5-11.9l8.2-6.5c1.5-1.2 2.4-2.9 2.6-4.8l1-10.4c.5-5.3 6.5-8.1 10.9-5.2l8.7 5.8c1.6 1.1 3.5 1.4 5.4 1l10.2-2.2c5.2-1.1 9.7 3.7 8.3 8.8l-2.8 10c-.5 1.8-.3 3.8.7 5.4l5.2 9c2.6 4.6-.6 10.4-5.9 10.6z"/><path fill="#EDE650" d="M336.6 159.1l-6.6.3c-1.2.1-2.4.6-3.2 1.5l-4.4 5c-2.3 2.5-6.4 1.7-7.6-1.4l-2.3-6.2c-.4-1.1-1.3-2.1-2.4-2.5l-6.1-2.7c-3.1-1.4-3.6-5.5-1-7.6l5.2-4.1c1-.8 1.6-1.9 1.7-3.1l.7-6.6c.3-3.4 4.1-5.2 7-3.3l5.5 3.7c1 .7 2.3.9 3.4.6l6.5-1.4c3.3-.7 6.2 2.3 5.3 5.6l-1.8 6.4c-.3 1.2-.2 2.4.4 3.5l3.4 5.7c1.7 2.7-.3 6.4-3.7 6.6z"/><path fill="#D3D2C1" d="M328.6 198.7c9.6 2.7 15.9 11.4 16.1 20.9 1.7 0 3.3.3 4.9.7 10.3 2.9 16.3 13.7 13.4 24s-13.7 16.3-24 13.4L290.6 244c-8.9-2.5-14.1-11.8-11.6-20.6 2.5-8.9 11.8-14.1 20.6-11.6.7.2 1.4.5 2.1.7 3.9-10.8 15.6-17 26.9-13.8z"/><path fill="#F9F8DD" d="M331.7 199.8c4.6 1.4 13.2 10.4 13 19.8 1.4 0 6.3 1 7.6 1.5 7.3 2.8 13.6 12.9 10.7 23.2s-12.4 15.3-21.2 14.2l-41.5-11.7c-7.6-2.1-11.7-11.1-9.2-20s10.7-14.4 18.3-12.2c.6.2 1.2.4 1.8.7 3.8-11 10.9-18.3 20.5-15.5z"/><path fill="#EFE530" d="M314.7 250.1l-11.1 13.8 14.1 3.2-16.3 24.3 25.8-26.5-18.3-3.4z"/><path fill="#349A37" d="M341.2 329.6l-33 32.7c-1.6 1.6-4.5 1.4-5.1-.3l-1.9-5.3c-.4-1.2-2-1.7-3.6-1.2-1.6.6-3.2 0-3.6-1.2l-6.5-18.5c-.4-1.2.5-2.6 2.1-3.2 1.6-.6 2.5-2 2.1-3.2l-1.9-5.3c-.6-1.7 1.5-3.6 3.8-3.4l46.2 5c2.2.4 2.9 2.4 1.4 3.9z"/><path fill="#81BB27" d="M337.3 330.6l-25.9 26.8c-1.3 1.3-3.6 1.1-4.1-.3l-1.6-4.4c-.4-1-1.7-1.5-2.9-1-1.3.4-2.6 0-2.9-1l-5.4-15.5c-.4-1 .4-2.2 1.7-2.6 1.3-.4 2-1.6 1.7-2.6l-1.6-4.4c-.5-1.4 1.2-3 3-2.8l37 4.8c1.5.2 2.1 1.8 1 3z"/><path fill="#D3D2C1" d="M315.4 101c-9.9 1.1-19-4.7-22.7-13.4-1.5.6-3.2 1-4.8 1.2-10.6 1.1-20.2-6.6-21.4-17.2-1.1-10.6 6.6-20.2 17.2-21.4l50.1-5.3c9.2-1 17.4 5.7 18.4 14.9s-5.7 17.4-14.9 18.4c-.7.1-1.5.1-2.2.1.5 11.4-8 21.5-19.7 22.7z"/><path fill="#3F61AB" d="M295.4 25.8l1.7 14.8c.1 1.2 1.2 2.1 2.4 1.9 1.2-.1 2.1-1.2 1.9-2.4l-1.7-14.8c-.1-1.2-1.2-2.1-2.4-1.9-1.2.1-2.1 1.2-1.9 2.4zM283.5 6.9l7.7 9c.8.9 2.2 1 3.1.2.9-.8 1-2.2.2-3.1l-7.7-9c-.8-.9-2.2-1-3.1-.2-.9.8-1 2.2-.2 3.1zm-18.2 11.9l11 4.5c1.1.5 2.4-.1 2.9-1.2.5-1.1-.1-2.4-1.2-2.9l-11-4.5c-1.1-.5-2.4.1-2.9 1.2-.4 1.2.1 2.4 1.2 2.9zm60-13.1l-7.7 9c-.8.9-2.2 1-3.1.2-.9-.8-1-2.2-.2-3.1l7.7-9c.8-.9 2.2-1 3.1-.2.9.8 1 2.2.2 3.1zm16.6 5.7l-10.3 5.9c-1 .6-2.4.2-3-.8-.6-1-.2-2.4.8-3l10.3-5.9c1-.6 2.4-.2 3 .8.6 1 .3 2.3-.8 3zm-62 17.1l4.4 14.7c.3 1.2 1.6 1.8 2.7 1.5 1.2-.3 1.8-1.6 1.5-2.7l-4.4-14.7c-.3-1.2-1.6-1.8-2.7-1.5-1.2.3-1.9 1.6-1.5 2.7zm32.4-3.9l.6 14.8c0 1.2 1.1 2.2 2.3 2.1 1.2 0 2.1-1.1 2.1-2.3l-.6-14.8c0-1.2-1.1-2.2-2.3-2.1-1.2.1-2.1 1.1-2.1 2.3zm14.7 0l-1.4 13.2c-.1 1.2.8 2.3 2 2.4 1.2.1 2.3-.8 2.4-2l1.4-13.2c.1-1.2-.8-2.3-2-2.4-1.2-.1-2.3.7-2.4 2z"/><path fill="#F9F8DD" d="M312.3 101c-4.8.5-16.1-4.6-19.5-13.4-1.3.6-6.2 1.5-7.6 1.5-7.9.2-17.5-6.8-18.6-17.5-1.2-10.6 5.7-18.8 14.4-21.1l42.8-4.8c7.8-.9 15 5.9 16.1 15 1 9.2-4.5 17.3-12.4 18.2-.6.1-1.3.1-1.9.1.6 11.5-3.3 21-13.3 22z"/></svg>