<svg xmlns="http://www.w3.org/2000/svg" viewBox="0 0 400 400"><path fill="#FFF" d="M0 1h400v399H0z"/><path fill="#FDFDFD" d="M211.2 202.7c-70.6 5.4-112.6 2.9-178.3-.9 0 0-16.8-.8-32.9.2v107c7.2.1 14.2.8 20.5 2.2 30 6.8 152.5 10.3 174.4-4.7l16.3-103.8z"/><path fill="none" stroke="#262626" stroke-width="3" stroke-linecap="round" stroke-miterlimit="10" d="M90.4 221.2s-38.5 2.6-48.1 20.4c-9.6 17.7 47.8 17.7 47.8 17.7s39.6-2.7 46.4-19.1c6.8-16.4-47.8-21.8-50.5-23.2"/><path fill="none" stroke="#262626" stroke-width="3" stroke-linecap="round" stroke-miterlimit="10" d="M18.4 242.2s39.6-8.2 71-4.1 91.4-6.8 91.4-6.8"/><path fill="none" stroke="#262626" stroke-width="3" stroke-linecap="round" stroke-miterlimit="10" d="M85.3 273.6c2.7-5.5 4.1-35.5 4.1-35.5s0-12.3 2.7-31.4m-55.9 26c6.8 16.4 15 32.8 16.4 40.9m89.3-51.2c-6.8 20.5-17.7 46.4-16.4 49.1"/><path fill="none" stroke="#262626" stroke-width="3" stroke-linecap="round" stroke-miterlimit="10" d="M85.3 249.1s-47 4.3-34.4 18.5c0 0 3 7.4 35.8 6s38.8-4.8 39.9-7.9 5.2-14-34.4-14M49.1 232c-4.1-17.7-8.5-38.7 19.6-6.4m39.5-4.3c11.2-11.8 34.4-32.3 16.7 10m-65.5 10.9c10.9-10.9 6.8-17.7 17.7-1.4m23.9 2.1c9.6-13.6 8.2-21.8 16.4-2.7"/><path fill="none" stroke="#262626" stroke-width="3" stroke-linecap="round" stroke-miterlimit="10" d="M79.3 253.1c2.3-9.1 17.3-6.4 17.3-2.3 0 4.1-17.3 2.3-17.3 2.3zm-43.1-1.3l-27.3 15m25.9-6.8c5.5-16.4 4.1-10.9-6.8-10.9"/><path fill="none" stroke="#E73B3B" stroke-width="3" stroke-linecap="round" stroke-miterlimit="10" d="M5.4 269.1s-1.5-.8-3.5.3m.4 10.8c2.7-2.7 6.3.2 9 .2s5.9 1.4 8.6 0"/><path fill="none" stroke="#262626" stroke-width="3" stroke-linecap="round" stroke-miterlimit="10" d="M1.9 292.1c2.7 0 5.6-.7 7-.7h1.4c2.8 0 5.5-1.4 6.9 1.3 1.4 2.7 6.8 2.8 9.5 0m62.7 0s0-13.6 4.1-12.3c4.1 1.4 12.3 8.2 6.8 5.5s-8.2-2.7-8.2-2.7l10.9 23.2"/><path fill="none" stroke="#E73B3B" stroke-width="3" stroke-linecap="round" stroke-miterlimit="10" d="M107.1 309.7c2.7-4.1 5.5-2.7 8.2-1.4 2.7 1.4-1.4 2.7 4.1 1.4 5.5-1.4 6.8-4.1 8.2-2.7s2.7 2.7 4.1 1.4c1.4-1.4 1.4-4.1 5.5-1.4s1.4 2.7 8.2 1.4c6.8-1.4 4.3 2 12.3 0 7.5-1.9 13.2-1.1 18.6-3.8 5.5-2.7 12.1-2.4 12.1-2.4"/><path fill="#262626" d="M164.2 261.5l-10.5-1.1c-1.6-.2-2.8-1.6-2.7-3.3l.8-7.5c.2-1.6 1.6-2.8 3.3-2.7l10.5 1.1c1.6.2 2.8 1.6 2.7 3.3l-.8 7.5c-.2 1.6-1.7 2.8-3.3 2.7z"/><path fill="#E73B3B" d="M161.2 281.6l-10.5-1.1c-1.6-.2-2.8-1.6-2.7-3.3l.8-7.5c.2-1.6 1.6-2.8 3.3-2.7l10.5 1.1c1.6.2 2.8 1.6 2.7 3.3l-.8 7.5c-.2 1.7-1.6 2.9-3.3 2.7z"/><path fill="none" stroke="#262626" stroke-width="3" stroke-linecap="round" stroke-miterlimit="10" d="M173.4 255.3c2.6-.4 3.1-1.8 5 0s2.4 1.5 6.4 1.8c4 .3 6-.4 7 0"/><path fill="none" stroke="#E73B3B" stroke-width="3" stroke-linecap="round" stroke-miterlimit="10" d="M170 275.3c2.6.9 5.6 2.7 7.7 1.4 2.1-1.3 5.2-2.3 6.3-1s6.1 2 7 1.5"/><path fill="#FAFAFA" d="M219.6 246.1h135.3c8.5 0 15.3-6.9 15.3-15.3V57.3c0-8.5-6.9-15.3-15.3-15.3H219.6c-8.5 0-15.3 6.9-15.3 15.3v173.5c-.1 8.5 6.8 15.3 15.3 15.3z"/><path fill="#E6E7EB" d="M213.1 57.6h148.4v165.7H213.1z"/><circle fill="#090A0A" cx="287.3" cy="49.7" r="2.1"/><path fill="#090A0A" d="M212.1 56.4h150.5v168.1H212.1z"/><path fill="#FAFAFA" d="M213.1 57.6h148.4v165.7H213.1z"/><path fill="#CDCCCC" d="M213.1 57.6h148.4v5H213.1z"/><path fill="#FAFAFA" d="M235.7 62.6h-22.6v-5.1h18c2.5 0 4.6 2.1 4.6 4.6v.5z"/><path fill="#FFF" d="M235.7 64.3h81.1v3.9h-81.1z"/><path fill="#CDCCCC" d="M322.6 68.2h2.6c.8 0 1.5-.7 1.5-1.5v-.8c0-.8-.7-1.5-1.5-1.5h-2.6c-.8 0-1.5.7-1.5 1.5v.8c-.1.8.6 1.5 1.5 1.5zm8.9.1h2.6c.8 0 1.5-.7 1.5-1.5V66c0-.8-.7-1.5-1.5-1.5h-2.6c-.8 0-1.5.7-1.5 1.5v.8c-.1.8.6 1.5 1.5 1.5zm-101.7-.1c1.1 0 1.9-.9 1.9-1.9 0-1.1-.9-1.9-1.9-1.9-1.1 0-1.9.9-1.9 1.9 0 1 .8 1.9 1.9 1.9zm-6.9 0c1.1 0 1.9-.9 1.9-1.9 0-1.1-.9-1.9-1.9-1.9-1.1 0-1.9.9-1.9 1.9 0 1 .8 1.9 1.9 1.9zm117.6.1h2.6c.8 0 1.5-.7 1.5-1.5V66c0-.8-.7-1.5-1.5-1.5h-2.6c-.8 0-1.5.7-1.5 1.5v.8c0 .8.7 1.5 1.5 1.5zm16.5-2.9h-5.6c-.2 0-.4-.2-.4-.4s.2-.4.4-.4h5.6c.2 0 .4.2.4.4.1.2-.1.4-.4.4zm0 2.8h-5.6c-.2 0-.4-.2-.4-.4s.2-.4.4-.4h5.6c.2 0 .4.2.4.4.1.2-.1.4-.4.4zm0-1.4h-5.6c-.2 0-.4-.2-.4-.4s.2-.4.4-.4h5.6c.2 0 .4.2.4.4.1.2-.1.4-.4.4z"/><path fill="none" stroke="#252725" stroke-miterlimit="10" d="M213.1 71h148.4v54.6H213.1z"/><path fill="none" stroke="#252725" stroke-miterlimit="10" d="M294.6 121.4H280c-.8 0-1.5-.7-1.5-1.5v-3.3c0-.8.7-1.5 1.5-1.5h14.6c.8 0 1.5.7 1.5 1.5v3.3c0 .8-.6 1.5-1.5 1.5z"/><path fill="#E2B842" d="M292.5 119.5H282c-.7 0-1.3-.6-1.3-1.3 0-.7.6-1.3 1.3-1.3h10.5c.7 0 1.3.6 1.3 1.3 0 .7-.6 1.3-1.3 1.3z"/><path fill="#252725" d="M296.8 92.1h-19c-1.3 0-2.3-1-2.3-2.3 0-1.3 1-2.3 2.3-2.3h19c1.3 0 2.3 1 2.3 2.3 0 1.3-1 2.3-2.3 2.3zm-30.3 10h-9.7c-1.3 0-2.3-1-2.3-2.3 0-1.3 1-2.3 2.3-2.3h9.7c1.3 0 2.3 1 2.3 2.3 0 1.3-1 2.3-2.3 2.3zm23.1 0h-11.9c-1.3 0-2.3-1-2.3-2.3 0-1.3 1-2.3 2.3-2.3h11.9c1.3 0 2.3 1 2.3 2.3 0 1.3-1 2.3-2.3 2.3zm26.2 0H300c-1.3 0-2.3-1-2.3-2.3 0-1.3 1-2.3 2.3-2.3h15.8c1.3 0 2.3 1 2.3 2.3 0 1.3-1 2.3-2.3 2.3z"/><path fill="none" stroke="#252725" stroke-miterlimit="10" d="M213.1 204.4h148.4v18.8H213.1z"/><path fill="#E5E5E5" stroke="#252725" stroke-miterlimit="10" d="M287.3 204.4h74.2v18.8h-74.2zm-24.8-9.1h-27c-2.5 0-4.6-2.1-4.6-4.6v-50.2c0-2.5 2.1-4.6 4.6-4.6h27c2.5 0 4.6 2.1 4.6 4.6v50.2c0 2.5-2 4.6-4.6 4.6z"/><path fill="#252725" d="M294 167.9h-11.9c-.8 0-1.4-.6-1.4-1.4 0-.8.6-1.4 1.4-1.4H294c.8 0 1.4.6 1.4 1.4.1.7-.6 1.4-1.4 1.4zm38.2 0h-11.9c-.8 0-1.4-.6-1.4-1.4 0-.8.6-1.4 1.4-1.4h11.9c.8 0 1.4.6 1.4 1.4.1.7-.6 1.4-1.4 1.4z"/><path fill="#E2B842" stroke="#252725" stroke-miterlimit="10" d="M255.6 167.9h-11.9c-.8 0-1.4-.6-1.4-1.4 0-.8.6-1.4 1.4-1.4h11.9c.8 0 1.4.6 1.4 1.4 0 .7-.6 1.4-1.4 1.4z"/><path fill="#252725" d="M295.8 177.6H277c-.8 0-1.4-.6-1.4-1.4 0-.8.6-1.4 1.4-1.4h18.8c.8 0 1.4.6 1.4 1.4 0 .7-.6 1.4-1.4 1.4zm-5.5 5.6H277c-.8 0-1.4-.6-1.4-1.4 0-.8.6-1.4 1.4-1.4h13.4c.8 0 1.4.6 1.4 1.4 0 .8-.7 1.4-1.5 1.4zm43.7-5.8h-18.8c-.8 0-1.4-.6-1.4-1.4 0-.8.6-1.4 1.4-1.4H334c.8 0 1.4.6 1.4 1.4.1.8-.6 1.4-1.4 1.4zm-5.4 5.7h-13.4c-.8 0-1.4-.6-1.4-1.4 0-.8.6-1.4 1.4-1.4h13.4c.8 0 1.4.6 1.4 1.4 0 .7-.6 1.4-1.4 1.4zm6.4 5.8h-19.8c-.8 0-1.4-.6-1.4-1.4 0-.8.6-1.4 1.4-1.4H335c.8 0 1.4.6 1.4 1.4.1.8-.6 1.4-1.4 1.4z"/><path fill="#E2B842" stroke="#252725" stroke-miterlimit="10" d="M257.4 177.3h-18.8c-.8 0-1.4-.6-1.4-1.4 0-.8.6-1.4 1.4-1.4h18.8c.8 0 1.4.6 1.4 1.4 0 .8-.7 1.4-1.4 1.4zm-5.5 5.7h-13.4c-.8 0-1.4-.6-1.4-1.4 0-.8.6-1.4 1.4-1.4h13.4c.8 0 1.4.6 1.4 1.4 0 .7-.6 1.4-1.4 1.4zm6.5 5.8h-19.8c-.8 0-1.4-.6-1.4-1.4 0-.8.6-1.4 1.4-1.4h19.8c.8 0 1.4.6 1.4 1.4 0 .8-.7 1.4-1.4 1.4z"/><circle fill="#FAFAFA" stroke="#252725" stroke-miterlimit="10" cx="249.7" cy="151.2" r="9.9"/><circle fill="none" stroke="#252725" stroke-miterlimit="10" cx="288.1" cy="151.2" r="9.9"/><circle fill="none" stroke="#252725" stroke-miterlimit="10" cx="326.3" cy="151.2" r="9.9"/><path fill="#252725" d="M296.8 188.8H277c-.8 0-1.4-.6-1.4-1.4 0-.8.6-1.4 1.4-1.4h19.8c.8 0 1.4.6 1.4 1.4 0 .8-.6 1.4-1.4 1.4z"/><path fill="#343749" d="M371.2 165c-1.5 0-2.7-1.2-2.7-2.7v-33.9c0-1.5 1.2-2.7 2.7-2.7 2.1 0 3.9 1.7 3.9 3.9v31.6c0 2.1-1.8 3.8-3.9 3.8zM204 125.6c1.5 0 2.7 1.2 2.7 2.7v33.9c0 1.5-1.2 2.7-2.7 2.7-2.1 0-3.9-1.7-3.9-3.9v-31.6c.1-2 1.8-3.8 3.9-3.8z"/><path fill="none" stroke="#252725" stroke-miterlimit="10" d="M355.9 80h-14.6c-.8 0-1.5-.7-1.5-1.5v-3.3c0-.8.7-1.5 1.5-1.5h14.6c.8 0 1.5.7 1.5 1.5v3.3c.1.8-.6 1.5-1.5 1.5z"/><path fill="#E2B842" d="M353.9 78.1h-10.5c-.7 0-1.3-.6-1.3-1.3 0-.7.6-1.3 1.3-1.3h10.5c.7 0 1.3.6 1.3 1.3-.1.7-.6 1.3-1.3 1.3z"/><path fill="#252725" d="M304 78.1h-5.6c-.7 0-1.3-.6-1.3-1.3 0-.7.6-1.3 1.3-1.3h5.6c.7 0 1.3.6 1.3 1.3 0 .8-.6 1.3-1.3 1.3zm13.4 0h-6.9c-.7 0-1.3-.6-1.3-1.3 0-.7.6-1.3 1.3-1.3h6.9c.7 0 1.3.6 1.3 1.3 0 .8-.6 1.3-1.3 1.3zm15.2 0h-9.2c-.7 0-1.3-.6-1.3-1.3 0-.7.6-1.3 1.3-1.3h9.2c.7 0 1.3.6 1.3 1.3 0 .8-.6 1.3-1.3 1.3z"/><path fill="none" stroke="#252725" stroke-miterlimit="10" d="M213.1 71l148.4 54.6m-148.4 0L362.3 71m-75 133.4l35.8 18.9m38.5-18.9l-34.4 18.9m-114.1-97.7h148.4v78.8H213.1z"/><path fill="#00789F" d="M277 400h123v-91.4l-123 .3V400z"/><path fill="#006E89" d="M277.7 400l-.1-91.4H238V400h39.7z"/><path fill="#008DD1" d="M400 308.6H0V219h400v89.6z"/><path fill="#00789F" d="M400 331.9H0v-23.3h400v23.3z"/><path fill="#0084B7" d="M400 308.6H0v-15.4s296.5-.4 400 .3v15.1z"/><path fill="#009EDB" d="M.1 219H400v53.9c-137.3-10-259.8-19.5-400-30.6L.1 219z"/><path fill="#006172" d="M292 331.7h108V400H292z"/><path fill="#FAFAFA" d="M135.3 141.6L0 141.3V1l156.6-1 1.9 118.4c0 12.8-10.4 23.2-23.2 23.2z"/><path fill="#090A0A" d="M0 78.9V1l156.6-1 1.9 78.9H0z"/><path fill="#232A3C" d="M0 0h143.5v67H0z"/><path fill="#343749" d="M131.7 59.3H0V0h134.8v56.2c0 1.8-1.4 3.1-3.1 3.1z"/><path fill="#DDC132" d="M20.3 19.5H0v-4.4h20.3c1.2 0 2.2 1 2.2 2.2 0 1.2-1 2.2-2.2 2.2zM8.2 27.7H0v-4.4h8.2c1.2 0 2.2 1 2.2 2.2-.1 1.2-1 2.2-2.2 2.2z"/><path fill="#FAFAFA" d="M33.8 44H0v-4.4h33.8c1.2 0 2.2 1 2.2 2.2 0 1.2-1 2.2-2.2 2.2zm12.7 8.4H0V48h46.5c1.2 0 2.2 1 2.2 2.2 0 1.2-1 2.2-2.2 2.2z"/><path fill="#404356" d="M132 59.3H84.1V0h50.6v56.6c.1 1.5-1.2 2.7-2.7 2.7z"/><path fill="#484C60" d="M84.1 0H92v59.3h-7.9z"/><path fill="#FDFDFD" d="M212.7 202.1c-71.4 5.5-113.8 3-180.2-.9 0 0-16.4-.8-32.5.1v108.2c7 .2 13.8.8 19.9 2.2 30.4 6.9 154.2 10.4 176.2-4.8l16.6-104.8z"/><path fill="none" stroke="#262626" stroke-width="3" stroke-linecap="round" stroke-miterlimit="10" d="M90.6 220.8s-39 2.6-48.6 20.6c-9.7 17.9 48.3 17.9 48.3 17.9s40-2.8 46.9-19.3c6.9-16.6-48.3-22.1-51-23.5"/><path fill="none" stroke="#262626" stroke-width="3" stroke-linecap="round" stroke-miterlimit="10" d="M17.8 242.1s40-8.3 71.7-4.1c31.7 4.1 92.4-6.9 92.4-6.9"/><path fill="none" stroke="#262626" stroke-width="3" stroke-linecap="round" stroke-miterlimit="10" d="M85.4 273.8c2.8-5.5 4.1-35.9 4.1-35.9s0-12.4 2.8-31.7m-56.6 26.2c6.9 16.6 15.2 33.1 16.6 41.4m90.4-51.7c-6.9 20.7-17.9 46.9-16.6 49.7"/><path fill="none" stroke="#262626" stroke-width="3" stroke-linecap="round" stroke-miterlimit="10" d="M85.4 249s-47.5 4.3-34.8 18.7c0 0 3 7.5 36.2 6.1 33.1-1.4 39.2-4.9 40.3-7.9 1.1-3.1 5.2-14.1-34.8-14.1m-43.5-20.1c-4.1-17.9-8.6-39.2 19.9-6.5m39.8-4.3c11.4-12 34.8-32.7 16.9 10.1m-66.2 11.1c11-11 6.9-17.9 17.9-1.4m24.2 2.1c9.7-13.8 8.3-22.1 16.6-2.8"/><path fill="none" stroke="#262626" stroke-width="3" stroke-linecap="round" stroke-miterlimit="10" d="M79.4 253.1c2.3-9.2 17.5-6.4 17.5-2.3-.1 4.1-17.5 2.3-17.5 2.3zm-43.7-1.4L8.1 266.9m26.3-6.9c5.5-16.6 4.1-11-6.9-11"/><path fill="none" stroke="#E73B3B" stroke-width="3" stroke-linecap="round" stroke-miterlimit="10" d="M2.3 269.9c.6-.5 1.5 0 3.1 0h3.9m-7.4 11.4c2.8-2.8 6-.7 8.8-.7s6 1.4 8.7 0"/><path fill="none" stroke="#262626" stroke-width="3" stroke-linecap="round" stroke-miterlimit="10" d="M1.9 292.1c2.8 0 4.9-.4 6.2-.4h1.4c2.8 0 5.6-1.4 7 1.4 1.4 2.8 6.8 2.8 9.6 0m63.4 0s0-13.8 4.1-12.4c4.1 1.4 12.4 8.3 6.9 5.5-5.5-2.8-8.3-2.8-8.3-2.8l11 23.5"/><path fill="none" stroke="#E73B3B" stroke-width="3" stroke-linecap="round" stroke-miterlimit="10" d="M107.5 310.2c2.8-4.1 5.5-2.8 8.3-1.4 2.8 1.4-1.4 2.8 4.1 1.4s6.9-4.1 8.3-2.8c1.4 1.4 2.8 2.8 4.1 1.4 1.4-1.4 1.4-4.1 5.5-1.4 4.1 2.8 1.4 2.8 8.3 1.4s4.4 2 12.4 0c7.6-1.9 13.3-1.1 18.8-3.8 5.5-2.8 12.2-2.4 12.2-2.4"/><path fill="#262626" d="M165.2 261.5l-10.7-1.1c-1.6-.2-2.8-1.6-2.7-3.3l.8-7.7c.2-1.6 1.6-2.8 3.3-2.7l10.7 1.1c1.6.2 2.8 1.6 2.7 3.3l-.8 7.7c-.2 1.7-1.7 2.9-3.3 2.7z"/><path fill="#E73B3B" d="M162.2 281.8l-10.7-1.1c-1.6-.2-2.8-1.6-2.7-3.3l.8-7.7c.2-1.6 1.6-2.8 3.3-2.7l10.7 1.1c1.6.2 2.8 1.6 2.7 3.3l-.8 7.7c-.2 1.7-1.7 2.9-3.3 2.7z"/><path fill="none" stroke="#262626" stroke-width="3" stroke-linecap="round" stroke-miterlimit="10" d="M174.5 255.2c2.6-.4 3.1-1.8 5 0s2.4 1.5 6.5 1.8c4.1.3 6.1-.4 7.1 0"/><path fill="none" stroke="#E73B3B" stroke-width="3" stroke-linecap="round" stroke-miterlimit="10" d="M171 275.4c2.6.9 5.6 2.7 7.7 1.4s5.2-2.3 6.3-1c1.1 1.3 6.2 2 7 1.5"/><path fill="#FAFAFA" d="M293.2 258.8h-31c-14.7 0-26.6 11.9-26.6 26.6 0 7.6 6.2 13.8 13.8 13.8H306c7.6 0 13.8-6.2 13.8-13.8-.1-14.8-12-26.6-26.6-26.6z"/><path fill="#EFEFEF" d="M235.6 285.3c0 7.6 6.2 13.8 13.8 13.8H306c7.6 0 13.8-6.2 13.8-13.8-28.1 6.4-56.2 6.4-84.2 0zm42.1-12.2c1.2 0 2.2-1 2.2-2.2v-12.2h-4.4v12.2c0 1.3.9 2.2 2.2 2.2z"/><path fill="#3C4056" d="M344.4 218.3c0-8.4 24.7-23.9 55.6-24.5v40.1c-30.9-.3-55.6-7.1-55.6-15.6z"/><path fill="#252725" d="M379.4 227.8s9.4-1.1 20.6-2.6v3.8c-11.7.1-20.8-.4-20.6-1.2z"/><path fill="#E6E7EB" d="M397.1 0v194.8c0 2 1.2 3.7 2.9 4.4.4.2 0-199.2 0-199.2h-2.9z"/><path opacity=".7" fill="#FFF" d="M398.6 0v194.8c0 1.8.6 3.4 1.4 4.2.3.3.1-129.7 0-199h-1.4z"/><path fill="#FAFAFA" d="M221.1 246h136.7c8.6 0 15.5-6.9 15.5-15.5V55.1c0-8.6-6.9-15.5-15.5-15.5H221.1c-8.6 0-15.5 6.9-15.5 15.5v175.4c0 8.6 7 15.5 15.5 15.5z"/><path fill="#E6E7EB" d="M214.6 55.4h150v167.5h-150z"/><circle fill="#090A0A" cx="289.6" cy="47.5" r="2.1"/><path fill="#090A0A" d="M213.5 54.2h152.2v169.9H213.5z"/><path fill="#FAFAFA" d="M214.6 55.4h150v167.5h-150z"/><path fill="#CDCCCC" d="M214.6 55.4h150v5.1h-150z"/><path fill="#FAFAFA" d="M237.4 60.5h-22.8v-5.1h18.2c2.6 0 4.6 2.1 4.6 4.6v.5z"/><path fill="#FFF" d="M237.4 62.2h82v3.9h-82z"/><path fill="#CDCCCC" d="M325.2 66.2h2.7c.9 0 1.5-.7 1.5-1.5v-.8c0-.9-.7-1.5-1.5-1.5h-2.7c-.9 0-1.5.7-1.5 1.5v.8c0 .8.7 1.5 1.5 1.5zm9 .1h2.7c.9 0 1.5-.7 1.5-1.5V64c0-.9-.7-1.5-1.5-1.5h-2.7c-.9 0-1.5.7-1.5 1.5v.8c0 .8.7 1.5 1.5 1.5zm-102.7-.1c1.1 0 2-.9 2-2s-.9-2-2-2-2 .9-2 2 .9 2 2 2zm-7 0c1.1 0 2-.9 2-2s-.9-2-2-2-2 .9-2 2 .9 2 2 2zm118.9.1h2.7c.9 0 1.5-.7 1.5-1.5V64c0-.9-.7-1.5-1.5-1.5h-2.7c-.9 0-1.5.7-1.5 1.5v.8c-.1.8.6 1.5 1.5 1.5zm16.7-3h-5.7c-.2 0-.4-.2-.4-.4s.2-.4.4-.4h5.7c.2 0 .4.2.4.4s-.2.4-.4.4zm0 2.8h-5.7c-.2 0-.4-.2-.4-.4s.2-.4.4-.4h5.7c.2 0 .4.2.4.4s-.2.4-.4.4zm0-1.3h-5.7c-.2 0-.4-.2-.4-.4s.2-.4.4-.4h5.7c.2 0 .4.2.4.4s-.2.4-.4.4z"/><path fill="none" stroke="#252725" stroke-miterlimit="10" d="M214.6 68.9h150v55.2h-150z"/><path fill="none" stroke="#252725" stroke-miterlimit="10" d="M297 119.9h-14.8c-.9 0-1.5-.7-1.5-1.5V115c0-.9.7-1.5 1.5-1.5H297c.9 0 1.5.7 1.5 1.5v3.3c0 .9-.7 1.6-1.5 1.6z"/><path fill="#E2B842" d="M294.9 118h-10.6c-.7 0-1.3-.6-1.3-1.3 0-.7.6-1.3 1.3-1.3h10.6c.7 0 1.3.6 1.3 1.3 0 .7-.6 1.3-1.3 1.3z"/><path fill="#252725" d="M299.2 90.3H280c-1.3 0-2.3-1-2.3-2.3 0-1.3 1-2.3 2.3-2.3h19.2c1.3 0 2.3 1 2.3 2.3 0 1.3-1 2.3-2.3 2.3zm-30.6 10.1h-9.8c-1.3 0-2.3-1-2.3-2.3 0-1.3 1-2.3 2.3-2.3h9.8c1.3 0 2.3 1 2.3 2.3 0 1.3-1 2.3-2.3 2.3zm23.3 0h-12c-1.3 0-2.3-1-2.3-2.3 0-1.3 1-2.3 2.3-2.3h12c1.3 0 2.3 1 2.3 2.3 0 1.3-1 2.3-2.3 2.3zm26.5 0h-16c-1.3 0-2.3-1-2.3-2.3 0-1.3 1-2.3 2.3-2.3h16c1.3 0 2.3 1 2.3 2.3 0 1.3-1 2.3-2.3 2.3z"/><path fill="none" stroke="#252725" stroke-miterlimit="10" d="M214.6 203.8h150v19.1h-150z"/><path fill="#E5E5E5" stroke="#252725" stroke-miterlimit="10" d="M289.6 203.8h75v19.1h-75zm-25.1-9.2h-27.3c-2.6 0-4.6-2.1-4.6-4.6v-50.7c0-2.6 2.1-4.6 4.6-4.6h27.3c2.6 0 4.6 2.1 4.6 4.6V190c.1 2.5-2 4.6-4.6 4.6z"/><path fill="#252725" d="M296.4 166.9h-12c-.8 0-1.4-.6-1.4-1.4 0-.8.6-1.4 1.4-1.4h12c.8 0 1.4.6 1.4 1.4 0 .7-.6 1.4-1.4 1.4zm38.6 0h-12c-.8 0-1.4-.6-1.4-1.4 0-.8.6-1.4 1.4-1.4h12c.8 0 1.4.6 1.4 1.4.1.7-.6 1.4-1.4 1.4z"/><path fill="#E2B842" stroke="#252725" stroke-miterlimit="10" d="M257.6 166.9h-12c-.8 0-1.4-.6-1.4-1.4 0-.8.6-1.4 1.4-1.4h12c.8 0 1.4.6 1.4 1.4 0 .7-.6 1.4-1.4 1.4z"/><path fill="#252725" d="M298.2 176.7h-19c-.8 0-1.4-.6-1.4-1.4 0-.8.6-1.4 1.4-1.4h19c.8 0 1.4.6 1.4 1.4 0 .7-.6 1.4-1.4 1.4zm-5.5 5.7h-13.5c-.8 0-1.4-.6-1.4-1.4 0-.8.6-1.4 1.4-1.4h13.5c.8 0 1.4.6 1.4 1.4 0 .7-.6 1.4-1.4 1.4zm44.1-5.8h-19c-.8 0-1.4-.6-1.4-1.4 0-.8.6-1.4 1.4-1.4h19c.8 0 1.4.6 1.4 1.4.1.7-.6 1.4-1.4 1.4zm-5.5 5.7h-13.5c-.8 0-1.4-.6-1.4-1.4 0-.8.6-1.4 1.4-1.4h13.5c.8 0 1.4.6 1.4 1.4.1.7-.6 1.4-1.4 1.4zm6.5 5.9h-20c-.8 0-1.4-.6-1.4-1.4 0-.8.6-1.4 1.4-1.4h20c.8 0 1.4.6 1.4 1.4.1.8-.6 1.4-1.4 1.4z"/><path fill="#E2B842" stroke="#252725" stroke-miterlimit="10" d="M259.3 176.5h-19c-.8 0-1.4-.6-1.4-1.4 0-.8.6-1.4 1.4-1.4h19c.8 0 1.4.6 1.4 1.4.1.7-.6 1.4-1.4 1.4zm-5.5 5.7h-13.5c-.8 0-1.4-.6-1.4-1.4 0-.8.6-1.4 1.4-1.4h13.5c.8 0 1.4.6 1.4 1.4.1.7-.6 1.4-1.4 1.4zm6.5 5.9h-20c-.8 0-1.4-.6-1.4-1.4 0-.8.6-1.4 1.4-1.4h20c.8 0 1.4.6 1.4 1.4.1.7-.6 1.4-1.4 1.4z"/><circle fill="#FAFAFA" stroke="#252725" stroke-miterlimit="10" cx="251.5" cy="150.1" r="10"/><circle fill="none" stroke="#252725" stroke-miterlimit="10" cx="290.4" cy="150.1" r="10"/><circle fill="none" stroke="#252725" stroke-miterlimit="10" cx="329" cy="150.1" r="10"/><path fill="#252725" d="M299.2 188.1h-20c-.8 0-1.4-.6-1.4-1.4 0-.8.6-1.4 1.4-1.4h20c.8 0 1.4.6 1.4 1.4 0 .7-.6 1.4-1.4 1.4z"/><path fill="#343749" d="M374.4 164c-1.5 0-2.8-1.2-2.8-2.8V127c0-1.5 1.2-2.8 2.8-2.8 2.2 0 3.9 1.7 3.9 3.9v32c0 2.2-1.7 3.9-3.9 3.9zm-169-39.8c1.5 0 2.8 1.2 2.8 2.8v34.3c0 1.5-1.2 2.8-2.8 2.8-2.2 0-3.9-1.7-3.9-3.9v-32c0-2.2 1.8-4 3.9-4z"/><path fill="none" stroke="#252725" stroke-miterlimit="10" d="M359 78.1h-14.8c-.9 0-1.5-.7-1.5-1.5v-3.3c0-.9.7-1.5 1.5-1.5H359c.9 0 1.5.7 1.5 1.5v3.3c0 .8-.7 1.5-1.5 1.5z"/><path fill="#E2B842" d="M356.9 76.1h-10.6c-.7 0-1.3-.6-1.3-1.3 0-.7.6-1.3 1.3-1.3h10.6c.7 0 1.3.6 1.3 1.3 0 .8-.6 1.3-1.3 1.3z"/><path fill="#252725" d="M306.5 76.2h-5.7c-.7 0-1.3-.6-1.3-1.3 0-.7.6-1.3 1.3-1.3h5.7c.7 0 1.3.6 1.3 1.3 0 .7-.6 1.3-1.3 1.3zm13.5 0h-6.9c-.7 0-1.3-.6-1.3-1.3 0-.7.6-1.3 1.3-1.3h6.9c.7 0 1.3.6 1.3 1.3 0 .7-.5 1.3-1.3 1.3zm15.4 0h-9.3c-.7 0-1.3-.6-1.3-1.3 0-.7.6-1.3 1.3-1.3h9.3c.7 0 1.3.6 1.3 1.3 0 .7-.6 1.3-1.3 1.3z"/><path fill="none" stroke="#252725" stroke-miterlimit="10" d="M214.6 68.9l150 55.3m-150 0l150.8-55.3m-75.8 134.9l36.2 19.1m38.8-19.1l-34.7 19.1m-115.3-98.7h150v79.7h-150z"/><path fill="#D383A7" d="M400 393.1c-1.6-1.2-2.6-2.4-3.1-3.1-1.3-2-1.5-2.1-2.2-1.9-1 .4-.7 2-.5 3 .4 1.9 2.2 5.1 5.7 7.9l.1-5.9zm-47.6 6.9h12.4c-1.3-3.3-1.8-6.7-1-10.4 1.1-5.1 4.9-17.8 36.2-29.2v-13c-10.7 3.3-21.2 7.9-30 13.8-16.6 11.2-20.8 22.6-20.6 27.6.1 3.9 1.2 7.6 3 11.2z"/><path fill="#E6E7EB" d="M58.9 99.2l-7.5-1c-1.3-.2-2.2-1.6-1.6-2.8l.7-1.6c.5-1.3-.3-2.7-1.6-2.8l-7.3-1c-.8-.1-1.7.3-2.1 1l-3.7 6.6c-.1.2-.2.3-.3.4l-14.4 14.6c-.5.5-1.1.7-1.8.6l-.6-.1c-.6-.1-1.2-.4-1.5-1l-2.6-4.1c-.5-.9-1.6-1.2-2.5-.8l-4.3 1.7c-.9.4-1.4 1.3-1.3 2.2l.9 6.8c.1.6.4 1.2 1 1.5l8.1 5.1c.4.3.9.4 1.4.3l10.2-1.4c.4-.1.7-.2 1-.4l9.1-7.2c.7-.5 1.6-.6 2.3-.2l3.1 1.8c.5.3 1.1.4 1.7.2l5.7-1.9c1-.3 2.1.1 2.5 1.1l1.7 3.6 4 7.5c.3.5.7.8 1.2 1l9.7 3.2c.5.2 1 .1 1.5-.1l7.8-3.4c.2-.1.5-.3.6-.4l7.1-7.1c.7-.7 1.7-.8 2.5-.3l2.4 1.4c.5.3 1.1.4 1.6.2l4.9-1.4c.8-.2 1.6 0 2.1.6l1.8 2.1c.3.3.6.5 1 .6 1 .3 1.7 1.3 1.5 2.3l-.7 4.8c-.1.6.1 1.1.4 1.6l3 3.9c.3.4.8.7 1.4.8l6.9 1c.6.1 1.2-.1 1.6-.5l4.1-3.5c.2-.2.4-.4.5-.6l18.5-33.9c.1-.1.1-.2.2-.3l5.1-6.4c.5-.6.6-1.5.2-2.2l-1.8-3.7c-.2-.4-.5-.7-.8-.9l-7.9-4.7c-.3-.2-.7-.3-1.1-.3l-6 .2c-.7 0-1.3.4-1.7 1l-2.1 3.3c-.1.2-.2.3-.2.5l-2 6.5c-.3.9-1.1 1.5-2 1.5l-4.1-.1c-.6 0-1.1-.3-1.5-.7l-1.9-2.2c-.4-.4-.9-.7-1.5-.7l-8.1-.3c-.5 0-1 .1-1.4.5L96 96c-.1.1-.3.2-.5.3l-4.6 2.1c-1.8.8-3.6-1.2-2.7-2.9l1.3-2.3c.3-.5.3-1.1.2-1.6l-1.8-5.9c-.2-.8-.9-1.3-1.7-1.4l-9.8-1.4c-.5-.1-1 0-1.4.3l-7.5 4.7c-.3.2-.5.4-.7.7l-6 10c-.2.4-1 .8-1.9.6z"/><path opacity=".1" d="M130.2 86c0 .1-.1.2 0 .3 0 0 0 2.1-.5 3l-20.6 37.4c-1.5 2.8-.5 6.2 2.3 7.7s6.2.5 7.7-2.2l20.6-37.4c.4-.7 2.3-2 2.3-2 .1-.1.2-.1.2-.2.5-1-1.7-3.2-5-5.1-3.2-1.9-6.4-2.6-7-1.5.1-.1.1-.1 0 0z"/><linearGradient id="a" gradientUnits="userSpaceOnUse" x1="541.593" y1="-339.675" x2="541.704" y2="-339.651" gradientTransform="matrix(113.8019 15.8128 -28.5129 205.2031 -71201.523 61245.344)"><stop offset="0" stop-color="#a2a6ad"/><stop offset="1" stop-color="#fff"/></linearGradient><path fill="url(#a)" d="M129.9 85.6c0 .1-.1.2 0 .3 0 0 0 2.1-.5 3l-20.6 37.4c-1.5 2.8-.5 6.2 2.3 7.7s6.2.5 7.7-2.2l20.6-37.4c.4-.7 2.3-2 2.3-2 .1-.1.2-.1.2-.2.5-1-1.7-3.2-5-5.1-3.3-1.9-6.5-2.6-7-1.5 0-.1 0-.1 0 0z"/><linearGradient id="b" gradientUnits="userSpaceOnUse" x1="537.797" y1="-339.349" x2="537.899" y2="-339.325" gradientTransform="matrix(75.8036 10.5329 -17.3093 124.5722 -46524.438 36724.2)"><stop offset="0" stop-color="#a32c1f"/><stop offset="1" stop-color="#d72c1d"/></linearGradient><path fill="url(#b)" d="M132.1 104.1L117.2 131c-1.1 1.9-3.6 2.7-5.6 1.6-2-1.1-2.8-3.6-1.7-5.6l9.5-17.2s1.1-1.3 2.9-2.1c1.9-.8 3.2-.4 5.2-.9 2.2-.6 4.6-2.7 4.6-2.7z"/><path fill="#4C5151" d="M139.4 90.9c.3-.5-1.1-1.9-3.2-3-2-1.1-3.9-1.6-4.2-1.1-.3.5 1.1 1.9 3.2 3 2 1.2 3.9 1.7 4.2 1.1z"/><path opacity=".3" fill="#FFF" d="M129.7 85.8s0 2.1-.5 3l-20.5 37.3c-1.5 2.7-.5 6.2 2.2 7.7.5.3 1 .5 1.5.6-1.7-1.7-2.2-4.5-1-6.7l20.1-36.5c.1-.1-1.7-2.3-1.8-5.4z"/><ellipse fill="#FFF" cx="121.3" cy="110.5" rx=".4" ry=".4"/><ellipse fill="#FFF" cx="123.8" cy="114.1" rx=".7" ry=".7"/><ellipse fill="#FFF" cx="118.9" cy="117.3" rx="1.3" ry="1.3"/><ellipse fill="#FFF" cx="116.5" cy="119.3" rx=".7" ry=".7"/><ellipse fill="#FFF" cx="118.5" cy="124.6" rx=".4" ry=".4"/><path opacity=".1" d="M43.5 97.2c.6.6 1.8.5 2.8-.3 1-.8 1.3-2 .7-2.6-.6-.6-1.8-.5-2.8.3-1 .9-1.3 2-.7 2.6zm-2.2 1.5c-.2 0-.5.3-.3.4.4.2.5.5.4 1-.6 1.8-3.2 3.6-4.1 4.2-.3.2 0 .7.2.6.5-.3 1.7-1 2.7-2-1.8 2.9-5.1 6.5-6.3 7.7-4.8 5-11.7 9.3-15.9 8.7-3.4-.5-5.9-3.1-6.1-6.6 0-.4-.5-.5-.4 0 .1 4.7 3.4 7 7.7 7.6 4.7.7 10.7-2 14.2-5 5.7-4.9 9.8-11 9.5-14.7-.2-1.5-1.1-1.8-1.6-1.9zm28.5 16.5c1.3-.1 2.5-.7 2.7-1.8 0-.1-.2-.2-.2 0-.1.7-.9 1.1-1.8 1.1-2.1 0-5.7-2.9-7.3-5.6 1.9 1 6.2.5 8.3-.6 2-1.1 2.9-2.4 3.2-3.5.5-1.9-1.4-3.3-4.5-2.6-2 .5-4.4 1.8-7.2 4.6 3-3.7 8.8-9.7 14.1-13.2 6.5-4.3 9.7-2.9 3.8 1.8-2.5 1.9-6.9 4.3-9.8 5.1-.9.2-.6.8.1.6 3.1-.9 7.4-3 10.1-4.9 8-5.8 2.8-11.7-6-5.6-6 4.1-10.1 8.7-14 14.9-1.2 1.1-2.1 2-3.2 2.7l-.3.3c-2.9 1.8-7.4 4.3-9.9 4-1.8-.2-2.4-1.7-1.8-3.4.9-2.7 4.1-5.5 6.7-6.2 3.3-1 4.8 2 .4 3.7-1.7.6-3.6.8-4.4.7-.9-.1-.9.3-.1.4 1.2.2 3.3 0 4.8-.5 4.5-1.4 5.3-5.1.7-5.9-4.9-.9-11.5 2.5-12.2 7.9-.3 2.4 1.5 4 4.1 4.3 4.4.6 8.8-2.2 12.4-4.7.5-.3 1-.7 1.5-1.1-1.5 2.7-2.5 5.3-2.5 7.3 0 1.4.7 2.2 1.3 2.9.1.1.4.1.3-.2-.8-1.2-.1-4.5 1.7-7.5.6 2 4.5 5.3 9 5zm-4-10.1c5.8-3.9 7.2.5 3.6 2.6-1.9 1.1-5.4 1.6-6.4.8l-.2-.2c-.1-.2-.2-.5-.3-.7 1.1-.9 2.2-1.7 3.3-2.5zm29.3-1.2c2 .5 1.5-2.1-.7-1.8-1 .1-2.1 1.8-3 3.3-2.5 2.8-6.5 6.5-9.2 8.4-2.4 1.5-4.4 1.8-1.5-1.3 1.2-1.2 2.6-2.5 3.6-3.9 2.2-3.5-1.2-5.6-4.4-3.8-1.9 1.1-4.5 3.4-6.5 4.6-.5.3-.5.9 0 .6 1.6-1 4.5-3.3 6.8-4.5 2-1.1 2.6-.1 1.4.9-1.7 1.4-4.6 4-5.5 5.7-1.3 2.6-.4 4 1.4 4.2 2.5.3 6.7-3 9.5-5.7 1-.9 2-2 2.9-3-2.7 3.9-5.5 7.7-8.9 11.2-4.7 4.8-10.2 8.1-14.8 7.5-3.4-.5-6-3.2-6.1-6.6 0-.4-.4-.5-.4 0 .1 4.7 3.4 7 7.7 7.6 4.7.7 9.6-1.4 13.2-4.3 7.3-5.9 9.2-13.3 11.7-17.3 1.3-2 2.2-2 2.8-1.8zm27-2.9c1.2-1.5 1.3-2.7-.9-3-1.7-.2-4.8.6-6.4 1.4-.4.3-.2.5.2.3l.9-.3c1.7-.6.8 1.1.4 1.7-2.3 3-6.3 7.1-8.4 9.2-1 1-2.1 2-3.1 2.8-1.9 1.4-5.6 3.7-8.3 4.3-8.6 1.9 3.7-10.5 4.8-11.5 2.3-2.1 7.1-5.7 8.7-7.7 1.2-1.5 1.3-2.7-.9-3-1.7-.2-4.8.6-6.4 1.4-.4.3-.2.5.2.3l.9-.3c1.7-.6.8 1.1.4 1.7-2.3 3-6.3 7.1-8.4 9.2-1.7 1.7-3.7 3.4-5.2 4.3-.6.4-.3.8.3.5.5-.3 1.3-.9 2.3-1.6-1.9 2.7-3.7 6.7.2 7.8 3.3.9 7.7-1.9 10.6-4.1.3-.2.7-.5 1-.8.1-.1.2-.1.3-.2-1.9 2.7-3.7 6.7.2 7.8 4.2 1.2 10.3-3.8 12.6-5.6.4-.3.4-1-.3-.4-1.4 1.1-6 4.2-9.1 4.9-8.6 1.9 3.7-10.5 4.8-11.5 2.1-2.1 7-5.7 8.6-7.6z"/><linearGradient id="c" gradientUnits="userSpaceOnUse" x1="41.511" y1="190.74" x2="41.511" y2="150.054" gradientTransform="scale(1 -1) rotate(-7.909 -1945.56 -150.413)"><stop offset="0" stop-color="#303331"/><stop offset=".403" stop-color="#63686c"/><stop offset="1" stop-color="#4c5151"/></linearGradient><path fill="url(#c)" d="M43.1 96.8c.6.6 1.8.5 2.8-.3 1-.8 1.3-2 .7-2.6-.6-.6-1.8-.5-2.8.3-1 .8-1.3 1.9-.7 2.6zm-2.2 1.4c-.2 0-.5.3-.3.4.4.2.5.5.4 1-.6 1.8-3.2 3.6-4.1 4.2-.3.2 0 .7.2.6.5-.3 1.7-1 2.7-2-1.8 2.9-5.1 6.5-6.3 7.7-4.8 5-11.7 9.3-15.9 8.7-3.4-.5-5.9-3.1-6.1-6.6 0-.4-.5-.5-.4 0 .1 4.7 3.4 7 7.7 7.6 4.7.7 10.7-2 14.2-5 5.7-4.9 9.8-11 9.5-14.7-.1-1.5-1.1-1.8-1.6-1.9zm28.5 16.5c1.3-.1 2.5-.7 2.7-1.8 0-.1-.2-.2-.2 0-.1.7-.9 1.1-1.8 1.1-2.1 0-5.7-2.9-7.3-5.6 1.9 1 6.2.5 8.3-.6 2-1.1 2.9-2.4 3.2-3.5.5-1.9-1.4-3.3-4.5-2.6-2 .5-4.4 1.8-7.2 4.6 3-3.7 8.8-9.7 14.1-13.2 6.5-4.3 9.7-2.9 3.8 1.8-2.5 1.9-6.9 4.3-9.8 5.1-.9.2-.6.8.1.6 3.1-.9 7.4-3 10.1-4.9 8-5.8 2.8-11.7-6-5.6-6 4.1-10.1 8.7-14 14.9-1.2 1.1-2.1 2-3.2 2.7l-.3.3c-2.9 1.8-7.4 4.3-9.9 4-1.8-.2-2.4-1.7-1.8-3.4.9-2.7 4.1-5.5 6.7-6.2 3.3-1 4.8 2 .4 3.7-1.7.6-3.6.8-4.4.7-.9-.1-.9.3-.1.4 1.2.2 3.3 0 4.8-.5 4.5-1.4 5.3-5.1.7-5.9-4.9-.9-11.5 2.5-12.2 7.9-.3 2.4 1.5 4 4.1 4.3 4.4.6 8.8-2.2 12.4-4.7.5-.3 1-.7 1.5-1.1-1.5 2.7-2.5 5.3-2.5 7.3 0 1.4.7 2.2 1.3 2.9.1.1.4.1.3-.2-.8-1.2-.1-4.5 1.7-7.5.7 2 4.5 5.4 9 5zm-4-10.1c5.8-3.9 7.2.5 3.6 2.6-1.9 1.1-5.4 1.6-6.4.8l-.2-.2c-.1-.2-.2-.5-.3-.7 1.1-.9 2.2-1.7 3.3-2.5zm29.4-1.2c2 .5 1.5-2.1-.7-1.8-1 .1-2.1 1.8-3 3.3-2.5 2.8-6.5 6.5-9.2 8.4-2.4 1.5-4.4 1.8-1.5-1.3 1.2-1.2 2.6-2.5 3.6-3.9 2.2-3.5-1.2-5.6-4.4-3.8-1.9 1.1-4.5 3.4-6.5 4.6-.5.3-.5.9 0 .6 1.6-1 4.5-3.3 6.8-4.5 2-1.1 2.6-.1 1.4.9-1.7 1.4-4.6 4-5.5 5.7-1.3 2.6-.4 4 1.4 4.2 2.5.3 6.7-3 9.5-5.7 1-.9 2-2 2.9-3-2.7 3.9-5.5 7.7-8.9 11.2-4.7 4.8-10.2 8.1-14.8 7.5-3.4-.5-6-3.2-6.1-6.6 0-.4-.4-.5-.4 0 .1 4.7 3.4 7 7.7 7.6 4.7.7 9.6-1.4 13.2-4.3 7.3-5.9 9.2-13.3 11.7-17.3 1.2-2 2.1-2 2.8-1.8zm26.9-2.9c1.2-1.5 1.3-2.7-.9-3-1.7-.2-4.8.6-6.4 1.4-.4.3-.2.5.2.3l.9-.3c1.7-.6.8 1.1.4 1.7-2.3 3-6.3 7.1-8.3 9.2-1 1-2.1 2-3.1 2.8-1.9 1.4-5.6 3.7-8.3 4.3-8.6 1.9 3.7-10.5 4.8-11.5 2.3-2.1 7.1-5.7 8.7-7.7 1.2-1.5 1.3-2.7-.9-3-1.7-.2-4.8.6-6.4 1.4-.4.3-.2.5.2.3l.9-.3c1.7-.6.8 1.1.4 1.7-2.3 3-6.3 7.1-8.4 9.2-1.7 1.7-3.7 3.4-5.2 4.3-.6.4-.3.8.3.5.5-.3 1.3-.9 2.3-1.6-1.9 2.7-3.7 6.7.2 7.8 3.3.9 7.7-1.9 10.6-4.1.3-.2.7-.5 1-.8.1-.1.2-.1.3-.2-1.9 2.7-3.7 6.7.2 7.8 4.2 1.2 10.3-3.8 12.6-5.6.4-.3.4-1-.3-.4-1.4 1.1-6 4.2-9.1 4.9-8.6 1.9 3.7-10.5 4.8-11.5 2-2.1 6.9-5.7 8.5-7.6z"/><path fill="#6D3636" d="M65.2 310.1L0 240.5v-16.6l6.3-4.3-2-1.9 74 80z"/><path fill="#E09A34" d="M0 215.9l4.4 1.8 2 2.1-6.4 6v-9.9z"/><path fill="#B64444" d="M61 304.2l4.2-9.3L0 225.3v13.9z"/><path fill="#E83D3C" d="M74.1 291.8L4.3 217.5l-.3 3.1-3.6-1.4.1 3.3-.5-.1v2.9l65.2 69.6z"/><path fill="#525252" d="M74 291.8l-8.7 3.2-4.4 9.1 4.4 6 8.7-3.2 4.4-9.1z"/><path fill="#E83D3C" d="M69.6 296.5c2.5-.9 4.5.4 4.5 2.9s-2 5.3-4.5 6.2c-2.5.9-4.5-.4-4.5-2.9-.1-2.5 2-5.3 4.5-6.2z"/></svg>