<svg id="Слой_1" xmlns="http://www.w3.org/2000/svg" viewBox="0 0 400 400"><style>.st0{fill:#fff}.st2{fill:#f2a50a}.st4{fill:#006172}.st14{fill:#ebeff7}.st16{fill:#dd927a}.st23{fill:#0084b7}.st24{fill:#141b28}.st25{fill:#0a69ad}.st28{fill:#d3d2c1}.st29{fill:#f9f8dd}</style><path class="st0" d="M1 1h400v400H1z"/><path d="M52.4 0H0v35.5h117zM400 400V27.4l-50.5 14.4c.7.8 1.4 1.7 2 2.6 7.5 1 13.7 7 14.6 14.8.9 8-4.1 15.3-11.4 17.7v44.5c4 .6 7 4.6 5.8 8.9l-2.8 10c-.5 1.8-.3 3.8.7 5.4l5.3 9c2.7 4.6-.5 10.4-5.8 10.6l-3.2.1v41.9c1.5 2.1 2.5 4.5 3.2 7 .5 1.6.7 3.3.7 4.9v.1c.3 0 .7 0 1.2.1 1.2.1 2.5.3 3.7.6.1 0 .3.1.4.1 1 .2 1.9.5 2.3.6 4.5 1.7 8.5 6.1 10.4 11.6 0 .1.1.2.1.3.1.3.2.6.2.9.9 3.3 1 6.9 0 10.4 0 .1-.1.2-.1.4-3 10.1-12.4 14.9-21.2 13.8l-1-.3v68.1c1.3.6 1.6 2.2.4 3.4l-.4.4v26.2c0 10.8-8.7 19.5-19.5 19.5L0 375.7V400h400z" fill="none"/><path class="st2" d="M295.8 35.5l-2.2-7.4c-.3-1.2.3-2.4 1.5-2.7 1.2-.3 2.4.3 2.7 1.5l2.6 8.7h9.9L309 25.3c-.1-1.2.7-2.3 1.9-2.4 1.2-.1 2.3.7 2.4 1.9l1.3 10.6h11.8l-.4-11.2c0-1.2.9-2.2 2.1-2.3 1.2 0 2.2.9 2.3 2.1l.4 11.5h4.3c1.5 0 2.9.2 4.3.5l1.2-11.9c.1-1.2 1.2-2.1 2.4-2 1.2.1 2.1 1.2 2 2.4l-1.3 13c2.2 1.1 4.1 2.5 5.7 4.3L400 27.4V0H270.7l-69.4 14.9c-8.8 1.9-18 .9-26.2-2.9l-26-12H52.4L117 35.5h178.8zM343.2 13l10.3-5.9c1-.6 2.4-.2 3 .8s.2 2.4-.8 3l-10.3 5.9c-1 .6-2.4.2-3-.8s-.2-2.4.8-3zM328 11.4l7.7-9c.8-.9 2.2-1 3.1-.2.9.8 1 2.2.2 3.1l-7.7 9c-.8.9-2.2 1-3.1.2-.9-.8-1-2.2-.2-3.1zm-30.6-8.1c.9-.8 2.3-.7 3.1.2l7.7 9c.8.9.7 2.3-.2 3.1-.9.8-2.3.7-3.1-.2l-7.7-9c-.8-.9-.7-2.3.2-3.1zm-19.6 12.2c.5-1.1 1.7-1.7 2.9-1.2l11 4.5c1.1.5 1.7 1.7 1.2 2.9-.5 1.1-1.7 1.7-2.9 1.2l-11-4.5c-1.1-.5-1.7-1.8-1.2-2.9z"/><path class="st2" d="M201.3 14.9L270.7 0H149.1l26.1 12c8.1 3.8 17.3 4.8 26.1 2.9z"/><linearGradient id="SVGID_1_" gradientUnits="userSpaceOnUse" x1="-2006.622" y1="2207.992" x2="2196.921" y2="2207.992" gradientTransform="matrix(1 0 0 -1 0 2215.92)"><stop offset="0" stop-color="#37589e"/><stop offset="1" stop-color="#3b5a9d"/></linearGradient><path d="M201.3 14.9L270.7 0H149.1l26.1 12c8.1 3.8 17.3 4.8 26.1 2.9z" fill="url(#SVGID_1_)"/><path class="st4" d="M271.1 338.1h-33v.1h-23.4v-.2h-33.5v.1H91.8V210.7L75.1 338.6h211.2v-.5z"/><path class="st4" d="M34.3 334.9l16.9-129.5c12.8-1.9 26.4-.2 40.7 5.3v-25.4c17-4.2 35.6-4.2 55.9 0v-52.9c10.2-5.6 21.3-5.6 33.5 0v18.4c10.2-5.1 21.3-5.1 33.5 0v-9.1c7-5.3 14.7-5.4 23-.3v-9c10.2-5.6 21.3-5.6 33.5 0 4.8-2.9 9.9-4.3 15.2-4.2V99.6H0v37.2h52.3L35.6 324.3 0 334.2v4.4h62.9l-28.6-3.7z"/><path d="M299.1 88.7h-.2c-4.3.1-9-1.9-12.7-5.5-3-2.8-5.1-6.5-5.8-10.8H0v27.2h286.3l12.8-10.9z" fill="#0086a4"/><path d="M286.3 338.1v.5h16l-.2-.5zm16.1-125.8c3.4-1.4 7.2-1.7 11-.7.7.2 1.4.5 2.1.7.6-1.6 1.3-3.1 2.2-4.4v-47.1c-.4-.3-.9-.6-1.4-.9l-9.5-4.2c-4.9-2.1-5.7-8.7-1.5-12l8.2-6.5c1.5-1.2 2.4-2.9 2.6-4.8l1-10.4c.1-.9.3-1.6.7-2.3v-21c-5-2.3-9.1-6.4-11.3-11.5-.4.1-1 .3-1.7.5-1 .3-2.1.5-3.2.6h-.1c-1 .2-1.8.3-2.4.3l-12.7 10.9v28.6c5.1 0 10.5 1.4 16.1 4.2v80zm0 30.9v90c.3-.2.6-.4 1-.5 1.6-.6 2.5-2 2.1-3.2l-1.9-5.3c-.6-1.7 1.5-3.6 3.8-3.4l10.2 1.1v-33.2l-2.6 2.7 2.6-3.9v-23.6l-.4-.1.4-.5v-15.7l-3.6-1-9.7-2.7c-.7-.2-1.3-.4-1.9-.7z" fill="#007f99"/><path fill="#f3ca32" d="M52.3 136.8H0v15.1h35.4L21.1 312.1 0 318v16.2l35.6-9.9z"/><path fill="#fada44" d="M35.4 151.9H0v8.9h9.3l1.1 13 3.3 36.2H0v11.5h13.7l-.6 6.2-5.4 60.5-.3 3.9-7.4 2V318l21.1-5.9z"/><path class="st0" d="M13.7 210l-2.3-25.2H0V210h3zm-3.3-36.2l-1.1-13H0v24h11.3zM7.7 288.2l5.4-60.5.6-6.2H0v72.6l7.4-2z"/><path d="M286.3 338.1H302l-.8-2.2c-.3-.9.2-2 1.1-2.6v-90c-7.7-3.2-12-11.8-9.7-20 1.4-5.1 5.1-9 9.7-10.9v-79.8c-5.6-2.8-10.9-4.2-16.1-4.2-5.3 0-10.4 1.4-15.2 4.2v205.6h15.3zm-8.7-200.6c0-.6.4-1 .9-1.2 5.5-2.5 11-2.7 16.4 0 .5.2.9.7.9 1.2v2.4c0 .8-.8 1.5-1.5 1.2-5.1-1.8-10.1-1.7-15.2 0-.8.3-1.5-.4-1.5-1.2v-2.4zm0 9.3c0-.6.4-1 .9-1.2 5.5-2.5 11-2.7 16.4 0 .5.2.9.7.9 1.2v2.4c0 .8-.8 1.5-1.5 1.2-5.1-1.8-10.1-1.7-15.2 0-.8.3-1.5-.4-1.5-1.2v-2.4z" fill="#9ec9ed"/><path d="M238.1 338.1h33V132.5c-12.1-5.6-23.3-5.6-33.5 0v9c.2.1.3.2.5.3v196.3zm7.2-200.5c0-.6.4-1 .9-1.2 5.5-2.5 11-2.7 16.4 0 .5.2.9.7.9 1.2v2.4c0 .8-.8 1.5-1.5 1.2-5.1-1.8-10.1-1.7-15.2 0-.8.3-1.5-.4-1.5-1.2v-2.4z" fill="#f6a11d"/><path d="M181.2 338.1V132.5c-12.1-5.6-23.3-5.6-33.5 0v205.7h33.5zm-14.3-59.9c2-1.3 4-1.3 6.1 0v51c-2 1.3-4 1.3-6.1 0v-51zm-11.9-.7c2.1-1.3 4.1-1.3 6.2 0v51c-2.1 1.3-4.1 1.3-6.2 0v-51z" fill="#434b9a"/><path d="M51.2 205.4L34.3 334.9l28.6 3.7h12.3l16.7-127.9c-14.3-5.5-27.9-7.2-40.7-5.3zM38.4 330.8l1.1-8.5c10.7 3.8 21.9 5.2 33.6 4.4l-1.1 8.5c-11.8 1-23.1-.3-33.6-4.4z" fill="#349a37"/><path d="M214.7 338V150.9c-12.1-5.1-23.3-5.1-33.5 0V338h33.5zm-25.9-181.5c0-.6.4-1 .9-1.2 5.5-2.5 11-2.7 16.4 0 .5.2.9.7.9 1.2v2.4c0 .8-.8 1.5-1.5 1.2-5.1-1.8-10.1-1.7-15.2 0-.8.3-1.5-.4-1.5-1.2v-2.4zm0 10.7c0-.6.4-1 .9-1.2 5.5-2.5 11-2.7 16.4 0 .5.2.9.7.9 1.2v2.4c0 .8-.8 1.5-1.5 1.2-5.1-1.8-10.1-1.7-15.2 0-.8.3-1.5-.4-1.5-1.2v-2.4zm0 11.3c0-.6.4-1 .9-1.2 5.5-2.5 11-2.7 16.4 0 .5.2.9.7.9 1.2v2.4c0 .8-.8 1.5-1.5 1.2-5.1-1.8-10.1-1.7-15.2 0-.8.3-1.5-.4-1.5-1.2v-2.4z" fill="#dec328"/><path class="st14" d="M114.9 281c4.2.9 7.1 0 7.1-3.6v-4.8c0-.2-.2-.5-.4-.5l-3.2-.9-3.2-.9-.4-.1c-4-1.2-7.4-.2-7.1 4.7.3 3.5 2.9 5.2 7.2 6.1zm18.9-35.8c0 .5.3.8.7.9l-.1-1.4c-.3-.1-.6 0-.6.5zm0 8c0 .5.3.8.7.9l-.1-1.4c-.3-.1-.6-.1-.6.5z"/><path class="st14" d="M147.7 338.1V185.3c-20.3-4.2-38.9-4.2-55.9 0v152.8h55.9zm-42.6-22.5c2.4 1.3 5.4.1 6.9-2 .3-.4.5-.7.7-1.1.1-.2.2-.4.3-.7.1-.2.1-.4.2-.6.6-2.3.2-4.1-1.4-5.2.5.3 3.8 1.6 2.9 6.3 0 .1-.1.2-.1.3v.1c0 .1 0 .1-.1.2-.6 1.7-1.9 3.1-3.6 3.8-1.6.7-3.3.6-4.7-.4l-1.1-.7zm2.6-23V288c0-.2.2-.4.4-.3l1.9.4 1.9.4c.2 0 .4.3.4.5v4.6c0 .2-.2.4-.4.3l-1.9-.4-1.9-.4c-.2 0-.4-.2-.4-.5zm6.4 1.9l2.9.6-2.9-.6zm-7.8 26.4c1.8 1.1 4.1 1.2 6.1.6 1.9-.6 3.7-1.9 4.9-3.4l.1-.1c.1-.1.2-.3.3-.5 0-.1.1-.1.1-.2 0 0 0-.1.1-.1.1-.1.1-.2.2-.3v-.1c.1-.1.1-.2.2-.3 0 0 0-.1.1-.1 0-.1.1-.1.1-.2.1-.1.1-.3.2-.4v-.1c.1-.1.1-.2.1-.4 0 0 0-.1.1-.2 0-.1.1-.2.1-.3v-.1c0-.2.1-.3.1-.5.9-3.6-.3-7-2.8-8.8 0 0 6.5 1.9 5.1 10.4 0 .2-.1.3-.1.5v.1c0 .1-.1.2-.1.3 0 .1 0 .1-.1.2 0 .1-.1.2-.1.4v.1c-.1.1-.1.3-.2.4 0 .1-.1.1-.1.2 0 0 0 .1-.1.1-.1.1-.1.2-.2.3-.1.1-.1.2-.2.3 0 0 0 .1-.1.1 0 .1-.1.1-.1.2-.1.2-.2.3-.3.5l-.1.1c-.1.1-.2.3-.4.4-.1.1-.2.3-.3.4l-.1.1c-.1.1-.3.2-.4.4-.3.3-.7.6-1 .8-.4.3-.8.5-1.2.7-2.5 1.3-5.6 1.4-8-.3l-1.9-1.2zm23.1-.8c0 .2-.1.3-.1.5v.1c-.1.2-.1.3-.2.5v.1c-.1.1-.1.3-.2.4v.1c-.1.2-.1.3-.2.5v.1c-.1.1-.1.3-.2.4v.2c0 .1-.1.2-.1.3 0 .1-.1.1-.1.2-.1.1-.1.2-.2.4 0 0 0 .1-.1.1-.1.2-.2.3-.3.5l-.1.1c-.1.1-.1.2-.2.3l-.1.1c-.1.1-.1.2-.2.3l-.1.1c-.1.1-.1.2-.2.3l-.1.1-.3.3-.1.1c-.1.1-.2.2-.3.4l-.1.1-.3.3-.1.1-.3.3c-.1.1-.2.2-.4.3l-.1.1c-.1.1-.2.2-.3.2l-.1.1-.3.3h-.1c-.1.1-.3.2-.4.3l-.1.1c-.1.1-.2.1-.3.2-.1 0-.1.1-.2.1-.1.1-.2.1-.3.2-.1 0-.1.1-.2.1 0 0-.1 0-.1.1-.1 0-.1.1-.2.1s-.2.1-.2.1c-3.4 1.7-7.7 2-10.9-.3l-2.2-1.8c3.8 2 8.5 1.1 11.9-1.4.1-.1.2-.2.4-.3l.1-.1c.1-.1.2-.2.3-.2l.1-.1c.1-.1.3-.2.4-.3l.3-.3.1-.1.3-.3.1-.1c.1-.1.2-.2.3-.4.1-.1.2-.2.3-.4l.1-.1c.1-.1.1-.2.2-.3l.1-.1c.1-.1.2-.2.2-.3l.1-.1c.1-.1.1-.2.2-.3l.1-.1c.1-.2.2-.3.3-.5 0 0 0-.1.1-.1.1-.1.1-.2.2-.4 0-.1.1-.1.1-.2.1-.1.1-.2.2-.3 0 0 0-.1.1-.1.1-.1.1-.3.2-.4v-.1c.1-.2.1-.3.2-.5v-.1c.1-.1.1-.3.2-.4v-.1c.1-.2.1-.3.2-.5v-.1c0-.2.1-.3.1-.5 1-4.5.1-9.2-3.4-11.9-.1-.1 8.5 3 6.5 14zm4.8-17.4l-2-.5-2-.5c-.2-.1-.4-.3-.4-.5v-1.5c0-1.4-2.5-2.3-2.5-2.3-.2-.1-.6-.2-.8-.2l-2.9-.6-2.9-.6h-.1l-.3-.1-.3-.1h-.1l-2.9-.6-2.9-.6c-.2-.1-.4-.3-.4-.5v-4.6c0-.2.2-.4.4-.3l6.2 1.3 6.6 1.4c5.8 1.2 7.8 3.1 7.8 6.7v3.8c-.1.2-.2.3-.5.3zm.4-.4v-3.8c.1 1.5 0 3.8 0 3.8zm2.2-35.6l-2.8-.1 2.8 1.1v1.4h-3.1l-.7-.1v-1l3 .2-3-1.1v-1.4l3.1.1-3.1-1.1v-.9l.8.2 3.1 1.3v1.4zm0-2.8l-3.3-.7-.5-.2v-.8l.2-.1s-.3-.5-.3-.9c0-1 .7-.9 1.7-.7v1c-.6-.1-.7-.1-.7.2v.5l1.4.3 1.5.5v.9zM133 260v-1.6l3.8.8v.9l-1.5-.2-1.4-.3-.1.6-.8-.2zm2.3-2.2l-1.4-.3-.1.6-.8-.2v-.6l-1-.4v-.8l1 .2v-1l.8.2.1 1.1 1.5.3c.4.1.5.1.5-.3v-.7l.8.1s.2.7.2.9c-.1 1.1-.7 1.1-1.6.9zm.6-4.3V252l.7.1s.3.9.3 1.6c0 1.7-.9 1.7-1.9 1.5-1-.2-2-.6-2-2.2s.9-1.6 2.3-1.2v2.5c.4 0 .6-.2.6-.8zm0-8V244l.7.1s.3.9.3 1.6c0 1.7-.9 1.7-1.9 1.5-1-.2-2-.6-2-2.2s.9-1.6 2.3-1.2v2.5c.4 0 .6-.2.6-.8zm.7-2.1l-.7-.2v-1.4c0-.6-.2-.7-.3-.7h-.2l-.1 2s-.5.1-1 0c-.7-.1-1.2-.8-1.2-1.9 0-.6.2-1.5.2-1.5l.7.2v1.4c0 .6.2.7.4.7h.2l.1-2s.6 0 1 .1c.6.1 1.2.7 1.2 1.9 0 .5-.3 1.4-.3 1.4zm0-3.7l-.7-.2v-1.4c0-.6-.2-.7-.3-.7h-.2l-.1 2s-.5.1-1 0c-.7-.1-1.2-.8-1.2-1.9 0-.6.2-1.5.2-1.5l.7.2v1.4c0 .6.2.7.4.7h.2l.1-2s.6 0 1 .1c.6.1 1.2.7 1.2 1.9 0 .4-.3 1.4-.3 1.4zm.8-4h-.6c0 .3-.2.4-.5.3-.5-.1-.6-.4-.6-.8s.1-.6.6-.5l1.1.2v.8zm-4.5-18.6c0-1.2 1-1.2 2-.9l1.9.4v.9l-1.5-.2-.4-.1c-.6-.1-1-.2-1 .4v.5c.3 0 .6 0 1 .1l1.9.4v.9l-1.5-.2-.4-.1c-.6-.1-1-.2-1 .4v.4l2.9.6v1l-3.8-.8v-.8l.2-.1s-.3-.5-.3-1c0-.3.1-.6.3-.7 0-.1-.3-.7-.3-1.1zm1.7-7.8c-.6-.1-.7-.1-.7.2v.5l1.4.3 1.5.5v.9l-3.3-.7-.5-.1v-.9l.2-.1s-.3-.5-.3-.9c0-1 .7-.9 1.7-.7v1zm.3 2.6c1 .2 2 .8 2 2.3 0 1.5-1 1.7-2 1.5-1-.2-1.9-.8-1.9-2.3-.1-1.6.9-1.8 1.9-1.5zm0 12c1 .2 2 .8 2 2.3 0 1.5-1 1.7-2 1.5-1-.2-1.9-.8-1.9-2.3-.1-1.6.9-1.7 1.9-1.5zm1.4-21c.4.1.6.4.6.8s-.1.6-.6.5c-.5-.1-.6-.4-.6-.8s.1-.6.6-.5zm-1.1 1.6v2.5c.5.1.6-.1.6-.7v-1.5l.7.1s.3.9.3 1.6c0 1.7-.9 1.7-1.9 1.5-1-.2-2-.6-2-2.2s1-1.7 2.3-1.3zm-3.7 23.1l4.8 1 .5.1v.8l-.2.1s.3.7.3 1.2c0 1.2-1 1.2-2 1-1-.2-2-.7-2-1.9 0-.4.2-1 .2-1l-1.6-.5v-.8zm0 19.6l5.3 1.1v.9l-1.5-.2-2.8-.6-.1.6-.8-.2v-1.6zm.4 10.8c.5.1.6.4.6.8s-.1.6-.6.5c-.5-.1-.6-.4-.6-.8s.2-.6.6-.5zm-4.8-30.1v7.6c0 8.4-4.7 8.5-9.8 7.4-5-1.1-9.9-3-9.9-11.1 0-7.6 4.5-8.2 11.3-6.4h.1c.2.1.3.2.3.4v11.6c0 .2.3.4.5.5 1.9.1 2.6-.9 2.6-3.6v-7.5c0-.2.2-.4.4-.3l2 .4.3.1 1.7.3c.3.1.5.4.5.6zm-.1 43.9v-6 6zm-5.1-20.7l-6.8-1.5-6.8-1.5c-.2 0-.4-.3-.4-.5v-4.2c0-.2.2-.4.4-.3l9.1 1.9 9.1 1.9c.2 0 .4.3.4.5v9.2c-.1 5.7-4.7 6-9.6 5l-.4-.1-4.4-.9-4.4-.9c-.2 0-.4-.3-.4-.5V255c0-.2.2-.4.4-.3l3.3.7 3.3.7c.2 0 .5.1.8.2l.8.1.7.1h.1l.3.1h.1c2.8.6 4.8.9 4.8-2v-2.9c0-.3-.2-.5-.4-.6zm-13.7-7.9l9.1 1.9-9.1-1.9zm3.2-38.4l.8-.2c.2-.1.4.1.4.3v10.9c0 .2.2.5.4.5l3.1.7 3.1.7c.2 0 .5.1.7.2l3.1.6 3.1.6.4.1c.2 0 .4.3.4.5v3.9c0 .1 0 .3-.1.4 0-.1.1-.3.1-.4v.4c0 .2-.2.4-.4.3l-8.1-1.7 7.7 1.6-15.8-3.4-.3-.1-.9-.2-.8-.2c-.2 0-.4-.3-.4-.5v-11c0-2.4.8-3.5 2.3-3.9l.4-.1h.8zm-.9.2l.8-.2-.8.2zm9.5 12.8l3.1.6-3.1-.6zm5 9.2l1.7.3-1.7-.3zm1.7.4l-2-.4 2 .4zm-21.4-38.3l16.7 12.5c.2.1.5.3.7.4l3.8 1c.2.1.4.3.4.5v4.9c0 .2-.2.4-.4.3l-3.8-1c-.2-.1-.6-.1-.8 0l-7.8 2.2c-.2.1-.4-.1-.4-.3v-5c0-.2.2-.5.4-.5l2.5-.6c.2-.1.3-.2.1-.3l-11.3-7.7c-.2-.1-.3-.4-.3-.7v-5.6c-.1-.2 0-.3.2-.1zm7.8 74.9c3.2.5 8.7 2.8 8.7 2.8h.1c.2 0 .3-.1.3-.3v-2c0-.2.2-.4.4-.3l4 1c.2.1.4.3.4.5v12.4c0 8.1-5.6 9.9-12.1 8.6-6.4-1.4-12.3-4.9-12.3-13.1s6.2-10.3 10.5-9.6z"/><path class="st14" d="M134.6 206.8l-.1-1.4c-.3-.1-.6 0-.6.6-.1.4.2.7.7.8zm.3 24c.6.1 1 .1 1-.5v-.8l-1.9-.4v.8c-.1.6.3.8.9.9zm-20.1-.8c-1.4-.2-2.7.3-2.7 2.9 0 2.3 1 3.5 2.6 4.1h.1c.2 0 .3-.1.3-.3v-6.3c.1-.1-.1-.4-.3-.4zm12.3 4.6zm-.3-15.2c0-.1-.5-.3-.7-.4.2.1.7.3.7.4zm8.1 7.3c.6.1 1 .1 1-.7 0-.7-.4-1-1-1.1-.6-.1-1-.1-1 .7 0 .7.4.9 1 1.1zm0-12.1c.6.1 1 .1 1-.7 0-.7-.4-1-1-1.1-.6-.1-1-.1-1 .7 0 .7.4 1 1 1.1z"/><path d="M214.7 338.2h23.5V141.8c-.2-.1-.3-.2-.5-.3-8.3-5.1-16-5-23 .3v196.4zm16.7-190.4c1-1.1 2-1.1 3 0v41.6c-1 1.1-2 1.1-3 0v-41.6zm-6.5-2.2c1-1.6 2-1.6 3 0v63.1c-1 1.6-2 1.6-3 0v-63.1zm-6.4 2.4c1-1.3 2-1.3 3 0v51c-1 1.3-2 1.3-3 0v-51z" fill="#c43a17"/><path class="st16" d="M221.6 199v-51c-1-1.3-2-1.3-3 0v51c.9 1.3 2 1.3 3 0z"/><path d="M161.2 328.6v-51c-2.1-1.3-4.1-1.3-6.2 0v51c2.1 1.3 4.2 1.3 6.2 0z" fill="#7c83b7"/><path d="M173 329.2v-51c-2-1.3-4-1.3-6.1 0v51c2 1.3 4 1.3 6.1 0z" fill="#9294c9"/><path class="st16" d="M234.4 189.5v-41.6c-1-1.1-2-1.1-3 0v41.6c1 1 2 1 3 0zm-6.5 19.2v-63.1c-1-1.6-2-1.6-3 0v63.1c1 1.6 2 1.6 3 0z"/><path d="M190.3 160.1c5.1-1.7 10.1-1.8 15.2 0 .8.3 1.5-.4 1.5-1.2v-2.4c0-.6-.4-1-.9-1.2-5.5-2.7-11-2.5-16.4 0-.5.2-.9.7-.9 1.2v2.4c0 .8.8 1.5 1.5 1.2zm0 10.8c5.1-1.7 10.1-1.8 15.2 0 .8.3 1.5-.4 1.5-1.2v-2.4c0-.6-.4-1-.9-1.2-5.5-2.7-11-2.5-16.4 0-.5.2-.9.7-.9 1.2v2.4c0 .8.8 1.4 1.5 1.2zm0 11.2c5.1-1.7 10.1-1.8 15.2 0 .8.3 1.5-.4 1.5-1.2v-2.4c0-.6-.4-1-.9-1.2-5.5-2.7-11-2.5-16.4 0-.5.2-.9.7-.9 1.2v2.4c0 .8.8 1.5 1.5 1.2z" fill="#bba32f"/><path d="M246.8 141.2c5.1-1.7 10.1-1.8 15.2 0 .8.3 1.5-.4 1.5-1.2v-2.4c0-.6-.4-1-.9-1.2-5.5-2.7-11-2.5-16.4 0-.5.2-.9.7-.9 1.2v2.4c0 .8.7 1.5 1.5 1.2z" fill="#913b8e"/><path d="M279.2 141.1c5.1-1.7 10.1-1.8 15.2 0 .8.3 1.5-.4 1.5-1.2v-2.4c0-.6-.4-1-.9-1.2-5.5-2.7-11-2.5-16.4 0-.5.2-.9.7-.9 1.2v2.4c-.1.8.7 1.4 1.5 1.2zm0 9.3c5.1-1.7 10.1-1.8 15.2 0 .8.3 1.5-.4 1.5-1.2v-2.4c0-.6-.4-1-.9-1.2-5.5-2.7-11-2.5-16.4 0-.5.2-.9.7-.9 1.2v2.4c-.1.8.7 1.4 1.5 1.2z" fill="#39c"/><path d="M39.5 322.3l-1.1 8.5c10.5 4.1 21.8 5.4 33.6 4.4l1.1-8.5c-11.7.7-22.9-.6-33.6-4.4z" fill="#377630"/><path class="st23" d="M342.4 168.1l-6.9 7.8c-3.5 4-10 2.7-11.9-2.2l-3.6-9.8c-.5-1.3-1.3-2.3-2.3-3.1v47.1c5.1-8 15.1-12.2 24.7-9.5 1.1.3 2.1.7 3.1 1.1 1.2.4 2.7 1.3 4.3 2.6 1.9 1.5 3.6 3.2 4.9 5.2v-41.9l-7.2.3c-2 .2-3.8 1-5.1 2.4zm12.2 188v-26.2L322 362.3c-1.6 1.6-4.5 1.4-5.1-.3l-1.9-5.3c-.4-1.2-2.1-1.7-3.6-1.2-1.6.6-3.2 0-3.6-1.2l-5.5-15.8H0v37.1h335.1c10.8 0 19.5-8.7 19.5-19.5zm-5.7-278.3c.5 11.5-8.1 21.6-19.8 22.9-4.1.4-8-.3-11.5-1.9v21c1.8-3.7 6.5-5.3 10.2-2.8l8.7 5.8c1.6 1.1 3.5 1.4 5.4 1l10.2-2.2c.9-.2 1.7-.2 2.5-.1V76.9c-1.1.4-2.3.6-3.5.8-.7.1-1.4.1-2.2.1zm-20.8 172.8l-5.4 10.8 18.3 3.4-23.3 23.9v33.2l36 3.9c.3 0 .6.1.9.3V258l-26.5-7.4z"/><path class="st23" d="M331.4 267l-13.7-3.1v23.6zm-51-194.6c-.1-.4-.2-.9-.2-1.3-.2-1.7-.1-3.4.1-5.1 0-.3.1-.5.1-.8v-.1c1.4-7.7 7.2-13.3 14.2-15.2l2.4-.3c.1 0 .3-.1.4-.1l4.5-.5 35.5-4c.6-.1 1.3-.1 1.9 0l8.2-.9c1.3-.1 2.6-.1 3.9.1-.6-.9-1.3-1.8-2-2.6-1.6-1.8-3.6-3.2-5.7-4.3v.3c-.1 1.2-1.2 2.1-2.4 2-1.2-.1-2.1-1.2-2-2.4l.1-1.3c-1.4-.3-2.8-.5-4.3-.5h-4.3l.1 3.4c0 1.2-.9 2.2-2.1 2.3-1.2 0-2.2-.9-2.3-2.1l-.1-3.6h-11.8l.5 4.1c.1 1.2-.7 2.3-1.9 2.4-1.2.1-2.3-.7-2.4-1.9l-.6-4.7h-9.9l1.8 6.1c.3 1.2-.3 2.4-1.5 2.7-1.2.3-2.4-.3-2.7-1.5l-2.2-7.3H0v37h280.4zm47.5 178.1l-10.2-2.9v15.7z"/><path class="st24" d="M122.3 254.6c0 2.9-2 2.6-4.8 2h-.1l-.3-.1h-.1l-.7-.1-.8-.1c-.2 0-.6-.1-.8-.2l-3.3-.7-3.3-.7c-.2 0-.4.1-.4.3v4.3c0 .2.2.5.4.5l4.4.9 4.4.9.4.1c4.8 1.1 9.4.8 9.6-5v-9.2c0-.2-.2-.5-.4-.5l-9.1-1.9-9.1-1.9c-.2 0-.4.1-.4.3v4.2c0 .2.2.5.4.5l6.8 1.5 6.8 1.5c.2 0 .4.3.4.5v2.9zm-2.6-16.6c-.2 0-.5-.2-.5-.5v.4c.2.1.4.1.5.1zm-9.6 55.6l1.9.4c.2.1.4-.1.4-.3v-4.6c0-.2-.2-.5-.4-.5l-1.9-.4-1.9-.4c-.2 0-.4.1-.4.3v4.6c0 .2.2.5.4.5l1.9.4zm16.8-1.8l-6.6-1.4-6.2-1.3c-.2 0-.4.1-.4.3v4.6c0 .2.2.5.4.5l2.9.6 2.9.6h.1c.2 0 .4.1.6.1h.1l2.9.6 2.9.6c.2 0 .6.1.8.2 0 0 2.6.9 2.5 2.3v1.5c0 .2.2.5.4.5l2 .5 2 .5c.2.1.4-.1.4-.3v-3.8c.1-3.4-1.9-5.3-7.7-6.6zm-16.8-86.7c-1.5.4-2.3 1.5-2.3 3.9v11c0 .2.2.5.4.5l.8.2.9.2.3.1 8.1 1.7 7.7 1.6c.2 0 .5.1.6 0 .1 0 .1-.1.1-.3 0-.1.1-.3.1-.4v-3.5c0-.2 0-.5-.1-.6-.1-.1-.5-.3-.7-.4l-3.1-.6-3.1-.6-.4-.1-.4-.1-3.1-.7-3.1-.7c-.2 0-.4-.3-.4-.5v-10.9c0-.2-.2-.4-.4-.3l-.8.2-.8.2-.3.1z"/><path class="st24" d="M105 190.5v4.3c0 .2.2.5.3.7l11.3 7.7c.2.1.2.3-.1.3l-2.5.6c-.2.1-.4.3-.4.5v5c0 .2.2.4.4.3l7.8-2.2c.2-.1.6-.1.8 0l3.8 1c.2.1.4-.1.4-.3v-4.9c0-.2-.2-.5-.4-.5l-3.8-1c-.2-.1-.6-.2-.7-.4l-16.7-12.5c-.2-.1-.3-.1-.3.2l.1 1.2zm20 36.5l-.3-.1-2-.4c-.2 0-.4.1-.4.3v7.5c0 2.7-.7 3.7-2.6 3.6h-.5V226c0-.2-.1-.4-.3-.4h-.1c-6.7-1.8-11.3-1.3-11.3 6.4 0 8.1 4.9 10 9.9 11.1 5 1.1 9.8 1 9.8-7.4v-7.8c0-.2-.2-.5-.4-.5l-1.8-.4zm-9.8 9.8c0 .2-.1.3-.3.3h-.1c-1.6-.6-2.6-1.8-2.6-4.1 0-2.6 1.3-3.1 2.7-2.9.3 0 .4.3.4.5v6.2zm2.9-10c-.2 0-.3-.1-.3-.3 0-.2.1-.3.3-.3.2 0 .3.1.3.3-.1.2-.2.3-.3.3zm-3.2 59.9c6.4 1.4 12.1-.4 12.1-8.6v-12.4c0-.2-.2-.5-.4-.5l-4-1c-.2-.1-.4.1-.4.3v2c0 .2-.1.3-.3.3h-.1s-5.5-2.3-8.7-2.8c-4.3-.7-10.4 1.4-10.4 9.7-.1 8.1 5.8 11.7 12.2 13zm-.1-16.6l.4.1 3.2.9 3.2.9c.2.1.4.3.4.5v4.8c0 3.6-2.9 4.5-7.1 3.6-4.3-.9-7-2.6-7.2-6.2-.4-4.8 3.1-5.8 7.1-4.6z"/><circle class="st24" cx="118.1" cy="226.6" r=".3"/><path class="st25" d="M122.8 306c3.5 2.7 4.4 7.4 3.4 11.9 0 .2-.1.3-.1.5v.1c0 .2-.1.3-.2.5v.1c-.1.1-.1.3-.2.4v.1c-.1.2-.1.3-.2.5v.1c-.1.1-.1.3-.2.4 0 0 0 .1-.1.1 0 .1-.1.2-.2.3 0 .1-.1.1-.1.2-.1.1-.1.2-.2.4 0 0 0 .1-.1.1-.1.2-.2.3-.3.5l-.1.1c-.1.1-.1.2-.2.3l-.1.1c-.1.1-.2.2-.2.3l-.1.1c-.1.1-.1.2-.2.3l-.1.1c-.1.1-.2.2-.3.4-.1.1-.2.2-.3.4l-.1.1-.3.3-.1.1-.3.3c-.1.1-.3.2-.4.3l-.1.1c-.1.1-.2.2-.3.2l-.1.1c-.1.1-.2.2-.4.3-3.4 2.5-8.1 3.4-11.9 1.4l2.2 1.8c3.2 2.3 7.5 2 10.9.3.1 0 .2-.1.2-.1.1 0 .1-.1.2-.1 0 0 .1 0 .1-.1.1 0 .1-.1.2-.1.1-.1.2-.1.3-.2.1 0 .1-.1.2-.1.1-.1.2-.1.3-.2l.1-.1c.1-.1.3-.2.4-.3h.1l.3-.3.1-.1c.1-.1.2-.2.3-.2l.1-.1c.1-.1.2-.2.4-.3l.3-.3.1-.1.3-.3.1-.1c.1-.1.2-.2.3-.4l.1-.1.3-.3.1-.1c.1-.1.1-.2.2-.3l.1-.1c.1-.1.1-.2.2-.3l.1-.1c.1-.1.1-.2.2-.3l.1-.1c.1-.2.2-.3.3-.5 0 0 0-.1.1-.1.1-.1.1-.2.2-.4 0-.1.1-.1.1-.2s.1-.2.1-.3v-.2c.1-.1.1-.3.2-.4v-.1c.1-.2.1-.3.2-.5v-.1c.1-.1.1-.3.2-.4v-.1c.1-.2.1-.3.2-.5v-.1c.1-.2.1-.3.1-.5 2.1-10.9-6.5-14-6.5-14z"/><path class="st25" d="M116.2 322.5c.4-.2.8-.5 1.2-.7.4-.2.8-.5 1-.8.1-.1.3-.2.4-.4l.1-.1c.1-.1.2-.2.3-.4.1-.1.2-.3.4-.4l.1-.1c.1-.1.2-.3.3-.5 0-.1.1-.1.1-.2 0 0 0-.1.1-.1.1-.1.1-.2.2-.3.1-.1.1-.2.2-.3 0 0 0-.1.1-.1 0-.1.1-.1.1-.2.1-.1.1-.3.2-.4v-.1c.1-.1.1-.2.1-.4 0-.1 0-.1.1-.2 0-.1.1-.2.1-.3v-.1c0-.2.1-.3.1-.5 1.4-8.4-5.1-10.4-5.1-10.4 2.5 1.8 3.7 5.2 2.8 8.8 0 .2-.1.3-.1.5v.1c0 .1-.1.2-.1.3 0 .1 0 .1-.1.2 0 .1-.1.2-.1.4v.1c-.1.1-.1.3-.2.4 0 .1-.1.1-.1.2 0 0 0 .1-.1.1-.1.1-.1.2-.2.3v.1c-.1.1-.1.2-.2.3 0 0 0 .1-.1.1 0 .1-.1.1-.1.2-.1.2-.2.3-.3.5l-.1.1c-1.3 1.6-3 2.8-4.9 3.4-2 .6-4.3.5-6.1-.6l1.9 1.3c2.3 1.6 5.5 1.5 8 .2z"/><path class="st25" d="M110.9 316.7c1.7-.7 3-2.1 3.6-3.8 0-.1 0-.1.1-.2v-.1c0-.1.1-.2.1-.3.9-4.7-2.4-5.9-2.9-6.3 1.6 1.1 2 3 1.4 5.2 0 .2-.1.4-.2.6-.1.2-.2.4-.3.7-.2.4-.4.8-.7 1.1-1.5 2-4.5 3.3-6.9 2l1 .7c1.5 1 3.2 1.1 4.8.4zm22.1-53v.9l3 1.1-3-.1v1.5l3 1.1-3-.2v1l.7.2 3.1-.1v-1.4l-2.8-1.1 2.8.1v-1.5l-3.1-1.3zm1.6-2.1zm-.7.6v-.5c0-.3.1-.3.7-.2v-1c-1-.2-1.7-.3-1.7.7 0 .4.3.9.3.9l-.2.1v.8l.5.1 3.3.7v-.8l-1.5-.5-1.4-.3zm-2-2.9c.5.1.6-.1.6-.5s-.1-.7-.6-.8c-.5-.1-.6.1-.6.5s.2.7.6.8zm2 .2l1.4.3 1.5.2v-.9l-3.8-.8v1.7l.8.1zm2-3.7v.7c0 .4-.1.4-.5.3l-1.5-.3-.1-1.1-.8-.2v1l-1-.2v.8l1 .4v.6l.8.2.1-.6 1.4.3c.9.2 1.5.2 1.5-.9 0-.3-.2-.9-.2-.9l-.7-.1zm-3-2.8c0 1.6 1 2 2 2.2 1 .2 1.9.2 1.9-1.5 0-.7-.3-1.6-.3-1.6l-.7-.1v1.5c0 .6-.2.8-.6.7v-2.5c-1.3-.3-2.3-.3-2.3 1.3zm.9.2c0-.6.3-.6.6-.6l.1 1.4c-.4 0-.7-.3-.7-.8zm-1.3-4.8l2.8.6 1.5.2v-.9l-5.3-1.1v1.6l.8.2zm.4-3.4c0 1.6 1 2 2 2.2 1 .2 1.9.2 1.9-1.5 0-.7-.3-1.6-.3-1.6l-.7-.1v1.5c0 .6-.2.8-.6.7v-2.5c-1.3-.3-2.3-.2-2.3 1.3zm.9.2c0-.6.3-.6.6-.6l.1 1.4c-.4 0-.7-.3-.7-.8zm1.8-5.1c-.4-.1-1-.1-1-.1l-.1 2h-.2c-.2 0-.4-.1-.4-.7v-1.4l-.7-.2s-.2.9-.2 1.5c0 1.1.6 1.7 1.2 1.9.5.1 1 0 1 0l.1-2h.2c.2 0 .3.1.3.7v1.4l.7.2s.2-.9.2-1.5c.2-1.1-.5-1.7-1.1-1.8zm0-3.8c-.4-.1-1-.1-1-.1l-.1 2h-.2c-.2 0-.4-.1-.4-.7v-1.4l-.7-.2s-.2.9-.2 1.5c0 1.1.6 1.7 1.2 1.9.5.1 1 0 1 0l.1-2h.2c.2 0 .3.1.3.7v1.4l.7.2s.2-.9.2-1.5c.2-1-.5-1.7-1.1-1.8zm.1-1.1c0 .4.1.7.6.8.3.1.5-.1.5-.3h.6v-.7l-1.1-.2c-.5-.2-.6 0-.6.4zm-2.8-5.2c0 1.2 1 1.6 2 1.9 1 .2 2 .2 2-1 0-.5-.3-1.2-.3-1.2l.2-.1v-.8l-.5-.1-4.8-1v.9l1.6.5c0-.1-.2.4-.2.9zm1-.9l1.9.4v.8c0 .6-.4.6-1 .5-.6-.1-1-.3-1-.9v-.8zm1-1.5c1 .2 2 .1 2-1.5 0-1.5-.9-2.1-2-2.3-1-.2-1.9-.1-1.9 1.5-.1 1.6.9 2.1 1.9 2.3zm0-2.7c.6.1 1 .4 1 1.1 0 .7-.4.8-1 .7-.6-.1-1-.4-1-1.1 0-.8.4-.8 1-.7zm-2-6c0 .4.3 1 .3 1l-.2.1v.8l3.8.8v-1l-2.9-.6v-.4c0-.6.4-.5 1-.4l.4.1 1.5.2v-.9l-1.9-.4c-.3-.1-.7-.1-1-.1v-.5c0-.6.4-.5 1-.4l.4.1 1.5.2v-.9l-1.9-.4c-1-.2-2-.3-2 .9 0 .4.2.9.3 1.1-.1.1-.3.4-.3.7zm2-3.3c1 .2 2 .1 2-1.5 0-1.5-.9-2.1-2-2.3-1-.2-1.9-.1-1.9 1.5-.1 1.5.9 2.1 1.9 2.3zm0-2.8c.6.1 1 .4 1 1.1 0 .7-.4.8-1 .7-.6-.1-1-.4-1-1.1 0-.7.4-.8 1-.7zm-2-3.8c0 .4.3.9.3.9l-.2.1v.8l.5.1 3.3.7v-.9l-1.5-.5-1.4-.3v-.5c0-.3.1-.3.7-.2v-1c-.9-.1-1.7-.2-1.7.8zm2-1.1c1 .2 1.9.2 1.9-1.5 0-.7-.3-1.6-.3-1.6l-.7-.1v1.5c0 .6-.2.8-.6.7v-2.5c-1.4-.4-2.3-.3-2.3 1.2 0 1.7 1 2.1 2 2.3zm-.5-2.5l.1 1.4c-.5-.1-.7-.4-.7-.9s.3-.6.6-.5zm1.9-1.2c.5.1.6-.1.6-.5s-.1-.7-.6-.8c-.5-.1-.6.2-.6.5 0 .4.1.7.6.8z"/><path d="M352.2 121.5l-10.2 2.2c-1.9.4-3.8 0-5.4-1l-8.7-5.8c-3.7-2.5-8.5-.9-10.2 2.8-.3.7-.6 1.5-.7 2.3l-1 10.4c-.2 1.9-1.1 3.6-2.6 4.8l-8.2 6.5c-4.2 3.3-3.3 9.8 1.5 12l9.5 4.2c.5.2 1 .5 1.4.9 1 .8 1.9 1.9 2.3 3.1l3.6 9.8c1.8 5 8.3 6.2 11.9 2.2l6.9-7.8c1.3-1.4 3.1-2.3 5-2.3l7.2-.3 3.2-.1c5.3-.2 8.5-6 5.8-10.6l-5.3-9c-1-1.6-1.2-3.6-.7-5.4l2.8-10c1.2-4.3-1.8-8.3-5.8-8.9-.7-.2-1.5-.2-2.3 0zm-1.9 37.3l-6.7.3c-1.2.1-2.4.6-3.2 1.5l-4.4 5c-2.3 2.5-6.4 1.7-7.6-1.4l-2.3-6.2c-.4-1.1-1.3-2.1-2.4-2.6l-6.1-2.7c-3.1-1.4-3.6-5.5-1-7.6l5.2-4.1c1-.8 1.6-1.9 1.7-3.1l.7-6.6c.3-3.4 4.1-5.2 7-3.3l5.5 3.7c1 .7 2.3.9 3.4.6l6.5-1.4c3.3-.7 6.2 2.3 5.3 5.6l-1.8 6.4c-.3 1.2-.2 2.4.4 3.5l3.4 5.8c1.9 2.8-.2 6.4-3.6 6.6z" fill="#f4ed86"/><path d="M350.7 146.3c-.6-1.1-.8-2.3-.4-3.5l1.8-6.4c.9-3.3-2-6.3-5.3-5.6l-6.5 1.4c-1.2.3-2.4 0-3.4-.6l-5.5-3.7c-2.8-1.9-6.6-.1-7 3.3l-.7 6.6c-.1 1.2-.7 2.3-1.7 3.1l-5.2 4.1c-2.7 2.1-2.1 6.3 1 7.6l6.1 2.7c1.1.5 2 1.4 2.4 2.6l2.3 6.2c1.2 3.2 5.3 4 7.6 1.4l4.4-5c.8-.9 2-1.4 3.2-1.5l6.7-.3c3.4-.1 5.4-3.8 3.7-6.8l-3.5-5.6z" fill="#ede650"/><path class="st28" d="M363.4 220.1c-1.2-.3-2.5-.5-3.7-.6 1.2.1 2.7.4 4.1.8-.1-.1-.3-.1-.4-.2zm-4.9-.7s0-.1 0 0c0-.1 0 0 0 0zm18.4 24.7c0 .1-.1.2-.1.4 0-.2 0-.3.1-.4 1-3.5.9-7.1 0-10.4.9 3.2 1 6.8 0 10.4zm-.4-11.6c0 .1.1.2.1.3 0-.1 0-.2-.1-.3zm-63.1-20.9c-3.8-1.1-7.6-.7-11 .7-4.6 1.9-8.3 5.8-9.7 10.9-2.3 8.2 2 16.8 9.7 20 .6.3 1.2.5 1.9.7l9.7 2.7c-7.6-2.2-11.7-11.1-9.2-20s10.7-14.4 18.3-12.2c.6.2 1.2.4 1.8.7 3.7-10.9 10.9-18.2 20.5-15.4-1-.4-2-.8-3.1-1.1-9.6-2.7-19.6 1.4-24.7 9.5-.9 1.4-1.6 2.9-2.2 4.4-.6-.4-1.3-.7-2-.9zm36.3-9.4c3.2 2.7 6.7 7.2 8.1 12.2-.6-2.5-1.7-4.9-3.2-7-1.3-2-3-3.8-4.9-5.2z"/><path class="st29" d="M349.7 202.2c-1.5-1.3-3-2.2-4.3-2.6-9.6-2.8-16.8 4.5-20.5 15.4-.6-.3-1.2-.5-1.8-.7-7.6-2.1-15.8 3.4-18.3 12.2-2.5 8.9 1.6 17.9 9.2 20l3.6 1 10.2 2.9.5-.6-.3.6 26.6 7.5 1 .3c8.8 1.1 18.1-3.8 21.2-13.8 0-.1.1-.2.1-.4 1-3.6.9-7.2 0-10.4-.1-.3-.2-.6-.2-.9 0-.1-.1-.2-.1-.3-1.9-5.5-5.9-9.9-10.4-11.6-.5-.2-1.3-.4-2.3-.6-1.3-.3-2.9-.6-4.1-.8-.5-.1-1-.1-1.2-.1v-.1c0-1.7-.2-3.3-.7-4.9-1.5-5-4.9-9.4-8.2-12.1z"/><path fill="#efe530" d="M317.7 263.3l-.4.5.4.1 13.7 3.1-13.7 20.5-2.6 3.8 2.6-2.6 23.2-23.9-18.3-3.4 5.5-10.8.3-.7-.5.6z"/><path d="M317.7 321.9l-10.2-1.1c-2.2-.2-4.4 1.7-3.8 3.4l1.9 5.3c.4 1.2-.5 2.6-2.1 3.2-.4.1-.7.3-1 .5-.9.7-1.4 1.7-1.1 2.6l.8 2.2.2.5 5.5 15.8c.4 1.2 2.1 1.7 3.6 1.2 1.6-.6 3.2 0 3.6 1.2l1.9 5.3c.6 1.7 3.5 1.9 5.1.3l32.6-32.4.4-.4c1.2-1.2 1-2.8-.4-3.4l-.9-.3-36.1-3.9zm33.3 8.7l-26 26.9c-1.3 1.3-3.6 1.1-4.1-.3l-1.6-4.4c-.4-1-1.7-1.5-2.9-1-1.3.4-2.6 0-2.9-1l-5.4-15.5c-.4-1 .4-2.2 1.7-2.6 1.3-.4 2-1.6 1.7-2.6l-1.6-4.4c-.5-1.4 1.2-3 3-2.8l37.1 4.8c1.6 0 2.2 1.7 1 2.9z" fill="#71b73a"/><path d="M349.9 327.5l-37.1-4.8c-1.8-.2-3.5 1.3-3 2.8l1.6 4.4c.4 1-.4 2.2-1.7 2.6-1.3.4-2 1.6-1.7 2.6l5.4 15.5c.4 1 1.7 1.5 2.9 1 1.3-.4 2.6 0 2.9 1l1.6 4.4c.5 1.4 2.8 1.6 4.1.3l26-26.9c1.3-1 .7-2.7-1-2.9z" fill="#81bb27"/><path class="st28" d="M280.2 71.2c-.2-1.8-.2-3.5.1-5.2-.3 1.6-.3 3.3-.1 5.1 0 .4.1.9.2 1.3.8 4.3 2.9 8 5.8 10.8-3.1-3-5.4-7.1-6-12zm21.3 17.2c1.1-.1 2.1-.4 3.2-.6-1 .2-2.2.4-3.2.6zm46.1-44.1l-8.2.9c7.1.3 13.2 6.7 14.2 15.1 1 9.2-4.5 17.4-12.4 18.2-.6.1-1.3.1-1.9.1.6 11.5-3.3 21-13.2 22-4.8.5-16.2-4.6-19.5-13.4h-.1c2.2 5.2 6.3 9.3 11.3 11.5 3.5 1.6 7.4 2.3 11.5 1.9 11.6-1.2 20.2-11.4 19.8-22.9.7 0 1.5 0 2.2-.1 1.2-.1 2.4-.4 3.5-.8 7.3-2.4 12.3-9.7 11.4-17.7-.8-7.9-7-13.9-14.6-14.8-1.4-.1-2.7-.1-4 0zm-50.2 5.4c-.1 0-.3.1-.4.1l5-.6-4.6.5zm-17 15.6s0-.1 0 0c0-.1 0 0 0 0z"/><path d="M311 22.9c-1.2.1-2.1 1.2-1.9 2.4l1.2 10.1.6 4.7c.1 1.2 1.2 2.1 2.4 1.9 1.2-.1 2.1-1.2 1.9-2.4l-.5-4.1-1.3-10.6c-.1-1.3-1.2-2.1-2.4-2zm-6.1-7.5c.8.9 2.2 1 3.1.2.9-.8 1-2.2.2-3.1l-7.7-9c-.8-.9-2.2-1-3.1-.2-.9.8-1 2.2-.2 3.1l7.7 9zM279 18.3l11 4.5c1.1.5 2.4-.1 2.9-1.2.5-1.1-.1-2.4-1.2-2.9l-11-4.5c-1.1-.5-2.4.1-2.9 1.2-.5 1.2.1 2.5 1.2 2.9zm52.3-4.1l7.7-9c.8-.9.7-2.3-.2-3.1-.9-.8-2.3-.7-3.1.2l-7.7 9c-.8.9-.7 2.3.2 3.1 1 .9 2.3.8 3.1-.2zm14.1 2.6l10.3-5.9c1-.6 1.4-1.9.8-3s-1.9-1.4-3-.8L343.2 13c-1 .6-1.4 1.9-.8 3s2 1.4 3 .8zM295 25.3c-1.2.3-1.8 1.6-1.5 2.7l2.2 7.4 2.2 7.3c.3 1.2 1.6 1.8 2.7 1.5 1.2-.3 1.8-1.6 1.5-2.7l-1.8-6.1-2.6-8.7c-.3-1.1-1.5-1.7-2.7-1.4zm33.1-3.4c-1.2 0-2.2 1.1-2.1 2.3l.4 11.3.1 3.6c0 1.2 1.1 2.2 2.3 2.1 1.2 0 2.2-1.1 2.1-2.3l-.1-3.4-.4-11.5c0-1.2-1.1-2.2-2.3-2.1zm15 .2c-1.2-.1-2.3.8-2.4 2L339.5 36l-.1 1.3c-.1 1.2.8 2.3 2 2.4 1.2.1 2.3-.8 2.4-2v-.3l1.3-13c.1-1.1-.8-2.2-2-2.3z" fill="#3f61ab"/><path class="st29" d="M304.7 87.7c.7-.2 1.3-.3 1.7-.5h.1c3.3 8.8 14.7 13.9 19.5 13.4 10-1 13.9-10.5 13.2-22 .6 0 1.3 0 1.9-.1 7.9-.9 13.4-9.1 12.4-18.2-.9-8.4-7.1-14.8-14.2-15.1h-1.9l-35.5 4-5 .6-2.4.3c-6.9 1.9-12.7 7.5-14.2 15.2v.1c0 .2-.1.5-.1.8-.2 1.6-.3 3.4-.1 5.2.5 4.9 2.9 9 6 12 3.7 3.6 8.4 5.6 12.7 5.5h.2c.5 0 1.4-.1 2.4-.3 1.1-.4 2.3-.6 3.3-.9z"/></svg>