<svg xmlns="http://www.w3.org/2000/svg" viewBox="0 0 400 400"><path fill="#F2A50A" d="M0 0v134.7l297.8 177.6c27.8 16.6 62.1 17.9 91.1 3.4l11.1-5.6V0H0z"/><linearGradient id="a" gradientUnits="userSpaceOnUse" y1="-1684.694" x2="400" y2="-1684.694" gradientTransform="translate(0 1813.92)"><stop offset="0" stop-color="#37589e"/><stop offset="1" stop-color="#3b5a9d"/></linearGradient><path fill="url(#a)" d="M0 0v84.4l350.9 170.7c8.4 4.1 18.1 4.4 26.8.9l22.3-8.4V0H0z"/><path fill="none" d="M-432.4-24.3l-94.2 15.8c27 14.3 56.8 29 88.7 43.7-.2-20.4 1.7-40.3 5.5-59.5z"/><linearGradient id="b" gradientUnits="userSpaceOnUse" x1="-1756.303" y1="-1737.01" x2="539.83" y2="-1737.01" gradientTransform="translate(0 1813.92)"><stop offset="0" stop-color="#224d97"/><stop offset="1" stop-color="#c46aa7"/></linearGradient><path fill="url(#b)" d="M400 104.8C338.5 70.7 266.1 35.4 184.9 0H134c117.3 53.3 210.8 107.4 266 153.8v-49z"/><linearGradient id="c" gradientUnits="userSpaceOnUse" x1="-340.912" y1="-1783.691" x2="418.517" y2="-1783.691" gradientTransform="translate(0 1813.92)"><stop offset="0" stop-color="#224d97"/><stop offset="1" stop-color="#c46aa7"/></linearGradient><path fill="url(#c)" d="M277.9 0c43.3 20.2 84.2 40.4 122.1 60.5v-36C382.3 16.3 364.3 8.1 345.9 0h-68z"/><linearGradient id="d" gradientUnits="userSpaceOnUse" x1="-2604.725" y1="-1693.229" x2="710.741" y2="-1693.229" gradientTransform="translate(0 1813.92)"><stop offset="0" stop-color="#224d97"/><stop offset="1" stop-color="#c46aa7"/></linearGradient><path fill="url(#d)" d="M119.1 112.1L348.6 213l39.8-10.2C375.1 161.1 276.1 95.5 130.6 28.4c.3 29.1-3.7 57.2-11.5 83.7z"/><linearGradient id="e" gradientUnits="userSpaceOnUse" x1="184.86" y1="52.411" x2="400" y2="52.411"><stop offset="0" stop-color="#337dad"/><stop offset="1" stop-color="#3b5a9d"/></linearGradient><path fill="url(#e)" d="M400 60.5c-37.9-20-78.7-40.3-122.1-60.5h-93.1C266 35.4 338.7 70.9 400 104.8V60.5z"/><linearGradient id="f" gradientUnits="userSpaceOnUse" x1="128.801" y1="101.376" x2="400" y2="101.376"><stop offset="0" stop-color="#337dad"/><stop offset="1" stop-color="#3b5a9d"/></linearGradient><path fill="url(#f)" d="M130.6 28.4c145.5 67.1 244.5 132.7 257.8 174.4l11.7-3v-45.9C344.8 107.4 251.3 53.3 134 0h-5.2c.8 7.4 1.4 15 1.6 22.6.1 1.9.1 3.9.2 5.8z"/><linearGradient id="g" gradientUnits="userSpaceOnUse" y1="56.069" x2="130.578" y2="56.069"><stop offset="0" stop-color="#39b0ca"/><stop offset="1" stop-color="#3a398a"/></linearGradient><path fill="url(#g)" d="M130.6 28.4c0-1.9-.1-3.9-.1-5.8-.2-7.6-.8-15.1-1.6-22.6H0v59.8l119.1 52.3c7.8-26.5 11.8-54.6 11.5-83.7z"/><path fill="#E6E7EB" d="M212.5 249.4c-3 0-5.4 2.4-5.4 5.4V400h10.7V254.7c.1-2.9-2.3-5.3-5.3-5.3z"/><path opacity=".7" fill="#FFF" d="M210.9 262s-2.1 2.4-2.1 5.4V400h3.7c-.1-68.4-.8-138-1.6-138z"/><path fill="#E6E7EB" d="M328.2 71.8c-.6-.1-1.3-.1-2 .2l-35.8 12.5c-33.4 18.7-62.7 51.8-65.3 53.2l-19.5 7.7-6.2 6.2c-27 10.8-49.5 17.5-62.7 33.6 7.5 11.7 9.5 15.5 13.4 17.5l-15.4 13.5c-.6 1.6-.9 3.2-.8 4.8-7.4 1.4-22.8 6.3-30.5 22.3-10.3 21.6-26.2 42.2-18.5 45.9-9.8 8.8-15.2 14.4-20.1 20.4-1.6 2-.1 4.9 2.4 4.8 8.6-.3 25.1-1.7 41-8 8.8 1.9 91.2-9.2 77.2-38.3.6-.1 1.1-.3 1.7-.5l14.1-14.7c2.6 3.9 6.2 5 17 11.9 15.6-12.9 20.9-33.3 31.3-59.9l7.9-7.9 7.6-19.5c1.4-2.5 34.2-31.3 53.5-66.1l12.1-35c.1-.3.2-.7.2-1a3.5 3.5 0 0 0-2.6-3.6z"/><path fill="#DA7632" d="M171 252.7c-.9-.7-5.3-1.1-10.8-.5-1.3-2.9-3.6-5.7-7-8.6.1-5.5-2.6-11.4-9.2-17.5 0 0-22-4.2-31.1 15.3s-12 34.9-21.5 42.8c-1.6 1.3 0 1.6 3.5.9-6.6 10-13.3 18.3-20.1 22.8-5 3.3 15.7-1.3 38.1-10.3l-1.2.9c-12.2 9.6 102.2-13.2 59.3-45.8z"/><path fill="#EFD153" d="M170.7 252.7s-5.2-.2-10.9 1.9c-.7-3.6-3.1-7.3-7.8-11.1 0 0-.9 0-2.5.1 1.9-4.9.4-10.3-7.1-15.9 0 0-17.3-.6-24.2 11.7-7 12.3-.1 21.3-7.4 26.2-2.4 1.6 3.4.6 11.2-2.3-5.7 11.8-8.3 19.6-15.4 24.8-4.3 3.2 17.7-1.6 34.8-10.8-1.3 3-2.4 4.6-6.3 7.5-7.3 5.4 65.8-7.5 35.6-32.1z"/><path fill="#F9EF8A" d="M169.8 254.5s-6.4-.2-11.7 3.2c1-3.8-.4-7.9-5.9-12.4 0 0-3.1-.1-7 .9 3.7-4.5 4.3-9.9-2.5-15.9 0 0-11.7-.4-16.4 9.4-4.7 9.9-1.2 14.1-6.2 18.1-2.1 1.7 5.4.3 13.1-3.3-.2.4-.4.7-.6 1.1-5.6 10.8-1.5 15.4-7.4 19.8-3.5 2.6 15.6-1.5 26.3-9.5-3 7.3-.6 10.9-5.2 14.2-5.1 3.7 45-8.5 23.5-25.6z"/><path fill="#555659" stroke="#4E4E4E" stroke-miterlimit="10" d="M172.3 216.9L159.5 233c-5 5-21.3-11.2-16.2-16.2l16-12.9 13 13z"/><path fill="#161616" stroke="#4E4E4E" stroke-miterlimit="10" d="M198.6 243.2l-12.8 16.1c-5 5-21.3-11.2-16.2-16.2l16-12.9 13 13z"/><path fill="#3A3A3A" stroke="#4E4E4E" stroke-miterlimit="10" d="M182.1 233.3l-12.8 16.1c-5 5-21.3-11.2-16.2-16.2l16-12.9 13 13z"/><path fill="#FAFAFA" stroke="#4E4E4E" stroke-miterlimit="10" d="M224.5 155.8l22.3 22.3-52.8 59.1c-6.8 6.8-35.5-21.8-28.7-28.7l59.2-52.7z"/><path fill="#FAFAFA" stroke="#4E4E4E" stroke-miterlimit="10" d="M313.9 107.9c-17.6 31.8-43 56.5-75.1 75.1-9-3.4-15.5-9.6-19.3-19.3 19.3-33.5 44.6-58.1 75.1-75.1l25.9-10.3c2.3-.9 4.5 1.3 3.6 3.6l-10.2 26zM212.5 154c-23.2 10.1-54.2 17.3-66.1 31.7 8.5 13.4 14.2 19 17.2 17.2l48.9-48.9z"/><path fill="#59C0CD" d="M238.9 174.3c-5.2-3.1-9.2-7.7-11.6-14.1 14.6-25.3 33.3-44.6 55.5-58.7 1.3-.8 1.5.8.4 1.7-18.2 15.6-46 51.5-41.1 68.9.4 1.8-1.7 3.1-3.2 2.2z"/><path fill="#CE6161" stroke="#4E4E4E" stroke-miterlimit="10" d="M223 170.1l14.4-8.1c2.1-1.2 4.3 1.1 3.2 3.2l-8.1 14.4-53 53c-6-.4-9.1-3.5-9.5-9.5l53-53z"/><path fill="#CC5050" stroke="#4E4E4E" stroke-miterlimit="10" d="M241.6 181l14.6-8.2c2.1-1.2 4.4 1.1 3.2 3.2l-8.2 14.6-53.7 53.7c-6.1-.4-9.3-3.6-9.6-9.6l53.7-53.7z"/><path fill="#F29495" stroke="#4E4E4E" stroke-miterlimit="10" d="M211.9 151.3l14.6-8.2c2.1-1.2 4.4 1.1 3.2 3.2l-8.2 14.6-53.7 53.7c-6.1-.4-9.3-3.6-9.6-9.6l53.7-53.7z"/><path fill="#ECEDF1" stroke="#4E4E4E" stroke-miterlimit="10" d="M313.9 107.9c-8.5 8.5-27.8-10.8-19.3-19.3l25.9-10.3c2.3-.9 4.5 1.3 3.6 3.6l-10.2 26z"/><path fill="#E2E2E1" stroke="#4E4E4E" stroke-miterlimit="10" d="M247.9 189.4c-10.1 23.2-17.3 54.2-31.7 66.1-13.4-8.5-19-14.2-17.2-17.2l48.9-48.9z"/><circle fill="#ECEDF1" stroke="#4E4E4E" stroke-miterlimit="10" cx="286.5" cy="116.1" r="8.3"/><path fill="#6D92CC" d="M282.6 111.6c3.9-2.3-3 9 8.3 8.3-2.3 2.3-6 2.3-8.3 0-2.3-2.2-2.3-6 0-8.3z"/><path fill="#EFBA34" d="M299.8 101.4c-3.2-3.7-4.8-8.5-1.7-11.5l20-7.9c7-.3-21.1 5.2-18.3 19.4z"/><path opacity=".7" fill="#FFF" d="M328.2 71.8c-.6-.1-1.3-.1-2 .2l-35.8 12.5c-33.4 18.7-62.7 51.8-65.3 53.2l-19.5 7.7-6.2 6.2c-27 10.8-49.5 17.5-62.7 33.6 7.5 11.7 9.5 15.5 13.4 17.5l-15.4 13.5c-.6 1.6-.9 3.2-.8 4.8-7.4 1.4-22.8 6.3-30.5 22.3-10.3 21.6-26.2 42.2-18.5 45.9-9.8 8.8-15.2 14.4-20.1 20.4-1.6 2-.1 4.9 2.4 4.8 23.6-.5 80.3-29.3 123.2-114.7S330.5 76.3 330.5 76.3c.1-.3.2-.7.2-1 .2-1.7-1-3.1-2.5-3.5z"/><path fill="#FAFAFA" d="M180.7 400v-29.4c0-9.5-7.7-17.3-17.3-17.3H10.9c-4.1 0-8 1.5-10.9 3.9V400h180.7z"/><path fill="#E6E7EB" d="M3.7 371H171v29H3.7z"/><circle fill="#090A0A" cx="87.3" cy="362.1" r="2.4"/><path fill="#090A0A" d="M2.5 369.6h169.7V400H2.5z"/><path fill="#FAFAFA" d="M3.7 371H171v29H3.7z"/><path fill="#CDCCCC" d="M3.7 371H171v5.7H3.7z"/><path fill="#FAFAFA" d="M29.1 376.7H3.7V371H24c2.9 0 5.2 2.3 5.2 5.2v.5z"/><path fill="#FFF" d="M29.1 378.6h91.4v4.4H29.1z"/><path fill="#CDCCCC" d="M127 382.9h3c1 0 1.7-.8 1.7-1.7v-.9c0-1-.8-1.7-1.7-1.7h-3c-1 0-1.7.8-1.7 1.7v.9c0 1 .8 1.7 1.7 1.7zm10.1.2h3c1 0 1.7-.8 1.7-1.7v-.9c0-1-.8-1.7-1.7-1.7h-3c-1 0-1.7.8-1.7 1.7v.9c-.1.9.7 1.7 1.7 1.7zm-114.6-.2c1.2 0 2.2-1 2.2-2.2 0-1.2-1-2.2-2.2-2.2-1.2 0-2.2 1-2.2 2.2 0 1.3 1 2.2 2.2 2.2zm-7.8 0c1.2 0 2.2-1 2.2-2.2 0-1.2-1-2.2-2.2-2.2-1.2 0-2.2 1-2.2 2.2 0 1.3 1 2.2 2.2 2.2zm132.5.2h3c1 0 1.7-.8 1.7-1.7v-.9c0-1-.8-1.7-1.7-1.7h-3c-1 0-1.7.8-1.7 1.7v.9c0 .9.8 1.7 1.7 1.7zm18.7-3.3h-6.4c-.3 0-.5-.2-.5-.5s.2-.5.5-.5h6.4c.3 0 .5.2.5.5s-.2.5-.5.5zm0 3.1h-6.4c-.3 0-.5-.2-.5-.5s.2-.5.5-.5h6.4c.3 0 .5.2.5.5s-.2.5-.5.5zm0-1.5h-6.4c-.3 0-.5-.2-.5-.5s.2-.5.5-.5h6.4c.3 0 .5.2.5.5s-.2.5-.5.5z"/><path fill="none" stroke="#252725" stroke-miterlimit="10" d="M3.7 386H171v14H3.7z"/><path fill="none" stroke="#252725" stroke-miterlimit="10" d="M164.6 396.2h-16.5c-1 0-1.7-.8-1.7-1.7v-3.7c0-1 .8-1.7 1.7-1.7h16.5c1 0 1.7.8 1.7 1.7v3.7c.1 1-.7 1.7-1.7 1.7z"/><path fill="#E2B842" d="M162.3 394.1h-11.8c-.8 0-1.4-.6-1.4-1.4 0-.8.6-1.4 1.4-1.4h11.8c.8 0 1.4.6 1.4 1.4 0 .7-.6 1.4-1.4 1.4z"/><path fill="#252725" d="M106.1 394.1h-6.4c-.8 0-1.5-.7-1.5-1.5s.7-1.5 1.5-1.5h6.4c.8 0 1.5.7 1.5 1.5 0 .9-.7 1.5-1.5 1.5zm15.1 0h-7.7c-.8 0-1.5-.7-1.5-1.5s.7-1.5 1.5-1.5h7.7c.8 0 1.5.7 1.5 1.5 0 .9-.7 1.5-1.5 1.5zm17.1 0H128c-.8 0-1.5-.7-1.5-1.5s.7-1.5 1.5-1.5h10.3c.8 0 1.5.7 1.5 1.5 0 .9-.7 1.5-1.5 1.5z"/><path fill="none" stroke="#252725" stroke-linecap="round" stroke-miterlimit="10" d="M3.7 386l37.9 14m92.1 0l38.1-14"/><path fill="#EFEFEF" d="M53.2 207.7c-8.3-4.3-28.2-5.8-53.2-6.2v-66.3c17.6.3 36.7 1.1 56 2 2.5 39.4 1.9 64.5-2.8 70.5z"/><path fill="#FAFAFA" d="M55.6 137.6c-9.3-2.7-29.9-.3-55.6 4.4V74.8c14.4-2.3 29.7-4.6 45.1-6.9 9.9 38 14 62.8 10.5 69.7z"/><path fill="#E78C8D" stroke="#E78C8D" stroke-width=".094" d="M0 93.5c2.6-.5 5.2-1 7.9-1.6-.3.4-.6.8-.7 1.3-.5 1.5-.6 3-.8 4.5-.4 4.3-.4 8.5-.3 12.6.1 4.1.1 8.2.1 12.4 0 2.1-.1 4.1-.3 6.2-.1 1.3-.3 2.6-.7 3.8-.2.6-.4 1.2-.9 1.6-1.4.3-2.9.6-4.3.9V93.5z"/><path fill="#F0B8BF" stroke="#F0B8BF" stroke-width=".094" d="M7.9 92c.3-.1.6-.1.9-.2.5.2 1 .5 1.4.9.7.7 1.2 1.6 1.7 2.4 1.3 2.3 2.3 4.6 3.4 7 1.4 3.2 2.7 6.4 4 9.7l.9 2.4s.1.1.2.1c-.2.5-.3 1.1-.4 1.7-.2 2-.2 4.1-.2 6.2.1 1.6 0 3.2-.2 4.8-.1 1.2-.4 2.4-.9 3.4-.3.5-.7.9-1.1 1.3-.8.2-1.4-.4-1.9-.9-1.1-1.2-1.8-2.7-2.5-4.1-2.6-5.3-4.7-10.7-6.9-16.2 0-.1-.1-.1-.2-.2 0-4.2-.1-8.4.3-12.5.2-1.5.3-3.1.8-4.5.1-.5.4-.9.7-1.3z"/><path fill="#E78C8D" stroke="#E78C8D" stroke-width=".094" d="M20.8 112.8c.5-.8 1.3-1.4 2.2-1.5l7.8-1.5c1.1-.2 2.2-.5 3.3-.6-.3.3-.7.4-1 .7-1.1.8-1.9 1.9-2.3 3.1-.7 2-.6 4.1-.5 6.2.1 2.1.5 4.1.2 6.2-.2 1.4-.6 2.9-1.5 4.1-3.6.7-7.1 1.4-10.7 2.1-.2 0-.5.1-.7.1.5-.3.9-.8 1.1-1.3.5-1.1.8-2.3.9-3.4.2-1.6.2-3.2.2-4.8-.1-2-.1-4.1.2-6.2.1-.6.1-1.2.4-1.7 0-.5.1-1 .4-1.5z"/><path d="M0 82.2c.3 0 .6.1.9.3.2.2.4.5.5.9 0 .2.1.7.2 1.4s.2 1.7.4 2.9c-.4.1-.7.1-1.1.2-.3 0-.6.1-.9.1v-5.8zm3.2 5.2l-.1-1.2-.6-4.2-.4-2.2c.5-.1.9-.2 1.2-.2.3-.1.7-.1 1.1-.2l.2 1.6.6 4.2.3 1.7c-.4.1-.8.1-1.1.2l-1.2.3zm3.5-.7c0-.5-.1-.8-.1-1.1 0-.3-.1-.7-.1-1.1-.1-.5-.1-1-.2-1.5-.2-.6-.3-1.3-.4-2 .5-.1.9-.2 1.2-.2.3-.1.6-.1 1.1-.2.1.7.2 1.3.2 1.9.1.5.2 1.1.3 1.7.2 1.1.3 1.8.4 2.1-.4.1-.8.2-1.1.2-.4 0-.8.1-1.3.2zm-.9-6.4c-.1-.4-.1-.8-.2-1 0-.1 0-.2-.1-.3.4-.1.8-.2 1.1-.2.4-.1.8-.2 1.1-.2v.3l.1.7c0 .1 0 .2.1.4-.3-.1-.6 0-1 0-.3.1-.7.2-1.1.3zm4.3 5.7c-.1-.4-.2-1-.3-1.7.1-.2.2-.3.3-.4l1.8-2.6c-.9.2-1.7.4-2.3.6 0-.2-.1-.4-.1-.8l-.1-.5-.1-.3c.4-.1 1.3-.2 2.5-.5 1-.2 1.8-.4 2.3-.5 0 .2.1.8.3 1.8-.1.1-.2.3-.3.4L12.4 84c.4-.1.9-.2 1.5-.3.3-.1.6-.1.9-.2 0 .3.1.8.2 1.5-.5.1-1.3.2-2.4.5-1.2.2-2 .4-2.5.5zm11.3-4v1.7c-.4.2-.8.3-1 .4-.3.1-.6.2-.9.2-.4.1-.9.1-1.2.2-.4 0-.7 0-1-.1-.3-.1-.6-.2-.8-.4-.2-.2-.4-.4-.6-.7-.2-.3-.3-.6-.3-1-.1-.5-.1-1 0-1.4.1-.5.3-.9.5-1.2.2-.3.6-.6.9-.7.4-.2.8-.3 1.2-.4.4-.1.8-.1 1.2-.1.4 0 .8.1 1.1.3.3.2.6.4.7.7.2.3.3.6.4 1 0 .2.1.5.1.7l-3.9.8v.2c.1.4.3.7.6.8.3.1.7.2 1.1.1.2 0 .5-.1.8-.3.3-.4.7-.5 1.1-.8zm-3.8-1.1l1.8-.4v-.2c0-.2-.1-.3-.2-.5-.1-.1-.2-.2-.4-.2h-.4c-.1 0-.2.1-.3.1-.1.1-.2.1-.2.2-.1.1-.1.2-.2.3 0 .1-.1.2-.1.3v.4zM1.3 166.6c.6 0 1.1.1 1.6.3.5.2.9.4 1.3.8.3.3.6.7.8 1.2.2.4.2.9.2 1.4 0 .5-.1.9-.3 1.4-.2.4-.4.8-.8 1.2-.4.4-.8.6-1.4.8-.6.2-1.2.3-1.8.2-.6 0-1.1-.1-1.6-.3-.5-.2-1-.4-1.3-.8-.3-.3-.6-.7-.8-1.2-.2-.5-.2-.9-.2-1.4 0-.5.1-1 .3-1.4.2-.4.5-.8.9-1.2.4-.3.9-.6 1.4-.8.5-.2 1.1-.2 1.7-.2zm-.1 2c-.3 0-.5.1-.8.2-.2.1-.4.4-.5.6-.1.3-.2.6-.2.9 0 .5.1.9.3 1.1.2.3.5.4.9.4.3 0 .5-.1.8-.2.2-.1.4-.4.5-.7.1-.3.2-.6.2-.9 0-.3 0-.5-.1-.8s-.2-.4-.4-.6h-.7zm9.9 3.3c-.1.4-.2.7-.2 1.1l-.2.8c-.5.1-.8.1-1.1.2h-.7c-.4 0-.7-.1-1-.1-.3-.1-.5-.2-.7-.4-.2-.2-.3-.4-.4-.6-.1-.2-.1-.5-.1-.7v-.2c0-.1 0-.4.1-.8l.2-2.3H5.9c0-.3.1-.7.1-1.2v-.6h1.1c0-.2.1-.7.1-1.4l1.2-.2c.2 0 .7-.1 1.4-.3 0 .6-.1 1.2-.1 1.9h1.5c-.1.9-.1 1.6-.1 1.9H9.5l-.1 1.7v.5c0 .2 0 .4.1.5 0 .1.1.3.2.3.1.1.2.1.4.1h.3c.2-.1.4-.1.7-.2zm.8 1.9v-.6c0-.2 0-.5-.1-.9v-.5c.4.2.8.3 1.1.4.3.1.6.1.9.1h.5c.1 0 .2-.1.3-.2.1-.1.1-.2.1-.2 0-.1 0-.1-.1-.2 0-.1-.2-.2-.3-.3-.4-.3-.7-.5-1-.8-.3-.2-.5-.4-.6-.6l-.3-.6c-.1-.2-.1-.4-.1-.6 0-.4.1-.7.3-1 .2-.3.5-.5 1-.7.4-.1.9-.2 1.5-.2s1.4.1 2.4.3l.1 1.9c-.5-.2-1.1-.4-1.6-.4-.4 0-.6 0-.8.1-.2.1-.2.2-.2.3v.1s0 .1.1.1c0 .1.1.1.2.2s.2.2.5.4.5.4.6.5l.6.6c.1.2.2.4.3.5.1.2.1.4.1.6 0 .3-.1.6-.3.9-.2.3-.4.5-.7.7-.3.2-.7.3-1 .3-.4.1-.7.1-1.1.1-.3 0-.6 0-1-.1-.5 0-.9-.1-1.4-.2zm11.8-1.5c-.1.4-.2.7-.2 1.1l-.2.8c-.5.1-.8.1-1.1.2h-.7c-.4 0-.7-.1-1-.1-.3-.1-.5-.2-.7-.4-.2-.2-.3-.4-.4-.6-.1-.2-.1-.5-.1-.7v-.2c0-.1 0-.4.1-.8l.2-2.3h-1.1c0-.3.1-.7.1-1.2v-.6h1.1c0-.2.1-.7.1-1.4l1.2-.2c.2 0 .7-.1 1.4-.3 0 .6-.1 1.2-.1 1.9h1.5c-.1.9-.1 1.6-.1 1.9h-1.6l-.1 1.7v.5c0 .2 0 .4.1.5 0 .1.1.3.2.3.1.1.2.1.4.1h.3c.2-.1.4-.2.7-.2zm.8 2l.3-3 .1-1.7v-2.2h2.6v.8l.4-.4c.1-.1.2-.2.4-.3.1-.1.3-.1.5-.2h.5c.2 0 .3 0 .5.1v2.2c-.2-.1-.5-.1-.7-.1-.3 0-.5 0-.7.1-.2.1-.4.2-.5.3-.2.2-.3.4-.4.6-.1.2-.2.6-.2 1.1 0 .5-.1 1.1-.1 1.8v.9h-2.7zm6.7-4.8c.1-.4.2-.8.2-.9 0-.2.1-.4.1-.8 1.3-.2 2.4-.4 3.4-.3.5 0 1 .1 1.5.2.4.1.8.3 1 .6.2.3.4.7.3 1.2 0 .3-.1.8-.1 1.7-.1.9-.2 2-.2 3.5h-2.7c.1-.5.2-1.5.3-3.1-.2.1-.3.1-.4.2-.1 0-.3.1-.5.1-.2.1-.4.1-.6.2-.1 0-.3.1-.4.2l-.2.2c0 .1-.1.2-.1.3 0 .2.1.3.2.4.1.1.3.2.6.2h.3c.1 0 .3 0 .4-.1-.1.3-.3.8-.5 1.5-.4.1-.8.1-1.1.1-.6 0-1-.1-1.4-.3-.4-.2-.6-.4-.8-.8-.2-.4-.3-.7-.3-1 0-.2 0-.4.1-.6.1-.2.2-.4.4-.6.2-.2.4-.3.6-.5.2-.1.5-.3.9-.4.4-.1.8-.2 1.4-.3.2 0 .5-.1.6-.1.2 0 .3-.1.4-.1.1 0 .2-.1.2-.1.1 0 .1-.1.1-.2v-.2c0-.2-.1-.3-.2-.4-.1-.1-.4-.1-.6-.2-.8-.2-1.7 0-2.9.4zm7.3 8.3c.1-.9.2-1.8.3-2.8.1-1.6.3-2.9.3-4 .1-1.1.1-2.1.1-3.2.9-.1 1.6-.2 2.2-.2H43c.6 0 1.2.1 1.8.3s1 .4 1.3.8c.3.4.6.8.7 1.2.2.5.2 1 .2 1.5s-.1.9-.2 1.4c-.1.4-.4.8-.7 1.2-.3.3-.6.6-1 .8-.4.2-.8.2-1.2.2-.2 0-.4 0-.7-.1-.2 0-.5-.1-.7-.2-.2-.1-.4-.2-.5-.3-.1-.1-.3-.2-.5-.4l-.1 1.9c-.1.9-.1 1.5-.1 2H40c-.4-.1-.9-.1-1.5-.1zm3.4-8.1c0 .2-.1.4-.1.5 0 .1 0 .3-.1.5v.5c0 .4 0 .7.1.9.1.3.3.5.5.6.2.1.4.2.7.2.2 0 .5-.1.7-.2.2-.1.4-.3.5-.6.1-.3.2-.6.2-1 0-.5-.1-.9-.4-1.2-.2-.3-.6-.5-1.1-.5-.3.2-.6.2-1 .3z"/></svg>