<svg id="Слой_1" xmlns="http://www.w3.org/2000/svg" viewBox="0 0 400 400"><style>.st0{fill:#fff}.st5{fill:#0084b7}.st7{fill:#fafafa}.st10{fill:#e6e7eb}.st14{opacity:.15;enable-background:new}.st34{fill:#775412}.st35{fill:#cc3a38}.st50{fill:#141b28}.st51{fill:#0a69ad}.st58{fill:#d6b761}.st61{fill:none;stroke:#e2b647;stroke-miterlimit:10}.st67{fill:#e5e5e5}</style><path class="st0" d="M0 0h400v400H0z"/><path d="M0 287.5h48.7V400H0zm296.6 0l-2.4 2.4c-1.2-.8-2.4-1.6-3.7-2.3-3.4 3.8-6.1 7.4-8.2 10.8-1.8-2-3.9-3.9-6.2-5.9-5.2 3.8-10.4 7.6-15.5 11.3-.9.7-2.1.2-2.4-.9-1-4.2-4.6-9.6-9.6-15.5H83.1V400H400V287.5H296.6z" fill="none"/><path fill="#006e89" d="M48.7 287.5h34.4V400H48.7z"/><path d="M386.1 223.1c.8 0 1.4.6 1.4 1.4h3.8c0-.8.6-1.4 1.4-1.4h7.3v-7.4c-4.9 2.3-9.8 4.8-14.7 7.4h.8zm13.9-15.7v-5.5l-4.5 3.3c1.5.8 3 1.5 4.5 2.2zm-2.2-14.4c-2.2 1.2-4.7 2.8-7.4 4.7l9.6 2v-7.9c-5.3-.4-9.9-.8-13.7-1.1 3.8.8 7.7 1.5 11.5 2.3zm-223.3 32l-9.4 11.1c5.5.6 11.1 1.2 16.8 1.8l-7.4-12.9zm198.2 4.9c-10.4 5.8-20.9 12-31.4 18.5 19.1.8 38.7 1.4 58.7 2V231h-24.9c-.9 0-1.8-.5-2.4-1.1z" fill="#008dd1"/><path d="M296.6 287.5H400v-20.2h-83.5l-19.9 20.2zm-213.5 0h165.5c-5.5-6.5-12.8-13.5-20.4-20.2H0v20.2h83.1z" fill="#00789f"/><path class="st5" d="M341.3 248.4c-5.6 3.5-11.2 7-16.7 10.6-2.7 2.7-5.4 5.5-8.1 8.2H400v-16.8c-20-.6-39.6-1.2-58.7-2zm-113.1 18.8c-1.6-1.4-3.3-2.8-4.9-4.2-5.9-1.4-11.2-2.5-15.6-3.4-3.5 2.2-7.3 3.4-11.4 3.3l-14.4-25c-5.7-.6-11.4-1.2-16.8-1.8l-18.2 21.3H21.2c-8.4-3.6-8.4-23.9 0-26.3l7.3-5.8-7.4-.2c-5.2-2.4-6.9-11.2-5.5-18h-5.2c-.1 0-.1-.1-.2-.1v-1.7c-1.7-4.3-2.4-8.5-2.3-12.6-2.7.8-5.4 1.7-7.9 2.8v71.7h228.2z"/><path d="M386.3 190.7c3.9.3 8.5.7 13.7 1.1v-2.3h-19.6c1.9.4 3.9.8 5.9 1.2z" fill="#009edb"/><path class="st7" d="M295.1 102.3c0 11.1 9 20.2 20.2 20.2H400v-10.6l-14.6-6.2c-.5-.2-1.1 0-1.4.6l-.3.7c-.2.5-.8.8-1.4.6l-12-5c-.5-.2-.8-.8-.6-1.4l.3-.7c.2-.5 0-1.1-.6-1.4l-12.9-5.4c-.5-.2-.8-.8-.6-1.4l7.7-18.2c.2-.5.8-.8 1.4-.6l35 14.6V68H295.1v34.3zm20.3-31.8l7.9 3.4c.9.4 1.9 0 2.3-.8.3-.5.7-.9 1.3-1l18-3.1c1.4-.2 2.6 1.2 2 2.5l-4 9.3c-.4 1 .1 2.2 1.2 2.5.7.2 1.2.8 1.3 1.4l2.6 15c.1.6.5 1.1 1 1.3l2.4 1.3c.5.3.9.7 1 1.3l1.5 9c.2 1-.5 1.9-1.5 2.1l-34.9 6c-1 .2-2-.5-2.1-1.6l-1.4-11.5c0-.3 0-.6.1-.9l5.5-13.2c.4-.9-.1-2-1-2.4l-1.9-.8c-.6-.2-1-.8-1.1-1.4l-2.8-16.5c-.2-1.3 1.2-2.4 2.6-1.9z"/><path fill="#090a0a" d="M400 68V57.7h-94.1V0h-10.8v68z"/><path class="st7" d="M400 37.6V0h-10.3v22.8c0 2.2-1.8 4-4 4h-40c-2.2 0-4-1.8-4-4V0H306v37.6h94z"/><path d="M345.7 26.8h40c2.2 0 4-1.8 4-4V0h-11.4c.2.3.3.7.3 1.1 0 1-.8 1.9-1.9 1.9h-24.9c-1 0-1.9-.8-1.9-1.9 0-.4.1-.8.3-1.1h-8.6v22.8c.1 2.2 1.9 4 4.1 4zm6.1-20.2h17.7c1 0 1.9.8 1.9 1.9 0 1-.8 1.9-1.9 1.9h-17.7c-1 0-1.9-.8-1.9-1.9 0-1 .8-1.9 1.9-1.9zm0 7.8H378c1 0 1.9.8 1.9 1.9s-.8 1.9-1.9 1.9h-26.3c-1 0-1.9-.8-1.9-1.9s.9-1.9 2-1.9z" fill="#3f6ab2"/><path class="st7" d="M351.8 3h24.9c1 0 1.9-.8 1.9-1.9 0-.4-.1-.8-.3-1.1h-28.1c-.2.3-.3.7-.3 1.1 0 1 .8 1.9 1.9 1.9zm0 7.4h17.7c1 0 1.9-.8 1.9-1.9 0-1-.8-1.9-1.9-1.9h-17.7c-1 0-1.9.8-1.9 1.9 0 1.1.8 1.9 1.9 1.9zm0 7.8H378c1 0 1.9-.8 1.9-1.9s-.8-1.9-1.9-1.9h-26.3c-1 0-1.9.8-1.9 1.9s.9 1.9 2 1.9z"/><path class="st10" d="M305.9 37.6v20.1H400V37.6h-94.1zm34.4 70.4c-.4-.1-.8 0-1.3 0l-1 .2 1 5.6 1-.2c.5-.1.9-.2 1.3-.4.8-.5 1.3-1.5 1-2.8-.3-1.4-1-2.2-2-2.4z"/><path class="st10" d="M315.7 89c.1.6.5 1.1 1.1 1.4l1.9.8c.9.4 1.4 1.5 1 2.4l-5.5 13.2c-.1.3-.2.6-.1.9l1.4 11.5c.1 1 1.1 1.8 2.1 1.6l34.9-6c1-.2 1.7-1.1 1.5-2.1l-1.5-9c-.1-.6-.5-1.1-1-1.3l-2.4-1.3c-.5-.3-.9-.7-1-1.3l-2.6-15c-.1-.7-.6-1.3-1.3-1.4-1.1-.3-1.6-1.5-1.2-2.5l4-9.3c.6-1.3-.6-2.8-2-2.5l-18 3.1c-.6.1-1 .4-1.3 1-.4.8-1.5 1.2-2.3.8l-7.9-3.4c-1.3-.6-2.8.6-2.5 2l2.7 16.4zm8.4 28.5l-.2-1.1.9-.2-1-3.9c-.1-.3-.1-.7-.1-.7s0 .5-.1.7l-.9 3.9-1.3.2-2.1-3.4c-.1-.3-.3-.7-.3-.7s.1.4.2.7l.4 4 .9-.2.2 1.1-3.3.6-.2-1.1.9-.2-.5-5.8-1 .2-.2-1.1 2.6-.4 2.5 4.2.3.6s0-.3.1-.7l1-4.8 2.6-.4.2 1.1-.9.2 1.4 5.7.9-.2.2 1.1-3.2.6zm7.9-1.2c-2.3.4-4.4-1.1-4.8-3.5-.4-2.3 1.1-4.3 3.4-4.7 2.3-.4 4.4 1.1 4.8 3.3.4 2.4-1.1 4.5-3.4 4.9zm10-2.1c-.5.3-1.1.4-1.7.5l-3.4.6-.2-1.1.9-.2-1-5.7-.9.2-.2-1.1 3.4-.6c.6-.1 1.1-.2 1.7-.1 1.6.2 2.9 1.4 3.2 3.3.3 1.9-.4 3.5-1.8 4.2zm5.2-7.7l-.8.1 1.4 1.5.3.3.2-.4.8-1.8-.8.1-.2-1.1 2.9-.5.2 1.1-.7.1-1.5 3.3 2.5 2.5.7-.1.2 1.1-3 .5-.2-1.1.8-.1-1.4-1.5-.3-.3-.2.4-.8 1.8.8-.1.2 1.1-2.9.5-.2-1.1.7-.1 1.5-3.3-2.4-2.5-.7.1-.3-1 3-.5.2 1zM344 85.7l2.8 16.1-12-4.8-1.6 3.8-16.1 2.8 4.9-11.7 18.1-7.7 3.9 1.5zm-17-7.9l.4-1 .4-1 .8-1.9 16.1-2.8-4.8 11.9-18 7.5-4.1-1.5-2.8-16.1 12 4.9z"/><path class="st10" d="M330.8 109.4c-1.4.2-2.4 1.6-2.1 3.2.3 1.6 1.7 2.7 3.1 2.4 1.4-.2 2.4-1.7 2.1-3.3-.3-1.6-1.7-2.6-3.1-2.3zm13.9-38.3l-16.1 2.8-.8 1.9 12.1 7.2z"/><linearGradient id="SVGID_1_" gradientUnits="userSpaceOnUse" x1="239.016" y1="921.398" x2="238.926" y2="921.498" gradientTransform="matrix(132.2331 -22.62 -13.2188 -77.2751 -19082.894 76685.078)"><stop offset="0" stop-color="#83c7ed"/><stop offset="1" stop-color="#008fce"/></linearGradient><path fill="url(#SVGID_1_)" d="M344.7 71.1l-16.1 2.8-.8 1.9 12.1 7.2z"/><path class="st10" d="M339.9 83h-.1z"/><linearGradient id="SVGID_2_" gradientUnits="userSpaceOnUse" x1="238.968" y1="921.354" x2="238.877" y2="921.455" gradientTransform="matrix(132.2331 -22.62 -13.2188 -77.2751 -19082.894 76685.078)"><stop offset="0" stop-color="#83c7ed"/><stop offset="1" stop-color="#008fce"/></linearGradient><path fill="url(#SVGID_2_)" d="M339.9 83h-.1z"/><path class="st10" d="M327.4 76.8l-.4 1z"/><linearGradient id="SVGID_3_" gradientUnits="userSpaceOnUse" x1="238.97" y1="921.356" x2="238.879" y2="921.457" gradientTransform="matrix(132.2331 -22.62 -13.2188 -77.2751 -19082.894 76685.078)"><stop offset="0" stop-color="#83c7ed"/><stop offset="1" stop-color="#008fce"/></linearGradient><path fill="url(#SVGID_3_)" d="M327.4 76.8l-.4 1z"/><path class="st10" d="M327.8 75.8l-.4 1 .4-1z"/><path class="st14" d="M327.8 75.8l-.4 1 .4-1z"/><path class="st10" d="M339.8 83h.1l-12.1-7.2-.4 1-.4 1z"/><linearGradient id="SVGID_4_" gradientUnits="userSpaceOnUse" x1="238.973" y1="921.359" x2="238.883" y2="921.46" gradientTransform="matrix(132.2331 -22.62 -13.2188 -77.2751 -19082.894 76685.078)"><stop offset="0" stop-color="#83c7ed"/><stop offset="1" stop-color="#008fce"/></linearGradient><path fill="url(#SVGID_4_)" d="M339.8 83h.1l-12.1-7.2-.4 1-.4 1z"/><path class="st14" d="M339.8 83h.1l-12.1-7.2-.4 1-.4 1z"/><linearGradient id="SVGID_5_" gradientUnits="userSpaceOnUse" x1="238.582" y1="923.486" x2="238.552" y2="923.498" gradientTransform="matrix(77.7676 -13.303 -22.5523 -131.8376 2614.225 125008.79)"><stop offset="0" stop-color="#ed9c66"/><stop offset=".185" stop-color="#ec9863"/><stop offset=".409" stop-color="#e88b5e"/><stop offset=".654" stop-color="#e37654"/><stop offset=".911" stop-color="#db5546"/><stop offset="1" stop-color="#d84740"/></linearGradient><path class="st10" d="M340.1 84.2l-3.3 13.6-2-.8 11.9 4.9-2.7-16.2-3.9-1.5z"/><linearGradient id="SVGID_6_" gradientUnits="userSpaceOnUse" x1="238.644" y1="923.4" x2="238.529" y2="923.445" gradientTransform="matrix(77.7676 -13.303 -22.5523 -131.8376 2614.225 125008.79)"><stop offset="0" stop-color="#ed9c66"/><stop offset=".185" stop-color="#ec9863"/><stop offset=".409" stop-color="#e88b5e"/><stop offset=".654" stop-color="#e37654"/><stop offset=".911" stop-color="#db5546"/><stop offset="1" stop-color="#d84740"/></linearGradient><path fill="url(#SVGID_6_)" d="M340.1 84.2l-3.3 13.6-2-.8 11.9 4.9-2.7-16.2-3.9-1.5z"/><linearGradient id="SVGID_7_" gradientUnits="userSpaceOnUse" x1="238.575" y1="923.489" x2="238.561" y2="923.494" gradientTransform="matrix(77.7676 -13.303 -22.5523 -131.8376 2614.225 125008.79)"><stop offset="0" stop-color="#ed9c66"/><stop offset=".185" stop-color="#ec9863"/><stop offset=".409" stop-color="#e88b5e"/><stop offset=".654" stop-color="#e37654"/><stop offset=".911" stop-color="#db5546"/><stop offset="1" stop-color="#d84740"/></linearGradient><path class="st10" d="M336.8 97.8l3.3-13.6-5.3 12.8z"/><linearGradient id="SVGID_8_" gradientUnits="userSpaceOnUse" x1="238.644" y1="923.4" x2="238.529" y2="923.444" gradientTransform="matrix(77.7676 -13.303 -22.5523 -131.8376 2614.225 125008.79)"><stop offset="0" stop-color="#ed9c66"/><stop offset=".185" stop-color="#ec9863"/><stop offset=".409" stop-color="#e88b5e"/><stop offset=".654" stop-color="#e37654"/><stop offset=".911" stop-color="#db5546"/><stop offset="1" stop-color="#d84740"/></linearGradient><path fill="url(#SVGID_8_)" d="M336.8 97.8l3.3-13.6-5.3 12.8z"/><path class="st14" d="M336.8 97.8l3.3-13.6-5.3 12.8z"/><path class="st10" d="M321.9 90.6l18-7.6-12.9-5.1v-.1l-12-4.9 2.8 16.1z"/><linearGradient id="SVGID_9_" gradientUnits="userSpaceOnUse" x1="239.323" y1="922.671" x2="239.429" y2="922.752" gradientTransform="matrix(161.5549 -27.6358 -22.5523 -131.8376 -17538.896 128344.234)"><stop offset="0" stop-color="#33a958"/><stop offset="1" stop-color="#c0cf6e"/></linearGradient><path fill="url(#SVGID_9_)" d="M321.9 90.6l18-7.6-12.9-5.1v-.1l-12-4.9 2.8 16.1z"/><path class="st10" d="M339.9 83h-.1L327 77.9v-.1.1z"/><linearGradient id="SVGID_10_" gradientUnits="userSpaceOnUse" x1="238.966" y1="921.353" x2="238.876" y2="921.454" gradientTransform="matrix(132.2331 -22.62 -13.2188 -77.2751 -19082.894 76685.078)"><stop offset="0" stop-color="#83c7ed"/><stop offset="1" stop-color="#008fce"/></linearGradient><path fill="url(#SVGID_10_)" d="M339.9 83h-.1L327 77.9v-.1.1z"/><linearGradient id="SVGID_11_" gradientUnits="userSpaceOnUse" x1="239.348" y1="922.638" x2="239.454" y2="922.72" gradientTransform="matrix(161.5549 -27.6358 -22.5523 -131.8376 -17538.896 128344.234)"><stop offset="0" stop-color="#33a958"/><stop offset="1" stop-color="#c0cf6e"/></linearGradient><path fill="url(#SVGID_11_)" d="M339.9 83h-.1L327 77.9v-.1.1z"/><path class="st10" d="M327 77.9l12.8 5.1-12.8-5.2z"/><linearGradient id="SVGID_12_" gradientUnits="userSpaceOnUse" x1="238.966" y1="921.353" x2="238.876" y2="921.454" gradientTransform="matrix(132.2331 -22.62 -13.2188 -77.2751 -19082.894 76685.078)"><stop offset="0" stop-color="#83c7ed"/><stop offset="1" stop-color="#008fce"/></linearGradient><path fill="url(#SVGID_12_)" d="M327 77.9l12.8 5.1-12.8-5.2z"/><path class="st14" d="M327 77.9l12.8 5.1-12.8-5.2z"/><linearGradient id="SVGID_13_" gradientUnits="userSpaceOnUse" x1="239.348" y1="922.638" x2="239.454" y2="922.72" gradientTransform="matrix(161.5549 -27.6358 -22.5523 -131.8376 -17538.896 128344.234)"><stop offset="0" stop-color="#33a958"/><stop offset="1" stop-color="#c0cf6e"/></linearGradient><path fill="url(#SVGID_13_)" d="M327 77.9l12.8 5.1-12.8-5.2z"/><path class="st10" d="M334.8 97l5.3-12.8-18.1 7.6-4.9 11.7 16.2-2.7 1.5-3.8z"/><linearGradient id="SVGID_14_" gradientUnits="userSpaceOnUse" x1="239.423" y1="922.984" x2="239.499" y2="923.191" gradientTransform="matrix(184.0491 -31.4837 -18.4533 -107.8755 -26709.94 107211.492)"><stop offset="0" stop-color="#33a958"/><stop offset="1" stop-color="#c0cf6e"/></linearGradient><path fill="url(#SVGID_14_)" d="M334.8 97l5.3-12.8-18.1 7.6-4.9 11.7 16.2-2.7 1.5-3.8z"/><linearGradient id="SVGID_15_" gradientUnits="userSpaceOnUse" x1="239.521" y1="923.129" x2="239.541" y2="923.184" gradientTransform="matrix(184.0491 -31.4837 -18.4533 -107.8755 -26709.94 107211.492)"><stop offset="0" stop-color="#33a958"/><stop offset="1" stop-color="#c0cf6e"/></linearGradient><linearGradient id="SVGID_16_" gradientUnits="userSpaceOnUse" x1="238.665" y1="923.454" x2="238.55" y2="923.498" gradientTransform="matrix(77.7676 -13.303 -22.5523 -131.8376 2614.225 125008.79)"><stop offset="0" stop-color="#ed9c66"/><stop offset=".185" stop-color="#ec9863"/><stop offset=".409" stop-color="#e88b5e"/><stop offset=".654" stop-color="#e37654"/><stop offset=".911" stop-color="#db5546"/><stop offset="1" stop-color="#d84740"/></linearGradient><linearGradient id="SVGID_17_" gradientUnits="userSpaceOnUse" x1="239.462" y1="922.97" x2="239.538" y2="923.176" gradientTransform="matrix(184.0491 -31.4837 -18.4533 -107.8755 -26709.94 107211.492)"><stop offset="0" stop-color="#33a958"/><stop offset="1" stop-color="#c0cf6e"/></linearGradient><linearGradient id="SVGID_18_" gradientUnits="userSpaceOnUse" x1="238.623" y1="923.346" x2="238.508" y2="923.39" gradientTransform="matrix(77.7676 -13.303 -22.5523 -131.8376 2614.225 125008.79)"><stop offset="0" stop-color="#ed9c66"/><stop offset=".185" stop-color="#ec9863"/><stop offset=".409" stop-color="#e88b5e"/><stop offset=".654" stop-color="#e37654"/><stop offset=".911" stop-color="#db5546"/><stop offset="1" stop-color="#d84740"/></linearGradient><linearGradient id="SVGID_19_" gradientUnits="userSpaceOnUse" x1="239.462" y1="922.97" x2="239.537" y2="923.177" gradientTransform="matrix(184.0491 -31.4837 -18.4533 -107.8755 -26709.94 107211.492)"><stop offset="0" stop-color="#33a958"/><stop offset="1" stop-color="#c0cf6e"/></linearGradient><path class="st10" d="M334.8 97l5.3-12.8-5.3 12.8z"/><path class="st14" d="M334.8 97l5.3-12.8-5.3 12.8z"/><linearGradient id="SVGID_20_" gradientUnits="userSpaceOnUse" x1="239.462" y1="922.97" x2="239.538" y2="923.177" gradientTransform="matrix(184.0491 -31.4837 -18.4533 -107.8755 -26709.94 107211.492)"><stop offset="0" stop-color="#33a958"/><stop offset="1" stop-color="#c0cf6e"/></linearGradient><path fill="url(#SVGID_20_)" d="M334.8 97l5.3-12.8-5.3 12.8z"/><path class="st10" d="M340.1 84.2L334.8 97l5.3-12.8z"/><linearGradient id="SVGID_21_" gradientUnits="userSpaceOnUse" x1="238.644" y1="923.4" x2="238.529" y2="923.444" gradientTransform="matrix(77.7676 -13.303 -22.5523 -131.8376 2614.225 125008.79)"><stop offset="0" stop-color="#ed9c66"/><stop offset=".185" stop-color="#ec9863"/><stop offset=".409" stop-color="#e88b5e"/><stop offset=".654" stop-color="#e37654"/><stop offset=".911" stop-color="#db5546"/><stop offset="1" stop-color="#d84740"/></linearGradient><path fill="url(#SVGID_21_)" d="M340.1 84.2L334.8 97l5.3-12.8z"/><path class="st14" d="M340.1 84.2L334.8 97l5.3-12.8z"/><linearGradient id="SVGID_22_" gradientUnits="userSpaceOnUse" x1="239.462" y1="922.97" x2="239.538" y2="923.177" gradientTransform="matrix(184.0491 -31.4837 -18.4533 -107.8755 -26709.94 107211.492)"><stop offset="0" stop-color="#33a958"/><stop offset="1" stop-color="#c0cf6e"/></linearGradient><path fill="url(#SVGID_22_)" d="M340.1 84.2L334.8 97l5.3-12.8z"/><path d="M344.2 107.1l.7-.1 2.4 2.5-1.5 3.3-.7.1.2 1.1 2.9-.5-.2-1.1-.8.1.8-1.8c.1-.2.1-.4.2-.4l.3.3 1.4 1.5-.8.1.2 1.1 3-.5-.2-1.1-.7.1-2.5-2.5 1.5-3.3.7-.1-.2-1.1-2.9.5.2 1.1.8-.1-.8 1.8-.2.4-.3-.3-1.4-1.5.8-.1-.2-1.1-3 .5.3 1.1zm-3.6-.4c-.5-.1-1 0-1.7.1l-3.4.6.2 1.1.9-.2 1 5.7-.9.2.2 1.1 3.4-.6c.7-.1 1.2-.3 1.7-.5 1.4-.8 2.1-2.3 1.8-4.2-.4-1.9-1.6-3.1-3.2-3.3zm.6 6.5c-.4.2-.8.3-1.3.4l-1 .2-1-5.6 1-.2c.5-.1.8-.1 1.3 0 1 .2 1.7 1 2 2.4.3 1.2-.1 2.2-1 2.8zm-10.6-5.1c-2.3.4-3.8 2.5-3.4 4.7.4 2.3 2.5 3.9 4.8 3.5 2.3-.4 3.8-2.5 3.4-4.9-.4-2.2-2.5-3.7-4.8-3.3zm1.2 6.9c-1.4.2-2.8-.8-3.1-2.4-.3-1.6.7-3 2.1-3.2 1.4-.2 2.8.8 3.1 2.3.3 1.6-.7 3.1-2.1 3.3zm-5.6 1l-1.4-5.7.9-.2-.2-1.1-2.6.4-1 4.8c-.1.4-.1.7-.1.7s-.1-.3-.3-.6l-2.5-4.2-2.6.4.2 1.1 1-.2.5 5.8-.9.2.2 1.1 3.3-.6-.2-1.1-.9.2-.4-4c0-.3-.2-.7-.2-.7s.2.4.3.7l2.1 3.4 1.3-.2.9-3.9c.1-.3.1-.7.1-.7s0 .5.1.7l1 3.9-.9.2.2 1.1 3.2-.6-.2-1.1-.9.2z"/><path class="st34" d="M11.1 181.8c-.3-.2-.7-.3-.9-.5v.9c.3-.1.6-.3.9-.4z"/><path class="st10" d="M363.8 74l-7.7 18.2c-.2.5 0 1.1.6 1.4l12.9 5.4c.5.2.8.8.6 1.4l-.3.7c-.2.5 0 1.1.6 1.4l12 5c.5.2 1.1 0 1.4-.6l.3-.7c.2-.5.8-.8 1.4-.6l14.6 6.2v-1.7l-16.2-6.8-1.2 2.9-11.6-4.9 1.2-2.9-14.5-6.1 7.3-17.4L400 89.7v-1.6l-34.8-14.7c-.6-.2-1.2.1-1.4.6z"/><path class="st35" d="M357.8 92.4l14.5 6.1-1.2 2.9 11.6 4.9 1.2-2.9 16.2 6.8v-3.4l-.5-.2.5-1.1v-8.1l-3.4 8-5.8-2.4 4.9-11.6 4.3 1.8v-3.4l-35-14.8-7.3 17.4zm35-2.3l-4.9 11.6-5.8-2.4-1.2 2.9-5.8-2.4 6.1-14.5 11.6 4.8zM378.4 84l-4.9 11.6-2.9-1.2 3.7-8.7-2.9-1.2-3.7 8.7-5.8-2.4 4.9-11.6 11.6 4.8z"/><path transform="rotate(-67.114 386.045 94.064)" class="st35" d="M382.9 92.5h6.3v3.1h-6.3z"/><path class="st0" d="M367.7 93.1l3.7-8.6 2.8 1.2-3.6 8.7 2.9 1.2 4.9-11.6-11.6-4.9-4.9 11.6zm13.2 9l1.2-2.9 5.8 2.4 4.9-11.6-11.6-4.9-6.1 14.5 5.8 2.5zm4.9-11.5l2.9 1.2-2.4 5.8-2.9-1.2 2.4-5.8zm5 12.3l5.8 2.5 3.4-8v-4.3l-4.3-1.8zm9.2 3.9v-1.3l-.5 1.1z"/><path d="M4.6 26.3H53L35.4 24l3.1-24h-.7l-1.5 17.5zm185.5 0V26h-44v-.1h-20.5v.1H70.7V0h-6.8l-3.4 26.3z" fill="#006172"/><path d="M190.1 26v.3h9.7l-.1-.3zm10.5-3.4c1-.3 1.6-1.2 1.3-2l-1.1-3.3c-.4-1.1.9-2.2 2.3-2.1l6.3.7V0H200v23c.1-.2.3-.3.6-.4z" fill="#007f99"/><path fill="#f3ca32" d="M36.3 17.5L37.8 0h-9.5l-.9 10L0 17.6v8.7h4.6z"/><path fill="#fada44" d="M28.3 0H10.8L0 3v14.6L27.4 10z"/><path class="st0" d="M0 0v3l10.8-3z"/><path d="M190.1 26h9.7l-.5-1.4c-.2-.6.1-1.2.7-1.6V0h-19.2v26h9.3z" fill="#9ec9ed"/><path fill="#f6a11d" d="M160.5 0h20.2v26h-20.2z"/><path d="M125.6 26V0h-5.1v20.5c-1.2.8-2.5.8-3.7 0V0h-3.5v20.1c-1.3.8-2.5.8-3.8 0V0H105v26h20.6z" fill="#434b9a"/><path d="M53 26.3h7.5L63.9 0H38.5l-3.1 24L53 26.3zm6.2-7.4l-.7 5.2c-7.3.6-14.2-.2-20.6-2.7l.7-5.2c6.6 2.4 13.5 3.2 20.6 2.7z" fill="#349a37"/><path fill="#dec328" d="M125.6 0h20.5v25.9h-20.5z"/><path d="M105 26V0h-8.4c.3.5.4 1 .4 1.7V4c0 .1-.1.2-.3.2l-1.2-.3-1.2-.3c-.1 0-.2-.2-.2-.3v-.9c0-.9-1.6-1.4-1.6-1.4-.1 0-.4-.1-.5-.1L90.2.5 88.4.1h-.3L88 0H70.7v26H105zM97 1.7zm-7.8 16.2l.2-.2.1-.1.2-.2.1-.1c.1-.1.1-.2.2-.2l.2-.2s0-.1.1-.1c0-.1.1-.1.1-.2 0 0 0-.1.1-.1 0-.1.1-.1.1-.2v-.1c0-.1.1-.1.1-.2 0 0 0-.1.1-.1.1-.1.1-.2.2-.3v-.1c0-.1.1-.1.1-.2 0 0 0-.1.1-.1 0-.1.1-.1.1-.2v-.1c0-.1.1-.2.1-.2v-.1c0-.1.1-.2.1-.3v-.1c0-.1.1-.2.1-.3 0-.1.1-.2.1-.3v-.1c0-.1.1-.2.1-.3.6-2.7.1-5.7-2.1-7.3 0 0 5.2 1.9 4 8.6 0 .1-.1.2-.1.3v.1c0 .1-.1.2-.1.3 0 .1-.1.2-.1.3v.1c0 .1-.1.2-.1.3v.1c0 .1-.1.2-.1.2v.1c0 .1-.1.1-.1.2 0 0 0 .1-.1.1 0 .1-.1.1-.1.2v.1c-.1.1-.1.2-.2.3 0 0 0 .1-.1.1 0 .1-.1.1-.1.2v.1c0 .1-.1.1-.1.2 0 0 0 .1-.1.1 0 .1-.1.1-.1.2 0 0 0 .1-.1.1l-.2.2-.2.2-.1.1-.2.2-.1.1-.2.2c-.1.1-.2.1-.2.2l-.1.1c-.1 0-.1.1-.2.1l-.1.1-.2.2c-.1.1-.2.1-.2.2 0 0-.1 0-.1.1-.1 0-.1.1-.2.1 0 0-.1 0-.1.1-.1 0-.1.1-.2.1 0 0-.1 0-.1.1h-.2s-.1.1-.2.1c-2.1 1.1-4.7 1.2-6.7-.2l-1.4-1.1c2.4 1.2 5.2.7 7.3-.9.1-.1.2-.1.2-.2l.1-.1c.1 0 .1-.1.2-.1l.1-.1c.2.1.3 0 .4-.1 0 .1 0 .1 0 0zm-3.3-12s4 1.2 3.1 6.4c0 .1-.1.2-.1.3v.1c0 .1 0 .1-.1.2v.1c0 .1-.1.1-.1.2v.1c0 .1-.1.2-.1.3 0 0 0 .1-.1.1v.1c0 .1-.1.1-.1.2s-.1.1-.1.2v.1l-.1.1c-.1.1-.1.2-.2.3v.1c-.1.1-.1.2-.2.3-.1.1-.1.2-.2.2l-.1.1-.2.2c-.2.2-.4.4-.6.5-.2.2-.5.3-.7.4-1.5.8-3.5.8-4.9-.2l-1.2-.8c1.1.7 2.5.7 3.7.4 1.2-.4 2.2-1.1 3-2.1v-.1c.1-.1.1-.2.2-.3l.1-.1v-.1c0-.1.1-.1.1-.2s.1-.1.1-.2v-.1s0-.1.1-.1c0-.1.1-.2.1-.3v-.1c0-.1.1-.1.1-.2v-.1c0-.1 0-.1.1-.2v-.1c0-.1.1-.2.1-.3.5-2.3-.2-4.4-1.7-5.4zm-2.8 5c.2-.2.3-.5.4-.7.1-.1.1-.3.2-.4 0-.1.1-.2.1-.3.4-1.4.1-2.5-.8-3.2.3.2 2.3 1 1.8 3.8 0 .1 0 .1-.1.2v.2c-.4 1-1.2 1.9-2.2 2.4-1 .4-2 .4-2.9-.2l-.6-.4c1.4.7 3.2-.1 4.1-1.4z" fill="#ebeff7"/><path fill="#c43a17" d="M146.1 26h14.4V0h-14.4v25.9z"/><path d="M113.3 20.1V0h-3.8v20.1c1.3.8 2.5.8 3.8 0z" fill="#7c83b7"/><path d="M120.5 20.5V0h-3.7v20.5c1.2.8 2.5.8 3.7 0z" fill="#9294c9"/><path d="M58.6 24.2l.7-5.2c-7.2.5-14.1-.4-20.6-2.7l-.7 5.2c6.4 2.5 13.3 3.3 20.6 2.7z" fill="#377630"/><path class="st5" d="M232 37V20.9l-20 19.9c-1 1-2.7.9-3.1-.2l-1.1-3.3c-.3-.7-1.3-1.1-2.2-.7-1 .3-2 0-2.2-.7l-3.4-9.7H0V49h220c6.6 0 12-5.4 12-12zm-.6-18.5c.2 0 .4.1.6.2V0h-22.7v16l22.1 2.5z"/><path class="st50" d="M88.2.1h.2c-.1 0-.2-.1-.3-.1l.1.1zM97 4V1.7 4z"/><path class="st50" d="M88 0c.1 0 .2.1.3.1h.1l1.8.4 1.8.4c.1 0 .4.1.5.1 0 0 1.6.5 1.6 1.4v.9c0 .1.1.3.2.3l1.2.3 1.2.3c.2.1.3 0 .3-.2V1.7c0-.7-.1-1.2-.4-1.7h-8.8.2c-.1 0 0 0 0 0z"/><path class="st51" d="M88.9 18.2c-.1 0-.1.1-.2.1l-.1.1-.2.2c-2.1 1.5-5 2.1-7.3.9l1.4 1.1c2 1.4 4.6 1.2 6.7.2.1 0 .1-.1.2-.1h.2s.1 0 .1-.1c.1 0 .1-.1.2-.1 0 0 .1 0 .1-.1.1 0 .1-.1.2-.1 0 0 .1 0 .1-.1.1-.1.2-.1.2-.2l.2-.2.1-.1c.1 0 .1-.1.2-.1l.1-.1c.1-.1.2-.1.2-.2l.2-.2.1-.1.2-.2.1-.1.2-.2.2-.2s0-.1.1-.1c0-.1.1-.1.1-.2 0 0 0-.1.1-.1 0-.1.1-.1.1-.2v-.1c0-.1.1-.1.1-.2 0 0 0-.1.1-.1.1-.1.1-.2.2-.3v-.1c0-.1.1-.1.1-.2 0 0 0-.1.1-.1 0-.1.1-.1.1-.2v-.1c0-.1.1-.2.1-.2V16c0-.1.1-.2.1-.3v-.1c0-.1.1-.2.1-.3 0-.1.1-.2.1-.3v-.1c0-.1.1-.2.1-.3 1.2-6.7-4-8.6-4-8.6 2.1 1.6 2.7 4.5 2.1 7.3 0 .1-.1.2-.1.3v.1c0 .1-.1.2-.1.3 0 .1-.1.2-.1.3v.1c0 .1-.1.2-.1.3v.1c0 .1-.1.2-.1.2v.1c0 .1-.1.1-.1.2 0 0 0 .1-.1.1 0 .1-.1.1-.1.2v.1c-.1.1-.1.2-.2.3 0 0 0 .1-.1.1 0 .1-.1.1-.1.2v.1c0 .1-.1.1-.1.2 0 0 0 .1-.1.1 0 .1-.1.1-.1.2 0 0 0 .1-.1.1l-.2.2c-.1.1-.1.2-.2.2l-.1.1-.2.2-.1.1-.2.2c-.3 0-.4.1-.5.2z"/><path class="st51" d="M87.5 11.5c0 .1 0 .1 0 0-.1.2-.1.2-.1.3v.1c0 .1-.1.1-.1.2v.1c0 .1-.1.2-.1.3 0 0 0 .1-.1.1v.1c0 .1-.1.1-.1.2s-.1.1-.1.2v.1l-.1.1c-.1.1-.1.2-.2.3v.1c-.8 1-1.8 1.7-3 2.1-1.2.4-2.6.3-3.7-.4l1.2.8c1.4 1 3.4.9 4.9.2.3-.1.5-.3.7-.4.2-.2.5-.3.6-.5.1-.1.2-.1.2-.2l.1-.1c.1-.1.1-.2.2-.2.1-.1.2-.2.2-.3v-.1c.1-.1.1-.2.2-.3l.1-.1v-.1c0-.1.1-.1.1-.2s.1-.1.1-.2v-.1s0-.1.1-.1c0-.1.1-.2.1-.3v-.1c0-.1.1-.1.1-.2v-.1c0-.1 0-.1.1-.2v-.1c0-.1.1-.2.1-.3.9-5.2-3.1-6.4-3.1-6.4 1.6 1.1 2.3 3.2 1.7 5.4-.1.2-.1.2-.1.3z"/><path class="st51" d="M79.5 12.6c.9.6 1.9.6 2.9.2 1-.4 1.8-1.3 2.2-2.4v-.2c0-.1 0-.1.1-.2.6-2.9-1.5-3.6-1.8-3.8 1 .7 1.2 1.8.9 3.2 0 .1-.1.2-.1.3 0 .1-.1.3-.2.4-.1.2-.3.5-.4.7-1 1.3-2.8 2-4.2 1.2l.6.6z"/><path d="M209.3 16l-6.3-.7c-1.4-.2-2.7 1-2.3 2.1l1.1 3.3c.3.7-.3 1.6-1.3 2l-.6.3c-.6.4-.9 1.1-.7 1.6l.5 1.4.1.3 3.4 9.7c.3.7 1.3 1.1 2.2.7 1-.3 2 0 2.2.7l1.1 3.3c.4 1.1 2.1 1.2 3.1.2l20-19.9.2-.2c.8-.8.6-1.7-.2-2.1-.2-.1-.3-.1-.6-.2L209.3 16zm20.5 5.4l-15.9 16.5c-.8.8-2.2.7-2.5-.2l-1-2.7c-.2-.6-1-.9-1.8-.6-.8.3-1.6 0-1.8-.6l-3.3-9.5c-.2-.6.2-1.3 1-1.6.8-.3 1.2-1 1-1.6l-1-2.7c-.3-.9.7-1.8 1.8-1.7l22.7 3c1.1-.1 1.5.9.8 1.7z" fill="#71b73a"/><path d="M229.1 19.5l-22.7-3c-1.1-.1-2.1.8-1.8 1.7l1 2.7c.2.6-.2 1.3-1 1.6-.8.3-1.2 1-1 1.6l3.3 9.5c.2.6 1 .9 1.8.6.8-.3 1.6 0 1.8.6l1 2.7c.3.9 1.7 1 2.5.2l15.9-16.5c.6-.6.2-1.6-.8-1.7z" fill="#81bb27"/><g id="drawing_3_"><path d="M189.5 248.6c39.7 15.6 75.8 31.6 92.7 49.8 15.7-26.2 72.7-62.8 117.8-96.5v-2.6l-78.5-15.8c-15.5-3.1-31.5-.1-44.8 8.5l-87.2 56.6z" fill="#e2e2e2"/><path d="M195.7 257.5s64.1 9.7 98.4 32.4c39.7-40 83.7-86.2 103.9-96.9-32.2-6.4-64.5-13.2-94.8-14.4l-107.5 78.9z" fill="#d8d8d8"/><path d="M327.8 175.1c-20.4 1.7-121 51.6-138.4 60-1.1.5-1.2 2.1-.1 2.7 15.5 9.1 64.4 47.3 68.8 65.2.3 1.1 1.5 1.5 2.4.9 44.2-32.9 93.5-65.8 139.5-88V207c-22.2-10.8-44-23.3-72.2-31.9z" fill="#eeeded"/><path d="M209.9 242.9c-1.8-.9-3.1-2.7-5-3.4m26.5 3.5c5.3 1.7 10.8 4.1 13.8 9.3.1.2.2.3.4.4 1 .7 4.9 3.8 5.8 5.7 1 2-1.2 3.1 1.3 3.5.5.1.9.4 1.2.8 1 1.9 2.4 4.1 3.8 5.6 0 .1.1.1.2.1 2.9 2.5 5.7 5.1 9.4 7.6.1.1-1.1.7.2.2 1.2-.4 1.9 5.3 3.3 6.6m-58.1-50c2.6 1.6 4.3 4 7.3 4.9m36.2 10.9c-.9-.8-.3-3.2-.9-4.3-.1-.2-.3-.3-.5-.4-6.1-3.3-10-9.1-16-12.4-.4-.2-.8-.2-1.3-.1-4.8 1.5-6-2.8-9.1-5.7m51.7 50c-1-3.4-2.8-5.9-6.1-8.4-.4-.3-.6-.7-.6-1.2s0-1-.1-1.6c0-.3-.1-.5-.2-.8-1-1.4-2.7-1.4-4-2.4-.4-1.7.8.4 0 0-.4-1.7-1-2.8-2.3-3.9-1.5-1.2-2.6-1.1-3.2-3.4m55.2-16l-14.5 12.8c-.6.6-1.6.5-2.2-.2l-2.9-2.9c-.5-.6-.5-1.6.2-2.2l14.5-12.8c.6-.6 1.6-.5 2.2.2l2.9 2.9c.5.7.4 1.7-.2 2.2zm-12.1-11.4l-20.2 16.1c-.6.5-1.6.4-2.1-.2l-3.2-3.5c-.6-.7-.5-1.7.2-2.2l20.2-16.1c.6-.5 1.6-.4 2.1.2l3.2 3.5c.5.6.5 1.6-.2 2.2zm-10-11.8l-8.1 6.3c-.6.5-1.5.4-2.1-.2l-2.4-2.5c-.6-.7-.5-1.7.2-2.3l8.1-6.3c.6-.5 1.5-.4 2.1.2l2.4 2.5c.6.7.6 1.7-.2 2.3zm10.2-10.1c-2.1 0-4.7-3.8-6.1-5.1-1.4-1.3-4.8-2.6-6.7-2.2m41.5 33.6c-2.9-3.7-6.2-6.8-10.4-9.8-1-.7-3.8-3.5-5-5.1-1.7-2.3-5.5-5-8.8-8.6m22.7-2.4c-.1-2.6-2.8-2.5-4.6-3.3-2.3-1-2.8-3.5-4.3-5.4-1.5-1.8-3.6-2-5.2-3.6-.9-.8-4-3.6-5.3-3.1m28.7 34.1c-.2-4.1-4.7-3.4-6.9-6.2m19.6 1.6s-6.4-2.9-6.9-4.9c-.5-2-4.1-4.1-6.3-5.4m-17.6-24.1s8.2 2.6 7.7 3.6c-.5 1 3.6 4.1 5.9 4.3 2.4.2 8.9 1.5 9.3 2.9.3 1.4 3.4 4 5.2 5s8.3-.1 8.9 3.4 1.2 6.1 5.6 6.3c4.4.2 7.1.4 7.7 1.6" fill="none" stroke="#262626" stroke-width="3" stroke-linecap="round" stroke-miterlimit="10"/></g><g id="y_x5F_book_1_"><path class="st34" d="M147.3 231.9H20.4c-8.5 2.4-8.5 23 0 26.6h126.9l70.1-82.2c-3.6-1.2-3.6-18.1 0-23l-70.1 78.6z"/><path class="st58" d="M146.1 233.2l-124.7-.3c-8.2 2.2-8.2 21.1 0 24.4h124.7l70.1-80.9c-3.5-1.1-3.5-17.3 0-21.7l-70.1 78.5z"/><path fill="#e6e139" d="M147.3 231.9l70.1-78.5h-97.9l-99.1 78.5z"/><path d="M147 230.1l64.7-72.5c1-1.2.2-3-1.4-3h-90.1c-.4 0-.8.1-1.1.4l-91.4 72.5c-1.4 1.1-.6 3.3 1.1 3.3h116.9c.4-.1.9-.3 1.3-.7z" fill="#e0d515"/><path class="st61" d="M22.9 233.8l123.2.4 70.7-79"/><path class="st61" d="M18 236.2h128.3l69.3-77.3"/><path class="st61" d="M16.8 238.6h129.5l69.3-77.3"/><path class="st61" d="M16.8 239.8h130.7l68.8-77"/><path class="st61" d="M15.6 242.2h131.9l68.8-77"/><path class="st61" d="M15.6 244.6h131.9l68.8-76.9"/><path class="st61" d="M15.6 247h131.9l68.8-76.9"/><path class="st61" d="M16.8 248.3h130.7l68.8-77"/><path class="st61" d="M16.8 249.5h129.5l68.8-77"/><path class="st61" d="M18 251.9h128.3l70.5-78.6"/><path class="st61" d="M18 253.1h128.3l70.5-78.5"/><path class="st61" d="M19.2 255.5h127.1l70.5-79.7"/></g><g id="r_x5F_book_1_"><path class="st34" d="M147.8 202.5L21 199.4c-8.5 2.2-9 22.7-.7 26.6l126.8 3.2 72.1-80.4c-3.6-1.3-3.2-18.2.6-22.9l-72 76.6z"/><path class="st58" d="M146.6 203.7L22 200.3c-8.2 2-8.7 20.9-.6 24.4l124.6 3.1 72.1-79.2c-3.5-1.2-3.1-17.4.5-21.7l-72 76.8z"/><path fill="#e87d2e" d="M147.8 202.5l72.1-76.7-97.9-2.5-101 76.1z"/><path d="M147.6 200.7l66.5-70.8c1.1-1.1.3-3-1.3-3.1l-90.1-2.3c-.4 0-.8.1-1.1.4l-93.2 70.2c-1.4 1-.7 3.2 1.1 3.3l116.9 2.9c.3 0 .8-.2 1.2-.6z" fill="#dc5518"/><path class="st61" d="M23.4 201.2l123.2 3.6 72.6-77.2"/><path class="st61" d="M18.5 203.5l128.3 3.2 71.1-75.5"/><path class="st61" d="M17.2 205.9l129.5 3.2 71.2-75.5"/><path class="st61" d="M17.2 207.1l130.7 3.3 70.7-75.2"/><path class="st61" d="M15.9 209.5l131.9 3.3 70.7-75.2"/><path class="st61" d="M15.9 211.9l131.9 3.3 70.6-75.2"/><path class="st61" d="M15.8 214.3l131.9 3.3 70.7-75.2"/><path class="st61" d="M17 215.6l130.7 3.2 70.7-75.2"/><path class="st61" d="M17 216.8l129.4 3.2 70.7-75.2"/><path class="st61" d="M18.1 219.2l128.3 3.2 72.4-76.7"/><path class="st61" d="M18.1 220.4l128.3 3.2 72.3-76.7"/><path class="st61" d="M19.2 222.9l127.1 3.2 72.4-78"/></g><g id="g_x5F_book_1_"><path class="st34" d="M206.5 102.7l-70.1 78.5H9.6c-.1 0-.1.1-.2.1v26.4c.1 0 .1.1.2.1h126.9l70.1-82.2c-3.7-1.2-3.7-18.1-.1-22.9z"/><path class="st58" d="M205.3 103.9l-70.1 78.5-124.7-.3c-.4.1-.8.3-1.2.5-2.9 7.4-3.3 15.1 0 23.3.4.3.8.5 1.2.7h124.7l70.1-80.9c-3.5-1.2-3.5-17.4 0-21.8z"/><path fill="#69b42e" d="M136.4 181.2l70.1-78.5h-97.9l-99 78.5z"/><path class="st61" d="M12 183l123.2.5 70.7-79"/><path class="st61" d="M9.5 185.4c42.3-3 84.6 1.8 126.9-.6 16.9-20.5 35-38.7 52-59.2 3.6-4.8 8.5-7.2 12.1-12.1 1.2-2.4 3.6-3.6 4.2-5.4"/><path class="st61" d="M9.6 187.8c42.3-3 84.6 1.8 126.9-.6 19.3-20.5 37.5-41.1 56.8-62.8 3.6-4.8 9.7-8.5 11.5-13.9"/><path class="st61" d="M9.5 189.1c42.3-3 85.8 1.8 128.1-.6 19.3-23 39.9-43.5 59.2-67.7 2.4-2.4 6-4.8 8.6-8.7"/><path class="st61" d="M9.6 191.5c42.3-3 85.8 1.8 128.1-.6 21.7-25.4 44.7-50.7 67.8-76.4"/><path class="st61" d="M9.6 193.9c42.3-3 85.8 1.8 128.1-.6 21.7-25.4 44.7-50.7 67.8-76.4"/><path class="st61" d="M9.6 196.3c42.3-3 85.8 1.8 128.1-.6 21.7-25.4 44.7-50.7 67.8-76.4"/><path class="st61" d="M9.5 197.5c42.3-3 85.8 1.8 128.1-.6 19.3-23 39.9-43.5 59.2-67.7 2.4-2.4 6-4.8 8.6-8.7"/><path class="st61" d="M9.6 198.7c42.3-3 84.6 1.8 126.9-.6 21.7-25.4 44.7-50.7 67.8-76.4"/><path class="st61" d="M9.5 201.1h107.4c5.5 0 11.3.6 16.7 0 2.5-.3 2.8-1.1 4.7-3.3 12-13.4 24.1-26.8 36.1-40.2 10.3-11.5 20.6-23 30.9-34.4.2-.2.3-.4.5-.6"/><path class="st61" d="M9.5 202.3h107.4c5.5 0 11.3.6 16.7 0 2.5-.3 2.8-1.1 4.7-3.3 12-13.4 24.1-26.8 36.1-40.2 10.3-11.5 20.6-23 30.9-34.4.2-.2.3-.4.5-.6"/><path class="st61" d="M9.6 204.8c42.3-3 84.6 1.8 126.9-.6 20.5-25.4 42.3-48.3 65.2-73.7 1.2-2.4 3.6-3.6 4.2-5.4"/><path d="M125.1 184.5c11.3.4 16.6 1.5 23.1-7.7l53.2-72.2c1.1-1.3.2-3.3-1.5-3.3h-80.2c-13.4 0-26.3 4.5-36.8 12.8-22.7 18-63.9 53.4-73.5 61.3-5.6 4.6.4 8.1 7.7 8.2 27.5.4 80.5-.1 108 .9z" fill="#63b22f"/><path d="M58.2 172.3h47.7c.6 0 .9.7.5 1.2v.1c-.9 1-2.2 1.7-3.5 1.7H54.6c-.7 0-1-1-.3-1.3l1.7-.9c.6-.6 1.4-.8 2.2-.8zm71.6-65.3h33.9c.4 0 .7.7.4 1.2v.1c-.6 1-1.5 1.6-2.5 1.6h-34.3c-.5 0-.7-1-.2-1.3l1.2-.9c.4-.4 1-.7 1.5-.7z" fill="#262626"/><path class="st67" d="M87.2 165h47.7c.6 0 .9.7.5 1.2v.1c-.9 1-2.2 1.6-3.5 1.6H83.6c-.7 0-1-1-.3-1.3l1.7-.9c.6-.5 1.4-.7 2.2-.7zm-47.8 0h40.8c.5 0 .8.7.5 1.2v.1c-.8 1-1.9 1.7-3 1.7H36.3c-.6 0-.8-1-.3-1.3l1.4-.9c.7-.6 1.4-.8 2-.8z"/></g><g id="the_book_sideways_1_"><path class="st58" d="M216.8 253.5c-5.3 6.4-12 10.9-19.6 10.6l-71-123.6c3.4-7 11-11.4 15.6-12.3l71-46.1c10.4-6.8 8.3-6 13.2-5.2l-81.1 51.2 71.9 125.4z"/><path class="st61" d="M214.9 253.7l-71.8-125.9m68.4 130.1l-74-127.1m74.9 125.1L139 130.3M213.8 255l-73.5-125.6m74.9 124.7l-73.4-125.9m68.9 130.5l-75.1-127.2m73.3 128.2l-75.3-127.2m73.6 128.2L132 133.3m74 127.1l-75.5-126.1m74.1 127.1L129 135.2M202 262l-74.2-125.5m71.5 126.2l-72.1-123.9"/><path d="M149.6 120.4L219 76.6c5.4-3.4 12.5-1.5 15.5 4l52.8 95.9c3 5.5 2 12.3-2.6 16.6l-60.3 57.5c-5.2 4.9-13.6 3.7-17.2-2.5l-62.4-109.3c-3.5-6.3-1.5-14.5 4.8-18.4z" fill="#f2a50a"/><path class="st67" d="M212.3 207.7l-20.8-35.6c-.4-.6-1.2-.8-1.8-.4l-1.1.7c-.6.4-.8 1.1-.4 1.7l20.8 35.6c.4.6 1.2.8 1.8.4l1.1-.7c.6-.3.8-1.1.4-1.7zm51.3-51.4l-21.7-37.1c-.4-.7-1.2-.9-1.9-.4l-1.2.8c-.6.4-.8 1.2-.4 1.8l21.7 37.1c.4.7 1.2.9 1.9.4l1.2-.8c.6-.4.7-1.2.4-1.8zm-75.7 11.2L177 147.4c-.4-.7-1.2-.9-1.9-.5l-1.1.7c-.6.4-.8 1.1-.4 1.7l10.9 20.2c.4.7 1.2.9 1.9.5l1.1-.7c.6-.4.8-1.2.4-1.8z"/></g><path class="st7" d="M387.5 224.5h-12.3c-1.8 0-3.2 1.4-3.2 3.2 9.3.3 18.7.6 28.1.8v-4.1h-12.6z"/><path d="M371.9 227.8c0 .8.3 1.6.8 2.1.6.7 1.4 1.1 2.4 1.1H400v-2.4c-9.4-.2-18.8-.5-28.1-.8z" fill="#efefef"/><path class="st7" d="M387.5 224.5c0-.8-.6-1.4-1.4-1.4h-8.2c-.8 0-1.4.6-1.4 1.4h11zm3.8 0h8.7v-1.4h-7.3c-.8 0-1.4.7-1.4 1.4z"/></svg>