<svg xmlns="http://www.w3.org/2000/svg" viewBox="0 0 400 400"><path fill="#FFF" d="M0 0h400v400H0z"/><path fill="#FAFAFA" d="M353.3 400H0V21.4h323c16.8 0 30.3 13.6 30.3 30.3V400z"/><path fill="#090A0A" d="M0 384.7V21.4h334.2c10.6 0 19.2 8.6 19.2 19.2v344.2H0v-.1z"/><path fill="#232A3C" d="M.1 36.9h333.6v332.3H.1z"/><path fill="#343749" d="M118 38.7H80.6c-2.2 0-4 1.8-4 4v7.2H122v-7.2c0-2.2-1.8-4-4-4z"/><path fill="#304E9D" d="M82.4 49.9h-5.9v-7.2c0-2.2 1.8-4 4-4h1.8l.1 11.2z"/><path fill="#2A2C38" d="M163.5 38.7h-37.4c-2.2 0-4 1.8-4 4v7.2h45.5v-7.2c-.1-2.2-1.9-4-4.1-4z"/><path fill="#2D4D8F" d="M127.9 49.9H122v-7.2c0-2.2 1.8-4 4-4h1.8l.1 11.2z"/><path fill="#2A2C38" d="M209 38.7h-37.4c-2.2 0-4 1.8-4 4v7.2H213v-7.2c0-2.2-1.8-4-4-4z"/><path fill="#2D4D8F" d="M173.4 49.9h-5.9v-7.2c0-2.2 1.8-4 4-4h1.8l.1 11.2z"/><path fill="#343749" d="M318.2 359.2h-249c-2.2 0-4-1.8-4-4V52.3c0-2.2 1.8-4 4-4h249c2.2 0 4 1.8 4 4v302.8c.1 2.3-1.7 4.1-4 4.1z"/><path fill="none" stroke="#304E9D" stroke-miterlimit="10" d="M13.9 61.4h-2.7c-1.6 0-2.9-1.3-2.9-2.9 0-1.6 1.3-2.9 2.9-2.9h2.7c1.6 0 2.9 1.3 2.9 2.9-.1 1.6-1.3 2.9-2.9 2.9z"/><path fill="#FAFAFA" d="M40.5 61.4H24.1c-1.6 0-2.9-1.3-2.9-2.9 0-1.6 1.3-2.9 2.9-2.9h16.4c1.6 0 2.9 1.3 2.9 2.9 0 1.6-1.3 2.9-2.9 2.9zM47 72.9H30.6c-1.6 0-2.9-1.3-2.9-2.9 0-1.6 1.3-2.9 2.9-2.9H47c1.6 0 2.9 1.3 2.9 2.9-.1 1.6-1.4 2.9-2.9 2.9zm0 10.7H30.6c-1.6 0-2.9-1.3-2.9-2.9 0-1.6 1.3-2.9 2.9-2.9H47c1.6 0 2.9 1.3 2.9 2.9-.1 1.6-1.4 2.9-2.9 2.9z"/><path fill="none" stroke="#304E9D" stroke-miterlimit="10" d="M13.9 94.8h-2.7c-1.6 0-2.9-1.3-2.9-2.9 0-1.6 1.3-2.9 2.9-2.9h2.7c1.6 0 2.9 1.3 2.9 2.9-.1 1.7-1.3 2.9-2.9 2.9z"/><path fill="#FAFAFA" d="M46.9 94.8H24.1c-1.6 0-2.9-1.3-2.9-2.9 0-1.6 1.3-2.9 2.9-2.9h22.7c1.6 0 2.9 1.3 2.9 2.9 0 1.7-1.2 2.9-2.8 2.9zm5.3 11.6H30.6c-1.6 0-2.9-1.3-2.9-2.9 0-1.6 1.3-2.9 2.9-2.9h21.7c1.6 0 2.9 1.3 2.9 2.9-.1 1.6-1.4 2.9-3 2.9zm-12 10.7h-9.6c-1.6 0-2.9-1.3-2.9-2.9 0-1.6 1.3-2.9 2.9-2.9h9.6c1.6 0 2.9 1.3 2.9 2.9 0 1.6-1.3 2.9-2.9 2.9z"/><path fill="#304E9D" d="M13.9 129.1h-2.7c-1.6 0-2.9-1.3-2.9-2.9 0-1.6 1.3-2.9 2.9-2.9h2.7c1.6 0 2.9 1.3 2.9 2.9-.1 1.6-1.3 2.9-2.9 2.9z"/><path fill="#FAFAFA" d="M39.6 129.1H24.1c-1.6 0-2.9-1.3-2.9-2.9 0-1.6 1.3-2.9 2.9-2.9h15.4c1.6 0 2.9 1.3 2.9 2.9 0 1.6-1.3 2.9-2.8 2.9z"/><path fill="#484C60" d="M82.4 359.2H68.8c-2 0-3.6-1.6-3.6-3.6V51.9c0-2 1.6-3.6 3.6-3.6h13.6v310.9z"/><path fill="#343749" d="M75.1 61.4h-2.7c-1.6 0-2.9-1.3-2.9-2.9 0-1.6 1.3-2.9 2.9-2.9h2.7c1.6 0 2.9 1.3 2.9 2.9 0 1.6-1.3 2.9-2.9 2.9zm0 11.5h-2.7c-1.6 0-2.9-1.3-2.9-2.9 0-1.6 1.3-2.9 2.9-2.9h2.7c1.6 0 2.9 1.3 2.9 2.9 0 1.6-1.3 2.9-2.9 2.9zm0 10.7h-2.7c-1.6 0-2.9-1.3-2.9-2.9 0-1.6 1.3-2.9 2.9-2.9h2.7c1.6 0 2.9 1.3 2.9 2.9 0 1.6-1.3 2.9-2.9 2.9zm0 11.2h-2.7c-1.6 0-2.9-1.3-2.9-2.9 0-1.6 1.3-2.9 2.9-2.9h2.7c1.6 0 2.9 1.3 2.9 2.9 0 1.7-1.3 2.9-2.9 2.9zm0 11.6h-2.7c-1.6 0-2.9-1.3-2.9-2.9 0-1.6 1.3-2.9 2.9-2.9h2.7c1.6 0 2.9 1.3 2.9 2.9 0 1.6-1.3 2.9-2.9 2.9zm0 10.7h-2.7c-1.6 0-2.9-1.3-2.9-2.9 0-1.6 1.3-2.9 2.9-2.9h2.7c1.6 0 2.9 1.3 2.9 2.9 0 1.6-1.3 2.9-2.9 2.9zm0 12h-2.7c-1.6 0-2.9-1.3-2.9-2.9 0-1.6 1.3-2.9 2.9-2.9h2.7c1.6 0 2.9 1.3 2.9 2.9 0 1.6-1.3 2.9-2.9 2.9zm0 11.5h-2.7c-1.6 0-2.9-1.3-2.9-2.9 0-1.6 1.3-2.9 2.9-2.9h2.7c1.6 0 2.9 1.3 2.9 2.9 0 1.6-1.3 2.9-2.9 2.9zm0 10.7h-2.7c-1.6 0-2.9-1.3-2.9-2.9 0-1.6 1.3-2.9 2.9-2.9h2.7c1.6 0 2.9 1.3 2.9 2.9 0 1.6-1.3 2.9-2.9 2.9zm0 11.2h-2.7c-1.6 0-2.9-1.3-2.9-2.9 0-1.6 1.3-2.9 2.9-2.9h2.7c1.6 0 2.9 1.3 2.9 2.9 0 1.7-1.3 2.9-2.9 2.9zm0 11.6h-2.7c-1.6 0-2.9-1.3-2.9-2.9 0-1.6 1.3-2.9 2.9-2.9h2.7c1.6 0 2.9 1.3 2.9 2.9 0 1.6-1.3 2.9-2.9 2.9zm0 10.7h-2.7c-1.6 0-2.9-1.3-2.9-2.9 0-1.6 1.3-2.9 2.9-2.9h2.7c1.6 0 2.9 1.3 2.9 2.9 0 1.6-1.3 2.9-2.9 2.9zm0 10.5h-2.7c-1.6 0-2.9-1.3-2.9-2.9 0-1.6 1.3-2.9 2.9-2.9h2.7c1.6 0 2.9 1.3 2.9 2.9 0 1.6-1.3 2.9-2.9 2.9zm0 11.6h-2.7c-1.6 0-2.9-1.3-2.9-2.9 0-1.6 1.3-2.9 2.9-2.9h2.7c1.6 0 2.9 1.3 2.9 2.9 0 1.6-1.3 2.9-2.9 2.9zm0 10.6h-2.7c-1.6 0-2.9-1.3-2.9-2.9 0-1.6 1.3-2.9 2.9-2.9h2.7c1.6 0 2.9 1.3 2.9 2.9 0 1.7-1.3 2.9-2.9 2.9zm0 11.3h-2.7c-1.6 0-2.9-1.3-2.9-2.9 0-1.6 1.3-2.9 2.9-2.9h2.7c1.6 0 2.9 1.3 2.9 2.9 0 1.6-1.3 2.9-2.9 2.9zm0 11.5h-2.7c-1.6 0-2.9-1.3-2.9-2.9 0-1.6 1.3-2.9 2.9-2.9h2.7c1.6 0 2.9 1.3 2.9 2.9 0 1.7-1.3 2.9-2.9 2.9zm0 10.7h-2.7c-1.6 0-2.9-1.3-2.9-2.9 0-1.6 1.3-2.9 2.9-2.9h2.7c1.6 0 2.9 1.3 2.9 2.9 0 1.6-1.3 2.9-2.9 2.9zm0 11.1h-2.7c-1.6 0-2.9-1.3-2.9-2.9 0-1.6 1.3-2.9 2.9-2.9h2.7c1.6 0 2.9 1.3 2.9 2.9 0 1.7-1.3 2.9-2.9 2.9zm0 11.6h-2.7c-1.6 0-2.9-1.3-2.9-2.9 0-1.6 1.3-2.9 2.9-2.9h2.7c1.6 0 2.9 1.3 2.9 2.9 0 1.6-1.3 2.9-2.9 2.9zm0 10.6h-2.7c-1.6 0-2.9-1.3-2.9-2.9 0-1.6 1.3-2.9 2.9-2.9h2.7c1.6 0 2.9 1.3 2.9 2.9 0 1.7-1.3 2.9-2.9 2.9zm0 11.3h-2.7c-1.6 0-2.9-1.3-2.9-2.9 0-1.6 1.3-2.9 2.9-2.9h2.7c1.6 0 2.9 1.3 2.9 2.9 0 1.6-1.3 2.9-2.9 2.9zm0 11.5h-2.7c-1.6 0-2.9-1.3-2.9-2.9 0-1.6 1.3-2.9 2.9-2.9h2.7c1.6 0 2.9 1.3 2.9 2.9 0 1.7-1.3 2.9-2.9 2.9zm0 10.7h-2.7c-1.6 0-2.9-1.3-2.9-2.9 0-1.6 1.3-2.9 2.9-2.9h2.7c1.6 0 2.9 1.3 2.9 2.9 0 1.6-1.3 2.9-2.9 2.9zm0 10.5h-2.7c-1.6 0-2.9-1.3-2.9-2.9 0-1.6 1.3-2.9 2.9-2.9h2.7c1.6 0 2.9 1.3 2.9 2.9 0 1.7-1.3 2.9-2.9 2.9zm0 11.6h-2.7c-1.6 0-2.9-1.3-2.9-2.9 0-1.6 1.3-2.9 2.9-2.9h2.7c1.6 0 2.9 1.3 2.9 2.9 0 1.6-1.3 2.9-2.9 2.9zm0 10.2h-2.7c-1.6 0-2.9-1.3-2.9-2.9 0-1.6 1.3-2.9 2.9-2.9h2.7c1.6 0 2.9 1.3 2.9 2.9 0 1.6-1.3 2.9-2.9 2.9z"/><path fill="#FAFAFA" d="M106.7 61.4H90.8c-1.6 0-2.9-1.3-2.9-2.9 0-1.6 1.3-2.9 2.9-2.9h15.9c1.6 0 2.9 1.3 2.9 2.9-.1 1.6-1.4 2.9-2.9 2.9z"/><path fill="#CDCCCC" d="M135.6 72.9h-33.5c-1.6 0-2.9-1.3-2.9-2.9 0-1.6 1.3-2.9 2.9-2.9h33.5c1.6 0 2.9 1.3 2.9 2.9 0 1.6-1.3 2.9-2.9 2.9zm29.2 10.7h-62.7c-1.6 0-2.9-1.3-2.9-2.9 0-1.6 1.3-2.9 2.9-2.9h62.7c1.6 0 2.9 1.3 2.9 2.9-.1 1.6-1.3 2.9-2.9 2.9zm-23.1 11.2h-39.6c-1.6 0-2.9-1.3-2.9-2.9 0-1.6 1.3-2.9 2.9-2.9h39.6c1.6 0 2.9 1.3 2.9 2.9-.1 1.7-1.3 2.9-2.9 2.9z"/><path fill="#FAFAFA" d="M106.8 106.4H91.1c-1.6 0-2.9-1.3-2.9-2.9 0-1.6 1.3-2.9 2.9-2.9h15.7c1.6 0 2.9 1.3 2.9 2.9-.1 1.6-1.3 2.9-2.9 2.9zm0 22.7H91.1c-1.6 0-2.9-1.3-2.9-2.9 0-1.6 1.3-2.9 2.9-2.9h15.7c1.6 0 2.9 1.3 2.9 2.9-.1 1.6-1.3 2.9-2.9 2.9z"/><path fill="#4CAD33" d="M117.8 140.6h-15.7c-1.6 0-2.9-1.3-2.9-2.9 0-1.6 1.3-2.9 2.9-2.9h15.7c1.6 0 2.9 1.3 2.9 2.9 0 1.6-1.3 2.9-2.9 2.9z"/><path fill="#DDC132" d="M134.6 151.3h-21.8c-1.6 0-2.9-1.3-2.9-2.9 0-1.6 1.3-2.9 2.9-2.9h21.8c1.6 0 2.9 1.3 2.9 2.9-.1 1.6-1.3 2.9-2.9 2.9zm55.2 11.2h-77c-1.6 0-2.9-1.3-2.9-2.9 0-1.6 1.3-2.9 2.9-2.9h77c1.6 0 2.9 1.3 2.9 2.9 0 1.7-1.3 2.9-2.9 2.9zm-37 11.6h-40c-1.6 0-2.9-1.3-2.9-2.9 0-1.6 1.3-2.9 2.9-2.9h40c1.6 0 2.9 1.3 2.9 2.9 0 1.6-1.3 2.9-2.9 2.9z"/><path fill="#4CAD33" d="M117.5 184.8h-15.7c-1.6 0-2.9-1.3-2.9-2.9 0-1.6 1.3-2.9 2.9-2.9h15.7c1.6 0 2.9 1.3 2.9 2.9-.1 1.6-1.3 2.9-2.9 2.9z"/><path fill="#FAFAFA" d="M107.1 195.3H91.4c-1.6 0-2.9-1.3-2.9-2.9 0-1.6 1.3-2.9 2.9-2.9h15.7c1.6 0 2.9 1.3 2.9 2.9 0 1.6-1.3 2.9-2.9 2.9zm0 22.2H91.4c-1.6 0-2.9-1.3-2.9-2.9 0-1.6 1.3-2.9 2.9-2.9h15.7c1.6 0 2.9 1.3 2.9 2.9 0 1.7-1.3 2.9-2.9 2.9z"/><path fill="#DDC132" d="M127.4 228.8h-25.6c-1.6 0-2.9-1.3-2.9-2.9 0-1.6 1.3-2.9 2.9-2.9h25.6c1.6 0 2.9 1.3 2.9 2.9-.1 1.6-1.3 2.9-2.9 2.9zm-5.2 11.5h-20.4c-1.6 0-2.9-1.3-2.9-2.9 0-1.6 1.3-2.9 2.9-2.9h20.4c1.6 0 2.9 1.3 2.9 2.9 0 1.7-1.3 2.9-2.9 2.9z"/><path fill="#FAFAFA" d="M107.1 251H91.4c-1.6 0-2.9-1.3-2.9-2.9 0-1.6 1.3-2.9 2.9-2.9h15.7c1.6 0 2.9 1.3 2.9 2.9 0 1.6-1.3 2.9-2.9 2.9zm.6 22.7H92c-1.6 0-2.9-1.3-2.9-2.9 0-1.6 1.3-2.9 2.9-2.9h15.7c1.6 0 2.9 1.3 2.9 2.9-.1 1.6-1.3 2.9-2.9 2.9z"/><path fill="#4CAD33" d="M118 284.9h-15.7c-1.6 0-2.9-1.3-2.9-2.9 0-1.6 1.3-2.9 2.9-2.9H118c1.6 0 2.9 1.3 2.9 2.9 0 1.6-1.3 2.9-2.9 2.9z"/><path fill="#DDC132" d="M133.9 296.5h-20.4c-1.6 0-2.9-1.3-2.9-2.9 0-1.6 1.3-2.9 2.9-2.9h20.4c1.6 0 2.9 1.3 2.9 2.9 0 1.6-1.3 2.9-2.9 2.9zm39 10.6h-59.4c-1.6 0-2.9-1.3-2.9-2.9 0-1.6 1.3-2.9 2.9-2.9h59.4c1.6 0 2.9 1.3 2.9 2.9-.1 1.7-1.3 2.9-2.9 2.9zM157 317.8h-43.5c-1.6 0-2.9-1.3-2.9-2.9 0-1.6 1.3-2.9 2.9-2.9H157c1.6 0 2.9 1.3 2.9 2.9-.1 1.6-1.4 2.9-2.9 2.9z"/><path fill="#634092" d="M129.2 328.3h-15.7c-1.6 0-2.9-1.3-2.9-2.9 0-1.6 1.3-2.9 2.9-2.9h15.7c1.6 0 2.9 1.3 2.9 2.9-.1 1.7-1.3 2.9-2.9 2.9z"/><path fill="#FAFAFA" d="M190.5 339.1h-67.6c-1.6 0-2.9-1.3-2.9-2.9 0-1.6 1.3-2.9 2.9-2.9h67.6c1.6 0 2.9 1.3 2.9 2.9 0 1.6-1.3 2.9-2.9 2.9zm16.5 11h-83.2c-1.6 0-2.9-1.3-2.9-2.9 0-1.6 1.3-2.9 2.9-2.9H207c1.6 0 2.9 1.3 2.9 2.9-.1 1.6-1.3 2.9-2.9 2.9z"/><path fill="#404356" d="M318.7 359.2h-62.5V48.3h62.5c2 0 3.6 1.6 3.6 3.6v303.7c0 2-1.6 3.6-3.6 3.6z"/><path fill="#484C60" d="M256.2 48.3h10.4v310.9h-10.4z"/><path fill="#FAFAFA" d="M283.2 61.4h-7.5c-1.6 0-2.9-1.3-2.9-2.9 0-1.6 1.3-2.9 2.9-2.9h7.5c1.6 0 2.9 1.3 2.9 2.9 0 1.6-1.3 2.9-2.9 2.9z"/><path fill="#304E9D" d="M13.9 140.6h-2.7c-1.6 0-2.9-1.3-2.9-2.9 0-1.6 1.3-2.9 2.9-2.9h2.7c1.6 0 2.9 1.3 2.9 2.9-.1 1.6-1.3 2.9-2.9 2.9z"/><path fill="#FAFAFA" d="M48.3 140.6H24.1c-1.6 0-2.9-1.3-2.9-2.9 0-1.6 1.3-2.9 2.9-2.9h24.2c1.6 0 2.9 1.3 2.9 2.9 0 1.6-1.3 2.9-2.9 2.9z"/><path fill="#304E9D" d="M13.9 151.3h-2.7c-1.6 0-2.9-1.3-2.9-2.9 0-1.6 1.3-2.9 2.9-2.9h2.7c1.6 0 2.9 1.3 2.9 2.9-.1 1.6-1.3 2.9-2.9 2.9z"/><path fill="#FAFAFA" d="M32.3 151.3h-8.2c-1.6 0-2.9-1.3-2.9-2.9 0-1.6 1.3-2.9 2.9-2.9h8.2c1.6 0 2.9 1.3 2.9 2.9 0 1.6-1.3 2.9-2.9 2.9z"/><path fill="#404356" d="M40.5 47.2H24.1c-1.6 0-2.9-1.3-2.9-2.9 0-1.6 1.3-2.9 2.9-2.9h16.4c1.6 0 2.9 1.3 2.9 2.9 0 1.6-1.3 2.9-2.9 2.9z"/><path fill="#CDCCCC" d="M294.3 72.9h-8.9c-1.6 0-2.9-1.3-2.9-2.9 0-1.6 1.3-2.9 2.9-2.9h8.9c1.6 0 2.9 1.3 2.9 2.9 0 1.6-1.3 2.9-2.9 2.9zm4.8 10.7h-12.9c-1.6 0-2.9-1.3-2.9-2.9 0-1.6 1.3-2.9 2.9-2.9h12.9c1.6 0 2.9 1.3 2.9 2.9-.1 1.6-1.4 2.9-2.9 2.9zm-5.4 11.2h-7.5c-1.6 0-2.9-1.3-2.9-2.9 0-1.6 1.3-2.9 2.9-2.9h7.5c1.6 0 2.9 1.3 2.9 2.9-.1 1.7-1.4 2.9-2.9 2.9zm9.2 11.6h-16.7c-1.6 0-2.9-1.3-2.9-2.9 0-1.6 1.3-2.9 2.9-2.9h16.7c1.6 0 2.9 1.3 2.9 2.9-.1 1.6-1.3 2.9-2.9 2.9z"/><path fill="#FAFAFA" d="M283.2 129.1h-7.5c-1.6 0-2.9-1.3-2.9-2.9 0-1.6 1.3-2.9 2.9-2.9h7.5c1.6 0 2.9 1.3 2.9 2.9 0 1.6-1.3 2.9-2.9 2.9z"/><path fill="#CDCCCC" d="M294.3 140.6h-8.9c-1.6 0-2.9-1.3-2.9-2.9 0-1.6 1.3-2.9 2.9-2.9h8.9c1.6 0 2.9 1.3 2.9 2.9 0 1.6-1.3 2.9-2.9 2.9zm4.1 10.7h-12.9c-1.6 0-2.9-1.3-2.9-2.9 0-1.6 1.3-2.9 2.9-2.9h12.9c1.6 0 2.9 1.3 2.9 2.9-.1 1.6-1.3 2.9-2.9 2.9zm-.8 11.2h-12.1c-1.6 0-2.9-1.3-2.9-2.9 0-1.6 1.3-2.9 2.9-2.9h12.1c1.6 0 2.9 1.3 2.9 2.9-.1 1.7-1.3 2.9-2.9 2.9zm-3.6 11.6h-8.1c-1.6 0-2.9-1.3-2.9-2.9 0-1.6 1.3-2.9 2.9-2.9h8.1c1.6 0 2.9 1.3 2.9 2.9-.1 1.6-1.4 2.9-2.9 2.9zm4.4 10.7h-12.9c-1.6 0-2.9-1.3-2.9-2.9 0-1.6 1.3-2.9 2.9-2.9h12.9c1.6 0 2.9 1.3 2.9 2.9-.1 1.6-1.3 2.9-2.9 2.9zm-.8 10.5h-12.1c-1.6 0-2.9-1.3-2.9-2.9 0-1.6 1.3-2.9 2.9-2.9h12.1c1.6 0 2.9 1.3 2.9 2.9-.1 1.6-1.3 2.9-2.9 2.9z"/><path fill="#FAFAFA" d="M283.2 216.8h-7.5c-1.6 0-2.9-1.3-2.9-2.9 0-1.6 1.3-2.9 2.9-2.9h7.5c1.6 0 2.9 1.3 2.9 2.9 0 1.6-1.3 2.9-2.9 2.9z"/><path fill="#CDCCCC" d="M294.3 228.8h-8.9c-1.6 0-2.9-1.3-2.9-2.9 0-1.6 1.3-2.9 2.9-2.9h8.9c1.6 0 2.9 1.3 2.9 2.9 0 1.6-1.3 2.9-2.9 2.9zm4.4 11.5h-12.9c-1.6 0-2.9-1.3-2.9-2.9 0-1.6 1.3-2.9 2.9-2.9h12.9c1.6 0 2.9 1.3 2.9 2.9 0 1.7-1.3 2.9-2.9 2.9zm-5 10.7h-7.5c-1.6 0-2.9-1.3-2.9-2.9 0-1.6 1.3-2.9 2.9-2.9h7.5c1.6 0 2.9 1.3 2.9 2.9-.1 1.6-1.4 2.9-2.9 2.9z"/><path fill="#3D60AA" d="M313.6 72.9h-8.9c-1.6 0-2.9-1.3-2.9-2.9 0-1.6 1.3-2.9 2.9-2.9h8.9c1.6 0 2.9 1.3 2.9 2.9 0 1.6-1.3 2.9-2.9 2.9zm-.1 10.7h-4.9c-1.6 0-2.9-1.3-2.9-2.9 0-1.6 1.3-2.9 2.9-2.9h4.9c1.6 0 2.9 1.3 2.9 2.9 0 1.6-1.3 2.9-2.9 2.9z"/><path fill="#634092" d="M313.5 94.8h-9.4c-1.6 0-2.9-1.3-2.9-2.9 0-1.6 1.3-2.9 2.9-2.9h9.4c1.6 0 2.9 1.3 2.9 2.9 0 1.7-1.3 2.9-2.9 2.9z"/><path fill="#3D60AA" d="M313.7 106.4H312c-1.6 0-2.9-1.3-2.9-2.9 0-1.6 1.3-2.9 2.9-2.9h1.6c1.6 0 2.9 1.3 2.9 2.9 0 1.6-1.3 2.9-2.8 2.9zm-.1 34.2h-10.3c-1.6 0-2.9-1.3-2.9-2.9 0-1.6 1.3-2.9 2.9-2.9h10.3c1.6 0 2.9 1.3 2.9 2.9-.1 1.6-1.4 2.9-2.9 2.9z"/><path fill="#634092" d="M313.7 151.3h-6c-1.6 0-2.9-1.3-2.9-2.9 0-1.6 1.3-2.9 2.9-2.9h6c1.6 0 2.9 1.3 2.9 2.9-.1 1.6-1.3 2.9-2.9 2.9z"/><path fill="#3D60AA" d="M313.7 162.5h-6.6c-1.6 0-2.9-1.3-2.9-2.9 0-1.6 1.3-2.9 2.9-2.9h6.6c1.6 0 2.9 1.3 2.9 2.9 0 1.7-1.3 2.9-2.9 2.9z"/><path fill="#634092" d="M313.7 174.1H304c-1.6 0-2.9-1.3-2.9-2.9 0-1.6 1.3-2.9 2.9-2.9h9.7c1.6 0 2.9 1.3 2.9 2.9-.1 1.6-1.4 2.9-2.9 2.9z"/><path fill="#3D60AA" d="M313.7 184.8h-6.6c-1.6 0-2.9-1.3-2.9-2.9 0-1.6 1.3-2.9 2.9-2.9h6.6c1.6 0 2.9 1.3 2.9 2.9 0 1.6-1.3 2.9-2.9 2.9zm0 10.5h-6.6c-1.6 0-2.9-1.3-2.9-2.9 0-1.6 1.3-2.9 2.9-2.9h6.6c1.6 0 2.9 1.3 2.9 2.9-.1 1.6-1.3 2.9-2.9 2.9z"/><path fill="#634092" d="M313.6 228.8h-9.8c-1.6 0-2.9-1.3-2.9-2.9 0-1.6 1.3-2.9 2.9-2.9h9.8c1.6 0 2.9 1.3 2.9 2.9 0 1.6-1.3 2.9-2.9 2.9z"/><path fill="#3D60AA" d="M313.5 240.3h-6.2c-1.6 0-2.9-1.3-2.9-2.9 0-1.6 1.3-2.9 2.9-2.9h6.2c1.6 0 2.9 1.3 2.9 2.9 0 1.7-1.3 2.9-2.9 2.9zm-.1 10.7H303c-1.6 0-2.9-1.3-2.9-2.9 0-1.6 1.3-2.9 2.9-2.9h10.4c1.6 0 2.9 1.3 2.9 2.9 0 1.6-1.3 2.9-2.9 2.9z"/><path fill="#EFEFEF" d="M400 155.7c-17.3.1-35.9.6-54.6 1 4.1-30.2 4.1-55.6-.4-75.6 14.3-2.4 32.6-3.3 55-3.3v77.9z"/><path fill="#FAFAFA" d="M400 90.1c-16.1 3.2-33.2 6.9-50.5 10.7-1.7-30.4-6.4-55.4-14.6-74.2 15.7-5.8 38.5-10.9 65.1-15.7v79.2z"/><path fill="#E78C8D" stroke="#E78C8D" stroke-width=".094" d="M400 78.3c0 .3-.1.6-.1.9-.2 1.1-.4 2.2-1.1 3.1-.2.2-.3.5-.6.5L387.1 85c-.8.1-1.5.3-2.3.4.4-.5.8-1 1-1.7.5-1.8.7-3.6.9-5.4.2-2.9.3-5.8.3-8.7 0-1.9.1-3.8 0-5.7-.1-2.1-.1-4.2-.1-6.4 0-3.1 0-6.3.1-9.4.1-2.4.2-4.9.5-7.3.1-1.2.3-2.3.7-3.5.2-.6.5-1.3 1.1-1.7.2-.1.5-.1.8-.2l10-2-.1 44.9z"/><path fill="#F0B8BF" stroke="#F0B8BF" stroke-width=".094" d="M370.1 65.7c.3-.1.6-.2.9-.2l12.1-2.4c.5 0 1-.2 1.6-.1.8.1 1.5.5 2.1 1 0 0 .1-.2.2-.2.1 1.9 0 3.8 0 5.7 0 2.9-.1 5.8-.3 8.7-.2 1.8-.3 3.6-.9 5.4-.2.6-.5 1.2-1 1.7-.2.1-.4 0-.5-.1-.6-.2-1-.7-1.4-1.2-2.2-3.2-3.1-7-4.8-10.4-.8-1.7-1.8-3.4-3-4.9-.7-.9-1.6-1.7-2.6-2.3-.7-.4-1.5-.7-2.4-.7z"/><path d="M374.2 32.3l-.1-1.3-.5-4.6-.4-3c.8-.2 1.4-.3 1.9-.4.4-.1 1-.2 1.7-.4.1.4.2.6.3.8.1.2.2.5.5 1.1.3.5.5 1 .7 1.4s.5 1.1.8 2c.1-.7.1-1.3.2-1.9.1-.5.1-1.1.3-1.8.1-.7.2-1.1.2-1.3 0-.2.1-.5.1-.9.7-.1 1.3-.2 1.9-.4.4-.1 1-.2 1.8-.4.2 1.5.4 2.7.6 3.8.4 2.1.6 3.5.8 4.3 0 .2.1.4.2.9-.6.1-1 .2-1.2.2-.3.1-.7.2-1.2.3 0-.4-.2-1.3-.4-2.8-.2-1.5-.4-2.4-.5-2.8 0-.2-.1-.4-.2-.7l-.3 2.8-.5 3.9c-.6.1-1 .2-1.2.2-.3.1-.7.1-1.2.3l-1.5-3.4-.8-1.8c0-.1-.1-.2-.1-.3 0-.1-.1-.3-.2-.6l.2 1.8.5 3.7.1.8c-.6.1-1 .2-1.1.2-.5.1-.8.2-1.4.3zm12-7.3v-1.7c1.2-.5 2.2-.9 3.1-1.1.5-.1 1-.1 1.4-.1s.8.1 1.1.4c.3.2.5.5.6 1 0 .2.1.8.2 1.7.1.9.3 2 .5 3.4-.4.1-.8.2-1.3.2-.4.1-.8.2-1.3.3 0-.5-.2-1.5-.4-3-.1.1-.3.2-.4.2-.1.1-.2.1-.5.3-.2.1-.4.2-.5.3l-.3.3c-.1.1-.1.2-.2.3v.3c0 .1.1.3.3.3.1.1.3.1.6 0 .1 0 .2 0 .3-.1.1 0 .2-.1.4-.2-.1.4-.1.9-.2 1.6-.4.1-.7.2-1 .3-.5.1-1 .1-1.4 0s-.7-.3-1-.6c-.3-.3-.4-.6-.5-.9v-.6c0-.2.1-.4.2-.6s.3-.4.4-.6c.2-.2.4-.4.8-.5.3-.2.8-.4 1.3-.6l.6-.3c.2-.1.3-.2.4-.2l.2-.2c0-.1.1-.1.1-.2v-.2c0-.2-.1-.3-.3-.3-.2-.1-.4-.1-.6 0-.7.1-1.6.5-2.6 1.1zm12.8.4v1.9c-.4.2-.7.3-1 .4-.2.1-.5.1-.7.2-.4.1-.7.1-1 .1s-.6-.1-.8-.2c-.2-.1-.4-.3-.5-.5s-.2-.4-.2-.7v-.2c0-.1-.1-.4-.1-.7l-.3-2.3-1 .2c0-.3-.1-.7-.2-1.2l-.1-.6 1.1-.2c0-.2-.1-.6-.2-1.3l1.1-.4 1.2-.6.3 1.8 1.5-.3c.1.9.2 1.5.3 1.8l-1.5.3.2 1.6c0 .2.1.4.1.5 0 .2.1.4.2.5l.3.3h.4c.1 0 .2-.1.3-.1l.6-.3zm1 .1c-.1-.1-.1-.2-.2-.3-.2-.3-.3-.7-.4-1.1-.1-.6-.1-1.1 0-1.7.1-.5.3-1 .6-1.3v4.4z"/><path fill="#573E7D" d="M360.6 128.5c-.1 2.3 1.7 4.2 4 4.2l23.7.6c2.3.1 4.2-1.7 4.2-4l.6-23.7c.1-2.3-1.7-4.2-4-4.2l-23.7-.6c-2.3-.1-4.2 1.7-4.2 4l-.6 23.7z"/><path fill="#FFF" d="M374.2 115.2l.1-4.5 4 .1c.4 0 .7.1 1.1.1.3.1.7.2.9.4.3.2.5.4.6.7.2.3.2.7.2 1.1 0 .8-.3 1.4-.8 1.7-.5.3-1.1.5-1.9.5l-4.2-.1zm-4-7.9l-.5 19.3 9.4.2c.9 0 1.7-.1 2.5-.3.8-.2 1.6-.5 2.2-.9.7-.4 1.2-1 1.6-1.7s.6-1.5.6-2.5c0-1.2-.2-2.2-.8-3.1-.6-.9-1.4-1.5-2.6-1.9.9-.4 1.5-.9 2-1.5s.7-1.4.7-2.4c0-.9-.1-1.7-.4-2.3-.3-.6-.7-1.1-1.2-1.5s-1.2-.7-1.9-.8c-.8-.2-1.6-.3-2.5-.3l-9.1-.3zm3.8 16.1l.1-5.3 4.6.1c.9 0 1.7.3 2.2.7.5.4.8 1.2.8 2.1 0 .5-.1.9-.3 1.2s-.4.6-.7.8c-.3.2-.6.3-1 .4s-.8.1-1.2.1l-4.5-.1z"/><path d="M400 122.4h-3.1c.1-1.2.2-2.1.3-2.7.1-.9.2-2.1.3-3.7.1-1.6.1-2.7.2-3.3v-1c.7 0 1.3.1 1.7.1h.7l-.1 10.6z"/></svg>