<svg id="Слой_1" xmlns="http://www.w3.org/2000/svg" viewBox="0 0 400 400"><style>.st0{fill:#fff}.st2{fill:#00789f}.st7{fill:#006172}.st8{fill:#fafafa}.st9{fill:#090a0a}.st11{fill:#343749}.st16{fill:#3c4056}.st17{fill:#252725}.st18{fill:#e6e7eb}.st19,.st21,.st28{enable-background:new}.st19{fill:#fff;opacity:.7}.st21{opacity:.1}.st28{opacity:.3;fill:#fff}.st95,.st96{fill:none;stroke:#262626;stroke-width:3;stroke-linecap:round;stroke-miterlimit:10}.st96{stroke:#e73b3b}.st99{fill:#cdcccc}.st100{fill:none;stroke:#252725;stroke-miterlimit:10}.st101,.st103{fill:#e2b842}.st103{stroke:#252725;stroke-miterlimit:10}</style><path class="st0" d="M1 1h400v400H1z"/><path fill="none" d="M0 331h236.1v69H0z"/><path class="st2" d="M289.6 331h-14.3l-.1 69h14.4v-68.7z"/><path fill="#006e89" d="M236.1 331v69h39.1l.1-69z"/><path d="M317.1 284.9c0 2.9-.9 5.5-2.4 7.7 29.9 0 58.5.1 85.3.3v-20c-28.7-2.1-59.2-4.3-90.7-6.7 4.8 4.8 7.8 11.4 7.8 18.7zm-83.4 0c0-10.2 5.8-19 14.2-23.4-15.1-1.2-30.4-2.3-45.7-3.5l-5.5 34.7h39.4c-1.5-2.2-2.4-4.9-2.4-7.8z" fill="#008dd1"/><path class="st2" d="M275.3 331h14.3v-.2H400v-22.9H191.8c-28 13.2-142.8 9.7-171.7 3.2-6.1-1.4-13-2-20.1-2.2V331h275.3z"/><path d="M314.7 292.7c-2.5 3.6-6.6 5.9-11.3 5.9h-56c-4.7 0-8.8-2.3-11.2-5.9h-39.4l-2.2 13.6c-.8.6-1.8 1.1-2.8 1.6H400v-15c-26.8-.2-55.4-.2-85.3-.2z" fill="#0084b7"/><path d="M370.1 231.9c-.7 7.9-7.2 14-15.3 14H219.4c-6.1 0-11.4-3.6-13.8-8.8l-3.3 20.9c15.3 1.2 30.6 2.3 45.7 3.5 3.6-1.9 7.7-2.9 12.1-2.9h30.7c7.2 0 13.7 2.9 18.5 7.6 31.5 2.4 62 4.6 90.7 6.7V234h-1.5c-10.3 0-20-.8-28.4-2.1z" fill="#009edb"/><path class="st7" d="M289.6 331v69h60.6c-2.2-4-3.6-8.1-3.7-12.5-.2-5 4-16.3 20.4-27.4 9.6-6.5 21.3-11.3 33.1-14.7v-14.6H289.6v.2z"/><path class="st7" d="M360.8 388.3c-.9 4.2-.1 8 1.6 11.7H400v-.3c-5.7-3.1-8.6-7.6-9.1-10-.2-1-.6-2.6.5-3 .6-.2.8-.1 2.2 1.9.7 1.1 2.7 3.3 6.4 5.1v-35.5c-34.1 11.5-38.1 24.8-39.2 30.1z"/><path class="st8" d="M157.4 119.5v-39H0v62.1h134.4c12.7-.1 23-10.4 23-23.1zM121 135.6l-4.1 3.5c-.4.4-1 .6-1.6.5l-6.9-1c-.5-.1-1-.4-1.3-.8l-3-3.8c-.3-.4-.5-1-.4-1.6l.7-4.7c.1-1-.5-2-1.5-2.3-.4-.1-.7-.3-1-.6l-1.8-2.1c-.5-.6-1.3-.8-2.1-.6l-4.8 1.4c-.5.2-1.1.1-1.6-.2l-2.4-1.4c-.8-.5-1.8-.3-2.5.3l-7 7c-.2.2-.4.3-.6.4l-7.7 3.3c-.5.2-1 .2-1.5.1l-9.6-3.2c-.5-.2-.9-.5-1.2-1l-4-7.5-1.7-3.6c-.4-.9-1.5-1.4-2.5-1.1l-5.7 1.9c-.6.2-1.2.1-1.7-.2l-3.1-1.8c-.7-.4-1.7-.4-2.3.2l-9 7.1c-.3.2-.6.4-1 .4L18 125.6c-.5.1-1 0-1.4-.3l-8.1-5c-.5-.3-.9-.9-1-1.5l-.9-6.7c-.1-.9.4-1.9 1.3-2.2l4.2-1.7c.9-.4 2 0 2.5.8l2.5 4.1c.3.5.9.9 1.5 1l.6.1c.6.1 1.3-.1 1.7-.6l14.3-14.4c.1-.1.2-.3.3-.4l3.7-6.6c.4-.7 1.2-1.2 2.1-1l7.2 1c1.3.2 2.1 1.6 1.6 2.8l-.7 1.6c-.5 1.2.3 2.6 1.6 2.8l7.4 1c.8.1 1.6-.3 2.1-1l6-9.9c.2-.3.4-.5.7-.7l7.4-4.7c.4-.3.9-.4 1.4-.3l9.7 1.3c.8.1 1.4.7 1.7 1.4l1.8 5.8c.2.5.1 1.1-.2 1.6l-1 2.7c-1 1.7.8 3.7 2.6 2.9l4.6-2.1c.2-.1.3-.2.4-.3l5.9-4.7c.4-.3.9-.5 1.4-.5l8 .3c.6 0 1.1.3 1.5.7l1.9 2.1c.4.4.9.7 1.5.7l4 .1c.9 0 1.7-.6 2-1.5l2-6.5c.1-.2.1-.3.2-.5l2.1-3.3c.4-.6 1-.9 1.7-1l5.9-.2c.4 0 .8.1 1.1.3l7.8 4.7c.3.2.6.5.8.9l1.8 3.7c.3.7.3 1.6-.2 2.2l-5.1 6.3c-.1.1-.1.2-.2.3L121.5 135c-.1.2-.3.4-.5.6z"/><path class="st9" d="M157.4 0h-14.9v68.7H0v11.8h157.4z"/><path d="M142.5 0h-8.6v58.3c0 1.5-1.2 2.7-2.7 2.7H0v7.6h142.5V0z" fill="#232a3c"/><path class="st11" d="M83.7 0H0v17.3h20.5c1.2 0 2.2 1 2.2 2.2 0 1.2-1 2.2-2.2 2.2H0v3.8h8.5c1.2 0 2.2 1 2.2 2.2s-1 2.2-2.2 2.2H0v11.8h33.9c1.2 0 2.2 1 2.2 2.2s-1 2.2-2.2 2.2H0v4h46.4c1.2 0 2.2 1 2.2 2.2 0 1.2-1 2.2-2.2 2.2H0v6.9h83.7V0z"/><path d="M22.7 19.4c0-1.2-1-2.2-2.2-2.2H0v4.3h20.5c1.2.1 2.2-.9 2.2-2.1zm-12.1 8.1c0-1.2-1-2.2-2.2-2.2H0v4.3h8.5c1.2.1 2.1-.9 2.1-2.1z" fill="#ddc132"/><path class="st8" d="M36.1 43.7c0-1.2-1-2.2-2.2-2.2H0v4.3h33.9c1.2 0 2.2-.9 2.2-2.1zM48.6 52c0-1.2-1-2.2-2.2-2.2H0v4.3h46.4c1.2.1 2.2-.9 2.2-2.1z"/><path d="M130.8 61.1h.3c1.5 0 2.7-1.2 2.7-2.7V0H91.6v61.1h39.2z" fill="#404356"/><path fill="#484c60" d="M83.7 0h7.9v61.1h-7.9z"/><path class="st8" d="M233.7 284.9c27.8 6.3 55.6 6.3 83.4 0 0-7.3-3-14-7.8-18.7-4.7-4.7-11.3-7.6-18.5-7.6h-13.2v12.1c0 1.2-1 2.2-2.2 2.2-1.2 0-2.2-1-2.2-2.2v-12.1H260c-4.4 0-8.4 1.1-12.1 2.9-8.4 4.4-14.2 13.2-14.2 23.4z"/><path d="M233.7 284.9c0 2.9.9 5.6 2.4 7.8 2.5 3.6 6.6 5.9 11.2 5.9h56c4.7 0 8.8-2.3 11.3-5.9 1.5-2.2 2.4-4.9 2.4-7.7-27.7 6.2-55.5 6.2-83.3-.1zm39.6-14.2c0 1.2 1 2.2 2.2 2.2 1.2 0 2.2-1 2.2-2.2v-12.1h-4.3v12.1z" fill="#efefef"/><path class="st16" d="M397.9 199.9c0 .1 0 .1 0 0-.3.1-.6 0-.9-.2-1.9-.6-3.3-2.4-3.3-4.5v-.8c-8.5.4-16.5 2-23.5 4.1v32.1c0 .4 0 .9-.1 1.3 8.4 1.3 18 2.1 28.4 2.1h1.5v-5c-13.2.4-24-.1-23.8-1.1 0 0 11.3-1.3 23.8-3.1v-25.1c-.5.2-1 .3-1.5.3-.2 0-.4-.1-.6-.1z"/><path class="st17" d="M400 229v-4.2c-12.5 1.9-23.8 3.1-23.8 3.1-.2 1 10.6 1.5 23.8 1.1z"/><path class="st18" d="M397.9 199.9c.2 0 .4.1.6.1.5 0 1-.1 1.5-.3V0h-2c.8 67.2.9 196.8-.1 199.9zm-4.1-4.7c0 2.1 1.4 3.9 3.3 4.5-1-.6-1.8-2.4-1.8-4.5V0h-1.5v195.2z"/><path class="st16" d="M397.9 199.9c-.3 0-.6-.1-.9-.2.3.2.6.3.9.2 0 .1 0 .1 0 0z"/><path class="st19" d="M397.9 199.9c-.3 0-.6-.1-.9-.2.3.2.6.3.9.2 0 .1 0 .1 0 0z"/><path class="st18" d="M395.2 195.2c0 2.1.8 3.9 1.8 4.5.3.1.6.2.9.2 1-3.1.9-132.7.2-199.9h-2.8v195.2z"/><path class="st19" d="M395.2 195.2c0 2.1.8 3.9 1.8 4.5.3.1.6.2.9.2 1-3.1.9-132.7.2-199.9h-2.8v195.2z"/><path d="M346.5 387.5c.1 4.3 1.6 8.5 3.7 12.5h12.2c-1.8-3.7-2.5-7.6-1.6-11.7 1.1-5.2 5.1-18.5 39.2-30.1v-12.7c-11.7 3.4-23.4 8.2-33.1 14.7-16.4 11-20.6 22.3-20.4 27.3zm47.1 1.1c-1.3-2-1.5-2.1-2.2-1.9-1 .4-.7 2-.5 3 .5 2.4 3.4 6.9 9.1 10v-6.1c-3.7-1.7-5.7-3.9-6.4-5z" fill="#d383a7"/><path class="st18" d="M104 114.5c-.2.2-.4.3-.6.4.3-.2.5-.4.8-.5 0 0 0-.1.1-.1-.1.1-.2.1-.3.2zm-39.5-8.1c-.4.3-.7.5-1.1.8-.2.3-.5.6-.7.8.6-.6 1.2-1.1 1.8-1.6z"/><path class="st18" d="M140 101.1l5.1-6.3c.5-.6.6-1.5.2-2.2l-1.8-3.7c-.2-.4-.5-.7-.8-.9l-7.8-4.7c-.3-.2-.7-.3-1.1-.3l-5.9.2c-.7 0-1.3.4-1.7 1l-2.1 3.3c-.1.2-.2.3-.2.5l-2 6.5c-.3.9-1.1 1.5-2 1.5l-4-.1c-.6 0-1.1-.3-1.5-.7l-1.9-2.1c-.4-.4-.9-.7-1.5-.7l-8-.3c-.5 0-1 .1-1.4.5l-5.9 4.7c-.1.1-.3.2-.4.3l-4.6 2.1c-1.8.8-3.6-1.2-2.6-2.9l1.3-2.3c.3-.5.3-1.1.2-1.6l-1.8-5.8c-.2-.8-.9-1.3-1.7-1.4L76.3 84c-.5-.1-1 0-1.4.3L67.4 89c-.3.2-.5.4-.7.7l-6 9.9c-.4.7-1.2 1.1-2.1 1l-7.4-1c-1.3-.2-2.1-1.6-1.6-2.8l.7-1.6c.5-1.2-.3-2.6-1.6-2.8l-7.2-1c-.8-.1-1.7.3-2.1 1L35.7 99c-.1.2-.2.3-.3.4l-14.3 14.4c-.5.5-1.1.7-1.7.6l-.6-.1c-.6-.1-1.1-.4-1.5-1l-2.5-4.1c-.5-.8-1.6-1.2-2.5-.8L8 110.1c-.9.4-1.4 1.3-1.3 2.2l.9 6.7c.1.6.4 1.1 1 1.5l8.1 5c.4.3.9.4 1.4.3l10.1-1.4c.4-.1.7-.2 1-.4l9-7.1c.7-.5 1.6-.6 2.3-.2l3.1 1.8c.5.3 1.1.4 1.7.2l5.7-1.9c1-.3 2.1.1 2.5 1.1l1.7 3.6 4 7.5c.2.5.7.8 1.2 1l9.6 3.2c.5.2 1 .1 1.5-.1l7.7-3.3c.2-.1.4-.2.6-.4l7-7c.7-.7 1.7-.8 2.5-.3l2.4 1.4c.5.3 1.1.3 1.6.2l4.8-1.4c.8-.2 1.6 0 2.1.6l1.8 2.1c.3.3.6.5 1 .6 1 .3 1.6 1.2 1.5 2.3l-.7 4.7c-.1.6.1 1.1.4 1.6l3 3.8c.3.4.8.7 1.3.8l6.9 1c.6.1 1.2-.1 1.6-.5l4.1-3.5c.2-.2.4-.4.5-.6l18.3-33.6c0-.3.1-.4.1-.5zm-96.2-5.5c.9-.8 2.2-1 2.8-.3.1.1.1.2.2.4.1 0 .2.1.2.1.6.6.3 1.8-.7 2.6-.9.8-2.2.9-2.7.3-.1-.1-.1-.2-.2-.4-.1 0-.1-.1-.2-.1-.7-.7-.4-1.8.6-2.6zm-10.3 20.9c-3.5 3-9.4 5.6-14.1 5-2.7-.4-5.1-1.5-6.4-3.5-.9-1.1-1.5-2.6-1.6-4.5 0-.5.4-.4.4 0v.2c.1-.1.3 0 .3.3.1 1.3.4 2.4 1.1 3.4 1.1 1.4 2.7 2.4 4.6 2.7 4.2.6 10.9-3.7 15.7-8.6 1-1 3.3-3.5 5.1-6-.5.3-.9.5-1.1.7-.2.1-.4-.3-.3-.5 0 0-.1 0-.1.1-.2.1-.5-.4-.2-.6 1-.6 3.5-2.3 4.1-4.1v-.5c-.1-.1-.1-.1-.1-.2-.1-.1-.1-.2-.3-.3-.3-.2.1-.4.3-.4.4 0 1 .2 1.4.9.3.3.5.7.6 1.3.3 3.7-3.7 9.7-9.4 14.6zm25.3 2.1c.1.3-.1.4-.3.2-.2-.2-.4-.4-.5-.7-.5-.6-1.1-1.3-1.1-2.6 0-1.7.7-3.8 1.8-6-.2.1-.4.3-.5.4-3.6 2.5-7.9 5.2-12.3 4.7-1.6-.2-2.8-.9-3.5-1.9-.7-.7-1.1-1.7-1-2.9.7-5.3 7.2-8.6 12.1-7.8 1.5.2 2.4.8 2.8 1.5 1.5 1.4.3 3.8-3.1 4.8-1.4.4-3.5.7-4.7.5-.8-.1-.8-.5.1-.4.5.1 1.5 0 2.6-.2-1.1.2-2.2.2-3 .1-.8-.1-.8-.5.1-.4.8.1 2.7-.1 4.3-.7 2.3-.9 3-2.1 2.6-3-.5-.4-1.4-.6-2.6-.2-2.5.8-5.8 3.6-6.7 6.2-.3.9-.3 1.7.1 2.3.3.3.8.5 1.4.6 2.5.3 7-2.1 9.8-3.9l.3-.3c1-.6 1.9-1.6 3.1-2.7 3.9-6.1 8-10.7 13.9-14.8 4.7-3.2 8.3-3 9.5-1.2 1.5 1.4.9 4.3-3.2 7.3-2.7 1.9-6.9 4-10 4.9-.5.2-.9-.2-.4-.5-.6.1-.9-.4 0-.6 2.9-.9 7.3-3.2 9.8-5.1 2.3-1.8 3.2-3.1 3.1-3.8-.9-.4-3.3.4-6.4 2.5-4 2.7-8.2 6.7-11.3 10 1.5-1.1 2.9-1.7 4.1-2 2.1-.5 3.7.1 4.3 1.1.5.5.8 1.2.6 2-.3 1.1-1.2 2.4-3.1 3.5-2.1 1.1-6.3 1.6-8.2.6l.6.9c1.8 2.2 4.5 4.1 6.2 4.1.9 0 1.7-.5 1.8-1.1 0-.1.2-.1.2 0-.1.7-.7 1.2-1.4 1.5.8-.1 1.5-.5 1.6-1.1 0-.1.2-.1.2 0-.2 1.1-1.3 1.7-2.6 1.8-3.6.3-6.7-1.8-8.2-3.8-.4-.4-.7-.9-.9-1.3-2.1 3.2-2.8 6.3-2 7.5zm21.5 5.3c-3.6 2.9-8.5 4.9-13.1 4.3-2.7-.4-5-1.5-6.4-3.4-1-1.2-1.6-2.7-1.6-4.6 0-.5.4-.4.4 0v.2c.1-.1.4 0 .4.3.1 1.5.6 2.8 1.5 3.9 1.1 1.1 2.5 1.9 4.2 2.1 4.6.6 10.1-2.7 14.7-7.4 2.3-2.4 4.3-4.9 6.3-7.6-2.9 2.7-7 6-9.5 5.6-.8-.1-1.4-.5-1.7-1.1-.7-.7-.9-1.8 0-3.6.9-1.7 3.8-4.2 5.4-5.6.4-.3.6-.6.6-.9-.3 0-.9.1-1.6.5-2.4 1.2-5.2 3.5-6.8 4.5-.5.3-.6-.3 0-.6 1-.6 2.2-1.5 3.3-2.4-1.4 1-2.7 2-3.7 2.5-.5.3-.6-.3 0-.6 2-1.2 4.6-3.5 6.5-4.6 2-1.1 4.1-.7 4.8.6.8.8 1 2.1 0 3.7-.9 1.4-2.4 2.6-3.5 3.9-.9.9-1.3 1.6-1.4 1.9.5 0 1.5-.4 2.5-1.1 2.7-1.9 6.7-5.5 9.2-8.3.9-1.4 2-3.1 3-3.2 1-.2 1.6.3 1.8.8.8.6.6 1.8-.8 1.4-.7-.2-1.5-.2-2.7 1.6-2.7 4-4.5 11.4-11.8 17.2zm58.5-27.7l-20.5 37c-1.5 2.7-4.9 3.7-7.7 2.2-.5-.3-.9-.6-1.3-1-1.5-1.2-2.2-3.1-1.9-4.9.1-.7.3-1.5.7-2.2l3.5-6.3c-2.3 1.3-4.7 2.2-6.8 1.6-1-.3-1.6-.7-1.9-1.3-1.3-1.3-.6-3.4.5-5.4-2.9 2.1-7.2 4.9-10.5 4-1-.3-1.6-.7-1.9-1.3-1.3-1.3-.6-3.4.5-5.4-.4.3-.7.5-1 .6-.6.3-.8-.2-.2-.5.6-.4 1.4-.9 2.1-1.5-.9.7-1.7 1.3-2.3 1.6-.6.3-.8-.2-.2-.5 1.5-.9 3.5-2.5 5.2-4.2 2-2 6-6.1 8.3-9.1.2-.3.5-.9.6-1.3-.1 0-.3 0-.6.1s-.7.2-.9.3c-.4.1-.5-.1-.2-.3.3-.2.8-.4 1.2-.6-.1 0-.3.1-.5.1-.3.1-.7.2-.9.3-.4.1-.5-.1-.2-.3 1.5-.9 4.7-1.6 6.3-1.4 1 .1 1.5.5 1.6.9.8.6.5 1.5-.4 2.6-1.6 1.9-6.4 5.5-8.7 7.6-.8.8-8.4 8.4-7.7 10.9.4.3 1.3.3 2.6 0 2.6-.6 6.3-2.9 8.2-4.3 1-.8 2.1-1.8 3.1-2.8 2-2 6-6.1 8.3-9.1.2-.3.5-.9.6-1.3-.1 0-.3 0-.6.1s-.7.2-.9.3c-.4.1-.5-.1-.2-.3.3-.2.8-.4 1.2-.6-.1 0-.3.1-.5.1-.3.1-.7.2-.9.3-.4.1-.5-.1-.2-.3 1.5-.9 4.7-1.6 6.3-1.4 1 .1 1.5.5 1.6.9.8.6.5 1.5-.4 2.6-1.6 1.9-6.4 5.5-8.7 7.6-.8.8-8.4 8.4-7.7 10.9.4.3 1.3.3 2.6 0 1.6-.4 3.6-1.4 5.4-2.4l15.5-28.1c.5-.9.5-3 .5-3 0 .3 0 .5.1.8v-1.2c.5-1 3.6-.3 6.9 1.6 1.8 1 3.2 2.1 4.1 3.1 1 1 1.5 1.8 1.2 2.3l-.2.2c.2-.3-1.7 1-2.1 1.7z"/><path class="st18" d="M68.8 108.5c1.6-.9 2.2-2.3 1.8-3.2-.8-.6-2.5-.5-5 1.2-1.1.7-2.2 1.5-3.2 2.5 0 .1.1.3.1.4 1 .6 4.4.1 6.3-.9zM56 110.7c.6-.3 1.1-.7 1.6-1l.3-.3c.3-.2.7-.5 1-.7-.3.2-.7.5-1 .7-.7.5-1.3.9-1.9 1.3zm7-.9c.3.2.6.2 1.1.3-.4-.1-.8-.2-1.1-.3zm23.2 1.5c-1.4 1.3-3.2 2.8-4.9 3.9.2-.1.3-.2.5-.3 1.9-1.3 4.4-3.5 6.6-5.6.3-.4.5-.7.8-1.1-1 1.1-2 2.2-3 3.1zM141.3 94c.3-.6-.2-1.4-1.2-2.4.7.8 1.1 1.5.9 1.9l-.2.2s-1.9 1.3-2.3 2l-20.5 37c-1.5 2.7-4.9 3.7-7.7 2.2-.3-.2-.7-.4-.9-.6.4.4.8.8 1.3 1 2.7 1.5 6.1.5 7.7-2.2l20.5-37c.4-.7 2.3-2 2.3-2s.1 0 .1-.1z"/><path class="st21" d="M141.3 94c.3-.6-.2-1.4-1.2-2.4.7.8 1.1 1.5.9 1.9l-.2.2s-1.9 1.3-2.3 2l-20.5 37c-1.5 2.7-4.9 3.7-7.7 2.2-.3-.2-.7-.4-.9-.6.4.4.8.8 1.3 1 2.7 1.5 6.1.5 7.7-2.2l20.5-37c.4-.7 2.3-2 2.3-2s.1 0 .1-.1z"/><path class="st18" d="M129.4 87.7v-.4c.5-1 3.6-.3 6.9 1.6 1.5.9 2.8 1.8 3.7 2.7-.9-1-2.4-2.1-4.1-3.1-3.3-1.8-6.4-2.5-6.9-1.6v.1c0 .1-.1.2 0 .3v.8c.1.5.2 1 .3 1.4.1-.9.1-1.8.1-1.8z"/><linearGradient id="SVGID_1_" gradientUnits="userSpaceOnUse" x1="234.504" y1="923.125" x2="234.615" y2="923.101" gradientTransform="matrix(113.8019 15.8128 28.5129 -205.2031 -52884.473 185803.89)"><stop offset="0" stop-color="#a2a6ad"/><stop offset="1" stop-color="#fff"/></linearGradient><path d="M129.4 87.7v-.4c.5-1 3.6-.3 6.9 1.6 1.5.9 2.8 1.8 3.7 2.7-.9-1-2.4-2.1-4.1-3.1-3.3-1.8-6.4-2.5-6.9-1.6v.1c0 .1-.1.2 0 .3v.8c.1.5.2 1 .3 1.4.1-.9.1-1.8.1-1.8z" fill="url(#SVGID_1_)"/><path class="st18" d="M107.4 129.4c-.2 1.8.5 3.7 1.9 4.9-.3-.3-.5-.5-.7-.8-.9-1.2-1.3-2.7-1.2-4.1z"/><linearGradient id="SVGID_2_" gradientUnits="userSpaceOnUse" x1="234.452" y1="922.881" x2="234.563" y2="922.858" gradientTransform="matrix(113.8019 15.8128 28.5129 -205.2031 -52884.473 185803.89)"><stop offset="0" stop-color="#a2a6ad"/><stop offset="1" stop-color="#fff"/></linearGradient><path d="M107.4 129.4c-.2 1.8.5 3.7 1.9 4.9-.3-.3-.5-.5-.7-.8-.9-1.2-1.3-2.7-1.2-4.1z" fill="url(#SVGID_2_)"/><path class="st18" d="M118 132.8l20.5-37c.4-.7 2.3-2 2.3-2 .1-.1.2-.1.2-.2.2-.4-.1-1.1-.9-1.9-.9-.9-2.2-1.8-3.7-2.7-3.3-1.8-6.4-2.5-6.9-1.6v.1c0 .1-.1.2 0 .3 0 0 0 .9-.1 1.8.5 1.8 1.5 3 1.5 3l-9.1 16.5c1.8-.8 3.2-.4 5.2-.9 2-.6 4.4-2.7 4.4-2.7L116.5 132c-1.1 1.9-3.5 2.6-5.5 1.5-.2-.1-.4-.3-.6-.4.3.8.7 1.5 1.3 2.2-.5-.1-1-.3-1.5-.5-.6-.3-1.2-.8-1.6-1.3.2.3.4.6.7.8.3.2.6.5.9.6 2.8 1.5 6.2.6 7.8-2.1zm13.1-44.5c.3-.5 2.2-.1 4.2 1.1 2 1.1 3.4 2.5 3.1 3-.3.5-2.2.1-4.2-1.1-2-1.1-3.4-2.5-3.1-3z"/><path class="st21" d="M118 132.8l20.5-37c.4-.7 2.3-2 2.3-2 .1-.1.2-.1.2-.2.2-.4-.1-1.1-.9-1.9-.9-.9-2.2-1.8-3.7-2.7-3.3-1.8-6.4-2.5-6.9-1.6v.1c0 .1-.1.2 0 .3 0 0 0 .9-.1 1.8.5 1.8 1.5 3 1.5 3l-9.1 16.5c1.8-.8 3.2-.4 5.2-.9 2-.6 4.4-2.7 4.4-2.7L116.5 132c-1.1 1.9-3.5 2.6-5.5 1.5-.2-.1-.4-.3-.6-.4.3.8.7 1.5 1.3 2.2-.5-.1-1-.3-1.5-.5-.6-.3-1.2-.8-1.6-1.3.2.3.4.6.7.8.3.2.6.5.9.6 2.8 1.5 6.2.6 7.8-2.1zm13.1-44.5c.3-.5 2.2-.1 4.2 1.1 2 1.1 3.4 2.5 3.1 3-.3.5-2.2.1-4.2-1.1-2-1.1-3.4-2.5-3.1-3z"/><linearGradient id="SVGID_3_" gradientUnits="userSpaceOnUse" x1="234.478" y1="923.003" x2="234.589" y2="922.98" gradientTransform="matrix(113.8019 15.8128 28.5129 -205.2031 -52884.473 185803.89)"><stop offset="0" stop-color="#a2a6ad"/><stop offset="1" stop-color="#fff"/></linearGradient><path d="M118 132.8l20.5-37c.4-.7 2.3-2 2.3-2 .1-.1.2-.1.2-.2.2-.4-.1-1.1-.9-1.9-.9-.9-2.2-1.8-3.7-2.7-3.3-1.8-6.4-2.5-6.9-1.6v.1c0 .1-.1.2 0 .3 0 0 0 .9-.1 1.8.5 1.8 1.5 3 1.5 3l-9.1 16.5c1.8-.8 3.2-.4 5.2-.9 2-.6 4.4-2.7 4.4-2.7L116.5 132c-1.1 1.9-3.5 2.6-5.5 1.5-.2-.1-.4-.3-.6-.4.3.8.7 1.5 1.3 2.2-.5-.1-1-.3-1.5-.5-.6-.3-1.2-.8-1.6-1.3.2.3.4.6.7.8.3.2.6.5.9.6 2.8 1.5 6.2.6 7.8-2.1zm13.1-44.5c.3-.5 2.2-.1 4.2 1.1 2 1.1 3.4 2.5 3.1 3-.3.5-2.2.1-4.2-1.1-2-1.1-3.4-2.5-3.1-3z" fill="url(#SVGID_3_)"/><path class="st18" d="M117.3 116.9c-.1 0-.1 0 0 0l-1.6 2.9h.2c.4 0 .7.3.7.7 0 .4-.3.7-.7.7-.3 0-.5-.2-.6-.5l-4.4 8c-.8 1.5-.8 3.1-.4 4.5.2.1.4.3.6.4 2 1.1 4.4.4 5.5-1.5l14.8-26.7s-2.4 2.1-4.4 2.7c-2 .6-3.4.2-5.2.9l-4.1 7.4c-.2.2-.3.4-.4.5zm5.7-2.2c.4 0 .7.3.7.7 0 .4-.3.7-.7.7-.4 0-.7-.3-.7-.7 0-.5.3-.7.7-.7zm-5.3 11.4c-.2 0-.4-.2-.4-.4s.2-.4.4-.4.4.2.4.4c.1.2-.1.4-.4.4zm2.9-14.8c.2 0 .4.2.4.4s-.2.4-.4.4-.4-.2-.4-.4c-.1-.2.1-.4.4-.4zm-1.2 7.2c0 .7-.6 1.3-1.3 1.3s-1.3-.6-1.3-1.3c0-.7.6-1.3 1.3-1.3s1.3.6 1.3 1.3z"/><path class="st21" d="M117.3 116.9c-.1 0-.1 0 0 0l-1.6 2.9h.2c.4 0 .7.3.7.7 0 .4-.3.7-.7.7-.3 0-.5-.2-.6-.5l-4.4 8c-.8 1.5-.8 3.1-.4 4.5.2.1.4.3.6.4 2 1.1 4.4.4 5.5-1.5l14.8-26.7s-2.4 2.1-4.4 2.7c-2 .6-3.4.2-5.2.9l-4.1 7.4c-.2.2-.3.4-.4.5zm5.7-2.2c.4 0 .7.3.7.7 0 .4-.3.7-.7.7-.4 0-.7-.3-.7-.7 0-.5.3-.7.7-.7zm-5.3 11.4c-.2 0-.4-.2-.4-.4s.2-.4.4-.4.4.2.4.4c.1.2-.1.4-.4.4zm2.9-14.8c.2 0 .4.2.4.4s-.2.4-.4.4-.4-.2-.4-.4c-.1-.2.1-.4.4-.4zm-1.2 7.2c0 .7-.6 1.3-1.3 1.3s-1.3-.6-1.3-1.3c0-.7.6-1.3 1.3-1.3s1.3.6 1.3 1.3z"/><linearGradient id="SVGID_4_" gradientUnits="userSpaceOnUse" x1="234.47" y1="922.966" x2="234.581" y2="922.942" gradientTransform="matrix(113.8019 15.8128 28.5129 -205.2031 -52884.473 185803.89)"><stop offset="0" stop-color="#a2a6ad"/><stop offset="1" stop-color="#fff"/></linearGradient><path d="M117.3 116.9c-.1 0-.1 0 0 0l-1.6 2.9h.2c.4 0 .7.3.7.7 0 .4-.3.7-.7.7-.3 0-.5-.2-.6-.5l-4.4 8c-.8 1.5-.8 3.1-.4 4.5.2.1.4.3.6.4 2 1.1 4.4.4 5.5-1.5l14.8-26.7s-2.4 2.1-4.4 2.7c-2 .6-3.4.2-5.2.9l-4.1 7.4c-.2.2-.3.4-.4.5zm5.7-2.2c.4 0 .7.3.7.7 0 .4-.3.7-.7.7-.4 0-.7-.3-.7-.7 0-.5.3-.7.7-.7zm-5.3 11.4c-.2 0-.4-.2-.4-.4s.2-.4.4-.4.4.2.4.4c.1.2-.1.4-.4.4zm2.9-14.8c.2 0 .4.2.4.4s-.2.4-.4.4-.4-.2-.4-.4c-.1-.2.1-.4.4-.4zm-1.2 7.2c0 .7-.6 1.3-1.3 1.3s-1.3-.6-1.3-1.3c0-.7.6-1.3 1.3-1.3s1.3.6 1.3 1.3z" fill="url(#SVGID_4_)"/><linearGradient id="SVGID_5_" gradientUnits="userSpaceOnUse" x1="232.13" y1="922.245" x2="232.23" y2="922.221" gradientTransform="matrix(75.8036 10.5329 17.3093 -124.5722 -33443.95 112557.578)"><stop offset="0" stop-color="#a32c1f"/><stop offset="1" stop-color="#d72c1d"/></linearGradient><path d="M117.3 116.9c-.1 0-.1 0 0 0l-1.6 2.9h.2c.4 0 .7.3.7.7 0 .4-.3.7-.7.7-.3 0-.5-.2-.6-.5l-4.4 8c-.8 1.5-.8 3.1-.4 4.5.2.1.4.3.6.4 2 1.1 4.4.4 5.5-1.5l14.8-26.7s-2.4 2.1-4.4 2.7c-2 .6-3.4.2-5.2.9l-4.1 7.4c-.2.2-.3.4-.4.5zm5.7-2.2c.4 0 .7.3.7.7 0 .4-.3.7-.7.7-.4 0-.7-.3-.7-.7 0-.5.3-.7.7-.7zm-5.3 11.4c-.2 0-.4-.2-.4-.4s.2-.4.4-.4.4.2.4.4c.1.2-.1.4-.4.4zm2.9-14.8c.2 0 .4.2.4.4s-.2.4-.4.4-.4-.2-.4-.4c-.1-.2.1-.4.4-.4zm-1.2 7.2c0 .7-.6 1.3-1.3 1.3s-1.3-.6-1.3-1.3c0-.7.6-1.3 1.3-1.3s1.3.6 1.3 1.3z" fill="url(#SVGID_5_)"/><ellipse transform="rotate(-61.118 134.8 90.334)" cx="134.8" cy="90.3" rx="1.1" ry="4.2" fill="#4c5151"/><path class="st18" d="M128.5 90.3c.3-.5.4-1.5.4-2.2 0-.3-.1-.5-.1-.8.1 0 .1 2.1-.3 3l-15.6 28.1s.1 0 .1-.1l15.5-28z"/><path class="st28" d="M128.5 90.3c.3-.5.4-1.5.4-2.2 0-.3-.1-.5-.1-.8.1 0 .1 2.1-.3 3l-15.6 28.1s.1 0 .1-.1l15.5-28z"/><path class="st18" d="M111.6 120.9l-3.5 6.3c-.4.7-.6 1.4-.7 2.2.1-.7.3-1.4.6-2l3.6-6.5z"/><path class="st28" d="M111.6 120.9l-3.5 6.3c-.4.7-.6 1.4-.7 2.2.1-.7.3-1.4.6-2l3.6-6.5z"/><path class="st18" d="M113 118.4l.9-.6 15-27.1c.2-.3.3-.7.3-1.2-.1-.4-.2-.9-.3-1.4 0 .7-.1 1.7-.4 2.2L113 118.4z"/><linearGradient id="SVGID_6_" gradientUnits="userSpaceOnUse" x1="234.485" y1="923.035" x2="234.596" y2="923.012" gradientTransform="matrix(113.8019 15.8128 28.5129 -205.2031 -52884.473 185803.89)"><stop offset="0" stop-color="#a2a6ad"/><stop offset="1" stop-color="#fff"/></linearGradient><path d="M113 118.4l.9-.6 15-27.1c.2-.3.3-.7.3-1.2-.1-.4-.2-.9-.3-1.4 0 .7-.1 1.7-.4 2.2L113 118.4z" fill="url(#SVGID_6_)"/><path class="st28" d="M113 118.4l.9-.6 15-27.1c.2-.3.3-.7.3-1.2-.1-.4-.2-.9-.3-1.4 0 .7-.1 1.7-.4 2.2L113 118.4z"/><path class="st18" d="M108.7 133.5c-1.1-1.7-1.3-3.9-.3-5.7l4.1-7.4c-.3.2-.6.4-.9.5l-3.6 6.4c-.4.7-.6 1.3-.6 2-.1 1.5.3 3 1.3 4.2z"/><linearGradient id="SVGID_7_" gradientUnits="userSpaceOnUse" x1="234.458" y1="922.908" x2="234.569" y2="922.885" gradientTransform="matrix(113.8019 15.8128 28.5129 -205.2031 -52884.473 185803.89)"><stop offset="0" stop-color="#a2a6ad"/><stop offset="1" stop-color="#fff"/></linearGradient><path d="M108.7 133.5c-1.1-1.7-1.3-3.9-.3-5.7l4.1-7.4c-.3.2-.6.4-.9.5l-3.6 6.4c-.4.7-.6 1.3-.6 2-.1 1.5.3 3 1.3 4.2z" fill="url(#SVGID_7_)"/><path class="st28" d="M108.7 133.5c-1.1-1.7-1.3-3.9-.3-5.7l4.1-7.4c-.3.2-.6.4-.9.5l-3.6 6.4c-.4.7-.6 1.3-.6 2-.1 1.5.3 3 1.3 4.2z"/><path class="st18" d="M109.3 128.1l4.9-8.8c-.5.4-1.1.7-1.7 1.1l-4.1 7.4c-1 1.9-.8 4.1.3 5.7.4.5 1 1 1.6 1.3.5.3.9.5 1.5.5-.6-.6-1.1-1.4-1.3-2.2-1.6-1.1-2.1-3.3-1.2-5z"/><path class="st21" d="M109.3 128.1l4.9-8.8c-.5.4-1.1.7-1.7 1.1l-4.1 7.4c-1 1.9-.8 4.1.3 5.7.4.5 1 1 1.6 1.3.5.3.9.5 1.5.5-.6-.6-1.1-1.4-1.3-2.2-1.6-1.1-2.1-3.3-1.2-5z"/><linearGradient id="SVGID_8_" gradientUnits="userSpaceOnUse" x1="234.459" y1="922.912" x2="234.569" y2="922.888" gradientTransform="matrix(113.8019 15.8128 28.5129 -205.2031 -52884.473 185803.89)"><stop offset="0" stop-color="#a2a6ad"/><stop offset="1" stop-color="#fff"/></linearGradient><path d="M109.3 128.1l4.9-8.8c-.5.4-1.1.7-1.7 1.1l-4.1 7.4c-1 1.9-.8 4.1.3 5.7.4.5 1 1 1.6 1.3.5.3.9.5 1.5.5-.6-.6-1.1-1.4-1.3-2.2-1.6-1.1-2.1-3.3-1.2-5z" fill="url(#SVGID_8_)"/><path class="st28" d="M109.3 128.1l4.9-8.8c-.5.4-1.1.7-1.7 1.1l-4.1 7.4c-1 1.9-.8 4.1.3 5.7.4.5 1 1 1.6 1.3.5.3.9.5 1.5.5-.6-.6-1.1-1.4-1.3-2.2-1.6-1.1-2.1-3.3-1.2-5z"/><path class="st18" d="M113.9 117.8c.6-.4 1.2-.8 1.7-1.1l3.1-5.6s1-1.3 2.9-2l9.1-16.5s-.9-1.2-1.5-3c-.1.5-.2.9-.3 1.2l-15 27z"/><path class="st21" d="M113.9 117.8c.6-.4 1.2-.8 1.7-1.1l3.1-5.6s1-1.3 2.9-2l9.1-16.5s-.9-1.2-1.5-3c-.1.5-.2.9-.3 1.2l-15 27z"/><linearGradient id="SVGID_9_" gradientUnits="userSpaceOnUse" x1="234.485" y1="923.035" x2="234.596" y2="923.011" gradientTransform="matrix(113.8019 15.8128 28.5129 -205.2031 -52884.473 185803.89)"><stop offset="0" stop-color="#a2a6ad"/><stop offset="1" stop-color="#fff"/></linearGradient><path d="M113.9 117.8c.6-.4 1.2-.8 1.7-1.1l3.1-5.6s1-1.3 2.9-2l9.1-16.5s-.9-1.2-1.5-3c-.1.5-.2.9-.3 1.2l-15 27z" fill="url(#SVGID_9_)"/><path class="st28" d="M113.9 117.8c.6-.4 1.2-.8 1.7-1.1l3.1-5.6s1-1.3 2.9-2l9.1-16.5s-.9-1.2-1.5-3c-.1.5-.2.9-.3 1.2l-15 27z"/><path class="st18" d="M118.7 111l-3.1 5.6c.4-.3.7-.5.9-.7.8-.6.8.1.3.4-.4.3-.9.7-1.5 1.2.7-.5 1.2-.8 1.5-1.1.4-.3.6-.3.6-.1l4.1-7.4c-1.7.8-2.8 2.1-2.8 2.1z"/><path class="st21" d="M118.7 111l-3.1 5.6c.4-.3.7-.5.9-.7.8-.6.8.1.3.4-.4.3-.9.7-1.5 1.2.7-.5 1.2-.8 1.5-1.1.4-.3.6-.3.6-.1l4.1-7.4c-1.7.8-2.8 2.1-2.8 2.1z"/><linearGradient id="SVGID_10_" gradientUnits="userSpaceOnUse" x1="234.475" y1="922.986" x2="234.585" y2="922.962" gradientTransform="matrix(113.8019 15.8128 28.5129 -205.2031 -52884.473 185803.89)"><stop offset="0" stop-color="#a2a6ad"/><stop offset="1" stop-color="#fff"/></linearGradient><path d="M118.7 111l-3.1 5.6c.4-.3.7-.5.9-.7.8-.6.8.1.3.4-.4.3-.9.7-1.5 1.2.7-.5 1.2-.8 1.5-1.1.4-.3.6-.3.6-.1l4.1-7.4c-1.7.8-2.8 2.1-2.8 2.1z" fill="url(#SVGID_10_)"/><linearGradient id="SVGID_11_" gradientUnits="userSpaceOnUse" x1="232.137" y1="922.278" x2="232.238" y2="922.255" gradientTransform="matrix(75.8036 10.5329 17.3093 -124.5722 -33443.95 112557.578)"><stop offset="0" stop-color="#a32c1f"/><stop offset="1" stop-color="#d72c1d"/></linearGradient><path d="M118.7 111l-3.1 5.6c.4-.3.7-.5.9-.7.8-.6.8.1.3.4-.4.3-.9.7-1.5 1.2.7-.5 1.2-.8 1.5-1.1.4-.3.6-.3.6-.1l4.1-7.4c-1.7.8-2.8 2.1-2.8 2.1z" fill="url(#SVGID_11_)"/><path class="st28" d="M118.7 111l-3.1 5.6c.4-.3.7-.5.9-.7.8-.6.8.1.3.4-.4.3-.9.7-1.5 1.2.7-.5 1.2-.8 1.5-1.1.4-.3.6-.3.6-.1l4.1-7.4c-1.7.8-2.8 2.1-2.8 2.1z"/><path class="st18" d="M110.8 128.7l4.4-8v-.2c0-.3.2-.5.5-.6l1.6-2.9c-.7.6-1.8 1.4-3 2.3l-4.9 8.8c-.9 1.7-.4 3.9 1.1 5.1-.6-1.5-.5-3.1.3-4.5z"/><path class="st21" d="M110.8 128.7l4.4-8v-.2c0-.3.2-.5.5-.6l1.6-2.9c-.7.6-1.8 1.4-3 2.3l-4.9 8.8c-.9 1.7-.4 3.9 1.1 5.1-.6-1.5-.5-3.1.3-4.5z"/><linearGradient id="SVGID_12_" gradientUnits="userSpaceOnUse" x1="234.461" y1="922.924" x2="234.572" y2="922.9" gradientTransform="matrix(113.8019 15.8128 28.5129 -205.2031 -52884.473 185803.89)"><stop offset="0" stop-color="#a2a6ad"/><stop offset="1" stop-color="#fff"/></linearGradient><path d="M110.8 128.7l4.4-8v-.2c0-.3.2-.5.5-.6l1.6-2.9c-.7.6-1.8 1.4-3 2.3l-4.9 8.8c-.9 1.7-.4 3.9 1.1 5.1-.6-1.5-.5-3.1.3-4.5z" fill="url(#SVGID_12_)"/><linearGradient id="SVGID_13_" gradientUnits="userSpaceOnUse" x1="232.114" y1="922.177" x2="232.214" y2="922.153" gradientTransform="matrix(75.8036 10.5329 17.3093 -124.5722 -33443.95 112557.578)"><stop offset="0" stop-color="#a32c1f"/><stop offset="1" stop-color="#d72c1d"/></linearGradient><path d="M110.8 128.7l4.4-8v-.2c0-.3.2-.5.5-.6l1.6-2.9c-.7.6-1.8 1.4-3 2.3l-4.9 8.8c-.9 1.7-.4 3.9 1.1 5.1-.6-1.5-.5-3.1.3-4.5z" fill="url(#SVGID_13_)"/><path class="st28" d="M110.8 128.7l4.4-8v-.2c0-.3.2-.5.5-.6l1.6-2.9c-.7.6-1.8 1.4-3 2.3l-4.9 8.8c-.9 1.7-.4 3.9 1.1 5.1-.6-1.5-.5-3.1.3-4.5z"/><circle class="st0" cx="120.6" cy="111.8" r=".4"/><circle class="st0" cx="123" cy="115.3" r=".7"/><circle class="st0" cx="118.1" cy="118.5" r="1.3"/><path class="st0" d="M115.2 120.5v.2c.1.3.3.5.6.5.4 0 .7-.3.7-.7 0-.4-.3-.7-.7-.7h-.2c-.2.1-.4.4-.4.7z"/><circle class="st0" cx="117.7" cy="125.7" r=".4"/><path class="st18" d="M52.8 107.9c-.5.1-1.1.3-1.7.4-1.1.2-2.1.3-2.6.2-.9-.1-.9.3-.1.4 1.2.2 3.3 0 4.7-.5 3.4-1.1 4.6-3.4 3.1-4.8 1 1.3-.4 3.3-3.4 4.3z"/><path class="st21" d="M52.8 107.9c-.5.1-1.1.3-1.7.4-1.1.2-2.1.3-2.6.2-.9-.1-.9.3-.1.4 1.2.2 3.3 0 4.7-.5 3.4-1.1 4.6-3.4 3.1-4.8 1 1.3-.4 3.3-3.4 4.3z"/><path class="st18" d="M52.2 103.6c-2.5.8-5.8 3.6-6.7 6.2-.4 1.1-.2 2.1.4 2.7-.3-.6-.3-1.4-.1-2.3.9-2.6 4.1-5.4 6.7-6.2 1.2-.3 2.1-.2 2.6.2-.2-.6-1.3-1-2.9-.6z"/><path class="st21" d="M52.2 103.6c-2.5.8-5.8 3.6-6.7 6.2-.4 1.1-.2 2.1.4 2.7-.3-.6-.3-1.4-.1-2.3.9-2.6 4.1-5.4 6.7-6.2 1.2-.3 2.1-.2 2.6.2-.2-.6-1.3-1-2.9-.6z"/><path class="st18" d="M115.3 100.2c-.5.2-.9.4-1.2.6-.4.3-.2.5.2.3l.9-.3c.3-.1.4-.1.6-.1.1-.3 0-.5-.5-.5z"/><path class="st21" d="M115.3 100.2c-.5.2-.9.4-1.2.6-.4.3-.2.5.2.3l.9-.3c.3-.1.4-.1.6-.1.1-.3 0-.5-.5-.5z"/><path class="st18" d="M103.4 114.9c-.2.1-.3.2-.5.3-2.9 2.1-7.2 4.9-10.5 4-.7-.2-1.2-.5-1.5-.8.3.6.9 1.1 1.9 1.3 3.2.9 7.6-1.9 10.5-4 .3-.5.6-1 .9-1.4-.2.3-.5.5-.8.6z"/><path class="st21" d="M103.4 114.9c-.2.1-.3.2-.5.3-2.9 2.1-7.2 4.9-10.5 4-.7-.2-1.2-.5-1.5-.8.3.6.9 1.1 1.9 1.3 3.2.9 7.6-1.9 10.5-4 .3-.5.6-1 .9-1.4-.2.3-.5.5-.8.6z"/><path class="st18" d="M120.9 101.8c-1.6 1.9-6.4 5.5-8.7 7.6-.9.8-9.7 9.8-7.3 11.3-.7-2.4 6.9-10.1 7.7-10.9 2.3-2.2 7.1-5.7 8.7-7.6.8-1.1 1.1-2 .4-2.6.2.7-.1 1.5-.8 2.2z"/><path class="st21" d="M120.9 101.8c-1.6 1.9-6.4 5.5-8.7 7.6-.9.8-9.7 9.8-7.3 11.3-.7-2.4 6.9-10.1 7.7-10.9 2.3-2.2 7.1-5.7 8.7-7.6.8-1.1 1.1-2 .4-2.6.2.7-.1 1.5-.8 2.2z"/><path class="st18" d="M109 99.2c-1.6 1.9-6.4 5.5-8.7 7.6-.9.8-9.7 9.8-7.3 11.3-.7-2.4 6.9-10.1 7.7-10.9 2.2-2.1 7.1-5.7 8.7-7.6.8-1.1 1.1-2 .4-2.6.1.7-.2 1.4-.8 2.2z"/><path class="st21" d="M109 99.2c-1.6 1.9-6.4 5.5-8.7 7.6-.9.8-9.7 9.8-7.3 11.3-.7-2.4 6.9-10.1 7.7-10.9 2.2-2.1 7.1-5.7 8.7-7.6.8-1.1 1.1-2 .4-2.6.1.7-.2 1.4-.8 2.2z"/><path class="st18" d="M104.4 122c-.7-.2-1.2-.5-1.5-.8.3.6.9 1.1 1.9 1.3 2 .6 4.5-.3 6.8-1.6l.6-1.1c-2.6 1.6-5.5 2.9-7.8 2.2z"/><path class="st21" d="M104.4 122c-.7-.2-1.2-.5-1.5-.8.3.6.9 1.1 1.9 1.3 2 .6 4.5-.3 6.8-1.6l.6-1.1c-2.6 1.6-5.5 2.9-7.8 2.2z"/><path class="st18" d="M58.9 108.7c-.3.3-.7.5-1 .7l-.3.3c-.5.3-1 .6-1.6 1-3.2 2.1-6.8 3.9-10.4 3.4-1.3-.2-2.4-.7-3.1-1.4.7 1 1.9 1.6 3.5 1.9 4.4.6 8.7-2.2 12.3-4.7.2-.1.4-.2.5-.4l.6-1.2c-.2.2-.4.3-.5.4z"/><path class="st21" d="M58.9 108.7c-.3.3-.7.5-1 .7l-.3.3c-.5.3-1 .6-1.6 1-3.2 2.1-6.8 3.9-10.4 3.4-1.3-.2-2.4-.7-3.1-1.4.7 1 1.9 1.6 3.5 1.9 4.4.6 8.7-2.2 12.3-4.7.2-.1.4-.2.5-.4l.6-1.2c-.2.2-.4.3-.5.4z"/><path class="st18" d="M103.4 97.5c-.5.2-.9.4-1.2.6-.4.3-.2.5.2.3l.9-.3c.3-.1.4-.1.6-.1 0-.3-.1-.5-.5-.5z"/><path class="st21" d="M103.4 97.5c-.5.2-.9.4-1.2.6-.4.3-.2.5.2.3l.9-.3c.3-.1.4-.1.6-.1 0-.3-.1-.5-.5-.5z"/><path class="st18" d="M41 100.5c0-.1 0-.1-.1-.2 0 .1 0 .1.1.2z"/><path class="st21" d="M41 100.5c0-.1 0-.1-.1-.2 0 .1 0 .1.1.2z"/><path class="st18" d="M79.4 106.3c-1 .5-2.1 1.2-3.1 2-1.1.9-2.3 1.8-3.3 2.4-.5.3-.5.9 0 .6 1.6-.9 4.4-3.2 6.8-4.5.7-.4 1.2-.5 1.6-.5 0-.6-.6-.8-2 0z"/><path class="st21" d="M79.4 106.3c-1 .5-2.1 1.2-3.1 2-1.1.9-2.3 1.8-3.3 2.4-.5.3-.5.9 0 .6 1.6-.9 4.4-3.2 6.8-4.5.7-.4 1.2-.5 1.6-.5 0-.6-.6-.8-2 0z"/><path class="st18" d="M37.3 105.6c-.2.2 0 .7.3.5.3-.2.7-.4 1.1-.7.4-.6.8-1.2 1.2-1.7-1 .9-2.1 1.6-2.6 1.9z"/><path class="st21" d="M37.3 105.6c-.2.2 0 .7.3.5.3-.2.7-.4 1.1-.7.4-.6.8-1.2 1.2-1.7-1 .9-2.1 1.6-2.6 1.9z"/><path class="st18" d="M94.6 105.2c1.4.4 1.6-.8.8-1.4.3.6-.1 1.2-1.2 1-.6-.2-1.5-.2-2.7 1.6-2.5 3.9-4.3 11.3-11.6 17.1-3.6 2.9-8.5 4.9-13.1 4.3-2.5-.3-4.6-1.3-6-2.9 1.3 1.9 3.7 3 6.4 3.4 4.7.6 9.5-1.4 13.1-4.3 7.3-5.8 9.1-13.2 11.6-17.1 1.2-1.9 2.1-1.9 2.7-1.7z"/><path class="st21" d="M94.6 105.2c1.4.4 1.6-.8.8-1.4.3.6-.1 1.2-1.2 1-.6-.2-1.5-.2-2.7 1.6-2.5 3.9-4.3 11.3-11.6 17.1-3.6 2.9-8.5 4.9-13.1 4.3-2.5-.3-4.6-1.3-6-2.9 1.3 1.9 3.7 3 6.4 3.4 4.7.6 9.5-1.4 13.1-4.3 7.3-5.8 9.1-13.2 11.6-17.1 1.2-1.9 2.1-1.9 2.7-1.7z"/><path class="st18" d="M61.5 124.6c-.9-1.1-1.4-2.4-1.5-3.9 0-.3-.2-.4-.4-.3.2 1.7.8 3.1 1.9 4.2z"/><path class="st21" d="M61.5 124.6c-.9-1.1-1.4-2.4-1.5-3.9 0-.3-.2-.4-.4-.3.2 1.7.8 3.1 1.9 4.2z"/><path class="st18" d="M80.4 97.1c-2.7 1.9-6.9 4-10 4.9-.4.3-.1.6.4.5 3.1-.9 7.4-3 10-4.9 4-2.9 4.7-5.9 3.2-7.3.9 1.5.1 4.2-3.6 6.8z"/><path class="st21" d="M80.4 97.1c-2.7 1.9-6.9 4-10 4.9-.4.3-.1.6.4.5 3.1-.9 7.4-3 10-4.9 4-2.9 4.7-5.9 3.2-7.3.9 1.5.1 4.2-3.6 6.8z"/><path class="st18" d="M74 105.6c-.3 1.1-1.2 2.4-3.1 3.5-1.7.9-4.6 1.4-6.7 1.1-.5 0-.8-.1-1.1-.3-.1-.1-.3-.1-.4-.2.3.5.6.9 1 1.4l-.6-.9c1.9 1 6.1.5 8.2-.6 2-1 2.9-2.4 3.1-3.5.2-.8 0-1.5-.6-2 .2.4.3.9.2 1.5z"/><path class="st21" d="M74 105.6c-.3 1.1-1.2 2.4-3.1 3.5-1.7.9-4.6 1.4-6.7 1.1-.5 0-.8-.1-1.1-.3-.1-.1-.3-.1-.4-.2.3.5.6.9 1 1.4l-.6-.9c1.9 1 6.1.5 8.2-.6 2-1 2.9-2.4 3.1-3.5.2-.8 0-1.5-.6-2 .2.4.3.9.2 1.5z"/><path class="st18" d="M76.3 94.5c-5.3 3.5-11 9.4-14 13.1 1.1-1.1 2.1-1.9 3.1-2.6 3.1-3.4 7.3-7.4 11.3-10 3.2-2.1 5.5-2.8 6.4-2.5-.1-1.1-2.8-.7-6.8 2z"/><path class="st21" d="M76.3 94.5c-5.3 3.5-11 9.4-14 13.1 1.1-1.1 2.1-1.9 3.1-2.6 3.1-3.4 7.3-7.4 11.3-10 3.2-2.1 5.5-2.8 6.4-2.5-.1-1.1-2.8-.7-6.8 2z"/><path class="st18" d="M81.8 114.9c-.2.1-.3.2-.5.3-1.7 1.1-3.4 1.9-4.6 1.7-.6-.1-1-.3-1.4-.6.3.6.9.9 1.7 1.1 2.4.3 6.6-2.9 9.5-5.6.6-.8 1.2-1.6 1.7-2.4-2 2.1-4.5 4.3-6.4 5.5z"/><path class="st21" d="M81.8 114.9c-.2.1-.3.2-.5.3-1.7 1.1-3.4 1.9-4.6 1.7-.6-.1-1-.3-1.4-.6.3.6.9.9 1.7 1.1 2.4.3 6.6-2.9 9.5-5.6.6-.8 1.2-1.6 1.7-2.4-2 2.1-4.5 4.3-6.4 5.5z"/><path class="st18" d="M12.2 114c0-.2-.2-.4-.3-.3.1 1.4.6 2.7 1.4 3.7-.6-1-1-2.2-1.1-3.4z"/><path class="st21" d="M12.2 114c0-.2-.2-.4-.3-.3.1 1.4.6 2.7 1.4 3.7-.6-1-1-2.2-1.1-3.4z"/><path class="st18" d="M90.2 113.2c-.6.4-.3.8.2.5.3-.1.6-.3 1-.6.3-.5.6-1 .9-1.4-.7.6-1.5 1.1-2.1 1.5z"/><path class="st21" d="M90.2 113.2c-.6.4-.3.8.2.5.3-.1.6-.3 1-.6.3-.5.6-1 .9-1.4-.7.6-1.5 1.1-2.1 1.5z"/><path class="st18" d="M65.6 106.4c2.6-1.7 4.3-1.8 5-1.2-.5-1.1-2.3-1.4-5.4.7-.2.2-.5.3-.7.5-.6.5-1.2 1-1.8 1.6.2-.3.5-.5.7-.8-.5.4-1 .8-1.4 1.2.1.2.2.5.3.7l.2.2h.1c-.1-.1-.1-.3-.1-.4.9-1 2-1.7 3.1-2.5z"/><path class="st21" d="M65.6 106.4c2.6-1.7 4.3-1.8 5-1.2-.5-1.1-2.3-1.4-5.4.7-.2.2-.5.3-.7.5-.6.5-1.2 1-1.8 1.6.2-.3.5-.5.7-.8-.5.4-1 .8-1.4 1.2.1.2.2.5.3.7l.2.2h.1c-.1-.1-.1-.3-.1-.4.9-1 2-1.7 3.1-2.5z"/><path class="st18" d="M60.1 110.7c-1.7 3-2.4 6.3-1.7 7.5.1.3-.1.4-.3.2 0-.1-.1-.1-.2-.2.2.2.4.5.5.7.1.1.4.1.3-.2-.8-1.2-.1-4.4 1.6-7.3 0-.3-.1-.5-.2-.7z"/><path class="st21" d="M60.1 110.7c-1.7 3-2.4 6.3-1.7 7.5.1.3-.1.4-.3.2 0-.1-.1-.1-.2-.2.2.2.4.5.5.7.1.1.4.1.3-.2-.8-1.2-.1-4.4 1.6-7.3 0-.3-.1-.5-.2-.7z"/><path class="st18" d="M83.4 109.3c-.9 1.4-2.4 2.6-3.5 3.9-1.6 1.7-1.7 2.4-1 2.4.1-.4.5-1 1.4-1.9 1.2-1.2 2.6-2.5 3.5-3.9 1-1.6.8-2.9 0-3.7.5.8.5 1.9-.4 3.2z"/><path class="st21" d="M83.4 109.3c-.9 1.4-2.4 2.6-3.5 3.9-1.6 1.7-1.7 2.4-1 2.4.1-.4.5-1 1.4-1.9 1.2-1.2 2.6-2.5 3.5-3.9 1-1.6.8-2.9 0-3.7.5.8.5 1.9-.4 3.2z"/><path class="st18" d="M42.9 101.9c-.1-.6-.3-1.1-.6-1.3.1.2.2.5.2.9.3 3.7-3.7 9.7-9.4 14.6-3.5 3-9.4 5.6-14.1 5-2.5-.3-4.7-1.3-6-3 1.3 2 3.7 3.1 6.4 3.5 4.7.6 10.6-1.9 14.1-5 5.7-5 9.7-11 9.4-14.7z"/><path class="st21" d="M42.9 101.9c-.1-.6-.3-1.1-.6-1.3.1.2.2.5.2.9.3 3.7-3.7 9.7-9.4 14.6-3.5 3-9.4 5.6-14.1 5-2.5-.3-4.7-1.3-6-3 1.3 2 3.7 3.1 6.4 3.5 4.7.6 10.6-1.9 14.1-5 5.7-5 9.7-11 9.4-14.7z"/><path class="st18" d="M61.3 112.6c1.5 2 4.6 4.1 8.2 3.8 1.3-.1 2.5-.7 2.6-1.8 0-.1-.2-.2-.2 0-.1.6-.8 1-1.6 1.1l-1.2.3c-3.3.2-6.2-1.6-7.8-3.4z"/><path class="st21" d="M61.3 112.6c1.5 2 4.6 4.1 8.2 3.8 1.3-.1 2.5-.7 2.6-1.8 0-.1-.2-.2-.2 0-.1.6-.8 1-1.6 1.1l-1.2.3c-3.3.2-6.2-1.6-7.8-3.4z"/><path class="st18" d="M45.8 97.9c-.8.7-1.9.9-2.6.4.1.1.1.3.2.4.6.6 1.8.5 2.7-.3 1-.8 1.3-2 .7-2.6-.1-.1-.1-.1-.2-.1.4.6.1 1.5-.8 2.2z"/><path class="st21" d="M45.8 97.9c-.8.7-1.9.9-2.6.4.1.1.1.3.2.4.6.6 1.8.5 2.7-.3 1-.8 1.3-2 .7-2.6-.1-.1-.1-.1-.2-.1.4.6.1 1.5-.8 2.2z"/><path class="st18" d="M117.3 116.9c.2-.2.3-.4.3-.5l-.3.5c-.1 0-.1 0 0 0z"/><path class="st21" d="M117.3 116.9c.2-.2.3-.4.3-.5l-.3.5c-.1 0-.1 0 0 0z"/><linearGradient id="SVGID_14_" gradientUnits="userSpaceOnUse" x1="234.471" y1="922.969" x2="234.581" y2="922.945" gradientTransform="matrix(113.8019 15.8128 28.5129 -205.2031 -52884.473 185803.89)"><stop offset="0" stop-color="#a2a6ad"/><stop offset="1" stop-color="#fff"/></linearGradient><path d="M117.3 116.9c.2-.2.3-.4.3-.5l-.3.5c-.1 0-.1 0 0 0z" fill="url(#SVGID_14_)"/><linearGradient id="SVGID_15_" gradientUnits="userSpaceOnUse" x1="232.131" y1="922.25" x2="232.231" y2="922.227" gradientTransform="matrix(75.8036 10.5329 17.3093 -124.5722 -33443.95 112557.578)"><stop offset="0" stop-color="#a32c1f"/><stop offset="1" stop-color="#d72c1d"/></linearGradient><path d="M117.3 116.9c.2-.2.3-.4.3-.5l-.3.5c-.1 0-.1 0 0 0z" fill="url(#SVGID_15_)"/><path class="st21" d="M117.3 116.9c.2-.2.3-.4.3-.5l-.3.5c-.1 0-.1 0 0 0z"/><path class="st18" d="M112.2 119.8s-.1 0 0 0l-.7 1.1h.1l.6-1.1z"/><path class="st28" d="M112.2 119.8s-.1 0 0 0l-.7 1.1h.1l.6-1.1z"/><path class="st21" d="M112.2 119.8s-.1 0 0 0l-.7 1.1h.1l.6-1.1z"/><path class="st18" d="M112.2 119.8l-.6 1.1c.3-.2.6-.4.9-.5l.6-1.2c-.2.2-.6.4-.9.6z"/><linearGradient id="SVGID_16_" gradientUnits="userSpaceOnUse" x1="234.465" y1="922.942" x2="234.576" y2="922.919" gradientTransform="matrix(113.8019 15.8128 28.5129 -205.2031 -52884.473 185803.89)"><stop offset="0" stop-color="#a2a6ad"/><stop offset="1" stop-color="#fff"/></linearGradient><path d="M112.2 119.8l-.6 1.1c.3-.2.6-.4.9-.5l.6-1.2c-.2.2-.6.4-.9.6z" fill="url(#SVGID_16_)"/><path class="st28" d="M112.2 119.8l-.6 1.1c.3-.2.6-.4.9-.5l.6-1.2c-.2.2-.6.4-.9.6z"/><path class="st21" d="M112.2 119.8l-.6 1.1c.3-.2.6-.4.9-.5l.6-1.2c-.2.2-.6.4-.9.6z"/><path class="st18" d="M114.9 117.9c-.5.4-1.1.8-1.7 1.2l-.6 1.2c.6-.4 1.1-.7 1.7-1.1l.6-1.3z"/><path class="st21" d="M114.9 117.9c-.5.4-1.1.8-1.7 1.2l-.6 1.2c.6-.4 1.1-.7 1.7-1.1l.6-1.3z"/><linearGradient id="SVGID_17_" gradientUnits="userSpaceOnUse" x1="234.467" y1="922.949" x2="234.577" y2="922.926" gradientTransform="matrix(113.8019 15.8128 28.5129 -205.2031 -52884.473 185803.89)"><stop offset="0" stop-color="#a2a6ad"/><stop offset="1" stop-color="#fff"/></linearGradient><path d="M114.9 117.9c-.5.4-1.1.8-1.7 1.2l-.6 1.2c.6-.4 1.1-.7 1.7-1.1l.6-1.3z" fill="url(#SVGID_17_)"/><path class="st28" d="M114.9 117.9c-.5.4-1.1.8-1.7 1.2l-.6 1.2c.6-.4 1.1-.7 1.7-1.1l.6-1.3z"/><path class="st21" d="M114.9 117.9c-.5.4-1.1.8-1.7 1.2l-.6 1.2c.6-.4 1.1-.7 1.7-1.1l.6-1.3z"/><path class="st18" d="M114.2 119.2c1.3-.9 2.3-1.7 3-2.3l.3-.5c0-.2-.2-.2-.6.1-.3.3-.9.7-1.5 1.1-.1.1-.3.2-.5.3l-.7 1.3z"/><path class="st21" d="M114.2 119.2c1.3-.9 2.3-1.7 3-2.3l.3-.5c0-.2-.2-.2-.6.1-.3.3-.9.7-1.5 1.1-.1.1-.3.2-.5.3l-.7 1.3z"/><linearGradient id="SVGID_18_" gradientUnits="userSpaceOnUse" x1="234.469" y1="922.96" x2="234.58" y2="922.937" gradientTransform="matrix(113.8019 15.8128 28.5129 -205.2031 -52884.473 185803.89)"><stop offset="0" stop-color="#a2a6ad"/><stop offset="1" stop-color="#fff"/></linearGradient><path d="M114.2 119.2c1.3-.9 2.3-1.7 3-2.3l.3-.5c0-.2-.2-.2-.6.1-.3.3-.9.7-1.5 1.1-.1.1-.3.2-.5.3l-.7 1.3z" fill="url(#SVGID_18_)"/><linearGradient id="SVGID_19_" gradientUnits="userSpaceOnUse" x1="232.128" y1="922.236" x2="232.228" y2="922.213" gradientTransform="matrix(75.8036 10.5329 17.3093 -124.5722 -33443.95 112557.578)"><stop offset="0" stop-color="#a32c1f"/><stop offset="1" stop-color="#d72c1d"/></linearGradient><path d="M114.2 119.2c1.3-.9 2.3-1.7 3-2.3l.3-.5c0-.2-.2-.2-.6.1-.3.3-.9.7-1.5 1.1-.1.1-.3.2-.5.3l-.7 1.3z" fill="url(#SVGID_19_)"/><path class="st28" d="M114.2 119.2c1.3-.9 2.3-1.7 3-2.3l.3-.5c0-.2-.2-.2-.6.1-.3.3-.9.7-1.5 1.1-.1.1-.3.2-.5.3l-.7 1.3z"/><path class="st21" d="M114.2 119.2c1.3-.9 2.3-1.7 3-2.3l.3-.5c0-.2-.2-.2-.6.1-.3.3-.9.7-1.5 1.1-.1.1-.3.2-.5.3l-.7 1.3z"/><path class="st18" d="M11.9 113.7v-.2c0-.4-.5-.5-.4 0 .1 1.9.6 3.4 1.6 4.5-.7-1.1-1.2-2.4-1.2-4-.1-.2-.1-.3 0-.3z"/><linearGradient id="SVGID_20_" gradientUnits="userSpaceOnUse" x1="10.913" y1="532.364" x2="10.913" y2="572.666" gradientTransform="rotate(7.904 3284.744 351.818)"><stop offset="0" stop-color="#303331"/><stop offset=".403" stop-color="#63686c"/><stop offset="1" stop-color="#4c5151"/></linearGradient><path d="M11.9 113.7v-.2c0-.4-.5-.5-.4 0 .1 1.9.6 3.4 1.6 4.5-.7-1.1-1.2-2.4-1.2-4-.1-.2-.1-.3 0-.3z" fill="url(#SVGID_20_)"/><path class="st18" d="M69.1 108.9c2-1.1 2.4-3 1.5-3.7.4.9-.2 2.3-1.8 3.2-1.8 1-5.2 1.5-6.2.8 0 .1.1.2.1.3l.2.2s.1 0 .1.1c.3.1.7.2 1.1.3 1.5.1 3.7-.4 5-1.2z"/><linearGradient id="SVGID_21_" gradientUnits="userSpaceOnUse" x1="63.905" y1="532.364" x2="63.905" y2="572.666" gradientTransform="rotate(7.904 3284.744 351.818)"><stop offset="0" stop-color="#303331"/><stop offset=".403" stop-color="#63686c"/><stop offset="1" stop-color="#4c5151"/></linearGradient><path d="M69.1 108.9c2-1.1 2.4-3 1.5-3.7.4.9-.2 2.3-1.8 3.2-1.8 1-5.2 1.5-6.2.8 0 .1.1.2.1.3l.2.2s.1 0 .1.1c.3.1.7.2 1.1.3 1.5.1 3.7-.4 5-1.2z" fill="url(#SVGID_21_)"/><path class="st18" d="M59.7 108.9c-.3.2-.7.5-1 .7-1.1 2.2-1.8 4.3-1.8 6 0 1.3.6 2.1 1.1 2.6-.4-.5-.7-1.2-.7-2.2 0-1.9.9-4.5 2.4-7.1z"/><linearGradient id="SVGID_22_" gradientUnits="userSpaceOnUse" x1="56.074" y1="532.364" x2="56.074" y2="572.666" gradientTransform="rotate(7.904 3284.744 351.818)"><stop offset="0" stop-color="#303331"/><stop offset=".403" stop-color="#63686c"/><stop offset="1" stop-color="#4c5151"/></linearGradient><path d="M59.7 108.9c-.3.2-.7.5-1 .7-1.1 2.2-1.8 4.3-1.8 6 0 1.3.6 2.1 1.1 2.6-.4-.5-.7-1.2-.7-2.2 0-1.9.9-4.5 2.4-7.1z" fill="url(#SVGID_22_)"/><path class="st18" d="M41.4 101.4c.1-.4-.1-.8-.4-.9 0 .1.1.3 0 .5-.6 1.8-3.1 3.5-4.1 4.1-.2.2 0 .7.2.6 0 0 .1 0 .1-.1v-.1c1.1-.5 3.6-2.3 4.2-4.1z"/><linearGradient id="SVGID_23_" gradientUnits="userSpaceOnUse" x1="35.845" y1="532.364" x2="35.845" y2="572.666" gradientTransform="rotate(7.904 3284.744 351.818)"><stop offset="0" stop-color="#303331"/><stop offset=".403" stop-color="#63686c"/><stop offset="1" stop-color="#4c5151"/></linearGradient><path d="M41.4 101.4c.1-.4-.1-.8-.4-.9 0 .1.1.3 0 .5-.6 1.8-3.1 3.5-4.1 4.1-.2.2 0 .7.2.6 0 0 .1 0 .1-.1v-.1c1.1-.5 3.6-2.3 4.2-4.1z" fill="url(#SVGID_23_)"/><path class="st18" d="M66.1 127.2c4.6.6 10.1-2.7 14.7-7.4 3.3-3.4 6.1-7.2 8.8-11-.9 1-1.9 2.1-2.9 3-1.9 2.6-4 5.2-6.3 7.6-4.6 4.8-10.1 8.1-14.7 7.4-1.7-.2-3.1-1-4.2-2.1 1.1 1.3 2.7 2.3 4.6 2.5z"/><linearGradient id="SVGID_24_" gradientUnits="userSpaceOnUse" x1="73.734" y1="532.364" x2="73.734" y2="572.666" gradientTransform="rotate(7.904 3284.744 351.818)"><stop offset="0" stop-color="#303331"/><stop offset=".403" stop-color="#63686c"/><stop offset="1" stop-color="#4c5151"/></linearGradient><path d="M66.1 127.2c4.6.6 10.1-2.7 14.7-7.4 3.3-3.4 6.1-7.2 8.8-11-.9 1-1.9 2.1-2.9 3-1.9 2.6-4 5.2-6.3 7.6-4.6 4.8-10.1 8.1-14.7 7.4-1.7-.2-3.1-1-4.2-2.1 1.1 1.3 2.7 2.3 4.6 2.5z" fill="url(#SVGID_24_)"/><path class="st18" d="M18.2 120.5c4.2.6 10.9-3.7 15.7-8.6 1.2-1.2 4.4-4.8 6.2-7.7-.5.5-1 .9-1.5 1.2-1.8 2.4-4.1 5-5.1 6-4.8 5-11.5 9.2-15.7 8.6-1.9-.3-3.5-1.2-4.6-2.7 1.2 1.7 2.9 2.9 5 3.2z"/><linearGradient id="SVGID_25_" gradientUnits="userSpaceOnUse" x1="24.617" y1="532.364" x2="24.617" y2="572.666" gradientTransform="rotate(7.904 3284.744 351.818)"><stop offset="0" stop-color="#303331"/><stop offset=".403" stop-color="#63686c"/><stop offset="1" stop-color="#4c5151"/></linearGradient><path d="M18.2 120.5c4.2.6 10.9-3.7 15.7-8.6 1.2-1.2 4.4-4.8 6.2-7.7-.5.5-1 .9-1.5 1.2-1.8 2.4-4.1 5-5.1 6-4.8 5-11.5 9.2-15.7 8.6-1.9-.3-3.5-1.2-4.6-2.7 1.2 1.7 2.9 2.9 5 3.2z" fill="url(#SVGID_25_)"/><path class="st18" d="M64.5 106.4c2-1.7 3.9-2.6 5.4-3 1.8-.4 3.2-.1 3.9.6-.6-1-2.1-1.6-4.3-1.1-1.2.3-2.6.9-4.1 2-.7.8-1.4 1.5-2 2.2.4-.2.7-.4 1.1-.7z"/><linearGradient id="SVGID_26_" gradientUnits="userSpaceOnUse" x1="65.363" y1="532.364" x2="65.363" y2="572.666" gradientTransform="rotate(7.904 3284.744 351.818)"><stop offset="0" stop-color="#303331"/><stop offset=".403" stop-color="#63686c"/><stop offset="1" stop-color="#4c5151"/></linearGradient><path d="M64.5 106.4c2-1.7 3.9-2.6 5.4-3 1.8-.4 3.2-.1 3.9.6-.6-1-2.1-1.6-4.3-1.1-1.2.3-2.6.9-4.1 2-.7.8-1.4 1.5-2 2.2.4-.2.7-.4 1.1-.7z" fill="url(#SVGID_26_)"/><path class="st18" d="M92.7 112.1c-.5.4-.9.7-1.3 1-1.1 2-1.7 4.1-.5 5.4-.9-1.7.4-4.4 1.8-6.4z"/><linearGradient id="SVGID_27_" gradientUnits="userSpaceOnUse" x1="89.227" y1="532.364" x2="89.227" y2="572.666" gradientTransform="rotate(7.904 3284.744 351.818)"><stop offset="0" stop-color="#303331"/><stop offset=".403" stop-color="#63686c"/><stop offset="1" stop-color="#4c5151"/></linearGradient><path d="M92.7 112.1c-.5.4-.9.7-1.3 1-1.1 2-1.7 4.1-.5 5.4-.9-1.7.4-4.4 1.8-6.4z" fill="url(#SVGID_27_)"/><path class="st18" d="M75.8 113.2c.9-1.7 3.8-4.2 5.4-5.6.8-.6.8-1.3.2-1.3 0 .2-.2.6-.6.9-1.6 1.4-4.5 3.9-5.4 5.6-.9 1.8-.7 2.9 0 3.6-.4-.7-.3-1.8.4-3.2z"/><linearGradient id="SVGID_28_" gradientUnits="userSpaceOnUse" x1="75.658" y1="532.364" x2="75.658" y2="572.666" gradientTransform="rotate(7.904 3284.744 351.818)"><stop offset="0" stop-color="#303331"/><stop offset=".403" stop-color="#63686c"/><stop offset="1" stop-color="#4c5151"/></linearGradient><path d="M75.8 113.2c.9-1.7 3.8-4.2 5.4-5.6.8-.6.8-1.3.2-1.3 0 .2-.2.6-.6.9-1.6 1.4-4.5 3.9-5.4 5.6-.9 1.8-.7 2.9 0 3.6-.4-.7-.3-1.8.4-3.2z" fill="url(#SVGID_28_)"/><path class="st18" d="M104.6 114.8c-.1.1-.2.1-.2.2-.4.3-.7.5-1 .8-1.1 2-1.7 4.1-.5 5.4-1-1.7.3-4.4 1.7-6.4z"/><linearGradient id="SVGID_29_" gradientUnits="userSpaceOnUse" x1="101.388" y1="532.364" x2="101.388" y2="572.666" gradientTransform="rotate(7.904 3284.744 351.818)"><stop offset="0" stop-color="#303331"/><stop offset=".403" stop-color="#63686c"/><stop offset="1" stop-color="#4c5151"/></linearGradient><path d="M104.6 114.8c-.1.1-.2.1-.2.2-.4.3-.7.5-1 .8-1.1 2-1.7 4.1-.5 5.4-1-1.7.3-4.4 1.7-6.4z" fill="url(#SVGID_29_)"/><path class="st18" d="M83.9 106.1c-.7-1.3-2.8-1.7-4.8-.6-1.9 1.1-4.5 3.4-6.5 4.6-.5.3-.5.9 0 .6.9-.5 2.2-1.5 3.7-2.5 1.1-.9 2.2-1.7 3.2-2.2 1.7-1 3.4-.8 4.4.1z"/><linearGradient id="SVGID_30_" gradientUnits="userSpaceOnUse" x1="75.089" y1="532.364" x2="75.089" y2="572.666" gradientTransform="rotate(7.904 3284.744 351.818)"><stop offset="0" stop-color="#303331"/><stop offset=".403" stop-color="#63686c"/><stop offset="1" stop-color="#4c5151"/></linearGradient><path d="M83.9 106.1c-.7-1.3-2.8-1.7-4.8-.6-1.9 1.1-4.5 3.4-6.5 4.6-.5.3-.5.9 0 .6.9-.5 2.2-1.5 3.7-2.5 1.1-.9 2.2-1.7 3.2-2.2 1.7-1 3.4-.8 4.4.1z" fill="url(#SVGID_30_)"/><path class="st18" d="M41.3 100.1c.3 0 .7.1 1 .5-.4-.7-1-.9-1.4-.9-.2 0-.5.2-.3.4l.3.3c0-.2.2-.3.4-.3z"/><linearGradient id="SVGID_31_" gradientUnits="userSpaceOnUse" x1="37.68" y1="532.364" x2="37.68" y2="572.666" gradientTransform="rotate(7.904 3284.744 351.818)"><stop offset="0" stop-color="#303331"/><stop offset=".403" stop-color="#63686c"/><stop offset="1" stop-color="#4c5151"/></linearGradient><path d="M41.3 100.1c.3 0 .7.1 1 .5-.4-.7-1-.9-1.4-.9-.2 0-.5.2-.3.4l.3.3c0-.2.2-.3.4-.3z" fill="url(#SVGID_31_)"/><path class="st18" d="M96 118.7c2.3-.5 5.4-2.4 7.4-3.7.2-.1.4-.3.6-.4.1-.1.2-.1.3-.2 0 0 0 .1-.1.1 1-.8 2.1-1.8 3.1-2.8 2-2 6-6.1 8.3-9.1.4-.5 1-1.8.2-1.8-.1.4-.4 1-.6 1.3-2.3 3-6.2 7.1-8.3 9.1-1 1-2.1 2-3.1 2.8-1.9 1.4-5.6 3.7-8.2 4.3-1.3.3-2.1.2-2.6 0 .3.5 1.1.8 3 .4z"/><linearGradient id="SVGID_32_" gradientUnits="userSpaceOnUse" x1="101.606" y1="532.364" x2="101.606" y2="572.666" gradientTransform="rotate(7.904 3284.744 351.818)"><stop offset="0" stop-color="#303331"/><stop offset=".403" stop-color="#63686c"/><stop offset="1" stop-color="#4c5151"/></linearGradient><path d="M96 118.7c2.3-.5 5.4-2.4 7.4-3.7.2-.1.4-.3.6-.4.1-.1.2-.1.3-.2 0 0 0 .1-.1.1 1-.8 2.1-1.8 3.1-2.8 2-2 6-6.1 8.3-9.1.4-.5 1-1.8.2-1.8-.1.4-.4 1-.6 1.3-2.3 3-6.2 7.1-8.3 9.1-1 1-2.1 2-3.1 2.8-1.9 1.4-5.6 3.7-8.2 4.3-1.3.3-2.1.2-2.6 0 .3.5 1.1.8 3 .4z" fill="url(#SVGID_32_)"/><path class="st18" d="M80.4 96.8c3-2.4 3.6-3.9 2.7-4.3.1.7-.8 2-3.1 3.8-2.4 1.9-6.8 4.2-9.8 5.1-.9.2-.6.8 0 .6.1-.1.2-.1.3-.1 3.1-.9 7.5-3.2 9.9-5.1z"/><linearGradient id="SVGID_33_" gradientUnits="userSpaceOnUse" x1="72.213" y1="532.364" x2="72.213" y2="572.666" gradientTransform="rotate(7.904 3284.744 351.818)"><stop offset="0" stop-color="#303331"/><stop offset=".403" stop-color="#63686c"/><stop offset="1" stop-color="#4c5151"/></linearGradient><path d="M80.4 96.8c3-2.4 3.6-3.9 2.7-4.3.1.7-.8 2-3.1 3.8-2.4 1.9-6.8 4.2-9.8 5.1-.9.2-.6.8 0 .6.1-.1.2-.1.3-.1 3.1-.9 7.5-3.2 9.9-5.1z" fill="url(#SVGID_33_)"/><path class="st18" d="M47.7 113.6c2.1.3 5.5-1.3 8.2-2.9.6-.4 1.3-.8 1.9-1.3.3-.2.7-.5 1-.7.7-.5 1.3-1.2 2.1-1.9 3.9-6.1 8-10.7 13.9-14.8 4.2-2.9 7.6-3 9.1-1.7-1.1-1.8-4.8-2-9.5 1.2-5.9 4.1-10 8.6-13.9 14.8-1.2 1.1-2.1 2-3.1 2.7l-.3.3c-2.9 1.8-7.3 4.2-9.8 3.9-.6-.1-1-.3-1.4-.6.4.5 1 .9 1.8 1z"/><linearGradient id="SVGID_34_" gradientUnits="userSpaceOnUse" x1="61.221" y1="532.364" x2="61.221" y2="572.666" gradientTransform="rotate(7.904 3284.744 351.818)"><stop offset="0" stop-color="#303331"/><stop offset=".403" stop-color="#63686c"/><stop offset="1" stop-color="#4c5151"/></linearGradient><path d="M47.7 113.6c2.1.3 5.5-1.3 8.2-2.9.6-.4 1.3-.8 1.9-1.3.3-.2.7-.5 1-.7.7-.5 1.3-1.2 2.1-1.9 3.9-6.1 8-10.7 13.9-14.8 4.2-2.9 7.6-3 9.1-1.7-1.1-1.8-4.8-2-9.5 1.2-5.9 4.1-10 8.6-13.9 14.8-1.2 1.1-2.1 2-3.1 2.7l-.3.3c-2.9 1.8-7.3 4.2-9.8 3.9-.6-.1-1-.3-1.4-.6.4.5 1 .9 1.8 1z" fill="url(#SVGID_34_)"/><path class="st18" d="M108.5 96.7c.6.1 1 .2 1.3.4-.2-.5-.7-.8-1.6-.9-1.6-.2-4.8.6-6.3 1.4-.4.3-.2.5.2.3l.9-.3c.2-.1.4-.1.5-.1 1.5-.6 3.7-1 5-.8z"/><linearGradient id="SVGID_35_" gradientUnits="userSpaceOnUse" x1="100.958" y1="532.364" x2="100.958" y2="572.666" gradientTransform="rotate(7.904 3284.744 351.818)"><stop offset="0" stop-color="#303331"/><stop offset=".403" stop-color="#63686c"/><stop offset="1" stop-color="#4c5151"/></linearGradient><path d="M108.5 96.7c.6.1 1 .2 1.3.4-.2-.5-.7-.8-1.6-.9-1.6-.2-4.8.6-6.3 1.4-.4.3-.2.5.2.3l.9-.3c.2-.1.4-.1.5-.1 1.5-.6 3.7-1 5-.8z" fill="url(#SVGID_35_)"/><path class="st18" d="M81.4 115.2c1.7-1.1 3.4-2.6 4.9-3.9.9-.9 2-2 2.9-3-.3.4-.5.7-.8 1.1 1-.9 1.9-1.9 2.6-2.7.9-1.4 2-3.1 3-3.2.6-.1 1.1.1 1.4.3-.2-.5-.8-1-1.8-.8-1 .1-2.1 1.8-3 3.2-2.5 2.8-6.5 6.4-9.2 8.3-1 .7-2 1.1-2.5 1.1-.2.8 1 .5 2.5-.4z"/><linearGradient id="SVGID_36_" gradientUnits="userSpaceOnUse" x1="84.316" y1="532.364" x2="84.316" y2="572.666" gradientTransform="rotate(7.904 3284.744 351.818)"><stop offset="0" stop-color="#303331"/><stop offset=".403" stop-color="#63686c"/><stop offset="1" stop-color="#4c5151"/></linearGradient><path d="M81.4 115.2c1.7-1.1 3.4-2.6 4.9-3.9.9-.9 2-2 2.9-3-.3.4-.5.7-.8 1.1 1-.9 1.9-1.9 2.6-2.7.9-1.4 2-3.1 3-3.2.6-.1 1.1.1 1.4.3-.2-.5-.8-1-1.8-.8-1 .1-2.1 1.8-3 3.2-2.5 2.8-6.5 6.4-9.2 8.3-1 .7-2 1.1-2.5 1.1-.2.8 1 .5 2.5-.4z" fill="url(#SVGID_36_)"/><path class="st18" d="M120.4 99.3c.6.1 1 .2 1.3.4-.2-.5-.7-.8-1.6-.9-1.6-.2-4.8.6-6.3 1.4-.4.3-.2.5.2.3l.9-.3c.2-.1.4-.1.5-.1 1.6-.5 3.7-.9 5-.8z"/><linearGradient id="SVGID_37_" gradientUnits="userSpaceOnUse" x1="113.143" y1="532.364" x2="113.143" y2="572.666" gradientTransform="rotate(7.904 3284.744 351.818)"><stop offset="0" stop-color="#303331"/><stop offset=".403" stop-color="#63686c"/><stop offset="1" stop-color="#4c5151"/></linearGradient><path d="M120.4 99.3c.6.1 1 .2 1.3.4-.2-.5-.7-.8-1.6-.9-1.6-.2-4.8.6-6.3 1.4-.4.3-.2.5.2.3l.9-.3c.2-.1.4-.1.5-.1 1.6-.5 3.7-.9 5-.8z" fill="url(#SVGID_37_)"/><path class="st18" d="M55.2 104.3c.4.8-.3 2.1-2.6 3-1.7.6-3.6.8-4.3.7-.9-.1-.9.3-.1.4.8.1 2 .1 3-.1.6-.1 1.2-.3 1.8-.5 2.8-1.1 3.2-2.7 2.2-3.5z"/><linearGradient id="SVGID_38_" gradientUnits="userSpaceOnUse" x1="48.71" y1="532.364" x2="48.71" y2="572.666" gradientTransform="rotate(7.904 3284.744 351.818)"><stop offset="0" stop-color="#303331"/><stop offset=".403" stop-color="#63686c"/><stop offset="1" stop-color="#4c5151"/></linearGradient><path d="M55.2 104.3c.4.8-.3 2.1-2.6 3-1.7.6-3.6.8-4.3.7-.9-.1-.9.3-.1.4.8.1 2 .1 3-.1.6-.1 1.2-.3 1.8-.5 2.8-1.1 3.2-2.7 2.2-3.5z" fill="url(#SVGID_38_)"/><path class="st18" d="M41.9 110.3c.7-5.3 7.2-8.6 12.1-7.8 1.1.2 1.9.5 2.4 1-.4-.7-1.3-1.2-2.8-1.5-4.9-.9-11.4 2.5-12.1 7.8-.1 1.2.2 2.2 1 2.9-.5-.6-.7-1.4-.6-2.4z"/><linearGradient id="SVGID_39_" gradientUnits="userSpaceOnUse" x1="46.01" y1="532.364" x2="46.01" y2="572.666" gradientTransform="rotate(7.904 3284.744 351.818)"><stop offset="0" stop-color="#303331"/><stop offset=".403" stop-color="#63686c"/><stop offset="1" stop-color="#4c5151"/></linearGradient><path d="M41.9 110.3c.7-5.3 7.2-8.6 12.1-7.8 1.1.2 1.9.5 2.4 1-.4-.7-1.3-1.2-2.8-1.5-4.9-.9-11.4 2.5-12.1 7.8-.1 1.2.2 2.2 1 2.9-.5-.6-.7-1.4-.6-2.4z" fill="url(#SVGID_39_)"/><path class="st18" d="M43.3 98.3c-.3-.6.1-1.5.9-2.2.8-.7 1.9-.9 2.5-.5 0-.1-.1-.3-.2-.4-.6-.6-1.8-.5-2.8.3-1 .8-1.3 1.9-.7 2.6.1.1.2.1.3.2z"/><linearGradient id="SVGID_40_" gradientUnits="userSpaceOnUse" x1="40.471" y1="532.364" x2="40.471" y2="572.666" gradientTransform="rotate(7.904 3284.744 351.818)"><stop offset="0" stop-color="#303331"/><stop offset=".403" stop-color="#63686c"/><stop offset="1" stop-color="#4c5151"/></linearGradient><path d="M43.3 98.3c-.3-.6.1-1.5.9-2.2.8-.7 1.9-.9 2.5-.5 0-.1-.1-.3-.2-.4-.6-.6-1.8-.5-2.8.3-1 .8-1.3 1.9-.7 2.6.1.1.2.1.3.2z" fill="url(#SVGID_40_)"/><path class="st18" d="M70.2 115.6h.2c.7-.3 1.3-.8 1.4-1.5 0-.1-.2-.2-.2 0-.1.7-.9 1.1-1.8 1.1-1.7 0-4.4-1.9-6.2-4.1 1.7 2.3 4.8 4.6 6.6 4.5z"/><linearGradient id="SVGID_41_" gradientUnits="userSpaceOnUse" x1="65.426" y1="532.364" x2="65.426" y2="572.666" gradientTransform="rotate(7.904 3284.744 351.818)"><stop offset="0" stop-color="#303331"/><stop offset=".403" stop-color="#63686c"/><stop offset="1" stop-color="#4c5151"/></linearGradient><path d="M70.2 115.6h.2c.7-.3 1.3-.8 1.4-1.5 0-.1-.2-.2-.2 0-.1.7-.9 1.1-1.8 1.1-1.7 0-4.4-1.9-6.2-4.1 1.7 2.3 4.8 4.6 6.6 4.5z" fill="url(#SVGID_41_)"/><path class="st18" d="M103.6 99.8c.4-.5 1-1.8.2-1.8-.1.4-.4 1-.6 1.3-2.3 3-6.2 7.1-8.3 9.1-1.7 1.7-3.7 3.4-5.2 4.2-.6.4-.3.8.2.5.5-.2 1.3-.9 2.3-1.6 1-.8 2.1-1.8 3.1-2.7 2.1-1.9 6-6 8.3-9z"/><linearGradient id="SVGID_42_" gradientUnits="userSpaceOnUse" x1="93.395" y1="532.364" x2="93.395" y2="572.666" gradientTransform="rotate(7.904 3284.744 351.818)"><stop offset="0" stop-color="#303331"/><stop offset=".403" stop-color="#63686c"/><stop offset="1" stop-color="#4c5151"/></linearGradient><path d="M103.6 99.8c.4-.5 1-1.8.2-1.8-.1.4-.4 1-.6 1.3-2.3 3-6.2 7.1-8.3 9.1-1.7 1.7-3.7 3.4-5.2 4.2-.6.4-.3.8.2.5.5-.2 1.3-.9 2.3-1.6 1-.8 2.1-1.8 3.1-2.7 2.1-1.9 6-6 8.3-9z" fill="url(#SVGID_42_)"/><path class="st18" d="M60.4 111.3c.2.4.5.9.9 1.3-.4-.5-.7-1-.8-1.4-.1 0-.1.1-.1.1z"/><linearGradient id="SVGID_43_" gradientUnits="userSpaceOnUse" x1="58.555" y1="532.364" x2="58.555" y2="572.666" gradientTransform="rotate(7.904 3284.744 351.818)"><stop offset="0" stop-color="#303331"/><stop offset=".403" stop-color="#63686c"/><stop offset="1" stop-color="#4c5151"/></linearGradient><path d="M60.4 111.3c.2.4.5.9.9 1.3-.4-.5-.7-1-.8-1.4-.1 0-.1.1-.1.1z" fill="url(#SVGID_43_)"/><path class="st18" d="M107.9 121.3c1.3-.3 2.9-1 4.4-1.9l.6-1c-1.8 1-3.8 2.1-5.4 2.4-1.3.3-2.1.2-2.6 0 .3.7 1.1 1 3 .5z"/><linearGradient id="SVGID_44_" gradientUnits="userSpaceOnUse" x1="107.25" y1="532.364" x2="107.25" y2="572.666" gradientTransform="rotate(7.904 3284.744 351.818)"><stop offset="0" stop-color="#303331"/><stop offset=".403" stop-color="#63686c"/><stop offset="1" stop-color="#4c5151"/></linearGradient><path d="M107.9 121.3c1.3-.3 2.9-1 4.4-1.9l.6-1c-1.8 1-3.8 2.1-5.4 2.4-1.3.3-2.1.2-2.6 0 .3.7 1.1 1 3 .5z" fill="url(#SVGID_44_)"/><path class="st18" d="M59.7 120.4v-.2c0-.4-.4-.5-.4 0 .1 1.9.7 3.4 1.6 4.6-.8-1.1-1.2-2.4-1.3-4.1 0-.1 0-.2.1-.3z"/><linearGradient id="SVGID_45_" gradientUnits="userSpaceOnUse" x1="59.178" y1="532.364" x2="59.178" y2="572.666" gradientTransform="rotate(7.904 3284.744 351.818)"><stop offset="0" stop-color="#303331"/><stop offset=".403" stop-color="#63686c"/><stop offset="1" stop-color="#4c5151"/></linearGradient><path d="M59.7 120.4v-.2c0-.4-.4-.5-.4 0 .1 1.9.7 3.4 1.6 4.6-.8-1.1-1.2-2.4-1.3-4.1 0-.1 0-.2.1-.3z" fill="url(#SVGID_45_)"/><path class="st18" d="M112.4 119.4l.6-1.1s-.1 0-.1.1l-.5 1c0 .1 0 0 0 0z"/><path class="st28" d="M112.4 119.4l.6-1.1s-.1 0-.1.1l-.5 1c0 .1 0 0 0 0z"/><linearGradient id="SVGID_46_" gradientUnits="userSpaceOnUse" x1="110.844" y1="532.364" x2="110.844" y2="572.666" gradientTransform="rotate(7.904 3284.744 351.818)"><stop offset="0" stop-color="#303331"/><stop offset=".403" stop-color="#63686c"/><stop offset="1" stop-color="#4c5151"/></linearGradient><path d="M112.4 119.4l.6-1.1s-.1 0-.1.1l-.5 1c0 .1 0 0 0 0z" fill="url(#SVGID_46_)"/><path class="st18" d="M113.9 117.8l-.9.6-.6 1.1c.3-.2.6-.3.9-.5l.6-1.2z"/><linearGradient id="SVGID_47_" gradientUnits="userSpaceOnUse" x1="234.467" y1="922.95" x2="234.577" y2="922.927" gradientTransform="matrix(113.8019 15.8128 28.5129 -205.2031 -52884.473 185803.89)"><stop offset="0" stop-color="#a2a6ad"/><stop offset="1" stop-color="#fff"/></linearGradient><path d="M113.9 117.8l-.9.6-.6 1.1c.3-.2.6-.3.9-.5l.6-1.2z" fill="url(#SVGID_47_)"/><path class="st28" d="M113.9 117.8l-.9.6-.6 1.1c.3-.2.6-.3.9-.5l.6-1.2z"/><linearGradient id="SVGID_48_" gradientUnits="userSpaceOnUse" x1="111.308" y1="532.364" x2="111.308" y2="572.666" gradientTransform="rotate(7.904 3284.744 351.818)"><stop offset="0" stop-color="#303331"/><stop offset=".403" stop-color="#63686c"/><stop offset="1" stop-color="#4c5151"/></linearGradient><path d="M113.9 117.8l-.9.6-.6 1.1c.3-.2.6-.3.9-.5l.6-1.2z" fill="url(#SVGID_48_)"/><path class="st18" d="M115 117.9l.7-1.2c-.5.3-1 .7-1.7 1.1l-.6 1.1c.5-.4 1.1-.7 1.6-1z"/><path class="st21" d="M115 117.9l.7-1.2c-.5.3-1 .7-1.7 1.1l-.6 1.1c.5-.4 1.1-.7 1.6-1z"/><linearGradient id="SVGID_49_" gradientUnits="userSpaceOnUse" x1="234.468" y1="922.957" x2="234.579" y2="922.933" gradientTransform="matrix(113.8019 15.8128 28.5129 -205.2031 -52884.473 185803.89)"><stop offset="0" stop-color="#a2a6ad"/><stop offset="1" stop-color="#fff"/></linearGradient><path d="M115 117.9l.7-1.2c-.5.3-1 .7-1.7 1.1l-.6 1.1c.5-.4 1.1-.7 1.6-1z" fill="url(#SVGID_49_)"/><path class="st28" d="M115 117.9l.7-1.2c-.5.3-1 .7-1.7 1.1l-.6 1.1c.5-.4 1.1-.7 1.6-1z"/><linearGradient id="SVGID_50_" gradientUnits="userSpaceOnUse" x1="112.478" y1="532.364" x2="112.478" y2="572.666" gradientTransform="rotate(7.904 3284.744 351.818)"><stop offset="0" stop-color="#303331"/><stop offset=".403" stop-color="#63686c"/><stop offset="1" stop-color="#4c5151"/></linearGradient><path d="M115 117.9l.7-1.2c-.5.3-1 .7-1.7 1.1l-.6 1.1c.5-.4 1.1-.7 1.6-1z" fill="url(#SVGID_50_)"/><path class="st18" d="M115.4 117.6c.6-.4 1.1-.9 1.5-1.2.4-.3.4-1-.3-.4-.2.2-.5.4-.9.7l-.7 1.2c.1-.1.2-.2.4-.3z"/><path class="st21" d="M115.4 117.6c.6-.4 1.1-.9 1.5-1.2.4-.3.4-1-.3-.4-.2.2-.5.4-.9.7l-.7 1.2c.1-.1.2-.2.4-.3z"/><linearGradient id="SVGID_51_" gradientUnits="userSpaceOnUse" x1="234.47" y1="922.965" x2="234.581" y2="922.941" gradientTransform="matrix(113.8019 15.8128 28.5129 -205.2031 -52884.473 185803.89)"><stop offset="0" stop-color="#a2a6ad"/><stop offset="1" stop-color="#fff"/></linearGradient><path d="M115.4 117.6c.6-.4 1.1-.9 1.5-1.2.4-.3.4-1-.3-.4-.2.2-.5.4-.9.7l-.7 1.2c.1-.1.2-.2.4-.3z" fill="url(#SVGID_51_)"/><linearGradient id="SVGID_52_" gradientUnits="userSpaceOnUse" x1="232.129" y1="922.244" x2="232.23" y2="922.22" gradientTransform="matrix(75.8036 10.5329 17.3093 -124.5722 -33443.95 112557.578)"><stop offset="0" stop-color="#a32c1f"/><stop offset="1" stop-color="#d72c1d"/></linearGradient><path d="M115.4 117.6c.6-.4 1.1-.9 1.5-1.2.4-.3.4-1-.3-.4-.2.2-.5.4-.9.7l-.7 1.2c.1-.1.2-.2.4-.3z" fill="url(#SVGID_52_)"/><path class="st28" d="M115.4 117.6c.6-.4 1.1-.9 1.5-1.2.4-.3.4-1-.3-.4-.2.2-.5.4-.9.7l-.7 1.2c.1-.1.2-.2.4-.3z"/><linearGradient id="SVGID_53_" gradientUnits="userSpaceOnUse" x1="113.93" y1="532.364" x2="113.93" y2="572.666" gradientTransform="rotate(7.904 3284.744 351.818)"><stop offset="0" stop-color="#303331"/><stop offset=".403" stop-color="#63686c"/><stop offset="1" stop-color="#4c5151"/></linearGradient><path d="M115.4 117.6c.6-.4 1.1-.9 1.5-1.2.4-.3.4-1-.3-.4-.2.2-.5.4-.9.7l-.7 1.2c.1-.1.2-.2.4-.3z" fill="url(#SVGID_53_)"/><path class="st18" d="M66.8 127.7c4.7.6 9.5-1.4 13.1-4.3 7.3-5.8 9.1-13.2 11.6-17.1 1.2-1.8 2.1-1.8 2.7-1.6 1.1.3 1.4-.4 1.2-1-.3-.3-.8-.4-1.4-.3-1 .1-2.1 1.8-3 3.2-.8.8-1.7 1.8-2.6 2.7-.6.8-1.2 1.6-1.7 2.4.9-.9 2-2 2.9-3-2.7 3.8-5.5 7.7-8.8 11-4.6 4.8-10.1 8.1-14.7 7.4-1.9-.3-3.5-1.2-4.6-2.6-1-1.1-1.7-2.6-1.8-4.2 0 0-.1.1-.1.3 0 1.7.5 3 1.3 4.1 1.3 1.7 3.4 2.7 5.9 3z"/><path class="st21" d="M66.8 127.7c4.7.6 9.5-1.4 13.1-4.3 7.3-5.8 9.1-13.2 11.6-17.1 1.2-1.8 2.1-1.8 2.7-1.6 1.1.3 1.4-.4 1.2-1-.3-.3-.8-.4-1.4-.3-1 .1-2.1 1.8-3 3.2-.8.8-1.7 1.8-2.6 2.7-.6.8-1.2 1.6-1.7 2.4.9-.9 2-2 2.9-3-2.7 3.8-5.5 7.7-8.8 11-4.6 4.8-10.1 8.1-14.7 7.4-1.9-.3-3.5-1.2-4.6-2.6-1-1.1-1.7-2.6-1.8-4.2 0 0-.1.1-.1.3 0 1.7.5 3 1.3 4.1 1.3 1.7 3.4 2.7 5.9 3z"/><linearGradient id="SVGID_54_" gradientUnits="userSpaceOnUse" x1="75.15" y1="532.364" x2="75.15" y2="572.666" gradientTransform="rotate(7.904 3284.744 351.818)"><stop offset="0" stop-color="#303331"/><stop offset=".403" stop-color="#63686c"/><stop offset="1" stop-color="#4c5151"/></linearGradient><path d="M66.8 127.7c4.7.6 9.5-1.4 13.1-4.3 7.3-5.8 9.1-13.2 11.6-17.1 1.2-1.8 2.1-1.8 2.7-1.6 1.1.3 1.4-.4 1.2-1-.3-.3-.8-.4-1.4-.3-1 .1-2.1 1.8-3 3.2-.8.8-1.7 1.8-2.6 2.7-.6.8-1.2 1.6-1.7 2.4.9-.9 2-2 2.9-3-2.7 3.8-5.5 7.7-8.8 11-4.6 4.8-10.1 8.1-14.7 7.4-1.9-.3-3.5-1.2-4.6-2.6-1-1.1-1.7-2.6-1.8-4.2 0 0-.1.1-.1.3 0 1.7.5 3 1.3 4.1 1.3 1.7 3.4 2.7 5.9 3z" fill="url(#SVGID_54_)"/><path class="st18" d="M112.1 119.9l.2-.4c-1.5.8-3.1 1.6-4.4 1.9-1.9.4-2.7.1-2.9-.5-2.4-1.6 6.4-10.5 7.3-11.3 2.3-2.2 7.1-5.7 8.7-7.6.6-.8.9-1.5.7-2.1-.3-.2-.7-.4-1.3-.4-1.3-.1-3.4.3-5.1.9.4 0 .5.2.5.5.8 0 .1 1.3-.2 1.8-2.3 3-6.2 7.1-8.3 9.1-1 1-2.1 2-3.1 2.8-.3.4-.6.9-.9 1.4.3-.2.7-.5 1-.8.1-.1.2-.1.2-.2-1.4 2-2.7 4.7-1.8 6.4.4.4.9.6 1.5.8 2.5.5 5.4-.8 7.9-2.3z"/><path class="st21" d="M112.1 119.9l.2-.4c-1.5.8-3.1 1.6-4.4 1.9-1.9.4-2.7.1-2.9-.5-2.4-1.6 6.4-10.5 7.3-11.3 2.3-2.2 7.1-5.7 8.7-7.6.6-.8.9-1.5.7-2.1-.3-.2-.7-.4-1.3-.4-1.3-.1-3.4.3-5.1.9.4 0 .5.2.5.5.8 0 .1 1.3-.2 1.8-2.3 3-6.2 7.1-8.3 9.1-1 1-2.1 2-3.1 2.8-.3.4-.6.9-.9 1.4.3-.2.7-.5 1-.8.1-.1.2-.1.2-.2-1.4 2-2.7 4.7-1.8 6.4.4.4.9.6 1.5.8 2.5.5 5.4-.8 7.9-2.3z"/><linearGradient id="SVGID_55_" gradientUnits="userSpaceOnUse" x1="109.079" y1="532.364" x2="109.079" y2="572.666" gradientTransform="rotate(7.904 3284.744 351.818)"><stop offset="0" stop-color="#303331"/><stop offset=".403" stop-color="#63686c"/><stop offset="1" stop-color="#4c5151"/></linearGradient><path d="M112.1 119.9l.2-.4c-1.5.8-3.1 1.6-4.4 1.9-1.9.4-2.7.1-2.9-.5-2.4-1.6 6.4-10.5 7.3-11.3 2.3-2.2 7.1-5.7 8.7-7.6.6-.8.9-1.5.7-2.1-.3-.2-.7-.4-1.3-.4-1.3-.1-3.4.3-5.1.9.4 0 .5.2.5.5.8 0 .1 1.3-.2 1.8-2.3 3-6.2 7.1-8.3 9.1-1 1-2.1 2-3.1 2.8-.3.4-.6.9-.9 1.4.3-.2.7-.5 1-.8.1-.1.2-.1.2-.2-1.4 2-2.7 4.7-1.8 6.4.4.4.9.6 1.5.8 2.5.5 5.4-.8 7.9-2.3z" fill="url(#SVGID_55_)"/><path class="st18" d="M19.1 121c4.7.6 10.6-1.9 14.1-5 5.7-4.9 9.7-10.9 9.4-14.6 0-.3-.1-.6-.2-.9-.3-.3-.7-.4-1-.5-.1 0-.3.1-.3.2s.1.1.1.2c.3.2.5.5.4.9-.6 1.8-3.1 3.5-4.1 4.1v.1c.6-.3 1.6-1 2.6-1.9-.3.5-.8 1.1-1.2 1.7.5-.3 1-.7 1.5-1.2-1.8 2.8-5 6.4-6.2 7.7-4.8 5-11.5 9.2-15.7 8.6-2.1-.3-3.9-1.5-4.9-3.1-.8-1-1.3-2.3-1.4-3.7-.1 0-.1.1-.1.3 0 1.6.5 3 1.2 4 1.1 1.8 3.2 2.7 5.8 3.1z"/><path class="st21" d="M19.1 121c4.7.6 10.6-1.9 14.1-5 5.7-4.9 9.7-10.9 9.4-14.6 0-.3-.1-.6-.2-.9-.3-.3-.7-.4-1-.5-.1 0-.3.1-.3.2s.1.1.1.2c.3.2.5.5.4.9-.6 1.8-3.1 3.5-4.1 4.1v.1c.6-.3 1.6-1 2.6-1.9-.3.5-.8 1.1-1.2 1.7.5-.3 1-.7 1.5-1.2-1.8 2.8-5 6.4-6.2 7.7-4.8 5-11.5 9.2-15.7 8.6-2.1-.3-3.9-1.5-4.9-3.1-.8-1-1.3-2.3-1.4-3.7-.1 0-.1.1-.1.3 0 1.6.5 3 1.2 4 1.1 1.8 3.2 2.7 5.8 3.1z"/><linearGradient id="SVGID_56_" gradientUnits="userSpaceOnUse" x1="24.657" y1="532.364" x2="24.657" y2="572.666" gradientTransform="rotate(7.904 3284.744 351.818)"><stop offset="0" stop-color="#303331"/><stop offset=".403" stop-color="#63686c"/><stop offset="1" stop-color="#4c5151"/></linearGradient><path d="M19.1 121c4.7.6 10.6-1.9 14.1-5 5.7-4.9 9.7-10.9 9.4-14.6 0-.3-.1-.6-.2-.9-.3-.3-.7-.4-1-.5-.1 0-.3.1-.3.2s.1.1.1.2c.3.2.5.5.4.9-.6 1.8-3.1 3.5-4.1 4.1v.1c.6-.3 1.6-1 2.6-1.9-.3.5-.8 1.1-1.2 1.7.5-.3 1-.7 1.5-1.2-1.8 2.8-5 6.4-6.2 7.7-4.8 5-11.5 9.2-15.7 8.6-2.1-.3-3.9-1.5-4.9-3.1-.8-1-1.3-2.3-1.4-3.7-.1 0-.1.1-.1.3 0 1.6.5 3 1.2 4 1.1 1.8 3.2 2.7 5.8 3.1z" fill="url(#SVGID_56_)"/><path class="st18" d="M44.1 96.1c-.8.7-1.1 1.6-.9 2.2.6.5 1.7.3 2.6-.4.8-.7 1.1-1.6.9-2.3-.6-.4-1.7-.3-2.6.5z"/><path class="st21" d="M44.1 96.1c-.8.7-1.1 1.6-.9 2.2.6.5 1.7.3 2.6-.4.8-.7 1.1-1.6.9-2.3-.6-.4-1.7-.3-2.6.5z"/><linearGradient id="SVGID_57_" gradientUnits="userSpaceOnUse" x1="40.789" y1="532.364" x2="40.789" y2="572.666" gradientTransform="rotate(7.904 3284.744 351.818)"><stop offset="0" stop-color="#303331"/><stop offset=".403" stop-color="#63686c"/><stop offset="1" stop-color="#4c5151"/></linearGradient><path d="M44.1 96.1c-.8.7-1.1 1.6-.9 2.2.6.5 1.7.3 2.6-.4.8-.7 1.1-1.6.9-2.3-.6-.4-1.7-.3-2.6.5z" fill="url(#SVGID_57_)"/><path class="st18" d="M56 110.7c-2.7 1.6-6.1 3.2-8.2 2.9-.9-.1-1.4-.5-1.7-1-.7-.6-.8-1.6-.4-2.7.9-2.6 4.1-5.4 6.7-6.2 1.5-.5 2.7 0 3 .7 1 .8.6 2.4-2.2 3.4-.6.2-1.2.4-1.8.5.6-.1 1.2-.2 1.7-.4 3-1 4.3-2.9 3.5-4.4-.5-.5-1.3-.8-2.4-1-4.9-.9-11.4 2.5-12.1 7.8-.1 1 .1 1.8.6 2.5.7.7 1.8 1.2 3.1 1.4 3.4.4 7-1.5 10.2-3.5z"/><path class="st21" d="M56 110.7c-2.7 1.6-6.1 3.2-8.2 2.9-.9-.1-1.4-.5-1.7-1-.7-.6-.8-1.6-.4-2.7.9-2.6 4.1-5.4 6.7-6.2 1.5-.5 2.7 0 3 .7 1 .8.6 2.4-2.2 3.4-.6.2-1.2.4-1.8.5.6-.1 1.2-.2 1.7-.4 3-1 4.3-2.9 3.5-4.4-.5-.5-1.3-.8-2.4-1-4.9-.9-11.4 2.5-12.1 7.8-.1 1 .1 1.8.6 2.5.7.7 1.8 1.2 3.1 1.4 3.4.4 7-1.5 10.2-3.5z"/><linearGradient id="SVGID_58_" gradientUnits="userSpaceOnUse" x1="46.542" y1="532.364" x2="46.542" y2="572.666" gradientTransform="rotate(7.904 3284.744 351.818)"><stop offset="0" stop-color="#303331"/><stop offset=".403" stop-color="#63686c"/><stop offset="1" stop-color="#4c5151"/></linearGradient><path d="M56 110.7c-2.7 1.6-6.1 3.2-8.2 2.9-.9-.1-1.4-.5-1.7-1-.7-.6-.8-1.6-.4-2.7.9-2.6 4.1-5.4 6.7-6.2 1.5-.5 2.7 0 3 .7 1 .8.6 2.4-2.2 3.4-.6.2-1.2.4-1.8.5.6-.1 1.2-.2 1.7-.4 3-1 4.3-2.9 3.5-4.4-.5-.5-1.3-.8-2.4-1-4.9-.9-11.4 2.5-12.1 7.8-.1 1 .1 1.8.6 2.5.7.7 1.8 1.2 3.1 1.4 3.4.4 7-1.5 10.2-3.5z" fill="url(#SVGID_58_)"/><path class="st18" d="M58.4 118.2c-.8-1.2-.1-4.5 1.7-7.5l.3.6.1-.1c.2.5.5.9.8 1.4 1.6 1.8 4.6 3.6 7.9 3.3.4 0 .9-.1 1.2-.3h-.2c-1.8 0-4.8-2.2-6.6-4.6-.4-.5-.7-.9-1-1.4.1.1.3.1.4.2 0 0-.1 0-.1-.1l-.2-.2c0-.1-.1-.2-.1-.3h-.1l-.2-.2c-.1-.2-.2-.5-.3-.7.4-.4.9-.8 1.4-1.2.6-.7 1.2-1.4 2-2.2-1 .7-2 1.5-3.1 2.6 3-3.7 8.7-9.6 14-13.1 4-2.6 6.7-3.1 6.8-2 .9.4.3 1.9-2.7 4.3-2.4 1.9-6.8 4.2-9.8 5.1-.1 0-.2.1-.3.1 3.1-.9 7.4-3 10-4.9 3.6-2.6 4.5-5.3 3.5-6.8-1.4-1.3-4.8-1.2-9.1 1.7-5.9 4.1-10 8.6-13.9 14.8-.8.7-1.5 1.4-2.1 1.9.2-.1.3-.2.5-.3l-.6 1.2c.3-.2.7-.4 1-.7-1.5 2.7-2.4 5.2-2.4 7.2 0 1 .3 1.6.7 2.2l.2.2c.2.1.5.1.3-.2z"/><path class="st21" d="M58.4 118.2c-.8-1.2-.1-4.5 1.7-7.5l.3.6.1-.1c.2.5.5.9.8 1.4 1.6 1.8 4.6 3.6 7.9 3.3.4 0 .9-.1 1.2-.3h-.2c-1.8 0-4.8-2.2-6.6-4.6-.4-.5-.7-.9-1-1.4.1.1.3.1.4.2 0 0-.1 0-.1-.1l-.2-.2c0-.1-.1-.2-.1-.3h-.1l-.2-.2c-.1-.2-.2-.5-.3-.7.4-.4.9-.8 1.4-1.2.6-.7 1.2-1.4 2-2.2-1 .7-2 1.5-3.1 2.6 3-3.7 8.7-9.6 14-13.1 4-2.6 6.7-3.1 6.8-2 .9.4.3 1.9-2.7 4.3-2.4 1.9-6.8 4.2-9.8 5.1-.1 0-.2.1-.3.1 3.1-.9 7.4-3 10-4.9 3.6-2.6 4.5-5.3 3.5-6.8-1.4-1.3-4.8-1.2-9.1 1.7-5.9 4.1-10 8.6-13.9 14.8-.8.7-1.5 1.4-2.1 1.9.2-.1.3-.2.5-.3l-.6 1.2c.3-.2.7-.4 1-.7-1.5 2.7-2.4 5.2-2.4 7.2 0 1 .3 1.6.7 2.2l.2.2c.2.1.5.1.3-.2z"/><linearGradient id="SVGID_59_" gradientUnits="userSpaceOnUse" x1="67.302" y1="532.364" x2="67.302" y2="572.666" gradientTransform="rotate(7.904 3284.744 351.818)"><stop offset="0" stop-color="#303331"/><stop offset=".403" stop-color="#63686c"/><stop offset="1" stop-color="#4c5151"/></linearGradient><path d="M58.4 118.2c-.8-1.2-.1-4.5 1.7-7.5l.3.6.1-.1c.2.5.5.9.8 1.4 1.6 1.8 4.6 3.6 7.9 3.3.4 0 .9-.1 1.2-.3h-.2c-1.8 0-4.8-2.2-6.6-4.6-.4-.5-.7-.9-1-1.4.1.1.3.1.4.2 0 0-.1 0-.1-.1l-.2-.2c0-.1-.1-.2-.1-.3h-.1l-.2-.2c-.1-.2-.2-.5-.3-.7.4-.4.9-.8 1.4-1.2.6-.7 1.2-1.4 2-2.2-1 .7-2 1.5-3.1 2.6 3-3.7 8.7-9.6 14-13.1 4-2.6 6.7-3.1 6.8-2 .9.4.3 1.9-2.7 4.3-2.4 1.9-6.8 4.2-9.8 5.1-.1 0-.2.1-.3.1 3.1-.9 7.4-3 10-4.9 3.6-2.6 4.5-5.3 3.5-6.8-1.4-1.3-4.8-1.2-9.1 1.7-5.9 4.1-10 8.6-13.9 14.8-.8.7-1.5 1.4-2.1 1.9.2-.1.3-.2.5-.3l-.6 1.2c.3-.2.7-.4 1-.7-1.5 2.7-2.4 5.2-2.4 7.2 0 1 .3 1.6.7 2.2l.2.2c.2.1.5.1.3-.2z" fill="url(#SVGID_59_)"/><path class="st18" d="M81.4 115.2c-1.5.9-2.7 1.1-2.5.3-.7 0-.6-.7 1-2.4 1.2-1.2 2.6-2.5 3.5-3.9.8-1.3.9-2.4.4-3.2-.9-.9-2.7-1.1-4.4-.1-.9.5-2 1.4-3.2 2.2 1-.7 2.1-1.4 3.1-2 1.3-.8 2-.5 2 0 .6.1.5.7-.2 1.3-1.6 1.4-4.5 3.9-5.4 5.6-.7 1.4-.7 2.4-.3 3.1.3.3.8.5 1.4.6 1.2.4 2.9-.3 4.6-1.5z"/><path class="st21" d="M81.4 115.2c-1.5.9-2.7 1.1-2.5.3-.7 0-.6-.7 1-2.4 1.2-1.2 2.6-2.5 3.5-3.9.8-1.3.9-2.4.4-3.2-.9-.9-2.7-1.1-4.4-.1-.9.5-2 1.4-3.2 2.2 1-.7 2.1-1.4 3.1-2 1.3-.8 2-.5 2 0 .6.1.5.7-.2 1.3-1.6 1.4-4.5 3.9-5.4 5.6-.7 1.4-.7 2.4-.3 3.1.3.3.8.5 1.4.6 1.2.4 2.9-.3 4.6-1.5z"/><linearGradient id="SVGID_60_" gradientUnits="userSpaceOnUse" x1="77.104" y1="532.364" x2="77.104" y2="572.666" gradientTransform="rotate(7.904 3284.744 351.818)"><stop offset="0" stop-color="#303331"/><stop offset=".403" stop-color="#63686c"/><stop offset="1" stop-color="#4c5151"/></linearGradient><path d="M81.4 115.2c-1.5.9-2.7 1.1-2.5.3-.7 0-.6-.7 1-2.4 1.2-1.2 2.6-2.5 3.5-3.9.8-1.3.9-2.4.4-3.2-.9-.9-2.7-1.1-4.4-.1-.9.5-2 1.4-3.2 2.2 1-.7 2.1-1.4 3.1-2 1.3-.8 2-.5 2 0 .6.1.5.7-.2 1.3-1.6 1.4-4.5 3.9-5.4 5.6-.7 1.4-.7 2.4-.3 3.1.3.3.8.5 1.4.6 1.2.4 2.9-.3 4.6-1.5z" fill="url(#SVGID_60_)"/><path class="st18" d="M69.9 103.5c-1.5.4-3.4 1.3-5.4 3 .2-.2.5-.4.7-.5 3.1-2.1 5-1.7 5.4-.7 1 .8.5 2.6-1.5 3.7-1.4.8-3.6 1.2-5.1 1.1 2.1.3 5.1-.2 6.7-1.1 2-1 2.9-2.4 3.1-3.5.1-.6.1-1.1-.2-1.5-.6-.6-2-.9-3.7-.5z"/><path class="st21" d="M69.9 103.5c-1.5.4-3.4 1.3-5.4 3 .2-.2.5-.4.7-.5 3.1-2.1 5-1.7 5.4-.7 1 .8.5 2.6-1.5 3.7-1.4.8-3.6 1.2-5.1 1.1 2.1.3 5.1-.2 6.7-1.1 2-1 2.9-2.4 3.1-3.5.1-.6.1-1.1-.2-1.5-.6-.6-2-.9-3.7-.5z"/><linearGradient id="SVGID_61_" gradientUnits="userSpaceOnUse" x1="66.042" y1="532.364" x2="66.042" y2="572.666" gradientTransform="rotate(7.904 3284.744 351.818)"><stop offset="0" stop-color="#303331"/><stop offset=".403" stop-color="#63686c"/><stop offset="1" stop-color="#4c5151"/></linearGradient><path d="M69.9 103.5c-1.5.4-3.4 1.3-5.4 3 .2-.2.5-.4.7-.5 3.1-2.1 5-1.7 5.4-.7 1 .8.5 2.6-1.5 3.7-1.4.8-3.6 1.2-5.1 1.1 2.1.3 5.1-.2 6.7-1.1 2-1 2.9-2.4 3.1-3.5.1-.6.1-1.1-.2-1.5-.6-.6-2-.9-3.7-.5z" fill="url(#SVGID_61_)"/><path class="st18" d="M103 115.3c.1-.1.3-.2.5-.3-2 1.4-5.1 3.2-7.4 3.7-1.9.4-2.7.1-2.9-.5-2.4-1.6 6.4-10.5 7.3-11.3 2.2-2.1 7.1-5.7 8.7-7.6.6-.8.9-1.5.7-2.1-.3-.2-.7-.4-1.3-.4-1.3-.1-3.4.3-5.1.9.4 0 .5.2.5.5.8 0 .1 1.3-.2 1.8-2.3 3-6.2 7.1-8.3 9.1-1 1-2 1.9-3.1 2.7-.3.4-.6.9-.9 1.4.4-.3.8-.6 1.3-1-1.4 2-2.7 4.7-1.8 6.4.4.4.9.6 1.5.8 3.2.8 7.6-2 10.5-4.1z"/><path class="st21" d="M103 115.3c.1-.1.3-.2.5-.3-2 1.4-5.1 3.2-7.4 3.7-1.9.4-2.7.1-2.9-.5-2.4-1.6 6.4-10.5 7.3-11.3 2.2-2.1 7.1-5.7 8.7-7.6.6-.8.9-1.5.7-2.1-.3-.2-.7-.4-1.3-.4-1.3-.1-3.4.3-5.1.9.4 0 .5.2.5.5.8 0 .1 1.3-.2 1.8-2.3 3-6.2 7.1-8.3 9.1-1 1-2 1.9-3.1 2.7-.3.4-.6.9-.9 1.4.4-.3.8-.6 1.3-1-1.4 2-2.7 4.7-1.8 6.4.4.4.9.6 1.5.8 3.2.8 7.6-2 10.5-4.1z"/><linearGradient id="SVGID_62_" gradientUnits="userSpaceOnUse" x1="96.906" y1="532.364" x2="96.906" y2="572.666" gradientTransform="rotate(7.904 3284.744 351.818)"><stop offset="0" stop-color="#303331"/><stop offset=".403" stop-color="#63686c"/><stop offset="1" stop-color="#4c5151"/></linearGradient><path d="M103 115.3c.1-.1.3-.2.5-.3-2 1.4-5.1 3.2-7.4 3.7-1.9.4-2.7.1-2.9-.5-2.4-1.6 6.4-10.5 7.3-11.3 2.2-2.1 7.1-5.7 8.7-7.6.6-.8.9-1.5.7-2.1-.3-.2-.7-.4-1.3-.4-1.3-.1-3.4.3-5.1.9.4 0 .5.2.5.5.8 0 .1 1.3-.2 1.8-2.3 3-6.2 7.1-8.3 9.1-1 1-2 1.9-3.1 2.7-.3.4-.6.9-.9 1.4.4-.3.8-.6 1.3-1-1.4 2-2.7 4.7-1.8 6.4.4.4.9.6 1.5.8 3.2.8 7.6-2 10.5-4.1z" fill="url(#SVGID_62_)"/><path class="st18" d="M112.3 119.5l-.2.4s.1 0 .1-.1l.1-.3c.1-.1.1 0 0 0z"/><path class="st28" d="M112.3 119.5l-.2.4s.1 0 .1-.1l.1-.3c.1-.1.1 0 0 0z"/><path class="st21" d="M112.3 119.5l-.2.4s.1 0 .1-.1l.1-.3c.1-.1.1 0 0 0z"/><linearGradient id="SVGID_63_" gradientUnits="userSpaceOnUse" x1="110.549" y1="532.364" x2="110.549" y2="572.666" gradientTransform="rotate(7.904 3284.744 351.818)"><stop offset="0" stop-color="#303331"/><stop offset=".403" stop-color="#63686c"/><stop offset="1" stop-color="#4c5151"/></linearGradient><path d="M112.3 119.5l-.2.4s.1 0 .1-.1l.1-.3c.1-.1.1 0 0 0z" fill="url(#SVGID_63_)"/><path class="st18" d="M113.3 118.9c-.3.2-.6.3-.9.5l-.2.4c.3-.2.6-.4 1-.6l.1-.3z"/><linearGradient id="SVGID_64_" gradientUnits="userSpaceOnUse" x1="234.466" y1="922.946" x2="234.577" y2="922.922" gradientTransform="matrix(113.8019 15.8128 28.5129 -205.2031 -52884.473 185803.89)"><stop offset="0" stop-color="#a2a6ad"/><stop offset="1" stop-color="#fff"/></linearGradient><path d="M113.3 118.9c-.3.2-.6.3-.9.5l-.2.4c.3-.2.6-.4 1-.6l.1-.3z" fill="url(#SVGID_64_)"/><path class="st28" d="M113.3 118.9c-.3.2-.6.3-.9.5l-.2.4c.3-.2.6-.4 1-.6l.1-.3z"/><path class="st21" d="M113.3 118.9c-.3.2-.6.3-.9.5l-.2.4c.3-.2.6-.4 1-.6l.1-.3z"/><linearGradient id="SVGID_65_" gradientUnits="userSpaceOnUse" x1="111.004" y1="532.364" x2="111.004" y2="572.666" gradientTransform="rotate(7.904 3284.744 351.818)"><stop offset="0" stop-color="#303331"/><stop offset=".403" stop-color="#63686c"/><stop offset="1" stop-color="#4c5151"/></linearGradient><path d="M113.3 118.9c-.3.2-.6.3-.9.5l-.2.4c.3-.2.6-.4 1-.6l.1-.3z" fill="url(#SVGID_65_)"/><path class="st18" d="M113.3 118.9l-.2.3c.6-.4 1.2-.8 1.7-1.2v-.1c-.3.3-.9.6-1.5 1z"/><path class="st21" d="M113.3 118.9l-.2.3c.6-.4 1.2-.8 1.7-1.2v-.1c-.3.3-.9.6-1.5 1z"/><linearGradient id="SVGID_66_" gradientUnits="userSpaceOnUse" x1="234.468" y1="922.953" x2="234.578" y2="922.929" gradientTransform="matrix(113.8019 15.8128 28.5129 -205.2031 -52884.473 185803.89)"><stop offset="0" stop-color="#a2a6ad"/><stop offset="1" stop-color="#fff"/></linearGradient><path d="M113.3 118.9l-.2.3c.6-.4 1.2-.8 1.7-1.2v-.1c-.3.3-.9.6-1.5 1z" fill="url(#SVGID_66_)"/><path class="st28" d="M113.3 118.9l-.2.3c.6-.4 1.2-.8 1.7-1.2v-.1c-.3.3-.9.6-1.5 1z"/><path class="st21" d="M113.3 118.9l-.2.3c.6-.4 1.2-.8 1.7-1.2v-.1c-.3.3-.9.6-1.5 1z"/><linearGradient id="SVGID_67_" gradientUnits="userSpaceOnUse" x1="112.172" y1="532.364" x2="112.172" y2="572.666" gradientTransform="rotate(7.904 3284.744 351.818)"><stop offset="0" stop-color="#303331"/><stop offset=".403" stop-color="#63686c"/><stop offset="1" stop-color="#4c5151"/></linearGradient><path d="M113.3 118.9l-.2.3c.6-.4 1.2-.8 1.7-1.2v-.1c-.3.3-.9.6-1.5 1z" fill="url(#SVGID_67_)"/><path class="st18" d="M114.9 117.9c.2-.1.3-.2.5-.3-.2.1-.3.2-.5.3z"/><path class="st21" d="M114.9 117.9c.2-.1.3-.2.5-.3-.2.1-.3.2-.5.3z"/><linearGradient id="SVGID_68_" gradientUnits="userSpaceOnUse" x1="234.469" y1="922.959" x2="234.579" y2="922.935" gradientTransform="matrix(113.8019 15.8128 28.5129 -205.2031 -52884.473 185803.89)"><stop offset="0" stop-color="#a2a6ad"/><stop offset="1" stop-color="#fff"/></linearGradient><path d="M114.9 117.9c.2-.1.3-.2.5-.3-.2.1-.3.2-.5.3z" fill="url(#SVGID_68_)"/><linearGradient id="SVGID_69_" gradientUnits="userSpaceOnUse" x1="232.127" y1="922.234" x2="232.227" y2="922.21" gradientTransform="matrix(75.8036 10.5329 17.3093 -124.5722 -33443.95 112557.578)"><stop offset="0" stop-color="#a32c1f"/><stop offset="1" stop-color="#d72c1d"/></linearGradient><path d="M114.9 117.9c.2-.1.3-.2.5-.3-.2.1-.3.2-.5.3z" fill="url(#SVGID_69_)"/><path class="st28" d="M114.9 117.9c.2-.1.3-.2.5-.3-.2.1-.3.2-.5.3z"/><path class="st21" d="M114.9 117.9c.2-.1.3-.2.5-.3-.2.1-.3.2-.5.3z"/><linearGradient id="SVGID_70_" gradientUnits="userSpaceOnUse" x1="113.142" y1="532.364" x2="113.142" y2="572.666" gradientTransform="rotate(7.904 3284.744 351.818)"><stop offset="0" stop-color="#303331"/><stop offset=".403" stop-color="#63686c"/><stop offset="1" stop-color="#4c5151"/></linearGradient><path d="M114.9 117.9c.2-.1.3-.2.5-.3-.2.1-.3.2-.5.3z" fill="url(#SVGID_70_)"/><g id="drawing_2_"><path d="M211.2 202.7c-70.6 5.4-112.6 2.9-178.3-.9 0 0-16.8-.8-32.9.2v107c7.2.1 14.2.8 20.5 2.2 30 6.8 152.5 10.3 174.4-4.7l16.3-103.8z" fill="#fdfdfd"/><path class="st95" d="M90.4 221.2s-38.5 2.6-48.1 20.4c-9.6 17.7 47.8 17.7 47.8 17.7s39.6-2.7 46.4-19.1c6.8-16.4-47.8-21.8-50.5-23.2"/><path class="st95" d="M18.4 242.2s39.6-8.2 71-4.1 91.4-6.8 91.4-6.8"/><path class="st95" d="M85.3 273.6c2.7-5.5 4.1-35.5 4.1-35.5s0-12.3 2.7-31.4m-55.9 26c6.8 16.4 15 32.8 16.4 40.9m89.3-51.2c-6.8 20.5-17.7 46.4-16.4 49.1"/><path class="st95" d="M85.3 249.1s-47 4.3-34.4 18.5c0 0 3 7.4 35.8 6 32.8-1.4 38.8-4.8 39.9-7.9 1.1-3.1 5.2-14-34.4-14M49.1 232c-4.1-17.7-8.5-38.7 19.6-6.4m39.5-4.3c11.2-11.8 34.4-32.3 16.7 10m-65.5 10.9c10.9-10.9 6.8-17.7 17.7-1.4m23.9 2.1c9.6-13.6 8.2-21.8 16.4-2.7"/><path class="st95" d="M79.3 253.1c2.3-9.1 17.3-6.4 17.3-2.3 0 4.1-17.3 2.3-17.3 2.3zm-43.1-1.3l-27.3 15m25.9-6.8c5.5-16.4 4.1-10.9-6.8-10.9"/><path class="st96" d="M5.4 269.1s-1.5-.8-3.5.3m.4 10.8c2.7-2.7 6.3.2 9 .2s5.9 1.4 8.6 0"/><path class="st95" d="M1.9 292.1c2.7 0 5.6-.7 7-.7h1.4c2.8 0 5.5-1.4 6.9 1.3 1.4 2.7 6.8 2.8 9.5 0m62.7 0s0-13.6 4.1-12.3c4.1 1.4 12.3 8.2 6.8 5.5-5.5-2.7-8.2-2.7-8.2-2.7l10.9 23.2"/><path class="st96" d="M107.1 309.7c2.7-4.1 5.5-2.7 8.2-1.4 2.7 1.4-1.4 2.7 4.1 1.4 5.5-1.4 6.8-4.1 8.2-2.7 1.4 1.4 2.7 2.7 4.1 1.4 1.4-1.4 1.4-4.1 5.5-1.4 4.1 2.7 1.4 2.7 8.2 1.4 6.8-1.4 4.3 2 12.3 0 7.5-1.9 13.2-1.1 18.6-3.8 5.5-2.7 12.1-2.4 12.1-2.4"/><path d="M164.2 261.5l-10.5-1.1c-1.6-.2-2.8-1.6-2.7-3.3l.8-7.5c.2-1.6 1.6-2.8 3.3-2.7l10.5 1.1c1.6.2 2.8 1.6 2.7 3.3l-.8 7.5c-.2 1.6-1.7 2.8-3.3 2.7z" fill="#262626"/><path d="M161.2 281.6l-10.5-1.1c-1.6-.2-2.8-1.6-2.7-3.3l.8-7.5c.2-1.6 1.6-2.8 3.3-2.7l10.5 1.1c1.6.2 2.8 1.6 2.7 3.3l-.8 7.5c-.2 1.7-1.6 2.9-3.3 2.7z" fill="#e73b3b"/><path class="st95" d="M173.4 255.3c2.6-.4 3.1-1.8 5 0s2.4 1.5 6.4 1.8c4 .3 6-.4 7 0"/><path class="st96" d="M170 275.3c2.6.9 5.6 2.7 7.7 1.4 2.1-1.3 5.2-2.3 6.3-1 1.1 1.3 6.1 2 7 1.5"/></g><g id="the_tablet_1_"><path class="st8" d="M219.6 246.1h135.3c8.5 0 15.3-6.9 15.3-15.3V57.3c0-8.5-6.9-15.3-15.3-15.3H219.6c-8.5 0-15.3 6.9-15.3 15.3v173.5c-.1 8.5 6.8 15.3 15.3 15.3z"/><path class="st18" d="M213.1 57.6h148.4v165.7H213.1z"/><circle class="st9" cx="287.3" cy="49.7" r="2.1"/><path class="st9" d="M212.1 56.4h150.5v168.1H212.1z"/><path class="st8" d="M213.1 57.6h148.4v165.7H213.1z"/><path class="st99" d="M213.1 57.6h148.4v5H213.1z"/><path class="st8" d="M235.7 62.6h-22.6v-5.1h18c2.5 0 4.6 2.1 4.6 4.6v.5z"/><path class="st0" d="M235.7 64.3h81.1v3.9h-81.1z"/><path class="st99" d="M322.6 68.2h2.6c.8 0 1.5-.7 1.5-1.5v-.8c0-.8-.7-1.5-1.5-1.5h-2.6c-.8 0-1.5.7-1.5 1.5v.8c-.1.8.6 1.5 1.5 1.5zm8.9.1h2.6c.8 0 1.5-.7 1.5-1.5V66c0-.8-.7-1.5-1.5-1.5h-2.6c-.8 0-1.5.7-1.5 1.5v.8c-.1.8.6 1.5 1.5 1.5zm-101.7-.1c1.1 0 1.9-.9 1.9-1.9 0-1.1-.9-1.9-1.9-1.9-1.1 0-1.9.9-1.9 1.9 0 1 .8 1.9 1.9 1.9zm-6.9 0c1.1 0 1.9-.9 1.9-1.9 0-1.1-.9-1.9-1.9-1.9-1.1 0-1.9.9-1.9 1.9 0 1 .8 1.9 1.9 1.9zm117.6.1h2.6c.8 0 1.5-.7 1.5-1.5V66c0-.8-.7-1.5-1.5-1.5h-2.6c-.8 0-1.5.7-1.5 1.5v.8c0 .8.7 1.5 1.5 1.5zm16.5-2.9h-5.6c-.2 0-.4-.2-.4-.4s.2-.4.4-.4h5.6c.2 0 .4.2.4.4.1.2-.1.4-.4.4zm0 2.8h-5.6c-.2 0-.4-.2-.4-.4s.2-.4.4-.4h5.6c.2 0 .4.2.4.4.1.2-.1.4-.4.4zm0-1.4h-5.6c-.2 0-.4-.2-.4-.4s.2-.4.4-.4h5.6c.2 0 .4.2.4.4.1.2-.1.4-.4.4z"/><path class="st100" d="M213.1 71h148.4v54.6H213.1z"/><path class="st100" d="M294.6 121.4H280c-.8 0-1.5-.7-1.5-1.5v-3.3c0-.8.7-1.5 1.5-1.5h14.6c.8 0 1.5.7 1.5 1.5v3.3c0 .8-.6 1.5-1.5 1.5z"/><path class="st101" d="M292.5 119.5H282c-.7 0-1.3-.6-1.3-1.3 0-.7.6-1.3 1.3-1.3h10.5c.7 0 1.3.6 1.3 1.3 0 .7-.6 1.3-1.3 1.3z"/><path class="st17" d="M296.8 92.1h-19c-1.3 0-2.3-1-2.3-2.3 0-1.3 1-2.3 2.3-2.3h19c1.3 0 2.3 1 2.3 2.3 0 1.3-1 2.3-2.3 2.3zm-30.3 10h-9.7c-1.3 0-2.3-1-2.3-2.3 0-1.3 1-2.3 2.3-2.3h9.7c1.3 0 2.3 1 2.3 2.3 0 1.3-1 2.3-2.3 2.3zm23.1 0h-11.9c-1.3 0-2.3-1-2.3-2.3 0-1.3 1-2.3 2.3-2.3h11.9c1.3 0 2.3 1 2.3 2.3 0 1.3-1 2.3-2.3 2.3zm26.2 0H300c-1.3 0-2.3-1-2.3-2.3 0-1.3 1-2.3 2.3-2.3h15.8c1.3 0 2.3 1 2.3 2.3 0 1.3-1 2.3-2.3 2.3z"/><path class="st100" d="M213.1 204.4h148.4v18.8H213.1z"/><path d="M287.3 204.4h74.2v18.8h-74.2zm-24.8-9.1h-27c-2.5 0-4.6-2.1-4.6-4.6v-50.2c0-2.5 2.1-4.6 4.6-4.6h27c2.5 0 4.6 2.1 4.6 4.6v50.2c0 2.5-2 4.6-4.6 4.6z" fill="#e5e5e5" stroke="#252725" stroke-miterlimit="10"/><path class="st17" d="M294 167.9h-11.9c-.8 0-1.4-.6-1.4-1.4 0-.8.6-1.4 1.4-1.4H294c.8 0 1.4.6 1.4 1.4.1.7-.6 1.4-1.4 1.4zm38.2 0h-11.9c-.8 0-1.4-.6-1.4-1.4 0-.8.6-1.4 1.4-1.4h11.9c.8 0 1.4.6 1.4 1.4.1.7-.6 1.4-1.4 1.4z"/><path class="st103" d="M255.6 167.9h-11.9c-.8 0-1.4-.6-1.4-1.4 0-.8.6-1.4 1.4-1.4h11.9c.8 0 1.4.6 1.4 1.4 0 .7-.6 1.4-1.4 1.4z"/><path class="st17" d="M295.8 177.6H277c-.8 0-1.4-.6-1.4-1.4 0-.8.6-1.4 1.4-1.4h18.8c.8 0 1.4.6 1.4 1.4 0 .7-.6 1.4-1.4 1.4zm-5.5 5.6H277c-.8 0-1.4-.6-1.4-1.4 0-.8.6-1.4 1.4-1.4h13.4c.8 0 1.4.6 1.4 1.4 0 .8-.7 1.4-1.5 1.4zm43.7-5.8h-18.8c-.8 0-1.4-.6-1.4-1.4 0-.8.6-1.4 1.4-1.4H334c.8 0 1.4.6 1.4 1.4.1.8-.6 1.4-1.4 1.4zm-5.4 5.7h-13.4c-.8 0-1.4-.6-1.4-1.4 0-.8.6-1.4 1.4-1.4h13.4c.8 0 1.4.6 1.4 1.4 0 .7-.6 1.4-1.4 1.4zm6.4 5.8h-19.8c-.8 0-1.4-.6-1.4-1.4 0-.8.6-1.4 1.4-1.4H335c.8 0 1.4.6 1.4 1.4.1.8-.6 1.4-1.4 1.4z"/><path class="st103" d="M257.4 177.3h-18.8c-.8 0-1.4-.6-1.4-1.4 0-.8.6-1.4 1.4-1.4h18.8c.8 0 1.4.6 1.4 1.4 0 .8-.7 1.4-1.4 1.4zm-5.5 5.7h-13.4c-.8 0-1.4-.6-1.4-1.4 0-.8.6-1.4 1.4-1.4h13.4c.8 0 1.4.6 1.4 1.4 0 .7-.6 1.4-1.4 1.4zm6.5 5.8h-19.8c-.8 0-1.4-.6-1.4-1.4 0-.8.6-1.4 1.4-1.4h19.8c.8 0 1.4.6 1.4 1.4 0 .8-.7 1.4-1.4 1.4z"/><circle cx="249.7" cy="151.2" r="9.9" fill="#fafafa" stroke="#252725" stroke-miterlimit="10"/><circle class="st100" cx="288.1" cy="151.2" r="9.9"/><circle class="st100" cx="326.3" cy="151.2" r="9.9"/><path class="st17" d="M296.8 188.8H277c-.8 0-1.4-.6-1.4-1.4 0-.8.6-1.4 1.4-1.4h19.8c.8 0 1.4.6 1.4 1.4 0 .8-.6 1.4-1.4 1.4z"/><path class="st11" d="M371.2 165c-1.5 0-2.7-1.2-2.7-2.7v-33.9c0-1.5 1.2-2.7 2.7-2.7 2.1 0 3.9 1.7 3.9 3.9v31.6c0 2.1-1.8 3.8-3.9 3.8zM204 125.6c1.5 0 2.7 1.2 2.7 2.7v33.9c0 1.5-1.2 2.7-2.7 2.7-2.1 0-3.9-1.7-3.9-3.9v-31.6c.1-2 1.8-3.8 3.9-3.8z"/><path class="st100" d="M355.9 80h-14.6c-.8 0-1.5-.7-1.5-1.5v-3.3c0-.8.7-1.5 1.5-1.5h14.6c.8 0 1.5.7 1.5 1.5v3.3c.1.8-.6 1.5-1.5 1.5z"/><path class="st101" d="M353.9 78.1h-10.5c-.7 0-1.3-.6-1.3-1.3 0-.7.6-1.3 1.3-1.3h10.5c.7 0 1.3.6 1.3 1.3-.1.7-.6 1.3-1.3 1.3z"/><path class="st17" d="M304 78.1h-5.6c-.7 0-1.3-.6-1.3-1.3 0-.7.6-1.3 1.3-1.3h5.6c.7 0 1.3.6 1.3 1.3 0 .8-.6 1.3-1.3 1.3zm13.4 0h-6.9c-.7 0-1.3-.6-1.3-1.3 0-.7.6-1.3 1.3-1.3h6.9c.7 0 1.3.6 1.3 1.3 0 .8-.6 1.3-1.3 1.3zm15.2 0h-9.2c-.7 0-1.3-.6-1.3-1.3 0-.7.6-1.3 1.3-1.3h9.2c.7 0 1.3.6 1.3 1.3 0 .8-.6 1.3-1.3 1.3z"/><path class="st100" d="M213.1 71l148.4 54.6m-148.4 0L362.3 71m-75 133.4l35.8 18.9m38.5-18.9l-34.4 18.9m-114.1-97.7h148.4v78.8H213.1z"/></g></svg>