<svg xmlns="http://www.w3.org/2000/svg" viewBox="0 0 400 400"><path fill="#FFF" d="M0 0h400v400H0z"/><path fill="#00789F" d="M400 270.5C196.7 265 30.7 250.3 30.7 211.3c-10.9 0-21.3 2.3-30.7 6.5m0 88.3h400"/><path fill="#006E89" d="M82.3 400V211.3H49V400h33.3z"/><path fill="#008DD1" d="M400 211.3H30.7c-10.9 0-21.3 2.3-30.7 6.5v68.7h400v-75.2z"/><path fill="#00789F" d="M400 286.5H0v19.6h400v-19.6z"/><path fill="#0084B7" d="M400 270.5C196.7 265 30.7 250.3 30.7 211.3c-10.9 0-21.3 2.3-30.7 6.5v68.7h400v-16z"/><path fill="#009EDB" d="M400 214.3c-24-1.9-37.8-3-37.8-3H400v3z"/><path fill="#E2E2E2" d="M185.7 268.6c38.3 15.1 73.2 30.5 89.6 48.1 15.5-25.8 72.3-62.1 116.3-95.1l-78.3-15.9c-14.9-3-30.5-.1-43.2 8.2l-84.4 54.7z"/><path fill="#D8D8D8" d="M191.8 277.2s61.9 9.4 95.1 31.3c38.4-38.7 80.9-83.5 100.4-93.8-31.1-6.1-62.3-12.5-91.5-13.7l-104 76.2z"/><path fill="#EEEDED" d="M319.4 197.6c-19.7 1.7-116.9 49.8-133.7 58-1.1.5-1.1 2-.1 2.6 15 8.7 62.2 45.7 66.5 63 .3 1 1.5 1.5 2.3.9 44.6-33.2 94.6-66.6 140.6-88 1.1-.5 1.2-2.1 0-2.7-23.5-11.2-45.9-24.8-75.6-33.8z"/><path fill="none" stroke="#262626" stroke-width="3" stroke-linecap="round" stroke-miterlimit="10" d="M205.4 263.1c-1.8-.9-3-2.6-4.9-3.3m25.8 3.4c5.1 1.6 10.4 4 13.3 8.9.1.2.2.3.4.4 1 .7 4.7 3.6 5.6 5.5.9 1.9-1.2 3 1.3 3.4.5.1.9.4 1.1.8 1 1.8 2.3 4 3.7 5.4 0 .1.1.1.1.1 2.8 2.4 5.5 4.9 9 7.3.1.1-1.1.6.2.2 1.2-.4 1.8 5.1 3.1 6.3m-55.9-48.2c2.5 1.5 4.2 3.8 7.1 4.7m34.9 10.6c-.8-.8-.3-3.1-.9-4.1-.1-.2-.3-.3-.4-.4-5.9-3.2-9.6-8.7-15.5-12-.4-.2-.8-.2-1.2-.1-4.6 1.4-5.8-2.7-8.8-5.5m49.9 48.3c-1-3.3-2.7-5.7-5.9-8.1-.4-.3-.6-.7-.6-1.1 0-.5 0-1-.1-1.5 0-.3-.1-.5-.2-.7-1-1.4-2.6-1.4-3.8-2.3-.4-1.6.8.3 0 0-.4-1.6-1-2.7-2.2-3.7-1.4-1.2-2.5-1-3.1-3.3m53.3-15.7l-14 12.3c-.6.5-1.6.5-2.1-.2l-2.8-2.8c-.5-.6-.5-1.5.2-2.1l14-12.3c.6-.5 1.6-.5 2.1.2l2.8 2.8c.5.6.4 1.5-.2 2.1zM299 247.3l-19.6 15.6c-.6.5-1.5.4-2-.2l-3-3.4c-.6-.6-.5-1.6.2-2.2l19.6-15.6c.6-.5 1.5-.4 2 .2l3 3.4c.5.7.4 1.7-.2 2.2zm-9.6-11.4l-7.9 6.1c-.6.5-1.5.4-2-.2l-2.3-2.4c-.6-.6-.5-1.7.2-2.2l7.9-6.1c.6-.5 1.5-.4 2 .2l2.3 2.4c.5.7.5 1.7-.2 2.2zm9.8-9.7c-2 0-4.5-3.6-5.9-4.9-1.3-1.2-4.6-2.5-6.5-2.1m40.1 32.4c-2.8-3.5-6-6.6-10-9.4-1-.7-3.7-3.4-4.8-5-1.6-2.2-5.3-4.8-8.5-8.4m21.9-2.3c-.1-2.5-2.7-2.4-4.4-3.2-2.2-1-2.7-3.4-4.2-5.2-1.4-1.8-3.5-2-5-3.5-.8-.8-3.8-3.5-5.2-3m27.7 33.1c-.2-4-4.5-3.2-6.7-6m19 1.5s-6.2-2.8-6.7-4.7c-.5-1.9-4-4-6.1-5.2M317 207s7.9 2.5 7.5 3.5c-.5 1 3.4 4 5.7 4.2 2.3.2 8.6 1.5 8.9 2.8s3.3 3.9 5 4.8c1.8.9 8-.1 8.6 3.3.7 3.5 1.1 5.9 5.4 6s6.8.4 7.5 1.6"/><path fill="#FAFAFA" d="M400 245.2h-34.7c-1.7 0-3.1 1.4-3.1 3.1 0 1.7 1.4 3.1 3.1 3.1H400v-6.2z"/><path fill="#EFEFEF" d="M400 249.4c-12.7-.3-25.3-.6-37.8-1.1 0 1.7 1.4 3.1 3.1 3.1H400v-2z"/><path fill="#FAFAFA" d="M377.2 245.2h-10.7c0-.8.6-1.4 1.4-1.4h7.9c.8 0 1.4.6 1.4 1.4zm14.4 0h-10.7c0-.8.6-1.4 1.4-1.4h7.9c.8 0 1.4.6 1.4 1.4zm8.4 0h-3.1c0-.8.6-1.4 1.4-1.4h1.7v1.4zM287.7 0v126.7c0 10.8 8.7 19.5 19.5 19.5H400V.3L287.7 0z"/><path fill="#090A0A" d="M287.7 93.6V0H400v93.6H287.7z"/><path fill="#FAFAFA" d="M298.2 0H400v83.6H298.2z"/><path fill="#3F6AB2" d="M332.8 0v49.7c0 2.2 1.7 3.9 3.9 3.9h38.7c2.2 0 3.9-1.7 3.9-3.9V0h-46.5z"/><path fill="#252725" d="M400 14.6h-1.4c-1 0-1.8.8-1.8 1.8s.8 1.8 1.8 1.8h1.4v-3.6z"/><path fill="#FAFAFA" d="M364.6 18.3h-15.3c-1 0-1.8-.8-1.8-1.8s.8-1.8 1.8-1.8h15.3c1 0 1.8.8 1.8 1.8s-.8 1.8-1.8 1.8z"/><path fill="#252725" d="M400 27.1h-7.9c-1 0-1.8.8-1.8 1.8s.8 1.8 1.8 1.8h7.9v-3.6zm0 7.3h-7.9c-1 0-1.8.8-1.8 1.8s.8 1.8 1.8 1.8h7.9v-3.6zm0 7.5h-7.9c-1 0-1.8.8-1.8 1.8s.8 1.8 1.8 1.8h7.9v-3.6z"/><path fill="#FAFAFA" d="M366.8 30.5h-24.2c-1 0-1.8-.8-1.8-1.8s.8-1.8 1.8-1.8h24.2c1 0 1.8.8 1.8 1.8s-.8 1.8-1.8 1.8zm-7 7.2h-17.2c-1 0-1.8-.8-1.8-1.8s.8-1.8 1.8-1.8h17.2c1 0 1.8.8 1.8 1.8s-.8 1.8-1.8 1.8zm8.3 7.6h-25.4c-1 0-1.8-.8-1.8-1.8s.8-1.8 1.8-1.8h25.4c1 0 1.8.8 1.8 1.8s-.8 1.8-1.8 1.8z"/><path fill="#F7E23D" d="M344.5 0c1.4 5.6 6.4 9.7 12.4 9.7s11-4.1 12.4-9.7"/><path fill="#E6E7EB" d="M298.2 64.1H400v19.5H298.2zm13.3 54.1l-5.3 12.8c-.1.3-.2.6-.1.9l1.4 11.1c.1 1 1.1 1.7 2 1.5l33.8-5.8c1-.2 1.6-1.1 1.4-2l-1.5-8.7c-.1-.5-.4-1-.9-1.3l-2.4-1.2c-.5-.3-.8-.7-.9-1.3l-2.5-14.6c-.1-.7-.6-1.2-1.3-1.4-1-.3-1.6-1.4-1.1-2.4l3.9-9c.6-1.3-.5-2.7-1.9-2.4l-17.5 3c-.5.1-1 .4-1.3.9-.4.8-1.4 1.2-2.3.8l-7.7-3.3c-1.3-.5-2.7.5-2.4 1.9l2.7 16c.1.6.5 1.1 1.1 1.3l1.8.8c1 .5 1.4 1.5 1 2.4z"/><linearGradient id="a" gradientUnits="userSpaceOnUse" x1="546.869" y1="-340.053" x2="546.781" y2="-340.151" gradientTransform="matrix(132.2331 -22.62 13.2188 77.2751 -67484.922 38750.625)"><stop offset="0" stop-color="#83c7ed"/><stop offset="1" stop-color="#008fce"/></linearGradient><path fill="url(#a)" d="M331.1 108.1l4.7-11.5-15.6 2.7-1.6 3.8 12.5 5z"/><path opacity=".15" d="M318.6 103.1l.8-2 11.7 7-12.5-5z"/><linearGradient id="b" gradientUnits="userSpaceOnUse" x1="544.995" y1="-340.962" x2="544.884" y2="-341.005" gradientTransform="matrix(77.7676 -13.303 22.5523 131.8376 -34354.29 52321.566)"><stop offset="0" stop-color="#ed9c66"/><stop offset=".185" stop-color="#ec9863"/><stop offset=".409" stop-color="#e88b5e"/><stop offset=".654" stop-color="#e37654"/><stop offset=".911" stop-color="#db5546"/><stop offset="1" stop-color="#d84740"/></linearGradient><path fill="url(#b)" d="M337.8 126.3l-2.7-15.6-3.7-1.5-5.2 12.4 11.6 4.7z"/><path opacity=".15" d="M326.2 121.6l1.9.8 3.2-13.2-5.1 12.4z"/><linearGradient id="c" gradientUnits="userSpaceOnUse" x1="547.572" y1="-340.229" x2="547.675" y2="-340.308" gradientTransform="matrix(161.5549 -27.6358 22.5523 131.8376 -80481.46 60100.176)"><stop offset="0" stop-color="#33a958"/><stop offset="1" stop-color="#c0cf6e"/></linearGradient><path fill="url(#c)" d="M307.1 98.3l2.7 15.6 4 1.5 17.4-7.3-24.1-9.8z"/><linearGradient id="d" gradientUnits="userSpaceOnUse" x1="547.886" y1="-340.895" x2="547.959" y2="-341.095" gradientTransform="matrix(184.0491 -31.4837 18.4533 107.8755 -94231.898 54154.137)"><stop offset="0" stop-color="#33a958"/><stop offset="1" stop-color="#c0cf6e"/></linearGradient><path fill="url(#d)" d="M313.8 116.6l-4.7 11.3 15.6-2.7 6.6-16.1-17.5 7.5z"/><path d="M309.1 141.5l.9-.2-.5-5.6-.9.2-.2-1.1 2.5-.4 2.5 4 .3.6s0-.3.1-.7l1-4.6 2.5-.4.2 1.1-.9.2 1.4 5.5.9-.2.2 1.1-3.1.5-.2-1.1.9-.1-.9-3.8c-.1-.3-.1-.7-.1-.7s0 .4-.1.7l-.9 3.8-1.2.2-2.1-3.3c-.1-.2-.3-.7-.3-.7s.1.4.2.7l.4 3.9.9-.1.2 1.1-3.2.5-.5-1.1zm13-9.1c2.3-.4 4.3 1 4.7 3.2.4 2.3-1 4.3-3.3 4.7-2.3.4-4.3-1.1-4.7-3.3-.4-2.2 1-4.2 3.3-4.6zm1.2 6.7c1.4-.2 2.3-1.6 2-3.2-.3-1.5-1.6-2.5-3-2.2-1.4.2-2.3 1.6-2.1 3.1.3 1.5 1.7 2.5 3.1 2.3zm4.7-.8l.9-.2-.9-5.6-.9.2-.2-1.1 3.3-.6c.6-.1 1.1-.2 1.6-.1 1.6.2 2.8 1.3 3.1 3.2.3 1.8-.4 3.3-1.8 4-.5.3-1 .4-1.7.5l-3.3.6-.1-.9zm3.2-.6c.5-.1.9-.2 1.2-.4.8-.5 1.2-1.5 1-2.8-.2-1.3-1-2.1-1.9-2.3-.4-.1-.8 0-1.2 0l-.9.2.9 5.4.9-.1zm5-.8l.7-.1 1.5-3.2-2.3-2.4-.7.1-.2-1.1 2.9-.5.2 1.1-.8.1 1.3 1.4c.2.1.3.3.3.3l.2-.4.8-1.8-.7.1-.2-1.1 2.8-.5.2 1.1-.7.1-1.5 3.2 2.4 2.4.7-.1.2 1.1-2.9.5-.2-1.1.8-.1-1.3-1.4-.3-.3s-.1.2-.1.4l-.8 1.8.7-.1.2 1.1-2.8.5-.4-1.1z"/><path fill="#775412" d="M144.1 251.5H22.4c-8.1 2.3-8.1 22 0 25.5h121.7l67.2-78.8c-3.5-1.2-3.5-17.4 0-22l-67.2 75.3z"/><path fill="#D6B761" d="M142.9 252.7l-119.6-.3c-7.8 2.1-7.8 20.3 0 23.5h119.6l67.2-77.7c-3.4-1.1-3.4-16.6 0-20.9l-67.2 75.4z"/><path fill="#F2A50A" d="M144.1 251.5l67.2-75.4h-93.9l-95 75.4z"/><path fill="#E0D515" d="M143.8 249.8l62.1-69.5c1-1.1.2-2.9-1.3-2.9H118c-.4 0-.8.1-1.1.4l-87.7 69.5c-1.3 1-.6 3.1 1.1 3.1h112.2c.5-.1 1-.3 1.3-.6z"/><path fill="none" stroke="#E2B647" stroke-miterlimit="10" d="M24.7 253.2l118.2.5 67.9-75.8"/><path fill="none" stroke="#E2B647" stroke-miterlimit="10" d="M20 255.6h123.2l66.4-74.2"/><path fill="none" stroke="#E2B647" stroke-miterlimit="10" d="M18.9 257.9h124.3l66.4-74.2"/><path fill="none" stroke="#E2B647" stroke-miterlimit="10" d="M18.9 259h125.4l66-73.8"/><path fill="none" stroke="#E2B647" stroke-miterlimit="10" d="M17.7 261.4h126.6l66-73.9"/><path fill="none" stroke="#E2B647" stroke-miterlimit="10" d="M17.7 263.7h126.6l66-73.9"/><path fill="none" stroke="#E2B647" stroke-miterlimit="10" d="M17.7 266h126.6l66-73.9"/><path fill="none" stroke="#E2B647" stroke-miterlimit="10" d="M18.9 267.2h125.4l66-73.9"/><path fill="none" stroke="#E2B647" stroke-miterlimit="10" d="M18.9 268.3h124.3l66-73.8"/><path fill="none" stroke="#E2B647" stroke-miterlimit="10" d="M20 270.6h123.2l67.6-75.3"/><path fill="none" stroke="#E2B647" stroke-miterlimit="10" d="M20 271.8h123.2l67.6-75.4"/><path fill="none" stroke="#E2B647" stroke-miterlimit="10" d="M21.2 274.1h122l67.6-76.5"/><path fill="#775412" d="M144.6 223.3l-121.7-3c-8.2 2.1-8.7 21.8-.6 25.5l121.7 3 69.2-77.1c-3.4-1.2-3-17.5.6-22l-69.2 73.6z"/><path fill="#D6B761" d="M143.4 224.4l-119.6-3.3c-7.9 1.9-8.3 20.1-.6 23.4l119.6 3 69.2-76c-3.3-1.2-2.9-16.7.5-20.9l-69.1 73.8z"/><path fill="#E87D2E" d="M144.6 223.3l69.1-73.7-93.8-2.3-97 72.9z"/><path fill="#DC5518" d="M144.4 221.5l63.8-68c1-1.1.3-2.9-1.2-2.9l-86.5-2.2c-.4 0-.8.1-1.1.4L30 216.1c-1.3 1-.6 3.1 1 3.1l112.1 2.8c.5.1.9-.1 1.3-.5z"/><path fill="none" stroke="#E2B647" stroke-miterlimit="10" d="M25.2 222l118.2 3.4 69.7-74.1"/><path fill="none" stroke="#E2B647" stroke-miterlimit="10" d="M20.5 224.2l123.1 3.1 68.3-72.5"/><path fill="none" stroke="#E2B647" stroke-miterlimit="10" d="M19.3 226.5l124.2 3.1 68.3-72.5"/><path fill="none" stroke="#E2B647" stroke-miterlimit="10" d="M19.3 227.7l125.4 3.1 67.8-72.2"/><path fill="none" stroke="#E2B647" stroke-miterlimit="10" d="M18 230l126.6 3.1 67.8-72.2"/><path fill="none" stroke="#E2B647" stroke-miterlimit="10" d="M18 232.3l126.6 3.1 67.8-72.1"/><path fill="none" stroke="#E2B647" stroke-miterlimit="10" d="M17.9 234.6l126.6 3.2 67.8-72.2"/><path fill="none" stroke="#E2B647" stroke-miterlimit="10" d="M19.1 235.8l125.4 3.1 67.8-72.2"/><path fill="none" stroke="#E2B647" stroke-miterlimit="10" d="M19 236.9l124.3 3.1 67.8-72.1"/><path fill="none" stroke="#E2B647" stroke-miterlimit="10" d="M20.1 239.3l123.1 3.1 69.5-73.7"/><path fill="none" stroke="#E2B647" stroke-miterlimit="10" d="M20.1 240.4l123.1 3.1 69.4-73.6"/><path fill="none" stroke="#E2B647" stroke-miterlimit="10" d="M21.2 242.8l121.9 3 69.5-74.8"/><path fill="#775412" d="M200.9 127.4l-67.2 75.4H11.9c-.1 0-.1.1-.2.1v25.3c.1 0 .1.1.2.1h121.7l67.2-78.8c-3.4-1.2-3.4-17.4.1-22.1z"/><path fill="#D6B761" d="M199.8 128.6L132.5 204l-119.6-.3c-.4.1-.8.3-1.2.5-2.8 7.1-3.1 14.5 0 22.4.4.2.8.5 1.2.6h119.6l67.2-77.7c-3.3-1.1-3.3-16.6.1-20.9z"/><path fill="#69B42E" d="M133.7 202.8l67.2-75.4H107l-95.1 75.4z"/><path fill="none" stroke="#E2B647" stroke-miterlimit="10" d="M14.2 204.5l118.3.5 67.8-75.8"/><path fill="none" stroke="#E2B647" stroke-miterlimit="10" d="M11.9 206.9c40.6-2.9 81.2 1.7 121.8-.6 16.2-19.7 33.6-37.1 49.9-56.8 3.5-4.6 8.1-7 11.6-11.6 1.2-2.3 3.5-3.5 4.1-5.2"/><path fill="none" stroke="#E2B647" stroke-miterlimit="10" d="M11.9 209.2c40.6-2.9 81.2 1.7 121.7-.6 18.6-19.7 35.9-39.4 54.5-60.3 3.5-4.6 9.3-8.1 11-13.3"/><path fill="none" stroke="#E2B647" stroke-miterlimit="10" d="M11.9 210.3c40.6-2.9 82.3 1.7 122.9-.6 18.6-22 38.3-41.7 56.8-64.9 2.3-2.3 5.8-4.6 8.3-8.4"/><path fill="none" stroke="#E2B647" stroke-miterlimit="10" d="M11.9 212.7c40.6-2.9 82.3 1.7 122.9-.6 20.9-24.3 42.9-48.7 65.1-73.3"/><path fill="none" stroke="#E2B647" stroke-miterlimit="10" d="M11.9 215c40.6-2.9 82.3 1.7 122.9-.6 20.9-24.3 42.9-48.7 65.1-73.3"/><path fill="none" stroke="#E2B647" stroke-miterlimit="10" d="M11.9 217.3c40.6-2.9 82.3 1.7 122.9-.6 20.9-24.3 42.9-48.7 65.1-73.3"/><path fill="none" stroke="#E2B647" stroke-miterlimit="10" d="M11.9 218.5c40.6-2.9 82.3 1.7 122.9-.6 18.6-22 38.3-41.7 56.8-64.9 2.3-2.3 5.8-4.6 8.3-8.4"/><path fill="none" stroke="#E2B647" stroke-miterlimit="10" d="M11.9 219.6c40.6-2.9 81.2 1.7 121.7-.6 20.9-24.3 42.9-48.7 65.1-73.3"/><path fill="none" stroke="#E2B647" stroke-miterlimit="10" d="M11.9 221.9H115c5.2 0 10.9.6 16.1 0 2.4-.3 2.7-1.1 4.5-3.1 11.5-12.9 23.1-25.7 34.6-38.6 9.9-11 19.8-22 29.6-33.1.2-.2.3-.4.5-.6"/><path fill="none" stroke="#E2B647" stroke-miterlimit="10" d="M11.9 223.1H115c5.2 0 10.9.6 16.1 0 2.4-.3 2.7-1.1 4.5-3.1 11.5-12.9 23.1-25.7 34.6-38.6 9.9-11 19.8-22 29.6-33.1.2-.2.3-.4.5-.6"/><path fill="none" stroke="#E2B647" stroke-miterlimit="10" d="M11.9 225.4c40.6-2.9 81.1 1.7 121.7-.6 19.7-24.3 40.6-46.4 62.6-70.7 1.2-2.3 3.5-3.5 4.1-5.2"/><path fill="#63B22F" d="M122.8 206c10.8.4 15.9 1.4 22.2-7.4l51-69.3c1.1-1.2.2-3.2-1.4-3.2h-76.9c-12.8 0-25.2 4.3-35.3 12.3-21.8 17.3-61.3 51.3-70.5 58.8-5.4 4.4.4 7.8 7.4 7.9 26.3.4 77.1-.1 103.5.9z"/><path fill="#E5E5E5" d="M58.6 194.3h45.8c.6 0 .9.7.5 1.1-.8 1-2.1 1.6-3.4 1.6H55.1c-.7 0-.9-.9-.3-1.3l1.6-.9c.7-.3 1.4-.5 2.2-.5zm68.7-62.7h32.5c.4 0 .6.7.4 1.1-.6 1-1.5 1.6-2.4 1.6h-32.9c-.5 0-.7-.9-.2-1.3l1.2-.9c.4-.3.9-.5 1.4-.5zm-40.9 55.7h45.8c.6 0 .9.7.5 1.1-.8 1-2.1 1.6-3.4 1.6H83c-.7 0-.9-.9-.3-1.3l1.6-.9c.6-.3 1.4-.5 2.1-.5zm-45.8 0h39.2c.5 0 .8.7.4 1.1-.7 1-1.8 1.6-2.9 1.6H37.6c-.6 0-.8-.9-.3-1.3l1.4-.9c.6-.3 1.2-.5 1.9-.5z"/><path fill="#D6B761" d="M210.8 272.2c-5.1 6.2-11.5 10.5-18.8 10.2l-68.1-118.6c3.2-6.7 10.6-11 15-11.8l68.1-44.3c10-6.5 7.9-5.7 12.6-5l-77.8 49.1 69 120.4z"/><path fill="none" stroke="#E2B647" stroke-miterlimit="10" d="M208.9 272.4l-68.8-120.8m65.6 124.8l-71-122m71.8 120.1l-70.3-120.6m71.7 119.7l-70.5-120.5m71.9 119.6L138.8 152m66.1 125.2l-72-122.1m70.3 123l-72.3-122m70.7 123l-72.2-122.2m71 121.9l-72.4-121m71.1 121.9l-72.5-121.1m70 121.8l-71.2-120.5M194 281l-69.2-118.9"/><path fill="#F2A50A" d="M146.3 144.5l66.7-42c5.2-3.2 12-1.5 14.9 3.9l50.7 92c2.9 5.3 1.9 11.8-2.5 16l-57.8 55.2c-5 4.7-13.1 3.6-16.5-2.4l-59.9-104.9c-3.6-6.2-1.6-14.1 4.4-17.8z"/><path fill="#E5E5E5" d="M254 179.5l-19.7-34.3c-.3-.6-1.1-.8-1.7-.4l-1.1.7c-.6.4-.7 1.1-.4 1.6l19.7 34.3c.3.6 1.1.8 1.7.4l1.1-.7c.5-.3.7-1.1.4-1.6zm-62.8 20.3l-19.9-36.1c-.4-.6-1.2-.8-1.8-.5l-1.2.7c-.6.4-.8 1.1-.4 1.7l19.9 36.1c.4.6 1.2.8 1.8.5l1.2-.7c.5-.4.7-1.1.4-1.7zm17.2 32.2l-10.5-19.3c-.3-.6-1.2-.9-1.8-.5l-1 .7c-.5.4-.7 1.1-.4 1.6l10.5 19.3c.3.6 1.2.9 1.8.5l1-.7c.6-.3.8-1 .4-1.6z"/><path fill="#E6E7EB" d="M400 117.5l-44.4-18.7c-.5-.2-1.1 0-1.3.5l-7.4 17.6c-.2.5 0 1.1.5 1.3l12.5 5.3c.5.2.8.8.5 1.3l-.3.7c-.2.5 0 1.1.5 1.3l11.6 4.9c.5.2 1.1 0 1.3-.5l.3-.7c.2-.5.8-.8 1.3-.5l23.6 10c.4.2.9 0 1.2-.3l.1-22.2z"/><path fill="#CC3A38" d="M355.6 100.3l44.4 18.8v16.8l-1.1 2.5-25.2-10.7-1.2 2.8-11.2-4.7 1.2-2.8-14-5.9 7.1-16.8zm-3.2 15.2l5.6 2.4 3.6-8.4 2.8 1.2-3.6 8.4 2.8 1.2 4.7-11.2-11.2-4.7-4.7 11.1zm18.8-5.3l-5.9 14 5.6 2.4 1.2-2.8 5.6 2.4 4.7-11.2-11.2-4.8zm4.4 5.2l2.8 1.2-2.4 5.6-2.8-1.2 2.4-5.6zm9.6.7l-4.7 11.2 5.6 2.4 3.6-8.4 2.8 1.2-3.6 8.4 2.8 1.2 3.6-8.4 2.8 1.2-3.6 8.4 2.8 1.2 2.7-6.4v-5.7l-14.8-6.3z"/><path fill="#FFF" d="M352.4 115.5l5.7 2.4 3.5-8.4 2.8 1.1-3.5 8.5 2.8 1.1 4.7-11.2-11.2-4.7zm18.8-5.3l-5.9 14 5.6 2.4 1.2-2.8 5.6 2.4 4.7-11.2-11.2-4.8zm4.9 12l-2.8-1.2 2.4-5.6 2.8 1.2-2.4 5.6zm9.1-6.1l-4.7 11.2 5.6 2.4 3.5-8.4 2.8 1.2-3.5 8.4 2.8 1.2 3.6-8.4 2.8 1.1-3.6 8.5 2.8 1.1 2.7-6.3v-5.7z"/><path fill="#006172" d="M0 0h212.3v62.6L0 64.1z"/><path fill="#007F99" d="M204.6 75.1l.3-75.1H186v74.5z"/><path fill="#F3CA32" d="M0 0h40.9L37 44.6 0 54.8z"/><path fill="#FADA44" d="M0 45.2l28.3-7.8L31.7 0H0z"/><path fill="#FFF" d="M8.7 0L7.4 14.9l-7.4 2v14.2l20.2-5.7.2-2.3 2-23.1z"/><path fill="#9EC9ED" d="M176.9 52.8V0h18.6v52.8h-18.6z"/><path fill="#F6A11D" d="M157 52.8l.3-52.8h19.6v52.8H157z"/><path fill="#434B9A" d="M103.6 52.8V0h19.9v52.8h-19.9z"/><path fill="#349A37" d="M36.1 50.9L42.8 0h24.6l-7.1 54-24.2-3.1z"/><path fill="#DEC328" d="M123.5 52.7V0h19.9v52.7h-19.9z"/><path fill="#EBEFF7" d="M70.4 52.8V0h33.2v52.8H70.4z"/><path fill="#C43A17" d="M143.4 52.8V0h13.9v52.8h-13.9z"/><path fill="#7C83B7" d="M107.9 16.8v30.3c1.2.8 2.4.8 3.7 0V16.8c-1.2-.8-2.4-.8-3.7 0z"/><path fill="#9294C9" d="M115 17.2v30.3c1.2.8 2.4.8 3.6 0V17.2c-1.2-.8-2.4-.8-3.6 0z"/><path fill="#377630" d="M39.3 43.4l-.7 5.1c6.3 2.4 12.9 3.2 20 2.6l.7-5.1c-7 .4-13.7-.4-20-2.6z"/><path fill="#0084B7" d="M204.6 0v53.1H0v22h215c6.4 0 11.6-5.2 11.6-11.6V0h-22z"/><path fill="#141B28" d="M84.2 12.4l1.9.5-1.9-.5zm4.2-2.8v.6-.6zm2.8.2v3.6-3.6zM88.4 9v.6V9zm2.6.5l-2.4-.6 2.4.6zm.2-9.5v4.4c-.1 3.4-2.8 3.6-5.7 3l-.2-.1-2.6-.5-2.6-.5c-.1 0-.2-.2-.2-.3V3.4c0-.1.1-.2.2-.2l2 .4L84 4c.1 0 .3.1.5.1l.5.1.4.1h.2c1.6.4 2.8.6 2.8-1.2V1.4c0-.1-.1-.3-.2-.3L84.1.2l-1-.2h8.1zM87 27.6l-1.7-.4 1.9.4 2 .4-1.7-.4c-.1.1-.4.1-.5 0zM79.8 23v2.7c0 .1.1.3.2.3l1.1.3 1.1.3c.1 0 .2-.1.2-.2v-2.7c0-.1-.1-.3-.2-.3l-1.1-.2L80 23c-.1-.2-.2-.1-.2 0zm3.8.6l3.7.8-3.7-.8zm12.2 7.9v-2.2 2.2zm-12.2-4.6l1.7.4-1.7-.4z"/><path fill="#141B28" d="M83.4 23.8v2.7c0 .1.1.3.2.3l1.7.4 1.7.4c.1 0 .4.1.5.1l1.7.4 1.7.4c.1 0 .4.1.5.1 0 0 1.5.5 1.5 1.4v.8c0 .1.1.3.2.3l1.2.3 1.2.3c.1 0 .2-.1.2-.2v-2.2c0-2.1-1.2-3.3-4.6-4l-3.9-.8-3.7-.8c0-.1-.1 0-.1.1zm.6-11.5l.2.1 1.9.5 1.9.5c.1 0 .2.2.2.3v2.9c0 2.2-1.7 2.7-4.2 2.2-2.6-.5-4.1-1.6-4.3-3.7-.1-2.9 1.9-3.5 4.3-2.8zm4.1-1.9s-3.3-1.3-5.2-1.7c-2.5-.4-6.2.8-6.2 5.7s3.5 7 7.3 7.8c3.8.8 7.2-.2 7.2-5.1V9.7c0-.1-.1-.3-.2-.3l-2.4-.6c-.1 0-.2 0-.2.2v1.2c0 .2-.1.2-.3.2.1 0 .1 0 0 0z"/><path fill="#0A69AD" d="M81.7 47.5c1.9 1.3 4.4 1.2 6.5.1 0 0 .1 0 .1-.1h.2s.1 0 .1-.1c.1 0 .1-.1.2-.1 0 0 .1 0 .1-.1.1 0 .1-.1.2-.1h.1c.1-.1.2-.1.2-.2.1 0 .1-.1.2-.2l.1-.1c.1 0 .1-.1.2-.1l.1-.1.2-.2.2-.2.1-.1.2-.2.1-.1.2-.2.2-.2s0-.1.1-.1c0-.1.1-.1.1-.2 0 0 0-.1.1-.1 0-.1.1-.1.1-.2v-.1c0-.1.1-.1.1-.2 0 0 0-.1.1-.1.1-.1.1-.2.2-.3v-.1c0-.1.1-.1.1-.2 0 0 0-.1.1-.1l.1-.1v-.1c0-.1.1-.2.1-.2 0-.1.1-.2.1-.3v-.1c0-.1.1-.2.1-.3 0-.1.1-.2.1-.3V42c0-.1.1-.2.1-.3 1.2-6.5-3.9-8.4-3.9-8.4 2.1 1.6 2.6 4.4 2 7.1 0 .1-.1.2-.1.3v.1c0 .1-.1.2-.1.3 0 .1-.1.2-.1.3v.1c0 .1-.1.2-.1.3v.1c0 .1-.1.2-.1.2v.1c0 .1-.1.1-.1.2 0 0 0 .1-.1.1 0 .1-.1.1-.1.2v.1c-.1.1-.1.2-.2.3v.1c0 .1-.1.1-.1.2v.1c0 .1-.1.1-.1.2 0 0 0 .1-.1.1 0 .1-.1.1-.1.2 0 0 0 .1-.1.1l-.2.2-.2.2-.1.1-.2.2-.1.1-.2.2-.2.2-.1.1c-.1 0-.1.1-.2.1l-.1.1-.2.2c-2 1.5-4.8 2-7.1.8"/><path fill="#0A69AD" d="M80.1 43.3c1.4 1 3.3.9 4.7.2.2-.1.5-.3.7-.4.2-.1.5-.3.6-.5.1-.1.2-.1.2-.2l.1-.1.2-.2c.1-.1.1-.2.2-.3v-.1c.1-.1.1-.2.2-.3l.1-.1v-.1c0-.1.1-.1.1-.2s.1-.1.1-.2v-.1s0-.1.1-.1c0-.1.1-.2.1-.3v-.1c0-.1.1-.1.1-.2v-.1c0-.1 0-.1.1-.2v-.1c0-.1.1-.2.1-.3.8-5-3-6.2-3-6.2 1.5 1 2.2 3.1 1.7 5.2 0 .1-.1.2-.1.3v.1c0 .1 0 .1-.1.2v.1c0 .1-.1.1-.1.2v.1c0 .1-.1.2-.1.3 0 0 0 .1-.1.1v.1c0 .1-.1.1-.1.2s-.1.1-.1.2v.1l-.1.1c-.1.1-.1.2-.2.3v.1c-.7.9-1.8 1.7-2.9 2-1.2.4-2.5.3-3.6-.4"/><path fill="#0A69AD" d="M78.9 39.8c.8.6 1.9.6 2.8.2 1-.4 1.8-1.3 2.1-2.3v-.2c0-.1 0-.1.1-.2.5-2.8-1.4-3.5-1.7-3.7.9.7 1.2 1.8.8 3.1 0 .1-.1.2-.1.3 0 .1-.1.3-.2.4-.1.2-.3.5-.4.7-.9 1.2-2.7 2-4.1 1.2M95.3 8.7l1.8.8v.9l-1.7-.1 1.7.6v.9h-1.8l-.4-.1v-.6l1.8.1-1.8-.7v-.8l1.8.1-1.8-.7v-.5l.4.1zm.5-1.4c-.4-.1-.4-.1-.4.1v.3l.8.2.9.3v.5l-2-.4-.3-.1v-.5l.2-.1s-.2-.3-.2-.5c0-.6.4-.5 1-.4v.6zm-1.3-1.7c0 .2-.1.4-.3.3-.3-.1-.3-.2-.3-.5 0-.2.1-.4.3-.3.3.1.3.3.3.5zm2.6.3v.5l-.9-.1-.8-.2-.1.4-.5-.1v-1l2.3.5zm-1.8-2.3l.1.6.9.2c.2 0 .3 0 .3-.2v-.3l.4.1s.1.4.1.6c0 .7-.4.6-.9.5l-.8-.2-.1.4-.5-.1v-.5l-.6-.2V4l.6.1v-.6l.5.1zm0-1.3c0 .3.2.5.4.5V2c-.2-.1-.4 0-.4.3zm.9.6c.3 0 .4-.1.4-.4v-.9l.4.1s.1.5.1.9c0 1-.6 1-1.2.9-.6-.1-1.2-.4-1.2-1.3s.6-1 1.4-.7v1.4h.1z"/><path fill="#F9F8DD" d="M238.4 0c-2.5 4-7 5.9-11.3 5.4l-19-5.4h30.3z"/><path fill="#EFE530" d="M211 .4l-6.6 8.2 8.4 1.9-9.7 14.5 15.3-15.8-10.8-2z"/><path fill="#349A37" d="M226.8 47.7l-19.6 19.5c-1 .9-2.7.8-3-.2l-1.1-3.2c-.2-.7-1.2-1-2.2-.7-.9.3-1.9 0-2.2-.7l-3.9-11c-.2-.7.3-1.6 1.3-1.9.9-.3 1.5-1.2 1.3-1.9l-1.1-3.2c-.4-1 .9-2.2 2.3-2l27.5 3c1.2.2 1.6 1.4.7 2.3z"/><path fill="#81BB27" d="M224.4 48.3l-15.4 16c-.7.8-2.1.7-2.4-.2l-.9-2.6c-.2-.6-1-.9-1.7-.6-.8.3-1.5 0-1.7-.6l-3.2-9.2c-.2-.6.2-1.3 1-1.6.8-.3 1.2-1 1-1.6l-.9-2.6c-.3-.9.7-1.8 1.8-1.6l22 2.9c.8 0 1.1 1 .4 1.7z"/></svg>